<?xml version="1.0" encoding="UTF-8"?>
<svg id="Layer_1" data-name="Layer 1" xmlns="http://www.w3.org/2000/svg" viewBox="0 0 293.43 172.82">
  <defs>
    <style>
      .cls-1 {
        fill: white;
      }
    </style>
  </defs>
  <path class="cls-1" d="M151.53,146.7c.33-.65.67-1.34,1-2-.14,1.13.12,1.3-1,2Z"/>
  <path class="cls-1" d="M186.48,69.85c.09,0,.53-.96,1-1-.31.4-.89.79-1,1Z"/>
  <path class="cls-1" d="M214.43,34.93c2.55-8.51,9.08-3.02,9.98-3.42,1.48-.66,8.38-10.05,9.98-8.54l-6.98,14.95c3.95,1.03,14.06-10.17,15.02-3.46.64,4.48-5.49,11.56-3.86,14.27.22.36,2.32.83,3.31,2.16,1.43,1.92,1.54,6.21,4.19,6.88,3.6.9,6.44-5.04,10.28-4.86,2.29,2.48-12.94,14.38-14.49,16.94-1.66,2.74.95,2.04,2.51,2.01-7.69,3.17-4.21,3.62-6.93,8.29-1.9,3.25-10.96,3.88-7.04,10.68l4.98-1-2.98,9.97c1.64.44.46-1.74,1.64-2.01,1.3-.3,2.95.16,4.35.03l-1.99,4.97c10.67-.37,5-4.12,5.01-5.49,0-1.05,6.82-3.69,8.3-4.65,6.12-3.95,5.52-3.37,11.64-5.82l-.49,2.02,17.46-5.01-2.07,3.41-12.89,8.55c10.26-1.12,19.64-6.82,29.94-6.97.51,2.58-.56,1.74-1.95,2.5-3.1,1.68-6.67,2.53-10.02,3.5l5.98,1c-.86,3.67-14.28,5.06-14.97,5.99-1.84,2.48,5.06,3.79,6.48,2.98,1.84,3.69-6.76,4.6-8.48,6.5-1.04,1.15-.93,2.98-2,4.48-2.89-.18-7.03,2.05-9.54,1.89-6.48-.42-3.57-2-12.42.11,3.72-11.07-10.49-.33-4.44.95.22.05,3.58-.75,4.44-.95-.33.98-2.17,2.1-1.93,3.37.29,1.54,5.46,3.49,5.9,6.12-2.88,3.36-19.27,7.92-19.93,11-1,4.68,7.99-.47,8.97,3.01.18.63-3.68,9.64-4.24,10.17-3.38,3.22-16.1,1.88-14.22-5.73-3.83,1.32-4.28,6.37-6.94,8.04-2.18,1.37-5.59,1.3-8.12,1.91-1.7.41-2.9-.97-2.42,2.02,2.18.36,5.33-.54,7.27,0,.96.26,1.19,2.16,2.29,2.89,4.54,2.98,5.97-1.76,9.89-1.97,9.12-.5,29.27,2.88,39.44,4.08,3.16.37,8.04-.6,9.98,2.98-15.55,1.4-32.17-2.54-47.42.02-1.15.19-1.83.53-2.49,1.51-.92,1.94,3.16.94,1.98,3.97-.99,2.54-14.5,1.43-17.96,1.51.5-2.46-1.1-2.17-2.75-2.69-7.99-2.51-8.46-2.34-15.96-1.5-5.6.63-3.28-4.12-6.74-4.83-7.16-1.47-11.44,6.83-18.51,4.59-9.12-2.88,7.2-8.86,9.93-11.13l20.57-15.36c-4.45,1.16-31.85,17.48-33.45,15.94l4.5-7.96c-1.82,3.12-4.19.96-5.88,1.26-1.6.29-3.29,2.64-4.61,1.22,2.29-2.6,3.15-7.3,5.13-9.85,1.42-1.82,5.31-3.4,5.76-5.34s-1.43-2.82-1.63-3.96c-.23-1.36,1.58-3.41.23-4.31-.85,3.2-7.43,5.97-8.05,6.96-1.19,1.91.63,4.05.14,6.06-.44,1.83-2.36,2.5-2.58,2.93.19-1.51.21-4.39-1.61-4.94-5.32.05-5.96,3.31-5.37,7.93.34.34,5.2-.51,5.99-1-.49.96-3.66,9.33-4.49,8.98l-11.48-14.96c-.22,3.17,4.45,10,4.06,12.38-.15.93-7,1.72-5.07,6.58-2.82.97-2.34-3.49-4.57-3.96s-2.91,3.67-4.11,3.98c-2.92.74-6.35-.93-9.27-1.01-.5,3.03.78,1.58,2.43,2.01,5.61,1.45,6.03.37,9.55,3.97-10.34,2.42-39.64-9.27-47.25-6.82-1.16.37-2.32,1.94-1.67,2.81.82,1.09,11.35,3.43,13.54,3.99,1.66.42,2.92-1.01,2.43,2.01-15.66,1.86-29.72-3.72-44.92-4.97-.26.8.98.88,1,.99.86,5.14-2.76,3.59-3,6.99-.6.03-1.98.91-3.44,1-5.8.36-11.72-.27-17.52-.01-2.58-2.08,7.55-4.77,8.63-4.95,2.67-.43,4.3,2.14,6.33-2.03l-11.97-2.02c-1.37-1.89,8.65-7.57,3.41-8.94-3.63-.95-16.44,7.53-18.96-2.99-.41-1.71.96-3.35.14-5.01-1.63-3.29-12.12-3.44-2.57-8.51l8.98-1.48c-6.93-1.56-14.56-4.81-20.96-7.99l5-1c1.31-5.58-3.45-3.5-4-6.98-.16-.98.23-2.23-.04-3.41-1.04-4.57-4.92-6.38,4.03-7.57.72,3.08,5.77,7.16,8.65,7.87,2.09.52,1.28-1.83,2.73-2.96,3.06-2.38,4.62.32,7.06.61,1.24.15,2.81-.75,4.77-.36,5.18,1.03,2.17,6.86,8.73,8.37,4.75,1.09,3.52-2.75,4.5-2.55,1.58.33,2.47,2.66,3.88,3.15,2.87,1,6.03.45,8.67,1.28,4.11,1.28,10.97,6.1,14.94,4.08,1.51-.77,1.64-3.45,2.62-3.6,2.15-.35,11.45,4.99,13.33.57,1.55-3.64-6.2-3.47-7.48-6.42-.49-1.14.97-3.27.47-3.99-1.06-1.55-11.54-3.28-13.53-.06-1.38,2.25,2.37,5.21-.79,4.87-6.21-.67-16.16-7.85-21.89-11.06-2.33-1.3-4.38-2.64-6.43-3.81-2.65-1.52-6.24-3.41-9.25-3.98-.18-1.98,2.9-.6,3.8-.3,6.08,1.98,12.71,6.44,18.91,8.1,1.13.3,2.72-.84,3.11-.63.69.36,5.62,8.68,6.64.82l10.47,3c-1.87-6.98,2.08-12.43-3.51-18.93-2.12-2.47-6.1-2.49-7.03-4-1.18-1.92.79-4.02-.17-6.68-.77-2.12-8.27-11.55-10.23-12.89-2.16-1.49-3.3-.63-4.02-1.05-2.25-1.31-3.98-4.05-6.98-4.34-.21-.82-1.42-1.43-.51-1.97l3.5.97-1.5-8.97c2.26,1.68,14.8,16.77,17.47,13.96,1.59-4.16-4.95-27.83-3.98-28.93,2.66-3.02,5.44,11.57,6,11.97,5.36-.32,3.9-2.79,3.98-6.99,2.83-1.83,1.64-.9,2.14,1.34.64,2.91,1.2,5.62.85,8.63-11.58-3.28.83,11.05-1,12.97-.39.41-5.18-3.12-4.96,2.38.06,1.59,5.17,12.88,5.99,13.58,4.22,3.58-.58-9.16.48-9.97l14.99,19.93c-.97-4.91-4.61-9.81-4.01-14.94.85,3.2,12.32,16.4,12.32,17.47,0,1.19-6.66,3.75-2.88,10.03,2.16,3.59,4.29,1.64,6.55,1.92.97.12,1.97,1.71,2.96,1.52,2.2-.41-.48-5.77,5.51-3.01,1.63-1.77-5.61-18.19-5.04-21.9l-3.93-.05c-.22.17,2.76,4.57-1.49,2.97-2.74-1.03-.14-4.2-.57-4.85-.31-.47-3.01-.46-3.75-2.81-2.44-7.76,4.08-5.66,4.82-6.3.38-.33-1.92-6.51-1.51-7.96,2.76,4.39,6.86,9.2,9.36,13.59,1.3,2.29,1.04,5.38,2.66,7.32,1.79,2.15,7.31,2.94,8.53,4.7,1.07,1.53,14.23,27.59,14.46,29.21s-2.66,2.69-.9,6.8c.74,1.72,3.21,1.85,3.85,3.2,1.47,3.11-1.48,6.92,4.04,7,3.04.04,2.35-5.23,2.01-7.01-.31-1.59-2.42-6.46-3.52-7.51-1.36-1.3-3.39-1.03-4.07-2.14-3.8-6.18-8.45-28.38-11.02-36.65-3.31-10.69-8.25-21.24-9.91-32.49,9.85,9.3,10.12,24.8,18.95,34.93l-6.97-30.94c4.4,1.24,3.44,8.85,4.12,9.85.32.48,2.54.49,3.58,1.4,2.71,2.39,4.6,10.39,8.25,12.7-2.58-10.34,10.7-5.73,11.95-7.03.3-.31-.37-5.27,2.68-5.8,1.21-.21,7.76,2.86,9.33,3.85,1.41-6.35,1.44-13.24,2.98-19.53.41-1.69-.99-2.91,2.02-2.42l-.98,53.88c1.44.07,1.51-3.61,1.69-4.77,1.98-12.93,2.05-26.57,12.26-36.14-1.31,4.14,2.86,2.57,3.02,3.51l-5,14.45c1.68,1.99,5.55-7.41,6.18-7.77,1.36-.78,4.87.01,6.79-.21-.85,1.63-3.97,4.81-.36,5.9,5.36,1.62,15.02-8.01,1.36-6.9.84-1.1.27-3.7,3.51-4.04,1.97-.21,1.27,2.02,2.06,2.06.69.03,1.82-.83,2.9-.81,1.3.02,2.82.99,3.9.73,1.7-.4,3.04-11.37,5.1-2.94l12.46-9.49c-9.37,11.32-19.18,21.95-28.91,32.96-1.52,1.72-5.06,3.89-5.71,4.77-1.17,1.6-1.62,7.93-5.76,6.67-1.53-.46-.88-3.82-3.02-2.97-1.39,3.18-10.52,5.01-8.3,8.81l5.83,5.67-3.54,7.44c.52-2.1,7.76-6.66,8.49-5.97-.28,6.68,7.47,4.44,9.28-.3.85-2.21-.4-3.54-.27-4.15.62-2.92,2.81.34,4.02.05,1.74-.41,9.4-6.3,8.94-8.06-.3-1.14-2.9-1.39-3-1.53-.31-.44,1.81-1.78,1.92-3.4.16-2.38-2.8-6.83-2.48-7.55,1.48-3.37,7.62-4.36,9.29-6.27,1.22-1.4.21-3.52,1-5.36,1.37-3.18,11.8-15.04,14.74-16.3,1.18-.51,1.99.3,1.48,1.48-1.07,2.46-6.39,6.22-6.96,10,3.47-1.2,5.77-4.61,9.96-3.5.92,5.9-5.16,5.86-7.51,9.02-1.5,2.03-.35,3.57-1,4.88-.97,1.98-4.94,3.86-4.46,7.04,1.27,1.32,14.29-10.04,16.04-11.4,3.89-3.02,9.42-4.83,12.37-9.59,3.51-5.67,2.69-14.07-3.93-16.93l-4.52,3.99c-1.39-7.37,2.41-11.32,5.98-16.95-1.22-1.04-6.2,3.34-7.74,3.74-4.11,1.09-8.07-1.36-12.24-.76l2-7.97c-.75-.73-4.24,2.26-4.99,2.98ZM156.37,76c-.25-.41-3.88-1.36-4.82-2.15-.67,2.39,1.37,6.12,3.5,6.98,2.32.94,1.73-4.17,1.32-4.82ZM202.44,90.81c.81-.57,1.56-5.65-1.47-4.98-4.23.94-1.65,7.17,1.47,4.98ZM137.54,87.82c-4.22-.88.14,3.07-.02,4.5-.23,1.98-5.86-.76-3.49,6.51,2.59,7.96,6.7,3.49,9.36,5.11.55.33,2.26,8.21,4.15,5.82-.28-8.6-6.44-14.71-10-21.94ZM207.45,89.8c1.46.33,2.09-.42,2.97-1.5-.99-.43-3.94,1.03-2.97,1.5ZM83.63,95.8c.33-1.46-.42-2.08-1.5-2.97-.43.99,1.03,3.94,1.5,2.97ZM225.16,105.54c2.46-2.33.54-5.14-2.48-5.58s-7.22,3.24-9.97,3.62c-4.88.67-7.29-2.05-11.79,4.16-5.73,7.9,3.77.89,6.5.46,9.23-1.44-2.5,7.69-.96,12.55,4.19,2.18,9.65-2.98,11.46-3.01.77-.01,1.29,4.84,4.8,3.9,4.17-1.12,2.65-5.36,2.84-5.66.78-1.25,6.58-2.4,4.84-7.19-6.28-1-8.94,6.21-14.97,4.98-1.95-6.19,7.36-5.98,9.73-8.22ZM240.55,110.96c.63-.84,15.87-2.04,11.4-8.24-2.14-2.97-9.56.73-11.94,2.22-1.07.67-1.41,2.04-2.35,2.86-.84.74-3.02.71-3.78,1.95-.51.84-.78,3.7-.47,4.01,1.53,1.54,5.73-2.2,5.98-1.99.37.32-.82,2.39,1,1.99.09-.84-.29-2.2.16-2.8ZM263.1,107.96c-6.89,1.22-8.17,8.28-.46,6.62,5.43-1.17,6.92-7.76.46-6.62ZM99.61,113.75c1.83-2.6-4.69-6.87-6.53-4.02-3.49,5.39,5.72,5.17,6.53,4.02ZM148.53,112.76c.72-1.4-.63-2.66-.98-1.99-.72,1.4.63,2.66.98,1.99ZM19.74,129.73c2.42-2.37-4.31-5.61-5.98-3.98-2.42,2.37,4.31,5.61,5.98,3.98ZM164.01,126.74v1c.65-.33.65-.67,0-1ZM81.91,130.45c-.69-.47-.83-2.41-1.82-2.67-2.15-.57-5.07,2.42-3.92,4.92-4.72-.89-10.33-2.53-15.01-2.95-1.08-.1-4.65-.8-4.46.97l49.91,14.97c-1.04-3.52-10.92-4.95-11.98-5.99-3.15-3.12,4.24-1.05,4.63-1.03,6.68.33,2.26-7.62-4.16-8.01-3.7-.22-9.5,2.3-13.19-.21ZM87.64,144.69l-3.76-2.72-45.16-10.24c.81,1.6,4.32,2.74,6.02,3.45,1.45.61,21.6,7.29,19.93,8.51-2.08.5-6.79-1.58-5.99,2l21.96,2.99-1.99-4.97,8.99.98ZM108.1,145.7v1c.65-.33.65-.67,0-1ZM213.43,149.69c-.44-.47-6.59-.34-5.98,2.47.71,3.31,8.56.27,5.98-2.47Z"/>
  <path class="cls-1" d="M176.49,0v12.97c2.83-.76,1.15-7.74,4.99-6.98l-1.98,17.96,7.97-9.97-.98,14.96c3.46,1.43,8.02-6.93,9.97-4.98.46.46-1.78,10.96-1.5,12.95l4.02-1.95c-.38,5.83.4,7.35,6.51,5.5,2.5-.76,4.26-3.14,6.95-3.52-.2.2-.21,1.66-.94,2.52-4.39,5.19-8.83,3.15-12.61,5.4-2.48,1.47-2.72,5.82-5.41,7.06l1.98-11.97c-1.94-2.13-6.55,8.06-8.96,7.49l7.96-20.46c-1.77-1.9-8.65,10.95-11.97,9.97l.5-12.96c-3.45,1.96-5.29,13.74-6.51,14.96-3.55,3.56-.44-10.66-.99-10.97-4.36,2.09-4.05,8.41-7.97,10.98,2.7-11.87,4.46-24.22,7.42-36.02.37-1.46,1.47-2.57,1.55-2.9Z"/>
  <path class="cls-1" d="M88.63,23.95c1.74,7.26,4.39,14.42,4.98,21.95-3.51-1.41-3.82-9.85-5.97-11.49-5.41,1.16-4.08,7.4-5.24,10.76-.65,1.88-3.36,3.25-3.55,5.38-.27,3.04,5.2,9.56,4.78,13.32-4.8-4.48-6.65-11.61-9.97-16.96,6.44,1.55,4.13-5.55,5.24-9.23.62-2.05,3.05-3.96,3.54-6.49.8-4.16-1.15-7.29-1.79-11.22,3.88-.59,3.72,7.13,7.98,3.99Z"/>
  <path class="cls-1" d="M255.37,131.73c-1.73,2.45-.97,2.2,1.52,2.03,2.86-.2,5.55-1.33,8.46-1.03l-5.98,4.98c2.03,1.12,9.65-1.37,9.97-.99.09.11.09,2.85,0,2.96-.5.6-13.11,3.02-14.96,4.51,4.76,2.87,10.19,4.49,15.24,6.78,1.48.67,3.27.13,2.73,2.71-2.28-.16-5.15-2.07-7.77-2.71-8.01-1.98-16.07-3.73-24.17-5.28l11.48-4.97c3.36-2.83-.12-1.61-1.05-2.96-1.3-1.89,2.05-6.18,4.53-6.03Z"/>
  <path class="cls-1" d="M131.57,23.95c1.67,1.78,3.18-.99,3.49-.98,1.37.04,1.39,3.8,1.55,3.94,2.5,2.19,11.81-8.07,12.92-6.94.6.82-8.12,11.99-3.5,9.97,2.7-1.18,8-7.8,10.5-9.97-.62,3.98-.81,8.89-1.01,12.97-2.29-.05-.83-7.35-3.47-5.98-1.49.78-3.6,6.22-6.21,6.85-2.13.52-4.57-2.57-8.54-.84-1.3.57-.12,2.32-1.73,1.95l-1.02-5.98c-1.35-.59-.92,4.09-2.97,1.99-1.61-1.65,0-6.31,0-6.99Z"/>
  <path class="cls-1" d="M109.6,18.96c5.02,3.53.89,12.09,8.99,9.98-.41-4.04-.24-5.85,2.01-8.98l3.48,9.95c2.48-1.61,1.85-4.56,2.8-6.7.21-.47,1.64-.19,1.69-.26,0,3.25.37,18.37-5.82,14.78-.49-.29-3.28-6.93-7.15-6.8l-.5,8.98c-4.36-6.13-3.92-14.06-5.5-20.95Z"/>
  <path class="cls-1" d="M258.36,66.86c3.12-3.23,8.32-4.6,12.97-4.5-3.08,2.9-5.87,6.13-8.97,9-4.23,3.91-13.83,7.21-6,12.46-1.45,0-5.79-1.64-7.98-1.49,3.58-2.08.38-4.95,1.44-7.46.96-2.26,5.87-3.91,7.53-5.58.96-.97.87-2.29,1.01-2.44Z"/>
  <path class="cls-1" d="M97.62,32.93c2.81-2.05,1.66-7.98,5.99-7.98-.6,4,2.11,7.81,3,10.97.69,2.47,1.99,5.37.5,7.98-2.78-3.42-4.51-7.72-5.51-11.96l-.99,4.98c-2.91.75-2.23-2.26-2.99-3.99Z"/>
  <path class="cls-1" d="M20.74,87.82c-6.06-.5-.55,1.49-1.15,3.31-.27.83-1.58,1.64-1.61,2.2-.07,1.08,3.58,2.41,2.76,4.47-2.71.18-5.35-.54-7.98-.99,1.58-3.6,1.9-7.19,1-10.97.96-1.01,5.95,1.76,6.98,1.99Z"/>
  <path class="cls-1" d="M55.69,164.66c1.96.47,11.91.95,12.98,2.01,3.59,3.54-10.11,1.92-10.98,1.99l-2-3.99Z"/>
  <path class="cls-1" d="M6.76,98.79c.1.03.81-1.07,1.95-.59,4.04,1.71,7.67,4.56,12.02,5.59.27,1.7-2.4,1.08-3.4.91-2.13-.37-6.94-1.71-8.57-2.92-.64-.48-1.29-2.28-2-2.99Z"/>
  <path class="cls-1" d="M157.52,15.97c.33-.76-.42-3.81,2.83-1.78,1.03.64,1.39,5.86,4.16.79-.03.05.62.5.36.98-1.46,2.68-3.02,5.55-4.86,8-1.85-1.53,1.74-8.57-2.49-7.98Z"/>
  <path class="cls-1" d="M109.6,17.96l-1-2c.25.59.72.94,1,2Z"/>
  <path class="cls-1" d="M181.98,3.99c.65.33.65.67,0,1v-1Z"/>
  <path class="cls-1" d="M151.99,56.35c-.59.49-.25,1.57-1.93,1.63-9.18.37-7.51-8.59,0-9.13s6.56,3.65,1.94,7.49Z"/>
  <path class="cls-1" d="M100.61,68.85c-6.75,1.12-6.4-10.98-1.5-5.98,1.36,1.39,1.63,4.1,1.5,5.98Z"/>
  <path class="cls-1" d="M76.15,74.84c.65.33.65.67,0,1v-1Z"/>
  <path class="cls-1" d="M75.16,72.85c.65.33.65.67,0,1v-1Z"/>
  <path class="cls-1" d="M66.54,104.66c-.77,1.23-9.27,1.65-10.9.66-1.62-.92.81-8.15,1.18-8.38,4.11-2.66,12.63,3.07,9.72,7.72Z"/>
  <path class="cls-1" d="M39.71,67.86c.66,1.09,3.38,2.57,3.71,4.64.21,1.31-.91,10.53-1.66,11.87-1.28,2.29-4.35,3.81-6.98,3.51l.48,1.91c-4.28-2.24-7.8-1.04-12.51-1.98l5-1.01-2-6.97c2.74-.68,4.59.72,6.96,1.5l-2.97-4.5,9.97,3.98c-.1-4.58-1.13-8.39,0-12.97Z"/>
  <path class="cls-1" d="M147.53,164.65c-.39.39-10.51-.73-8.97-4.48,1.73-4.2,11.56,1.89,8.97,4.48Z"/>
  <path class="cls-1" d="M246.14,155.42c-3.88,3.75-13.39-1.61-6.01-5.5,6.28-3.31,8.75,2.85,6.01,5.5Z"/>
</svg>