<?xml version="1.0" encoding="UTF-8"?>
<svg id="Layer_1" data-name="Layer 1" xmlns="http://www.w3.org/2000/svg" viewBox="0 0 422.15 157.1">
  <defs>
    <style>
      .cls-1 {
        fill: white;
      }
    </style>
  </defs>
  <path class="cls-1" d="M256.14,56.94c.61.56,11.32-.57,16.21,2.3,4.71,2.76,5.9,7.7,8.69,10.31,3.74,3.5,10.5,4.73,9.97,12.55,6.93-2.75,16.82,1.05,19.47,8.02,1.09,2.87,3.86,16.86,4.49,17.5,3.04,3.11,7.36-.19,10.74,1.2,4.63,1.91,3.29,6.6,5.29,8.78.35.38,7.25,3.85,7.88,3.96,4.55.79,9.75-3.25,11.13,5.53,4.28-1.89,2.04-8.6,3.5-10.98,1.59-2.6,7.94-5.91,9.25-7.25,1.11-1.15,2.88-9.72,4.74-9.74,1.86,1.07.99,3.3,1.79,4.7.25.44,1.6.64,2.46,1.98.55.86-.02,2.83,1.21,3.83,1.49,1.2,8.53,1.16,9.81,2.7.21.26,2.17,5.97,2.14,6.31-.11,1.3-3.97.7-2.91,3.46,1.76-.09,3.51-1.33,5.32-1.04.72.12.73,1.61,1.4,2.01,7.2,4.38,2.96,3.65,5.16,6.55,4.25,5.61,10-.59,15.11-.52-3.38,7.2,1.88,7.5,4.06,10.7,1.63,2.4,2.3,5.64,4.95,8.79,1.59,1.88,4.87,1.84,3.99,5.49-1.83.5-3.52.92-5.45,1.06-52.14,3.77-112.88-.35-166.09-.1-76.77.37-155.26,4.45-231.91,0-3.09-.18-15.73,1.18-16.53-1.49-1.45-4.82,10.63-6.54,13.08-9.11.92-11-6.49-9.69-11.1-14.84-1.12-1.25-3.87-6.54-3.97-8.09-.29-4.22,3.6-5.33,4.73-8.18.95-2.38,3.57-14.38,3.07-16.52-1.06-4.57-5.29-4.84,1.18-11.22,4.49-4.43,9.55-2.4,13-5,2.28-1.72,2.06-4.41,3.55-6.45,3.36-4.63,6.69-4.8,10.4-7.6,7.15-5.41,11.49-14.61,19.57-2.44,3.62-8.49,14.79-4.37,20.83-.84,1.84,1.08,5.88,5.85,6.31,5.89,2.11.18,4.23-1.6,7.63-.86,1.9.41,12.18,9.14,11.62,3.45-.22-2.26-3.93-3.59-2.86-9.08.3-1.54,1.89-2.74,1.94-4.06.05-1.47-1.64-3.2-1.92-5.06-1.32-8.76,4.26-9.32,4.8-12.08.45-2.34-4.99-6.74-2.77-10.69,2.54-4.51,8.57-3.84,12.64-5.44,4.71-1.85,8.64-6.45,13.23-8.77,3.07-1.56,6.39-1.67,9.39-3.61,3.58-2.33,5.56-8.16,9.6-9.4,2.51-.77,5.01-.09,7.36-.64,2.63-.62,3.34-3.02,7.17-2.88,5.74.2,9.73,6.25,12.25,6.94,3.67,1.01,6.84-3.57,13.99-.06,5.91,2.9,3.62,7.8,6.23,12.76,2.43,1.66,14.87,1.83,18.12,2.88,2.93.95,3.15,4.11,4.95,5.05,1.7.89,4.47.59,6.56,1.44,6.53,2.64,6.16,11.38,9.19,16.81l-.25,11.27c4.79-2.81,18.53-8.74,23.05-4.05,1.34,1.39,1.25,3.62,1.57,3.91ZM189.38,20.75c-1.31-3.54-.73-7.06-1.59-9.95-1.79-6.02-10.62-.34-14.08-.89-4.35-.7-8.15-7.8-14.13-6.81-2.06.34-3.31,2.38-5.29,2.82-3.84.85-7.87-2.28-10.28,3.16,1.97.63,2.48-1.54,3.51-1.98,3.65-1.57-1.32,7.94-5.51,3.99l.04,4.54c-6.61-.48-8.48,2.26-13.13,4.87-1.59.89-4.01.71-5.36,1.65-2.47,1.73.02,5.44-6.55,3.95l1.99,3.98-6.99,2.02-.53-3.04c-11.6-.22-6.45,6.48-3.49,13.49-.35,1.51-4.48,1.54-5.5,3.53-2.88,5.65,1.73,6.12,2.99,8.08.67,1.05.26,2.81.86,3.63,3.27,4.45,8.31,7.05,13.66,8.32-.15-1.4.49-4.45,2.5-4,3.27,3.13,7.14,6.43,7.48,11.41-1.29,2.28-3.01,1.56-4.96.58l-1,6.01,11-1c1.15,5.43-1.86,2.88-4,5.99h6c.16,2.1.38,2.89-1.79,3.17l-.21,1.32c11.39,7.79-4.04,7.22-6.76,9.76-1.1,1.03-1.68,5.09-2.43,5.57-1.22.77-4.11-.35-6.76,1.74-4.53,3.56-3.13,10.57-4.49,12.5-.44.62-10.62,3.76-11.56,7.44l10.99-.51-.15,4.86c-8.7,1.9-.93,5.03-.77,5.81.34,1.7-1.21,3.9-1.04,5.74l1.57,1.38,3.42-.39.97,4.59,2.94-.04c.4-2.68.97-3.94,3.56-4.94,2.65,1.26.81,5.93,1.61,6.87.61.72,10.06,3,11.75,1.97l1.79-3.94c2.25-.52,5.2,1.39,6.7,1.15.85-.14,1.85-5.55,6.63-2.08.77-.94-7.89-14.35-1.53-19.09,1.64-1.22,6.69.92,5.54-5.9-4.18-.42-5.84,5.12-10.43,3.96-4.84-1.23,5.73-6.98,3.42-9.97-1.21.65-2.74.87-3.9,1.59-7.99,4.99-4.75,11.48-10.03,17.69-3.89,4.58-5.38-2.64-4.07-6.28l-4.02.57-1.04-4.99,3.66-1.53c-.68-6.47,2.03-16.07,10.4-14.06,1.05-2.71-5.69-3.12-2.03-5.52s10.81,4.25,13.59-.48c.76-1.29-1.85-4.6,2.14-5.79,3.32-.99,9.31-.65,9.29,3.78l-6,1.02c1.51,3.7,6.9,3.27,9.32,1.05,1.13-1.04.86-3.64,2.21-4.06,2.44-.75,6.23,3.36,5.44,5.96l-4.97,3.03c4.95,3.57,10.2,6.32,9.95-2.58-.08-2.9-6.15-2.88-2.93-5.87,5.02-4.66,4.84,2.61,9.47,1.51,2.9-.69,1.82-4.34,5.9-2.93,4.87,1.69-2.11,3.78-1.38,5.38,2.94,2.26,5.72,3.05,5,7.51l4.01-1.54c1.29,1.78,3.88,3.33,5.01,5.01,1.27,1.88.59,4.72,2.96,5.53,3.11-10.74-11.55-13.84-9.06-23.92l-9.93-.09c.16-3.04,2.76-4.97,4.99-6.5.64-2.4-5.13-4.03-7-3.49l.99,3.98c-5.66,1.19-9.3-4.97-14,.51,6.29,4.06-2.36,2.39-2.81,2.63-.54.3-2.02,4.09-4.89,4.62l-6.25-4.36c-1.33-4.31,8.65-7.01,11.94-6.41-2.02-4.02-6.77-1.01-10-1-1.93-1.49,15.22-5.42,16.26-5.98,1.31-.71,1.63-4.07,5.03-6.22,5.65-3.56,16.6-1.13,15.2-7.8h-4.49s1.01-3.5,1.01-3.5l-13-3.49,1.49,3.97c8.26-5.52,3.01,6.89-1.2,7.93-6.9-3.75-5.81.62-10.37,3.56-.94.61-1.75,1.43-3.01,1.09-3.93-1.53-4.6-6.08-3.71-9.85.14-.59,5.26-8.28,1.31-6.7-3.74,1.5-5.66,12.34-12.51,10.99-1.16-2.55,1.89-6.47,1.47-7.99-1.4-5.1-8.38-3.68-8.45-5.5,1.82-6,11.82-3.6,10.01-10.82-.25-1-2.28-1.14-3.07-2.12-2.4-2.94-2.24-7.06,2.4-5.45,2.25.78,4.53,8.21,10.56,4.91l1.07,2.95c-9.09.95-5.87,8.14,2.07,3.41.52-5.51-2.17-9.67-4.95-14.04l1.42-2.34c6.55,1.1,7.76,8.05,15.47,5.98v-3.99c-4.05,3.99-3.76-.61-6.48-3.02-1.72-1.52-4.62-1.66-5.52-3.97l19.01.98v4.02c.42.46,8.24-.54,10.36.15.51.17,6.51,6.11,8.14,6.83,2.47,1.08.99-2.92,1.58-3.89l4.32-.2.59,6.09c2.79.71,4.63-5.38,7.01-3.51,2.16,1.69,1.79,9.97,2.19,12.81.19,1.33,1.96,2.96,1.8,4.19-.47,3.5-6.52-2.81-8.39-1.55-4.75,7.5,2.62,8.06,6.35,10.62,1.4.96,1.57,2.58,2.32,3.15,1.57,1.19,5.17.25,4.74,2.82l-5.54,6.48c-5.05-9.78-7.58,6.07-3.92,6.91l3.42-.9c0,3.81-.31,7.8,1.03,11.47.34.94,4.58,9.63,4.92,10.08,1.36,1.86,5.54,2.65,7.58,4.42,1.82,1.58,3.06,5.04,5.48,6.52l-6.44-1.49c-1.51,1.13-1.64,1.26-1.14,3.06,1,3.59,10.8,7.59,14.59,5.92,1.52-1.67-6.98-10.05-2.49-10.99,1.86-.39,4.92,6.17,9.48,2.99.98-1.01-3.87-5.49-4.45-7.04-.89-2.39.1-5.17-2.05-6.95-.9,2.93.22,6.14-3,7.98-2.58-.99-3.68-5.78-4.78-6.71-.67-.57-2.32-.42-3.23-1.21-3.43-2.97-2.4-5.45-9.4-3.1l-2.08-8.96c5.01-1.34,2.26,4.34,5.99,3.99l.47-8.03,3.93-.04,1.1,3.07,5.5-6.5-3.98-1.99,1-2.49,8.97.98-3-11.98c3.27-1.83,8.17.07,10.34-.3.93-.16,1.87-1.64,3.15-1.69.48-.02,8.8,1.43,9.25,1.61,1.13.46,4.36,6.71,5.25,1.88-7.86-11.64-13.79-5.09-24.99-5.52,1.3-2.28,5.05-.47,3.99-4.99-4.58,2.86-5.87-1.75-8.41-1.93-4.78-.32-7.45,2.69-10.68,4.33-1.35.69-2.9.72-4.44,1.56s-2.38,3.96-5.46,3.03l2.99-16.99-2.48.08-1.52-4.57,2.99-.52c.4-4.56-3.86-3.67-5.98-6.52l1.98-2.97c-1.94-3.61-8.88-.73-9.88-1.64-.3-.27-.05-2.33-1.08-3.38-2.11-2.15-10.33-4.21-13.47-3.56-.84.24.47,5.43-6.36,3.43-5.34-1.57-1.91-3.02-2.16-5.73-.06-.62-1.55-.66-1.66-.98ZM198.98,36.11l-6.97.99,1.99,3.98h-3.45c-3.31.4,6.05,7.18,8.27,3.76.53-.82-.37-2.57.68-2.75l4,3.98,1.5-2.97c-4-.58-6.53-2.75-6.02-6.99ZM187,46.11c-1.42-.32-6.33-3.83-6.99-.5-.62,3.12,7.16,5.79,6.99.5ZM72.22,64.93c-.52-.35-.5-2.23-1.83-2.7-.47-.17-9.05-.11-9.65.08-2.16.69-4.93,5.13-9.27,4.66-2.48-.32,1.84-7.96-5.87-5.77-1.33.38-1.78,7.39-1.78,8.72l-1.81.2,2.02,1.48-1.01,3.03c-4.65,1.02-9.67,1.69-11.52-3.52-3.97,2.16-4.63,8.39-7.04,10.96-1.37,1.46-3.41,1.41-4.22,2.35-.62.71.03,3.46-3.23,3.69l.99-2.99c-3.76-.65-6.8,2.19-8.02,5.56v1.81c4.57,1.82-1.32,11.22-1.81,15.39-.26,2.21.92,3.71.86,4.65-.05.82-2.26,1-3.07,2.01-2.93,3.66-2.76,7.22-1.96,11.56,9.96-3.09,2.05-4.6,2.01-5.49-.17-3.4,5.45-2.88,8.04-2.06,5.46,1.71,5.42,9.89,12.44-1.43,5.86,7.38,14.57,9.76,18.01,18.98,2.05-2.23-3.41-5.84.14-6.85,6.19-1.75,7.24,2.44,8.99,2.78,2.65.52,4.2-6.59,7.23-7.5-1.45-5.08-1.75-11.03-5.81-14.88l-6.05-.56c.78,1.92-3.4,10.52-5.49,10-1.34-.33-2.52-4.92-2.45-6.41.16-3.52,3.12-5.64,3.73-8.29.36-1.55.94-8.99-1.79-7.81l-4.52,4.5c-4.97-.69-1.21-7.45,1-9.11,1.42-1.07,2.91-.03,3.56-.43,1.32-.8,2.53-6,4.96-7.03,7.27,4.63,3.26-5.69,10-5.44-.66-5.18-9.61-1.46-8.01-8.99,3.18,1.41,4.25-1.88,4.7-1.98,1.65-.38,3.63.26,5.58-.25,1.48-.39,2.71-2.3,4.45-2.63,1.47-.28,11.19.6,11.25,2.36l-1.97,6.49c5.41-2,19.83,1.35,21.6,6.98,1.95,6.21-7.98,4.94-10.68,8.51-1.86,1.43,2.17,3.23.94,5.39-.23.4-6.73,3.95-7.89,4.64-.55.33-3.84.92-1.97,2.48.86.72,5.72-3.41,7.74-3.8,2.48-.48,4.65.6,6.29.2.95-.23,7.78-4.15,5.43-5.39l-4.32-1.16-.15-3.85c2.67-.53,5.7.67,8.15.45,5.6-.5,7.98-4.98-.14-2.46-1.9-9.23,5.08-6.15,8.66-11.48l-1.67-9.52h-3.98s2.99,11.01,2.99,11.01l-9-1.01-.51,3.02c-3.13-11.33-7.78-4.83-12.77-6.15-2.29-.61-5.65-6.47-7.7-7.31-.89-.36-2.24.66-2.8.28ZM86.91,77.19c-2.76-.84-5-2.29-7.91-1.09v2.98s7.99,1,7.99,1l-.09-2.9ZM107.16,96.92c1.43.89,7.47.37,6.84-2.32-2.3-2.73-5.7-2.71-9-2.5.79.94,1.76,4.58,2.15,4.82ZM90,120.1c-3.19,1.08-9.89,1.23-8.99,5.99,3.97.27,7.02-2.95,8.99-5.99ZM362,120.1c-9.28-.73-4.7,9.11-11.32,12.26-1.36.65-5.86.91-7.67,1.74l-.06-2.89c-.7-.66-15.71-.72-13.42,3.9,1.73-.92,5.81-.33,6.43,1.62l-2.94,9.38c4.12-3.25,6.69-4.26,11.92-3.06l2.56-5.9c1.29.84,5.33,3.15,6.53,2.47,4.58-2.6,1.4-11.86,8.97-8.5l-1.99,3.98c7.26-3.5,13.81,2.47,19.99,6.01,1.1-4.36-3.36-3.77-4.71-5.29-1.48-1.66-3.85-11.07-6.79-10.7-.83.11-1.16,2.49-1.66,2.8-1.91,1.17-6.47-1.56-8.77-1.89-1.36-3.89,3.09-2.52,2.94-5.93ZM249,131.11c-3.85-.67-5.95-4.04-9.99-2-.14,1.61-.29,3.23,1.66,3.83,1.21.38,11.01.9,8.34-1.83ZM269.99,139.09c.3-2.48-3.84-12.19-6.98-10-3.54,2.47,4.07,9.33,6.98,10ZM323.64,134.5c-3.82-1.76-6.43-1.62-10.63-1.4-.55,3.52,5.17,2.65,7.74,3.75,2.71,1.17,3.43,4.88,7.66,2.31l.61-3.07c-3.71,1.4-4.74-1.3-5.37-1.6ZM26,138.1c-9.89-3.09-4.89,1.49-6.46,4.96-.62,1.36-8.54,8.1-7.53,9.03,5.08-2.06,9.65.75,14.99,0-.38-1.72-2.97-1.57-4.52-2.96-6.23-5.58,4.18-10.16,3.53-11.02ZM171,148.08c-.51-2.97-10.41-3.6-11.01-2.99v2.99s11.01,0,11.01,0Z"/>
  <path class="cls-1" d="M189.38,20.75c.12.32,1.61.36,1.66.98.26,2.71-3.17,4.16,2.16,5.73,6.82,2,5.51-3.19,6.36-3.43,3.14-.65,11.36,1.41,13.47,3.56,1.03,1.05.78,3.11,1.08,3.38,1,.91,7.95-1.97,9.88,1.64l-1.98,2.97c2.13,2.85,6.39,1.96,5.98,6.52l-2.99.52,1.52,4.57,2.48-.08-2.99,16.99c3.08.93,3.89-2.18,5.46-3.03s3.1-.87,4.44-1.56c3.23-1.64,5.9-4.65,10.68-4.33,2.54.17,3.83,4.78,8.41,1.93,1.06,4.52-2.69,2.71-3.99,4.99,11.2.43,17.13-6.11,24.99,5.52-.89,4.83-4.12-1.42-5.25-1.88-.44-.18-8.77-1.63-9.25-1.61-1.29.05-2.22,1.53-3.15,1.69-2.17.37-7.08-1.53-10.34.3l3,11.98-8.97-.98-1,2.49,3.98,1.99-5.5,6.5-1.1-3.07-3.93.04-.47,8.03c-3.73.35-.98-5.33-5.99-3.99l2.08,8.96c7-2.35,5.97.13,9.4,3.1.91.79,2.56.64,3.23,1.21,1.1.93,2.2,5.72,4.78,6.71,3.21-1.83,2.1-5.05,3-7.98,2.15,1.78,1.16,4.56,2.05,6.95.58,1.55,5.43,6.03,4.45,7.04-4.56,3.18-7.62-3.38-9.48-2.99-4.5.94,4.01,9.31,2.49,10.99-3.79,1.67-13.59-2.33-14.59-5.92-.5-1.8-.36-1.93,1.14-3.06l6.44,1.49c-2.42-1.48-3.66-4.94-5.48-6.52-2.04-1.77-6.22-2.56-7.58-4.42-.33-.46-4.57-9.15-4.92-10.08-1.35-3.67-1.03-7.66-1.03-11.47l-3.42.9c-3.65-.84-1.12-16.69,3.92-6.91l5.54-6.48c.43-2.57-3.17-1.63-4.74-2.82-.75-.57-.92-2.18-2.32-3.15-3.73-2.56-11.11-3.12-6.35-10.62,1.87-1.25,7.91,5.06,8.39,1.55.16-1.23-1.61-2.86-1.8-4.19-.4-2.84-.03-11.12-2.19-12.81-2.38-1.86-4.22,4.22-7.01,3.51l-.59-6.09-4.32.2c-.58.98.9,4.97-1.58,3.89-1.63-.72-7.63-6.66-8.14-6.83-2.12-.7-9.94.3-10.38-.15v-4.02s-18.99-.98-18.99-.98c.91,2.31,3.8,2.45,5.52,3.97,2.73,2.41,2.43,7.01,6.47,3.02v3.99c-7.69,2.07-8.91-4.88-15.45-5.98l-1.42,2.34c2.78,4.37,5.47,8.53,4.95,14.04-7.93,4.74-11.16-2.46-2.07-3.41l-1.07-2.95c-6.03,3.3-8.3-4.13-10.56-4.91-4.64-1.61-4.79,2.5-2.4,5.45.79.97,2.82,1.12,3.07,2.12,1.81,7.22-8.19,4.82-10.01,10.82.07,1.82,7.05.4,8.45,5.5.42,1.52-2.63,5.44-1.47,7.99,6.85,1.35,8.77-9.49,12.51-10.99,3.95-1.58-1.17,6.11-1.31,6.7-.89,3.77-.21,8.32,3.71,9.85,1.25.34,2.07-.49,3.01-1.09,4.56-2.94,3.48-7.31,10.37-3.56,4.21-1.04,9.46-13.45,1.2-7.93l-1.49-3.97,13,3.49-1.01,3.5h4.49c1.4,6.67-9.55,4.24-15.2,7.8-3.41,2.14-3.72,5.5-5.03,6.22-1.04.57-18.19,4.49-16.26,5.98,3.23-.01,7.97-3.02,10,1-3.28-.61-13.26,2.09-11.94,6.41l6.25,4.36c2.87-.53,4.35-4.32,4.89-4.62.44-.25,9.1,1.43,2.81-2.63,4.69-5.48,8.34.68,14-.51l-.99-3.98c1.86-.55,7.63,1.08,7,3.49-2.24,1.53-4.83,3.47-4.99,6.5l9.93.09c-2.49,10.08,12.17,13.17,9.06,23.92-2.36-.81-1.69-3.65-2.96-5.53-1.13-1.68-3.73-3.23-5.01-5.01l-4.01,1.54c.72-4.46-2.06-5.25-5-7.51-.73-1.6,6.25-3.69,1.38-5.38-4.08-1.41-2.99,2.24-5.9,2.93-4.62,1.1-4.44-6.16-9.47-1.51-3.22,2.99,2.85,2.97,2.93,5.87.25,8.91-5,6.16-9.95,2.58l4.97-3.03c.79-2.6-2.99-6.71-5.44-5.96-1.35.42-1.08,3.02-2.21,4.06-2.41,2.22-7.8,2.65-9.32-1.05l6-1.02c.02-4.43-5.97-4.77-9.29-3.78-3.99,1.19-1.38,4.5-2.14,5.79-2.78,4.73-10.1-1.81-13.59.48-3.67,2.4,3.08,2.81,2.03,5.52-8.37-2.01-11.08,7.59-10.4,14.06l-3.66,1.53,1.04,4.99,4.02-.57c-1.31,3.65.18,10.87,4.07,6.28,5.28-6.22,2.05-12.71,10.03-17.69,1.16-.72,2.69-.94,3.9-1.59,2.31,2.99-8.27,8.74-3.42,9.97,4.58,1.16,6.25-4.38,10.43-3.96,1.16,6.82-3.9,4.68-5.54,5.9-6.36,4.75,2.3,18.16,1.53,19.09-4.78-3.47-5.78,1.95-6.63,2.08-1.51.24-4.46-1.68-6.7-1.15l-1.79,3.94c-1.69,1.03-11.14-1.25-11.75-1.97-.8-.94,1.04-5.61-1.61-6.87-2.59.99-3.16,2.25-3.56,4.94l-2.94.04-.97-4.59-3.42.39-1.57-1.38c-.17-1.84,1.38-4.04,1.04-5.74-.16-.79-7.93-3.92.77-5.81l.15-4.86-10.99.51c.93-3.68,11.12-6.83,11.56-7.44,1.36-1.94-.04-8.94,4.49-12.5,2.65-2.09,5.54-.97,6.76-1.74.75-.47,1.33-4.54,2.43-5.57,2.72-2.54,18.15-1.98,6.76-9.76l.21-1.32c2.17-.28,1.94-1.06,1.79-3.15h-6c2.14-3.12,5.16-.57,4-6l-11,1,1-6.01c1.95.98,3.67,1.7,4.96-.58-.33-4.98-4.21-8.28-7.48-11.41-2.01-.45-2.65,2.6-2.5,4-5.35-1.27-10.38-3.87-13.66-8.32-.6-.82-.18-2.58-.86-3.63-1.26-1.96-5.87-2.43-2.99-8.08,1.01-1.99,5.14-2.02,5.5-3.53-2.96-7.01-8.11-13.71,3.49-13.49l.53,3.04,6.99-2.02-1.99-3.98c6.56,1.5,4.07-2.21,6.55-3.95,1.34-.94,3.77-.76,5.36-1.65,4.65-2.61,6.53-5.35,13.13-4.87l-.04-4.54c4.18,3.95,9.16-5.56,5.51-3.99-1.03.44-1.54,2.61-3.51,1.98,2.41-5.44,6.44-2.31,10.28-3.16,1.98-.44,3.23-2.48,5.29-2.82,5.98-.99,9.78,6.11,14.13,6.81,3.46.56,12.3-5.13,14.08.89.86,2.89.28,6.41,1.59,9.95ZM163,16.08c2.35-3.25-11.1-4.5-13-3.98l.13,3.88c4.39,1.28,8.47,1.71,12.87.11ZM144,17.1c-.82-.69-12.34,5.12-10.88,8.29l2.38,2.68,8.5-10.97ZM174.92,17.16l-2.91-.06,1,4.99-4,1.99,9.99,2.01-4.08-8.93ZM161,20.08c-.53-3.46-10.45-1.73-10.99-.98-.33,2.63,2.58,3.51,4.59,4.03l6.41-3.06ZM149,30.1c-.62-.95-8.58-.6-7.99,2.47s10.7,1.64,7.99-2.47ZM121.76,35.27c-12.16,1.42-5.52,12.62,2.77,2.84,1.25-2.24-.76-3.07-2.77-2.84ZM122,53.09l1.98-7.55c1.58-1.18,2.5,1.26,4.1,1.11,2.89-.26,14.53-7.82,9.96-11.13-3.9-2.83-16.24,7.45-17.59,11.51-.48,1.44-1.85,6.99,1.55,6.06ZM147,35.09c-3.84-.5-7.83,1.98-5.99,5.99,3.3.42,6.38-2.65,5.99-5.99ZM138,48.09c-1.81-1.78-13.77,8.07-9.07,15.33.18.28,5.35,3.52,5.68,3.59,2.49.56,3.09-7.04,5.37-8.47l.03-1.45-3.97-1.6,1.96-7.4ZM147.71,65.2c-3.11.8-8.01,9.42-3.21,11.87,2.8-1.98,10.61-7.41,6.08-11.06-.83-.81-1.72-1.1-2.87-.8ZM163,72.09c-13.15-.73-15.93,11.12-.6,5.12l.6-5.12ZM232.06,74.15c-3.82,5.44,9.92,4,8.94-.55-.65-3.02-8.42-.19-8.94.55ZM156,89.09l-9.49.99-.48,1.99c2.64-.81,1.68,3.18,2.47,3.01,2.39-2.16,7.52-1.77,7.5-5.99ZM121.01,129.09c-.56,2.05.4,9.66,3.48,8.99s1.38-10.7-3.48-8.99ZM147.79,140.28c-.27-.44-2.07-.67-2.81-1.62-.85-1.09-.9-2.73-1.52-3.52-4.61-5.85-5.95,8.14-1.46,10.52,2.57,1.36,7.8-2.08,5.8-5.38Z"/>
  <path class="cls-1" d="M72.22,64.93c.56.38,1.92-.64,2.8-.28,2.05.83,5.42,6.7,7.7,7.31,5,1.32,9.64-5.17,12.77,6.15l.51-3.02,9,1.01-2.99-11h3.98s1.67,9.51,1.67,9.51c-3.57,5.33-10.55,2.25-8.66,11.48,8.13-2.51,5.74,1.96.14,2.46-2.46.22-5.49-.99-8.15-.45l.15,3.85,4.32,1.16c2.35,1.24-4.48,5.16-5.43,5.39-1.64.4-3.81-.68-6.29-.2-2.02.39-6.88,4.52-7.74,3.8-1.87-1.56,1.42-2.15,1.97-2.48,1.16-.69,7.66-4.24,7.89-4.64,1.23-2.16-2.8-3.96-.94-5.39,2.7-3.57,12.63-2.29,10.68-8.51-1.77-5.64-16.19-8.98-21.6-6.98l1.97-6.49c-.06-1.75-9.78-2.63-11.25-2.36-1.74.33-2.97,2.24-4.45,2.63-1.95.51-3.93-.13-5.58.25-.45.1-1.52,3.39-4.7,1.98-1.6,7.52,7.35,3.8,8.01,8.99-6.73-.25-2.73,10.07-10,5.44-2.43,1.03-3.64,6.23-4.96,7.03-.65.4-2.14-.64-3.56.43-2.2,1.66-5.97,8.42-1,9.11l4.52-4.5c2.73-1.18,2.15,6.26,1.79,7.81-.61,2.64-3.57,4.76-3.73,8.29-.07,1.49,1.11,6.09,2.45,6.41,2.09.51,6.27-8.08,5.49-10l6.05.56c4.06,3.85,4.36,9.8,5.81,14.88-3.03.91-4.59,8.01-7.23,7.5-1.74-.34-2.79-4.54-8.99-2.78-3.55,1,1.91,4.62-.14,6.85-3.43-9.22-12.15-11.59-18.01-18.98-7.02,11.32-6.98,3.14-12.44,1.43-2.59-.81-8.22-1.34-8.04,2.06.04.88,7.95,2.39-2.01,5.49-.8-4.34-.97-7.9,1.96-11.56.81-1.01,3.02-1.2,3.07-2.01.06-.94-1.12-2.44-.86-4.65.49-4.17,6.38-13.57,1.8-15.39v-1.81c1.24-3.36,4.27-6.21,8.03-5.56l-.99,2.99c3.27-.23,2.61-2.98,3.23-3.69.81-.93,2.85-.89,4.22-2.35,2.41-2.57,3.08-8.8,7.04-10.96,1.85,5.21,6.87,4.53,11.52,3.52l1.01-3.03-2.02-1.48,1.81-.2c0-1.32.44-8.34,1.78-8.72,7.7-2.19,3.39,5.45,5.87,5.77,4.34.47,7.11-3.97,9.27-4.66.6-.19,9.18-.25,9.65-.08,1.33.48,1.32,2.36,1.83,2.7ZM41,80.08l-1.58-3.9-7.42,1.92,1.58,3.9,7.42-1.92ZM13.01,100.08l11.57-2.97c.75-1.01-.9-4.25-.58-6.45.17-1.19,5.17-7.4,1.51-7.55-2.07-.09-14.45,14.92-12.5,16.97ZM33.01,94.08c3.44,1.7,8.23-7.26,4.48-7.99-2.66-.52-5.62,5.51-4.48,7.99ZM23.33,113.41c.83-.72,2.9-.36,3.66-1.82-3.14-3.72-8.28-4.85-12.98-4.5-1.55,5.41,2.88,3.82,3.82,5.19.67.99-.31,3.79,1.7,4.8,2.05.45,2.74-2.75,3.81-3.68ZM52.52,112.09c-2.65,1.35-1.89,7.66.97,6.99l2.34-4.35-3.32-2.64Z"/>
  <path class="cls-1" d="M362,120.1c.15,3.4-4.3,2.04-2.94,5.93,2.3.33,6.86,3.06,8.77,1.89.5-.31.84-2.69,1.66-2.8,2.94-.37,5.31,9.04,6.79,10.7,1.35,1.52,5.81.93,4.71,5.29-6.18-3.54-12.73-9.51-19.99-6.01l1.99-3.98c-7.58-3.36-4.39,5.9-8.97,8.5-1.2.68-5.24-1.63-6.53-2.47l-2.56,5.9c-5.23-1.2-7.8-.19-11.92,3.06l2.94-9.38c-.61-1.95-4.7-2.54-6.43-1.62-2.29-4.62,12.73-4.56,13.42-3.9l.06,2.89c1.81-.82,6.31-1.09,7.67-1.74,6.62-3.15,2.04-12.99,11.32-12.26Z"/>
  <path class="cls-1" d="M26,138.1c.65.86-9.75,5.44-3.53,11.02,1.56,1.39,4.14,1.23,4.52,2.96-5.34.76-9.91-2.05-14.99,0-1.01-.93,6.91-7.66,7.53-9.03,1.57-3.46-3.42-8.05,6.46-4.96Z"/>
  <path class="cls-1" d="M198.98,36.11c-.5,4.25,2.03,6.41,6.02,6.99l-1.5,2.97-4-3.98c-1.05.18-.15,1.93-.68,2.75-2.22,3.42-11.58-3.36-8.27-3.77h3.45s-1.99-3.98-1.99-3.98l6.97-.99Z"/>
  <path class="cls-1" d="M323.64,134.5c.64.29,1.66,3,5.37,1.6l-.61,3.07c-4.23,2.56-4.95-1.15-7.66-2.31-2.57-1.1-8.29-.23-7.74-3.75,4.2-.22,6.81-.36,10.63,1.4Z"/>
  <path class="cls-1" d="M269.99,139.09c-2.91-.67-10.52-7.52-6.98-10,3.14-2.2,7.28,7.52,6.98,10Z"/>
  <path class="cls-1" d="M249,131.11c2.67,2.73-7.13,2.2-8.34,1.83-1.94-.6-1.8-2.22-1.66-3.83,4.05-2.04,6.15,1.34,9.99,2Z"/>
  <path class="cls-1" d="M107.16,96.92c-.4-.25-1.36-3.89-2.15-4.82,3.3-.21,6.7-.23,9,2.5.63,2.69-5.41,3.21-6.84,2.32Z"/>
  <path class="cls-1" d="M171,148.08h-11.01s0-2.99,0-2.99c.59-.62,10.49.01,11.01,2.99Z"/>
  <path class="cls-1" d="M86.91,77.19l.09,2.9-8-1v-2.98c2.91-1.2,5.15.25,7.91,1.09Z"/>
  <path class="cls-1" d="M90,120.1c-1.98,3.03-5.03,6.26-8.99,5.99-.9-4.75,5.8-4.91,8.99-5.99Z"/>
  <path class="cls-1" d="M187,46.11c.17,5.29-7.61,2.62-6.99-.5.66-3.32,5.57.18,6.99.5Z"/>
  <path class="cls-1" d="M138,48.09l-1.96,7.4,3.97,1.6-.03,1.45c-2.29,1.43-2.89,9.03-5.37,8.47-.33-.07-5.49-3.31-5.68-3.59-4.7-7.26,7.27-17.12,9.07-15.33Z"/>
  <path class="cls-1" d="M122,53.09c-3.39.93-2.03-4.62-1.55-6.06,1.35-4.06,13.69-14.34,17.59-11.51,4.56,3.31-7.07,10.87-9.96,11.13-1.6.14-2.52-2.29-4.1-1.11l-1.98,7.55Z"/>
  <path class="cls-1" d="M147.71,65.2c1.15-.3,2.04,0,2.87.8,4.54,3.65-3.28,9.08-6.08,11.06-4.81-2.45.09-11.07,3.21-11.87Z"/>
  <path class="cls-1" d="M147.79,140.28c2,3.29-3.23,6.74-5.8,5.38-4.49-2.38-3.15-16.37,1.46-10.52.62.79.67,2.44,1.52,3.52.74.95,2.55,1.18,2.81,1.62Z"/>
  <path class="cls-1" d="M163,72.09l-.6,5.12c-15.33,6-12.55-5.84.6-5.12Z"/>
  <path class="cls-1" d="M163,16.08c-4.4,1.6-8.48,1.17-12.87-.11l-.13-3.88c1.9-.52,15.35.74,13,3.98Z"/>
  <path class="cls-1" d="M144,17.1l-8.5,10.97-2.38-2.68c-1.46-3.17,10.06-8.98,10.88-8.29Z"/>
  <path class="cls-1" d="M121.76,35.27c2.01-.23,4.02.6,2.77,2.84-8.3,9.78-14.93-1.42-2.77-2.84Z"/>
  <polygon class="cls-1" points="174.92 17.16 179 26.08 169.01 24.08 173 22.08 172.01 17.1 174.92 17.16"/>
  <path class="cls-1" d="M232.06,74.15c.52-.74,8.29-3.57,8.94-.55.98,4.55-12.76,5.99-8.94.55Z"/>
  <path class="cls-1" d="M121.01,129.09c4.86-1.71,6.63,8.31,3.48,8.99s-4.04-6.94-3.48-8.99Z"/>
  <path class="cls-1" d="M161,20.08l-6.41,3.06c-2-.52-4.92-1.4-4.59-4.03.54-.75,10.46-2.48,10.99.98Z"/>
  <path class="cls-1" d="M156,89.09c.01,4.22-5.11,3.83-7.5,5.99-.79.17.17-3.82-2.47-3.01l.48-1.99,9.49-.99Z"/>
  <path class="cls-1" d="M149,30.1c2.71,4.11-7.4,5.58-7.99,2.47s7.37-3.42,7.99-2.47Z"/>
  <path class="cls-1" d="M147,35.09c.38,3.34-2.69,6.41-5.99,5.99-1.84-4.01,2.15-6.49,5.99-5.99Z"/>
  <path class="cls-1" d="M13.01,100.08c-1.95-2.05,10.43-17.06,12.5-16.97,3.66.15-1.34,6.37-1.51,7.55-.32,2.2,1.32,5.44.58,6.45l-11.57,2.97Z"/>
  <path class="cls-1" d="M23.33,113.41c-1.07.92-1.76,4.13-3.81,3.68-2.01-1.01-1.03-3.81-1.7-4.8-.94-1.38-5.37.21-3.82-5.19,4.71-.35,9.84.77,12.98,4.5-.76,1.46-2.82,1.1-3.66,1.82Z"/>
  <polygon class="cls-1" points="41 80.08 33.58 82 32.01 78.1 39.43 76.18 41 80.08"/>
  <path class="cls-1" d="M33.01,94.08c-1.14-2.49,1.81-8.51,4.48-7.99,3.75.73-1.04,9.69-4.48,7.99Z"/>
  <path class="cls-1" d="M52.52,112.09l3.32,2.64-2.34,4.35c-2.86.67-3.62-5.64-.97-6.99Z"/>
</svg>