<?xml version="1.0" encoding="UTF-8"?>
<svg id="Layer_1" data-name="Layer 1" xmlns="http://www.w3.org/2000/svg" viewBox="0 0 1038.49 310.71">
  <defs>
    <style>
      .cls-1 {
        fill: white;
        stroke: black;
        stroke-miterlimit: 10;
        stroke-width: 1px;
      }
    </style>
  </defs>
  <path class="cls-1" d="M505.78,99.25c-.62.84-2.04-.09-1.79-.89,1.07-.85,2.02-.41,1.79.89Z"/>
  <path class="cls-1" d="M273.94,226.56c-2.95,10.2-5.73,18.74-13.17,26.81-11.19,12.14-39.03,25.84-55.09,29.34-26.05,5.67-69.96,1.91-83.62-24.43-.3-1.41-.89-2.6-1.79-3.57-.06-.26.06-.62,0-.89-.51-1.35-1.18-3.28-.45-4.47.76-1.36,1.18.3,1.34,1.34.61,1.07,1.21,2.26,1.79,3.57.15.44.29.89.45,1.34.54.28.84.88.89,1.79.78.79,1.56,1.63,2.35,2.49-.53,1.56,1.43,3.22,2.89,3.86.96,1.82,2.31,3.12,4.04,3.89l.55.92c.13.19.35.31.45.45,3.33,2.05,6.76,3.99,10.27,5.81,18.99,8.26,43.48,9.68,63.44,4.25,8.35-2.27,35.24-13.55,40.65-19.44,1.09-.72,1.82-1.52,2.18-2.39,1.57-.77,2.98-2.08,4.23-3.93.45.37.85.44,1.19.07-.16-.89-.04-.96.86-.88.59-1.49,1.22-2.12,1.89-1.9.92-2.01,2.24-3.77,3.94-5.26,4.07-5.71,6.82-12.25,8.83-18.98l.55-.23c.91-1.73,1.64-1.5,1.34.45Z"/>
  <path class="cls-1" d="M1006.99,105.5c-.17-.41-.17-.88.2-1.06,8.53-.24,16.77.45,24.74,2.06,1.22.27,1.54.68.96,1.24l-.73.4-12.23-1.29c-.15,0-.3,0-.45,0-4.21-.39-8.38-.69-12.51-.89-.39-.13-.38-.28,0-.45Z"/>
  <path class="cls-1" d="M1032.9,107.74c-.47-2,2.96.2,3.34,1.12.51,1.24-.2,2.07-1.1,2.9-2.8,4.95-6.39,7.33-7.56,13.66-2,10.86-1.93,24.92-2.72,36.14-1.5,21.12-1.02,49-11.24,67.83-1.11,2.04-2.75,3.97-3.94,6.11l-1.34,1.79c-.43.75-.92,1.48-1.34,2.23l-2.68,3.13c-.44.44-.93.89-1.34,1.34l-6.7,6.7c-1.71,1.24-2.92,2.37-4.47,3.57-.89.13-1.31.63-1.79,1.34-2.96,2.01-6.89,4.45-10.27,5.36-2.45,1.09-4.94,2.11-7.47,3.04-3.41-.25-1.53-2.02.91-2.17l7-3.11c15.65-9.76,29.56-22.72,35.41-40.75,6.43-19.8,5.28-42.5,6.58-63.1.64-10.04,2.32-20.05,2.68-30.16.09-2.51,1.2-5.12,2.68-7.15,1.56-3.05,3.06-4.16,5.2-6.41,1.32-1.39,1.58-1.93-.29-2.52-.66-.39-.51-.69.45-.89Z"/>
  <path class="cls-1" d="M248.03,144.81c.98.34,1.87.79,2.68,1.34,14.39,6.92,18.6,16.53,23.01,31.27,5.16,17.24,5.11,32.23.22,49.14-.32-.84-.65-1.04-1.34-.45l2.56-18.69-.77-18.83q.51-.4,0,0l-.5-.24c-.67-3.91-1.7-7.7-3.07-11.37-3.95-14.26-6.7-19.65-19.66-26.8-2.57-.81-4.86-2.19-7.15-3.57-5.13-2.64-10.28-5.58-15.63-7.59-1.75-.88-3.51-1.62-5.28-2.22-.85-1.3-2.23-2.29-4.15-2.96l.04-.63c.24-.89,1-1.04,2.28-.44l.4-.45c5.72,3.63,19.95,10.43,26.36,12.51Z"/>
  <path class="cls-1" d="M104.19,47.88c22.89-10.39,49.76-19.01,74.52-23.54,1.32-.24,11.18-2.33,11.24-.37.02.66-1.47,2.4-1.78,2.91-.57,1.18-2.06,2.55-3.13,2.68-.63.59-.86.34-.45-.45.79-1.07,1.34-2.52,2.23-3.57-1.26.07-2.56-.12-3.81-.02-6.47.5-16.38,3.16-22.91,4.78-16.19,4.03-32.53,9.73-47.88,16.23-1.25,1.02-2.73,1.74-4.59,2.05-1.05.97-1.95,1.33-3.45,1.52-.29.16-.6.29-.89.45-1.6.86-3.24,1.6-4.91,2.23-4.69,2.29-7.66,3.82-12.06,6.7-1.21,2.01-2.26,2.42-4.38,3.12-.88,1.89-2.25,2.78-4.2,3.75l.12.75c-1.52,1.15-2.87,2.33-4.05,3.56-1.57.14-4.96,6.56-5.81,8.04-.39,2.19-1.28,3.53-2.68,4.02-.13.34-.28.33-.45,0-.07-.88.26-2.07.89-2.68.66-2.23,1.71-4.31,3.13-6.25,9.35-11.66,17.35-17.65,30.82-24.12l.23-.74,4.24-1.05Z"/>
  <path class="cls-1" d="M341.84,65.3c.47-.72,3.31-6.08,4.46-4.91.58,3.29-.97,7.19-.25,10.31s3.47,6.58,5.17,9.35c.8.66,1.39,1.55,1.79,2.68,9.26,10.68,17.62,23.52,26.36,34.84.87.55,1.61,1.29,2.23,2.23,2.08,2.82,4.9,5.27,6.14,8.83.44,1.27,1.25,4.6-.62,4.93s-1.76-3.23-2.51-4.93c-2.54-5.72-12.3-15.31-16.59-20.93-7.24-9.49-18-23.26-23.49-33.46-.82-1.8-2.24-5.32-.89-6.7-.51-.81-.98-.96-1.97-1.16l.18-1.07Z"/>
  <path class="cls-1" d="M917.2,261.41c-14.24-5.69-25.7-15.82-32.19-30.13-1.86-4.11-3.24-9.07-4.49-13.43.11-1.66,2.49-.59,3.37-.66,1.65-.13,3.36-.81,5.16-.46.2,1.15-.19.8-.89,1.09-1.37.56-2.99.76-4.47.69,1.06,7.18,4.95,16.45,9.83,21.89,1.17,1.63,2.51,3.12,4.02,4.47,2.61,3.37,4.78,5.33,8.53,7.78,4.42,2.9,8.84,4.73,13.81,6.51.14,1.11,1.12,1.75,1.34.45,12.76,2.84,24.37,5.78,37.74,4.91,2.7-.18,7.33-1.57,9.61-1.34q.36.83,0,0c1.76-.88,2.44-.93,4.02-1.56,2.46-.98,4.87-2.54,7.59-2.9-2.25,1.4-5.22,2.98-7.58,3.75-.51.17-1.22-.3-1.35-.18-.3.29.22,1.32,1.03,1.28s2.25-1.19,3.44-.83l-.45-.88c1.42-.48,3.07-.52,4.47-.9-4.53,3.05-10.05,4.16-15.19,5.81-1.75.55-3.19.57-4.92.19-7.63.32-15.64.63-22.89-.87l-.33-.66.02-.81c-1.47-.56-4.7-1.16-6.28-.53-4.27-.24-8.59-1.14-12.95-2.68Z"/>
  <path class="cls-1" d="M783.64,84.06c.41-4,4.16-4.13,1.79,0,.23.03.44.08.6.19,1.59,1.13-5.52,27.33-6.76,31.33l-.99.19c1.15.27,1.15.57,0,.89.14.63.12,1.4-.45,1.79-.86,5.5-4.88,16.87-6.7,22.78-.58.78-.78,1.73-.89,2.68-.13.43-.3.88-.45,1.34-.11,1.32-.41,2.51-.89,3.57-1.08,3.7-2.27,7.38-3.57,11.05l-.9.56c-.88,4.96-3.44,5.35-2.31,0,.72-.99,1.04-2.03.97-3.14,4.03-12.49,8.21-25.33,11.61-37.97-.13-1.52.16-2.71.89-3.57,1-3.82,1.98-7.78,2.93-11.59.65-2.62,4-19.42,5.11-20.13Z"/>
  <path class="cls-1" d="M63.98,116.23c-4.28,12.3-12.29,22.86-14.74,36.63-1.95,7.35-3.34,14.84-4.16,22.46-.32.48-.63,1-.71,1.58-.33,2.26-.41,4.37-.46,6.38-.06,2.2.07,5.03,2.17,5.93,1.87.8,9.2-2.02,11.2-3.29,6.25-2.86,13.68-9.52,18.76-14.29,2.55-1,.93.88-.45,1.79-2.58,3.9-9.93,9.25-13.85,12.51l-4.47,2.68c-1.85,1.15-3.52,2.11-5.01,2.9l-.53-.27c-.08.62-.77.78-2.06.49-9.07,2-8.43-4.03-8.04-10.94.91-15.94,7.01-34.21,12.95-48.92l3.13-6.7c.77-2.15,1.82-4.08,3.13-5.81,1.09-1.98,2.5-3.85,3.57-5.81,1.61-.51.31,1.54-.45,2.68Z"/>
  <path class="cls-1" d="M481.21,78.7c.71.31,1.23.67.7,1.11-2.42-.25-4.29.27-5.61,1.57l-.02,1.11c-7.39,7.06-14.27,14.77-20.63,23.13-6.72,8.42-15.61,14.67-24.33,20.39.33,1.24.68,2.9-1.03,2.27-.34.79-.76,1.42-1.49.83.16-1.92-.73-2.11-2.08-.83-.4.58-1.14,1.03-2.23,1.34-.27.02-.65.05-.89,0-.77-.48-1.69-1.25-1.34-2.23.63-.6,2.77-1.23,3.72-1.87,1.05-.69,2.27-2.13,2.98-2.6,1.79-1.48,4.05-2.97,6.14-4.29,2.1-.72,3.66-1.94,5.02-3.46,1.74.07,3.45-1.82,4.13-3.41,2.43-1.63,4.35-3.75,5.73-6.36,2.11-1.25,4.04-3.37,4.9-5.59l.88-.11c5.07-5.81,13.06-15.73,18.99-20.1,2.39-1.76,3.8-1.57,6.47-.9Z"/>
  <path class="cls-1" d="M883.7,99.25c1.13-.48,1.57-.18,1.34.89-.14.75-.31,1.49-.45,2.23-.27,1.66.18,3,1.34,4.02.03.07.55.06.45.44-.5-.03-.92.34-1.34.46-.57-.08-1.2-.26-1.34-.89-.13-.05-.31.05-.45,0-.46-.73-.91-.88-1.34-.45-.46,1.87-3.07,5.97-3.9,7.94-3.7,8.71-7.32,18.88-9.39,28.14-2.06,9.22-2.08,19.01-4.13,28.25-.92-.34-1.72-.24-2.68,0-.8-.37-.19-1.47-.08-2.08,2.31-12.06,3.03-25.06,6.54-36.8,2.62-8.75,7.34-17.13,10.51-25.45.68-1.43,1.27-2.77,1.79-4.02.05-.13-.06-.32,0-.45-.03-1.03.26-1.48.89-1.34-.07-.43.02-.58.45-.45-.02-.47-.01-.66.45-.45.39-.62.96-.79,1.34,0Z"/>
  <path class="cls-1" d="M752.37,189.49l1.12-1.77c.77-2.6,1.43-5,1.99-7.63,1.19-3.34,3.24,1.88,1.36,4.03-.28,3.93-3.05,8.6-3.92,12.39-.31,1.35-.21,3.06-.55,4.59l-5.22,25.72.67.42c1.97-1.1,3.94-1.62,5.89-1.57.5-.39,1.04-.25.89.45.23,1.7-2.75,2.44-4.02,1.34.08,1.14-2.7,2.21-4.02,2.68-.07.07-.99,1.36-1.03,1.44-1.11,2.25-1.06,7.14-4.78,5.47-.51-.23-2.27-2.56-2.19-3.06.18-1.09,3.57-2.43,4.11-3.53s1.19-4.56,1.52-6.04c1.15-5.22,5.56-32.54,8.17-34.94Z"/>
  <path class="cls-1" d="M806.87,38.94c18.01,4.31,21.94,21.21,22.32,37.28.21,9.17-.91,21.41-3.55,30.17l-.6,3.4c-1.39.69-1.93-.15-1.63-2.51l-.69-1.16c2.17-12.09,3.99-24.78,2.8-37.12-.71-7.37-2.44-15.19-7.73-20.63l-.19-1.39c-3.7-3.15-8.06-5.27-13.08-6.34-2.58-2.35-.88-3.02,1.71-1.74l.66.04Z"/>
  <path class="cls-1" d="M174.77,89.87c-.17.28-.29.6-.45.89-.56.82-1.01,1.71-1.34,2.68-.2,3.5,2.93,6.29,5.36,8.49,2.4,2.77,5.01,5.37,7.85,7.76l.19.73c.6,1.42.8,1.31,1.79,1.79,1.24.84,2.13,1.78,2.68,2.84.8-.35,1.44.21,1.24,1.05l1.59,1.31c.87.18,1.72.83,2.52,1.94,4.89,3.07,9.19,4.35,14.29,6.7.99-.38,1.85.01,2.58,1.18.72-.7,1.02-.58.89.39l5.91,2.9c.43.29,1.34,1.5,1.79,1.79.67.86,0,2.31-.87,1.75-.37-.24.53-.67-1.81-.85-.21.55-.65.55-1.34,0-11.74-7.47-21.25-7.9-31.72-18.76-1.49-1-2.82-2.29-3.98-3.86-1.82-.93-2.51-1.92-3.33-3.44-2.63-2.86-5.25-5.67-7.85-8.42.24-.26.42-.48.37-.57-1.89-3.23-1.5-4.22.67-7.04.07-1.73.6-2.45,1.61-2.14.62-1.16,1.8-.3,1.34.89Z"/>
  <path class="cls-1" d="M437.43,30.01c1.56.44,5.69,1.63,2.23,1.79-.67-.24-2.08-.73-2.68-.89l-2.23-.45c-13.43-3.01-29.16-1.15-41.65,4.59-7.91,3.64-13.24,8.29-15.53,16.86-.62,2.25-.77,4.48-.45,6.7-.02.3.01.6,0,.89-.05,1.11.1,2.15.45,3.13,0,.15,0,.3,0,.45.25,1.94.25,4.45-.89,1.34-1.41-8.97-2.15-17.41,4.9-24.36,12.27-12.1,40.1-16.1,55.85-10.04Z"/>
  <path class="cls-1" d="M400.8,124.71c4.04-4.9,10.56-12.8,15.68-16.26,2.53-1.72,5.64-2,3.53,1.52-.4,1.88.98,2.24,4.14,1.06l4.62-1.54c.48.11.89.47.77.94-.18.71-8.83,3.39-9.93,2.48-1.15-1.15-2.2-1.68-3.18-1.6-1.07,2.21-2.19,1.95-3.59,3.34-5.44,5.4-12.31,14.96-16.07,21.68-1.6,2.24-2.94,4.63-4.02,7.15-3.83,6.99-6.22,12.14-8.93,19.66-.3,1.72-.68,3.55-1.79,4.91.31-1.12,0-2.88.09-3.8.03-.33,2.16-4.88,2.44-5.88.15-.55-.64-1.18.15-1.71.38-.26,1.15,1.13.73-1.11l3.74-7.37c-1.18-.9-1.17,1.2-1.44,1.47-.25.25-.65.03-.79.09l-.27-.39c3.72-8.77,8.42-16.98,14.12-24.63Z"/>
  <path class="cls-1" d="M539.73,78.7c.86.47,1.01.92.45,1.34.14.31.3.59.45.89.71.88,1.3,1.93,1.79,3.13,1.55,3.79,3.33,6.39,5.36,9.83,1.18,1.35,2.32,3.22,3.13,4.91.85,1.32,4.05,7.64,4.91,8.04.71.19,1.08.83,1.13,1.93,1.44.27,2.77,2.35,2.44,3.88,1.3,2.14,2.36,5.04,3.57,7.15-.93-.65-1.55-.79-1.34.45-2.02.24-2.84-3.09-3.13-4.47-4.42-7.75-9.04-14.99-13.85-22.34-1.35-2.38-2.54-4.76-3.57-7.15-6.07-12.08-10-25.46-15.19-37.97-.33-1.23-.03-1.53.89-.89,4.25,10.19,8.56,21,12.95,31.27Z"/>
  <path class="cls-1" d="M460.22,66.19c-1.12,15.94-16.66,39.44-31.72,45.34-1.59.62-6.74,2.09-8.24,1.99-1.72-.11-2.22-2.01-3.82-2.22.11-.22-.23-.91.22-.89l4.03,2.68c.36-1.5.81-.3,2.1-.52,1.71-.29,3.97-1.89,5.7-1.72,1.48-2.01-3.96.34-4.26.42-1.66.42-3.46,1.03-5.11.47-.2-.9.58-1.26.89-1.78-.54,2.19,1.95,1.3,3.06,1.05,17.85-4.02,32.15-28.1,35.8-44.83.6-2.71.71-5.46.82-8.23.23.04.44.1.62.23.35.25.25,7.1-.09,8Z"/>
  <path class="cls-1" d="M519.63,114.88c9.48,10.06,17.61,21.31,26.55,31.73,1.83,2.13,3.35,5.44,6.06,6.69,1.99,1.58,3.48,3.03,4.47,5.36,2.1,2.37,4.64,4.86,6.7,7.15.64-.42,1.57.61,1.34,1.34.07.08.58.92.89,1.34.71.55,1.31,1.29,1.79,2.23,1.68,3.26,4.58,5.86,4.47,9.83-.02-.06-.53-.18-.71-.63-.21-.53.08-1.83-.4-2.5l-1.12.9c-.75.54-1.56-1.8-.89-2.23q.63-.69,0,0c-.37.21-.75-.16-1.14-1.11-1.04-.06-1.7-1.03-1.99-2.91-1.92-1.52-3.26-3.15-4.02-4.91-1,.79-1.64.41-1.34-.89-3.28-2.66-5.84-5.71-7.69-9.14-3.17-2.38-5.83-5.8-7.94-9.17-2.22-.54-4.38-3.1-4.47-5.36l-1.03-.17c-.23-1.46-.85-2.24-1.86-2.34-.11-1.14-.63-2.39-1.58-3.74-.96.84-1.43.24-.89-.89-1.33-.89-2.5-2.44-3.13-4.02l-1.79-.76-7.11-8.08-.48-1.88c-1.63-.49-2.22-1.23-1.79-2.23-1.2.64-1.97-.13-1.34-1.34-1.3-.83-2.05-1.87-2.23-3.13-.85-.86-.75-1.09.45-.89.68-.68,1.42-.08,2.23,1.79Z"/>
  <path class="cls-1" d="M806.87,38.94c-.08-.02-.39.31-.67.26-.79-.14-1.5-.91-2.46-.7l1.8,1.98c4.42,2.03,9.47,2.48,12.05,6.5-.29.29-.68.5-1.03.32-2.84-1.83-11.49-7.07-14.51-4.38-5.51,9.98-9.44,21.15-13.06,32.17l-1.34,1.37-.58-.1c-1.68,1.81-.48-1.64.58.1,1.38.91-.19,6.77-1.19,7.74l-1.04-.15c-.01-.21-.51-.67-.48-1.08.02-.25,1.65-.27.92-1.15-.05-.06-1.52.32-1.57.42-.47.86.34,1.7.24,1.81s-.74-.1-.9,0c.59-4.06,1.96-8,3.02-11.95.58-2.17.46-3.05,1.45-5.47.32-2.15,1.07-4.09,2.23-5.81,1.61-4.52,3.44-9.18,5.81-13.4,2.01-4.28,4.61-12.07,10.72-8.49Z"/>
  <path class="cls-1" d="M776.94,229.69c1.91-.22,3.21,1.73,4.1,3.23l1.05.35c1.84,2.63,3.85,5.31,6.02,8.03,1.01,1.49,1.66,2.24,2.68,3.57,2.22,2.05,4.25,4.32,6.09,6.81,1.14.06,2.21.78,1.95,2.12,1.89,2.45-1.87,1.38-2.68-.45-2.79-.41-4.98-2.23-6.58-5.45-1.17.42-1.66-.68-1.37-1.74l-1.43-1.74c-5.95-10.85-14.83-16.5-27.25-16.53-1.47-.15-2.21-.59-2.23-1.34-.62.21-1.58.24-1.79-.45.4-.64,1.45-.93,3.13-.89,4.61-.1,14.42,1.97,18.32,4.47Z"/>
  <path class="cls-1" d="M949.37,93.44c.14-.26.06-.72.41-1.13,1.48-1.73,2.18-.57,3.61.23.88,1.03,1.78,1.96,3.03,2.09.87.83,1.79,1.23,2.76,1.19l9.85,2.09c7.88,2.03,15.26,3.78,23.23,5.36l6.49.7c1.2.07,3.27.5,2.4,1.88-.2.31-6.76-.4-7.41-.49-9.31-1.32-18.9-2.82-27.84-5.67-3.29.13-7.53-.46-10.77-1.77l-.87.16c-1.17-1.14-2.35-2.24-3.55-3.3-.66,1.12-1.41,2.16-2.24,3.14-.17-1.31.13-2.8.9-4.48Z"/>
  <path class="cls-1" d="M281.53,64.85c.89.52,2.43,2.03,1.34,2.68-1.71-.39-2.48-2.1-3.87-3.05-8.25-5.64-20.4-6.87-29.58-2.93-2.64,1.13-6.4,4.78-7.64,7.32-.73.48-.88.18-.45-.89.26-.47.25-1.45.72-2.19,7.2-11.43,31.15-11.21,39.49-.94Z"/>
  <path class="cls-1" d="M861.81,170.28c.92-2.65,1.36.12,2.01-1.79.66-.44.67,1.69.67,1.79.02,3.64-.46,7.67.04,11.35.86,6.35,6.56,6.36,11.57,5.62,3.2-1.45,4.39-1.3,3.57.45-3.83,1.9-5.94,2.75-10.5,2.24-2.61-.3-2.41-.91-3.95-2.08-.43-.33-1.11-.27-1.65-.8-.63-.62-1.74-3.27-1.95-4.22-.45-2.04-.46-10.71.19-12.56Z"/>
  <path class="cls-1" d="M107.76,63.07c.12.07.34.32.45.45,1.36.77,2.17,1.79,2.43,3.04,1.99,2.74,5.11,6.86,8.25,6.11l.49.68c.65.05.55.36,1.79,0,.6-.23.76-.15.45.45-2.96.93-4.06,1.4-7.17-.2-4.61-2.37-5.48-10.82-11.12-8.95-9.27,3.07-14.12,12.37-19.03,19.84-.81,1.24-2.55,2.84-3.32,4.05-.73,1.04-1.1.78-.89-.45,2.22-3.44,4.42-6.87,6.7-10.27.12-.79.41-1.38.89-1.79.5-.88,1.09-1.77,1.79-2.68.3-.31.6-.59.89-.89,1.04-1.58,2.51-2.94,4.02-4.02.3-1.47,2.51-2.66,4.02-3.13.39-.23,1.3-.66,1.79-.89,1.96-1.71,5.8-3.73,7.59-1.34Z"/>
  <path class="cls-1" d="M515.16,25.99c-.55-1.02-.62-2.05-1.33-2.94-.6-.6-2.09.86-2.24.7l-.45-1.34c-.2-.82.92-.16.9-.67-.02-.45-.9,0-.92-.45-.03-.81.78-1.32.92-1.79.07-.26-.79-.13-.89-.51-.45-1.69.04-3.65,1.56-4.62,1.46,2.46,1.61.47,1.75.48.28.01,1,.63,1.59.42.3.76-.96,1.22-.7,1.78,1.02,2.21,2.25.36,2.7.44,1.58,2.41,5.45,3.52,2.92,6.7-.41.26-.85-.04-1.34-.89l2.68,3.57c.34.36.74.94.45,1.34,1.01,1.05,1.75,1.5,2.23,1.34.96-1.09,2.49.11.45.67.18.36,1.86,2.56,1.8,1.34-.04-.72-1.24-1.78.44-1.56l.45,2.68-1.33.22c1.79,1.26,2.68-.14,2.23,2.91-.68-.58-3,.11-3.12,0-.22-.2.56-1.78-.89-1.34.26,1.09.35,2.19.37,3.31.02,1.51.13,3.84-.37,5.17l-.67-.08c-2.83-7.67-6.61-15.41-10.3-22.93.55-1.24,1.16-1.5,1.59-.22.75-.41,2.1.94,2.23,1.79.7.26,1.29.85,1.79,1.79-.7-.73-1.14-1.47-1.34-2.23-.84-.24-2.27-1.29-2.23-2.23l-.93.31c-.75-.9-1.62-1.65-2.61-2.25l3.55,7.29-.46.89c.24.87.09,1.16-.45.89Z"/>
  <path class="cls-1" d="M486.57,81.38c3.21,1.76,5.24,4.52,7.15,7.59,2.53,2.15,5.09,4.54,7.15,7.15.59.6,1.2,1.19,1.79,1.79,2.25,1.33,3.87,3.32,5.36,5.36,3.76,2.47,6.88,5.75,9.38,9.83l-.45.89c-.89,0-1.93-.89-2.23-1.79-1.61-.34-2.24-.89-1.9-1.63-2.05-.97-3.41-2.32-4.08-4.04-.92-.42-1.68-.85-1.62-1.92-1.08.73-3.3-1.03-2.68-2.23-1.22-1.04-2.35-2.15-3.39-3.31-1.18.49-2.58-1.28-2.41-2.49l-2.86-1.61c.18-1.04-.35-2-1.61-2.86l-1.42-.22c-2.44-3.13-4.75-5.98-7.72-8.58-2.21-1.93-4.95-3.04-7.69-1.48l-1.04-.43c.51-2.05,1.66-1.46,3.42-1.71.84-.12,1.75.31,1.49-.98,2.2.55,4.26,2.56,5.36,2.68Z"/>
  <path class="cls-1" d="M846.18,228.35c1.52,1.01,3.01,2.56,4.13,4.3.67,1.04,1.68,2.91,1.6,3.82l.98,2.16c1.19,4.4,4.26,8.04,3.13,12.51-.23.35-.67.63-1.31.83-1.65,2.08-1.95,1.36-.92-2.17-1.47-1.42-2.07-3.06-1.79-4.91-.85-2.06-1.75-4.15-2.68-6.25-.53-1.57-.5-1.42-1.34-2.68-.27-.95-.77-2.17-1.81-2.24l-.42-1.33c-.46-.64-2.86-3.86-2.23-4.46.98-.33,1.96.36,2.68.44Z"/>
  <path class="cls-1" d="M763.09,157.32l.89,2.68c-3.36-.53-.72,1.6-1.79,3.57,1.97.14,1.31-2.07,1.59-2.69.13-.28.6-.34.64-.43.39.59.38,1.51-.04,2.75l-2.19,5.74c-2.07,4.21-2.87,8.43-4.14,13.05-.19.69-.81,1.52-1.22,2.13.05-.68-.42-1.38-.41-1.59.01-.33.79-.12.85-.2.71-.87-.7-.9-.73-.98-.17-.36.35-1.73-.59-1.7-.65.89.2,5.18,0,5.35-.99.86-.69-1.11-1.33-.89-.9,1.28-.4,3.17-.58,3.95-.06.25-1.49,1.26-1.66,1.41l3.43-11.52c1.86-6.24,5.12-13.92,7.29-20.64Z"/>
  <path class="cls-1" d="M1032.9,107.74c.02.33-.37.56-.45.89-3.97-1.26-8.47-.97-12.51-1.79,4.55.04,8.66.88,12.95.89Z"/>
  <path class="cls-1" d="M965.9,99.7c3.69.63,5.84,1.22,9.37,2.04,4.2.98,8.99,1.89,13.88,2.61,2.09.31,5.29,1.06,7.34,1.19,1.41.09,2.8-.45,4.26-.04-.12-.62-.8-.94-1.34-1.11-1.39-.46-5.19-.73-7.14-1.12l12.71.91c8.65.44,18.83-.25,27.15,1.89,2.87.74,7.49,3.33,3.02,5.69.65-1.15,1.18-2.28.22-3.6-.26-.35-.74-.02-1-.16-.12-.06-.04-.67-.39-.7-.38-.03-.86.44-1.07.44-.08-1.08-6.65-2.14-7.82-2.22-4.64-.32-9.69-.49-14.29-.55-1.04-.01-2.21-.61-3.35-.35.47.8.63,1.02-.44.89-3.22-.59-3.22-.44,0,.45,4.14.05,8.53-.55,12.51.89-18.31-.25-34.52-1.29-52.27-6.25-.79-.12-1.23-.41-1.34-.89Z"/>
  <path class="cls-1" d="M825.63,106.4c0,1.6-.21,3.47-.57,5.02-1.12,4.8-2.19,9.53-4.17,14.14-.46,1.06-3.2,6.83-3.86,7.07-.94.34-1.34-.03-2.12-.32-.66-.48-1.31-1.56-.89-2.23-.57-1.63-1.36-4.02.89-2.23.37-.3.76-.41,1.14-.13,3.41-6.34,5.15-12.94,6.34-19.96l1-.46c.06.9.43,1.84,1.34,2.23-.13-1.17.62-2.22.9-3.12Z"/>
  <path class="cls-1" d="M61.3,93.89c-.14.53-.92,4.87-.9,5.13.38,3.79,9.78,1.2,12.17.67.51-1.2,2.02-2.32,2.58-3.12.76-1.03,1.09-.78.89.45-.31.51-1.58,2.69-1.31,3.08l3.1.94c.45.77-.66.74-1.34.45l-.32.55c-2.17-.63-3.85.53-5.04,3.47-.21.34-.31.68-.45.89-1.72,3.07-3.66,6.05-5.81,8.93-.21.15-.42.8-.89.89.28-.82.56-1.63.88-2.44l-.43-.24c.89-1.62,1.76-3.67,2.68-5.36.74-.67,3.5-4.96,3.3-5.55-.11-.33-.28-.57-.62-.71-.15.02-.3-.02-.45,0-2.6.83-5.36.87-8.04.45-4.71-1.36-1.94-5.34-.89-8.93.62-1.09,1.14-.75.89.45Z"/>
  <path class="cls-1" d="M883.25,95.23c.73-.42,1.24-.07,1.79.45.27-.05.6.02.89,0,.2.97-.28,1.87-.44,2.68-.3.87-.9,1.17-1.79.89-.07-.01-.92.43-1.34,0-.13-.77-.43-1.22-.89-1.34-.2.88-.79,1.77-1.79,2.68-2.07,2.75-4.45,5.14-7.15,7.15-.77,1.4-1.81,2.74-3.13,4.02-2.02,1.69-2.3,2.36-3.84,3.99-.69.73-4.57,4.42-5.09,2.04-.12-.53,6.49-6.32,7.59-7.81l1.33-1.26c.36-2.32,1.26-3.39,2.69-3.21.14-.15.3-.29.45-.45-.1-1.35,1.59-3.19,2.67-3.91.92.15,2.92-1.12,2.25-2.17,1.71-1.61,3.46-3.01,5.27-4.18l.53.43Z"/>
  <path class="cls-1" d="M796.14,253.37c.98.56,2.8,2.4,2.68.45.05-.63.5-.48,1.34.45,1.82.45,3,1.15,3.55,2.09,1.39.53,2.74,1.17,4.04,1.93,2.61,1.54,6.84,2.58,9.83,3.13,4.09.5,8.22.4,12.39-.31.54,2.25-3.46,2.65-5.14,1.98l-6.36.12c-1.72.45-5.25-.37-7.26-.92-.37-.1-.31-.78-.64-.85-2.19-.5-4.59-.62-6.84-1.8-1.07.07-1.99-.44-2.77-1.53l-4.23-3.02c-.95-.27-1.33-1.38-.6-1.7Z"/>
  <path class="cls-1" d="M734.05,184.13c-.59,1.81-1.17,3.68-1.82,5.47-.2.54-1.28-.02-.4,1.68l-1.34.44,1.56.9c.98-.71.71-1.79,1.26-2.72s1.29-1.27,1.65-1.74c-3.1,7.1-7.54,13.82-12.51,19.66-3.28.99-2.65-4.19-.37-5.23-.55-.69-.43-.83.36-.43.34-.94.7-1.27,1.08-1,.91-1.87,2.03-3.49,3.35-4.85-.19-.98.27-1.76,1.38-2.34.09-.16.72-.36.81-.73l4.99-9.09Z"/>
  <path class="cls-1" d="M454.41,5.44c.15.46.55.62.89.89.75-.42,1.34.18,1.79,1.79.88.66,1.92,1.23,2.68,1.79.54-.2.98.1,1.34.89,1.98,1.45,9.95,6.53,10.47,8.06,1.23,3.56-.93,5.13-3.33,7.13-.33-.59-.33-1.49,0-2.68.13-.13.34-.65.45-.89,1.49-1.38,1.49-2.72,0-4.02-.27-.18-.62-.27-.89-.45l-2.23-1.79c-2.41-1.52-5.27-3.48-7.56-5.18-1.57-1.17-7.52-6.71-8.67-6.79-.29-.02-.57.33-.75.35-1.39,1.27-2.16.41-.89-.89,1.19-3.12,4.39-.86,5.8.99.25.32.56.59.91.8Z"/>
  <path class="cls-1" d="M646.05,93.44c-4.11-.36-3.09-5.38-4.11-8.17-1.8-4.92-4.73-9.5-6.7-14.3-.96-2.33.85-2.22,1.91-1.01.33.38,4.03,7.78,4.53,8.87,2.11,4.66,3.74,9.52,4.38,14.6Z"/>
  <path class="cls-1" d="M516.06,18.84c.7.87.73,1.05-.45.89-.18.11-.92-.24-.89.22,3.53,6.23,6.29,12.87,9.15,19.44.46,1.05.61,2.35,1.13,3.57.63,1.48,1.17,2.99,1.79,4.47l-.89.89c-2.02-4.86-3.89-9.57-6.25-14.29-1.51-2.97-2.85-5.95-4.02-8.93-.57-1.2-4.1-7.8-4.02-8.25.48-2.69,4.22,1.78,4.47,2Z"/>
  <path class="cls-1" d="M442.35,256.05c-.95,1.85-8.17,1.93-8.94,2.68l.45.89c-2.99-.51-6.4.72-9.5,1.37-18.32,3.87-40.46,8.7-59.25,2.48-1.27-.42-2.86.42-3.17-1.61,22.29,9.01,57.53.28,80.41-5.81Z"/>
  <path class="cls-1" d="M460.22,66.19c.06-.88.18-8.05-.22-8.05.04,2.89-.52,5.31-1.12,8.05,2.4-14.07-5.56-29.54-19.21-34.4l.89-.89c-1.34.29-2.17-.53-3.13-.9,13.41,2.4,22.36,16.79,23.25,29.69.13,1.89.24,4.73-.47,6.5Z"/>
  <path class="cls-1" d="M436.99,13.93c-4.73,4.36-10.38,5.49-16.53,3.35-7.94-2.76-2.84-5.49,2.68-4.69.16,1.32-4.23,1.12-3.13,2.22.27.27,5.35,1.59,6.1,1.63,3.35.15,6.73-1.3,9.53-2.96.87-.37,1.65-.68,1.34.45Z"/>
  <path class="cls-1" d="M174.32,87.64c.93.79.2,1.74-.89,1.34-2.65,3.76-3.91,6.84-.9,10.83s9.73,10.81,13.41,14.63c-2.1,0-2.61-2.5-3.92-3.59-1.51-1.26-4.16-.35-2.77-3.55h-1.35c1.03-1.13-1.22-1.47-2.07-2.39-.78-.84-1.61-1.99-2.68-3.13s-.95-3-3.28-2.53c-.19-.75.67-.3.81-.5.88-1.23-1.2-1.69-1.49-2.18-.52-.9.37-2.47-1.11-2.24v-.44c1.73.03,3.18-1.82,2.68-3.58l.88.89v-1.78c-.63.23-1.44.54-1.34,1.34-.78.25-.2-.99-.66-.89-1.96,1.74-3.13,3.13-6.03,3.12,0-1.75,2.82-3.05,4.47-3.13.04-.96.78-1.4,2.23-1.34-.14-.98,2.41-2.18,3.13-1.34.93-.37,1.23-.22.89.45Z"/>
  <path class="cls-1" d="M99.27,147.5c1.82-1.36,1.46-.01.45,1.34-6.25,6.56-12.49,12.93-18.78,19.42-1.64,1.69-3.02,4.35-5.34,5.15.39-.59.79-1.11,1.34-1.57l-.89-.22c7.9-7.41,15.78-16.18,23.23-24.12Z"/>
  <path class="cls-1" d="M49.24,152.86c-.83,4.65-1.75,8.49-2.74,13.15-.58,2.73-.1,6.19-1.3,8.94,0,.47,1.16-.05.92.69-1.83-.09-2.07,5.33-1.8,6.42.12.5.91.09.91.51-1.96.24-.62,6.03.22,3.35.73,1.83,1.3.84,2.9,1.34.35,1.4-1.44,1.02-2.22,1.08-.51.04-1.47-.67-.46.48.89.26,2.03.36,2.94.25.81-.1.57-.77.86-.83,2.66-.62,5.31-1.18,7.82-2.33-2.04,2.39-11.94,5.44-13.58,2.25-.29-.57-.32-4.69-.28-5.62.27-7.75,2.68-16.22,4.37-23.77.42-1.88.25-4.14,1.45-5.92Z"/>
  <path class="cls-1" d="M468.26,23.31l1.33.67-1.33,2.01c-2.93,2.45-7.88,5.4-11.5,6.59-1.45.48-2.76,1.25-2.82-1.01-.04-1.43,1.58-.48,2.24-.91.33-.21.4-.92.78-1.13,3.04-1.68,8.95-3.99,11.3-6.23Z"/>
  <path class="cls-1" d="M274.38,188.59c2.18,11.66,1.42,26.1-1.79,37.52-1.08,3.83-3.56,10.01-5.42,13.56-1.07,2.03-2.23,4.09-3.96,5.65-.33-.08-.33-.38,0-.89,3.36-4.32,5.58-9.75,7.1-14.2,6.33-18.46,5.67-34.57.49-53.26.62.48.8,1.17,1.02,1.88.84,2.67,2.05,7.05,2.55,9.74Z"/>
  <path class="cls-1" d="M388.3,85.4c1.43.7,2.18,1.45,2.23,2.23.81.87,1.4,1.43,2.23,2.23.95.2,2.02.81,1.34,1.79.59.63.34.86-.45.45-1.94-1.61-3.86-3.24-5.81-4.91-.63-.89-1.42-1.6-2.36-2.15l.12-.53c-.68-.77-.8-1.01-1.34-1.79l-1.34-1.79c-.48.48-.62.31-.42-.52-1.42-1.66-2.28-3.37-2.58-5.14l-2.36-5.95c-.31-1.64-.64-3.27-.89-4.91l.45.89h.44c-.5-.88,0-1.85,0-2.23,1.75,7.35,4.45,14.98,9.2,20.96.53.66,1.16.96,1.53,1.37Z"/>
  <path class="cls-1" d="M612.1,52.35c2.33-2.68,8.49-4.47,11.17-1.79-1.43.32-8.61,2.39-8.91,3.41-.44,1.5,3.02,3.27,4,4.19,1.22,1.81-2.65,1.56-3.81.95-2.16-1.13-3.17-4.42-2.44-6.76Z"/>
  <path class="cls-1" d="M914.08,148.84c-1.49,2.26-3.34,4.69-4.91,7.15-.73.6-1.17,1.5-1.34,2.68-1.19,1.34-1.06.95-2.23,2.68-1.1,1.03-2.49,1.55-2.23-.45-.15-.63.15-1.37.89-2.23.15-.15.3-.3.45-.45l.97-1.38c-.66-1.04.17-1.31,1.26-1.3,2.21-3.02,4.48-6.68,6.7-9.83,1.38-.54,1.53.5.45,3.13Z"/>
  <path class="cls-1" d="M853.77,249.79c.02.06.43.18.39.58-.08.72-1.44,1.49-.16,2.1.11.05.89-1.55,2.01-1.34-.07.27.09.71,0,.89-.53.19-.98.49-1.34.89-.77.57-1.48,1.22-2.23,1.79-.72.26-1.29.77-1.79,1.34-.12.07-.73.1-1.34.45l-1.79.89c-7.49,3.77-17.14,6.75-25.7,6.27-1.14-.06-2.19-.51-3.33-.47.49-.13,6.04-.73,6.48-.73.37,0,.97.92,2.21.75.48-.06,2.22-1.22,2.48-1.81-3.55.24-7.86,1.02-11.38.43-.39-.07-.61-.42-.68-.43,6.64.37,13.17-.54,19.66-1.79-.73,1.22,1.61.21,1.79-.45,3.27-1.18,7.33-3.15,10.27-4.91,1.92-1.04,3.23-2.49,3.92-4.34l.55-.13Z"/>
  <path class="cls-1" d="M244.9,108.63c1.62,5.23,5.18,12.98,8.49,17.42.05.74-.1,1.33-.45,1.79-1-.94-2.34-2.72-3.06-3.87-1.11-1.78-2.61-4.16-3.64-5.96-.43-.85-.58-1.59-.45-2.23.22-.63.07-1.23-.45-1.79-.74-.99-1.34-2.33-1.79-4.02-.07-.25.07-.64,0-.89-.33-1.15.51-.89,1.34-.45Z"/>
  <path class="cls-1" d="M610.31,122.03c-4.83-.29-12-.19-16.77.54-.23.04-.15.77-.4.75-1.07-.08-2.16-1.28-2.5.94-.79-.18-.31-1.13-1.6-1.2-3.86-.2-7.64,1.28-11.15,1.85-2.52.41-7.51.45-9.73,1.22-1.7.58,1.27,4.26.15,6.18.13-1.89-1.57-4-1.79-5.61-.12-.92.67-.81,1.24-.95,7.47-1.89,15.53-2.57,23.06-3.32,6.24-.62,13.4-2.11,19.48-.39Z"/>
  <path class="cls-1" d="M800.61,118.01c2.45-1.46,7.6.93,9.91,2.59,1.97,1.41,5.74,4.91,4.38,7.24-2.45.32-.11,1.1-.89,2.23-.96-.11-1.58-.29-1.07-1.12-1.27-1.89-2.56-3.75-3.85-5.58-1.84-1.67-1.84-1.87-4.47-2.68-2-.76-4.08-1.36-6.25-1.79-1.09-.62-.75-1.14.45-.89.52-.39,1.24-.31,1.79,0Z"/>
  <path class="cls-1" d="M913.18,67.98c.54.86-.9,2.12-1.79,2.23-2.3,2.18-4.68,4.26-7.15,6.25-1.74,1.8-3.52,3.59-5.36,5.36-1.13,2.04-2.32,2.93-3.57,2.68-.89.82-1.19.67-.89-.45,2.59-2.42,5.01-5.21,7.59-7.59-.1-1.59,1.83-3.8,3.57-3.57,2.21-2.03,5.22-4.18,7.59-6.25,1.31-.74.98.87,0,1.34Z"/>
  <path class="cls-1" d="M181.47,81.38c.73-.25,1.56-1.19,2.68-.89,0,.74.02,1.49,0,2.23-1.79,2.04-4.1,3.95-6.7,4.91-1.11.84-1.74.73-2.68,2.23l-1.34-.89c.23-.33.84-1.28.89-1.34-.14-.68.46-1.02.89-.45-.08-.95.86-1.75,1.79-1.79-.05-.49-.44-.87-1.17-1.13,1.88-.92,3.76-1.88,5.64-2.89Z"/>
  <path class="cls-1" d="M936.41,265.43c2.35.38,4.8,1.2,7.35,1.36,6.77.42,13.97-.35,20.79-.02-.75.24-2.82,1.39-3.34,1.36-.25-.01-.17-.83-.43-.85-3.34-.25-8.11.46-11.65.41-2.77-.04-6.62-.83-9-.83-.67,0-1.06.75-1.71.79-1.15.07-2.76-2.31-4.9-.88-.86-.31-.17-1.29-.24-1.33-.1-.05-1.73-.34-2.23-.46h.45c.83-1.27,4.35-1,4.91.45Z"/>
  <path class="cls-1" d="M717.97,55.47c-.26-2.91,1.99-.9,2.91-.91.48,0,2.34-1.22,3.35-.42.11.09-.71,2.6.44,2.68v-2.23c1.6.57.19,3.59-.5,4.63s-1.66,1.1-1.72,1.19c-.19.26,1.26,3.45,2.22,3.12l-.89.88c1.87.38,1.79,1.38,0,1.79-.54-1.63-2.51-5.55-2.6-7-.06-.95,1.87-1.97,1.06-3.27-.68-1.1-3.26-1.02-4.27-.44Z"/>
  <path class="cls-1" d="M397.23,94.34c1.77,1.26,9.24,5.54,11.05,5.72,2.01.19,4.47-1.49,4.8-3.48,2.35,2.97-1.21,5.02-4,4.93-3.26-.1-10.49-5.06-13.19-7.17-.59-.63-.34-.86.45-.45.26-.15.56,0,.89.45Z"/>
  <path class="cls-1" d="M651.41,144.81c1.06,1.46,2.15,2.46,3.29,3.02l-.42.84c1.53,1.14,2.14,2.36,1.83,3.65.74.75.66,1.22-.23,1.42-.49.03-1.3.14-1.68-.1-.25-.15-2.58-3.92-3.23-4.82-.82-1.04-1.68-2.04-2.56-3.02l.32-.56c1.56-.6.2-2.51-.45-3.57.98.79,2.37,2.17,3.13,3.13Z"/>
  <path class="cls-1" d="M772.02,117.12l.27.48c-1.47.49-.23-1.23.62.41.11-.21.26-.19.45,0-1.31.93-3.25.86-4.71,1.33-1.04.33-.58-.03-.2.9-1.51.45-.53-1.3-1.14-1.35-2.07-.17-4.25,2.31-5.12,4.03,1.47-.73,1.38.69,3.29.42,1.86,1.36-3.67,3.4-5.24,2.23-.68-.51-1.38-1.84-1.43-2.62-.05-.72.59-.97.79-1.52.16-.43-.05-.98.03-1.1.19-.28,2-1.36,2.55-1.43l.47.73c.68-.76,1.58-1.65,2.66-1.18,2.32-1.34,4.55-1.78,6.7-1.34Z"/>
  <path class="cls-1" d="M895.32,84.51c-.04.73-.63,1.48-1.79,2.23-1.55,1.55-3.36,3.02-4.93,4.68-1.17,1.23-2.79,2.79-3.56,4.26-.26.04-.67.5-1.05.45-.34-.04-.49-.86-.74-.9-1.19-.16-1.11-.47,0-.89.08-.11,1.36-.91,1.79-1.79.24-.51.78-1.04,1.64-1.59.47-2.07,1.27-2.88,2.38-2.43,1.63-1.62,3.77-2.98,5.36-4.47l.89.45Z"/>
  <path class="cls-1" d="M941.77,107.74c.05.43.2.73.45.89-2.52,4.34-5.66,7.65-8.49,11.61-.58.18-1.02.03-1.34-.45,2.34-3.22,4.79-6.55,7.15-9.83.46.22.61.15.45-.45.55-.75,1.13-1.76,1.79-2.68.93-.05.67.36,0,.89Z"/>
  <path class="cls-1" d="M118.03,232.37l-.16,1.46c.39,1.01,1.02,2.9-.28,3.01-.4-.29-.85-.74-1.34-1.34-.36.63-.78,3.02-.9,3.13-.26.24-1.24-.29-1.29-.66-.02-.15.53-2.53.63-2.9.71-2.5,2.45-4.97,2.92-7.58,4.04-.38,1.28,3.02.42,4.89Z"/>
  <path class="cls-1" d="M241.77,68.87c-1.2,2.45-2.01,7.25-2.23,9.83l.45,4.02c0,1.14-.09,1.94,0,3.13l.45,2.68c-.12,1.46-.87,1.78-1.34,0-.2-1.17-.34-1.93-.45-3.13-.4-4.21-.25-8.38.45-12.51.26-3.83,1-2.7,2.23-4.91l.45.89Z"/>
  <path class="cls-1" d="M253.39,126.05c1.33,1.78,6.03,5.6,8.04,6.7,1.8,1.29,1.1,2.11-.89,1.34-.01.98-1.46.19-2.09-.25l-3.72-3.32c-.79-1.01-1.31-1.39-1.79-2.68-.39-1.05-.92-2.09.45-1.79Z"/>
  <path class="cls-1" d="M281.53,64.85c.94,0,1.23.59,1.78,1.14,3.54,3.58,6.77,7.36,9.84,11.36.86,1,.18,1.49-.89.89-.08-.15-.35-.27-.45-.45-.59-.27-1.01-.8-1.34-1.34l-2.23-2.68c-2.07-2.06-3.8-3.69-5.36-6.25-.09-.14-.22-1.3-1.34-2.68Z"/>
  <path class="cls-1" d="M86.32,59.49c-.86.63-.55,2.48-1.33,2.94-.66.39-3.01-1.01-3.58,1.31l3.12.22c-.77.22-2.14.17-2.77.47-.5.24-.54.93-1.11,1.25-1.12.65-5.46.7-.58,2.08-2.39.42-2.45-.31-2.24,2.45l-.45-1.34-1.12.89c-.83-2.47-1.28.97-1.57,1.35-.11.14-.76-.46-.89-.45,0-.88.6-1.24,1.11-1.79,4-4.35,6.55-6.2,11.4-9.37Z"/>
  <path class="cls-1" d="M752.37,201.1c-1.12,5.06-2.25,10.42-3.17,15.41-.64,3.48-.98,7.02-1.74,10.5,2.09-1.2,3.89-1.64,6.25-1.79.39.13.38.28,0,.45-1.62-.14-6.73,2.66-7.15,2.23l5.8-26.8Z"/>
  <path class="cls-1" d="M630.41,126.5l1.56-1.35c1.11,2.29.94.7,1.78.62.52-.05,1.34.8,2.01.73.1.88-1.11.02-.88.88,1.21-.18.49.6.86,1.12,1.07,1.53,2.53.47,4.05,1.57l-.89.66c.78,2.85,3.73,1.37,4.02,1.57.21.14.22,3.04.45,3.57-.45-.46-.89-.85-1.34-1.34-.03-.44-.33-.73-.89-.89-3.63-2.23-6.94-5.11-10.72-7.15Z"/>
  <path class="cls-1" d="M400.8,124.71c-1.23,3.55-4.27,6.53-6.19,9.67-2.28,3.73-5.15,8.95-7,13.1-.33.74-.76,1.38-.66,2.24-.3.14-.59.3-.89.45,3.87-9.35,8.09-17.39,14.74-25.46Z"/>
  <path class="cls-1" d="M455.75,99.7c-4.47,5.12-7.36,9.8-12.95,14.52-4.21,3.56-9.37,5.78-13.85,8.71l.9-2.23.66.89c.87-1.18,4.58-2.2,3.8-3.57,2.56.72,2.23-1.89,4.47-1.35-.74-1.73-.2-1.02.6-1.84.29-.29.26-.79.3-.83.42-.5.44,1.77,1.33.89.1-.09-.86-1.94-.44-2.67,1.07-.08-.25,2.78,1.11,2.23.88-.36,1.33-2.12,2.46-2.45l-2.68-1.11c.94-.25,2.02.4,2.84.3,1.39-.16,1.8-2.42,3.41-2.1l-2.23-.88h2.68s-.44-1.35-.44-1.35l.89.22c.23-1.04-.47-.38-.89-.89.86-1.64,2.54-1.35,3.7-2.02.61-.35,3.24-3.64,3.45-4.25-1.91-.55-.09-1.52.89-.22Z"/>
  <path class="cls-1" d="M767.11,117.12c.33.56-.27,1.01-1.79,1.34-1.65,1.34-3.87,2.94-3.57,5.36h2.68c1.14.91-2.84,1.94-4.04,1.14-2.07-1.4.7-4.84,1.8-6.05.34-.38.46-.54.89-.89,1.21-.63,2.71-1.3,4.02-.89Z"/>
  <path class="cls-1" d="M898.89,166.7c1.19.16,1.11.46,0,.89.19.15.35.31.37.48.07.42-4.01,4.48-4.84,4.43.87.73.72,1.03-.45.89.43,1.21-2.62,4.74-4.02,4.02.48,1.4.03,1.59-1.34,1.34.57.66.32.9-.45.45-.24,1.24-.48,1.12-.89,0,.23-.5.09-1.23.42-1.6.15-.17,2.26-1.02,2.7-1.53l-1.33-.88h1.78c.18-.82-.75-.29-.89-.46-.22-.25,1.11-1.08.89-1.33-.14-.17-1.07.37-.89-.45,1.67-.43,4.92-1.05,5.36-2.91l-1.34-.44c.58-.97,1.5.03,2.21-.43,1.23-.8,1.49-2.43,1.81-2.93.12-.18.73.45.89.45Z"/>
  <path class="cls-1" d="M924.8,131.41l.44.4c-.78,1.09-1.52,2.15-2.22,3.18,0,.63-.45,1.05-.89.45-.3,1.09-.81,2.12-1.34,3.13-.43.97-.93,1.52-1.34,2.23l-.64.49c-1.19,2.14-3.21,3.18-2.04-.05,2.54-3.57,5.03-7.17,7.59-10.72,1-.54,1.15-.25.45.89Z"/>
  <path class="cls-1" d="M558.49,115.78c.71,1.25,2.45,3.18,3.13,4.47.28.53,1.71,3.84,1.6,4.03-1.52,1.1-3.88,1.11-5.62,1.78-.6.24-1.04.24-1.34,0,.82-.38,6.25-2.12,6.24-2.46-.02-.69-.66-1.42-1.33-.67.4-1.79-.84-1.25-1.46-1.77-3.71-3.17-.98-2.63-.78-3.38.23-.87-3.01-1.63-.45-2.01Z"/>
  <path class="cls-1" d="M905.59,161.34c-1.73,2.55-3.69,4.97-5.36,7.15-.93.4-1.23.06-1.34-.89.09-.12-.06-.64,0-.89.77,0,1.76-2.49,2.23-3.13.43-1.02,1.19-2.63,2.23-2.68.38.72,1.52.42,2.23.45Z"/>
  <path class="cls-1" d="M921.22,259.62c.91,1.76,3.2.85,4.66,1.83.68.46.65,1.25.71,1.3.15.11.78-.63,1.33-.73.11-.02,2.17.19,2.23.29.28.48-.29,1.04-.68,1.34l-10.27-2.91-1.56.23.89-1.33-3.3.4c-.15-.37-1.92-2.33-1.61-2.64.1-.1,2.06,1.03,2.68.9l-.45.88c1.43-.74,2.28.19,3.43.33.31.04.55-.34.59-.33.81.14,1.17.41,1.34.45Z"/>
  <path class="cls-1" d="M64.87,82.72h.45c.45,1.12-.51,3.67-1.34,4.91-.74,1.95-2.14,4.21-2.68,6.25l-.89-.45c1.21-4.16,2.33-6.71,4.02-10.72.13-.37.28-.36.45,0Z"/>
  <path class="cls-1" d="M410.18,159.11c-2.26,3.15-5.88,7.52-8.96,10.02-.62.5-5.75,4.12-6.11,4.21-1.48.37-1.35-1.08-1.91-1.72.34.46,1.58.95,2.25.7,1.03-.38,2.23-1.84,3.22-2.6,1.89-1.44,3.31-2.55,5.1-4.06l6.4-6.55Z"/>
  <path class="cls-1" d="M612.1,52.35c-.39,3,1.77,6.24,4.75,6.66.84.12,1.76.45,1.51-.85,2.55,2.39-1.14,1.29-1.3,1.39-.59.37.03,2.43-2.06-.05-.91-.23-.44.49-.88.89-1.01-.7-4.69-2.68-2.01-2.46.31-1.14-.93-.21-.89-1.11,2.19-.31-1.06-2.23.89-4.47Z"/>
  <path class="cls-1" d="M769.34,148.84c-.55,2.52-1.55,4.98-2.54,6.79-.1.19-1.03,3.96-.98,4.17.11.41,1.03-.1.84.65-2.44-.16-1.49,1.58-2,3.14-.64,1.94-1.67,3.73-2.46,5.35-.16-2.96,2.54-5.46,2.23-8.49,1.63-3.69,3.2-7.79,4.47-11.61.13-.39.28-.38.45,0Z"/>
  <path class="cls-1" d="M776.94,229.69c1.55-1.51,1.26-.25,2.27.19.79.34,1.69.22,2.2.93-.87-.08-1.03,1.45-.47,1.8.63.4,3.55-.51,2.49,1.09l-1.12-.22c.38.43.45.93.94,1.32,2.31,1.85,3.06,3.85,4.87,6.5-1.42-1.19-2.33-2.9-3.56-4.26-1.61-1.79-5.79-6.2-7.61-7.36Z"/>
  <path class="cls-1" d="M664.81,76.02c.72,1.93,2.27,3.48,2.24,5.36,1.37-1.92,2.21-1.89,3.12.45.42-.04.42.26,0,.89-.33.84-.5,1.96-1.11,2.68-2.3-1.63-2.69-5.13-3.89-7.3-.27-.49-.76-.67-.8-.74-.41-.76-.41-1.2,0-1.34.13-.39.28-.38.45,0Z"/>
  <path class="cls-1" d="M796.14,253.37c-.03,1,.6,1.2,1.2,1.71,1.36,1.15,4.9,3.76,6.4,4.55-3.1.72-1.67.38-2.07-.45-.51-1.06-4.03-3.06-5.24-3.88-.4-.27-1.1-.08-1.18-.15-.15-.12.62-1.04.45-1.33-.07-.12-.6.32-.89.17-.44-.22-.64-.8-1.19-.94-.33-.08-.97.36-1.02.31-.5-.47-.26-3.76-2.26-2.22,1.1-1.9-1.15-1.11-.9-3.13l-1.77,1.34c-.99-1.03.52-2.96.43-3.1-.13-.22-.64-.55-1.33-1.81,2.24,2.1,3.6,4.65,6.02,6.71,1.2,1.02,2.04,1.47,3.36,2.22Z"/>
  <path class="cls-1" d="M953.83,40.28c.46.13.39.62,0,.89.48.96-1.84,1.61-2.68,1.34-2.07,1.31-4.3,2.35-6.7,3.13-.15.09-.28.35-.45.45-.73.32-.86.27-.45-.45-.75-.5-.35-.72.45-.89-.22-.27-.07-.57.45-.89,2.85-1.41,5.43-2.62,8.49-3.57.37-.29.7-.46.89,0Z"/>
  <path class="cls-1" d="M642.03,138.11c2.07,2.04,4.92,4.92,6.7,7.15.82,1.03,1.54,2.62,2.23,3.57-.36-.33-1.05-.58-1.34-.89,1.31,1.62-.87,2.18-.89-.45.04-.05.84.38.89.45-.06-.07.18-.59-.28-.92-1.45-1.04-5.35-1.13-5.07-3.99l1.33,1.34c.33-2.37-1.6-2.18-2.14-2.75-.07-.07.22-.62.08-.82-.63-.87-1.74-1.33-1.5-2.69Z"/>
  <path class="cls-1" d="M531.24,224.33c-.84,1.45-2.33,1.3-3.24,1.77-5.48,2.86-8.8,4.62-15.07,6.27,5.97-2.97,12.17-5.46,18.32-8.04Z"/>
  <path class="cls-1" d="M280.19,93c-1.21-2.09-2.13-2.63-3.8-4.01-2.21-1.83-1.57-3.44.65-2.48.26.11,2.64,2.7,3.17,3.27.25.26.27.81.43.99q-.65,1.38,0,0c.07.07.38-.07.45,0,.52.69.67,1.28.45,1.79.37,1.23-.65,1.5-1.34.45Z"/>
  <path class="cls-1" d="M660.34,68.43c1.11.01,1.29.38.52,1.11l.85,1.04c.98,1.87,1.86,3.68,2.66,5.45.11.28-.08.96,0,1.34-.49-.89-2.11-2.36-1.92-3.34.08-.4-2.01-.99-.77,1.34,1.02,1.92,1.07,2.43,1.8,4.23-.9.8-1.08.74-.89-.45-.48-2.49-2.15-5.67-3.39-8-.36-.67-1.24-1.06-1.53-1.82-1.16-.69-1.27-.81,0-1.34.93.09,1.95.41,2.68.45Z"/>
  <path class="cls-1" d="M269.02,135.43h.45c3.18.53,1.59,1.48-1.34.89-2.19.55-6.81-.17-7.59-2.23,1.07-.05,1.64-.51.89-1.34,1.96,1.07,5.4,2.41,7.59,2.68Z"/>
  <path class="cls-1" d="M136.35,112.65c-2.72,2.2-5.82,5.2-8.49,7.59-.74.39-1.14.47-.89-.45,2.98-2.54,5.85-5.48,8.93-8.04,1.15-.49,1.35.07.45.89Z"/>
  <path class="cls-1" d="M607.18,118.91c1.82.77,2.31-.92,2.45-.9.47.1,1.54,1.15,2.36,1.27,1.7.25.95-.17,2.55.42.71.26,3.14-.4,4.14-.03.62.23,1.21,1.54,1.57,1.74.91.51,2.88,1.15,4.36,1.96-1.96-.13-5.04-1.88-7.14-2.47-2.82-.79-7.44-1.78-10.29-2Z"/>
  <path class="cls-1" d="M884.59,184.57c-.84.51-2.46,2.36-3,2.71-.66.41-1.54.24-1.91.42l-1.12-1.34c-.39,1.48-1.33.73-2.45.89,2-1,4.09-2.57,6.25-3.13,1.22-.97,3.04-1.56,2.23.45Z"/>
  <path class="cls-1" d="M883.25,94.34c-.09.11.06.64,0,.89-.72-.11-9.52,8.57-10.72,9.83-.65-1.57-.3-4.57,1.65-4.84.62-.09.99.81,1.69.84.18,0,.2-.59.6-.88.24-.17.89.05.97-.03.6-.57-1.22-2.12-.89-2.68.06-.11.56.29.88.15.42-.18,2.69-1.12,2.68-1.27-2.03-1.43,1.52-2.84,3.13-2.01Z"/>
  <path class="cls-1" d="M893.98,173.4c3.61-1.15,1.19,1.86-.45,3.13-.74,1.54-1.05,1.06-2.23,2.23-1.13.84-2.32-.18-1.34-1.34,1.17-1.19,3.05-2.95,4.02-4.02Z"/>
  <path class="cls-1" d="M80.96,88.53c-1.6,2.54-3.28,5.76-4.91,8.49l-.89-.45c1.61-2.33,3.2-5.82,4.91-8.49l.89.45Z"/>
  <path class="cls-1" d="M108.21,63.51c.71,1.03,2.61.76,2.68.89.15.29-.54,1.04-.24,1.77.14.35,4.6,5.09,5.16,5.51.38.29,1.62.19,2.01,1.21l.22-.89.45.89.45-.89.44,1.34c-2.67-.19-3.75-.54-5.76-2.51s-3.74-5.3-5.41-7.32Z"/>
  <path class="cls-1" d="M900.23,168.49c-.78,1.02-1.3,1.98-2.23,3.13l-1.3.63c-.69,1.08-2.4,1.65-2.28.27.73-.83,1.29-1.84,2.01-2.69.62-.74,2.12-1.75,2.46-2.23.65,0,1.15.25,1.34.89Z"/>
  <path class="cls-1" d="M948.03,98.8c-.13,1.09-.73,2.5-1.79,3.13-.06.12.06.33,0,.45-.56.45-.76,1.11-.89,1.79-.97,1.74-.85,2.36-2.68,3.13-.1.59-.38.79-.89.45.08-.22-.05-.62,0-.89.64-.9,1-1.64,1.79-2.68l2.68-4.02c.43-.82,1.14-1.83,1.34-2.23,1.12-.53,1.24.1.45.89Z"/>
  <path class="cls-1" d="M963.22,36.71c2.76-.89,4.27.11.89,1.34-.26.18-1.18.54-1.79.89-.81.48-1.41.48-1.79,0-1.32.65-2.51.95-3.57.89-.79,0-1.39-.15-1.79-.45,2.62-.96,5.17-2.42,8.04-2.68Z"/>
  <path class="cls-1" d="M248.92,259.62c.09-.1-.09-.76.45-1.11.41-.26,1.18-.15,1.32-.26.12-.1-.84-3.09.24-3.09s0,1.57.44,1.78c1.16-.43.62-1.7.71-1.75.27-.16,1,.1,1.26-.07.1-.06-.26-.46,1.11-1.82.27-.27.25-.77.28-.82.28-.34.77,1.75,1.78.89-2.24,2.19-4.77,5.01-7.59,6.25Z"/>
  <path class="cls-1" d="M927.48,55.47c.82.81-.95,2.19-1.79,2.68-.44.72-1.03,1.31-1.79,1.79l-1.28.65c-.91.94-2.69,2.37-3.19.69.21-.41,6.55-5.62,7.15-5.81.41-.46.71-.65.89,0Z"/>
  <path class="cls-1" d="M971.7,34.48c.11.68-.34,1.42-1.34,2.23.49.85-.26,1.15-.89.45.14-1.45-.28-.72-1.1-.43-1.4.49-2.71,1.3-4.26,1.33.31-.21,1.56-1.24,1.34-1.34-.73.04-1.5-.07-2.23,0,2.54-1.03,5.75-2.13,8.49-2.23Z"/>
  <path class="cls-1" d="M125.18,122.48c-2.12,1.94-4.17,4.23-6.25,6.25-.79.63-1.39.78-1.79.45.46-.44.88-1.35,1.34-1.79,1.52-2.46,3.45-4.24,5.81-5.36.38-.63,1.07-.3.89.45Z"/>
  <path class="cls-1" d="M735.84,100.14c.36.95,1.21,4.27,1.39,4.41.31.24,1.35-.11,1.66.77.16.44-.52,2.4-.38,2.99.18.77,2.36.45.46,1.88,1.51.38.37.68.48,1.73.09.8.31,1.62.41,2.51l-3.55-10.97-.47-3.32Z"/>
  <path class="cls-1" d="M117.59,245.33c-.33-2.06-.2-3.84,1.46-2.33-.08.79.03,1.57.32,2.33.29.73.58,1.53.89,2.23.12.61-.16,1.26-.45,1.79.13,1.47.14,3.02.45,4.47-1.42-1.63-1.08-4.48-1.48-6.15-.03-.14-1.03-.59-1.2-2.33Z"/>
  <path class="cls-1" d="M124.29,256.49c.21.25.84.34,1.07.87.21.48-.36,1.36.49,1.81l1.11-1.78c1.36,2.39-.47,2.72-.44,2.89.25,1.47,3.49,4.23,3.58,2.02,2.29.63.12,2.95,1.78,2.68.23.78-1.07.21-.89.66.35.86,2.11.89,2.69,1.35.66.53.32,1.38.44,1.56-4.34-2.2-7.71-6.86-9.83-11.17-.21-.42-.21-.72,0-.89Z"/>
  <path class="cls-1" d="M382.93,80.93c.32.13.31.28,0,.45l-2.24-.22,1.79-.44c-.67-1.4-2.27-1.64-2.24-3.35l-.88.89c-.7-1.1.37-1.68.34-2.38-.05-.99-1.76-4.65-2.13-6.56l5.36,11.61Z"/>
  <path class="cls-1" d="M716.63,59.49c.32-.08,1.22-1.35,2.23-.9,1.36,5.27,3.16,10.46,4.92,15.64-1.14.75-.8.51-1.03-.56-.52-2.42-1.43-4.57-1.65-7.03-1.2-.24-.65.28-1.11.9-2.15-.88-1.98-3.22.22-2.24l-1.79-5.81c-.14-.13-1.36.36-1.78.45-.39-.13-.38-.28,0-.45Z"/>
  <path class="cls-1" d="M299.4,67.98c.58-.1,3.21,1.14,3.46,1.42.24.26,1.31,2.23,2.34,3.05-.07.36-.24.57-.47.43-1.94-1.18-.33-.49-.15-.12.06.12-.08.34-.28.58-1.28-.46-1.72-.92-2.68-1.79-.46.08-.91-.22-1.34-.89-.27-1.36.43-2.11-.89-2.68Z"/>
  <path class="cls-1" d="M188.17,112.2c.13.06.49-.13.79.09.56.4.62,2.34,1.21.36l1.12,1.12-.22,1.11,1.11-1.33c-.14.58,1.05,1.61.9,1.78-.14.16-1.08-.35-.89.45,2.02.49,1.24,3.13,3.12.45-1.07,2.2.63,1.5.9,3.13-2.86-1.8-6.46-4.1-8.04-7.15Z"/>
  <path class="cls-1" d="M663.47,79.59c1.04,2.59,4.3,7.61,4.73,9.38.25,1.02-.07,3.84.19,5.8.54,1.56.84,3.05.89,4.47h-.45c-1.2-4.34-1.02-9.5-2.48-12.47-.28-.57-.97-.83-1.26-1.37-.38-.7-.52-2.73-1.29-3.48-.73-.71-2.24.11-2.56-.78-.29-.81,1.1-1.94,1.34-2.01.11-.03.65.38.89.45Z"/>
  <path class="cls-1" d="M787.66,116.23l2.23.45c.54-1.5,4.4-.85,4.02.89.97-.12,1.67.07.89.89-2.55-.38-5.08-.53-7.59-.45-.44-.03-1.43.04-2.23,0-.39-.13-.38-.28,0-.45l.04-.62c.85-.11,1.43-.35,1.75-.72.1-.9.55-.86.89,0Z"/>
  <path class="cls-1" d="M345.86,149.28c.54.49.97.36.94,1.56-.01.42-.85,2.33-.99,2.42s-2.2-.69-3.08.04c.54-.37-.55-2.24-1-2.54-1.93-1.25-1.67-1.99-3.02-4.16,1.42.91,4.28,5.36,5.66,5.74,1.8.5,1.56-1.85,1.49-3.06Z"/>
  <path class="cls-1" d="M851.98,244.88c.59,1.58,1.32,3.16,1.79,4.91-.75,2.86-2.31,3.18-4.47,4.47,1.03-2.16,3.11-1,1.34-3.34l1.12-.23v1.34c1.27-1,1.51-4.83-.22-3.57-.62-.96.09-3.02,0-3.58.13-.39.28-.38.45,0Z"/>
  <path class="cls-1" d="M284.21,97.91c.3.73.6,1.5.89,2.23.37.55.63,1.11.45,1.79.04,1.01-.12,2.17,0,3.13-.13.39-.28.38-.45,0-.41-.44-.71-1.04-.89-1.79-.26.3-.41.15-.45-.45-.1-.13-.29-.24-.45-.45-.52-1.27-.66-2.32-.45-3.13-.63-1.84-.11-3.24,1.34-1.34Z"/>
  <path class="cls-1" d="M555.81,106.84c.82.38,1.68-.97,1.34,1.79,3.23-1.08,3.39,1.6,2.23,4.02-1.07-1.77-3.15-3.61-3.57-5.81Z"/>
  <path class="cls-1" d="M935.07,51.45c-2.61,2.21-6.24,4.79-9.38,7.15v-.45c.41-.48,1.11-1.89,1.79-2.68,2.05-1.65,4.14-3.14,6.25-4.47.7-.96,1.07-.68,1.34.45Z"/>
  <path class="cls-1" d="M557.6,126.05c-12.64,4.85,3.3,11.45,9.38,8.04-.12.16.03.73-.42,1.1-.9.73-4.39.36-5.51.34s-1.98,1.02-2.34-.55c-.41,1.46-3.11,1.07-2.01-.89-.88.42-.97.66-.9-.44l-.66.89c-.52-.92-3.18-3.25-3.15-4.05.08-2.51,2.38-3.57,4.27-4.44h1.34Z"/>
  <path class="cls-1" d="M181.47,81.38c-1.2,1.47-3.37.63-2.23,2.68h-3.12s1.78.45,1.78.45c.02.54-.63.65-.89.89-.78.37-1.52.67-2.23.89.2.81-.59,1.06-1.34.89-.93.53-2.11.74-3.13,1.34-1.81.85-2.17.12-.45-.89.15-.09.27-.34.45-.45l1.79-.89c3.45-1.99,5.45-3.58,9.38-4.91Z"/>
  <path class="cls-1" d="M168.07,89.87c-1.42.84-3.05,2.24-4.47,3.13-.19.12-.31.36-.45.45.08.32.12.58.05.62-.32.17-2.72.78-2.73.27-.7.16-.7-.14,0-.89.31-.2.57-.68.89-.89.43-1.13.87-1.43,1.34-.89.46-.3.8-.58,1.34-.89.15-.59.77-1.05,1.34-.89-.01-1.02.44-1.17,1.34-.45.68-.61,1.24-.49,1.34.45Z"/>
  <path class="cls-1" d="M728.24,193.95c-.6,1-.93,2.35-1.68,3.46-1.28,1.9-5.56,6.39-6.03,7.84-.53,1.61.87,1.81,1.9,2.54.25.18.95.52.89.67-2.4,2.1-2.5-.78-3.99-1.76.8-.81.71-2.44.99-3.15.09-.24.56-.18.64-.31.22-.37-1.15-1.04,1.03-.81l-1.78-1.11,2.68-1.11c-.69,1.19-1.84-.55-.89,1.78.76.19.27-.63.5-.81.13-.11.71.39.79.33.16-.11,1.48-3.37,1.38-3.54-1.31.39-2.11.23-1.78-1.34,2.1.9,4.99.75,3.13-1.78l2.23-.9Z"/>
  <path class="cls-1" d="M939.09,46.98c.95-.34,1.25-.19.89.45-.08.56-.52,1.01-1.34,1.34-1.11,1.04-2.47,1.74-3.57,2.68-.49-.05-.91-.23-1.34-.45-.62.66-.89.38-.45-.45,1.95-1.22,3.8-2.42,5.81-3.57Z"/>
  <path class="cls-1" d="M624.61,123.37c.1,0,1.88-.33,1.96-.39.8-.58-.77-2.19,2.5-.94-1.92,3.42.23,2.28,1.35,3.13.15.11-.46.74-.45.89-2.01-.41-3.63-1.73-5.36-2.68Z"/>
  <path class="cls-1" d="M846.18,228.35c.13.02.77-.55.89-.45.11.1.18,1.38.53,1.7.07.06.65-.25,1.05.05.23.17,2.35,2.71,2.48,2.94.55,1.02-.28,3.14,1.3,2.02.95,1.58-.5,1.32-.43,1.55.18.65.61,1.41.9,2.47-2-3.65-3.78-7.24-6.7-10.27Z"/>
  <path class="cls-1" d="M905.59,72.89c-1.06.97-2.3,2.39-3.57,3.57l-1.78-1.11c.31-.76,1.17-.19,1.26-.31,1.13-1.45.6-3.6,4.1-2.14Z"/>
  <path class="cls-1" d="M930.61,122.48c1.08-.49,1.23.11.45,1.79-1.27.98-2.17,2.32-2.68,4.02-.1.14-.31.25-.45.45-1.12.72-1.71.58-1.79-.45,1.42-1.96,3.26-4.14,4.47-5.81Z"/>
  <path class="cls-1" d="M716.63,59.49v.45c-3.95.84-8.09,2.45-11.61,3.57,4.69-3.01,6.29-2.64,11.61-4.02Z"/>
  <path class="cls-1" d="M260.53,134.09c3.43,1.83,3.17,2.25,7.59,2.23.39.13.38.28,0,.45-6.04.1-9.83-1.68-13.4-6.25,1.7.45,2.53,2.28,3.86,3.07.76.45,1.64.34,1.94.5Z"/>
  <path class="cls-1" d="M147.96,102.38c1.15-.5,1.35.09.45.89.02.77-.7,1.13-1.34,1.34-.14.15-.3.29-.45.45l-1.79,1.34c-.14.15-.3.3-.45.45-.49.35-.78.35-.89,0-.87.45-1.4.57-.89-.45,1.9-1.5,3.45-2.6,5.36-4.02Z"/>
  <path class="cls-1" d="M295.83,80.93c.92,1.62.42,3-.89,1.34-1.01-1.54-1.58-2.06-2.68-4.02l.89-.89c.93,1.22,1.82,2.28,2.68,3.57Z"/>
  <path class="cls-1" d="M243.56,104.16c-.29,3.56-2.13-1.38-2.23-3.13-.17-.64-.32-1.07-.45-1.79-.45-1.12-1.27-4.23.45-3.57.5,2.98,1.44,5.62,2.23,8.49Z"/>
  <path class="cls-1" d="M919.44,61.73c.86.05.72.43,0,.89-.28,1.14-2.02,2.46-3.13,3.13-.82.97-1.75,1.92-2.78,2.84l-.35-.6.41-1.08-.41-.26c1.95-1.71,3.68-4.07,6.25-4.91Z"/>
  <path class="cls-1" d="M809.1,123.37c1.92,1.75,3.59,4.19,4.91,6.7.37.71.54,1.52.89,2.23-1.61-.61-.71-.45-1.57-1.79l-.44.89-1.56-1.56,1.33-.44c-.36-2.32-3.58-2.97-2.68-5.14l-.89-.9Z"/>
  <path class="cls-1" d="M782.74,116.23c-2.7.38-2.55.53.45.45.69-.66,1.62-.14,1.79.89v.45c-2.1-.11-4.15-.1-6.25,0-.46-.02-.6-.47-.45-1.34.09-.09-.08-.64,0-.89.92-1.13,4.95-1.62,4.47.45Z"/>
  <path class="cls-1" d="M800.61,254.26c.87.23,1.91,1.2,1.79-.44.72-.2.3.56.53.73.16.12,2.16.43,2.59.62l-1.78.88c1.78-.26,2.47,1.32,4.02,2.24-2.71-.5-5.56-2.22-7.59-4.02h.45Z"/>
  <path class="cls-1" d="M315.48,92.1c.85-.74,1.15-.59.89.45-.25.68-.84,1.28-1.79,1.79-.04,1.05-1.71,2.25-2.68,2.23,0-.4.65-1.61.45-1.78-.07-.06-.94.17-1.79-.45,1.28-.06,2.87-1.39,4.02-2.23.45-.29.75-.29.89,0Z"/>
  <path class="cls-1" d="M342.28,67.09l.34.7c-1.1,1.51-2.25,3.06-3.46,4.66l-1.34-.45c1.17-1.7,2.51-3.71,3.57-5.36.42-.46,1.19-.27.89.45Z"/>
  <path class="cls-1" d="M885.04,92.55s-.47-.55-.24-.91c.27-.42.79-.01,1-.18,1.88-1.48.21-2.46.57-3.97.08-.34.69-.29.76-.4.16-.26-.94-1,.88-1.1.52-.03.96.32,1.48.31l-.45,2.23c-1.28,1.27-2.32,3.36-4.02,4.02Z"/>
  <path class="cls-1" d="M790.78,244.88c.87.2,2.17.91,2.72,1.56.23.27,1.67,2.94,1.91,3.25.16.21,1.73,1.86,1.86,1.9.78.2,1.75-2.39,3.13-.45.3.43-.93,1.52-1.13,2.02l1.34,1.11c-.15-.04-.32.05-.45,0-.38-.14-1.28-.41-1.34-.45-2.27-1.39-6.32-6.68-8.04-8.93Z"/>
  <path class="cls-1" d="M76.49,101.48l5.79-.08.46.53c-1.6.78-4.95.74-6.91.65-.34-.02-.76-.62-1.27-.56-1.6.19-2.17,2.74-3.44,3.48,1.86-2.92.64-4.26,5.36-4.02Z"/>
  <path class="cls-1" d="M552.24,153.3c.56.26,1.78-.31,1.79,1.34.8.2.14-.64.66-.89l1.12,1.12c-1.33.5-.64.29-.44,1.56l.88-.89.45,3.12c-1.49-1.68-3.56-3.28-4.47-5.36Z"/>
  <path class="cls-1" d="M107.31,139.45c.33-.15.63-.15.89,0-1.26,1.33-2.63,3.02-4.02,4.47-.88.82-1.18.68-.89-.45-.94-1.04.35-1.89,1.34-2.23,1.07-.47,1.71-1.63,2.68-1.79Z"/>
  <path class="cls-1" d="M299.4,87.19c.93,1.63,1.12,2.45,1.79,4.02.36,1.01.21,1.31-.45.89-1.61-.93-1.99-3.7-2.68-4.91-.62-1.36.62-.88,1.34,0Z"/>
  <path class="cls-1" d="M343.62,67.53c-.15,2.63.21,4.15.89,6.7-.33-.61-1.15-1.24-1.26-2.13l-.97-4.12c.19,1.66-1.72,2.63-2.1,3.26-1.06,1.76-.79,2.8-2.82,4.78-.39-.13-.38-.28,0-.45-.34-1.14.26-2.18,1.79-3.13,1.07-1.78,2.29-3.44,3.13-5.36.42-1.01,1.6-.8,1.34.45Z"/>
  <path class="cls-1" d="M548.67,215.4c0,.15.63.78.45.89-.12.07-.67-.12-.96.05-.76.44-1.71.71-1.84.8-.76.5-1.36,3.06-1.88.94-.97,1.08-2.42,1.51-3.8,1.8l.45.88c-2.44-.92-2.22.5-4.17,1.42-1.27.6-2.68.78-3.87,1.27l15.63-8.04Z"/>
  <path class="cls-1" d="M336.03,76.02c.35.2.2.65-.45,1.34-1.09,1.12-2.09,2.12-3.13,3.13-1.91,1.12-1.53-.03-.45-1.34,1.09-1.02,2.63-2.82,3.57-4.02,1.15-.5,1.35.09.45.89Z"/>
  <path class="cls-1" d="M141.26,108.63c.25.13.24.28,0,.45-1.59,1.08-3.37,2.33-4.91,3.57l-.45-.89c1.47-1.23,2.98-2.38,4.47-3.57.74-.36,1.14-.47.89.45Z"/>
  <path class="cls-1" d="M670.17,81.83c.49-1.25,1.47-1.54,1.7-1.9.09-.14.07-2.27.99-3.01.81-.18.28.75.44.89.09.08,1.96-.76,2.23-.89l-5.36,5.81c.09-.22-.09-.67,0-.89Z"/>
  <path class="cls-1" d="M70.68,106.4c.3,2.46-1.29,2.49-2,3.58-1.63,2.51-1.2,3.47-3.81,5.36,1.36-3.3,3.94-6,5.81-8.93Z"/>
  <path class="cls-1" d="M153.77,99.25c-1.31.99-3.88,2.93-4.91,4.02-.13.39-.28.38-.45,0l-.45-.89c1.66-1.23,3.25-2.39,4.91-3.57.92-.39,1.22-.24.89.45Z"/>
  <path class="cls-1" d="M916.31,65.75c.56-.52.86-.52.89,0-1.95,1.75-3.76,4.26-6.25,5.36-.19-.17-.04-.47.45-.89.61-.69,1.16-1.56,1.79-2.23.04-.05.5.14.78-.13.47-.45-.01-1.73,2.35-2.11Z"/>
  <path class="cls-1" d="M107.76,63.07c-2.33-1.36-5.45.31-7.59,1.34,2.32-2.43,3.68-3.8,7.11-2.45.89.35,1.22.06.49,1.11Z"/>
  <path class="cls-1" d="M839.03,259.17c.19,1.73,0,1.08-1.04,1.39-2.42.74-4.9,1.3-7.44,1.07,2.22-.82,4.43-1.25,6.7-2.01.73-.25,1.43-.32,1.79-.45Z"/>
  <path class="cls-1" d="M950.71,94.78c1.88-.16,1.25.86,2.45,1.8,3,2.36,9.06,2.49,12.74,3.12.38.23.97.79,1.34.89l-10.73-1.62c-1-.71-1.54-1.43-2.45-.18-.73-.3-.27-1.1-.46-1.37-.3-.42-.84.02-1.01-.1-.26-.18-.31-.97-.78-1.19-1.51-.71-1.24,1.83-2.2,2.72-.6.56-.99-.07-1.13-.05l-.37-.5c.94-1,1.8-2.18,2.6-3.52Z"/>
  <path class="cls-1" d="M933.73,120.25c-.92,1.28-1.75,2.71-2.68,4.02.05-.08-.11-1.62-.45-1.79.5-.68,1.1-1.73,1.79-2.68.69-.6,1.02-.39,1.34.45Z"/>
  <path class="cls-1" d="M263.22,245.33c-.61,2.68-4.76,6.15-6.7,8.04.15-.13-.65-1.14-.44-1.34l1.34.45.67-2.67,1.11.88c.15-.18-.33-.82-.25-1.12.42-1.57,3.03-3.52,4.28-5.13-.04.29.06.64,0,.89Z"/>
  <path class="cls-1" d="M104.19,143.92c-1.52,1.59-2.95,3.32-4.47,4.91.2-1.1,1.02-1.49-.45-1.34.61-.65,1.18-1.58,1.79-2.23.64-1.55,1.38-2.15,2.23-1.79l.89.45Z"/>
  <path class="cls-1" d="M933.73,51c-1.21,1.3-3.64,3.77-5.23,4.37-.38.14-.83.02-1.02.09-.02-.58.28-1.18.89-1.79l2.68-1.79c.74-.45,1.49-.88,2.23-1.34.13.15.27.36.45.45Z"/>
  <path class="cls-1" d="M68,78.7c-.4.54-.02,2.5-.1,2.61-.31.42-1.82,2.12-2.05,2.6-.59,1.17-.41,3.05-1.87,3.73.57-1.48.76-3.61,1.34-4.91.31-.7,2.11-3.03,2.68-4.02Z"/>
  <path class="cls-1" d="M508.01,102.82c1.76.77,2.57-1.4,2.24,2.23.79.23.21-1.06.66-.89,1,.38.09,1.56.23,1.79.04.07.68-.34.91-.22.31.15.19,1.75,1.09,2.01-.79-2.49,1.22-.98,1.7.11.2.45-.16,1.13.1,1.65.34.7,1.61,1.16,1.56,2.26,1.3-1.42,1.94-.01,3.56,0,.03.74-1.02.3-1.14,1.31-.07.61.68,1.15.69,1.81-.55-.58-1.68-1.21-2.23-1.79-3.15-3.3-6.19-6.57-9.38-9.83v-.45Z"/>
  <path class="cls-1" d="M953.39,92.55c.72.41,1.3,1.01,2.24.9l-.46.88c2.38-1.21,2.2.95,2.75,1.3.24.16.92-.37,1.42-.26,3.21.7,6.62,1.74,9.68,2.53-3.68-.6-8.02-.87-11.52-2.11-1.48-.52-3.91-1.5-4.12-3.25Z"/>
  <path class="cls-1" d="M787.21,118.01c-.19-1.88,1.2-.22,2-.06.87.17,2.37-.5,3.07-.39.15.02.51.62,2.53.9,1.08-.84,2.74-.64,3.57.45.39.13.38.28,0,.45-3.29-.52-7.87-1.1-11.17-1.34Z"/>
  <path class="cls-1" d="M269.02,135.43l5.74-1.09,2.3.2c-1.13,1.42-3.68,1.79-5.36,1.78-.39-.71,1.37-.73,1.28-.72-1.34.29-2.18.39-3.51-.18-.15-.02-.3.02-.45,0Z"/>
  <path class="cls-1" d="M111.78,135.43c-1.12,1.19-2.43,2.82-3.57,4.02-.96.82-.83-.01-.89,0,.6-.95,1.94-2.91,2.68-3.57l1.34-.89c.63-.59.86-.34.45.45Z"/>
  <path class="cls-1" d="M911.4,70.21c-.19.21-.26.67-.45.89-2.13,2.46-4.06,3.31-6.25,5.36h-.45c.16-.15.22-.86.58-1.19l6.57-5.06Z"/>
  <path class="cls-1" d="M178.34,101.93c1.97,1.78,2.95,2.76,4.65,4.51.7.72,3.25,2.44,3.61,3.08.21.38-.24.86-.22.9-1.6-1.26-3.07-2.77-4.49-4.24-1.17-1.22-2.7-2.82-3.55-4.25Z"/>
  <path class="cls-1" d="M872.09,105.5c-1.34,1.43-2.17,3.48-4.02,4.47.48-.64,1.13-1.25,1.24-1.41.27-.39-1.44-5.86,2.78-3.05Z"/>
  <path class="cls-1" d="M326.65,83.62c.56.06.86.35.89.89-1.51,1.17-1.19,2.52-4.02,3.57-.24-.53-.54-.98-.89-1.34,1.52-.98,2.68-1.99,4.02-3.13Z"/>
  <path class="cls-1" d="M486.57,81.38c.13.01.53-.51.82-.37.09.04.85,1.49,1.09,1.6.36.15.85-.2,1.21-.05,3.11,1.25.63,2.49.9,2.84,2.63-.7,1.82,2.68,3.13,2.69.38.16.44.73,0,.89-2.39-2.51-4.84-5-7.15-7.59Z"/>
  <path class="cls-1" d="M705.02,63.51c-2.8,1.79-6,2.95-8.93,4.47l3.03-2.67c1.93-.7,3.96-1.18,5.91-1.8Z"/>
  <path class="cls-1" d="M364.17,184.13c-1.52,1.67-2.73,4.13-4.91,5.36.07-.81.1-1.45.97-2.59.13-.17,3.02-.05.82-2.76h3.13Z"/>
  <path class="cls-1" d="M1002.97,243.99c-2.85,3.16-2.83,3.89-6.7,6.7,1.82-2.37,4.33-4.88,6.7-6.7Z"/>
  <path class="cls-1" d="M927.93,128.73c-.07.1.07.35,0,.45-.55.19-.85.64-.89,1.34-.88,1.26-2.5,2.84-3.57,4.47-.14.22-.29.22-.45,0,.64-.59.45-1.72.73-2.24.04-.08.94-1.19,1.06-1.33.19-.74.34-1.48.45-2.23.32-.44.75-.7.89-.89l1.79.45Z"/>
  <path class="cls-1" d="M493.72,88.08s.2-.43.44-.46c-.12,1.53.86,2.08,2.24,2.25l-.89.88c2.11-.13,2.8,3.01,3.57,3.39s2.81-1.07,3.8,1.08l.23-.89c.89.24,1,.96.89,1.79-1.69-1.12-.22.7-1.33.89.4-.92-1.64-3.26-2.24-2.67l.45,1.78c-2.35-2.37-4.8-4.68-7.15-7.15v-.89Z"/>
  <path class="cls-1" d="M663.02,69.32c.88.16.02-1.06.89-.89.37.78-.6,2.05-.89,1.79-.12-.1.1-.78,0-.89-.31-.37-2.69-.78-1.78.44.03.05.63-.17,1.02.56.51.96.73,2.38.76,3.47l1.33-2.23c-.63,1.71-.15,2.86.45,4.47h-.45c-.28-.69-1.89-2.67-2.41-3.62-.61-1.13-1.43-2.71-1.61-3.97,1.92.1,3.08-1.22,2.68.89Z"/>
  <path class="cls-1" d="M283.32,95.68c.3.66.6,1.52.89,2.23-1.45-.13-1.47-.11-1.34,1.34-.96-.95-1.55-2.29-1.79-4.02-.44-.85,0-1.29,1.34-1.34.7-.02,1,.57.89,1.79Z"/>
  <path class="cls-1" d="M160.47,94.34c.21,1.03-1.59,2.11-2.68,2.23-.45.31-.89.57-1.34.89-.92.38-1.22.23-.89-.45,1.63-1.12,3.15-2.41,4.91-3.57v.89Z"/>
  <path class="cls-1" d="M930.16,264.09c.7-1.12,1.81-.32,1.34.89h-.45c-5.13-1.18-8.8-1.55-13.85-3.57,2.85.15,5.63,1.44,8.4,2.1,1.57.37,3.24.3,4.56.58Z"/>
  <path class="cls-1" d="M163.15,93.44l.89,1.34c-2.1.08-2.46-1.44-2.24,1.34l-.66-.89c-.63.25-2.52,2.27-3.35,1.34.98-.67,2.06-1.83,2.68-2.23.93-.61,2.39-.71,2.68-.89Z"/>
  <path class="cls-1" d="M772.02,116.23c.35.14.29.63,0,.89l-6.7,1.34c.61-.49,1.49-.56,1.79-1.34-.39-.13-.38-.28,0-.45,2.1-.06,2.73-.28,4.91-.45Z"/>
  <path class="cls-1" d="M446.37,4.55c.24-1.21,2.64-3.21,3.71-3.04.4.06,3.08,2.42,2.19.57,1.5-.78.46,2.47,2.14,3.36l-4.77-3.07c-.57-.05-1.37.89-1.93,1.28-.05,1.28-.49,1.58-1.34.89Z"/>
  <path class="cls-1" d="M77.83,101.04c1.89-.27,4.24.13,6.25-.44-.14.43-.99,1.16-1.34,1.34-1.71-.09-3.46.12-5.17.02-.58-.04-1.02-.46-1.08-.46.54.23,1.15-.42,1.34-.45Z"/>
  <path class="cls-1" d="M447.71,3.65c-.1.93-.05,1.02.89.89-.89,1.26-2.38,2.14-3.57,3.13-1.05.54-1.5.39-1.34-.45,1-.81,1.94-2.09,2.68-2.68.12-.1,1-.66,1.34-.89Z"/>
  <path class="cls-1" d="M888.17,179.21c.59.38,1.04.82,1.34,1.34-.78.73-1.27,1.42-2.23,2.23-.49.37-.79.37-.89,0-1.7-.56.65-2.12.02-1.14-.33.51-.5.38-.91-.2.96-.92,1.24-1.04,1.79-2.23.28-.05.68.08.89,0Z"/>
  <path class="cls-1" d="M886.38,182.79c-.25.59-.7,1.19-1.34,1.79-.09.02-.37.04-.45,0-.81-.37.09-1.05-2.23-.45.83-1.11,2.15-1.74,3.13-2.68l1.34-.45-.44,1.79Z"/>
  <path class="cls-1" d="M184.15,82.72c-.06,2.14-.7,1.05-1.81,2.02-.39.34.02,1.14-.4,1.35-.26.13-2.76-.3-1.81,1.54-1.47-.57-1.76-.28-1.79,1.34l-.89-1.34c2.19-1.65,4.42-3.39,6.7-4.91Z"/>
  <path class="cls-1" d="M651.41,144.81c1.68-.02,2.07,2.49,2.24,2.69.1.12,2.25-.72,3.12,0,.02.93-2.06.73-2.23.89-1.04,1.04.97.6,1.12.86.24.43.12.54.67,1.37-.7-.99,1.17-1.95,1.34-1.79.8.81-.79.87-.78,1.12.05.76.81.84-.56.67.21.31.99,1.22.89,1.34-.14.16-1.07-.36-.89.44l1.34.89c-.61.01-1.2.41-1.79.45.06-1.05.08-2.02-.34-3.01-.25-.59-3.45-5.07-4.13-5.92Z"/>
  <path class="cls-1" d="M440.56,9.91c.42-.77,1.19-.51.89.45-.8.64-2.13,2.52-3.13,3.13-.73-.07-1.17-.37-1.34-.89,1.19-.81,2.56-1.89,3.57-2.68Z"/>
  <path class="cls-1" d="M284.21,103.27c.29.88.59,1.48.89,1.79h.45c.09.71.35,1.44.45,2.23.05.65-.1,1.1-.45,1.34.02.43.01.6-.45.45-.34-2.01-1.76-4.06-1.34-6.25.13.16.31.29.45.45Z"/>
  <path class="cls-1" d="M321.73,87.19c.64.4.49.84-.45,1.34.41.03.71.18.89.45-1.46,1.27-1.58,2.54-3.57,2.68-.49.82-.87.95-1.34,0,.11-.76.72-1.25,1.84-1.47l-.5-.76c.83-.74,2.23-1.75,3.13-2.23Z"/>
  <path class="cls-1" d="M117.59,236.84c.4.08.38.23,0,.45.06,1.65.36,2.1.89,1.34-.23-.4-.23-.69,0-.89,1.45,1.05.14,2.23.18,2.9.07,1.23,1.05,3.22.71,4.69-.24-.6-1.31-.95-.44-2.23h-1.34c.04.73-.07,1.5,0,2.23l-1.34-9.83c.73-1.29,1.36.59,1.34,1.34Z"/>
  <path class="cls-1" d="M694.74,65.3c-1.51.9-2.94,2.44-4.91,2.68.33-.25.55-1.01,1.34-.9l-1.33-1.11c1.69-2.26,1.41.15,2.04.26,2.07.35,1.73-3.3,2.87-.93Z"/>
  <path class="cls-1" d="M898.89,81.83c.14-.23.28-.23.45,0-1.02.98-.52,1.25-1.08,1.78-1.06,1.03-3.41,2.4-4.73,3.13.34-.34.76-1.33,1.79-2.23.11-.1.73-.1,1.12-.43.98-.82,1.32-2.19,2.46-2.25Z"/>
  <path class="cls-1" d="M445.03,7.67c-1.25,1.04-2.44,1.78-3.57,2.68l-.89-.45c.17-.14.27-.75.45-.89.72-.25,1.33-.73,1.79-1.34.23-.19.66-.26.89-.45l1.34.45Z"/>
  <path class="cls-1" d="M949.37,93.44l-.89,4.02c1.6-.75.37-2.53,2.23-2.68-.28,1.6-1.52,2.75-2.23,4.02-.13.28-.28.27-.45,0l-.45-.89c.68-1.4.96-2.95,1.79-4.47Z"/>
  <path class="cls-1" d="M339.16,72.45c-.62,1.02-1.22,2.08-1.79,3.13-.24.46-.9.81-1.34.45l-.45-.89c.46-.59,1.46-1.78,1.79-2.23.86-.43.33.56.27.57-.3.05.75-2.19,1.52-1.02Z"/>
  <path class="cls-1" d="M104.63,141.24c-.36.72-.81,1.64-1.34,2.23s-1.7,1.22-2.23,1.79c.13-.67.96-3.02,1.31-3.37.97-.97,1.75-.42,2.27-.65Z"/>
  <path class="cls-1" d="M306.99,96.57c-.12.28.15,1.21,0,1.33-.2.16-1.35-.12-1.92.02-.12.03-1.73.73-2.1.89,1.72-1.63,4.34-1.83,4.02-4.91,1.37,1.88.67,1.12,0,2.68Z"/>
  <path class="cls-1" d="M57.28,188.59c-.62.51-.97,1.41-2.23,1.37l.44.86-1.34-.45c.13,1.12-.5,3.23-.9.9h-.44c.12,1.48-.31.84-1.12,0,.27,3.13-.43.09-2.01.44,2.45-.54,5.29-2.52,7.59-3.13Z"/>
  <path class="cls-1" d="M697.42,63.96c.67-.43,1.23-1.35,2.23-1.35l-1.34-1.33c1.68-.93,1.66.85,3.12.89l.23-1.35,1.12.9c-1.63.67-3.46,2.21-5.36,2.23Z"/>
  <path class="cls-1" d="M755.05,227.01c1.22.06,1.15.51,0,.89-.98.1-2.08.66-3.13.89-1.46-.14-1.9-.58-1.34-1.34.27-.12,1.23.12,1.88-.11.78-.27,1.39-1.05,2.14-1.23.76.18,1.19.35.45.89Z"/>
  <path class="cls-1" d="M898,171.62c-.52.64-1.14.9-1.53,1.37-.84,1.03-.7,3.17-2.94,3.54.06-.13-.12-.49.09-.79.4-.56,4.01-2.27.36-2.34.1-.11.17-.58.45-.89l.24.43c1.41.22,1.4-1.7,3.34-1.33Z"/>
  <path class="cls-1" d="M238.65,85.4c-.38-4.11-1.15-8.55.45-12.51-.11,1.58-.43,3.79-.47,5.56-.04,2.27.79,4.76.02,6.94Z"/>
  <path class="cls-1" d="M397.23,94.34c-.26-.18-.66-.26-.89-.45-.77.14-2.03-1.4-2.23-2.23-.46-.42-.88-1.35-1.34-1.79,3.01-.45,2.89,2.35,4.47,4.47Z"/>
  <path class="cls-1" d="M904.7,76.47c-1.6,1.49-3.57,3.65-5.36,5.36h-.45c1.14-2.2,3.57-3.71,5.36-5.36h.45Z"/>
  <path class="cls-1" d="M371.77,176.98c-1.74,1.5-2.3,2.52-4.47,4.02.95-1.33,2.37-3.65,3.55-4.63.71-.59.44.28.91.61Z"/>
  <path class="cls-1" d="M921.22,62.17c-1.38,1.32-2.63,2.33-4.02,3.57-.29.03-.61-.04-.89,0,.81-1.1,1.95-2.45,3.13-3.13.15-.95,1.06-.81,1.79-.45Z"/>
  <path class="cls-1" d="M240.43,88.53c.02.13.35.58.45,1.34-.42.1-.42.4,0,.89.12.9.3,1.79.45,2.68-.13.39-.28.38-.45,0-.58.07-.73-1.36-.79-2.03,0-.11.7,2.14-.11,2.03-.62-1.91-.59-3.09-.89-4.91.6.4,1.07.84,1.34,0Z"/>
  <path class="cls-1" d="M386.51,169.83c.57-.2,3.85-1.46,4.02-1.34l-.22.89c2.46-.99,2.25,1.36,2.89,2.23-2.17-2.51-3.53-1.74-6.7-1.79Z"/>
  <path class="cls-1" d="M332.01,79.15c-.2,1.1-1.02,1.49.45,1.34-.77.75-1.35,1.43-2.23,2.23-.22-.14-.21-.29,0-.45-.54.25-1.2.16-1.34-.45,1.02-.88,2.16-1.78,3.13-2.68Z"/>
  <path class="cls-1" d="M134.56,269c1.29.04,2.05,1.14,3.13,1.59.45.19,1.14-.25,1.27-.17.13.08.34,1,.98,1.46,1.67,1.21,3.59,1.47,4.9,2.92-2.51-1.09-8.79-3.67-10.27-5.81Z"/>
  <path class="cls-1" d="M282.87,99.25c.34,1.1.66,1.91.45,3.13-.79-1.06-2.63-6.06-2.23-7.15.62,1.28,1.37,2.66,1.79,4.02Z"/>
  <path class="cls-1" d="M241.33,101.04c.31,1.18,1.07,2.83,1.57,4.02l.67-.89c.21.76.62,1.81.89,2.68.49,2.04-.4,2.39-1.34.45-.51-2.04-2.06-4.04-1.79-6.25Z"/>
  <path class="cls-1" d="M919.44,140.79c-1.01,1.76-2.26,2.73-3.13,4.02-.57-.36-.87-.95-.89-1.79.43-.61.91-1.19,1.34-1.79l.22,1.78c1.09-.58,1.26-2.41,2.46-2.23Z"/>
  <path class="cls-1" d="M678.21,114.88c1.18.08,1.81,1.71,2.68,2.68-1.15,2.3-1.53-.7-3.36-.89-.67-1.03,1.04.11,1.12,0,.17-.23-.3-1.38-.44-1.79-.2-.01-.56.68-1.13.02s-.24-1.54-.47-1.83c-.26-.33-.91-.33-1.05-.48-.15-.17.41-.67.41-.84,1.21,1.19,1.61,1.35,2.23,3.13Z"/>
  <path class="cls-1" d="M881.47,100.14c-.23.45-.68.88-.89,1.34.09-1.49-.23-.82-.89-.22-2.65,2.37-4.02,5.57-7.15,6.92v-.45c2.22-2.41,4.67-5.01,7.15-7.15.85-1.3,2.13-2.76,1.79-.45Z"/>
  <path class="cls-1" d="M245.35,113.99c.49.54.77,1.12.45,1.79.18.74.4,1.47.45,2.23-1.85-3.23-1.77-4.78-2.68-8.04,1.1,1.27.79,2.39,1.79,4.02Z"/>
  <path class="cls-1" d="M944.01,46.09c-1.71,1.01-3.17,2.37-5.36,2.68.41-.39-.19-.42,1.34-1.34-.11-.66.78-1.25,1.34-.89.25-.82,1.62-1.5,2.23-.89l.45.45Z"/>
  <path class="cls-1" d="M960.54,38.94c.23,1.09-1.24,1.25-2.23,1.34-.47.2-.87.29-1.34.45-.94.73-1.68.88-2.23.45-1.58-.56,1.02-1.99,2.23-1.34,1.62-.66,1.1-.91,3.57-.89Z"/>
  <path class="cls-1" d="M328.88,81.83c.25.31.7.46,1.34.45v.45c-1.26,1.13-1.82,1.12-2.68,1.79-.95.11-1,.06-.89-.89.74-.62,1.7-1.32,2.23-1.79Z"/>
  <path class="cls-1" d="M283.76,124.71c.26-1.98,1.86-3.29,1.34-.45-.29.68-.14,1.52-.87,2.35-1.13,1.29-2.24.17-1.79-.54.03-.04.63.03.88-.35.22-.33.27-.77.44-1.02Z"/>
  <path class="cls-1" d="M657.66,67.98c.08.39-.11,1.05,0,1.34-1.18-.9-3.33.23-4.02-1.33,1.64-.9,2.74-.13,4.02,0Z"/>
  <path class="cls-1" d="M519.63,34.03c-1.28-2.56-3.15-5.6-4.47-8.04l.45-.89c1.4,2.94,3.22,5.76,4.02,8.93Z"/>
  <path class="cls-1" d="M505.78,99.25c-.12-1.05-1.35-.67-1.79-.89,0-.38,1.11-.58.9-1.34.28-.24,1.18,1.28,1.26,1.67.1.44-.36.49-.38.56Z"/>
  <path class="cls-1" d="M503.99,98.36c0,.55,1.29.96,1.79.89-.06.26-.44.59-.43.67.08.67,1.37.25,1.57.66.25.53-.65,1.48,1.1,2.25v.45c-1.76-1.79-3.59-3.57-5.36-5.36,1.06-.97.88.22,1.34.45Z"/>
  <path class="cls-1" d="M114.91,132.31c-1.04,1.03-2.13,2.06-3.13,3.13l-.45-.45c-.21-.14-.2-.29,0-.45,1.17-1.2,2.19-1.8,3.13-2.68.63-.59.86-.34.45.45Z"/>
  <path class="cls-1" d="M286.44,118.91c0,1.28-1.02,1.17-1.34,0l.67-4.01c.97.04.63,3.25.67,4.01Z"/>
  <path class="cls-1" d="M751.92,228.8c-.87.19-2.14-.05-3.13.45l.45.88h-2.68c.7-.7,3.14-2.3,4.02-2.68l1.34,1.34Z"/>
  <path class="cls-1" d="M951.15,42.52c.58.1.43.39-.45.89-2.18.82-4.05,2.1-6.25,2.23,2.37-1.36,4.08-2.16,6.7-3.13Z"/>
  <path class="cls-1" d="M956.96,40.73c-1.51,1.74-4.32,1.95-6.25,2.68l.45-.89c1.17-.43,2.42-1.25,2.68-1.34.11-.76.83-.84.89,0,.59-.2,1.49-.2,2.23-.45Z"/>
  <path class="cls-1" d="M301.19,91.21c.3.72,1.78,2.83,1.77,3.36-.02,1.17-2.6.5-2.22-2.46.02-.14.49-.56.45-.89Z"/>
  <path class="cls-1" d="M498.19,90.76l.45-1.34c.77-.19.27.69.48.86.29.25,1.14-.58,1.3-.42.66.68-1.78,2.22-.89,3.12-.86.12-.12-.94-.7-1.4-1.05-.82-1.9.6-1.07-2.17l.45,1.34Z"/>
  <path class="cls-1" d="M155.56,97.02l.89.45c-.91.65-1.95,1.24-2.68,1.79l-.89-.45c.98-.7,1.83-1.2,2.68-1.79Z"/>
  <path class="cls-1" d="M210.5,126.05c.59-.4.84-.9,1.66-.57.92.37.39,2.28,1.47,1.46.28-.21-1.5-1.82.89-1.33l-.89,1.78c2.53.13,4.25,1.82,6.25,3.13-3.24-.83-6.3-3.05-9.38-4.47Z"/>
  <path class="cls-1" d="M98.38,65.3c-1.33.81-2.83,2.09-4.02,3.13h-.45c-.14-1.97,1.47-1.08,2.25-2.84l2.22-.29Z"/>
  <path class="cls-1" d="M54.6,131.86c1.19-2.96,1.57-3.89,3.13-6.7-.93,2.26-1.7,4.68-3.13,6.7Z"/>
  <path class="cls-1" d="M916.31,144.81c-.79,1.18-1.44,2.82-2.23,4.02-.28-1.16.95-2.71-.45-3.13.28-.39.55-.85.89-1.34l1.79.45Z"/>
  <path class="cls-1" d="M788.1,66.64c.16-.94.29-3.02.56-3.79.06-.18.88-.83,1.23-2.01.13-.39.28-.38.45,0-.74,1.83-1.45,3.89-2.23,5.81Z"/>
  <path class="cls-1" d="M733.6,103.72c-.03-.07-.71-.37-1.01-1.02-.61-1.33-.55-5.49-2.11-5.69-.19-.79.65-.28.89-.44.51-.35-.72-.47-.76-.52-.1-.12.13-.96-.08-1.49-.99-2.43-1.28-2.07-1.39-4.25,2.5,4.05,3.06,8.93,4.47,13.4Z"/>
  <path class="cls-1" d="M687.15,118.46c1.66,1.66,1.96,3.45,3.13,5.81-1.62-1.19-2.53-3.92-3.13-5.81Z"/>
  <path class="cls-1" d="M169.85,87.64c-.57.91-.75.97.45.89-.74.43-1.49.9-2.23,1.34-.47.23-1.27-.45-1.34-.45-.27-.77.17-1.54.89-.89.57-.34,1.66-.56,2.23-.89Z"/>
  <path class="cls-1" d="M239.99,93.44h1.34c.11.68-.11,1.56,0,2.23-1.17.23-.64,2.51-.45,3.57-1.11-1.65-.93-3.91-.89-5.81Z"/>
  <path class="cls-1" d="M184.59,30.46c-.63-.34-.21-.9.45-.89.94-1.01,2.02-1.85,3.13-2.68-.09.14.1.83-.23,1.32s-1.18.65-1.6,1.13c-.5.59.41,2.11-1.75,1.13Z"/>
  <path class="cls-1" d="M790.34,60.83h-.45c.73-2.46.51-1.48,1.49-3.25,1.72-3.13,2.31-7.52,4.77-10.16-1.93,4.1-4.11,9.19-5.81,13.4Z"/>
  <path class="cls-1" d="M632.2,130.52c-1.03-.41-1.39,1.75-1.78,1.34-.44-.46-1.23-2.34-1.35-3.12,1.06.62,2.07,1.11,3.13,1.79Z"/>
  <path class="cls-1" d="M61.75,185.91c-2.05,1.71-1.8,1.98-4.47,2.68,1.35-1.1,2.58-2.45,4.47-2.68Z"/>
  <path class="cls-1" d="M798.38,118.91c1.95.23,1.16.34,1.63.45,1.56.34,3.35-.57,4.62,1.34-2.12-.66-4.14-1.01-6.25-1.34v-.45Z"/>
  <path class="cls-1" d="M382.04,169.83h-.45c.25-.69.28-1.28.45-1.79.56-1.64,1.2-3.29,1.79-4.91.33,2.14-1.27,4.81-1.79,6.7Z"/>
  <path class="cls-1" d="M118.48,237.73c0,.3.01.6,0,.89-.9.8-1.06-.42-.89-1.34,0-.15,0-.3,0-.45,1.62-1.67-.46-2.33-.47-2.48-.04-.72.65-1.4.92-1.98.62,1.74.46,3.56.45,5.36Z"/>
  <path class="cls-1" d="M112.23,46.54c1.28,1.64-1.24.58-1.79.9-.04.02.37.67.22.89-.54.8-3.07-.51-3.79,1.12l.89.66h-3.57c2.88-1.52,5.12-2.33,8.04-3.57Z"/>
  <path class="cls-1" d="M322.63,86.74c.72-.22,1.46-.48,2.23-.44l-1.34,1.78c-.12.05-.3-.04-.45,0-.55.47-1.12.78-1.79.45-.09-.41.25-.97.45-1.34.27-.15.63-.36.89-.45Z"/>
  <path class="cls-1" d="M971.7,34.48c.29-.01.6,0,.89,0,.22.23-1,2.17-1.34,2.68-.82.82-1.06.69-.89-.45-1.23-1.77.36-1.11,1.34-2.23Z"/>
  <path class="cls-1" d="M283.76,124.71c-.38-1.49,1.43-3.82,2.68-3.35-.63.87-.93,1.93-1.34,2.91-.32-2.38-.77-.41-1.34.45Z"/>
  <path class="cls-1" d="M60.85,119.35c-1.06,1.92-2.06,3.88-3.13,5.81.64-1.56.96-2.92,1.87-4.63.33-.63.18-1.41,1.26-1.18Z"/>
  <path class="cls-1" d="M915.42,143.03c1.05-.45,1.19,1.03.89,1.79s-1.99,1.23-1.79-.45c.28-.39.54-.84.89-1.34Z"/>
  <path class="cls-1" d="M69.34,101.93c-2.38,1.31-5.59,1.15-8.04.45,2.69.12,5.38-.08,8.04-.45Z"/>
  <path class="cls-1" d="M903.36,160.9c-.46.72-1.69,1.95-2.23,2.68-.12-.9.35-1.43.78-2.12,1.06-1.71,1.26-1.72,2.35-2.8-.13.8-.47,1.56-.89,2.23Z"/>
  <path class="cls-1" d="M286,107.29c.21,1.7,2.33,6.9-.89,6.7.29-1.01.1-1.72,0-2.68.4-.66.55-1.56.45-2.68-.04-.42.23-.96.45-1.34Z"/>
  <path class="cls-1" d="M851.98,244.88h-.45c-.19-1.12-1.7-4.7-2.23-6.25,1.36,1.8,1.91,4.2,2.68,6.25Z"/>
  <path class="cls-1" d="M297.61,84.51c.32.34.59.93.89,1.34-.03,1-.8.51-1.34,0-.34-.55-.93-1.13-1.34-1.79-.42-2.79,1.18-1.4,1.79.45Z"/>
  <path class="cls-1" d="M297.61,84.51c-.81-.85-1.78-2.47-1.79-.45-.44-.7-.67-1.45-.89-1.79l.89.45v-1.79c.73,1.09,1.85,2.16,1.79,3.57Z"/>
  <path class="cls-1" d="M897.55,244.88c-1.4-1.22-3.46-2.63-4.02-4.47,1.53,1.71,2.53,2.55,4.02,4.47Z"/>
  <path class="cls-1" d="M218.99,133.2l9.38,5.81c-1.36.95-3.54-1.6-3.8-1.69-.51-.17-1.93.41-2.01.35-.25-.21-.04-1.65-.1-1.71-.63-.68-2.99-.91-3.37-1.13-.16-.09-1.04-1.37-1.45-1.63.44.02.9-.03,1.34,0Z"/>
  <path class="cls-1" d="M759.51,227.9c-1.43,0-3.09-.14-4.47,0-.05-.28.08-.67,0-.89.4-.42,1.14-.57,2.23-.45.65.25,1.58.96,2.23,1.34Z"/>
  <path class="cls-1" d="M124.29,121.59c.39.13.38.28,0,.45-1.85,1.85-3.93,3.57-5.81,5.36.43-.56,1.63-3.46,1.79-3.58.09-.07,1.14.63,1.33.45-.76-2,.35-1.59,1.43-2.28,1.51-.96.34-.16,1.25-.4Z"/>
  <path class="cls-1" d="M281.53,92.55c.63.02,1.2.75.89,1.34.42,1.19-1.12.74-1.34,1.34-.37-.77-.55-1.65-.89-2.23l1.34-.45Z"/>
  <path class="cls-1" d="M104.19,47.88c-1.44.65-3.33,1.24-4.47,1.79v-1.34s4.47-.45,4.47-.45Z"/>
  <path class="cls-1" d="M103.29,50.56c-1.64.9-2.48,2.49-4.91,2.23,1.5-.73,3.03-2.3,4.91-2.23Z"/>
  <path class="cls-1" d="M635.77,133.2l-1.12-.45c-.63-.22-1.08.87-1.34.89-1.27.1.56-1.93-.22-2.23.98.65,1.62,1.02,2.68,1.79Z"/>
  <path class="cls-1" d="M872.53,108.18c.43,1.55-.75,1.31-1.37,1.98-.91.99-1.04.99-1.76,1.6.64-1.67,1.97-2.76,3.13-4.02v.45Z"/>
  <path class="cls-1" d="M269.47,135.43c1.28.14,2.72-.11,4.02,0v.44c-.79-.27-1.33.32-1.78.45-1.51.42-2.04.42-3.57.45v-.45c.89,0,1.79,0,2.68,0,.17-.74-.85-.27-1.34-.89Z"/>
  <path class="cls-1" d="M306.1,93c-1.28-2.09-1.45-3.33-2.23-5.36,1.11,1.51,2.32,3.44,2.23,5.36Z"/>
  <path class="cls-1" d="M923.91,59.94c-.91.94-1.86,1.44-2.68,2.23-.65-.02-1.22.12-1.79.45.01-.3-.02-.6,0-.89.01-.16-.04-.36,0-.45,1.72,1.29,2.12-.56,3.16-1.1.49-.26,1.14-.14,1.31-.24Z"/>
  <path class="cls-1" d="M906.93,155.54c-.85,1.17-1.15,1.63-2.23,2.68-.16-.62,1.02-1.58.89-1.78-.06-.08-1.01.14-.89-1.34l2.23.44Z"/>
  <path class="cls-1" d="M281.08,90.76c.81.91.97,1.34,1.6,2.22.69.97,1.31-.16.63,2.69-.27-.6-.61-1.19-.89-1.79-.21-.45-.7-.89-.89-1.34-.23-.52-.26-1.23-.45-1.79Z"/>
  <path class="cls-1" d="M377.13,58.6c-1.24-2.02-.11-4.61.45-6.7-.24,2.23-.31,4.46-.45,6.7Z"/>
  <path class="cls-1" d="M396.78,136.33c-1.32,2.37-2.72,4.79-4.02,7.15.47-2.48,2.49-5.13,4.02-7.15Z"/>
  <path class="cls-1" d="M315.03,94.34c.06,1.61-2.26,1.92-2.68,2.91-.1.24,1.74,2.65,1.9,3.03.26.63.21,1.38.33,1.66-.25-.32-.68-.58-.89-.89-.86-1.25-1.77-2.93-1.79-4.47,1.04-.6,1.83-1.41,2.68-2.23.13-.24.28-.24.45,0Z"/>
  <path class="cls-1" d="M604.95,34.03c.06.74.1,1.93-.67,2.23-1.99.78-1.07-2.43.67-2.23Z"/>
  <path class="cls-1" d="M891.29,178.77c-.45.45-.89.89-1.34,1.34-.79-.2-1.42-.38-1.34-1.34.5-.53.83-.82,1.34-1.34-.03.9.46,1.38,1.34,1.34Z"/>
  <path class="cls-1" d="M127.86,120.25c-.8.72-1.76,1.36-2.23,1.79-.69.26-1.15-.43-.45-.89.22-.14,1.56-1.15,1.79-1.34l.89.45Z"/>
  <path class="cls-1" d="M143.5,106.84c-.08.81-1.43,1.54-2.23,1.79l-.89-.45c.75-.61,1.47-1.19,2.23-1.79.13.46.52.39.89.45Z"/>
  <path class="cls-1" d="M881.91,105.95c.33-1.33-.87-2.64,1.34-2.23v2.68c-.44-.14-.85-.43-1.34-.45Z"/>
  <path class="cls-1" d="M520.97,24.2c.36.38.86,1.61,1.34,2.23v.45c-1.8-.76-1.97-2.29-2.68-3.57.33.33,1.03.56,1.34.89Z"/>
  <path class="cls-1" d="M69.79,101.93c.24-.03,1.34-1.02,1.78-.23-1.68,2-2.26,4.96-4.46,6.48.72-1.34,1.42-2.26,2.11-3.47.24-.42,1.35-2.42.57-2.79Z"/>
  <path class="cls-1" d="M285.55,108.63c.06.55,1.16,3.24.89,3.57l-1.34-.89c-.08-.71.11-1.57,0-2.23l.45-.45Z"/>
  <path class="cls-1" d="M121.16,249.35c.24.58.24,1.03,0,1.34-.48-.67-.31-1.62-1.34-1.34-.03-.34-1.19-1.21.45-1.79.27.61.63,1.18.89,1.79Z"/>
  <path class="cls-1" d="M396.34,93.89l-.45.45c-1-.77-1.55-1.66-2.23-2.23l.45-.45c.69.64,1.74,1.85,2.23,2.23Z"/>
  <path class="cls-1" d="M341.84,65.3c-.23,1.58.64.57,1.78.44.57.87.02,1.52,0,1.79-.3-.6-.95-.33-1.34-.45-.22-.07-.53-.46-.89-.45.08-.12.04-.73.45-1.34Z"/>
  <path class="cls-1" d="M110.44,60.84l-.45,2.68c-1.91-.35-1.69-2.85.45-2.68Z"/>
  <path class="cls-1" d="M724.92,61.54c-.07.12-.87,1.12-1.14,1.07-.08-.98-.2-1.47.88-1.34l-.89-.66c1.33-1.69,2.3-1.08,1.14.93Z"/>
  <path class="cls-1" d="M931.05,124.27c-.94,1.32-1.74,2.69-2.68,4.02.07-.99.75-2.65,1.33-3.38.47-.59,1.31-.58,1.35-.64Z"/>
  <path class="cls-1" d="M943.56,104.16l2.68-4.02c-1.12,2.12-1.34,2.26-2.68,4.02Z"/>
  <path class="cls-1" d="M544.64,93.44c-.94-1.44-1.45-2.36-2.25-3.79-.89-1.59-2.19-1.26-1.32-3.36,1.14,2.27,3.03,4.59,3.57,7.15Z"/>
  <path class="cls-1" d="M888.61,178.77c.76.32,1.58.33,1.34,1.34-.15.15-.29.3-.45.45-1.16.1-2.21-.33-1.34-1.34.03-.01.35-.35.45-.45Z"/>
  <path class="cls-1" d="M962.32,38.94c-1.35.79-1.89,1.86-4.02,1.34.68-.28,1.7-.81,2.23-1.34.6,0,1.19,0,1.79,0Z"/>
  <path class="cls-1" d="M944.01,44.75c-.14.25-.31.77-.45.89-.6.54-1.7.59-2.23.89-.76.13-.76-.16,0-.89.46-.26.87-.64,1.34-.89.65-.3,1.09-.3,1.34,0Z"/>
  <path class="cls-1" d="M118.93,128.73c-.96.93-1.98,1.53-2.68,2.23-.63.59-.86.34-.45-.45.44-.42.89-.9,1.34-1.34l1.79-.45Z"/>
  <path class="cls-1" d="M286.44,118.91c.01.23.95,1.7.22,1.79-1.61.2-1.36-.69-1.56-1.79h1.34Z"/>
  <path class="cls-1" d="M165.38,89.42v-1.34c.79-.23.22,1.07.67.89.68-.27-.08-2.92,1.57-.45-.32.19-.61.62-.89.89-.07,0-1.13.36-1.34.45-.39-.13-.38-.28,0-.45Z"/>
  <path class="cls-1" d="M65.77,80.04c-.13.33-.28.33-.45,0,1.37-3.15,1.38-3.51,3.57-6.25-.98,2.11-2.22,4.1-3.13,6.25Z"/>
  <path class="cls-1" d="M971.26,37.16c-.61.92.25.6-1.34,1.34-.9.49-.85-.12-.45-.89.07-.09-.07-.37,0-.45.08-.08.79-.44.89-.45.2,0,.63.36.89.45Z"/>
  <path class="cls-1" d="M388.3,85.4l2.9,1.34-.67.89c-.69-.74-1.45-1.34-2.23-2.23Z"/>
  <path class="cls-1" d="M758.62,225.22c-.29,0-2.68.62-3.13.89-.22.64-.46.46-.89,0-.22-.23-.57-.42-.89-.45v-.45c1.62-.1,3.29.07,4.91,0Z"/>
  <path class="cls-1" d="M1024.86,124.71c.01-.29-.51-.77-.23-1.78.44-1.54,1.54-4.57,2.91-5.37-1.24,2.41-1.78,4.64-2.68,7.15Z"/>
  <path class="cls-1" d="M688.04,71.55c.3.13.29.28,0,.45-1,.54-2.13,1.21-3.13,1.79.54-1.39,2.02-1.52,3.13-2.23Z"/>
  <path class="cls-1" d="M885.04,90.32l-1.78,2.67c.33-1.18.43-1.94,0-3.12l1.78.45Z"/>
  <path class="cls-1" d="M1006.99,239.52c-1.29,2.3-1.05,1.48-2.68,3.13l2.68-3.13Z"/>
  <path class="cls-1" d="M318.61,91.66c-.6,2.02-1.26,1.73-2.68,2.23-.3-.49.37-1.09.89-1.34-.54-.49-.25-1,.45-.89.44-.02.9.03,1.34,0Z"/>
  <path class="cls-1" d="M251.15,150.18l-3.01-.77-4.14-2.8c2.39,1.23,4.77,2.26,7.15,3.57Z"/>
  <path class="cls-1" d="M692.06,69.77c-1.16.6-2.73,1.53-4.02,2.23v-.45c.2-.13.41-.93.89-1.15.79-.36,1.25.2,1.58.18.17-.01.42-1.34,1.55-.82Z"/>
  <path class="cls-1" d="M288.23,73.79c.88.88,2.09.75,2.23,2.68.24.13.24.28,0,.45-.93-.9-1.91-1.8-2.23-3.13Z"/>
  <path class="cls-1" d="M339.16,72.45c-.05.1-1.37.28-1.57,1.34l-.22-.89c.12-.17.21-.56.45-.89l1.34-.89c-.06.38.11,1.15,0,1.34Z"/>
  <path class="cls-1" d="M457.09,8.12c-.84-.63-1.29-1.4-1.79-1.79,2.14-1.8,1.33.1,1.79,1.79Z"/>
  <path class="cls-1" d="M690.72,125.16c.16.3,1.1.51,1.17,1.57.08,1.21-1.07,1.02-1.17,1.12-.07.06.09.65-.08.75-1.28.78-1.19-.68-1.26-.75.33-.06,1.27.09,1.34,0,.15-.18-.11-2.13,0-2.68Z"/>
  <path class="cls-1" d="M436.99,12.59c1.06-.02,1.55-.3,1.34.89-.4.24-.87.44-1.34.45-.08,0-.86-.68-1.34-.45.39-.23.94-.62,1.34-.89Z"/>
  <path class="cls-1" d="M87.21,98.36c.3.82-2.32,2.79-2.68,1.56l2.68-1.56Z"/>
  <path class="cls-1" d="M922.12,137.22c-.41.48-.78,1.01-1.34,1.34.1-.23-.17-.97.02-1.46.04-.1,1.19-1.58,1.32-1.67.62-.02.62.57,0,1.79Z"/>
  <path class="cls-1" d="M767.11,116.67v.45l-4.02.89c1.78-1.46,1.72-1.28,4.02-1.34Z"/>
  <path class="cls-1" d="M948.47,98.8c-.56,1-.5,3.13-2.23,3.13.27-.52,1.62-3.05,1.79-3.13.09-.05.29.02.45,0Z"/>
  <path class="cls-1" d="M778.28,116.67c.76.1,1.94-.36,1.78.44-1.75-.36-1.2.73-1.34.9s-.66.27-.89.45c.24-1.53-.96-.37.45-1.79Z"/>
  <path class="cls-1" d="M184.15,30.9c-.68.73-1.08,1.51-2.23,1.79-.42-.46,1.42-2.2,1.78-2.68.82-.52.85.19.45.89Z"/>
  <path class="cls-1" d="M144.39,106.84c-1.43,1.39-1.76,1.31-3.13,2.23v-.45l2.23-1.79c.28.04.6-.03.89,0Z"/>
  <path class="cls-1" d="M120.27,254.71c1.85.29,1.45,2.04,1.79,3.57-.61-1.17-1.47-2.23-1.79-3.57Z"/>
  <path class="cls-1" d="M925.25,129.18c.47-.1,1.56.56,1.34.88-.86.03-1.31.76-1.79,1.35l-.45-.89c.3-.42.57-.89.89-1.34Z"/>
  <path class="cls-1" d="M387.85,87.19c-.06-.05-.5.11-.77-.11-.48-.39-.62-1.81-1.91-1.69l.45-.88c.68.77,2.24,1.28,2.23,2.68Z"/>
  <path class="cls-1" d="M244.9,108.63l-1.34.45c-.16-.61-.29-1.18-.45-1.79l1.34.89v-1.34c.22.71.3,1.31.45,1.79Z"/>
  <path class="cls-1" d="M733.16,92.55c.89,1.7,1.16,2.31,1.34,3.57-1.22-.62-1.32-2.34-1.34-3.57Z"/>
  <path class="cls-1" d="M426.71,128.29c.59-.23,1.04-.62,1.78-.44.15.92-.58,1.55-.89,2.23v-1.34c-1.22.2-1.76.79-3.13.89.52-.51,1.58-1.08,2.23-1.34Z"/>
  <path class="cls-1" d="M468.7,22.42c.08-.18-.14-.68,0-1.03s.91-.32.91-.56c.01-.68-.98-1.59-.92-2.44,2.35,1.53,2.09,2.2,0,4.02Z"/>
  <path class="cls-1" d="M279.74,131.86c0,1.64-.99,1.29-2.23.89.27-1.01,1.4-.94,2.23-.89Z"/>
  <path class="cls-1" d="M415.54,151.52c-.81,1.25-1.74,4.38-3.13,4.47.65-1.04,1.26-2.59,1.94-3.59.39-.57.36-.68,1.19-.88Z"/>
  <path class="cls-1" d="M774.7,119.35c-.01-.3.02-.6,0-.89-.49-.74-.64-1.19-.45-1.34-.84-.33-.69-.63.45-.89.24-.03.61-.36.89-.45-.31,1.19-.57,2.38-.89,3.57Z"/>
  <path class="cls-1" d="M563.41,165.81l.45-.89h.43c.04.8.56,1.31,1.35,1.35v.43s-.89.45-.89.45c-.33-.38-.88-.82-1.34-1.34Z"/>
  <path class="cls-1" d="M385.17,170.28c-.86.3-1.62,1.18-2.89.9-.4.02-.26-.6-.24-.9h3.13Z"/>
  <path class="cls-1" d="M941.33,46.54c-.24.13-.84.59-1.34.89l-.89-.45c.75-.43,1.48-.92,2.23-1.34v.89Z"/>
  <path class="cls-1" d="M923.46,134.99c-.51.77-.37,1.09-1.34,2.23v-1.79c.26-.18.62-.28.89-.45h.45Z"/>
  <path class="cls-1" d="M931.05,51.9c-.19.99-2.59,1.66-2.68,1.79,1.59-1.46,1.36-.98,2.68-1.79Z"/>
  <path class="cls-1" d="M377.57,62.62c-1.38-.44-.48-2.36-.45-3.13.61.97.44,2.06.45,3.13Z"/>
  <path class="cls-1" d="M87.66,76.02c-.13.26-.28.25-.45,0,.61-1.28,1.35-1.77,2.23-2.68,0,1.29-1.29,1.95-1.79,2.68Z"/>
  <path class="cls-1" d="M524.99,29.56c-.12.13.24.92-.22.89-.71-.72-1.5-1.34-2.01-2.23-.17-.55-.1-.7.45-.45.48.64,1.04,1.44,1.79,1.79Z"/>
  <path class="cls-1" d="M298.51,85.85c.43.59.49.63.89,1.34l-1.08-.41-.26.41c-.16-.28-.6-.85-.89-1.34h1.34Z"/>
  <path class="cls-1" d="M122.05,72.89c.92-.26,1.95-1.08,3.12-.89-.16.82-1.59,1.05-2.23,1.34-.73.15-1.03,0-.89-.45Z"/>
  <path class="cls-1" d="M486.57,242.65c-1.11.44-1.57.37-2.1.57-.16.06-1.4,1.78-2.81.77,1.51-.5,3.02-1.74,4.91-1.34Z"/>
  <path class="cls-1" d="M885.93,106.4c-2.26-1.21-1.7-2.09-1.34-4.02l.34.32c-.36,1.41.41,2.47,1,3.7Z"/>
  <path class="cls-1" d="M239.99,82.72c-.43-.64-.82-2.8-.79-3.46.01-.44.34-.52.35-.56.69,1.23.44,2.68.45,4.02Z"/>
  <path class="cls-1" d="M351.22,80.04c1.24-.27,1.44,1.69,1.79,2.68-1.06-1.23-1.05-1.48-1.79-2.68Z"/>
  <path class="cls-1" d="M547.77,93.89c1.92.31.82,1.13,1.32,1.91.43.67,1.95,1.43,1.81,3-1.12-1.75-2.04-3.07-3.13-4.91Z"/>
  <path class="cls-1" d="M479.42,244.88l-.9,1.34c-.79.19-.29-.75-.45-.89-.14-.12-2.68,1.78-3.57.89,1.7-.56,3.44-.86,4.91-1.34Z"/>
  <path class="cls-1" d="M769.34,148.84h-.45c.29-.87.49-2.29.89-3.57-.14,1.11-.22,2.51-.45,3.57Z"/>
  <path class="cls-1" d="M116.25,130.97c-.45.45-.89.89-1.34,1.34l-.45-.45c.41-.39.86-.88,1.34-1.34l.45.45Z"/>
  <path class="cls-1" d="M772.47,116.23c.43.18.73.48.89.89.71.13.56.43-.45.89-.59.02-1.19,0-1.78,0-.18-.61.56-.4.89-.89.09-.13-.06-.64,0-.89.15-.01.3,0,.45,0Z"/>
  <path class="cls-1" d="M774.7,116.23l-.45.89c-.17.44-.75.56-.89,0-.69-.18-1.06.45-.89-.89.73-.04,1.52.08,2.23,0Z"/>
  <path class="cls-1" d="M365.51,183.23c-.37-1.47.79-1.54,1.79-2.23-.77,1.08-.5,1.1-1.79,2.23Z"/>
  <path class="cls-1" d="M887.27,182.79c-.62.52-1.39,1.62-2.23,1.79.02-.78.6-1.58,1.34-1.79.24-.07.61.05.89,0Z"/>
  <path class="cls-1" d="M94.36,68.43c-1.1.96-2.91,2.88-4.02,4.02.45-1.75,2.46-2.64,3.57-4.02h.45Z"/>
  <path class="cls-1" d="M465.58,16.16c.46.29,1.75-.18,2.23,1.79-.73-.46-1.83-.5-2.23-1.79Z"/>
  <path class="cls-1" d="M300.29,100.59h1.34c-.98.41-1.79,1.17-3.13.89.81-.53,1.26-.59,1.79-.89Z"/>
  <path class="cls-1" d="M565.64,168.49c1.61-.06,1.54,1.76,1.79,2.23-1.13-.37-1.25-1.52-1.79-2.23Z"/>
  <path class="cls-1" d="M381.59,119.8c-1-.51-1.58-1.38-2.23-2.23,1.67-.01,1.71,1.52,2.23,2.23Z"/>
  <path class="cls-1" d="M318.61,89.42c.22.6-.23,1.34-1.34,2.23-.07.61-.39.72-.45.89-.13.39-.28.38-.45,0-.36.02-.69-.39-.89-.45.2-.43.5-.88.89-1.34.76-.49.57-1.17,2.23-1.34Z"/>
  <path class="cls-1" d="M542.86,92.1c-1.47.04-1.99-1.4-1.78-2.67.73-.16.34.62.57.98.39.61.83,1.1,1.21,1.7Z"/>
  <path class="cls-1" d="M909.16,155.98c-.46.72-.6,1.85-1.34,2.68.04-1.03-.05-2.96,1.34-2.68Z"/>
  <path class="cls-1" d="M305.65,72.89c.29.11.94-.09,1.34,0v.89c-1.18.28-1.79-.13-2.68-.44.12-.63.81-.59,1.34-.45Z"/>
  <path class="cls-1" d="M172.98,93.44c.06-1.11.23-2.16,1.34-2.68-.4.77-.36,2.07-1.34,2.68Z"/>
  <path class="cls-1" d="M305.21,72.45c.13.1.2.35.45.45-.02.52-1.04.57-1.34.45-.07-.03-.96-1.29-.89-1.34l1.79.44Z"/>
  <path class="cls-1" d="M810.44,127.39c-1.21.1-1.97-1.16-1.78-2.23.76.31,1.16,1.61,1.78,2.23Z"/>
  <path class="cls-1" d="M301.63,71.55l-.45.89c-.05-.15-.61-.35-.89-1.79.91-.14.99.58,1.34.89Z"/>
  <path class="cls-1" d="M282.87,128.73c-.77.02-1.43.78-1.78-.23-.4-1.12,1.56-.88,1.78.23Z"/>
  <path class="cls-1" d="M64.87,82.72h-.45c.3-.7.46-1.7.89-2.68h.45c-.35.84-.61,1.81-.89,2.68Z"/>
  <path class="cls-1" d="M885.49,98.36c-.11.57-.35,1.28-.45,1.79-.23-.79-.68-.76-1.34-.89l1.79-.89Z"/>
  <path class="cls-1" d="M121.16,249.35c.93,2.14,1.12,3.03,1.79,4.91-.81-.7-1.55-2.53-1.79-3.57-.09-.38.06-.92,0-1.34Z"/>
  <path class="cls-1" d="M423.59,129.63c-1.32-.25-2.43-1.19-1.34-2.23l1.34,2.23Z"/>
  <rect class="cls-1" x="966.79" y="107.74" width="1.78" height=".89"/>
  <path class="cls-1" d="M316.82,92.55c-.2.57-.04.99-.89,1.34-.32.12-.66.15-.89.45h-.45c.1-.1.58-1.51,1.79-1.79h.45Z"/>
  <path class="cls-1" d="M59.06,306.53c-.39,1.01-2.69.19-3.57.44.39-1.01,2.69-.19,3.57-.44Z"/>
  <path class="cls-1" d="M125.63,122.03c-.15.14-.29.3-.45.45l-.89-.45v-.45c.27-.07.64-.29.89-.45l.45.89Z"/>
  <path class="cls-1" d="M250.71,146.15c-.82-.4-2.05-.37-2.68-1.34.91.3,2.18,0,2.68,1.34Z"/>
  <path class="cls-1" d="M928.37,53.69c-.14.2.08.66-.89,1.79-.21.09-.65-.08-.89,0,.33-.91,1.19-1.24,1.79-1.79Z"/>
  <path class="cls-1" d="M925.69,58.6c-.72.54-.62.69-1.79,1.34.54-.55,1.4-1.33,1.79-1.79v.45Z"/>
  <path class="cls-1" d="M679.11,103.72c.88,1.34,1.29,2.39,2.03,3.57.24.38.94.38,1.05.51.16.2-.41.7-.4.83-1.26-1.14-2.41-3.3-2.68-4.91Z"/>
  <path class="cls-1" d="M795.69,246.67c.07.06.49,1.45.45,1.78-1.58-.36-1.6-2.71-.45-1.78Z"/>
  <path class="cls-1" d="M847.96,235.94c-.64-.96-1.47-2.71-2.23-1.78v-1.79c.74,1.04,2.45,1.98,2.23,3.57Z"/>
  <path class="cls-1" d="M942.22,108.63c-1.65.1-.65-.33-.45-.89.3-.14.59-.32.89-.45.18.68-.2.91-.45,1.34Z"/>
  <path class="cls-1" d="M93.46,90.31c-.45.45-1.79-.87-1.34-1.34s1.79.87,1.34,1.34Z"/>
  <path class="cls-1" d="M991.81,254.26c-.71.56-.96.78-1.79,1.34.35-1.1.49-1.61,1.79-1.34Z"/>
  <path class="cls-1" d="M185.04,29.56c-.19.2-.26.69-.45.89-.14.15-.3.29-.45.45l-.45-.89c.32-.42.74-.69.89-.89l.45.45Z"/>
  <path class="cls-1" d="M162.7,91.66c-.43.28-.91.6-1.34.89l.45-2.23c.74-.17.27.85.89,1.34Z"/>
  <path class="cls-1" d="M122.05,72.89l.89.45c-.61.27-.81.28-1.34.45l-.45-.45c.11-.03.43-.31.89-.45Z"/>
  <path class="cls-1" d="M939.99,109.52l.43.25c.39.58-.66,1.79-.87,1.54v-1.34c.12-.17.33-.29.44-.45Z"/>
  <path class="cls-1" d="M774.26,117.12c.39.19.42.93.45,1.34-.68-1.51-.82-.44-1.34-.45-.15,0-.3,0-.45,0l.45-.89c.27.07.71-.09.89,0Z"/>
  <path class="cls-1" d="M770.24,143.92c-.05-.97,0-2.1.89-2.68-.28.92-.62,1.8-.89,2.68Z"/>
  <path class="cls-1" d="M337.37,75.57v.45c-.47.46-1.34.88-1.79,1.34.09-.4.17-1.06.45-1.34s.94-.36,1.34-.45Z"/>
  <path class="cls-1" d="M880.57,101.93c-.49,1.15-.59,3.39-1.79,4.02.38-.99.71-2.09,1.07-3.1.23-.64-.75-1.09.72-.92Z"/>
  <path class="cls-1" d="M357.92,97.91c-.26.26-1.33-.37-1.33-.67,0-1.24,2,0,1.33.67Z"/>
  <path class="cls-1" d="M442.79,7.67c-.34.77-.9,1.31-1.79,1.34.6-.47,1.34-.98,1.79-1.34Z"/>
  <path class="cls-1" d="M315.48,92.1c-.24-.07-.61.05-.89,0,.61-.44,1.14-.92,1.79-1.34,0,.65-.25,1.15-.89,1.34Z"/>
  <path class="cls-1" d="M240.88,89.87c.04.29-.04.6,0,.89-1.88-.05-1.36-1.84,0-.89Z"/>
  <rect class="cls-1" x="194.42" y="127.84" width="1.34" height=".89"/>
  <path class="cls-1" d="M123.39,255.6c1.22-.32.77.74.89.89v.89c-.32-.66-.56-.83-.89-1.79Z"/>
  <path class="cls-1" d="M852.43,254.71c-.73.55-.72.7-1.79,1.34.34-.77.9-1.31,1.79-1.34Z"/>
  <path class="cls-1" d="M165.38,89.87c-.07.03-.88.62-1.34.89-.24-1.01.58-1.02,1.34-1.34v.45Z"/>
  <rect class="cls-1" x="143.94" y="128.29" width="1.34" height=".89"/>
  <path class="cls-1" d="M181.91,88.53c-.07.09-2.02-.66-1.33-1.34.43-.42,1.78.79,1.33,1.34Z"/>
  <path class="cls-1" d="M148.86,103.27c-.16.17.04,1.47-1.79,1.34.44-.46.79-.99,1.34-1.34h.45Z"/>
  <path class="cls-1" d="M955.18,39.39c.24.49-1.01,1.65-1.34.89-.25.07-.65-.08-.89,0,.52-.96,1.58-.66,2.23-.89Z"/>
  <path class="cls-1" d="M384.27,82.72l-1.34-1.34v-.45c1.11.24,1.03,1.34,1.34,1.79Z"/>
  <path class="cls-1" d="M782.29,229.24c.08.07.85,1.78-.21,1.34-1.2-.5-.63-2.02.21-1.34Z"/>
  <path class="cls-1" d="M146.62,105.06c-.51.53-.67,1.41-1.79,1.34.51-.56.67-1.4,1.79-1.34Z"/>
  <rect class="cls-1" x="136.35" y="104.61" width="1.34" height=".89"/>
  <path class="cls-1" d="M240.43,88.53c-.13-.85-.36-1.46-.45-2.68.61.28.61,2.17.45,2.68Z"/>
  <path class="cls-1" d="M1008.33,237.28c.34-.6.24-1.51,1.34-1.79-.34.61-.24,1.5-1.34,1.79Z"/>
  <path class="cls-1" d="M101.95,62.18c-2.07-.11-1.89-.68,0-1.34v1.34Z"/>
  <rect class="cls-1" x="127.86" y="58.6" width="1.34" height=".89"/>
  <path class="cls-1" d="M927.93,129.18c-.22.3-.59.9-.89,1.34-.02-1.06-.3-1.55.89-1.34Z"/>
  <polygon class="cls-1" points="596.02 123.38 595.57 125.16 595.13 125.16 595.13 123.37 596.02 123.38"/>
  <path class="cls-1" d="M115.8,101.49v.89s-1.34,0-1.34,0c.15-.65.72-1.02,1.34-.89Z"/>
  <path class="cls-1" d="M172.09,86.3l-1.79.89c.73-.42,1.37-.66,1.79-.89Z"/>
  <path class="cls-1" d="M540.62,80.93c1.64.24,1.19,1.66,1.79,3.13-1.05-.57-1.3-2.09-1.79-3.13Z"/>
  <path class="cls-1" d="M944.45,43.86c-.15.29-.29.6-.45.89h-1.34c.62-.33,1.16-.58,1.79-.89Z"/>
  <path class="cls-1" d="M885.04,107.29c-.99.27-1.5.21-1.34-.89.52.2,1.01.41,1.34.89Z"/>
  <path class="cls-1" d="M39.41,124.72v.89c-.66.14-.93-.2-1.34-.67l1.34-.22Z"/>
  <path class="cls-1" d="M392.54,86.75c.67,0,.67,1.32,0,1.32s-.67-1.32,0-1.32Z"/>
  <path class="cls-1" d="M425.82,134.09c.26-.54.68-1.34.89-1.79l-.89,1.79Z"/>
  <path class="cls-1" d="M945.35,104.16c-.08-.78.07-1.55.89-1.79-.31.59-.5,1.09-.89,1.79Z"/>
  <path class="cls-1" d="M539.73,78.7l1.34.45v.43s-.89.45-.89.45c-.25-.57-.31-1.01-.45-1.34Z"/>
  <path class="cls-1" d="M46.56,145.26h-.89s0-1.34,0-1.34c.65.15,1.02.72.89,1.34Z"/>
  <path class="cls-1" d="M969.92,38.5c-.41.19-.61.68-1.34.44-.19-.16.71-1.1.89-1.34l.45.89Z"/>
  <path class="cls-1" d="M323.07,88.08c-.13.51-.59.63-.89.89-.46.03-.76.15-.89-.45.59-.16,1.19-.29,1.79-.45Z"/>
  <path class="cls-1" d="M856,252.03c-.52,1.07-1.04.67-1.34.89-.2-1.06.41-1,1.34-.89Z"/>
  <path class="cls-1" d="M789.89,252.92l1.34-.45c.05,1.25-.88,1.79-1.34.45Z"/>
  <path class="cls-1" d="M436.99,30.9c-.5-.14-1.5-.28-2.23-.45l2.23.45Z"/>
  <path class="cls-1" d="M291.8,77.81c-.89.1-.96-.52-1.34-.89v-.45c.66.27,1,.75,1.34,1.34Z"/>
  <path class="cls-1" d="M849.3,256.49c-.77.43-1.1.55-1.79.89l1.79-.89Z"/>
  <path class="cls-1" d="M285.55,101.93l-.45-1.79c.07.18.57.42.68.85.13.51-.24.81-.23.94Z"/>
  <path class="cls-1" d="M523.2,27.78l-.45.45c-.24-.42-.39-.86-.45-1.34v-.45c.37.48.6.95.89,1.34Z"/>
  <path class="cls-1" d="M86.76,77.81c-.05-.67.16-1.2.45-1.79h.45c-.22.33-.39,1.04-.89,1.79Z"/>
  <path class="cls-1" d="M111.33,134.99c-.08.86-1.18.75-1.34.89.19-.74.96-.95,1.34-1.34v.45Z"/>
  <path class="cls-1" d="M461.11,10.8c-.33-.25-.82-.52-1.34-.89l.89-.45.45,1.34Z"/>
  <path class="cls-1" d="M106.87,4.1h-1.34s0-.89,0-.89c.62-.14,1.19.24,1.34.89Z"/>
  <path class="cls-1" d="M3.23,272.13v.89s-1.34,0-1.34,0c.15-.65.72-1.02,1.34-.89Z"/>
  <path class="cls-1" d="M221,289.56c.67,0,.67,1.32,0,1.32s-.67-1.32,0-1.32Z"/>
  <path class="cls-1" d="M238.2,93v.89s-1.34,0-1.34,0c.15-.65.72-1.02,1.34-.89Z"/>
  <path class="cls-1" d="M177.89,309.2h-1.34s0-.89,0-.89c.62-.14,1.19.24,1.34.89Z"/>
  <path class="cls-1" d="M568.77,176.08c.13.27.85,2.07.89,2.23,1.14,4.58.41,7.8-.89,12.06-.13.39-.28.38-.45,0,.94-2.93,1.78-6.26,1.02-9.29-.17-.66-.51-1.21-1.02-1.66-.07-.2,2.25-.27-.44-1.12l.89-.66c-1.96-.77-.74-1.24-1.1-2.01-.66-1.41-.47.48-1.13.45-1.31-1.06-.77-3.69-.9-4.02.75,1.03,2.51,2.72,3.13,4.02Z"/>
  <path class="cls-1" d="M565.19,197.53c-1.84,2.67-2.59,3.56-4.91,5.81l-2.68-1.12,1.78-1.56.9.44.22,1.34c.83-.44.2-1.23.47-1.75.23-.44.75-.77,1.05-1.22.91-1.41-.16-1.86,2.29-1.05-.42-.93-.14-1.68.89-.89Z"/>
  <path class="cls-1" d="M529.46,222.1h.45c-3.49,1.7-6.89,3.91-10.72,4.91,3.61-1.88,6.35-4.19,10.27-4.91Z"/>
  <path class="cls-1" d="M472.28,244.43c-2.39.79-4.75,1.49-7.15,2.23.49-1.22,3.43-1.22,3.58-1.34.08-.06-.91-1.56.23-1.79.41-.08,2.21,1.51,3.34.9Z"/>
  <path class="cls-1" d="M363.28,189.93l-.18,1.8-3.85,3.11c1.51-2.16,2.37-3.04,4.02-4.91Z"/>
  <path class="cls-1" d="M529.46,222.1l2.23-2.01-1.78-1.11c1.97-.58,1.86-.17,2.46,1.34,1.78.31,1.93-3.19,2.89-.89-1.79.93-3.55,1.8-5.36,2.68h-.45Z"/>
  <path class="cls-1" d="M566.09,196.19v-1.14s.44.26.44.26c.46-1.69,1.25-3.24,1.8-4.92h.45c-.95,3.1-1.03,3.13-2.68,5.81Z"/>
  <path class="cls-1" d="M496.85,235.94c-2.04.78-3.99,2.06-6.25,2.23.08-.03.18-.51.48-.64,1.83-.77,3.8-1.64,5.77-1.6Z"/>
  <path class="cls-1" d="M369.09,184.13c.9-.84,1.62-1.75,2.68-2.68-.36,1.29-1.09,2.94-2.68,2.68Z"/>
  <path class="cls-1" d="M511.59,230.14l-2.68.89c1.21-.53,1.9-.58,2.68-.89Z"/>
  <path class="cls-1" d="M739.86,114.44c-.7-2.9-1.32-5.77-1.85-8.63-1.23-1.56-1.96-3.45-2.17-5.66-.57-1.53-1.05-2-1.34-4.02-.64-1.11-1.08-2.3-1.34-3.57-3.78-7.2-6.69-18.23-9.38-26.36.39-1,.11-2.13-.85-3.39-.65-1.15-.94-2.38-.86-3.68,1.08-.97,1.92-3.71.28-4.33-.54-.21-4.62-.57-4.38.68-.14.08-.4.84-.9,1.09-4.06,2.06-9.85,3.34-14.29,5.17-.59-.43-1.05-.24-1.38.55-1.31-.35-1.88-.13-1.72.66l-2.27,1.02c-.83.53-1.94.9-2.68,1.34-.49-.25-1.16.11-2.01,1.08-1.28-.18-1.78.13-1.51.93l-1.4.67c-2.61,1.97-6.39,3.44-9.26,5.21-1.5.93-2.92,2.7-5.03,3.73-1.76.74-2.89,1.79-3.39,3.17-.95.74-1.61,1.61-1.97,2.64-.85,0-1.14.5-1.42,1.16-.57-1.32-1.23-2.17-1.98-2.58-.35-1.23-1.34-4.6-2.41-3.94,0-.96-2.95-5.91-3.56-4.12-.18.53,2.09,5.62,2.67,6.35l-.53,1.01c3.44,3.87,5.18,9.06,5.45,14.18.13,1.09.83,3.53,1.5,4.61l-.61-.14c-.17-.38-.32-.39-.45,0,.56,2.03,0,3.37,2.23,5.14l-.89.66c1.45.11,1.76,1.58,2.68,2.46l-.89.66c1.58.32,2.08,2.26,3.15,3.33.25.25.78.16.87.25.57,1.27,1.31,2.31,2.23,3.13.74,1.7,1.63,2.59,2.68,2.68,3.08,3.41,5.56,6.82,8.49,10.27.33.69,1.12.7,1.34,0,1.06-.54.54-1.87,0-2.68-.17-.31-.29-.58-.45-.89-1.15-1.87-2.19-3.8-3.13-5.81-1.22-1.22-5.17-8.21-5.36-9.83-1-1.43-1.89-3.07-2.68-4.91-1.68-2.55-2.97-5.08-4.47-7.81-3.35-6.12-6.17-6.44-1.26-13.33,2.87-4.02,7.46-6.42,11.54-8.79,1.02-.81,2.06-1.56,3.13-2.23,1.29-.67,2.63-1.26,4.02-1.79,1.38-.71,2.79-1.15,4.02-1.79,2.71-1.91,5.68-3.4,8.93-4.47,3.78-1.67,7.65-3.01,11.61-4.02,2.24-1.36,3.41.85,3.5,6.62l1.13.97c.49,2.59,1.33,4.97,2.52,7.15,1.2,3.55,5.21,13.01,5.36,16.08l1.7,4.37c.62,2.96,1.54,5.97,2.77,9.03,4.78,10.47,6.76,30.99,7.17,42.64.48,13.78-2.55,24.88-6.72,37.77l-2.27,5.2c-3.6,4.16.62,5.79,1.84.76l1.32-1.94c3.38-4.54,7.11-20.61,7.99-26.63,2.21-15.24-1.34-31.9-3.07-47.08ZM671.06,94.78c3.42,6,6.99,13.19,10.72,18.76.39.73.46,1.15-.45.89-1.52-1.21-6.85-7.82-7.59-9.38-.17-.06-.33-.16-.49-.28-.33-.15-.52-.13-.61,0-.08-.33-.19-.67-.3-1.01-.58-.85-1.06-1.97-1.3-3.03-.15-.29-.31-.59-.46-.84.11-.06.21-.21.3-.48,0-.41.06-.78.19-1.06-.25-.56-.74-1.08-.89-1.79.01-.4.07-.71.15-.98.26-1.68.34-2,.23-.95l.51.14Z"/>
  <path class="cls-1" d="M668.38,94.78l1.79,4.69.89-1.11c.94,2.12,1.85,4.96,2.68,6.7-.64.19-.89.69-.89,1.34-1.07-2.04-2.82-5.07-3.57-7.15-.6-1.65-.67-2.79-.89-4.47Z"/>
  <path class="cls-1" d="M670.17,96.57c-.22-1.03.34-2.44-.45-3.57,1.36-.38.89.99,1.34,1.78l-.89,1.79Z"/>
  <path class="cls-1" d="M681.79,113.54c.39.58,1.1.92.89,1.78h-.66c-.34-.12-.48-.74-.67-.89l.45-.89Z"/>
  <path class="cls-1" d="M648.28,141.69c-1.18-1.93-3.32-4.16-4.91-5.81-.34-1.23-.78-1.67-1.34-1.34.12-.52-.41-.75-.89-.89-2.05-2.13-4.57-4.26-7.17-6.03-1.07-.73-2.31-1.5-3.55-1.12-.22-.06-.44-.21-.45-.45-1.44-1.65-3.23-2.55-5.36-2.68-2.3-.66-4.44-1.65-6.39-3.04l-6.27-.89c-1.47-.59-3.05-.77-4.76-.54-7.69-.59-20.75,1.28-28.76,2.29-3.39.43-9.19,2.27-12.14,2.2-2.07-.05-1.74-1.59-2.5-2.88-.24-.41-.76-.6-.83-.72-1.2-1.75-2.15-1.7-1.34.45-.5.8-.13,1.86,1.1,3.2-.4.98-2.05,1.74-4.95,2.3l-.17.31c-5.52,1.1-7.15,5.46-1.59,7.93,1.32,1.53,8.67,1.89,10.55.72l.43-.61c.39-.54,1.06-1.31,1.34-1.79.08-1.55-.26-3.07-1.03-4.58-.48-1.18.24-1.77,1.55-2.01,7.44-1.37,15.1-2.4,22.57-3.05,6.09-.82,12.6-1.66,18.9-.63,7.34.44,12.62,3.12,18.76,6.7.77,1.66,1.82,2.26,3.13,1.79.12.08.4.56.89.89l.47,1.37c.89-.34,1.48-.06,2.21.41,2.59,1.87,3.86,2.56,6.25,4.91,1.76,2.38,3.6,4.75,5.51,7.1l1.2.05c2.94.85.83-2.4-.45-3.57ZM565.82,131.91c-2.54,1.82-8.15.34-10.45-1.62-.22-.45,8.93-3.61,9.34-3.32.31.23,2,4.3,1.12,4.93Z"/>
  <path class="cls-1" d="M642.03,134.54c-.23-.25-.78-.39-.89-.89.07.04.8-.48,1.33.67l-.44.22Z"/>
  <path class="cls-1" d="M276.61,214.5l-1.11,4.01c-1.08-.99-.06-3.65,1.11-4.01Z"/>
  <path class="cls-1" d="M272.59,175.64c.14.12.62,2.98.9,3.57-2.17-.68-.92-.72-.94-1.58,0-.29-.68-.16-.76-.29-.32-.51,1.13-1.49-.53-1.26-.21-.73,1.27-.49,1.33-.44Z"/>
  <path class="cls-1" d="M274.38,188.59c-.25-1.07.06-2.48-.44-3.57,1.78.62.93,2.16,1.14,3.33.12.68,1.56,2.81.21,3.37.63-1.36-.8-2.68-.9-3.12Z"/>
  <path class="cls-1" d="M276.61,197.08c-1.71.36-.6-2.59-.89-3.57.85.08,1,3.42.89,3.57Z"/>
  <path class="cls-1" d="M275.72,218.97c-.37.96-.66,1.98-1.06,2.93-.15.36.53.96-.73.64-.08-.93.49-1.71.85-2.51.27-.59-.44-1.32.93-1.05Z"/>
  <path class="cls-1" d="M272.15,175.19l-1.22-.23c.66-.58-1.75-1.17.1-1.99.19-.08.82,1.88,1.11,2.23Z"/>
  <path class="cls-1" d="M276.35,199.57c.59.67,1.32.16-.63,1.53v-2.23c.64-.15.32.36.63.7Z"/>
  <path class="cls-1" d="M274.83,184.57h-1.34s0-.89,0-.89c.62-.14,1.19.24,1.34.89Z"/>
  <rect class="cls-1" x="276.17" y="209.14" width=".44" height="2.23"/>
  <path class="cls-1" d="M277.06,202.89l-.22,1.34c-.47-.41-.81-.68-.67-1.34h.89Z"/>
  <path class="cls-1" d="M345.86,149.28c-6.82-6.3-13.22-16.49-18.24-24.42-2.65-4.19-4.54-9.13-8.11-12.66-.67-1.63-1.36-3.7-2.14-5.23-.87-1.71-1.83-2.98-2.77-5.05-.27-.9-.57-1.2-.89-.89-.1-.99-.56-2.09-1.38-3.29.02-.72-.12-1.12-.41-1.17,1.89-1.86,1.45-2.6-1.34-2.23-.55-.4-2.57-4.3-3.02-5.24-2.6-5.4-4.61-11.07-6.36-16.65.16-.71-.29-1.44-.89-1.79,1.67-.87.73-2.27-.89-2.68-1.41.25-1.87,2.47-1.7,3.68.52,3.69,4.6,11.92,6.17,15.98.91,1.71,1.7,3.49,2.23,5.36.18.3.66.57.89.89.33.87.33,1.76,0,2.68l-4.02,2.23c-.48.2-2.12,1.46-2.68,1.79.14.17.37.23.65.2l-2.43.7c-.63.42-.78.99-1.23,1.34-1.09.84-5.43,2.4-3.93,4.49.7.98,6.1-.47,7.58-.43,10.68.27,19.89,16.02,25.76,23.73,4.01,5.27,8.56,10.37,12.04,15.98,1.14,1.68,2.42,3.23,3.83,4.67,1.69,3.06,5.04,1.05,3.32-1.99ZM316.37,113.1c-1.38-.2-1.84-1.73-2.68-2.68-5.82-3.04-4.79-5.63-13.4-5.81-.87.06-.86-.61-.36-1.08l-.09-.26.78-.47c.38-.41.93-.73,1.46-.87.55-.4,1.3-1.05,1.79-1.34,1.36-.81,3.49-1.45,4.91-2.23,1.18,1.19,1.84,2.06,2.68,3.57,1.36,2.45,2.14,5.79,4.02,8.04.03.16-.05.34,0,.45.23.49,1.21,1.46,1.79,2.68-.16,1.19-.52,1.13-.89,0Z"/>
  <path class="cls-1" d="M317.27,113.1c.33.69,1.44,1.29.22,1.78-1.43.58-1.16-.79-1.11-1.78.28.04.6-.03.89,0Z"/>
  <path class="cls-1" d="M319.5,117.12c-.37.37-1.78-.9-1.78-1.11,0-1.17,2.08-.08,1.78,1.11Z"/>
  <path class="cls-1" d="M302.08,101.93c-.44.32-.86,1.26-1.79,1.34-.13.39-.28.38-.45,0,.67-.77.82-1.53,2.23-1.34Z"/>
  <path class="cls-1" d="M300.29,103.27v1.34c-.45,0-.89.01-1.34,0-.28-.96.55-.94.89-1.34h.45Z"/>
  <path class="cls-1" d="M930.16,264.09c.05-1.85,2.46-1.22,3.67-.87,2.74.8,7.08,1.22,10.57,1.5.62.05,1.22-.2,1.84-.18l-.44,1.33c1.32.34.47-.8,1.53-.93,1.85-.23,3.83-.08,5.39.94l-.22-.89h5.37s-.27,1.34-.27,1.34h-3.09c.21-2.57-.83,0-.95.02-1.84.27-7.92-.05-10.01-.23s-5.09-1.52-7.13-.69c-1.47-.24-3.38-.24-4.91-.45-.36-.21-1.02-.83-1.34-.89Z"/>
  <path class="cls-1" d="M968.58,263.19c.67.07.9.04,1.34.67.11.37-1.39-.13-.44,1.11-2.1-.98-1.6.27-2.11.43-2.86.86-6.09,1.04-9.06.91v-1.34c2.78-.41,6.43-.33,9.09-.99.73-.18.9-.65,1.19-.8Z"/>
  <polygon class="cls-1" points="970.81 262.75 970.81 264.53 970.37 264.53 969.92 262.75 970.81 262.75"/>
  <path class="cls-1" d="M864.49,158.66c-.61-1.99-.08-4.29.77-6.17.29-.64-.26-1.22,1.01-.97-.3,1.68-.05,4.93-.55,6.42-.26.76-.65.6-1.23.72.33,1.07.88.99.9,1.19.04.3-.33,4.04-.44,4.41-.3,1.06-.36.68-1.36.67l1.34.45-.68,1.79c-.31-1.33-.9-.27-1.55-1.12,1.51-1.01.66-7.07.88-7.38.06-.08.69.04.89,0Z"/>
  <path class="cls-1" d="M867.17,146.16c-.3,1.9.32,5.06-2.23,4.91,1.72-1.53-1.01-4.42,2.23-4.91Z"/>
  <path class="cls-1" d="M881.91,99.7c-.1.17-.37.3-.45.45l-.22-.89c-.41.59-1.06.9-1.57,1.34.14-.89,1.16-2.09,1.79-2.68,1.22-.27.82.89.45,1.79Z"/>
  <path class="cls-1" d="M881.47,97.91c2.19-2.06,2.03-.58.89,1.34-.11.19-.36.31-.45.45l-.45-1.79Z"/>
  <path class="cls-1" d="M571.89,180.55l-.37-.77c.18-2.22-1.73-4.7-1.86-1.47l-.5,1.1c1.01,3.51.88,7.16-.4,10.96-.88,1.94-1.77,3.88-2.68,5.81-1.26-.14-1.5.23-.89,1.34-.56.45-1.19.83-1.9,1.13-.87,1.26-1.71,2.54-2.51,3.85-.86-.57-.85-.15-.51.82l-1.96.61c-6.43,5.83-14.14,9.9-21.82,13.82l-1.24,1.64c-2.12.45-3.81.9-5.36,2.68-3.64,1.47-7.21,3.11-10.72,4.91-2.11-.38-6.55,1.22-7.59,3.13l-2.68.89c-4.12.3-8.95,2.23-12.06,4.91-2.15.5-4.25,1.3-6.25,2.23-.81-.12-1.65-.21-2.45.02-2.91.83-13.39,4.02-14.96,5.31-.33.27-.62.59-.9.92-1.8-.2-3.01.14-3.6,1.02-1.24.24-2.48.49-3.54,1.21-.59-.29-1.21-.41-1.86-.36-17.35,5.36-34.88,10.71-52.85,13.86-17.69,3.11-44.75,6.2-58.11-8.36-13.65-14.88-2.82-41.17,6.99-55.47l-.06-1.5c1.74-1.46,3.09-3.1,4.02-4.91l1.16.04,4.72-4.69-.07-1.15c1.18-.49,2.08-1.39,2.68-2.68,2.33-.28,4.64-2.24,5.36-4.47.25.85.64.85.89,0,1.63-.42,3.11-.9,4.45-1.45,2.94,2.16,7.22,3.5,10.29,1.45.51.62.75.84.74.68.63,1.72,1.13,1.19,1.49-1.57.89.6,2.09.12,2.93-.42,9.61-6.22,16.03-15.65,22.18-25.05,1.74-2.66,11.28-19.18,10.84-21.29-.09-.43-.31-.77-.66-1.04-1.2,1.04-1.17-.76-1.77-1.1-.49-.27-1.51.69-2.03-1.14l.22,2.24c1.22.31,1.3.7.89,1.79-.36.8-.6,1.61-.89,2.23l-.89,1.79c-3.11,6.35-6.49,11.55-10.27,17.42-1.01,1.51-2.06,3-3.13,4.47-.68,1.09-1.49,2.09-2.23,3.13-4.45,5.26-9.4,10.74-15.53,13.77l-1.45-1.26c-1.46-2.99-3.9-2.5-6.7-1.79-.44.16-.89.29-1.34.45-1.62.55-2.67.55-3.13,0,.01-.15-.03-.32,0-.45-.08-.17-.15-.26-.22-.28.32-.45.49-1.05.22-1.51,1.71-7.04,4.31-13.76,7.8-20.16-.98-1.13-1.94-.52-2.89,1.85-.31-.23-.61-.08-.89.45-2.09,5.04-4.77,10.8-6.04,16.07-.38,1.59-.07,5.85-.29,6.2-.24.39-6.65,3.4-7.97,4.54-.31-.27-.57-.32-.77-.03l-3.7,4.05c-.86.61-1.46,1.35-1.79,2.23-.2.18-.58.06-1.34.89l-1.63.59c-.77,1.6-1.86,3.19-3.28,4.77-.08.98-9.02,14-10.36,16.67-4.49,8.96-8.03,23.12-6.5,33.02,1.68,10.85,9.66,18.68,19.54,22.68,2.14,1.48,5.5,2.18,8.21,2.72,19.36,3.89,40.32-.55,59.29-4.99,4.36-.87,8.66-2.05,12.91-3.54,10.85-2.89,21.58-6.36,32.16-9.83,1.9-.17,3.54-.62,4.91-1.34.7-.23,1.41-.62,2.23-.89,1.61-.49,3.25-.94,4.91-1.34,8.14-3.25,18.37-8.18,26.36-10.27,6.24-2.35,12.38-5.07,18.32-8.04.55-.23,1.13-.62,1.79-.89,2.55-1.19,5.09-2.28,7.63-3.26l.12-.52c2.69-1.2,5.37-2.46,8.04-3.8l-.15-.46c0-.19,2.33-2.55,2.55-2.7.6-.39,1.62-.38,2.23-.78,9.65-6.39,22.47-18.52,18.44-31.36ZM386.61,172.84c1.35-.36,3.52-1.16,4.68-.19.34.28.52,1.12,1.02,1.43,0,1.2-7.61,1.9-8.47,0-.12-.87,2.09-1.05,2.78-1.23Z"/>
  <path class="cls-1" d="M392.76,176.98c.63.46,1.23,1.2,1.79,2.23-.3.61-.56,1.05-1.34.89-.57-4.78-1.38-1.77-1.59-1.76-.91.01-3.05.02-3.94-.04-1.56-.1-4.19-1.63-5.42-2.67-.33,2.58-2.37,1.56-4.24,1.34,3.8-4.31,5.42-.16,9.18.42,1.61.25,3.98.01,5.56-.42Z"/>
  <path class="cls-1" d="M394.55,179.21c-1.43.33-.84-1.48-1.79-2.23,1.9-.51.02.1,1.78,1.34-.24-1.12-.49-1.44.45-2.23.02.94-.03,2.29-.45,3.13Z"/>
  <path class="cls-1" d="M544.64,147.94c5.14,6.21,11.21,11.8,15.63,18.32-1.6.18-2.24,1-2.68-.89l1.78.44c-.15-2.86-5.41-.08-4.02-3.57l-1.34.44c.78-1.69-.82-2.18-1.79-3.35,1.22-.23,1.21-1.33.24-2.06-.66-.5-1.18.03-1.48-.1-.09-.04-.1-.48-.25-.55-1-.47-2.06-.28-2.76-1.53l-.66.89c-.19-3.29,1.87.22,3.12-.22-.46-1.43-2.49-1.53-2.61-1.65-.56-.55-.26-2.9-2.07-3.98-.74-.44-1.41.19-1.57.04s.46-.74.47-1.08c0-.11-2.4-.85-.03-1.15Z"/>
  <path class="cls-1" d="M540.18,142.58c-3.33,1.23-.42-1.2-2.46-2.23-.87-.44-.52,1.62-1.56.89-.1-.07.47-1.57-.45-2.22l.9.89c2.09-.87-1.34-1.69-.9-3.57,1.62,1.99,3.08,4.56,4.47,6.25Z"/>
  <path class="cls-1" d="M534.82,135.43l-2.23-.67.89-.44c-.29-.79-2.7-1.61-1.79-2.91,1.07,1.3,2.13,2.8,3.13,4.02Z"/>
  <path class="cls-1" d="M516.95,113.99c.8.85,1.67,2.48,2.23,3.13-1.48.09-.97-1.93-2.21-.9.1-1.64-1.22-2.24-2.25-3.13-.32-.48-.32-.78,0-.89.56.58,1.69,1.21,2.23,1.79Z"/>
  <path class="cls-1" d="M520.52,118.46c1.32,1.2,1.05,1.4,1.79,2.23-.87-.71-1.73-.18-2.68,0-.52-1.44-.26-1.36.89-2.24Z"/>
  <path class="cls-1" d="M565.64,172.06c-.2-.48-3.68-1.1-2.69-3.57-.11-.13-2.29,2.4-1.34-1.34,2.04,2.04,2.4,2.68,4.02,4.91Z"/>
  <polygon class="cls-1" points="568.77 176.08 568.77 174.74 570.11 175.86 568.77 176.08"/>
  <path class="cls-1" d="M787.66,76.47c-.15.14-1.07-.02-1.25.7-.07.29-.12,2.52-.12,3.05s-.87.2-1.31.26c.82-.9,1.53-6.88,1.79-7.14,1.08-1.07,1.02,3,.89,3.13Z"/>
  <path class="cls-1" d="M755.49,226.12c.8.03,1.1.19,1.79.45-.38.72-1.52.42-2.23.45-.02-.05-.41-.86-.45-.89.22-.05.62,0,.89,0Z"/>
  <path class="cls-1" d="M518.29,21.08c.41.66.26.87-.45.45-.56-.58-1.57-1.24-2.23-1.79.15-.1.28-.68.45-.89.92.84,1.41,1.17,2.23,2.23Z"/>
  <path class="cls-1" d="M519.63,23.31c-.48-.48-1.15-1.13-1.79-1.79l.45-.45c.87,1.12.76,1.19,1.34,2.23Z"/>
  <path class="cls-1" d="M514.72,112.2v.89c-.36-.3-.87-1.28-1.11-1.3-.28-.02-.77,1.17-1.56.85-.34-.76,1.09-1.5.89-1.78-.07-.1-1.8-.56-2.01-1.35-.36,1.95-2.5,1.37-2.81.21-.51-1.94,3.39-4.1-4.11-2.89.14-2.56,2.9.32,3.12-2.23,2.73,2.4,5.08,5,7.59,7.59Z"/>
  <path class="cls-1" d="M498.63,96.57c1.84,1.8,4.59,3.59,5.81,5.81-1.04-.79-2.21-1.39-3.1-2.05-.49-.36-.43-1.04-.48-1.07-.29-.22-.71.97-1.33.7-1.47-.64-.83-2.36-1.79-3.38,0-.42.29-.42.89,0Z"/>
  <path class="cls-1" d="M498.63,96.57c-.26-.06-.75.09-.89,0-.12-.07-.21-.57-.48-.66-.88-.28-1.93.25-2.64-.91l1.78-.66-2.23-2.24c1.43,1.48,2.99,3.03,4.47,4.47Z"/>
  <path class="cls-1" d="M1006.99,105.5v.45c-.48,0-5.82.06-5.81-.23.05-1.76,5.01-1.47,5.81-.22Z"/>
  <path class="cls-1" d="M175.21,87.19c-.19.19-.74.27-.89.45l-.89-.45c.37-.21.89-.61,1.34-.89,1.2-.5,1.06-.04.45.89Z"/>
  <path class="cls-1" d="M520.52,22.42c-.95-.22-.72-1.44-.88-2.23,1.02.27.93,1.4.88,2.23Z"/>
  <path class="cls-1" d="M245.79,115.78c-.14-.6-.3-1.19-.45-1.79.22.36,1.63.63.45,1.79Z"/>
  <path class="cls-1" d="M798.38,117.57c.38.03.53.18.45.45l-.45.89c-1.18-.14-2.4-.29-3.57-.45-.16-.48-.49-.66-.89-.89.96-.66,3.02-.09,4.47,0Z"/>
  <path class="cls-1" d="M800.61,118.01c-.56-.08-1.22.07-1.79,0-.12-.02-.31-.33-.45-.45.71.05,1.85-.29,2.23.45Z"/>
  <path class="cls-1" d="M177,85.4c-.63.58-1.19,1.18-1.79,1.79l-.45-.89c.56-.35,1.79-2.02,2.23-.89Z"/>
  <path class="cls-1" d="M956.96,39.84c-.98.4-2.57.04-2.23,1.34-.24.08-.66-.08-.89,0l-.43-.22.43-.67c.61-.18,1.22-.86,1.34-.89.46-.12,1.57-.14,1.79.45Z"/>
  <path class="cls-1" d="M280.64,90.76v1.34s-.89,0-.89,0c-.14-.62.24-1.19.89-1.34Z"/>
  <path class="cls-1" d="M786.76,116.23c-.02.25.1.77-.02.86-.08.05-1.64.46-1.76.48-.41.07-.91-.04-1.34,0,.48-.81.62-1.02-.44-.89-.39-.13-.38-.28,0-.45,1.17-.04,2.4-.05,3.57,0Z"/>
  <path class="cls-1" d="M789.89,116.67c-.72-.03-1.85.28-2.23-.45,1.09.08,1.67.36,2.23.45Z"/>
  <path class="cls-1" d="M285.1,105.06c-.53,1.04-1.13-.83-.89-1.79.4.48,1.18.58.89,1.79Z"/>
  <path class="cls-1" d="M782.74,116.23c.15,0,.3,0,.45,0v.45l-2.68.45v-.89c.74-.03,1.49.03,2.23,0Z"/>
  <path class="cls-1" d="M318.61,89.42c.58-.06,1.2.04,1.78,0,.04,2.12-2.22,1.39-3.12,2.23,0-.05-.69-.56-.43-.84.08-.09,1.27-.94,1.77-1.39Z"/>
  <path class="cls-1" d="M118.48,238.62c-.05,1.22-.37,1.53-.12,3.01.16.94-.51.84-.77.57-.12-.13-.49-2.87-.5-3.38-.02-.83.5-1.45.5-1.53l.89,1.34Z"/>
  <path class="cls-1" d="M240.88,93.44c.04.42.15,1.79-.22,1.79-.15-.62-.5-1.26-.67-1.79.01-.51-.19-2.23.22-2.24.34.52.61,1.62.67,2.24Z"/>
  <path class="cls-1" d="M330.22,82.27l-1.78,1.34c-.2-.26.19-1.68.44-1.79.37-.16,1.43-.09,1.34.45Z"/>
  <polygon class="cls-1" points="502.2 102.38 500.87 101.92 500.87 101.49 502.2 101.04 502.2 102.38"/>
  <path class="cls-1" d="M567.43,178.31c-.85.15-1.49-.52-1.34-1.34l1.34,1.34Z"/>
</svg>