<?xml version="1.0" encoding="UTF-8"?>
<svg id="Layer_1" data-name="Layer 1" xmlns="http://www.w3.org/2000/svg" viewBox="0 0 280.71 234.11">
  <defs>
    <style>
      .cls-1 {
        fill: rgb(230, 240, 240);
        stroke: #000;
        stroke-miterlimit: 1;
        stroke-width: 0.9px;
      }
    </style>
  </defs>
  <path class="cls-1" d="M202.94,4.58c-2.2.26-3.48-1-3,2-.6-.1-1.83.17-2,0-.13-.12.42-1.93-.62-2.08s-2.59.96-3.88.89c-2.14-.12-10.37-1.77-11.5-.81-1.96,1.67,2.09,2.17,2,2.47-.16.6-2.4,3.22-2.01,3.51h5c.17-1.13-.98-.92-1-.99-.07-.31.05-.68,0-1,.94-.13,2.16.2,3,0,.09.96-.99,2.4-1,3-.91.5-1.95.96-3,1-.33.01-.67,0-1,0-.59,0-1.82-1.28-3,0-.27-.64.53-2-.5-2.01l-2.49,2.02c.28-5.35-1.1-4.93-5.01-6-4.14-1.14-7.55-1.34-12-1-3.99.31-2.67,2.16-5,2-.7-2.28-2.58-1.95-4.45-2.06-7.42-.43-15.28.04-22.55.06-.67,0-1.33,0-2,0-.33,0-.67,0-1,0-1.67.02-3.33-.02-5,0-5.35.07-11.07.86-16,1-8.8.25-17.41.49-26,1-2.67.16-3.88.92-5,1-2.77-4.31-9.5-1.08-13.46-.96-6.5.19-13.05-.22-19.54-.04-1.75-.09-4.33.88-4.02,2.99h-.96c-.33-4.43-6.24-3.88-8.53-.99-1.97-5.18-2.38-.46-2.65-.27-.19.14-4.26.28-4.84.27-1-.02-2,.03-3,0-.07,0-.39-1-1-1-.33,0-.67,0-1,0-4.4.03-8.51.35-12.82,1.16-1.82,1.6-.12,4.37-.18,4.84-.03.28-1.31,2.16-1,5,.27,2.48,4.81,3.61,0,4.01-.37,1.94,2.37.05,2,1.98-5.43.71-.09,2.16-.07,2.46.02.28-.85,1.61-.93,2.55-.21,2.35-.52,3.48,2,3-.08.65.06,1.34,0,2-5.35-2.17-2.94.66,0,3-.2.36-.89.67-1,1-2.08,6.01-.08,7.7,0,12,.03,1.33-.07,2.68,0,4,.12,2.21-.88,6.29,0,10-1.2,2.53-.95,6.21-1,9s0,5.34,0,8c0,2-.02,4,0,6,.01,1.33-.03,2.67,0,4,.04,1.54-.26,7.64.03,7.98.26.3,2.19-.14,2.97.02.86.17,1.92,1.03,3,1,.67.5,1.08,1.12,1,2-.31-.09-.69.09-1,0s-.7.1-1,0c-.18-.06-.74-2.3-3-2-1.72.28-.9,3.26-1,5-.07,1.32.03,2.67,0,4s.02,2.67,0,4c-.01,1,0,2,0,3s0,2,0,3c-.03,2.66-.04,5.34,0,8,.07,4.72-.95,16.3.95,19.59.4.7,1.64.96,2.05,1.41-.09.64.13,1.43,0,2h-1c-1.68,4.35-1.21,11.09-1,16,.06,1.32-.14,2.7,0,4,.32,2.91.47,5.56,4,6,.33.04.68-.05,1,0,.94.08,1.87,1.96,2,2v1c-.67-.4-3.92.38-5.34.02-1.21-.3,0-2.44-1.65-2.02.94,4.99-1.29,15.18-.07,19.37.2.69,1.99.75,3.06,1.62-4.48-.76-1.04,7.47-1,10,.04,3.03-.25,5.09,0,9,.15,2.31-.17,4.69,0,7s1.88,4.64,0,7.99c4.99.04,10.01-.03,15,0,1,0,2,0,3,0,.67,0,1.33.01,2,0s1.33.02,2,0c1.66-.04,3.34.08,5,0,2.03-.1,3.95-.82,6-1,.35-.03,1.23.21,3,0,.97-.11,2.04.13,3,0s2.62-.74,4-1c.02,2.34,5.11-.51,3.99-.99-1.38.07-2.65.73-3.99.99,0-.99,3.6-3.17.46-4.01-.62-.16-1.33,1-1.46,1.01-.66.02-1.33,0-2,0l4-3c.85,1.62,3.4.94,5,1-.52.7-2.11,2.24-1.51,2.98l6.01-4.98h-2.5c.79-1.14,1.25-2.77,2-4,1.57-.95,1.36-2.08,5-2l-.52,1.97,2.51.51c-1.4,1.62-3.18,2.85-4.45,4.6-.69.95-.33,2.59-.54,2.92-.17.27-1.42.27-1.76.67-.7.83-1.3,2.12-1.42,2.18-1.42.7-2.7-.98-3.8-.36,2.56,2.92,5.27,1.37,7.98.51.32-.1.74.12,1,0,.35-.16.64-.76,1-1,1.39-.94,2.58-2.1,4-3,.16.52-.11,1.38,0,2-.72.85-2.6.82-1.99,2.99,2.83-.39,6.7.6,9.3-.02.85-.2-.34-1.48,3.69-1.98,2.73-.33,7.51-1.53,7.5,1l2-3.01c1.98,5.73,7.31,2.14,10.5,2.01,4.31-.18,8.7.22,13,0,.66-.03,1.34.04,2,0,3.26-.19,3.81.05,7-1,.66-.22,2.83-.88,3-1-.4,3.92,1.65,1.31,3,1,3.16-.73,3.83.75,5.5-3,.56,2.38,1.81,1.59,2.5,2,3.67,2.2,1.9.93,4,1,1,.03,2-.02,3,0,4.99.08,10.01-.02,15,0,.33,0,.67,0,1,0,7.27-.02,14.76.34,22,0,3.52-.17,5.83,1.37,4.99-3.01-7.13,1.01-1.42-5.56-1.99-9.99,2.89,1.09,1.37,2.18,4,1.99-1.63-2.58.81-3.91,1-4.99,1.87,1.33,4.23,2.07,6,3,.52.27.51,2.08,2.5,2.03.86-.02-.18-3.12,2.49-2.02.63,1.87-.82,3.68-.99,5-5.48-2.51,1.71,6.14-6,1,1.3.07,1.54-1.89.5-2l-.5,1c-1.92-1.1-2.03.51-2,2,0,.34-.09.81,0,1,.66,1.41,2.57,1.82,3.99,2.01l-2.99,2.98c4.74.96,5.61-.75,7-4.99-.29,3.58,2.71,8.08,3,3,3.39,1.54,3.34-.01,4,0,.33,0,.67,0,1,0,1.65.03,3.36-.12,5,0,.13,0,.65,1.14,1.41,1.09s.48-2.28,1.07-2.1,1.38,1.31,2.44,1.49,1.9-.51,2.08-.49c1.2.17,4.54,2.75,6,0v-1c.51.02,1.42.93,2,1,.53.06,1.59.12,2,0,.62-.17.95-.27,1-1,3.1-.52,6.01.8,9,1,.99.07,2-.04,3,0,1.99.08,4.01.02,6,0,2.33-.02,4.67.04,7,0s4.48-.9,7-1c3.65-.15,7.35.07,11,0,2.66-.05,5.34.04,8,0-1-2.17-.56-5.11-1-6.99-.61-2.65-1.95-2.03-1.94-2.47s.88-1.09.94-1.53c2.8-.97,2.2-5.39,2-8-.31-4.05-.91-3.09-2-5.51-.12-.26,1.7.44,2-4.49.27-4.5.64-11.06-1-15,.6-3.95.3-4.44,0-8-.22-2.57-.57-3.73-1-6-.12-.62.12-1.39,0-2,1.67-6.45,1.67-15.55,0-22,.04-.66-.03-1.34,0-2,.28-5.5.09-11.46,0-17,0-.33,0-.67,0-1-.05-2.81-.95-5.62-1-7-.25-6.84.57-14.32,0-21-.03-.33.05-.68,0-1-.72-5.03-2.46-3.42-3-4,.05-2.48,2.27-6.07,2.01-8.32s-4.7-1.39-4.01-3.18c.29-.73,1.73-1.11,1.99-1.5-.02,1.06.68,3.42,1.98,2.51-1.64-1.48.49-3.02.69-4.2.14-.78-.68-1.23-.67-1.31.94-8.32.23-13.17,0-21-.04-1.33.04-2.67,0-4-.18-5.72-.71-11.62-1-17-.23-4.23.39-8.86,0-13-.76-8.08-4.1.53-7-2v-1l2-2c1.66,0,3.34.01,5,0,.38-.23-1.02-1.67-1-1.99.02-.24,1.09-1.29,1-3-.11-2.06.21-2.08-1-4-2.14-3.4-2.73-.92-4-1-2.98-.18-4.28-.86-7.48-1.2-2.43-.26-5.42-1.44-7.82-.82-.26.07-3.63,3.76-3.7,4.02l-.99-3.99c-.25,7.01-2.29.95-2.61.91-1.33-.18-3.13,1.23-4.87,1.07-1.27-.12-2.35-1.55-3.25-1.63-.99-.09-7.97-.63-8.29-.36-1.43-.73-3.09.91-2,2-.5-.39-1.38-.63-2-1-.09-.05-.24-.86-1-1-7.47.43-15.64.14-23,1Z"/>
  <path class="cls-1" d="M179.93,4.59c-1.09-1.09-3.08.9-1.99,1.99s3.08-.9,1.99-1.99Z"/>
  <path class="cls-1" d="M185.93,219.59c-1.09-1.09-3.08.9-1.99,1.99s3.08-.9,1.99-1.99Z"/>
  <path class="cls-1" d="M187.43,222.6c-.99.7.54,1.37,1.02,1.96.99-.66-.47-1.32-1.02-1.96Z"/>
  <path class="cls-1" d="M20.94,26.58c.97-1.23,4.94-6.3,5.43-7.07.96-1.51.33-3.75,2.07-4.93.94,3.49,5.09.67,9.07,1.82,1.28.37,11.56,5.22,13.42,6.17v1c1.68.93,2.69.83,3,1,.52.28.91,2.52,2.49,2.01-.41-6.05,3.22,2.87,6.51,3.99.03.16,1.26.2,1,.99h-4c-2.94-1.35-5.99-1.93-9-2.99-3.6-1.26-3.15-.61-5-1-1.04-.22-5.86-4.66-6.23-4.82-.94-.39-1.86.87-2.61.58-.22-.09-.26-1.68-.65-1.79-2.81-.77-2.34,1.56-2.71,1.73-.56.27-3.39-2.47-.82,2.8-2.92.02-4.46-3.94-3.98,1.49-.31-.01-.71-.06-1,0-.26.05-4.56,2.1-4.75,2.27-.58.54-.11,1.43-.25,1.73-.64,1.35-1.5,2.16-1,4h-1c.01-1.11.73-4.23-.99-3.99-.75,3.2-4.27,4.56-7.01,6.99-2.77,2.72-5.61,2.21-9,1v-1c.54-.98,1.19-1.78,1.01-2.99l1.98,1.99c.36-2.7,3.05-4.13,3.51-1,2.68-1.79,2.28-3.34,2.51-6,.59.75,1.38,3.16,2.94,1.94.31-.24,4.39-5.09,5.06-5.94Z"/>
  <path class="cls-1" d="M84.94,19.58c-5.11.57-7.43,2.86-8,8-1.21.68-3.25-.02-3,3-1.37-.81-3.53-1.14-4-2.99,3.85.87,3.58-2.63,4-3.01,3.16-2.83,5.79-4.92,9-8,.44-.42,1.56-.58,2-1l.78.61c.1,1.2-.58,2.26-.78,3.39Z"/>
  <path class="cls-1" d="M67.94,18.58c.32-.06.68.07,1,0l1,1.99c-.62.14-1.54-.16-2,0-1.28.13-2.77-.19-4,0v-1c.22,0,3.02-.81,4-1Z"/>
  <path class="cls-1" d="M65.94,21.58c-.41,1.56-3.68,1.5-4,0,.33-.04.67.04,1,0,.97-.12,2.04.13,3,0Z"/>
  <path class="cls-1" d="M76.94,15.58l-1-1c.24.28.88.48,1,1Z"/>
  <path class="cls-1" d="M126.94,72.58c-.05.23.64,1.07,0,3-.38.06-1.41-1.87-2.52,0-.66,1.11.63,2.26.52,3-.04.24-.88.64-1,1-.35.32-.68.65-1,1-.35-.2-1.64.28-1.95-.07-.11-.12.87-1.15.63-1.72-.15-.37-1.58-.53-1.68-1.21-.01-.07.73-.33,1-1,.07-.17.71-.59,1-1,.37-.28.67-.68,1-1s.67-.66,1-1c.39-.22.71-.9,1-1,.48-.17,1.38.12,2,0Z"/>
  <path class="cls-1" d="M24.94,81.58v-1h1c.15,1.12-.72.84-1,1Z"/>
  <path class="cls-1" d="M127.94,69.58c-.68-.64-2.5,2.48-3,3-.33.34-.67.67-1,1-.26.15-.79-.16-1,0-.03-.95-.9-2.04-.91-2.54,0-.28,3.53-1.4,2.4-4.44,1.09,1.09,2.47,1.84,3.51,2.98Z"/>
  <path class="cls-1" d="M227.94,10.58c1.15,1.95,4.59-.89,5.92.07,1.15.82-.49,5.77,6.08,3.94-4.25,6.59,4.23,6.38,6.01,8,.2.18-1.83,3.09-.83,4.8.24.41,4.73,3,5.82,3.18v1c-1.69,2.09.34,2.76,1,4,.19.36-.15,1.4,0,2l1.99-1c.05,1.59.63,3.09,2,4,.97.64,4.54,1.49,6,2,1.74.61,2.84,1.55,5,2-.03,2.3,1.8,2.57,2,3,.91,2,1.43,4.68,3,7-.59.08-1.81-.2-1.99,0-.3.34.16,2.18-.01,2.99-.71,3.36-1.13,5.44-1,9,.01.33-.03.67,0,1l-1,1c-.32-.06-.67.05-1,0-.31-.33-.61-.79-1-1-2.37-1.26-3.21.16-6,0-.5-.03-1.62-1.39-1.99-1-.2.21.14,1.41-.01,2-.79,2.99-2.12,5.79-2,9,.03.76.46,1.47,1,2v1c-4.72.41-4.84,5.06-1,8-.32-.06-.69.08-1,0-.65-.16-1.51-1.24-2.48-1l-.52,1c.17,1.59-.25,3.49,0,5,.87,5.27,6.14,7.31,7,11,.99,4.26,1.01,7.71,0,12-.58,2.47-2.01,5.18-4.29,6.7-1.65,1.09-5.43-.48-4.73,3.81,4.39,1.06.81,4.97.98,6.92.09,1.02,1.88.41,2.04.57,1.39,1.37-.04,4.44,0,5s.99,1.51,1,2c.01,1.02.04,3.21,0,4-.01.24-2.64,3.39,1.51,2.03.86-.28-.12-2.53,1.48-2.02.36,1.25.52,2.82,1.01,3.99-2.18-.24-4.16,2.87-4.06,4.48.03.54,1.69.34,1.85,1.02s-.89,1.61.21,3.51c.52.9,4.48,1.91,0,2.01-.47,1.95,2.21-.04,1.99,1.98-.9.12-2.83-.46-3.02.51-.87,4.49,1.88,3.3,2.02,3.5.24.36-.87,5.76,2.1,7.95.76.56,2.29-.9,2.9-.95,1.42-.12,1.49-.21,2,1-4.81.28,1.09,5.29,5,3-.2.15-.81,3.6-3.01,3.5l3.01.51c-4,4.24-.04,2.91,0,6.99-2.86,1.82-2.82,7.7-5,10-.62.13-2.37,1.52-4,2-5.89,1.75-8.49,2.73-15,1.01.56,1.3,3.91,3.72,5,3.99-.65,1.9-4.18-1.45-4.6-1.92-2.37-2.71-4.07-6.1-5.97-9.05-.74-1.14-1.46-1.37-2.43-2.03-.39-.27-.81-.95-1-1,3.54.19,1.66-.53,1-2-.22-.49.56-1.28-.71-2s-4.64-.6-5.29-1c-.11-.07.15-1.46-.2-1.62-2.83-1.31-9.42-1.65-11.06-2.41-.95-.44-.7-3.35-2.71-1.91-.14.1.03,3.92-2.03,1.95-.52-.5,1.34-3.87-2-2.99.04.65-.1,1.36,0,1.99-2.44-2.62-4.14-5.71-4,0-1.02-1.65-.95-3.76-1.09-3.9-.35-.37-7.92-1.63-9.91-2.1-3.05-.71-3.97-1.1-6-1-1.73.09-1.38-.54-2-1-2.44-1.79-2.61-1.24-4-2-.9-.49-.68-2.85-3-2.01l-.99,3-.52-4-2.48,2c1.09-4.52-2.63-2.56-6.01-1.99-.32.05-.68-.06-1,0l-6-2.99,1.99,1.48c-.78,1.12-1.98,1.7-3,2.51.54-3.22-1.95-2.64-3,0-.04-4.46-3.69-2.03-5-2-2.62.07-5.38.15-8,0-9.48-.55-16.26-2.83-26,0-2.47.72-2.9,2.33-5,3-.24.08-4.52.94-5,1-4.64.59-6.96,1.27-12,2-2.2.32-4.7.99-5,1-.43.02-2.88-2.6-4,1-.33-.03-.67,0-1,0-3.43-.05-8.7,1.02-12,2-2.42.72-4.04,1.35-6,3-2.23-.39-1.93-.22-4,0-1.78.19-7.3,3.1-11,4-1.17.29-4.01-.76-8,1-4.59,2.02-7.42,6.9-11.06,8.53-2.65,1.19-5.44-2.47-4.94,1.47-.54-.28-1.19-1.67-2-2-3.22-1.31-7.92-.85-11-5-.32-.3-.64-.84-1-1v-5.99s-3-.02-3-.02c2.51-1.84,2.23-4.4,3-5.99.46-.94,1.65-3.43,2-4,3.34-5.41,8.59-3.11,10-10,.52-2.52.32-5.72,1-9,.41-1.97.59-4.03,1-6,.9-4.34,1.26-8.02,2-12,.56-3,1.69-4.35,2-9,.01-.21,1.07-.82.97-1.52.02-1.79-7.63-7.65-8.97-10.48-.03-.33.02-.67,0-1-.24-4.39-.19-6.65-1-11-.1-.54-.92-1.32-1-2-.04-.33.03-.67,0-1,.54-.1.76-.86,1-1,.83-.5,8.06-.86,0-2,.1-.31-.1-.71,0-1,.07-.18,1.26-.47.94-1.36l-.94-.64c.11,0,1.8-.87,2-1,1.37-.88,1.13-.42.59-2.08-.37-1.15-3.05-7.17-3.63-8.18-.63-1.1-1.9-.65-1.96-.74-.36-.56.31-2.55-1.42-4.06-1.14-1-5.67-2.26-7.58-2.94-1.03-.37-2.64-1.95-4-2,.77-5.86-3.53-4.57-4-5-2.11-1.97,2.93-1.64,1.95-3.43l-2.95-5.56c.73-.38,2.61-1.49,3-2,1.82-2.37,1.43-6.15,2.07-6.97.32-.41,9.28,1.35,5.94-4.03,2.26.99,6.46,2.49,6.01-.99,1.33,0,1.16,1.58,2.99,2.99,3.14,2.43,3.76,1.53,7,1-1.16,2.38,5,2.86,5.56,2.85.48,0,.41-1.45,1.21-1.79,2.86-1.21,6.44,1.2,6.24-2.06,1.94.05,2.84-1,3-1,3.3.01,4.19.13,7.76-.62l6.24-3.38c1.42.25,2.61.1,3.99,1l1.01-6c.13-.05,1.22-1.38,2-2l2,1c0,.45-.91,1.9-1,3-.05.66.02,1.34,0,1.99,1.26,1,9.19-3.44,10.99-3.99.98-.3,2.8.22,3.99,0l-2.99-3.99c2.05-.06,3.96.99,5.99.99,1,0,2.01.04,3,0,4.15-.19,11.14-3.13,15.01-4.5,2.42-.86,2.26-.85,1.99-3.5.31-.15.77-1.68,1.49-1.98,3.66,2.43-.89,1.9-.49,2.48.73,1.05,1.62,1.79,2.99,1.5l.99-5.99-.99,6.99c1.43.37,1.98-.49,3-.99,3.95-1.92,6.17-1.29,11-3,3.29-1.16,7.02-.36,5.01-5,3.71,2.17,2.9-.68,4.31-1.75s3.48,1.21,2.69-3.25h-11.01c.1-.64-.11-1.39,0-2,3.8,1.21,10.67,1.58,15,2,2.94.29,6.28.87,9,1-.61,2.61,1.95,2.47,4,3-.21.67-1.28,1.59-.99,1.98.06.09,1.43-.21,2.04.67s.76,3.11,1.02,3.3c.22.16,1.83-.33,4.94,1.05,3.58,1.59,2.43,2.46,7,2,.27-.03.98-.04,1,0,.19.35-.47,2.07.56,2.06,1.18-.02,2.91-1.38,4.44-1.07.22-.2-.76-1.5-1-1.99.56-.12,1.82.18,2,0-.88,8.15,5.96,3.06,9,5,1.98,1.27-2.82,1.4,4.37,1.34.81,0,1.84.73,2.63.66-.5,2.93,1.65,1.66,3,2,2.59.65,4.64.34,6.51.88,2.46.71,6.38,2.15,9.49,3.12s6.95,3.51,10.55,3.97c2.03.26,1.45-.36,1.45-1.97v-1h1c-.04,4.54.76,2.63,4,4,2.61,1.1,3.29,1.29,6,2,2.49.66,8.17,3.95,8-1-.01-.34.07-.74,0-1,13.36-2.88,5.18-4.47,1.43-8.93-1.17-1.39-1.59-4.08-2.4-4.68-.91-.68-2.86.71-2.98.6-.3-.28-1.54-5.87-3.02-7.55-1.14-1.29-2.85-1.25-3.03-1.44-1.37-1.44-2.9-4.75-3.14-4.92-.36-.26-7.13.75-8.86.92-9.56-2.29-20.18-.38-30-1,.12-.28-.13-.73,0-1,.64-1.38.97-.76,2-1,4.82-1.12,1.64-.46,3-2,.03-.04.73-.04,1,0,.17.03.93.99,2,1,.65,0,1.35.06,2,0,4.47-.44,8.77-1.6,14-2,.33-.03.67.02,1,0,.99-.06,2.01.05,3,0,1.68-.09,3.72.34,5.25-.02,1.06-.24,1.18-1.56,1.75-1.98ZM148.68,21.9c-5.32-2.4-11.82,7.74-8.73,12.69l1.98-1.01c-1.76,3.93,3.24,5.71,6.36,5.05.74-.16.49-1.99,1.26-2.04.63-.04,1.6,1.01,2.24.81.85-.27,4.1-5.73,4.14-7.45.03-1.33-2.43-5.65-3.25-6.13-.87-.5-2.3.01-2.94-.31-.99-.5-.89-1.54-1.06-1.62ZM124.94,37.58c-.06.24-.8.62-1,1-.53-.18-2.2-.04-3,0-4.05.18-2.67,1.48-3.19,1.72-.2.09-4.14.14-4.37.11-1-.1.27-2.31-1.44-1.83.47,2.76-.48,2.8-2.52,3.99l-1.48-2.99c.35,3.42-4.14,1.82-6.3,2.4l-7.71,3.59c-2.42-.49-7.71-1.36-7,2-.66-.33-1.96-.04-2.53-1-.45-.09-.57,1.41-.47,2-1.84-.21-3.36.24-5,1-.37.17-.69.88-1,1-4.14-1.53-9.34,2.01-13,3-.31.08-.69-.08-1,0-1.32.35-2.66.65-4,1-1.17.31-2.3.83-3,1-3.86.94-8.55.8-12,3-.33.02-.67-.02-1,0-1.78.13-2.41-.49-4,1s-.58,1.98-1,3c-.49,1.21-.65,2.05-1,3-.38,1.03-.7,2.24-1,3-.45,1.12-.94,3.11-1.33,3.71-.47.7-2.1-.29-1.66,1.28,3.07-.37,1.64,3.65,3.99,5.02.04.34-.08.71,0,1,1.39,5.27,6.47,7.33,6.01,12,3.83-1.94,2.55.42,3.74.93s6.12,2.66,5.25-.93c2.88.8,2.22,2.26,5,3,1.61,5.92,3.58,8.14,4.06,13.39.45,4.92,1.66,2.69,2.42,2.82,1,.18-.27,3.02,2.51.78.55,3.4,3.64,2.97,6.99,4,.04-2.2.57-5.23-1.99-6,.73,3.77-3.52,1.82-2,0,.21-.25,1.79.21,2,0,.08-.08.98-1.89,1-2,3.43-2.19,4.13.81,4.73.93,2.77.54,10.27,1.47,12.81,1.18,1.66-.19,1.14-1.4,2.27-2.02.6-.33,2.16.24,2.95-.34.54-.4.14-1.67.24-1.74.16-.12,2.16,0,3.51-.95,6.67-4.73-1.23-8.84-3.51-.05-5.25.77-8-.53-12.28-3.03-.69-.41-.75-1.73-.87-1.77-.21-.07-1.68.36-3.86-.2-.45-5.76-8.25-2.16-11-2-7.09.4-5.93-2.41-7-3l5-3.49c-1.68-3.79-8.14-1.78-7-6.51,3.03,0,5.47,1.72,8.5,2.01s5.64-1.02,6.5-1.01c.33,0,.67,0,1,0s2.76.99,5,1c1.98,0,3.35-2.5,3.01.99h.98c.14-.61-.18-1.64.01-1.99,2.41-4.44,6.74-2.63,8.74-4.24,4.3-3.45-3.53-6.74-4.49-8.08-.59-.83-.09-2.49-.26-2.69-.24-.29-2.56,1.45-2.99,1.02-.15-.15.05-3.62-1.52-4.01-1.35-.33-2.49,1.18-2.51,2.5-.01.7,3.25.06,2.02,2.49-1.05-.33-2.29,1.12-2.78.73-.97-.77.71-2.3-4.22-.72,2.94-6.89-1.86-6.83-7-4-3.63,2,.19,2.42-7,3-.48-3.33.28-5.56,3-7.5-3.49-.92-1.56-2.74-1-5.5.12-.58.81-1.2,1-3,2.29-.5,4.19,5.86,5,1,1.84.49,3.2.97,5.19.78,4.92-.48,5.6-3.8,11.81-3.78,2.78.01,2.04-.65,6-1,1.26-.11,2.72-.05,4,0,.33.01.67-.02,1,0,6.48.45,2.56.69,4.26,2.71.49.58,1.63.17,1.74.29,2.4,2.56,2.17,1.53,4,3,.36.29.64.7,1,1s.65.69,1,1c.71.62,3.84,3.62,4,4,.7,1.72.04,4.91.23,5.51.22.7,1.3.38,1.54.97,1.15,2.81-.47,5.89,6.23,3.52-.17.17.16.78,0,1-.37.29-.68.81-1,1-1.08.65-.93.98-1,1-.26.07-.67,0-1,0-.45,0-1.83-1.44-2.99-1-.13,3.07.76,5.96.99,9,.08.98,0,2.01,0,3-1.53,1.18-.73,2.59-1,3-1.18,1.76-4.12,5.74-4.67,7.22-.31.84,1.19,3.1-1.33,4.28,2.63-.44,4.72,2.4,5,2.49.08,3.14-1.15,3.66-4,5-.54-1.42-2.63-1.79-3.99-2.01-.4-1.81,1.69-.63,1.99-1,.28-.34-1.22-1.95-1.49-1.97-1.34-.11-5.42,3.75-4.51,5.98-.46-.01-5.69,3.2-8,4-1.22.43-3.23.4-4.01,1.5l4.01-.5,1,.98-4.99,2.04,1.99,1.97-5.99,1.5,3.5,2.51,1.48-1.99c-.67,4.1,1.6,2.94,4.01,3.99,2.68,3.57,6.65,4.26,10,6,1.43.74,2.66,4.55,6,2,.03,1-.03,2,.01,2.99,1.75.45.6-1.44,1.04-1.95.29-.33,1.42.8,1.95.96v1l1,1c1.09.12.71-1.81,1-2,.39-.26,2.2.21,3,0-1.43-3.83-2.11-5.79-2-10,.07-2.57,2.15-5.02,4.72-5.81,3.11-.95,4.46.67,6.28.81,3.88.29,7.98,1.67,11-1.51-2.9.17-9.44-3.09-4.37-4.28,1.07-.25,2.75,2.22,2.38-.7-2.6-.14-4.73-4.58-6.01-3.5-.29.25,4.74,5.58-1,5.99-3.24-2.62-5.54-2.17-7.28-6.01-.42-.93.38-1.94.3-1.98-1.7-.93-4.96,2.09-4.01-3.01,4.24-3.53.25-1,0-1-.29,0-2.23-.78-3-1l3-1.01c.4-1.08-.97-1.8-1-1.99-.57-2.92,2.32-1.6,2-2.5l-2-1.5c1.18-2.48.06-4.69.22-4.87.32-.35,1.62.03,1.76-.14,1.76-2.14-2.13-2.29-3.98-1.99v-3c2.7-2.08,6.19,1.17,5-5,3.14-.57,5.71,1.03,4.99-2-1.58.63-1.7.38-2.99,0,.11-.62-.16-1.49,0-2,.34-.31.7-.65,1-1,1.12-1.33,1.19-.54,2-3,4.26-.67,5.13-4.18,9-4,.11,0,.84,1.43,2,.99v-2.99c1.03.26,5.25.23,6.34,0s-.27-2.87,3.66-.98l-1.5,5c2.93-3.83,2.07-4.28,6.5-4.01.87.05-.47.77,2,0,.51-.16,1.38.11,2,0,3.92,5.39,4.29-1.35,8,.99-2.15-3.1-2.68-.33-4-3.99l3.5-1,4.5,3.01c.33,1.96-2.48.54-3,.99-1.83,1.61,1.71,2.11,1.83,2.46.23.67-.9,3.79-.32,4.61.68.94,2.27.7,2.49.92,1.93,1.95,1.25,5.67,4,5,.63,2.86-.47,3.64,1,6,.67,3.37-6.52,2.58-7.99,2v5s.99-2.99.99-2.99c4.09.56,9.36-2.44,8,3.99-4.38,2.51-.29,1.47.02,2.64.81,3.08-1.46,6.74-.02,9.36,0,.11.82,1.68,1,2-4.59-.31-3.15,4.88-3.49,4.96-.12.03-.34-.86-2.51.04-.84.34-.94-.02-2,1-2.43,2.16-10.9-1.04-11.99,0-.87.83.29,3,1.59,3.89,2.48,1.7,5.02.72,7.4,1.1,2.7.43,5.21,1.86,5.69,1.99,1.29.34,2.93-.09,4.31,0-.33,2.44,1.1,6.09,4,6-3.27,2.95-1.82,2.56-1.01,7-2.64-2.27-4.11.66-5,3.52-.2.65,2.62-.11,2,1.96-.93,3.12-3.7-.92-3.98-.48-.28,1.59.32,2.67.99,4-1.53.12-3.36-.65-2.99.99,1.34-.37,3.19.99,3.99,1.01,1.45.03,1.5-.75,2-1,2.55-1.3,5.53-3.4,8-5,1.36-.88,1.66-2.13,2.83-2.94,1.32-.91,4.18-1.26,5.39-2.08,4.58-3.13-1.95-5.15-5.21-4.98.07-.65-.1-1.38,0-2,1.22-7.36,3.91-2.72,8.46-3.02,2.18-.14,5.63-2.24,9.07-1.78,1.92.26-1.49,2.63,4.25-.09,5.43-2.56,5.82-3.41,9.22-5.59,1.34-.86,3.68-.28,3.97-.57.47-.47-.46-3.28.13-3.91.38-.4,2.72.42,2.94-.54.64-2.85.21-4.1-3.02-3.52-.38-1.56,1.39-.58,1.96-1.68.23-.45-.09-1.04.04-1.31.64-1.34.66-1.64,1-3,.08-.3.84-.85,1-2,.1-.73-.94-3.59,0-5,3.73-1.56,4.42-.83,5.84-1.28.39-.12.75-1.52,1.16-1.72,1.15-.56,2.53-.33,3.96-1.54,1.19-1.01,1.34-2.36,2.04-3.46.58-.92,2.97-4.31,2.98-4.61.06-1.97.08-2.92.18-4.89.02-.31,3.47-1.98,1.84-5.5,3.53-1.79,1.31-1.92,1-4,1.72-.23,2.47-.31,3-2.51.07-1.04-1.73-.24-2-.49-1.1-1.05-1.43-2.91-2.11-4.19-.85-1.58-2.53.03-.9-4.81-.13-.22-1.9,1.07-1.99,1.01-.39-.31,1.09-2.36-4-2-.33.02-.67-.02-1,0l-4.51-3c-2.5,5.7-2.18-.24-2.65-.75-1.45-1.59-4.05-.29-4.84-.24-.31.02-.98.04-1,0-.22-.43.22-1.74,0-2-.31-.35-1.66,1.02-1.99,1-.41-.03-1.27-.81-2.47-.83-1.09-.01-2.77,1.15-3.37.69-.26-.2-3.46-3.85-3.76-3.88-.84-.07-2.02,1.04-2.4,1.01-.49-.05-.96-1.93-1.63-1.98-3.68-.27-10.94,4.58-9.38-3.03-2.13.93-4.79.4-6.99,0-1.03-.18-4.6-.58-5-1-.17-.18.28-1.55-.12-1.9-.89-.77-4.43,2.93-3.89-1.09l-2.98,1.99c-.1-.29-.81-.62-1-1-.36-.72.92-2.61-1.44-1.95-1.33.37-2.95,2.01-4.06,2.93-2.01-.83-1.25-4.73-1.5-4.99-.75-.76-3.73.86-4.56.91-.48.03-.53-1.8-.92-1.93-3.23-1-2.69,1.73-3.51,4.02-2.51,2.72-5.22,1.91-8.01,2.52-1.08.24-2.2,1.34-2.99,1.48-3.69.65-7.28-.35-11,0-.1-.15-2.29-.29-3.37-1.13-1.8-1.4-2.96-4.53-5.62-4.88-.92-1.02,4.27-1.23,1.99-2.98-1.24-.95-4.76.85-6,.99-1.71.2-1.07-2.76-2,1ZM252.94,48.58c-1.51.3-2.49-.64-4,1-.75.81-2.03,7.31-2.01,8.42,0,.2,2.59,2.26,3.01,2.58,2.22,1.72,2.97,3.33,6.4,3.01,3.18-.29,11.42-7.42,5.61-5,.1-1.98-.18-4.04,0-6.01.04-.46,1.64-1.49.99-3l-2.98,2c.51-3.92-.78-2.46-2.01-3-3.82-1.67-2.52-.49-5,0ZM23.94,53.58c-.17-.13.26-1.68-.05-1.93-1.92-1.56-2,1.47-2.16,1.56-.53.27-1.56-.31-2.28.31-4.16,3.55-2.53,5.64-2.77,5.91-.19.21-3.34.12-1.72,2.14.13.16,1.71-.38,1.93.64.11.49-.75,1.59-.41,2.43.43,1.07,1.98,1.37,2.47,1.94.14.17-.39,1.44.65,2.11s4.82.18,6.35.88l-.99-2.99c2.67,1.73,4.73-.3,5.57-2.99.69-2.2-2.6-3.48,2.42-3.01.59-2.51-1.01-2.3-3-2l1-3c-3.55.96-3.34-.9-4.81-1.93-.59-.41-1.95.1-2.19-.08ZM165.93,74.58c1.14-1.16-.43-3.22-1.99-.49-.13.87,1.92.56,1.99.49ZM150.93,77.59l-8.99-1.01c-1.62,1.23.02,1.81,1.48,2,1.35.17,6.97.75,7.51-.99ZM155.94,78.59h-3.99s0,.98,0,.98c2.13.47,3.1,1.72,3.99-.98ZM69.94,90.58c.87-.68-3.42-2.16-3-.01h3c-.22.23.15,1.03.5,1.01,1.09-.07-.03-1.47-.5-1ZM85.94,94.57c-2.24-4.69-9.45-2.64-13.99-3.98-.14,7.05,9.14,3.01,13.99,3.98ZM38.94,102.58c-.08.11-1.4-.53-2.1.59-4.86,7.84,5.88,15.72,11.85,12.69.31-.15,4.19-3.75,4.58-4.2,1.63-1.9.56-2.41-1.33-2.08.25-.4,1.5-.72,1.71-1.24,1.06-2.57-.71-5.16-.72-7.76l-1.98,1.02-.02-3.03c-2.32,2.02-1.93-.89-2.42-.88-.69.01-7.51.89-7.94,1.03-2.33.72-1.32,3.43-1.64,3.86ZM146.94,112.58v-15h-1v17c2.01.25,1.64.2,2.26-1.24,1.89-4.41-1.37-12.35,2.73-12.77.34-.23-2.12-2.59-2.99-2.98v15h-1ZM130.94,110.58l-3.99-12c-.22,2.92,1.3,5.64-2.01,6.49,6.29,2.14,3.62,3.99,3.01,9.5l2.99-3.99c-.22.22.15,1.02.5,1,1.09-.07-.03-1.47-.5-1ZM241.94,100.58c-.2-.21-5.54-.98-5.8-.84-.98.52-3.24,4.33-3.62,5.71-1.46,5.31-.43,11.58,4.73,14.44,2.03,1.13,2.56-.32,2.7-.31.33.04.67-.03,1,0,.66.05,1.34-.04,2,0,.16,0,1.1,1.37,2.39,1.09.77-.17.45-2.07,1.2-2.11.7-.04,2.17,1.2,2.41,1.03s-.22-1.64,0-2.01c2.16-3.55,5.7-5.96,3.83-11.33-1.33-3.84-9.03-3.07-8.88-6.89l-1.95,1.22ZM77.14,114.28c-.48-.21.5-3.45-2.18-.2,4.39,3.03,4.38,7.34,10.97,7.5,2.16-6.5-2.09-4.38-6.24-6.08-.63-.26-.74-1.46-1.02-1.58-.39-.17-1.09.56-1.54.36ZM48.94,127.58c-.74,4.41-2.36,6.28-3,10-.5,2.91-.56,6.12-1,9-.1.63.08,1.36,0,2-.04.33.04.67,0,1-.08.64.15,1.49,0,2-.12.39-1.91.65-2.1,2.52-.25,2.48.99,4.05,1.1,5.48.02.31.08.82,0,1-.05.12-1.46.48-1.75,1.72-.87,3.78-2.09,7.98,2.75,7.28.59-.08,1.46-.95,2-1v3c-4.67.55-.43.74,0,1,.81.49.46,2.03,3.43,2.06,1.89.02,9.06-1.9,10.57-3.06.38-.29.69-.64,1-1,4.29,2.69,4.11-.99,4.63-1.05,1.22-.15,2.08.4,4.37.05s6.04-.13,8.3-1.01c1.33-.52.51-1.71.7-1.99,3.6-5.26-.21-3.67-.97-5.77-.35-.96.23-2.84-.03-3.24-.19-.29-6.65-.05-7,0l-9.54-3.06c-3.36-.1-2.96,1.32-6.46,2.06-.58.12-1.35-.09-1.99,0,.04.64-.11,1.38,0,1.99h-1c-.07-1.32.1-2.68,0-4,1.56-1.23,3.64-.6,5.27-1.06.72-.2.74-1.28.82-1.31,1.18-.42,1.65.72,1.91.37,2.21-3.03-4.9-1.83-4.99-4,.99.07,2.02-.1,3,0,.33.03.67-.03,1,0,1.76.16,4.83,1.11,6.57,1.06,2.2-.07.69-3.54,4.43-1.04.02-4.43,3.89-4.6,2.01-9.01.67,0,1.33,0,2,0,3.42.01,4.55.99,4-3,.15,1.29,2.6,4.76,2.01,6.99l1.98-2.99.51,4.01,1.49-2c.04.66,1.99,3.8,2.19,3.88.49.19.73-.9.82-.89.41.04,6.66,1.78,7,2,.11.07-.36,1.5.17,1.82.86.51,2.38.26,3.36,1.12,1.56,1.35,1.69,4.31,4.47,4.07-.22.41.24,1.73,0,2.01-.28.31-1.66-1.03-1.99-1.01-5.48.4-7.95,4.21-9.92,4.6-2.75.53-5.64-2.01-6.12,4.88-.25,3.62,4.54.33,5.79-.07,2.94-.94,7.55-2.67,10.25-3.4.21-.06,2.37.52,4.36-.04,4.26-1.22,13.4-2.65,11.63-7.95-1.74-.52-.49,2.43-1.48,1.99-2.28-1.02-.36-1.3-3.5-1-2.07.2-2.27.19-2-2l2.99-2c-1.35.97-3.27-.15-3.99,0-3.06.72-1.31-2.05-2.62-3.1-.51-.4-1.88-.32-2.68-.87-1.6-1.09.79-2.63-3.69-1.03l-5.19-5.73c-2.62-.13-7.58-3.4-10.81-5.27-2.38-1.37-2.06-1.83-4-2-7.07-.61-5.17-4.13-6.01-5-2.08-2.15-1.87,1.84-1.99,2-.5.64-2.9.83-3,1-.14-.42-1.01-.93-1-1,.32-1.84,2.47-3.29-2-1-.28.14-.79-.15-1,0,.21-2.02-1.26-2.81-2-4-.23-.38-.72-.65-1-1-.66-.82-1-3.48-4-4-1.28-.22-7.99,3.25-8.54,3.99-.9,1.23-.26,2.82-.46,4.01ZM66.93,124.59c-1.4-.72-2.67.63-1.99.98,1.4.72,2.67-.63,1.99-.98ZM174.44,124.58v1c.65-.33.65-.67,0-1ZM239.94,139.58c4.58-4.1-2.01-7.04-2.01-7.5,0-.9,2.57-.61,2.8-1.93,1.14-6.51-11.39-3.65-15.07-1.6-2.58,1.44-8.12,6.06-9.72,8.03-2.81,3.46-3.16.58-4.49,1.14-.82.34-.76,1.74-1.5,2.27-.84.6-3.15-1.26-3.02,4.59l-1.98-2.99c.18,7.42-6.21.16-7.01,5.99-.31-.01-.7-.05-1,0-2.98.53-1.2.53-3,3-1.4-2.35-2.2.58-2.8.9-2.71,1.44-5.62,1.4-6.2,5.1-.24,1.53-.33,2.84,1,4,1.65,1.44,12,4.03,15,5,1.23.4,2.53-.03,2.8.19.59.47-.46,2.24,1.19,1.8-.55-3.85,2.55.88,2.01-2.99.1.5,1.37,3.9,1.65,4.06,2.12,1.18,11.23,2.96,14.35,3.94,3.39,1.07,8.43,2.32,11,3,3.48.92,4.51,2.59,9.28.96,1.18-.4.63-1.91.72-1.96.41-.24,2.43.4,2.85-.09,1.11-1.28-2.47-23.7-3.85-26.91-.64-1.5.08-1.67-2-3-.83-.53-1.46-.69-2-1-4.59-2.67-1.8-1.06-2-3-.81,3.39,3.21,1.66,6.01,2,.77-4.75-1.43-2.25-3.01-3ZM121.94,143.58c-.6-.62,1.25-5.84-.99-5.99-.2,1.67-1.43,3.72-1.09,5.39.24,1.17,1.83.42,2.08.61.52.39.55,1.63,2,2s3.77.32,2.99-1.49c-.18-.66-.65-.4-.99-.51-.91-.28-3.71.3-4,0ZM33.94,172.58c-5.68.08-4.34,3.74-9,4.01-1.12,3.1,2.33,1.42,2.9,2.04.35.38.29,8.1,2.19,9.91.75.55,10.86-2.71,11.71-4.15,1.55-2.64-2.44-6.56-1.21-9.86-.62-.98-1.91-.66-2.58-.95-1.78-.77-1.67-1.03-4-1ZM257.94,181.58c-2.72-1.68-8.44-2.98-10.81-.82-.59.54-.32,2.65-.87,3.58-.84,1.41-2.13.81-2.38,2.73-.78,5.93,3.11,2.97,4.13,4.03,1.63,1.68-.15,1.51,3.49,3.9,2.69,1.77,3.87,3.63,5.45-1.41.33,0,.67,0,1,0l.5.98c.56-.19.36-.72.5-.98,1.7-3.1,3.25-8.19,1.08-11.38-.69-1.01-1.79-.44-2.08-.62Z"/>
  <path class="cls-1" d="M122.94,74.58c-.13.15-.67-.12-1,0,.35-.36.52-.64,1-1,.01.33,0,.67,0,1Z"/>
  <path class="cls-1" d="M194.94,33.58c.23-1.34.97-.94,1-1-.12.14.29.88-1,1Z"/>
  <path class="cls-1" d="M198.94,29.58h-1c.11-.26-.1-.68,0-1,.39.27.72.87,1,1Z"/>
  <path class="cls-1" d="M163.94,170.58c.47.47-.93,1.59-1,.5-.02-.35.78-.72,1-.5Z"/>
  <path class="cls-1" d="M196.94,30.58c.16-.37.86-.68,1-1-.17.48-.78.7-1,1Z"/>
  <path class="cls-1" d="M163.94,170.58c-.16-1.13.86-.89,1-1-.12.72-.1,1.09-1,1Z"/>
  <path class="cls-1" d="M195.94,32.58c.32-.69.72-1.37,1-2-.27.37-.28,1.16-1,2Z"/>
  <path class="cls-1" d="M128.94,71.58c-.33.09-.74-.11-1,0-.1-.58.15-1.86,0-2,.58.63,1.09,1,1,2Z"/>
  <path class="cls-1" d="M258.94,32.58c.33.07.71-.09,1,0-.31.36-.66.67-1,1s-.66.67-1,1-.72.62-1,1c-.12-.08-1.58-.07-2,0v-2c.36-.24.66-.84,1-1,.58-.27,1.57-.98,2-1,.2,0,.67.93,1,1Z"/>
  <path class="cls-1" d="M260.94,115.58c1.4.11,1.03,1.9.99,3-1.78.46-.61-1.56-.99-2v-1Z"/>
  <path class="cls-1" d="M12.94,111.58c-.06.99.03,2,0,3,5.74-1.9,3.11.29,5.45,2.07.96.73,2.5.66,3.22,1.26,1.86,1.52,1.37,5.8,5.33,4.68-.08.62-.01,1.36,0,2,0,.09-.89.29-.86.51.19,1.45,2.67,2.47,1.86-.51,1.23.21.75,1.4,1,2,.53,1.28.43,2.57,1.5,3.99,1.78,2.35,3.48.87,3.5,5.01-2.18,2.92-.95,4.21-1,6-2.56,2.87-2-2.28-2.99-.99-.28.37-2.74,4.35-2.79,4.62-.19,1.05,1.13,3.02.77,3.37-.3.29-1.84-.81-3.02-.42-2.71.9-5.68,4.41-3.98,7.42-4.49-.09-5.65-1.1-5,4.01-.29.1-.7-.1-1,0-.35-1.03-2.94-1.83-3-2-.14-.42,2.51-2.4-.99-2.01v-.98c3.87.84,2.76-1.77,2.99-2.01.51-.53,1.54-1.6,2-2,.43-.38,2.8,1.02,1.99-2l-2.99.99,1-2.99c6.67,2.61,5.06-4.03,7-7,.53-.81,4.15-.14,3.03-3.51-.13-.4-5.24-1.46.98-1.5.54-2.8-1.03-1.95-3.02-2l1-2.99-2.97.5c.36-.39.93-1.03.98-1.51.27-2.59-3.18-3.01-5.05-5.49-.98-1.3-.83-3.38-.96-3.51-.64-.61-3.82,1.21-3.98,1.01-.17-.22.28-1.54-.11-2.14-1.57-2.4-2.8-2.4-1.9-6.87.67,0,1.33,0,2,0Z"/>
  <path class="cls-1" d="M6.02,137.52c.86.72,3.3-2.94,3.59,1.75.4,6.74-6.51,2.69-4.66-3.69,1.72-.43.61,1.55,1.07,1.93Z"/>
  <path class="cls-1" d="M43.94,199.58c.33-.2,7.08-2.08,7.46-2.04,2.85.28,2.6,2.74,3.85,3.75.57.46,1.52.16,1.68.29,1.62,1.29,2.62,4.22,6,4,.09.14,1.4-.25,1.75.14.33.36-1.26,1.98.19,3.35,1.61,1.51,7.3,4.63,9.06,6.51,2.16,2.31,2.58,6.34,5,6-1.82,1.7-5.28-.82-8,0-1.13-3.29-4.04-3.01-3.01-7-.27-.35-2.51,1.49-2.99,2-.91-4.29-2.26-3.68-4.59-5.92-.92-.89-1.32-2.87-1.51-3.01-.21-.16-2.02.91-2.9.94.14-2.67-1.47-2.52-3.2-3.29-6.83-3.05-4.23.81-9.8,3.29-1.35.6-3.71-1.36-3,2,.61.16,1.58-.18,2,0,.63.28,1.1.74,2,1,.79.71.99,2.31,3,2-.14.28.15.8,0,1-3.15-.79-10.02-2.22-12.82-.66-.38.21-.06,1.59-.18,1.66-.53.31-1.11.34-2,1-.78.58-3.25.65-3.99,2.51l1.99.49s.82.61.51.99c-1.48,1.86-4.09-1.15-6.38.18-.48.28-.61,2.32-1.14,2.84l-4-1c.78-.72,1.22-2.93,1-4,4.83-.69,9.18-6.19,12.59-8.89,2.26-1.78,4.74.25,2.41-4.1,1.15-.46,3.56,1.12,3.88.89.35-.25,3.75-6.09,5.11-6.9Z"/>
  <path class="cls-1" d="M48.94,212.58h-1c-1.32-.36-2.68-.62-4-1-.8-.71-1.95-.9-2-1-.25-.47.32-1.15,1-1,2.09.86,4.04,1.87,6,3Z"/>
  <path class="cls-1" d="M171.94,171.58h3c-2.29,3.08-3.77,6.5.99,3.99.95,10.65,6.48,4.7,6.99,5.02.09.06-.32,1.39.77,1.95,1.16.6,2.94.59,4.25,1.04l-2.02,2.01,1.02,1.99h-4.5c-1.23,4.69,6.42,4.12,9.5,5.01,2.56.74,1.52,1.43,4,2,1.13.26,2.79-.21,4,0,5.11.89,5.72.72,11,1,1.65.09,3.45.46,5,1,.87.3,1.47,2.09,3.5,2.03,1.05-.03-.25-2.47,1.49-2.02.26,5.82,2.38,5.89,7.01,6.99,3.44.82,6.12,1.52,10,1.01-.57,1.45-1.13,2.66,0,3.99-.64.25-2.13-.17-3,0-3.28-4.09-2.36-.99-3,0-.06.09-.65-.04-1,0-.29.04-.72.05-1,0-.9-.16-2.64-.71-4-1-.11-.02-1.41-1.71-1.99-1-.22.26.39,2.01-1.01,3-.17-4.2-5.92-2.93-6.01-6.99l-1,2.99c-1.7.32-.72-1.14-.99-2-.22-.71.51-2.06-.51-2.02-1.74-.17-3.37,1.67-4.49,2.02-5.65-2.21-11.38-1.36-17,0-3.56.86-5.9,1.58-9.31,3.97-.85.6-.6,1.96-.69,2.03-.97.73-3.82,1.48-5,3-2.33-4.4,1.1-2.41,2.52-5.02.79-1.46.19-3.19.48-3.98.12-.32,2.47-.84,2-2.48-.38-1.33-3.24-1.15-3.8-1.78-.71-.79.36-2.66-.71-2.76-2.11-.2-6.32,3.29-9.32,2.31-.49,4.85-1.44-2.47-3.16-.28-.74.93.03,4.55,1.99,5,.75.17,8.65,1.28,8.99.99.16-.13-.09-1.42,0-1.99,1.01.44,1.11.97,1,2-.31.58.35,2.15-.97,3.5-2.61,2.66-10.32,1.54-12.03,5.5-.19.43.12,1.4,0,2v1c-1.35.15-1.22.4-2,1-.16.12-1.16-.14-1,.99.66.04,1.33-.02,2,.01,1,.04,2-.03,3,0-.11.98.06,2.01,0,3,3.34.37,3.25.11,2.99-3h1c.47.96,1.03,1.88,1.01,3l4.99-2s.92.39.7.78-2.63-.36-.71,2.19c-2.2.11-3.57.35-4.99,2.03-3.67-2.21-7.33-.6-11,0l-4-2.51,2.99-1.48-6.99-.02c-.43-1.24.92-2.37,1-2.99,1.16-.22,3.07.31,4,0,.33-.11.81.16.99-.51.4-1.51-.79-1.31-.99-1.49-.85-.77-1.62-.73-2-1-.48-.34-.93-1.8-2-2,.14-.79-.34-2.5.07-2.92.43-.44,2.15.09,2.93-.08,4.6-1.03,4.87-3.42,9-2.01-.27-1.1-2.02-2.76-3-2.99-2.46-.84-8.25-1.93-11-2-.33,0-.67,0-1,0-2.88-.02-4.56.71-7,1-.33.04-.67-.05-1,0-3.93.55-3.89-1.43-7,2,.72-4.53-8.22.22-9.61.86-2.49,1.15-1.25,1.93-1.39,4.14-1.02-.32-2.03-.48-2.99-1l.98,4c-3.48-2.52-3.01,1.02-3.44,1-.69-.04-3.36-1.93-4.1-1.99-.43-.03-.38,1.98-1.03,2.09-1.79.29-3.91-2.95-3.42.91-.04-.07-1.06.21-1.62-.38-.46-.48-.29-1.49-.42-1.58-.51-.36-3.84,1.73-3.96,1.95-2.55-7.35-8.49-.09-13,1-.79-7.77-.78-2.18-5.29-3.15-2.2-.47-2.97-3.47-1.7-4.85.25-.27,1.63,1.01,1.99,1.01,2.55,0,9.25-.34,11.29-1.04,1.15-.39.62-1.91.71-1.96.19-.12,2.06,1.28,2.89.93.19-.08.54-1.47,1.11-1.93,4.74-.21,4.14,2.61,9,1,.72-.24,2.86-.88,3.01-1.51.58-2.51-1.47-1.09-3.01-1.49-.42-.11-1.2-1.36-2.33-1.11-1.25.28-.82,2.56-2.12,2.89-.55.14-1.84-.82-2.55-.78l1-1.99c-3.67.04-5.6,3.07-5.01-2.02-.26-.38-1.44.93-1.99,1.01-.33.05-.68-.05-1,0-1.06-2.5-3.52-3.22-3,0-.65.09-1.81,1.37-3,1,.16-4.93-1.49-3.95-3,0-1.1-.72-2.79-1.61-4-2,.1-.63-.15-1.47,0-2,.41-1.38,1.96-2.82,2-3l15.99-7.01-11.99-.99c-1.79-2.28,1.31-4.51,1-6,.9.16,2.26-.23,3,0,1.58.49,6.5,4.09,8,2.99-.69-.8-.8-2.7-1-2.99,1.53-.12,3.36.65,2.99-.99-3.62.38-.87-1.46-.99-2.01,2.04-.1,3.96-.9,6-1,.33-.02.67-.01,1,0,3.63.15,2.62,1.38,3.26,1.68.99.47.32-1.62,2.74,1.32.16.19-.03,1.24.54,1.99.75,1.01,3.79.79,2.37,2.94-.08.12-3.91.12-1.89,2.06.51.49,5.18-3.73,5.49-5,1.59,4.41,1.07.32,2.18-.02,1.01-.31,2.39.21,3.32.02,4.14-.86,8.29-1.5,12.5-2.04,1.87-.24,4.06,1.26,3.5-1.96.33.01.67,0,1,0,4.73.1,8.86.04,13.47-.06,1.47-.03,2.9,1.07,3.98,1.11s.33-1.77.55-2.06c.3-.39,6.52-2.24,7-6h1Z"/>
  <path class="cls-1" d="M216.94,216.58c1.39,1.76,3,1.46,5,3-1-.01-2,0-2.99.01v.98s3.99,1.01,3.99,1.01v1c-.31-.05-.68,0-1,0-3.47-.09-2.93,3.59,0,3,.09.33-.11.74,0,1-.63-.02-1.43-.1-2,0l-9-3c.15-.25-.16-.84,0-1,.14-.14,1.44.36,1.81-.15.18-.24,1.18-5.55,1.19-5.85h3Z"/>
  <path class="cls-1" d="M219.94,216.58h-3v-1c1.48.37,1.94.65,3,1Z"/>
  <path class="cls-1" d="M199.94,207.58c-.04.54,1.42,1.75,1,1.99-4.21-1.78-4.83,4.76-5,0,.42-.39.71-1.88,1-2,.6-.26,2.15.18,3,0Z"/>
  <path class="cls-1" d="M211.93,220.58h-1.99c-.32-1.47.44-2.08,1.5-2.99l.49,2.99Z"/>
  <path class="cls-1" d="M201.93,219.59c.68.35-.59,1.7-1.99.98-.68-.35.59-1.7,1.99-.98Z"/>
  <path class="cls-1" d="M270.94,88.58c-1.87,1.35-2.68.74-1,3-.96.1-2.83,1.14-2.99,1-.21-.19.18-1.46,0-2,1.49-1.29,2.38-2.39,3.5-4,1.04-.05.23,1.62.5,2Z"/>
  <path class="cls-1" d="M266.94,90.58c-.35.3-.7.84-1,1v-3c.03.11.63.97,1,2Z"/>
  <path class="cls-1" d="M271.94,70.58c-.44.24-.81,2.15-1.99,2-.16-.93.21-2.2,0-3,.67.32,1.33.68,2,1Z"/>
  <path class="cls-1" d="M267.95,83.58c-.67-1.25,1.6-3.49,1.98-3,.67,1.25-1.6,3.49-1.98,3Z"/>
  <path class="cls-1" d="M100.94,219.58c.33,0,.67,0,1,0s.67,0,1,0c2.75.05,10.95-.81,12,1-6.64.14-13.35,0-20,0h-3c-.07-.32.06-.68,0-1,2.99.02,6.01-.01,9,0Z"/>
  <path class="cls-1" d="M111.94,221.58v1c-5.21,0-11.19-.75-16,1-.31-.59-1.04-1.11-1-2h17Z"/>
  <path class="cls-1" d="M168.94,7.58c-.88,2.98,3.78,3.18,3,0h1c2.24,3.59-1.59,5.78-4.98,3.49l2.97,2.5c-9.05,3.47-4.69-2.02-8.99-5.99,2.33-.04,4.67.06,7,0ZM165.44,10.58v1c.65-.33.65-.67,0-1Z"/>
  <path class="cls-1" d="M183.94,15.58c-.07.29,0,.69,0,1h-3c.27-.13.54-.81,1-1,.43-.18,1.39.12,2,0Z"/>
  <path class="cls-1" d="M270.94,208.58c-.4.32-.6,1.68-1,2-.49.4-1.37.73-2,1-.92.39-2.09.44-2.99,1-.79-2.07,1.67-2.37,1.99-3l4-1Z"/>
  <path class="cls-1" d="M271.94,196.58c-1.13.31-1.4,1.29-2,2-.3.36-.7.64-1,1-.39.03-1.54,1.25-1.88.86-.37-.42.05-1.72-.12-1.86,2.29-.91,3.03-4.35,5-2Z"/>
  <path class="cls-1" d="M276.94,201.58l-1.98.51c.77-.76,1.46-1.57,1.98-2.51l.72.48c.04.63-.6,1.09-.72,1.52Z"/>
  <path class="cls-1" d="M272.44,193.58c.65.33.65.67,0,1v-1Z"/>
  <path class="cls-1" d="M243.94,220.58c3.86.16,8.3-.42,12,0,.35,1.66-.75,2.23-2,3-.33-.01-.67,0-1,0-.95-.02-3.29-1.05-6-1-2.35.04-3.46.8-5,1-.92.12-2.03,0-3,0v-1c-.39-.58-.58-1.53-1-2,1.83-1.45,3.92-.08,6,0Z"/>
  <path class="cls-1" d="M52.94,221.58l2,.5c-.74,1.36-2.01,1.09-3,1.5v-1c.32-.34.72-.63,1-1Z"/>
  <path class="cls-1" d="M235.94,216.58c4.17-.45,4.17,1.45,0,1-.06-.32.07-.68,0-1Z"/>
  <path class="cls-1" d="M271.94,104.58l1,1h1c0,.91-1.12,2.72-.93,2.92.33.36,1.75-.11,1.93.08.16.17-.15.76,0,1-1,3.71-6.75,1.56-6.79-.5,0-.54,2.68-2.42,1.78-3.5-.21-.26-1.73.22-2,0-.47-.38-1.56-2.26-2-3h1c1.66.56,3.43,1.24,5,2Z"/>
  <path class="cls-1" d="M5.94,104.58c-.4,3.82-.38,2.03-1,0h1Z"/>
  <path class="cls-1" d="M53.94,224.58c.47.47-.93,1.59-1,.5-.02-.35.78-.72,1-.5Z"/>
  <path class="cls-1" d="M221.94,224.58v-1,1Z"/>
  <path class="cls-1" d="M46.94,230.58l1-1c-.02.68-.57.73-1,1Z"/>
  <path class="cls-1" d="M34.94,217.58h3c.43,1.19-.98,1.89-1,2,.07-1.19-.92-1.1-2-1v-1Z"/>
  <path class="cls-1" d="M23.94,92.58c-.53.12-.94,1.18-3,1v-1l1-1c.43.41,1.44.61,2,1Z"/>
  <path class="cls-1" d="M25.94,85.58c-.18-.8-1.44-1.43-.51-1.98,1.99.94,2.4,1.66,3.49,3.49-.88.65-2.05-1.01-2.98-1.51Z"/>
  <path class="cls-1" d="M41.94,38.58c4.08-1.09,11.41.77,16,.01.26.79-.98.84-1,.99-2,0-4,0-6,0s-4.01.09-6,0c-1.1-.05-2.52.31-3-1Z"/>
  <path class="cls-1" d="M56.94,36.58c-3.23.25-6.86-.36-10,0-3.32-3.06,5.58-1.66,6.01-1.57,1.68.37,3.16,1.39,3.99,1.57Z"/>
  <path class="cls-1" d="M225.94,215.58c.16.18-.17.85,0,1-.94-.06-2.07-.09-3,0v-1c1-.05,2.01.07,3,0Z"/>
  <path class="cls-1" d="M226.94,214.58c.54.15,1.37-.1,2,0-.95.31-.98.86-3,1-.91-.99-2.34-.72-1.99-1.99,1.17-.23,2.09.74,2.99.99Z"/>
  <path class="cls-1" d="M261.94,80.58c-.23.62.57,1.76-.52,2.02-2.18.54-4.19.3-3.48-2.02,1.04-.06,2.65,1.25,4,0Z"/>
  <path class="cls-1" d="M89.94,214.59l-1.01,4-2.99-1.02c-.73-2.33,1.83-2.77,4-2.98Z"/>
  <path class="cls-1" d="M191.94,25.58l-3,3c-1.29-.46-1.31-1.6-1-3,1.33.05,2.68-.08,4,0Z"/>
  <path class="cls-1" d="M243.94,218.58c-7.67-1.15.2-4.01-5.98-6.51,4.09-.98,6.76-4.51,7.98,2.51-.61.12-1.55-.18-2,0,.07-1.3-1.89-1.54-2-.5l1,.5c-.28,1.16.85,2.21,1,3,.06.32-.04.67,0,1Z"/>
  <path class="cls-1" d="M173.94,215.58c1.15-1.12,3.24.42.5,2-.86.13-.57-1.92-.5-2Z"/>
  <path class="cls-1" d="M234.94,191.58c-.43,1.43-1.54,1.99-3,2-.96-.68-7.3.38-9,1,.12-1.24-4.25-1.4-6-3,.33-.02.67.01,1,0,4.9-.18,12.37-.58,17,0Z"/>
  <path class="cls-1" d="M248.94,209.58l-1,1c-.61-.77-2.89-1.42-3-2.99,2.37-.32,2.87.24,4,1.99Z"/>
  <path class="cls-1" d="M241.94,202.58c-.67,0-1.33,0-2,0v-1c.2.19,1.69-.09,2,1Z"/>
  <path class="cls-1" d="M224.94,218.58c-1.21-.37-1.85-.95-2-1l2,1Z"/>
  <path class="cls-1" d="M159.94,52.58c1.34.31,2.66.67,4,1,1.68.41,3.23.92,5,1-.53,4.43,2.85,6.01,6.63,6.66s3.56.95,5.05,1.32c2.89.73,6.49.66,7.32-2.49l-.99-1.49c.48.85,4.21,1.78,5,2,4.9,1.39,10.18,1.95,15,3.5,1.31.42,5.28,3.25,5.99,2.5,3.57-3.76-12.79-7.36-14.99-7.01-.28-1.31,1.26-1.12,1.99-1.99.26-.31.21-1.61,1-2,2.35,4.43,1.58.23,2.64-.03.5-.13,9.89-.17,10.36.03.24.1-.42,5.05,3,0,.27.02.97.04,1,0l2.99,1c-.43,5.71,4.93,3.98,8.01,4-.93,1.45-1.86,2.21,0,3,.43.18,1.4-.12,2,0,.17.44.54.9,1,1,.35.07.79-.12,1,0,.26.14.91-.16,1,0,.49.83.06,4.4,1.98,5.51-1.18.44-2.52-.75-3.98-.51-1.27.21-1.69,1.83-2,2-1.57.83-2.44,1.24-4,0-.22-.98-1.58-2.32-1.01-4l-1.98,1.99-2.01-2.99.49,3c-1.96.35-1.67-2.72-4.48-3-1.37,3.19,1.69,4.22,1.75,4.48.24,1.01.17,4.11.24,5.52.34,7.15.93,11.68,2.01,18.46.28,1.76.17,3.5,1.99,4.54-1,2.27-6.08-2.43-9-1-.38.01-1.05,1.38-1.02,1.99l-.99-1.99c-1.83-.44-.37,2.12-1.49,2.01-.61-.06.34-3.36-5.5-1.01-2.52-1.51-5.98.15-7.44.04-1.1-.09-.06-1.96-1.06-2.05-.79-.07-.52,1.56-1.5,2.01l-5.91-7.57c-.77-1.49-5.14-2.43-4.08.05.56,1.31,7.56,7.21,8.99,7.51-1.28,2.32,1.78,6.88,4,8-.44.16-1.32,1.55-2,2-.2.14-1.11-.25-1.74.27-.49.41-.11,1.55-.26,1.73s-1.64.32-2,1c-.08-.12-1.83-1-2-1l-.07-2.93c-1.3,1.51-6.63-3.53-6.93-4.07-.74-1.37-2.9-9.63-3.56-11.94-.74-2.54.75-6.51-2.43-6.08l3.99-2.98c1.75,4.45,4.8,3.63,3.99,1.52-1.2-3.12-3.98-6.08-2.99-10.52-2.41-1.49-2.12,4.01-2,5h-1c.03-2.81-3.05-3.53-5-5,1.57-.79,6.34-2.65,6.56-2.94,2.62-3.37-2.53-3.59-3.91-5.01-.89-.92-.22-2.59-1.32-3.07-2.52-1.1-5.47.21-6.73,0-.73-.12-.55-1.67-.76-1.76-.93-.42-3.34,2.55-2.85-1.22l-2.99,2v-3.02c-2.37,1.76-1.55-.36-2.78-.93-4.84-2.21-1.72-1.09-5.22-4.06v-3c2.08.33,3.91.52,6,1ZM166.43,55.6c-.99.7.54,1.37,1.02,1.96.99-.66-.47-1.32-1.02-1.96ZM214.44,66.58v1c.65-.33.65-.67,0-1Z"/>
  <path class="cls-1" d="M126.94,38.58v-1l.98.5c-.18.57-.53.45-.98.5Z"/>
  <path class="cls-1" d="M129.93,49.58c-.35.68-1.7-.59-.98-1.99.35-.68,1.7.59.98,1.99Z"/>
  <path class="cls-1" d="M127.44,46.58c.65.33.65.67,0,1v-1Z"/>
  <path class="cls-1" d="M91.93,79.58c-.35.68-1.7-.59-.98-1.99.35-.68,1.7.59.98,1.99Z"/>
  <path class="cls-1" d="M226.94,146.58c-.34-2.38-5.9-6.3-1-6.01.22-1.99-2.48-.05-1.99-1.98,3.82.46.71-2.46,1-5.01,4.78-1.48,11.62,2.04,9.97,7.49-.17.58-.65.39-.97.51,1.03-2.82-3.12-2.77-4.55-.99-.7.87.55.86.55.99-.02,1.58-.35,4.04-.02,5.34.3,1.21,2.45,0,2.02,1.65-3.57-.39-.87,1.14-.99,2.4-.1.98-4.11,4.93-5.08,6.08-.72.84-.82,1.48-.92,2.53-.2,2.07,2.73,2.98,3,5,.04.31.01.68,0,1,0,.11-1.31,1.1-1,2-1.73-.06-3.4,1.45-4,3-5.55.39-3.31,0-4-3,1.23-.36,5.09-2.28,3.98-3.98-.06-.09-1.36.23-2.01-.71-.58-.83-.43-2.25-1.26-3.05-.48-.46-1.54-.12-1.71-.26-.18-.15-.23-1.66-1-2-3.78-1.65-9.35-.46-10,4-9.23-1.98-3.89-2.4-2-7s-.49-2.41-.98-3.01c-1.82-2.24,1.82-1.87,1.98-1.99,3.06-2.43,5.03-6.2,10-5,.22.05,3.78,1.86,4,2l1,1c.33.22.64.7,1,1,3.01,2.54,5.7,2.95,5-2Z"/>
  <path class="cls-1" d="M240.94,163.58c.92.06,2.32-.21,3,0,.83.25.73.26,1,1-5.53-.04-10.55,1.52-16,0,2.83-1.67,8.44-1.22,12-1Z"/>
  <path class="cls-1" d="M202.94,103.58c1.85-1.85,3.98.19,5.53-.16,2.47-.55-2.34-1.35,4.43-.28.57.09,7.55-.58,5.04,2.43-.16.2-2.81-1.52-3.99-.99l3,4.5c.09,1.05-1.75.24-2,.49-1.15-1.25-4.42-.66-5-1-.11-.06.15-1.46-.2-1.63-1.74-.82-5.21-.91-6.8-3.37Z"/>
  <path class="cls-1" d="M197.94,118.58c.3.04,4.66-1.8,3,3h-4c-.25-.47.53-2.04-.5-2-1.68,4.98-3.55,4.73-8.5,3-.52-.18-1.09-1.22-1.99-1.01v-.98s2.99-.02,2.99-.02v-.98s-3-.02-3-.02c-.25-.79.98-.84,1.01-.99,4.49,2.79,4.93-1.07,6.44-1.08,1.43,0,3.07.87,4.56,1.08Z"/>
  <path class="cls-1" d="M214.94,110.58c-.67.79-1.69,1.59-2,2,.22-.22-.15-1.02-.5-1-1.09.07.03,1.47.5,1-.29.38,0,1.83-.95,2.55-.78.6-1.95-.59-2.05-.55.07-.65-.1-1.38,0-2,.16-.97,1.1-1.74,0-3l5,1Z"/>
  <path class="cls-1" d="M226.94,79.58c.02.34-1.12,1.45-1.01,2.37.09.8,3.83,3.39,4.01,3.63,1.43,1.93,1,4.75.99,7l-3.99-2.99-.49,3.99c-4.03-3.87-3.59-6.22-2.19-11.22.47-1.68.21-3.26,2.67-2.77Z"/>
  <path class="cls-1" d="M59.94,135.58c-.33.01-1.33-.83-2-1,.46-.79.95-1.98,1.99-2v3Z"/>
  <path class="cls-1" d="M57.94,143.58c-.46,1.79-1.66,1.59-3,2,.2-.63.95-1.47,1-2h2Z"/>
  <path class="cls-1" d="M110.94,111.58c3.05-.19,4.14-.71,4.74,2.72,1.07,6.08-2.66.86-2.74,5.28-1.72-.12-3.36-.51-5-1,.53-1.08.43-2.46.81-3.69.35-1.15,1.9-2.27,2.19-3.31Z"/>
  <path class="cls-1" d="M113.94,120.58c-.49,1.32-1.91.94-3,1-.99.05-2.01.01-3,0,1.11-1.73,4.11-.91,6-1Z"/>
  <path class="cls-1" d="M209.94,27.58c2.69.82,4.82,2.12,1,2-.28-.68-.76-1.31-1-2Z"/>
  <path class="cls-1" d="M101.94,116.58v1c-4.28.59-5.14-2.94,0-1Z"/>
  <path class="cls-1" d="M191.94,175.58l1,.99h-10c3.19-1.54,5.44-1,9-.99Z"/>
  <path class="cls-1" d="M185.94,173.58c1-.02,2,.01,3,0-1.84,2.02-5.55.68-7.99.99v-.98c1.66-.04,3.33.01,4.99-.01Z"/>
  <path class="cls-1" d="M203.93,163.58c-.07.07-2.12.38-1.99-.49,1.56-2.73,3.13-.67,1.99.49Z"/>
  <path class="cls-1" d="M229.94,187.58l1,3c-4.32.12-8.68-.08-13,0v-1c1.65-.12,3.37.17,5,0,1.91-.2,2.28.73,2-2,1.64-.07,3.4.17,5,0Z"/>
  <path class="cls-1" d="M215.94,186.58c.27.74,1.04,1.43.9,2.4l-.9.6c-1.28-1.33-1.83-3.19-4-4v-1c1.12.79,2.79,1.24,4,2Z"/>
  <path class="cls-1" d="M205.94,182.58l1,1c.78.74,2.33,2.26,3,3,.59.65,4.24,4.78,4,5-1.52-.35-2.5-1.91-3,0-.23.89.58,2.16,1,3-.3-.07-.66.04-1,0-.55-.07-1.42-.95-2-1-.37-.63-.59-1.39-1-2,.66.07,2.05.35,2-.5-1.3-1.21-2.09-2.9-3.99-2.5-.25.2,1.57,2.34,2,2.99-1.07-.12-2.07-.46-3-1s-1.66-2.53-3-3c-.06-.34.08-.7,0-1h2.51s-.5-4.99-.5-4.99c1.89-.59,1.71.77,2,.99Z"/>
  <path class="cls-1" d="M201.94,190.58c.39.24.68.67,1,1,.76.8,1.27,2.11,2,3-1.24.01-2.49-.98-3-1-.25-1.09-1.54-1.46-2-2-.42-.49-.61-1.41-1-2,.87.39,1.97.36,3,1Z"/>
  <path class="cls-1" d="M201.94,107.58v3c-.76.08-1.66-.95-2-1,.1-1.19.29-1.55-1-2,.18-.42.91-.76,1-1,.49.4,1.74.65,2,1Z"/>
  <path class="cls-1" d="M208.44,109.58c.65.33.65.67,0,1v-1Z"/>
  <path class="cls-1" d="M201.94,111.58c0,.33-.04.68,0,1h-1c-1,.01-2-.02-3,0-.32,0-.69-.05-1,0v-1h5Z"/>
</svg>