<?xml version="1.0" encoding="UTF-8"?>
<svg id="Layer_1" data-name="Layer 1" xmlns="http://www.w3.org/2000/svg" viewBox="0 0 461.58 542.95">
  <defs>
    <style>
      .cls-1 {
        fill: #010101;
      }

      .cls-2 {
        fill: #555348;
      }

      .cls-3 {
        fill: #1c1c1c;
      }

      .cls-4 {
        fill: #030303;
      }

      .cls-5 {
        fill: #020202;
      }

      .cls-6 {
        fill: #0b0b0b;
      }

      .cls-7 {
        fill: #1d140d;
      }

      .cls-8 {
        fill: #040404;
      }

      .cls-9 {
        fill: #1f1f1f;
      }

      .cls-10 {
        fill: #fcfcfc;
      }

      .cls-11 {
        fill: #090909;
      }
    </style>
  </defs>
  <path class="cls-7" d="M270.69.05c-.18,1.2,1.96.57,2.82.76.73.16,1.32.82,2.14.93,1.48.2,2.72-.57,3.88-.67.22-.02.46-.01.68,0-.11.79.11.94.68.34,22.51,4.21,41.77,32.7,52.71,51.15,3.43,5.79,6.53,11.9,9.01,18.19.77,1.96.87,4.12,2.39,6.11,2.11,2.76,6.33,1.57,8.97,3.61,4.01,3.09.16,9.54,2.9,12.05.88.8,2.23.63,2.62,1.6,15.99,1.15,32.03.7,48.03.42,5.78-.1,14.68.8,19.99-.4,4.07-.92,3.17-4.4,4.17-7.39.92-2.74,4.97-7.15,7.98-7.15.07,0,.32.48,1.08.28.6-.16,2.13-.91,1.98-1.64.19-.05.48.05.68,0,.4.37.97.45,1.37.84,1.79,1.79.87,7.29,1.36,9.86.06.34,1.13,1.92,1.36,2.06,1,.63,2.35-.59,3.3-.78,1.94-.39,4.1.41,5.53-1.61.28-.4,1.95-5.11,1.95-5.51,0-1.17-1.79-2.29-1.63-3.31,1.58-1.69,4.01.12,4.07,2.05.02.44-.28,3.29-.38,3.64-.2.7-2.11,2.12-.95,3.3-.13.27-.16.66-.34,1.02l-2.67,2.94-.05,1.48c-.11.19-.19.43-.34.68-.58-.03-.8-.12-.68.51l.34.17c-1.23,2-2.43,3.86-3.74,5.78-1.12.31-2.93,2.26-3.41,3.22s-.17,1.38-.33,1.88c-.61,1.93-3.38,5.51-4.68,7.38-9.53,13.67-20.91,27.28-31.7,40.03-2.59,3.06-9.04,8.6-9.51,12.59-.2,1.67.52,3.41-1.01,4.77-.85.76-2.24.65-3.3,1.12-2.81,1.23-2.67,4.5-3.94,6.93-.72,1.37-1.88,2.26-2.56,3.56-1.54,2.91-.83,4.79-1.08,7.76-.57,6.63-.66,11.54-3.4,17.51-1.19.02-1.3,1.74-2.29,1.99-.9.23-1.69-.63-2.8-.12-1.94.88-1.97,6.67-1.72,8.51.12.92.71,1.39.89,2.17.71,3.05-1.21,6.54-.21,9.07.18.45.43.97,1.03.82-1.1,7.9-4.16,21.16-7.48,28.22-.85-.21-.88.66-1.02,1.36-.04.21.04.48,0,.68-.79-.01-.91.42-1.19,1.02-1.03,2.23-1,4.78-.51,7.14-1.92,7.96-4.74,11.43-7.45,17.6-2.9,6.59-2.78,15.62-4.27,22.86-.99,4.82-1.23,7.86-5.11,11.2-7.4,6.36-17.53,7.8-26.81,8.88-3.16.37-5.26,2.91-3.95,6.08-1.39.76-.41,3.73.15,4.78.63,1.17,3.87,3.3,3.93,3.56.05.21-1.62,1.96-1.04,4.03.09.34.96.2,1.4.69.78.85.82,2.86,1.26,3.85.33.76,1.18,1.13,1.58,1.82.22.38,2.75,6,2.84,6.34.73,2.87-.57,3.9,1.64,7.2.61.92,2.14,2.01,2.49,2.61,1.32,2.28,2.14,5.53,3.3,7.92,3.01,6.17,9,10.34,14.6,13.95l7.36,9.8c.78.46,2.06-.37,2.75-.21.57.13,1.51,1.56,2.09,2,.45.34,1.1.25,1.52.52.33.21,3.21,5.52,3.9,6.64.34.55.25,1.34.71,2.01.64.92,4.99,3.86,6.14,4.06,1.22.21,4.68-.68,5.9-1.2,1.53-.66,2.98-2.85,4.72-3.44,2.7-.91,6.13.01,8.92-.77,6.88,16.27,6.63,35.57,9.61,53.11.51,2.98,1.43,5.99,1.95,9.1-.94-.19-.63.94-1.52,1.04-1.79.2-.81-1.21-.86-1.89-.07-.84-2.44-8.78-2.79-9.45-.31-.6-1.06-.65-1.23-1.14-.49-1.38.68-6.57.6-8.42-.05-1.26-1.2-2.58-1.35-3.75-.23-1.69.38-9.32-.04-9.99-2.82-2.08-9.18-1.85-11.68-3.78-1.18-.91-1.11-2.47-1.61-3.49s-2.83-4.29-2.91-4.55c-.45-1.37.56-4.28-.54-5.25-.12-.11-2.66-1.25-2.81-1.27-3.38-.46-7.48-.4-10.67-1.56-3.37-1.23-10.68-1.44-13.36-3.3-.58-.41-.8-1.21-1.39-1.67-1.77-1.4-2.93-1.72-4.78-3.72-3.56-3.87-6.93-6.53-10.71-10.02-1.86-1.72-2.3-3.17-3.55-4.61-.08-.09-1.77-1.46-1.88-1.51-1.47-.69-3.98.72-4.63,1.98-.44.86-.28,1.98-.64,2.59-.22.37-.92.49-1.19.85-2.56,3.52-4.65,10-6.28,14.12-.5,1.26-1.83,2.98-2.12,4.34-.19.92.08,1.88-.09,2.56-.09.36-.8.38-1.04.73-2.65,3.82-3.73,10.05-6.39,14.36-.94,1.52-3.84,4.16-4.31,5.21-.41.91.02,1.92-.24,2.82-.18.61-1.03.87-1.22,1.49-.48,1.57,1.34,4.09.97,6.75-.15,1.1-.77,1.15-.96,1.76-.28.92-.61,3.73-.35,4.61.41,1.37,3.59,2.9,4.36,3.89,1.41,1.81,1.87,10.01,1.71,12.51-.33,4.89-4.09,9.55-3.06,15.27.09.52.56.88.64,1.39.12.77,0,3.33.44,3.81.14.15.69.1.89.29,1.22,1.13,2.27,1.65,3.28,2.5.94.8,1.61,2.77,2.77,3.69,1.44,1.16,5.61,3.55,7.36,4.54s5.89,2.38,7,3.54c.57.59,2.31,4.31,2.59,5.22s.18,3.18.47,3.59c.98,1.41,2.63,1.98,4.3,1.87,4.48-.29,11.84-3.2,16.06-4.69,2.39-.84,5.79-1.21,8.42-2.12,9.28-3.2,17.68-10.19,24.65-16.83.95-.9,3.49-3.45,4.07-4.43,1.73-2.93.14-2.05,3.37-4.11,1.71-1.09,1.42-1.91,4.13-1.35,3.34.7,1.9,4.39,2.51,7.01.31,1.34,2.01,2.82,2.17,3.62.12.61-.36,1.29-.21,2.21.82,5.25,3.64,10.31,3.68,15.73.01,1.71-1.9,9.26.23,9.97,2.93.98,3.52-1.1,5.13-1.56,1.13-.32,2.67-.05,3.82-.77.02.09.57.42.61.9.56,5.81.42,11.62.41,17.46h-9.52c.07-1.72.15-4.76-1.57-5.74-2-1.15-3.26.91-5.36.95-.37,1.99-2.15,1.31-3.68,1.84-2.11.72-2.74,1.65-5.61,2.23-.63.13-1.33-.3-1.13.73h-17.34c.39-1.3,2.88-4.71,1.34-5.59-3.18-1.82-9.3-1.98-12.75-3.91-8.54-.22-16.99-.29-25.47-.04-1.38.04-2.45,1.01-3.51,1.28-2.8.71-6.27,1.21-8.88,2.68-.85.48-1.01,1.34-1.5,1.75-.2.17-.77.02-.86.12-.13.14-.46,3.06-.73,3.71h-196.84c.09-1.09.1-4.04-1.1-4.54-.28-.12-4.48-.93-4.84-.92-2.62.07-2.31,2.58-4.1,1.73-.75-2.86,1.13-2.03,2.65-2.46,1.09-.31,2.09-1.59,1.94-2.79-.04-.31-.64-2.64-.76-3.01-.52-1.58-2.93-1.93-4.02-2.78-.73-.57-1.23-1.89-1.83-2.25-.69-.42-1.49-.2-2.09-.63-.35-.25-1.78-2.81-1.5-3.09,1.61-.03,2.63-1.22,4.34-1.27,3.39-.11,4.22,2.27,6.38,3.98s4.57,3.79,7.44,3.38c5.07-.74-1.22-3.99-2.49-4.93-4.45-3.28-8.84-5.72-13.58-8.52-1.9-1.13-4.29-1.5-5.8-2.36s-4.23-4.7-5.96-5.94c-2.01-1.43-6.53-3.63-8.96-4.65-.39-.17-1,.02-1.34-.17-.23-.13-.41-1.08-1.11-1.44-1.3-.65-3.41-.37-4.82-.62-4.7-.82-9.36-2.19-14.07-2.93-.99-.15-2.11.13-3.02-.04-1.17-.22-4.09-2.5-5.26-2.9-.79-.27-1.76-.17-2.62-.44-.73-.23-4.11-1.66-4.49-1.35-.17.13.19.76-.38.61l.73-34.28c1.36-.08,2.1-1.89,3.18-2.09,1.44-.26,5.64-.69,7.13-.71,1.17-.02,3.01,1.02,3.94-.12.29-.36.18-1.15.51-1.24.7-.19,5.75.74,6.73,1.09.52.19,2.82,1.34,3.09,1.67.62.75.42,1.78.78,2.62.78,1.82,3.04,1.57,4.58,2.22,3.94,1.66,8.06,3.69,11.79,5.89,1.43.84,4.38,3.47,5.9,3.96.99.32,2.5.11,2.9.33.98.56,2.81,4.34,3.97,5.04.65.39,1.37.35,2,.72,4.14,2.45,9.09,6.62,12.48,9.96.82.81,1.89,3.46,2.7,4.44.51.62,4.9,4.46,5.35,4.53,2.45.38,1.28-2.76.58-3.99-.67-1.16-2.89-3.8-3.36-4.8-.31-.65-.15-1.45-.56-2.16-.35-.62-1.07-.72-1.23-.97-.48-.74-.27-2.98-.95-3.98-.51-.74-1.39-.63-1.88-1.18-.59-.67-.56-2.14-1.04-3.04s-3.26-3.03-3.35-3.45c-.26-1.19,3.03-.97,3.73-.67,2.31,3.6,4.7,6.82,6.76,10.58,1.88,3.42,3.79,7.24,4.87,10.76.2.65,1.67,1.98,1.89,2.87.69,2.8.71,2.63,1.68,5.12.38.97.31,2.46.76,3.23.31.53,2.04,1.84,2.54,2.64,1.54,2.42,2,3.13,3.75,5.43s2.86,6.11,4.61,8.31c2.46,3.1,2.66-.39,2.3-2.64-.24-1.5-1.43-3.4-1.55-4.94-.08-1.1.33-2.3.27-3.64-.13-2.54-2.07-6.95,0-9.19,1.02-1.1,3.57,1.6,4.24,2.58.33.49,2.57,4.36,2.73,4.74.33.76.09,1.56.56,2.5,1.22,2.43,5.08,3.47,5.6,8.37.11,1.07-.64,4.82,1.59,4.02,2.43-.87.37-3.02.22-4.17-.3-2.28,1.01-2.68,1.03-3.4s-1.19-2.13-1.28-3.15.69-2.12.59-3.28c-.11-1.39-1.04-6.38-1.44-7.77-.54-1.88-2.36-2.8-2.51-4.9-.04-.57.27-1.19.2-1.94-.21-2.31-3.63-5.51-4.88-7.73-1.71-3.02-.69-3.73-4.77-5.43-2.08-.87-3.6-1.08-5.72-2.12-2.64-1.29-6.23-2.81-8.65-4.25-1.4-.84-1.78-2.12-2.64-2.8-1.04-.83-2.78-.39-3.6-1.84-1.06-1.87.5-3.11.3-4.36-.12-.8-.99-1.2-1.22-1.85-.84-2.4-1.64-4.87-2.56-7.3-.78-2.07-3.54-4.32-4.81-6.41-.3-.49-1.75-3.14-1.55-3.38.92-.02,1.82-.65,2.71-.17,1.79,2.24,6.14,4.5,7.67,6.61,1.05,1.45.72,3.32,3.11,3.31.63,0,2.79-1.31,3.16-1.77.49-.61.25-1.32.67-2.05.24-.42,6.26-6.05,6.98-6.61.78-.61,1.68-.6,2.41-1.33,1.11-1.12,2.38-3.79,3.54-5.2.54-.65,1.67-1.32,2.38-2.13.84-.96.42-2,2.21-1.9,2.37.13.97,4.07,3.48,4.74.55.15,4.33-1.8,4.47-2.03.46-.8-.98-1.41-1-2.49,0-.58.51-2.11.87-2.56,1.12-1.39,2.9-1.1,4.23-1.55,3.03-1.01,4.24-3.62,5.54-6.03.66-1.21,1.69-.84,1.26-3.45-.19-1.15-1.61-4.22-1.64-5.44-.01-.61.41-1.21.3-2.03s-1.1-1.44-1.28-2.15c-.26-1.02.12-2.61-.42-3.58-.31-.57-3.34-1.93-4.16-1.88-.61.04-5.57.93-6.06,1.09-.82.27-.88,1.12-1.24,1.22-.5.14-1.11-.12-1.79.17-1.26.55-.58,2.3-3.23,2.23-.96-.02-4.28-.62-5.28-.87-2.65-.66-5.65-3.92-8.32-3.94-.68,0-1.32.38-1.96.3-.85-.11-2.5-1.06-3.56-1.21-4.02-.55-8.62,3.98-12.39,5.13-.82.25-2.26.1-2.68.38-.39.27-.23,1.29-.88,1.5-1.05.35-3.24.29-4.53.91-.53.25-.88,1.06-1.63,1.43-1.85.91-4.93,1.73-6.52,2.66-2.1,1.23-2.93,4.69-6.13,4.56-.52-1.6-2.49-4.02-3.77-5.24-.53-.5-1.66-.46-1.7-1.38,0-.68,2.8-3,3.43-3.75.48-.57,1.29-1.49,1.7-2.02.89-1.14,1.18-2.76,2.59-3.87,1.57-1.24,2.65-.35,4.11-.99.81-.35.89-1.13,1.21-1.34,1-.65,3.01-1.23,4.1-1.85.74-.42,1.42-1.49,2.27-1.8.76-.28,1.58-.11,2.29-.43.66-.3.84-1.13,1.46-1.6,1.49-1.12,6.21-2.6,8.44-3.8,1.04-.56,2.93-1.45,3.75-2.03,1.72-1.2,4.07-5.32,5.92-7.17,1.09-1.09,5.26-3.97,5.68-4.69.62-1.08.36-2.55.85-3.57.46-.96,2.15-1.73,2.69-2.41s.48-2.02,1.45-2.31c1.07-.32,2.18.32,2.82,1.14.32.41,2.11,4.37,2.24,4.91.4,1.68-.79,3.4.46,4.88.5.59,1.36.36,1.87.94.11.12,1.48,2.5,1.62,2.8.41.9.16,2.07.94,2.82,2.82.12,1.39-2.78,1.35-4.43-.02-1.06-.08-2.31.09-3.33.57-3.35,3.94-4.28,2.21-8.49-.24-.59-2.43-2.36-3.07-2.71-.55-.31-4.97-2.49-5.25-2.56-1.46-.36-3.24.08-4.91-.53-1.14-.42-1.92-1.74-2.83-1.93-.49-.1-3.85-.66-4.08-.65-.62.02-1.7.96-2.17.62-.08-.06-.42-1.39-.75-1.8-.98-1.22-6.73-2.18-8.54-2.68-.45-.13-.72-.69-1.2-.84-3.02-.99-20.07-.74-24.04-.42-2.38.19-8.99,2.03-10.85,3.36-.35.25-.11.88-.23,1.01-.2.2-.97-.03-1.33.05,1.29-4.13-1.37-4.04-4.42-4.76,2.74-.92,6.21.07,8.99-.36.18-.03,2.48-.74,2.59-.82.39-.27.14-1.12.53-1.23.4-.11,1.11.13,1.65,0,1.16-.27,4.65-.94,5.36-1.35.45-.26.45-.82.74-1.03.91-.68,4.72-.22,6.17-.31,9.5-.54,17.95-1.81,27.42.08,4.83.96,11.18,2.53,15.21,4.86.25.15.23.66.62.81,4,1.52,7.09-2.63,8.84,3.32.79,2.69.88,6.51,1.67,9.21.91,3.11,3.53,6.46,4.1,9.83,1.61,9.53,3.72,19.32,5.17,28.83.18,1.18-.19,2.61.03,3.71.15.79,1.08,1.28,1.28,2.47.18,1.1-.24,1.93-.16,2.59.4,3.07,2.63,8.29,2.63,10.95,0,1.06-.59,1.43-.72,2.34-.35,2.49.22,5.94,2.4,7.49.53.37,1.87.79,2.5.75,4.17-.25,7.98-6.67,11.46-9.21.35-.26,1.06-.22,1.7-.68,1.99-1.44,4.31-6.11,6.46-7.48.9-.57,3.79-.85,5.07-1.39,3.56-1.49,2.16-3.59,4.08-5.78.62-.71,1.99-1.31,2.73-2.03,1.26-1.23,2.36-2.84,3.57-3.91,1.37-1.21,3.58-2.12,4.94-3.22,1.43-1.16,2.71-3.82,4.51-5.18.59-.45,3.66-2.47,3.92-1.26l-.3,9.16c.19,1.49,3.86,4.9,5.13,5.41,1.05.42,2.99.07,3.92.84.54.44.51,1.34.87,1.85,1.96,2.74,6.99,7.12,10.41,7.61.8.12,2.09.28,2.81-.08.91-.45,2.62-6.2,3.04-6.48.7-.46,4.09.28,4.72-1.75.19-.63.07-2.14-.51-2.51-.22-.14-4.74-1.35-5.05-1.37-1-.04-1.73.77-2.01.71-.69-.14-.96-2.78-2.04-3.42-.86-.51-2.44-.41-3.72-1.04-1.5-.73-2.62-2.99-3.91-.42-.78,1.54.04,4.11-3.21,3.12-2.4-.73-1.26-6.26-1.24-7.91.04-3.83.28-5.56.68-9.18.21-1.87-.7-2.87.38-4.72.31-.53,1.51-1.95,1.97-2.44,3.07-3.24,5.01-4.01,8.75-5.87,3.22-1.6,2.44-4.33,3.93-5.76,1.22-1.17,5.14.67,6.2-1.79.85-2-1.23-3.47-2.15-4.97-.37-.6-.32-1.35-.71-2-.52-.85-3-3.16-4.11-2.39-.64.44-.61,3.57-2.31,2.51-.38-.24-1.71-4.84-2.18-5.8-.93-1.9-1.89-3.82-2.82-5.68-.85-1.71-3.16-3.59-3.96-5.22-.56-1.14-.64-2.46-1.12-3.64-1.39-3.34-4.66-5.73-5.76-8.52-.41-1.04.07-2.1-.36-3.04-.75-1.64-2.27-2.21-3.53-2.92-1.55-.88-.7-1.98-1.22-2.86-.38-.64-2.69-3.55-3.38-4.44-.31-.4-1.02-.55-1.22-.89-.45-.74-.15-1.72-.49-2.48-.42-.92-1.73-.7-2.07-2.72-.63-3.7,5.1.24,6.3,1.21,2.41,1.92,1.05,1.72,4.52,2.95.49.17,3.83,2.13,3.61.14-.06-.54-1.35-3.27-1.31-3.45.36-2.07,2.37,1.77,2.6,1.83,2.33.68,3.8-4.07,4.07-5.75.16-1.03-.25-1.82.13-2.88.35-.96,1.78-4.12,2.37-4.78.46-.51,2.02-1.56,2.7-1.72.45-.1,3.76-.2,4.24-.14,2.24.28,7.64,3.47,9.98,4.67.57.29,1.39.23,2.1.62s2.61,2.4,3.16,2.64c3.83,1.67,7.93,3.08,11.84,4.46,1.16.41,2.14,1.91,3.78,2.34,5.04,1.3,9.39-.23,14.37-.09,1.92.67,5.11,2.86,6.91,3.31,3.15.8,2.77-3.91,2.45-5.86-.15-.91-.92-1.4-1.01-2.08-.21-1.68.99-2.18-.68-4.39-.95-1.26-2.75-1.66-3.4-3.05-.41-.88-.34-1.61-.66-2.41-.43-1.08-4.26-4.52-5.34-5.2-1.58-.98-4.94-.87-5.41-2.76-.28-1.14.88-3.54.46-5.55-.46-2.16-3.56-8.41-3.65-9.61s.78-3.03.69-4.76c-.08-1.49-1.2-3.2-1.04-4.38s1.88-1.76,1.3-3.69c-.12-.41-1.97-2.28-2.45-2.99-1-1.49-1.88-3.4-2.92-4.81-.62-.84-2.95-2.61-3.07-3.51s.54-1.86.34-3.01c-.22-1.29-1.98-4.85-1.96-6.09,0-.56.6-1.44.64-2.44.06-1.94-1.02-3.51-.68-5.76.18-1.22,2.24-5.52,2.91-6.95.36-.78,1.64-2.22,1.76-2.66.49-1.74.4-5.13.82-7,.39-1.76,3.47-2.56.1-5.34-3.75-3.09-10.8-5.66-15.38-7.4-.96-.37-2.05.39-2.4-1.36s.95-2.15,1.23-3.39c.22-1.01-.01-2.15.16-3.24.22-1.38,1.07-2.59,1.24-3.86.58-4.21.33-8.5,1.01-12.92.63-4.08.87-6.48-4.47-5.49-3.06.57-1.16,2.86-.95,4.52.55,4.28-1.2,12.39-1.68,16.98-.21,2.03.42,4-.71,5.92-1.13.04-1.68-.89-2.85-1.36-1.64-.66-3.71-.78-5.41-1.31-1.7-3.6-2.17-7.78-7.3-6.26-2.21.66-4.17,2.47-5.92,3.25-1.35.61-4.55,1.03-5.54,1.6-4.56,2.62-6.37,8.54-8.18,12.9-.46,1.1-5.89,11.35-6.33,11.86-.25.29-.89.16-1.3.66-1.04,1.27-1.72,4.95-3.22,6.55-.6.64-1.52.75-1.72,1.03-.28.39.12.96,0,1.38-.58,1.99-3.09,5.39-4.02,7.49-.47,1.07-.44,2.44-1.08,3.68-.47.9-5.6,6.29-6.4,6.86-.59.41-1.29.22-1.88.5-5.63,2.63-5.14,10.24-7.14,14.62-.91,1.99-3.66,3.19-2.56,5.59.19.41.88.76,1.18,1.19.66.93,1.97,2.18,2.19,2.57.48.82.31,2.18.71,3.03.31.66,1.54,1.35,2.01,2.07s.54,1.72,1.05,2.35c.21.26,3,2.16.99,2.73s-3.02-4.33-3.75-5.41c-.79-1.17-2.14-1.73-3.04-2.74-1.55-1.72-3.05-4.53-4.58-6.3-2.4-2.77-4.94-3.62-8.64-3.2-1.7.19-3.78,1.47-4.79,1.67s-2.51-.25-3.35.05c-.62.22-.39,1.16-1.12,1.6-.82.5-4.3,1.33-5.37,1.42-6.41.56-15.61.55-22.12.34-8.75-.28-17.33-2.49-25.83-2.4-.57,0-1.51-.22-1.86.35-12.02-2.19-19.08-5.09-29.15-11.82-6.03-4.02-8.65-5.86-12.67-11.98.47-.81-.13-3-.51-3.74-.28-.54-1.14-.64-1.36-1.02-.57-.97.55-2.75-1.87-2.38-.36-1-.87-1.72-1.2-3.05-2.33-9.23-1.81-23.49-1.19-33.17.19-2.99.87-7,1.37-10.02.76-.09,1.64-.95,2.04-1.53,1.4-2.01,2.71-6.15,3.63-8.61.29-.76.2-1.98.44-2.56.18-.44.84.04,1.14-.63.52-1.13.29-4.03,1.09-5.7.5-1.05,2.45-1.92,3.03-2.75,1.25-1.81.99-4.57,2.56-6.28.55-.59,1.41-.8,1.93-1.3,1.43-1.38.89-2.32,1.4-3.87.13-.4,2.77-4.33,3.01-4.47,1.04-.61,2.89-.65,3.7-1.74.34-.46,1.26-2.9,1.67-3.77.7-1.48.25-.99,1.35-2.38,2.8-3.54,5.17-6.98,7.83-10.53.73-.97,1.49-2.87,2.23-3.55.65-.6,1.63-.65,2.24-1.5.49-.67.41-1.34.84-1.88.62-.78,2.47-1.44,3.07-2.03,1.23-1.2,1.12-3.37,1.69-4.09.61-.77,2.09-.76,2.91-1.17,1.32-.66,1.24-1.77,2.2-2.56,1.02-.84,2.09-.62,3.02-1.06,2.3-1.06,4.22-3.78,5.78-5.43,1.34-1.42,6.44-3.92,8.42-5.69,1.87-1.67.35-1.02,3.34-2.61,1.38-.73,2.73-3.2,2.95-3.34,1.14-.77,4.54-2.45,6.08-3.26,3.72-1.96,3.75-1.41,7.58-1.94,2.4-.33,2.83-2.03,4.3-2.84,3.64-2,5.42-2.94,8.84-5.43,1.55-1.13,8.53-4.24,10.36-4.6,1.5-.3,6-.05,6.96-.52,1.48-.73,2.51-5.64,3.74-6.13.54-.22,1.39.27,2.17.18.86-.1,1.3-.85,1.81-.96.58-.12,2.82.35,4,.27.65-.05,4.72-.8,5.06-.99.53-.3,0-1.2.27-1.67.78-1.31,6.13-.94,7.56-1.11,1.25-.15,2.67-.97,3.79-1,1.36-.04,2.64.51,4.37.32,1.12-.12,5.73-.97,5.28-2.48-.06-.2-2.74-2.8-2.94-2.85-.3-.09-3.29-.38-3.69-.36-1.25.04-2.4,1.46-4.14.72-2.17-.92-.3-3.61-1.16-4.12-.49-.29-1.96.29-2.69-.62-.26-.32-.96-2.24-.99-2.69-.04-.68.31-1.23.3-1.7-.04-1.06-.44-1.66-.23-2.94.41-2.53,2.05-1.43,2.94-2.85.94-1.49,1.85-4.09.59-5.6-1.77-2.12-7.46,1.64-6.17-2.37,1.03-3.21,3.46-.04,5.63-.81.75-.68,4.7-3.1,4.93-3.58.64-1.31-.08-6.72.16-8.68.13-1.1,2.45-4.81,3.39-5.45s2.12-.49,2.71-1.39c.66-1-.54-2.44.53-3.53.77-.78,1.57.08,2.38.01,1.64-.13,2.47-3.98,3.39-5.12,1.36-1.69,4.1-.67,4.8-4.06.43-2.05-3.82-3.2-2.39-6.79.05-.11,1.22-1.98,1.32-2.08.81-.89,1.89-.68,2.56-1.18.55-.41.64-1.5,1.18-1.88.97-.69,3.48.07,4.45-2.02,1.22-2.65-2.63-1.41-3.74-1.36s-2.75-.19-3.74,0c-.88.17-1.47,2.19-3.57,1.36-.32-2.76,2.74-2.29,4.21-2.77.46-.15.43-.89.79-.98,2.73-.68,6.41-.6,9.04-1.09,1.22-.23,2.24-1.06,3.86-1.24s3.48.17,5.03-.06c.31-.05,2.15-.62,1.89-1.34.79,0,1.6-.05,2.38,0,.6.04,2.63,1.16,2.38-.34,1.02-.01,2.04-.01,3.06,0ZM276.1,3.48c-.89-1.07-5.39.24-6.63.27-5.67.15-6.51-.56-12.35,1.24-1.12.35-3.12-.18-2.74,1.51,3.79-.12,7.6-.1,11.39-.34,1.22-.08,2.5-.66,3.74-.7,1.39-.04,5.62,1.02,6.47-.3.2-.31.3-1.48.12-1.68ZM311.75,70.83c-2.27.33-2.34,3.04-1.54,4.77.93,2.01,2.89.48,4.18.28.93-.14,2.2.2,2.99-.07.63-.21,1.93-2.18,1.42-3.01-.97-1.55-3.4-1.17-4.75-1.37-.84-.13-.89-.8-2.3-.6ZM333.14,72.86c-1.17.36-1.88,2.65-1.53,3.78.34,1.07,3.39,2.05,4.54,1.96.6-.04,3.87-1.04,4.07-1.38.86-1.42-3.12-4.2-4.46-4.39-.68-.1-2.01-.16-2.63.03ZM296.83,83.04c-.29-.47-2.48-.16-2.87-.7-.59-.82.66-3.99-1.98-5.16-1.84-.81-5.4.23-7.3.75.02,1.53-.52,5.07,1.05,5.83,2.06,1,3.35-.88,3.81-.77.23.05.84,1.31,1.65,1.77,2.14,1.2,6.9.28,5.63-1.73ZM281.91,85.38c-.38-1.21-1.21-5.36-2.26-5.72-1.24-.42-6.34,0-8.12-.04-.9-.02-4.45-.88-4.92.23-1.25,2.97,1.89,3.53,4.25,3.53,3.04,0,2.15-.34,5.26.49,1.93.51,3.87.95,5.78,1.52ZM351.54,80.69c-.97-.55-2.94-.21-3.25,1.19-.59,2.68,1.48,4.69,4.17,4.17,1.98-.38-.65-5.21-.92-5.36ZM371.4,164.51c-.15-.09-.14-.66-.64-.87-.43-.19-2.86-.53-3.29-.43-.35.09-.79,1.83-.87,2.26-.8,4.27-.32,9.51-1.07,13.89-.22,1.26-1.17,2.77-1.34,4.44-.36,3.68,1.16,10.07.34,13.19-.09.33-.74.3-.96.81-.62,1.43-.83,8.3,1.41,7.91,1.52-.27,2.05-5.83,2.93-4.73-.31,1.28.73,2.02.71,3.21-.03,1.37-1.13,2.33-1.32,3.51-.33,2.06.76,4.14-1.08,6.38-1.47,1.78-2.64-.27-4.93.17-2.07.4.14,2.32.58,3.16.33.63.56,2.43,1.14,2.61,1.12.19,1.36-1.21,2.37-1.36,1.56-.23,1.7,1.28,2.71,1.38,2.88.3,1.54-3.64,1.86-5.27.15-.74.8-.94.95-1.43.25-.84-.02-4.26.78-4.84.47-.34,2.07.82,2.33-.23.17-.71-.62-3.7-.25-5.33s3.2-3.28,1.3-5.19c-1.44-1.45-2.8.15-2.4-3.73.09-.9.58-1.63.65-2.4.28-3.14.14-3.46.97-6.51.57-2.09.04-8.91.61-9.58.29-.34.82-.48,1.13-.92,1.36-1.94.1-3.51.4-5.38.13-.82,1.08-1.7,1-2.04-.04-.17-2.32-1.89-2.71-2.06-1.12-.5-2.97-.37-3.33-.59ZM337.24,172.83c.53.63.53,3.89.4,4.81-.27,1.87-2.1,3.07-1.7,5.14,1.83,4.35-.45,10.3.38,14.6.33,1.71,1.6,1.4,2.5.14.39-.55,2.88-6.73,2.92-7.31.19-3-.94-1.36.98-4.43,1.35-2.16,1.72-1.7,2.6-2.84.61-.8,4.51-7.38,4.59-8.02.11-.87-.56-1.68-.29-2.62.15-.52,3.06-3.69,3.51-4.68.53-1.16-.51-2.42-1.7-2.4-.73.01-1.13.61-1.72.7-4.37.66-9.1-.45-13.74,1.22-1.67.6-1.72,1.02-1.29,2.97.48,2.21,1.94,1.98,2.55,2.71ZM384.76,171.39c-1.32.39-.31,7.19-.6,8.59-.32,1.56-2.21,2.56-2.29,3.83.61,2.69.29,5.78.69,8.46.18,1.19,1.14,2.26,2.05,1.07.62-.81.19-2.34.34-3.4.27-1.84.73-3.68,1.03-5.76.49-3.39,1.98-8.56.45-11.75-.24-.5-1.07-1.22-1.67-1.04ZM304.26,173.81c-1.42.2-2.14,2.66-2.27,3.9-.2,1.81.84,3.09.66,5.06-.13,1.47-1.12,2.55-1.32,4.12-.59,4.66-.05,10.48-.38,15.26-.27,3.88-.88,8.32-1.38,12.21-.24,1.81-1.73,4.99.51,6.34,2.77,1.66,3.18-3.11,3.49-5.06.63-3.95.3-7.03.47-10.72.05-1.09.82-2.38.97-3.48,1.01-7.29.21-14.36.4-21.36.03-1.1,2.02-6.73-1.14-6.28ZM354.8,223.95c-1.88-3.34-2.63-5.99-7.37-4.9-1.1.25-1.08,1.06-1.34,1.21-.55.3-2.47.83-3.28,1.3-3.65,2.08-8.83,6.04-13.39,5.17-1.63-.31-1.89-1.55-3.97-.07-1.4,1-2.08,2.99-1.7,4.66.11.48,4.11,4.69,5.07,4.84,2.38.76,4.84-1.42,7-1.86,4.06-.82,8.46-1.41,12.6-2.02,1.83-.27,3.43.5,4.51-1.61.39-.77.27-1.51.57-2.15.53-1.13,2.46-1.54,2.05-3.79-.1-.57-.66-.62-.75-.77ZM368.19,227.55c-.12-.19-.9-.27-1.13-.74-.45-.94.22-2.36-.86-3.22-3.04-2.42-4.77,1.87-3.91,4.59.47,1.47,4.01,3.34,5.64,3.23.44-.33.51-3.45.26-3.86ZM198.06,503.38c3.08,1.43,4.26-1.92,6.08-2.66,2.42-.99,5.59-1.96,8.09-2.79,1.33-.44,3.62-2.27,4.06,0,.72,3.7-4.48,3.14-6.74,3.78-.7.2-3.29,1.91-3.12,2.65.39,1.7,6.95,1,8.31,1.22.49.08.87.53,1.41.63,4.57.8,8.92,1.55,13.55,2.09,2.68.31,6.03-.71,8.46.72.64.38,1.02,1.1,1.6,1.46,2.12,1.34,3.53.54,5.57.89,1.13.19,2.27,1.52,3.09,1.67,1.64.31,4.24.07,6.08.38,2.41.41,5.5,2.22,7.82,1.29,2.03-.81,1.54-1.73,2.28-3.16,2.68-5.2,4.44-10.78,6.16-16.28l5.64-11.39c.25-2.37-2.34-2.83-3.64-4.02-3.35-3.05-1.11-6.85-2.46-9.44-.18-.35-2.28-2.78-2.66-3.11-2.75-2.41-1.93-1.04-4.08-4.42-2.65-4.15-6.08-5.78-8.66-9.36s-3.34-8.99-5.88-12.47c-1.06-1.44-2.15-1.5-3.32-2.46-.92-.75-1.08-2.57-3.22-1.54-.83.4-.88,2.03-1.67,2.75s-2.82.93-3.26,1.84c-.47.98.07,2.42-.24,3.5-.36,1.28-3.3,3.37-3.82,4.67-.45,1.14-.12,4.17-1.78,4.68s-2.75-.49-2.85-2.13c-.25-3.89,3.51-3.98,4.73-6.87.48-1.14.2-2.24.71-3.03.59-.93,2.24-.9,2.77-1.65.11-.15,1.25-3.31,1.27-3.5.08-.6-.31-1.14-.29-1.64.05-1.11.57-1.72.17-2.85-.79-2.25-1.88-2.34-3.65-3.16-.45-.21-.73-.72-1.17-.88-1.44-.52-1.01.45-1.49,1.07-.96,1.21-1.01,1.78-1.65,2.78-.56.87-1.69,1.3-2.13,2.63-.62,1.89.09,2.66.05,4.13-.02.67-.89,4.66-1.16,5.3-.97,2.31-4.17,3.23-5.06,5.13-.76,1.63-.97,3.97-1.6,5.71-2.16-.04-4.2.95-6.28,1.37-1.27.25-2.88-.42-3.9.86-.51.64-.43,1.62-1.17,2.23-1.54,1.29-4.44,1.62-5.42,2.34-.39.29-.12.96-.21,1.06-.07.08-1.02-.36-2.05-.2-3.37.51-3.71,2.4-8.67,2.25-2.23-.07-8.28-.35-10.17-.71-.82-.15-1.19-.87-2.39-1.01-1.58-.19-6.2-.39-6.9.93-2.06,3.89,4.73,3.72,6.06,6.03.75,1.3,0,2.11-.03,3.4-.09,3.91-.34,9.16,0,12.95.21,2.31,1.74,3.86.68,6.43l-.16,19.22c.61.81,1.41.99,2.37,1.04,3.43.18,7.33-1.52,9.71-3.92.7-.7.88-1.55,1.51-2.23.7-.76,2.19-1.6,2.57-2.19.78-1.18.05-3.04,1.8-2.56.26.07.27.49.35.53ZM294.73,433.25c-.15-.19-2-1.46-2.31-1.59-2.96-1.31-5.1.12-8.01.35-1.12.09-3.45-.87-4.12.71-.13.3-.44,3.74-.38,3.95.14.54,1.99,1.16,2.56,1.7,2.37,2.22,1.15,1.78,4.51,3.48,1.73.88,1.82,2.12,4.56,1.09,1.78-2.75,3.63-4.04,3.66-7.58,0-.7-.01-1.54-.47-2.11ZM80.31,488.9c3.41.7,3.35-2.01,3.7-4.63.24-1.85.64-5.06-.5-6.56-.61-.8-1.57-.83-2.15-2.27-1.14-2.83,1.21-2.77,1.83-4.22.28-.65.07-1.38.35-2.03.77-1.81,5.99-3.07,1.95-5.36-1.7-.96-3.29-.53-5.01-1.79-2.43-1.78-.43-3.1-2.57-4.57-.56-.39-3.97-1.5-4.52-1.46-.41.03-1.18.53-1.56.78-1.57,1.06-3.53,2.39-5.22,3.28-2.62,1.37-4.42.9-4.64,4.9-.14,2.68,4,1.04,4.3,4.43.13,1.46-1.37,2.43-1.79,3.51-1.55,4.03-1.01,7.01-.83,11.04.06,1.3-.82,1.8.18,3.56.27.48,1.03.91,1.16,1.22.33.82-1.58.35-1.36,1.35.04.18,2.24,2.51,2.47,2.63,1.43.78,2.46.19,3.66.39,2.18.36,2.24,2.51,5.27,1.91.97-.19.96-1.25,1.68-1.72.47-.31,1.06-.28,1.52-.52,1.29-.69,1.79-1.62,3.77-1.16.19-1.39-1.61-1.53-1.7-2.72ZM152.97,460.43c-1.03.17-3.79,1.25-3.67,2.45.08.75,4.1,3.51,4.98,3.59,1.22.11,6.6-3.38,6.61-4.59.01-1.89-6.61-1.67-7.93-1.45ZM167.68,468.51c-3.49.48-7.82.45-11.12,1.62-2.06.73-3.19,2.18-2.25,4.42.28.66,3.07,1.94,3.82,2.66.55.52.72,1.27,1.17,1.72,1.43,1.44,2.7,1.51,4.64,1.33.26-.84,2.35-3.33,2.4-3.78.19-1.94-2.65-3.05-.36-5.77.69-.82,1.96-.92,1.7-2.2ZM297.49,478.79c-.41.02-2.01.28-2.32.43-1.93.94,0,8.97,1.86,9,.53,0,1.42-.56,1.69-1.03.89-2.97,4.61-8.62-1.23-8.4ZM284.37,497.48c-.48.49-1.15,3.34-1.96,4.32-1.32,1.6-3.58,1.11-2.47,4.87.19.65,1.35,1.07,1.25,1.71-.03.16-1.34,2.71-1.5,2.94-.47.68-1.68,1.15-1.82,1.6-.19.6.34,1.54.33,2.31-.02.88-.6,1.62-.69,2.43-.14,1.43.66,3.1,1.93,3.79,2.24,1.22,6.46,2.52,9.02,3.56.66.27,1.27,1.03,1.87,1.19,3.49.96,4.91-4.1,4.36-6.74-.11-.54-2.21-4.31-2.61-4.87-.83-1.18-2.2-1.66-2.79-3.67-.84-2.84.74-3.47.74-5.21,0-.3-1.4-5.39-1.58-5.85-.51-1.25-2.77-3.73-4.07-2.4Z"/>
  <path class="cls-2" d="M377.78,542.95h-52.36c.27-.65.6-3.57.73-3.71.09-.1.66.05.86-.12.49-.42.65-1.27,1.5-1.75,2.61-1.47,6.08-1.97,8.88-2.68,1.06-.27,2.14-1.24,3.51-1.28,8.47-.25,16.93-.18,25.47.04,3.45,1.93,9.57,2.09,12.75,3.91,1.54.88-.95,4.29-1.34,5.59Z"/>
  <path class="cls-7" d="M12.65,542.95c.1-2.07-.15-4.22,0-6.28.09-1.25,1.43-7.37,1.32-7.77-.22-.76-1.49-1.03-2.14-.54-.89.68-.64,4.21-2.58,1.52,1.97-1.23.98-3.14,1.43-4.7.16-.55,1.31-1.92,1.54-2.88,1.28-5.62,2.34-7.6,4.65-12.68.29-.64,1.81-7.26,2.85-3.81.67,2.22-1.03,8.48-1.28,11.15-.6,6.27.33,15.25-1.03,21.01-.07.28-.62.09-.7.72-.17,1.29.17,2.93.03,4.27h-4.08Z"/>
  <path class="cls-2" d="M412.46,542.95h-17.34c-.2-1.03.5-.6,1.13-.73,2.87-.58,3.49-1.51,5.61-2.23,1.53-.52,3.31.16,3.68-1.84,2.1-.03,3.36-2.09,5.36-.95,1.72.98,1.64,4.01,1.57,5.74Z"/>
  <path class="cls-2" d="M123.14,280.17c.35-.56,1.29-.34,1.86-.35,8.5-.09,17.08,2.12,25.83,2.4,6.51.21,15.71.21,22.12-.34,1.07-.09,4.55-.92,5.37-1.42.72-.44.49-1.38,1.12-1.6.84-.3,2.38.15,3.35-.05s3.09-1.48,4.79-1.67c3.7-.42,6.24.43,8.64,3.2,1.53,1.77,3.03,4.58,4.58,6.3.9,1,2.25,1.57,3.04,2.74.73,1.09,1.82,5.97,3.75,5.41s-.79-2.48-.99-2.73c-.51-.63-.56-1.6-1.05-2.35s-1.69-1.42-2.01-2.07c-.41-.85-.23-2.21-.71-3.03-.23-.38-1.54-1.64-2.19-2.57-.31-.44-1-.78-1.18-1.19-1.1-2.4,1.65-3.6,2.56-5.59,2-4.38,1.51-11.99,7.14-14.62.6-.28,1.3-.08,1.88-.5.8-.56,5.93-5.96,6.4-6.86.65-1.24.61-2.61,1.08-3.68.93-2.11,3.44-5.5,4.02-7.49.12-.42-.27-.99,0-1.38.2-.28,1.12-.39,1.72-1.03,1.5-1.6,2.18-5.27,3.22-6.55.41-.5,1.05-.36,1.3-.66.44-.51,5.87-10.76,6.33-11.86,1.81-4.36,3.62-10.27,8.18-12.9.99-.57,4.19-.99,5.54-1.6,1.76-.79,3.71-2.6,5.92-3.25,5.12-1.52,5.6,2.66,7.3,6.26,1.7.53,3.77.65,5.41,1.31,1.17.47,1.73,1.39,2.85,1.36,1.12-1.92.5-3.89.71-5.92.47-4.6,2.22-12.7,1.68-16.98-.21-1.66-2.11-3.96.95-4.52,5.34-.99,5.1,1.41,4.47,5.49-.68,4.42-.43,8.71-1.01,12.92-.18,1.27-1.02,2.48-1.24,3.86-.17,1.1.06,2.23-.16,3.24-.27,1.23-1.59,1.55-1.23,3.39s1.44.99,2.4,1.36c4.59,1.74,11.63,4.31,15.38,7.4,3.37,2.78.3,3.58-.1,5.34-.42,1.87-.33,5.26-.82,7-.13.44-1.4,1.87-1.76,2.66-.66,1.43-2.72,5.73-2.91,6.95-.34,2.25.74,3.82.68,5.76-.03,1-.63,1.88-.64,2.44-.02,1.23,1.74,4.8,1.96,6.09.2,1.16-.46,2.12-.34,3.01s2.45,2.67,3.07,3.51c1.04,1.4,1.92,3.31,2.92,4.81.48.72,2.33,2.58,2.45,2.99.59,1.93-1.13,2.47-1.3,3.69s.96,2.89,1.04,4.38c.1,1.73-.78,3.52-.69,4.76s3.19,7.45,3.65,9.61c.43,2.01-.74,4.42-.46,5.55.46,1.89,3.83,1.78,5.41,2.76,1.09.67,4.91,4.11,5.34,5.2.32.8.25,1.53.66,2.41.65,1.4,2.45,1.8,3.4,3.05,1.67,2.21.47,2.71.68,4.39.09.68.86,1.17,1.01,2.08.32,1.95.71,6.66-2.45,5.86-1.8-.45-4.98-2.64-6.91-3.31-4.98-.14-9.33,1.39-14.37.09-1.64-.42-2.62-1.93-3.78-2.34-3.91-1.37-8.01-2.79-11.84-4.46-.55-.24-2.46-2.24-3.16-2.64s-1.53-.34-2.1-.62c-2.34-1.19-7.74-4.39-9.98-4.67-.49-.06-3.8.04-4.24.14-.68.16-2.24,1.21-2.7,1.72-.6.66-2.03,3.83-2.37,4.78-.38,1.05.03,1.85-.13,2.88-.27,1.68-1.73,6.43-4.07,5.75-.23-.07-2.25-3.9-2.6-1.83-.03.18,1.25,2.91,1.31,3.45.22,1.98-3.12.03-3.61-.14-3.48-1.23-2.12-1.03-4.52-2.95-1.21-.96-6.93-4.91-6.3-1.21.34,2.02,1.65,1.8,2.07,2.72.35.76.05,1.74.49,2.48.2.34.91.49,1.22.89.7.9,3,3.8,3.38,4.44.52.87-.32,1.98,1.22,2.86,1.26.72,2.79,1.28,3.53,2.92.43.94-.05,2,.36,3.04,1.11,2.79,4.37,5.18,5.76,8.52.49,1.17.56,2.49,1.12,3.64.8,1.64,3.1,3.52,3.96,5.22.93,1.86,1.89,3.77,2.82,5.68.47.96,1.8,5.56,2.18,5.8,1.7,1.06,1.68-2.07,2.31-2.51,1.1-.77,3.59,1.54,4.11,2.39.4.66.34,1.41.71,2,.93,1.49,3.01,2.97,2.15,4.97-1.05,2.47-4.98.62-6.2,1.79-1.49,1.43-.7,4.16-3.93,5.76-3.75,1.86-5.69,2.63-8.75,5.87-.47.49-1.66,1.91-1.97,2.44-1.08,1.86-.17,2.85-.38,4.72-.4,3.62-.64,5.35-.68,9.18-.02,1.65-1.15,7.18,1.24,7.91,3.25.99,2.43-1.57,3.21-3.12,1.29-2.57,2.41-.31,3.91.42,1.28.63,2.86.53,3.72,1.04,1.08.64,1.35,3.28,2.04,3.42.28.06,1.01-.75,2.01-.71.31.01,4.83,1.23,5.05,1.37.58.37.7,1.88.51,2.51-.62,2.04-4.02,1.29-4.72,1.75-.42.28-2.13,6.02-3.04,6.48-.72.36-2.01.19-2.81.08-3.42-.49-8.45-4.87-10.41-7.61-.36-.51-.33-1.41-.87-1.85-.94-.77-2.88-.41-3.92-.84-1.27-.51-4.94-3.92-5.13-5.41l.3-9.16c-.26-1.21-3.33.82-3.92,1.26-1.8,1.36-3.08,4.02-4.51,5.18s-3.56,2.01-4.94,3.22c-1.21,1.06-2.31,2.68-3.57,3.91-.74.72-2.1,1.32-2.73,2.03-1.92,2.19-.52,4.29-4.08,5.78-1.28.54-4.17.82-5.07,1.39-2.15,1.37-4.47,6.04-6.46,7.48-.64.46-1.35.43-1.7.68-3.48,2.54-7.29,8.97-11.46,9.21-.63.04-1.97-.37-2.5-.75-2.18-1.55-2.75-5-2.4-7.49.13-.91.72-1.28.72-2.34,0-2.65-2.23-7.88-2.63-10.95-.09-.67.34-1.5.16-2.59-.2-1.18-1.13-1.68-1.28-2.47-.21-1.1.15-2.53-.03-3.71-1.45-9.51-3.56-19.29-5.17-28.83-.57-3.37-3.2-6.72-4.1-9.83-.79-2.7-.88-6.52-1.67-9.21-1.74-5.95-4.84-1.8-8.84-3.32-.38-.15-.36-.66-.62-.81-4.04-2.34-10.38-3.9-15.21-4.86-9.47-1.89-17.92-.63-27.42-.08-1.45.08-5.25-.37-6.17.31-.29.21-.29.78-.74,1.03-.71.41-4.2,1.08-5.36,1.35-.53.12-1.24-.12-1.65,0s-.14.96-.53,1.23c-.11.08-2.41.79-2.59.82-2.79.43-6.26-.56-8.99.36-.69-.16-1.99.08-2.32-.91-.18-.52-.15-2.38.01-2.94.43-1.46,3.3-.81,4.52-.92,5.24-.47,9.61-1.15,14.28-3.74,1.17-.08-.73,1.78.68,1.71,1.57-.08,3.69-.88,5.45-1.02s3.84.24,5.46.02c.63-.08.43-.63.73-.7.43-.1,1.16.14,1.41-.06.12-.09.75-2.32,1.06-2.84.42-.72,3.17-3.81,3.9-4.6.94-1.01,2.08-.95,2.88-1.54.87-.64,1.42-2.43,2.05-3.05,4.57-4.51,11.92-8.06,16-13.24.67-.84.92-2.44,1.54-3.22.28-.35,3.41-2.72,3.74-2.75.84-.09,1.41.62,1.77,1.29,1.75,3.22,1.98,8.17,3.95,11.19.31.47,1.3,1.03,1.71,1.85,1.37,2.76,1.15,5.11,3.46,8.1.27.35,2.25,2.47,2.19.88-.07-1.83-3.51-7.18-2.23-9.03s2.63,1.85,3.14,2.02c.86.28,1.88-.55,2.49-.15.14.09,1.61,2.61,1.65,2.82.15.9-.89,1.57-.59,2.58.19.64.99.71,1.33,1.17.28.39,1.76,2.59,1.85,2.81.38.96-.19,2.7.74,3.01,1.57.52,2.69-1.11,2.85-2.5.13-1.12-.65-3.85,1.13-3.51,1.47.28,3.34,4.77,4.3,5.54,1.5,1.18,2.45-.38,3.5-.12,1.53.38.9,4.7,4.13,4.02,1.63-.34,2.03-3.05,3.06-4.42,1.2-1.58,2.5-2.14,4.26-2.89.12-.52-1.29-1.5-1.65-2.08-.4-.64-.46-1.45-.91-2.15-2.96-4.55-3.07,2.45-6.08,2.04-2.56-.35-.53-3.85-.27-5.02.36-1.64.16-2.97,1.08-4.7,2.34-4.39,5.47,1.42,7.32,3.25,1.34,1.33,5.65,5.45,6.99,6.27,1.24.75,3.49.59,4.08,1.02.71.51-.26,2.06,1.17,3.25.51.43,4.6,2.17,5.06,2.01.38-.71,1.22-2.18,1.48-2.96.36-1.07.5-2.86.78-3.91.05-.18,2.03-1.88,1.69-2.97,2.43-.05.48,2.07,1.7,3.91,1.37,2.08,4.17,2.41,6.24,1.14.58-.36,2.27-2.4,2.45-2.99.43-1.39.4-2.1,1.02-3.75s-.36-1.2-.82-1.92c-.6-.93-1.92-4.03-2.33-5.16-.78-2.14-.16-3.05-1.68-5.46-.45-.72-3.06-3.96-3.62-4.23-.91-.45-1.06.29-1.79.43-1.37.26-1.55-.31-2.46-.57-1.16-.34-1.78.39-2.24-1.19-.18-.61.21-2.89.68-3.01,2.1-.5,4.65,3.79,7.26,2.74-.65-2.24-2.34-2.6-3.74-3.9-5.1-4.73-11.41-8.66-17.57-11.65-1.86-.91-4.68-.52-6.54-1.63-1.1-.66-2.31-2.48-3.44-3.36-3.52-2.75-8.28-4.97-11.73-7.98-.48-.42-.36-1.16-.71-1.42-.92-.68-4.38-.3-5.56.03-.33-1.84-.72-3.84-2.48-4.83-3.02-1.69-13.09-.79-17.08-.94-10.49-.39-21.8-1.19-32.11-3.07ZM223.43,312.8c.12-.13-1.07-2.83-1.21-3.04-.28-.43-1.11-.67-1.53-1.19-.84-1.06-2.36-3.64-3.57-3.92-1.74-.39-2.16.67-1.44,2.11.48.95,1.33,1.11,1.92,1.83.49.6.67,1.59,1.05,2.01.47.51,4.43,2.57,4.77,2.19ZM168.7,359.72c-.05-1-.23-2.1-.5-3.06-.48-1.65-2.15-4.64-2.49-6.01-.14-.6-.49-5.54-1.93-5.2-1.07.25-1.05,4.98-.78,5.88.18.6,1.06,1.03,1.43,1.63,1.22,1.98,2.33,4.05,3.42,6.11.26.48-.02.83.85.66Z"/>
  <path class="cls-2" d="M420.96,524.6c-1.15.72-2.7.45-3.82.77-1.61.46-2.2,2.53-5.13,1.56-2.13-.71-.21-8.26-.23-9.97-.04-5.41-2.86-10.47-3.68-15.73-.14-.92.33-1.6.21-2.21-.16-.8-1.86-2.29-2.17-3.62-.6-2.62.83-6.31-2.51-7.01-2.71-.57-2.42.26-4.13,1.35-3.23,2.05-1.64,1.18-3.37,4.11-.58.98-3.12,3.53-4.07,4.43-6.97,6.63-15.37,13.63-24.65,16.83-2.63.91-6.03,1.27-8.42,2.12-4.21,1.49-11.58,4.4-16.06,4.69-1.67.11-3.32-.47-4.3-1.87-.28-.41-.18-2.67-.47-3.59s-2.02-4.63-2.59-5.22c-1.11-1.16-5.18-2.52-7-3.54s-5.92-3.38-7.36-4.54c-1.15-.93-1.83-2.9-2.77-3.69-1.01-.85-2.06-1.37-3.28-2.5-.21-.19-.75-.14-.89-.29-.44-.48-.31-3.04-.44-3.81-.08-.51-.55-.88-.64-1.39-1.04-5.72,2.73-10.38,3.06-15.27.17-2.5-.29-10.7-1.71-12.51-.77-.99-3.95-2.52-4.36-3.89-.26-.88.07-3.69.35-4.61.19-.6.8-.66.96-1.76.37-2.67-1.45-5.18-.97-6.75.19-.62,1.05-.89,1.22-1.49.26-.9-.17-1.91.24-2.82.47-1.04,3.37-3.69,4.31-5.21,2.65-4.32,3.74-10.55,6.39-14.36.24-.34.95-.37,1.04-.73.16-.68-.11-1.64.09-2.56.29-1.36,1.62-3.08,2.12-4.34,1.63-4.12,3.72-10.6,6.28-14.12.27-.37.97-.48,1.19-.85.37-.61.2-1.73.64-2.59.65-1.27,3.16-2.67,4.63-1.98.11.05,1.8,1.42,1.88,1.51,1.26,1.44,1.69,2.89,3.55,4.61,3.79,3.49,7.16,6.16,10.71,10.02,1.85,2.01,3.01,2.32,4.78,3.72.59.46.8,1.27,1.39,1.67,2.68,1.86,9.99,2.08,13.36,3.3,3.19,1.16,7.29,1.11,10.67,1.56.16.02,2.69,1.17,2.81,1.27,1.11.97.1,3.88.54,5.25.09.26,2.43,3.59,2.91,4.55s.44,2.58,1.61,3.49c2.5,1.94,8.86,1.7,11.68,3.78.42.67-.19,8.3.04,9.99.16,1.17,1.3,2.49,1.35,3.75.08,1.85-1.09,7.04-.6,8.42.17.49.92.54,1.23,1.14.35.67,2.72,8.61,2.79,9.45.05.68-.93,2.09.86,1.89.9-.1.59-1.23,1.52-1.04,1.12,6.69,1.28,13.47,2.47,20.14,1.76,9.9,5.66,18.23,6.92,28.36.08.62-.38,1.45-.21,2.15Z"/>
  <path class="cls-2" d="M262.87.39c.26.72-1.58,1.29-1.89,1.34-1.56.24-3.39-.12-5.03.06s-2.64,1.01-3.86,1.24c-2.62.49-6.31.41-9.04,1.09-.36.09-.32.83-.79.98-1.47.48-4.53,0-4.21,2.77,2.1.83,2.68-1.19,3.57-1.36.99-.19,2.6.05,3.74,0s4.96-1.3,3.74,1.36c-.96,2.09-3.47,1.32-4.45,2.02-.54.39-.63,1.48-1.18,1.88-.67.5-1.75.29-2.56,1.18-.1.11-1.27,1.97-1.32,2.08-1.43,3.59,2.82,4.73,2.39,6.79-.7,3.39-3.44,2.37-4.8,4.06-.92,1.14-1.75,4.99-3.39,5.12-.81.06-1.61-.8-2.38-.01-1.07,1.09.13,2.54-.53,3.53-.6.9-1.76.74-2.71,1.39s-3.26,4.35-3.39,5.45c-.23,1.96.48,7.37-.16,8.68-.23.48-4.18,2.9-4.93,3.58-2.17.78-4.6-2.39-5.63.81-1.28,4,4.4.25,6.17,2.37,1.26,1.51.35,4.1-.59,5.6s-2.53.32-2.94,2.85c-.21,1.28.19,1.88.23,2.94.02.46-.34,1.02-.3,1.7.03.45.73,2.37.99,2.69.73.91,2.2.33,2.69.62.86.51-1.01,3.2,1.16,4.12,1.74.74,2.89-.68,4.14-.72.4-.01,3.39.28,3.69.36.2.06,2.88,2.66,2.94,2.85.45,1.51-4.16,2.36-5.28,2.48-1.73.19-3.01-.36-4.37-.32-1.12.03-2.54.86-3.79,1-1.43.17-6.78-.21-7.56,1.11-.27.46.26,1.37-.27,1.67-.34.19-4.41.95-5.06.99-1.18.09-3.42-.39-4-.27-.51.11-.95.85-1.81.96-.78.09-1.63-.4-2.17-.18-1.23.49-2.26,5.4-3.74,6.13-.96.47-5.45.23-6.96.52-1.82.36-8.81,3.47-10.36,4.6-3.42,2.5-5.2,3.44-8.84,5.43-1.47.81-1.9,2.5-4.3,2.84-3.83.53-3.86-.02-7.58,1.94-1.54.81-4.95,2.5-6.08,3.26-.22.15-1.57,2.61-2.95,3.34-2.99,1.59-1.47.94-3.34,2.61-1.98,1.76-7.08,4.27-8.42,5.69-1.56,1.65-3.48,4.37-5.78,5.43-.94.43-2,.22-3.02,1.06-.96.79-.88,1.9-2.2,2.56-.82.41-2.31.39-2.91,1.17-.57.73-.46,2.89-1.69,4.09-.6.59-2.45,1.25-3.07,2.03-.43.54-.35,1.21-.84,1.88-.61.85-1.6.9-2.24,1.5-.74.68-1.5,2.58-2.23,3.55-2.65,3.55-5.03,6.99-7.83,10.53-1.1,1.4-.66.9-1.35,2.38-.41.87-1.32,3.31-1.67,3.77-.81,1.09-2.66,1.13-3.7,1.74-.24.14-2.88,4.07-3.01,4.47-.51,1.56.03,2.49-1.4,3.87-.52.5-1.38.71-1.93,1.3-1.58,1.7-1.32,4.46-2.56,6.28-.57.84-2.52,1.7-3.03,2.75-.8,1.67-.57,4.56-1.09,5.7-.31.66-.96.19-1.14.63-.24.57-.16,1.79-.44,2.56-.92,2.46-2.23,6.6-3.63,8.61-.4.58-1.28,1.44-2.04,1.53,3.6-21.63,24.4-47.73,38.92-63.92,8.73-9.73,17.18-15.49,27.68-22.97,4.06-2.9,7.49-6.07,12.04-8.36,1.57-.79,3.26-1.04,4.87-1.92,4.27-2.34,6.49-8.28,9.22-12.2,7.43-10.69,16.06-20.44,24.2-30.53,6.09-7.54,10-13.5,15.17-21.55,4.56-7.1,9.31-14.3,14.14-21.22,3.45-4.94,6.01-9.22,11.05-12.75,7.59-5.32,19.85-7.3,29.01-7.2ZM213.81,62.66c-1.47.13-3.76,1.67-1.92,3.16,4.76,3.87,3.92-3.34,1.92-3.16Z"/>
  <path class="cls-2" d="M324.07,335.58c.43,1.03,7.03,10.79,7.92,11.8,2.98,3.33,12.34,10.59,16.33,12.74,5.69,3.07,11.49,3.58,16.66,7.82,2.09,1.71,5.27,5.31,7.2,7.42.39.42.85.7.84,1.36-.04,0-.32.37-.52.31-3.15-.81-4.62-.56-7.82-.64-1.77-.04-3.71-.92-5.55.03-.83,1.33,1.68,7.44,2.83,8.46,1.77,1.57,4.25.07,6.1.34.86.12,1.25.79,1.81.93,5.24,1.27,6.11.83,11.14.07.63-.1,1.38.42,1.18-.67,3.53,3.46,6.12,5.5,9.18,9.52l.88,6.77.84,1.54,3.39,2.22c1.37,2.43,2.55,3.31,3.74,6.12-2.78.79-6.21-.14-8.92.77-1.74.59-3.19,2.78-4.72,3.44-1.21.53-4.68,1.41-5.9,1.2-1.14-.2-5.49-3.13-6.14-4.06-.46-.67-.38-1.46-.71-2.01-.69-1.12-3.57-6.43-3.9-6.64-.42-.27-1.07-.17-1.52-.52-.58-.44-1.53-1.87-2.09-2-.7-.16-1.97.67-2.75.21l-7.36-9.8c-5.61-3.61-11.6-7.78-14.6-13.95-1.16-2.39-1.98-5.64-3.3-7.92-.35-.6-1.88-1.69-2.49-2.61-2.2-3.3-.91-4.33-1.64-7.2-.09-.34-2.61-5.97-2.84-6.34-.41-.69-1.25-1.06-1.58-1.82-.43-.99-.48-2.99-1.26-3.85-.44-.49-1.31-.36-1.4-.69-.58-2.07,1.09-3.82,1.04-4.03-.06-.26-3.3-2.39-3.93-3.56-.56-1.05-1.54-4.02-.15-4.78Z"/>
  <path class="cls-7" d="M373.03,376.72c.98.15,5.4,4.9,6.46,5.95.82.8,1.76,1.96,2.71,2.89.19,1.09-.55.57-1.18.67-5.03.75-5.9,1.2-11.14-.07-.56-.14-.95-.8-1.81-.93-1.85-.27-4.33,1.24-6.1-.34-1.15-1.02-3.66-7.13-2.83-8.46,1.83-.95,3.78-.08,5.55-.03,3.2.08,4.66-.17,7.82.64.21.05.48-.32.52-.31Z"/>
  <path class="cls-2" d="M459.38,88.78c-1.16-1.18.75-2.6.95-3.3.1-.36.4-3.2.38-3.64-.07-1.93-2.49-3.74-4.07-2.05-.16,1.02,1.63,2.14,1.63,3.31,0,.4-1.66,5.11-1.95,5.51-1.44,2.02-3.59,1.22-5.53,1.61-.95.19-2.3,1.41-3.3.78-.22-.14-1.29-1.71-1.36-2.06-.49-2.57.43-8.07-1.36-9.86-.39-.4-.97-.47-1.37-.84,6.36-1.54,20.18-4.06,17.94,6.89-.23,1.14-1.47,2.62-1.96,3.65ZM455.64,78.24c-.54-.54-1.56.48-1.02,1.02s1.56-.48,1.02-1.02Z"/>
  <path class="cls-2" d="M34.75,423.29c.74.82-2.2,4.69-3.34,4.96.55.7-.72,4.95-1.08,5.24-.71.57-.72-1.39-1.35-.68-.05.06,0,.99-.15,1.38-.3.76-.78,1.37-.89,2.18-.22,1.62.4,4.86.04,6.12-.12.42-.91.06-1.04.19-.1.1.38,1.94.27,2.8-.25,1.85-1.6,3.15-2.22,4.6-.75,1.77.17,4.2-3.01,2.83-2.34-1.01.35-4.96-.48-5.81-1.01-1.03-1.54,1.82-1.74,2.17-.26.45-1.17,1.73-1.53,2.21-1.07,1.45-1.47.77-.76-.76,3.64-7.74,9.74-18.42,14.96-25.15.27-.34,1.85-2.79,2.32-2.27Z"/>
  <path class="cls-2" d="M386.96,208.1c-1.27,2.78-.78,1.61-2.84,3.11-1.27.93-1.77,2.11-2.18,3.59.1,5.22.64,10.53-.08,15.73-.6.15-.86-.37-1.03-.82-1-2.52.92-6.02.21-9.07-.18-.77-.77-1.25-.89-2.17-.25-1.85-.22-7.63,1.72-8.51,1.11-.51,1.9.35,2.8.12.99-.25,1.1-1.97,2.29-1.99Z"/>
  <path class="cls-7" d="M396.48,405.61l-3.39-2.22-.84-1.54-.88-6.77c.84,1.11,2.07,1.96,2.78,3.51,1.06,2.31.99,4.67,2.32,7.03Z"/>
  <path class="cls-2" d="M37.37,445.97c-1.33.28-1.37,1.47-2.83,1.76-.61.12-.44.04-.48-.48-.13-2.01,1.46-3.37,2.32-4.83.48-.82.32-2.65,1.94-2.5,2.71.26-.43,4.89-.94,6.04Z"/>
  <path class="cls-2" d="M81.33,256.37c-1.95-2.97-2.51-3.73-3.74-7.14,2.42-.37,1.3,1.41,1.87,2.38.22.38,1.08.48,1.36,1.02.38.74.99,2.93.51,3.74Z"/>
  <path class="cls-2" d="M279.53,1.07c-1.16.1-2.4.87-3.88.67-.83-.11-1.42-.78-2.14-.93-.86-.19-3,.45-2.82-.76,2.99.03,5.99-.06,8.84,1.02Z"/>
  <path class="cls-2" d="M373.37,260.79c-.6,2.72-1.05,5.44-1.7,8.16-.49-2.36-.52-4.91.51-7.14.28-.6.4-1.03,1.19-1.02Z"/>
  <path class="cls-2" d="M451.9,101.36c-.93,1.37-1.89,2.8-2.78,4.21-.28.43-.11,1.09-.96.89.16-.5-.13-.95.33-1.88s2.29-2.91,3.41-3.22Z"/>
  <path class="cls-2" d="M459.04,89.8c-.84,1.64-1.84,2.94-2.72,4.42l.05-1.48,2.67-2.94Z"/>
  <path class="cls-2" d="M442.72,78.24c.15.73-1.38,1.48-1.98,1.64-.75.2-1.01-.28-1.08-.28.54-.9,2.06-1.09,3.06-1.36Z"/>
  <path class="cls-2" d="M267.63.05c.25,1.5-1.78.38-2.38.34.46-.59,1.63-.33,2.38-.34Z"/>
  <path class="cls-2" d="M374.38,258.75c-.28.6-.02,1.59-1.02,1.36.14-.7.17-1.57,1.02-1.36Z"/>
  <path class="cls-2" d="M280.89,1.41c-.57.6-.79.45-.68-.34.59.03.64.33.68.34Z"/>
  <path class="cls-2" d="M85.07,374.34c.37.37-.31,1.05-.68.68s.31-1.05.68-.68Z"/>
  <path class="cls-2" d="M455.98,94.9c-.11.18-.19.43-.34.68l-.34-.17c-.12-.63.1-.54.68-.51Z"/>
  <path class="cls-2" d="M110.9,351.22c.23.12-.2.58-.68.33-.23-.12.2-.58.68-.33Z"/>
  <path class="cls-2" d="M198.06,503.38c-.09-.04-.1-.46-.35-.53-1.75-.48-1.01,1.38-1.8,2.56-.39.58-1.87,1.42-2.57,2.19-.63.68-.81,1.53-1.51,2.23-2.38,2.4-6.28,4.1-9.71,3.92-.96-.05-1.76-.23-2.37-1.04l.16-19.22c1.06-2.57-.47-4.12-.68-6.43-.34-3.78-.09-9.03,0-12.95.03-1.29.78-2.11.03-3.4-1.33-2.3-8.12-2.13-6.06-6.03.7-1.33,5.32-1.13,6.9-.93,1.2.15,1.56.86,2.39,1.01,1.89.36,7.94.64,10.17.71,4.97.15,5.3-1.74,8.67-2.25,1.03-.16,1.98.28,2.05.2.08-.1-.19-.77.21-1.06.98-.72,3.87-1.05,5.42-2.34.74-.62.66-1.59,1.17-2.23,1.02-1.28,2.63-.61,3.9-.86,2.08-.42,4.12-1.41,6.28-1.37.64-1.74.84-4.08,1.6-5.71.89-1.91,4.09-2.82,5.06-5.13.27-.64,1.14-4.63,1.16-5.3.05-1.47-.67-2.24-.05-4.13.44-1.33,1.57-1.75,2.13-2.63.64-1,.69-1.57,1.65-2.78.49-.62.06-1.58,1.49-1.07.44.16.72.67,1.17.88,1.77.81,2.86.91,3.65,3.16.4,1.13-.12,1.74-.17,2.85-.02.5.37,1.04.29,1.64-.02.18-1.16,3.35-1.27,3.5-.53.74-2.18.72-2.77,1.65-.5.8-.23,1.89-.71,3.03-1.22,2.88-4.98,2.98-4.73,6.87.1,1.65,1.17,2.65,2.85,2.13s1.33-3.55,1.78-4.68c.52-1.3,3.46-3.4,3.82-4.67.31-1.07-.23-2.52.24-3.5.44-.91,2.5-1.15,3.26-1.84s.84-2.34,1.67-2.75c2.15-1.04,2.31.79,3.22,1.54,1.17.95,2.27,1.01,3.32,2.46,2.54,3.48,3.21,8.76,5.88,12.47s6,5.21,8.66,9.36c2.15,3.37,1.33,2.01,4.08,4.42.38.33,2.48,2.76,2.66,3.11,1.34,2.59-.89,6.39,2.46,9.44,1.3,1.18,3.89,1.65,3.64,4.02l-5.64,11.39c-1.72,5.5-3.48,11.07-6.16,16.28-.74,1.43-.25,2.35-2.28,3.16-2.32.93-5.42-.87-7.82-1.29-1.84-.31-4.44-.07-6.08-.38-.81-.15-1.95-1.48-3.09-1.67-2.04-.35-3.46.45-5.57-.89-.57-.36-.95-1.08-1.6-1.46-2.43-1.43-5.78-.41-8.46-.72-4.64-.54-8.98-1.28-13.55-2.09-.54-.09-.93-.55-1.41-.63-1.37-.21-7.93.49-8.31-1.22-.17-.75,2.41-2.45,3.12-2.65,2.26-.65,7.45-.09,6.74-3.78-.44-2.27-2.73-.44-4.06,0-2.5.83-5.68,1.8-8.09,2.79-1.82.74-3,4.09-6.08,2.66Z"/>
  <path class="cls-2" d="M80.31,488.9c.09,1.18,1.89,1.32,1.7,2.72-1.98-.46-2.48.46-3.77,1.16-.46.25-1.04.21-1.52.52-.72.47-.71,1.53-1.68,1.72-3.02.6-3.08-1.54-5.27-1.91-1.19-.2-2.23.39-3.66-.39-.23-.12-2.43-2.46-2.47-2.63-.22-1,1.69-.53,1.36-1.35-.13-.31-.89-.74-1.16-1.22-1-1.76-.13-2.26-.18-3.56-.18-4.03-.72-7.01.83-11.04.41-1.08,1.92-2.05,1.79-3.51-.3-3.39-4.45-1.76-4.3-4.43.21-3.99,2.01-3.52,4.64-4.9,1.69-.88,3.64-2.22,5.22-3.28.38-.26,1.16-.75,1.56-.78.55-.05,3.96,1.07,4.52,1.46,2.14,1.47.14,2.79,2.57,4.57,1.72,1.26,3.31.83,5.01,1.79,4.04,2.29-1.17,3.54-1.95,5.36-.28.65-.07,1.38-.35,2.03-.62,1.45-2.97,1.39-1.83,4.22.58,1.44,1.54,1.47,2.15,2.27,1.14,1.5.74,4.71.5,6.56-.34,2.62-.29,5.33-3.7,4.63Z"/>
  <path class="cls-2" d="M371.4,164.51c.37.22,2.21.09,3.33.59.39.17,2.67,1.9,2.71,2.06.08.34-.87,1.22-1,2.04-.29,1.86.97,3.43-.4,5.38-.31.44-.84.58-1.13.92-.57.68-.04,7.49-.61,9.58-.83,3.05-.69,3.37-.97,6.51-.07.77-.56,1.5-.65,2.4-.41,3.88.96,2.28,2.4,3.73,1.89,1.91-.93,3.53-1.3,5.19s.42,4.63.25,5.33c-.26,1.05-1.86-.11-2.33.23-.79.57-.52,3.99-.78,4.84-.15.49-.8.7-.95,1.43-.32,1.63,1.01,5.57-1.86,5.27-1.02-.1-1.15-1.61-2.71-1.38-1.02.15-1.26,1.56-2.37,1.36-.59-.18-.82-1.98-1.14-2.61-.44-.84-2.65-2.76-.58-3.16,2.29-.44,3.47,1.61,4.93-.17,1.84-2.24.75-4.32,1.08-6.38.19-1.18,1.29-2.13,1.32-3.51.03-1.19-1.02-1.92-.71-3.21-.88-1.09-1.41,4.47-2.93,4.73-2.24.39-2.03-6.47-1.41-7.91.22-.51.87-.47.96-.81.81-3.12-.71-9.5-.34-13.19.16-1.67,1.12-3.19,1.34-4.44.75-4.37.28-9.61,1.07-13.89.08-.44.52-2.18.87-2.26.43-.1,2.86.24,3.29.43.5.21.49.78.64.87Z"/>
  <path class="cls-2" d="M354.8,223.95c.08.15.64.2.75.77.41,2.25-1.52,2.66-2.05,3.79-.3.64-.18,1.39-.57,2.15-1.08,2.11-2.68,1.34-4.51,1.61-4.14.61-8.54,1.2-12.6,2.02-2.16.44-4.62,2.62-7,1.86-.96-.15-4.96-4.37-5.07-4.84-.38-1.67.3-3.67,1.7-4.66,2.08-1.48,2.34-.24,3.97.07,4.56.88,9.75-3.08,13.39-5.17.82-.47,2.73-.99,3.28-1.3.26-.14.24-.95,1.34-1.21,4.74-1.09,5.49,1.57,7.37,4.9Z"/>
  <path class="cls-2" d="M337.24,172.83c-.61-.73-2.07-.5-2.55-2.71-.42-1.95-.37-2.36,1.29-2.97,4.64-1.68,9.37-.56,13.74-1.22.58-.09.98-.69,1.72-.7,1.19-.02,2.23,1.24,1.7,2.4-.45.99-3.36,4.16-3.51,4.68-.27.93.4,1.75.29,2.62-.08.63-3.98,7.22-4.59,8.02-.88,1.14-1.24.69-2.6,2.84-1.93,3.07-.8,1.43-.98,4.43-.04.57-2.53,6.76-2.92,7.31-.9,1.26-2.17,1.57-2.5-.14-.83-4.3,1.46-10.25-.38-14.6-.4-2.07,1.42-3.27,1.7-5.14.13-.92.13-4.18-.4-4.81Z"/>
  <path class="cls-2" d="M284.37,497.48c1.3-1.34,3.56,1.15,4.07,2.4.19.46,1.58,5.55,1.58,5.85,0,1.74-1.58,2.37-.74,5.21.59,2.01,1.96,2.49,2.79,3.67.4.56,2.5,4.33,2.61,4.87.56,2.63-.86,7.69-4.36,6.74-.6-.16-1.2-.92-1.87-1.19-2.55-1.04-6.77-2.34-9.02-3.56-1.27-.69-2.08-2.37-1.93-3.79.08-.8.66-1.55.69-2.43.02-.77-.52-1.71-.33-2.31.15-.46,1.35-.93,1.82-1.6.16-.23,1.47-2.78,1.5-2.94.1-.64-1.06-1.06-1.25-1.71-1.11-3.76,1.15-3.27,2.47-4.87.81-.98,1.48-3.83,1.96-4.32Z"/>
  <path class="cls-2" d="M304.26,173.81c3.16-.45,1.17,5.18,1.14,6.28-.19,7,.61,14.07-.4,21.36-.15,1.09-.92,2.39-.97,3.48-.17,3.7.16,6.77-.47,10.72-.31,1.95-.72,6.72-3.49,5.06-2.25-1.35-.75-4.53-.51-6.34.51-3.89,1.11-8.34,1.38-12.21.33-4.77-.21-10.59.38-15.26.2-1.57,1.19-2.65,1.32-4.12.18-1.98-.86-3.26-.66-5.06.13-1.24.85-3.7,2.27-3.9Z"/>
  <path class="cls-2" d="M294.73,433.25c.46.57.48,1.42.47,2.11-.03,3.54-1.88,4.84-3.66,7.58-2.73,1.02-2.83-.22-4.56-1.09-3.36-1.7-2.13-1.26-4.51-3.48-.58-.54-2.42-1.16-2.56-1.7-.06-.21.25-3.65.38-3.95.67-1.59,3-.63,4.12-.71,2.91-.22,5.06-1.66,8.01-.35.31.14,2.16,1.4,2.31,1.59Z"/>
  <path class="cls-2" d="M167.68,468.51c.26,1.28-1.02,1.39-1.7,2.2-2.29,2.73.55,3.83.36,5.77-.04.45-2.13,2.93-2.4,3.78-1.94.18-3.2.11-4.64-1.33-.45-.45-.62-1.2-1.17-1.72-.75-.72-3.54-2-3.82-2.66-.94-2.23.19-3.69,2.25-4.42,3.3-1.17,7.63-1.14,11.12-1.62Z"/>
  <path class="cls-2" d="M296.83,83.04c1.26,2.01-3.49,2.93-5.63,1.73-.81-.46-1.42-1.71-1.65-1.77-.46-.11-1.75,1.76-3.81.77-1.58-.76-1.04-4.3-1.05-5.83,1.91-.52,5.47-1.56,7.3-.75,2.64,1.17,1.39,4.34,1.98,5.16.39.54,2.57.23,2.87.7Z"/>
  <path class="cls-2" d="M384.76,171.39c.6-.18,1.43.54,1.67,1.04,1.53,3.19.04,8.37-.45,11.75-.3,2.08-.77,3.93-1.03,5.76-.15,1.06.28,2.58-.34,3.4-.91,1.2-1.87.13-2.05-1.07-.4-2.68-.08-5.77-.69-8.46.08-1.28,1.97-2.28,2.29-3.83.29-1.4-.73-8.2.6-8.59Z"/>
  <path class="cls-2" d="M281.91,85.38c-1.91-.57-3.86-1.01-5.78-1.52-3.11-.83-2.22-.5-5.26-.49-2.36,0-5.5-.56-4.25-3.53.46-1.1,4.02-.25,4.92-.23,1.78.04,6.88-.38,8.12.04,1.06.36,1.89,4.51,2.26,5.72Z"/>
  <path class="cls-2" d="M152.97,460.43c1.32-.22,7.94-.45,7.93,1.45,0,1.21-5.39,4.7-6.61,4.59-.88-.08-4.91-2.84-4.98-3.59-.12-1.2,2.64-2.28,3.67-2.45Z"/>
  <path class="cls-2" d="M276.1,3.48c.17.21.08,1.37-.12,1.68-.86,1.33-5.08.27-6.47.3-1.25.03-2.52.62-3.74.7-3.78.25-7.6.23-11.39.34-.39-1.69,1.62-1.17,2.74-1.51,5.84-1.8,6.68-1.09,12.35-1.24,1.25-.03,5.74-1.34,6.63-.27Z"/>
  <path class="cls-2" d="M297.49,478.79c5.84-.22,2.13,5.43,1.23,8.4-.27.47-1.16,1.04-1.69,1.03-1.85-.03-3.79-8.06-1.86-9,.31-.15,1.91-.41,2.32-.43Z"/>
  <path class="cls-2" d="M311.75,70.83c1.41-.2,1.47.47,2.3.6,1.35.2,3.78-.18,4.75,1.37.51.82-.79,2.79-1.42,3.01-.79.27-2.06-.07-2.99.07-1.29.2-3.25,1.73-4.18-.28-.8-1.73-.74-4.45,1.54-4.77Z"/>
  <path class="cls-2" d="M333.14,72.86c.62-.19,1.95-.13,2.63-.03,1.34.2,5.32,2.97,4.46,4.39-.21.34-3.48,1.34-4.07,1.38-1.16.08-4.21-.9-4.54-1.96-.36-1.13.36-3.42,1.53-3.78Z"/>
  <path class="cls-2" d="M368.19,227.55c.25.42.18,3.54-.26,3.86-1.63.11-5.17-1.77-5.64-3.23-.86-2.72.86-7.01,3.91-4.59,1.08.86.41,2.28.86,3.22.23.47,1.01.54,1.13.74Z"/>
  <path class="cls-2" d="M351.54,80.69c.27.15,2.91,4.98.92,5.36-2.7.52-4.77-1.49-4.17-4.17.31-1.41,2.29-1.74,3.25-1.19Z"/>
  <path class="cls-7" d="M107.17,458.31c4.43-2.03,6.14-2.84,9.87.84,1.71,1.69,2.26,2.95,4.88,3.95.34,1.69,3.21,3.3,2.09,5.07-.26.41-.45.38-.87.17-.56-.29-1.45-1.46-2.41-2.01-3.04-1.75-5.44-2.41-8.49-4.43-1.21-.8-3.93-1.97-4.72-2.76-.28-.28-.48-.31-.36-.82Z"/>
  <path class="cls-7" d="M144.13,367.61c.91.01,1.03,1.15,1.62,1.63.97.81,2.87,1.07,2.58,2.87-.19,1.17-1.86.99-2.72,1.39s-.76,1.46-2.55,1.17c-1.67-.28-.97-1.79-1.29-2.81-.22-.69-1.05-1.13-.95-2.11s2.38-2.16,3.32-2.15Z"/>
  <path class="cls-2" d="M179.91,422.46c-.19-1.15-1.61-4.22-1.64-5.44-.01-.61.41-1.21.3-2.03-.12-.85-1.1-1.44-1.28-2.15-.26-1.02.12-2.61-.42-3.58-.31-.57-3.34-1.93-4.16-1.88-.61.04-5.57.93-6.06,1.09-.82.27-.88,1.12-1.24,1.22-.5.14-1.11-.12-1.79.17-1.26.55-.58,2.3-3.23,2.23-.96-.02-4.28-.62-5.28-.87-2.65-.66-5.65-3.92-8.32-3.94-.68,0-1.32.38-1.96.3-.85-.11-2.5-1.06-3.56-1.21-4.02-.55-8.62,3.98-12.39,5.13-.82.25-2.26.1-2.68.38-.39.27-.23,1.29-.88,1.5-1.05.35-3.24.29-4.53.91-.53.25-.88,1.06-1.63,1.43-1.85.91-4.93,1.73-6.52,2.66-2.1,1.23-2.93,4.69-6.13,4.56-.52-1.6-2.49-4.02-3.77-5.24-.53-.5-1.66-.46-1.7-1.38,0-.68,2.8-3,3.43-3.75.48-.57,1.29-1.49,1.7-2.02.89-1.14,1.18-2.76,2.59-3.87,1.57-1.24,2.65-.35,4.11-.99.81-.35.89-1.13,1.21-1.34,1-.65,3.01-1.23,4.1-1.85.74-.42,1.42-1.49,2.27-1.8.76-.28,1.58-.11,2.29-.43.66-.3.84-1.13,1.46-1.6,1.49-1.12,6.21-2.6,8.44-3.8,1.04-.56,2.93-1.45,3.75-2.03,1.72-1.2,4.07-5.32,5.92-7.17,1.09-1.09,5.26-3.97,5.68-4.69.62-1.08.36-2.55.85-3.57.46-.96,2.15-1.73,2.69-2.41.55-.7.48-2.02,1.45-2.31,1.07-.32,2.18.32,2.82,1.14.32.41,2.11,4.37,2.24,4.91.4,1.68-.79,3.4.46,4.88.5.59,1.36.36,1.87.94.11.12,1.48,2.5,1.62,2.8.41.9.16,2.07.94,2.82,2.82.12,1.39-2.78,1.35-4.43-.02-1.06-.08-2.31.09-3.33.57-3.35,3.94-4.28,2.21-8.49-.24-.59-2.43-2.36-3.07-2.71-.55-.31-4.97-2.49-5.25-2.56-1.46-.36-3.24.08-4.91-.53-1.14-.42-1.92-1.74-2.83-1.93-.49-.1-3.85-.66-4.08-.65-.62.02-1.7.96-2.17.62-.08-.06-.42-1.39-.75-1.8-.98-1.22-6.73-2.18-8.54-2.68-.45-.13-.72-.69-1.2-.84-3.02-.99-20.07-.74-24.04-.42-2.38.19-8.99,2.03-10.85,3.36-.35.25-.11.88-.23,1.01-.2.2-.97-.03-1.33.05-1.06.23-.61.53-1.23.97-3.58,2.51-7.03,5.22-10.51,7.86-.82,1.65,2.73-.79,3.07-1.01,1.93-1.33,3.74-2.75,5.57-3.93.56-.36,1.44-1.34,1.99-1.45.85-.17,1.48.77,2.25.65.21-.03.58-1.13,1.26-1.53,1.73-1.01,3.65-1.33,5.51-1.97.48-.17.73-.8,1.44-.94.75-.15,3.71-.29,3.54.81-.03.17-1.62,2.7-1.83,2.94-.72.87-1.49.84-2.06,1.34-1.55,1.33-3.02,5.1-4,6.71-.33.54-2.19,1.1-2.64,1.61-.3.34-.34.99-.66,1.38-3.05,3.66-5.7,8.1-9,11.4-1.05,1.05-4.63,3.72-5.2,4.82-.2.39-.27,2.22-.51,3.06-.2.69-.79,1.13-.92,1.8-.43,2.28-.16,2.62-.96,5.16-.68,2.17-1.21,4.26-1.8,6.36-.26.9-1.13,2.01-.92,3.01.59,2.82,3.76,1.51,5.9,1.6,2.47.1,8.5.81,10.49,2.09,3.37,2.16-1.87,6.49.02,8.14,1.55,1.35,2.9,1.28,3.75-.69.81-1.88-.87-6.14,2.74-3.75,2.07,1.36.65,3.17.84,4.57.03.23,1.22,3.54,1.34,3.69,1.26,1.55,2.3-.5,2.86-.41,1.33.22,1.24,3.21,2.03,4.46.67,1.07,3.4,2.17,2.12,4.04-1.11,1.61-3.17-1.9-3.93-2.22-1.2-.52-4.11-.67-5.52-1.28-.84-.36-1.61-1.62-2.55-1.87-3.81-1.01-8.11-1.83-12.07-3.56-.45-.2-.77-.75-1.17-.87-1.18-.34-3.71.01-4.86-.57-.45-.23-1.36-2.19-1.39-2.73-.05-.99.6-1.45.73-2.36.23-1.59-.21-3.37-.36-4.95-1.5.25-2.55,1.23-2.9,2.71-.29,1.21.21,3.86.04,4.1-.09.13-2.57,1.23-2.83,1.29-.32.06-4.29-.56-4.63-.67-.47-.16-.42-.88-.79-.97-1.78-.44-4.92-.2-6.66-.74-.86-.27-.57-1.22-1.42-1.32-2.02-.26-1.88.67-3,1.12-1.65.67-3.38.98-5.09,1.71-.99.43-1.48,1.52-3.09.28-.37-.28-.23-.91-.54-1.22-.84-.85-1.95-1.24-2.48-2.64-.36-.95-.16-1.82-.65-2.75-.49-.95-1.94-1.24-2.02-2.09-.1-.98,1.52-2.02,2.14-2.98.43-.67,2.68-5.4,2.65-5.85h-.69c-.77,2.03-6.24,5.69-6.79,7.14-.26.68.71.46,1.17.85,1.94,1.66-.33,3.64-.49,5.3-.1,1.03.57,1.67.69,2.67.53,4.43-1.14,8.25-1.06,12.25.05,2.21,1.1,2.6,1.74,4.39-2.82,4.08-4.51,8.24-6.24,12.84-.9,2.39-2.93,6.8-3.48,8.76-.72,2.6.55,3.72-3.43,4.05-4.33.35-1.61-1.21-1.23-3.27.27-1.48-.14-2.91.31-4.45.5-1.71,4.32-6.2,3.36-8.21-1.63-3.43-4.82,4.58-5.27,5.27-.13.2-3.07,3.39-3.26,3.54-.87.7-2.35.38-2.9.92-1.35,1.31-.9,5.21,0,6.7-.35.9-1.34.74-1.98,1.09-1.69.93-1.81,1.54-4.26,1.13-.83-.14-1.61-.9-2.12-.94-.52-.04-1.09.86-1.81.62.48-1.22.43-3.11.75-4.17.2-.67,1.07-.96,1.27-2.13.05-.33.27-3.43-.66-2.53-3.26,7.35-6.49,14.66-8.68,22.43-2.02,7.14-4.82,17.71-4.24,24.99.57,7.04,4.22,15.39,6.28,22.27,1.43,4.76,2.22,9.71,4.25,14.28h2.04c.1-2.07-.15-4.22,0-6.28.09-1.25,1.43-7.37,1.32-7.77-.22-.76-1.49-1.03-2.14-.54-.89.68-.64,4.21-2.58,1.52,1.97-1.23.98-3.14,1.43-4.7.16-.55,1.31-1.92,1.54-2.88,1.28-5.62,2.34-7.6,4.65-12.68.29-.64,1.81-7.26,2.85-3.81.67,2.22-1.03,8.48-1.28,11.15-.6,6.27.33,15.25-1.03,21.01-.07.28-.62.09-.7.72-.17,1.29.17,2.93.03,4.27h111.85c.09-1.09.1-4.04-1.1-4.54-.28-.12-4.48-.93-4.84-.92-2.62.07-2.31,2.58-4.1,1.73-.75-2.86,1.13-2.03,2.65-2.46,1.09-.31,2.09-1.59,1.94-2.79-.04-.31-.64-2.64-.76-3.01-.52-1.58-2.93-1.93-4.02-2.78-.73-.57-1.23-1.89-1.83-2.25-.69-.42-1.49-.2-2.09-.63-.35-.25-1.78-2.81-1.5-3.09,1.61-.03,2.63-1.22,4.34-1.27,3.39-.11,4.22,2.27,6.38,3.98,2.17,1.72,4.57,3.79,7.44,3.38,5.07-.74-1.22-3.99-2.49-4.93-4.45-3.28-8.84-5.72-13.58-8.52-1.9-1.13-4.29-1.5-5.8-2.36-1.53-.87-4.23-4.7-5.96-5.94-2.01-1.43-6.53-3.63-8.96-4.65-.39-.17-1,.02-1.34-.17-.23-.13-.41-1.08-1.11-1.44-1.3-.65-3.41-.37-4.82-.62-4.7-.82-9.36-2.19-14.07-2.93-.99-.15-2.11.13-3.02-.04-1.17-.22-4.09-2.5-5.26-2.9-.79-.27-1.76-.17-2.62-.44-.73-.23-4.11-1.66-4.49-1.35-.17.13.19.76-.38.61l.73-34.28c1.36-.08,2.1-1.89,3.18-2.09,1.44-.26,5.64-.69,7.13-.71,1.17-.02,3.01,1.02,3.94-.12.29-.36.18-1.15.51-1.24.7-.19,5.75.74,6.73,1.09.52.19,2.82,1.34,3.09,1.67.62.75.42,1.78.78,2.62.78,1.82,3.04,1.57,4.58,2.22,3.94,1.66,8.06,3.69,11.79,5.89,1.43.84,4.38,3.47,5.9,3.96.99.32,2.5.11,2.9.33.98.56,2.81,4.34,3.97,5.04.65.39,1.37.35,2,.72,4.14,2.45,9.09,6.62,12.48,9.96.82.81,1.89,3.46,2.7,4.44.51.62,4.9,4.46,5.35,4.53,2.45.38,1.28-2.76.58-3.99-.67-1.16-2.89-3.8-3.36-4.8-.31-.65-.15-1.45-.56-2.16-.35-.62-1.07-.72-1.23-.97-.48-.74-.27-2.98-.95-3.98-.51-.74-1.39-.63-1.88-1.18-.59-.67-.56-2.14-1.04-3.04-.48-.87-3.26-3.03-3.35-3.45-.26-1.19,3.03-.97,3.73-.67,2.31,3.6,4.7,6.82,6.76,10.58,1.88,3.42,3.79,7.24,4.87,10.76.2.65,1.67,1.98,1.89,2.87.69,2.8.71,2.63,1.68,5.12.38.97.31,2.46.76,3.23.31.53,2.04,1.84,2.54,2.64,1.54,2.42,2,3.13,3.75,5.43,1.78,2.35,2.86,6.11,4.61,8.31,2.46,3.1,2.66-.39,2.3-2.64-.24-1.5-1.43-3.4-1.55-4.94-.08-1.1.33-2.3.27-3.64-.13-2.54-2.07-6.95,0-9.19,1.02-1.1,3.57,1.6,4.24,2.58.33.49,2.57,4.36,2.73,4.74.33.76.09,1.56.56,2.5,1.22,2.43,5.08,3.47,5.6,8.37.11,1.07-.64,4.82,1.59,4.02,2.43-.87.37-3.02.22-4.17-.3-2.28,1.01-2.68,1.03-3.4.02-.72-1.19-2.13-1.28-3.15-.09-1.07.69-2.12.59-3.28-.11-1.39-1.04-6.38-1.44-7.77-.54-1.88-2.36-2.8-2.51-4.9-.04-.57.27-1.19.2-1.94-.21-2.31-3.63-5.51-4.88-7.73-1.71-3.02-.69-3.73-4.77-5.43-2.08-.87-3.6-1.08-5.72-2.12-2.64-1.29-6.23-2.81-8.65-4.25-1.4-.84-1.78-2.12-2.64-2.8-1.04-.83-2.78-.39-3.6-1.84-1.06-1.87.5-3.11.3-4.36-.12-.8-.99-1.2-1.22-1.85-.84-2.4-1.64-4.87-2.56-7.3-.78-2.07-3.54-4.32-4.81-6.41-.3-.49-1.75-3.14-1.55-3.38.92-.02,1.82-.65,2.71-.17,1.79,2.24,6.14,4.5,7.67,6.61,1.05,1.45.72,3.32,3.11,3.31.63,0,2.79-1.31,3.16-1.77.49-.61.25-1.32.67-2.05.24-.42,6.26-6.05,6.98-6.61.78-.61,1.68-.6,2.41-1.33,1.11-1.12,2.38-3.79,3.54-5.2.54-.65,1.67-1.32,2.38-2.13.84-.96.42-2,2.21-1.9,2.37.13.97,4.07,3.48,4.74.55.15,4.33-1.8,4.47-2.03.46-.8-.98-1.41-1-2.49,0-.58.51-2.11.87-2.56,1.12-1.39,2.9-1.1,4.23-1.55,3.03-1.01,4.24-3.62,5.54-6.03.66-1.21,1.69-.84,1.26-3.45ZM144.13,367.61c.91.01,1.03,1.15,1.62,1.63.97.81,2.87,1.07,2.58,2.87-.19,1.17-1.86.99-2.72,1.39-.88.41-.76,1.46-2.55,1.17-1.67-.28-.97-1.79-1.29-2.81-.22-.69-1.05-1.13-.95-2.11.11-1,2.38-2.16,3.32-2.15ZM12.95,489.02c-.3.56-1.08.92-1.24,1.48-.55,1.84.93,5.4-1.18,6.3-3.62,1.55-3.37-5.62-2.42-7.86.25-.59,1.94-3.23,2.4-3.38.59-.2,3.71-.24,3.86.46.03.16-1.21,2.64-1.41,3ZM16.8,474c-1,.58-.32,3.98-1.92,5.74-.84.92-3.62,2.19-4.46,1.02-.2-.28,1.04-5.49,1.3-6.22.29-.81,1.27-2.91,2.1-2.95,1.3.7,5.45-.39,5.65,1.51.22,2.1-1.99.51-2.67.9ZM44.77,421.24c.85-1.35,2.86,2.4,3.23,2.92.22.3.85.39.95.56.35.59,0,2.08-.44,2.65l-3.22,2.38c.63-1.87-1.34-7.21-.52-8.51ZM29.12,492.28c-1.28.2-1.52-.36-2.54.48-1.22,1.01-.81-2.91-.65-3.67.5-2.41,2.22-.44,3.32.05.51.23,2.04.36,2.11.45.43.52-1.24,2.54-2.23,2.69ZM26.46,477.72c-.39.77-.69,3.35-1.73,3.37-.2,0-1.45-3.44-1.46-3.63-.04-.6.59-1.01.54-1.59-.08-.89-2.06-2.67-1.64-3.96,1.41-.26,4.06.35,5.27,0,.24-.07.75-.94,1.21-1.17.53-.26,4.2-1.55,4.6-1.54.89.02,1.02,1.13.78,1.81-.2.56-1.07.55-1.5.89-1.83,1.48-5.06,3.81-6.08,5.82ZM37.64,495.7c-1.38-.04-4.93,1.34-4.42-1.36,5.41-.6,10.71-.69,16.15-.34.34,1.89-3.16,1.93-4.59,2.03-2.52.18-4.8-.27-7.14-.34ZM55.12,510.12c-.16,1.11-.86,1.96-1,3.08-.58,4.86-.02,10.12.02,14.95.01,1.34.17,8.52-.18,9.03-.92,1.34-1.78-.92-2.04-1.72-.95-2.98-.49-6.3-.5-9.33,0-1.16.21-4.24-.07-5.06-.16-.45-1.18-.88-1.64-1.42-1.03-1.2-.64-1.24-1.93-2.29-2.18-1.79,2.3-1.56,2.62-1.77.14-.09,1.27-2.97,1.29-3.14.11-1.19-4.42-3.19-3.18-5.21.45-.73,3.22-.92,3.21-3.22,0-2.01-2.06-2.13-2.54-2.89-.76-1.2,3.5-5.24,2.57-7.14,1.71.09,2.62,1.06,4.42.34-2.15,4.86-.34,10.74-1.05,15.78ZM59.06,453.88c-.13.28-3.83,4.19-4.28,4.57-1.29,1.09-3.08,1.51-4.38,2.42-1.24.88-2.78,3.67-4.78,2.71-1.32-.64-.18-3.06.65-3.77.56-.48,1.58-.57,1.89-1.17.8-1.53.68-3.79,1.08-5.38.34-1.31,1.78-2.83,2.06-4.06.31-1.39-.03-3.06.09-4.5.85-.49,4.07.87,4.38,1.41.21.36-.45,1.37-.16,2.34.46,1.54,4.36,3.44,3.44,5.42ZM124,468.18c-.26.41-.45.38-.87.17-.56-.29-1.45-1.46-2.41-2.01-3.04-1.75-5.44-2.41-8.49-4.43-1.21-.8-3.93-1.97-4.72-2.76-.28-.28-.48-.31-.36-.82,4.43-2.03,6.14-2.84,9.87.84,1.71,1.69,2.26,2.95,4.88,3.95.34,1.69,3.21,3.3,2.09,5.07ZM135.07,473.06c.18.17,1.33,1.95,1.33,2.07,0,1.17.24,4.27,0,5.1-.05.18-.55.61-.85.51-.29-.75-1.93-1.84-2.12-2.13-.22-.34-.09-1-.41-1.45-1.45-2.07-3.1-3.75-4.1-6.09.32-1.46,5.48,1.39,6.15,2.01Z"/>
  <path class="cls-7" d="M48.96,424.72c.35.59,0,2.08-.44,2.65l-3.22,2.38c.63-1.87-1.34-7.21-.52-8.51s2.86,2.4,3.23,2.92c.22.3.85.39.95.56Z"/>
  <path class="cls-7" d="M31.35,489.59c.43.52-1.24,2.54-2.23,2.69-1.28.2-1.52-.36-2.54.48-1.22,1.01-.81-2.91-.65-3.67.5-2.41,2.22-.44,3.32.05.51.23,2.04.36,2.11.45Z"/>
  <path class="cls-7" d="M168.7,359.72c-.87.17-.6-.18-.85-.66-1.1-2.06-2.2-4.13-3.42-6.11-.37-.6-1.25-1.03-1.43-1.63-.27-.9-.29-5.63.78-5.88,1.44-.34,1.79,4.6,1.93,5.2.33,1.38,2.01,4.36,2.49,6.01.28.96.45,2.07.5,3.06Z"/>
  <path class="cls-7" d="M223.43,312.8c-.35.37-4.31-1.68-4.77-2.19-.38-.42-.56-1.4-1.05-2.01-.59-.72-1.44-.88-1.92-1.83-.72-1.45-.3-2.51,1.44-2.11,1.21.27,2.73,2.86,3.57,3.92.42.52,1.25.77,1.53,1.19.14.21,1.33,2.91,1.21,3.04Z"/>
  <path class="cls-7" d="M213.81,62.66c2-.18,2.84,7.03-1.92,3.16-1.83-1.49.45-3.03,1.92-3.16Z"/>
  <path class="cls-7" d="M455.64,78.24c.54.54-.48,1.56-1.02,1.02s.48-1.56,1.02-1.02Z"/>
  <path d="M150,542.95c-1.43-1.12-.73-2.39-1.2-3.73-.51-1.46-7.19-9.12-8.67-10.03-1.18-.72-3.37-1.07-4.25-1.87s-1.74-3.68-2.68-4.79c-.75-.89-3.3-1.92-3.59-2.53-.37-.79.88-.4,1.02-.51-.03-.36-.53-.53-.6-.89-.19-1.03.49-3.6.18-5.32-.49-2.7-3.41-6.1-3.92-9.34-.31-1.96.53-4.86-.17-6.29-.53-1.09-1.5-.82-1.8-1.26-.34-.5-.15-3.11-.58-4.18s-2.13-1.68-1.57-3.43,2.58.97,3.19,1.48c1.95,1.62,3.21,3.02,4.94,4.92,1.35,1.49,2.65,2.9,4.06,4.34,6.18,6.29,11.74,13.43,16.12,21.03,1.18,2.05,1.8,4.15,3.47,6.05,2.28,2.6,5.41,4.1,7.56,7.05.62.85.84,2.05,1.4,2.68s1.41.64,2.01,1.39c.99,1.23,1.36,3.66,1.41,5.22h-16.32Z"/>
  <path d="M414.84,542.95c-.13-1.82-.12-7.08,2.54-6.81,1.25.13,1.24,2.13,2.56.69-.12,2.74,1.27-.82,2.04,0,.21.23.22,5.57-.68,6.12h-6.46Z"/>
  <path d="M172.1,542.95c.57-1.79-.11-3.96,1.19-5.43.98,1.43,3.33,2.61,3.91,4.25.28.8-1.39.41-1.36,1.18h-3.74Z"/>
  <path d="M16.05,542.95h-2.04c.58-3.77,1.69-4.04,2.04,0Z"/>
  <path d="M358.98,209.55c-.71-.72-3.44-1.75-3.86-2.24-1.34-1.57-2.21-5.21-3.62-6.92-1.64-1.99-2.45-.24-3.39-.49-.35-.1-.73-.67-1.19-.88-1.63-.75-4.28-1.23-3.45-3.6l3.63-5.24c.36-3.27,2.9-4.21,4.66-6.54,1.88,1.16,6.8,2.63,7.74,4.84.26.63.17,1.86.57,2.15,1.41,1.01,3.77-1.64,3.42,3.71-.2,3.02-2.09,7.76-.81,10.68.53,1.2,2.32,2.67,2,4.16-.08.36-.56.67-.63.97-.15.61.23,1-.25,1.83-.65,1.15-2.28,1.59-3.18.54-.4-.46-1.33-2.63-1.65-2.96Z"/>
  <path d="M153.28,393.5c1.14,1.23.85,3.54-1.24,3.28.7,2.5,2.1,5.09,4.75,5.95l-1.01,1.19,1.7-.34-.17-1.35c1.09.47,1.43,1.78,2.37,2.39.52.34,1.25.26,1.55.49.39.29.23,1.01.38,1.14.2.18,2.46-.02,2.93.47.16.17.5,1.23.1,1.46-.77.45-2.05-.05-2.84.15-.37.09-.23.87-1.07,1.03-1.7.33-2.26-.42-3.41-.63s-2.13.71-2.65.58c-.74-.18-2.69-2.4-3.23-2.68-.78-.4-2.22-.2-2.95-.71-.55-.39-.4-1.08-.75-1.36-.94-.74-1.56.34-2.33.53-1.04.25-3.12-.5-3.79-1.3s-.34-2.58-1.81-1.59c.59-1.13-.59-1.54-.64-2.53-.05-1.14.98-5.23,1.82-5.97.25-.22,3.42-1.8,3.85-1.93,2.99-.96,6.24-.67,8.45,1.72Z"/>
  <path d="M350.37,297.29c-.32.38-1.59,1.82-1.65,1.93-.27.46-.63,2.93-1.04,3.7-.82,1.51-3.06,1.31-4.54,1.22-.66-.04-2.09-.22-2.86-.3-4.53-.51-4.66-2.12-4.31-6.33-1.92-.5-.17,1.44-1.7,1.36.36-1.76-.5-1.08-1.33-1.9-1.12-1.11-2.08-3.12-.7-4.37.23-.21,3.37-1.87,3.57-1.9,1.06-.14,2.91.44,3.74.5,2.29.17,5.27-.37,7.79-.47,2.03-.08,4.89-1.32,6.13,1.35.98,2.14-1.88,3.74-3.1,5.22Z"/>
  <path d="M326.79,78.24c.19.18,3.33,0,3.85.12,1.69.36,3.35,1.51,5.56,1.46,1.12-.03,2.57-.81,3.5-.39.68.31,1.19,1.53,1.75,2.01,2.01,1.7,4.43,2.17,4.58,5.3.1,1.98-2.6-.06-3.44-.67-.36-.26-.46-.87-.87-1.17-4.24-3-12-2-17.04-2.65-2.59-.34-6.25-1.86-9-1.88-.79,0-2.06,1.24-3.39,1.47-.87.16-7-.28-7.25-.55-.34-2.31,2.22-2.53,3.97-2.59,1.66-.06,6.73,1.01,7.36.9.22-.04.21-.57.7-.74.8-.29,2.08-.12,2.61-.46.25-.16.26-.71.37-.79.06-.05.75.38,1.56.04,1.93-.8,5.59-5.98,5.2.58Z"/>
  <path d="M402.19,497.83c-1.77-1.12-.23,2.11-1.12,2.29-1.15.23-.46-1.3-.51-1.36-.08-.08-1.6,1.26-2.03,0,1.37.1.43-2.14.44-3.16.03-3.16,2.09-2.91,2.54-3.72.34-.61-.24-2.5,1.6-2.33,1.72.16,1.07,3.72,1.22,4.93s2,4.62-.87,4.47c-.96-.05-1.02-.98-1.26-1.13Z"/>
  <path d="M258.45,344.78c.09.09-.43,1.91-.1,2.61s1.09.78,1.29,1.12c.32.55.03,1.35.22,1.65.32.5,2.28-.21,1.65,1.75l-2.04-.34v1.36c.75-.42,1.65-.27,2.37.17-.94.56-1.52,1.98-2.2,2.57-.34.29-1.04.24-1.15.37-.12.14,0,2.3-.9,2.32-1.19.03.21-2.91.1-3.47-.08-.4-1.3-3.67-1.5-3.93-.45-.58-1.05-.45-1.32-.74-.7-.76.47-.61.79-1.26.45-.9.44-4.03.57-4.2.37-.49,2.08-.11,2.21.02Z"/>
  <path d="M317.85,230.77c-.47.35-1,.51-1.58.44-1.24-3.31-2.37-4.97,1.18-7.12,1.4-.84,3.54-1.35,4.93-.19,1.81,1.51-1.18,2.89-1.52,3.59-.36.75-.18,2.01-.7,2.7-.67.88-1.15-.46-1.68-.33-.29.07-.41.76-.62.92Z"/>
  <path d="M257.94,388.28c.91.92,2.26.7,3.47,1.28.65.31,1.13,1.08,1.78,1.28,1.01.31,2.35-.09,3.22.52,1.35.94.1,2.54-1.32,2.71-.54.06-5.25-.21-5.7-.43-1.86-.91-3.02-3.7-1.45-5.37Z"/>
  <path class="cls-1" d="M401.92,415.47c.7,4.11,2.68,8.66,3.02,12.79.2,2.43-.52,2.77-1.73.71-1.7-2.89-1.77-6.43-2.33-9.57-.26-1.47-1.91-3.71,1.03-3.93Z"/>
  <path d="M294.15,197.91c-.94,1.03,1.31.12,1.35.84,0,.1-.72,1.78-.84,1.9-.36.39-.76-.09-1.1.06-1.38.61-.27,4.36-1.62,5.69-4.31-2.65.56-6.36,1.01-8.45.28-1.3-1.35-2.68.69-3.77.78,0,1.55,2.6,1.44,3.24-.07.43-.84.39-.93.49Z"/>
  <path d="M314.98,28.51c.24.29.93.28,1.25.62,2.31,2.47,2.66,4,4.04,6.85.37.77,3.09,3.74,1.25,4.19-.63.15-1.74-2.65-2.36-3.07.2-3.09-1.92-3.77-3.59-5.59-.39-.43-.54-1.3-.77-1.46-.5-.34-1.23.46-.92-1.44-6.5,1.41-.9-2.37.71-1.2.3.22.21.87.4,1.11Z"/>
  <path d="M368.65,383.82c-.35-.55,1.16-3.19.94-4.23,5.01-3.19,4.34.8,3.82,4.47-.8,1.11-4.3.49-4.76-.24Z"/>
  <path d="M343.77,199.62c.08.07.42,1.92.38,2.13-.08.41-2,1.16-2.06,1.26-.14.21.71.59.63,1.12-.23,1.5-2.37,1.7-3.56,2.22-.44.19-.46.61-.75.71-.32.12-.98-.07-1.08.02-.11.09.06,1.73,0,2.2-.98.97-1.84-1.34-1.54-1.88.23-.41,1.53-.77,1.87-1.18.43-.53.31-1.22.67-1.71.83-1.1,2.3-2.25,3.21-3.25.27-.29,1.04-2.64,2.23-1.65Z"/>
  <path d="M308.69,210.25c.07.07.8,1.51.8,1.73.02,1.47-.43,5.33-.72,6.82-.15.77-.71.91-1.36,1.19v-1.7s-.34.68-.34.68c-2.13-.24.13-4.21.27-5.34.13-1.04-.69-2.78.58-3.83.19.27.55.23.77.45Z"/>
  <path d="M115.66,512.36c-1.03-.12-1.38-1.08-2.38-1.53-1.33-.6-4.4,0-4.28-2.38.18-3.81,7.56,1.07,6.66,3.92Z"/>
  <path class="cls-1" d="M327.13,52.4c-.06-.06-.47.06-.66-.01-.3-.86.91-.91,1.18-1.34.8-1.26-1.22-1.28-1.22-2.21,0-.48,1.08-1.65,1.54-1.53.12.03,1.48,1.8,1.5,1.92.06.36-1.1,1.65-.64,2.5,2.27-.73,2.17.73,3.06,2.38l-4.08,1.36.68-1.36-.68-.68c1.15-.45,1.07.87,1.56.98,1.07.26,2.19-1.61-.2-.65.8-1.13-1.05-2.39-2.04-1.36Z"/>
  <path d="M18.09,520.69c-.02.14-.49.64-.61,1.09-.21.78.38,2.07-.75,1.8.52-2.62-1.94-6.54-.85-8.84.59-1.25,2.21-.35,2.21.17,0,1.71.23,4.2,0,5.78Z"/>
  <path d="M314.79,381.02c.15-.19.02-.71.16-.82.08-.07,1.89-.66,1.98-.61.18.09,1.55,2.55,1.62,2.83.92,3.43-4.73,1.3-4.71-.43,0-.69.66-.61.95-.96Z"/>
  <path class="cls-5" d="M408.04,455.93c.63.3.91,1.96.98,2.59.12,1.01-.08,2.06.04,3.02.15,1.12,1.15,5.5,1,6.09-.36,1.44-2.02-.46-2.02-1.33v-10.37Z"/>
  <path d="M177.22,528.33c-1.62-3.22,2.46-4.42,4.59-2.71.02,2.66-2.62,2.38-4.59,2.71Z"/>
  <path d="M122.8,516.44c-2.07-.87-6.45-.87-5.28-4.1.75-1.22,6.14,2.19,5.28,4.1Z"/>
  <path class="cls-4" d="M404.17,431.14c.34-.11.89-.1,1.18.11.48.34,1.17,6,.13,6.31-3.8-1.17-1.09-2.37-.89-3.63.08-.51-1.94-2.31-.42-2.8Z"/>
  <path class="cls-1" d="M288.03,5.15c-1.33-.71-2.3.25-3.16.25-1.08,0-4.63-1.36-4.31-2.79.19-.86,3.18.38,3.81.6.49.17.76.73,1.18.86.88.26,2.51-.41,2.48,1.09Z"/>
  <path d="M349.84,87.16c.77-.17,4.03.51,3.81,1.45-.6.51-1.89,1.02-2.63,1.12-2.64.36-4.59-1.79-1.17-2.56Z"/>
  <path class="cls-1" d="M270.69,197.56c-.83-1.69,1.04-4.7,1-5.61,0-.17-1.62-3.26.18-2.88,1.2.25-.28,6.13.17,7.3-.11.63-.62,1.29-1.35,1.2Z"/>
  <path d="M16.05,528.17c.05-.34.33-1.49,1.01-1.19.56,1.93.32,4.58-.09,6.55-.13.63-.15,1.12-.93.93.19-1.98-.26-4.38,0-6.29Z"/>
  <path class="cls-1" d="M308.52,22.74c-.16-.17-1.12-3.04-.26-2.97.2.02.53.89.88,1.15.45.33,1.07.34,1.53.85.41.46.43,1.2.81,1.54.11.1,1.02-.08,1.02.36s-1.61.47-1.81.4c-.55-.19-.68-.66-1.07-.93-.35-.24-.94-.25-1.1-.41Z"/>
  <path d="M309.91,195.31c-.3.3-.39,1.04-.97.9-1.97-1.86-.71-2.11-.17-4.08.45-.43,2.08,2.38,2.04,2.55-.06.22-.67.41-.9.64Z"/>
  <path class="cls-1" d="M317.61,138.75c-.13.12-2.22-.08-2.72,0v-1.69c.69-.2,3.67.75,2.72,1.69Z"/>
  <path class="cls-1" d="M181.11,415.48c.27,0,.83,1.78.9,2.16.05.26.5.73-.23.89-1.54.35-1.96-2.31-.68-3.05Z"/>
  <path class="cls-1" d="M303.67,16.03c-.44.4-3.38-1.59-3.73-2.21.68-.92.58-.18,1,.01.3.14,3.44,1.54,2.73,2.2Z"/>
  <path class="cls-8" d="M394.1,399.5c.11.11,1.18,2.85,1.02,3.06-.49-.29-1.45-.31-1.65-.89-.15-.43-.22-3,.63-2.17Z"/>
  <path class="cls-1" d="M391.21,175.13l.82,1.49c-.79,1.01-1.62,1.12-2.35.04l1.52-1.52Z"/>
  <path d="M378.98,168.33c1.21-.24,1.03,2.73.33,2.71-.77-.02-1.32-2.51-.33-2.71Z"/>
  <path class="cls-5" d="M100.2,469.87c.81-.21,1.4.25,1.86.85-1.27,2.16-3.03-.55-1.86-.85Z"/>
  <path class="cls-8" d="M182.63,424.31c.37.35.83,3.34-.67,3.06.03-.26-.32-4.01.67-3.06Z"/>
  <path class="cls-1" d="M378.12,208.1c.39.37.68,3.39-.67,3.06.03-.26-.32-4.01.67-3.06Z"/>
  <path class="cls-1" d="M252.22,105.92c.33.25-.25.59,1.13.37-.66.78-1.23,1.41-2.38,1.19-.41-1.08,1.16-.49,1.02-.85-.31-.77-1.06.04-1.36-.34l1.04-.71c.23.04.38.21.55.34Z"/>
  <path class="cls-5" d="M333.47,325.8c.92-.08,2.11.96.97,1.62-.61-1.1-1.54.08-2.2-.84.3-.33.79-.74,1.24-.77Z"/>
  <path d="M378.64,202.67c.63.01.4.41.16.83-.18.31-1.07,1.87-1.18,1.88-.97.09-.1-2.73,1.02-2.7Z"/>
  <path class="cls-5" d="M183.66,427.71c-.13.36.42,2.75-.5,2.37-1.13-.46-.8-2.32.5-2.37Z"/>
  <path class="cls-5" d="M326.11,54.1c.24.2,1.14-.53,1.36-.34-.53,1.25-1.28.81-.68,2.37h-1.02c.15-.65.27-1.38.34-2.04Z"/>
  <path d="M298.23,12.97c-.38.39-2-.62-1.7-1.36.93-.44,2.3.73,1.7,1.36Z"/>
  <path class="cls-5" d="M380.67,173.43c.28,0,1.23,1.83.33,2.03-1.21.07-.98-2.03-.33-2.03Z"/>
  <path class="cls-3" d="M376.76,253.99c-.58.02-.39-1.55-.35-1.88.07-.51.06-1.05.69-1.18l-.34,3.06Z"/>
  <path d="M331.8,326.16c.19.24.18.9.42,1.26h-1.7c1.49-1.55-.44-.57.34-1.53.17-.22.86.16.94.27Z"/>
  <path d="M324.23,51.05c.8.44,2.1.54,1.03,1.34-.82-.45-2.1-.54-1.03-1.34Z"/>
  <path class="cls-1" d="M377.78,163.22c-.64-.22-.68.76-.84.69-1.21-.54-.12-2.77.84-.69Z"/>
  <path d="M404.98,501.48c.08.63.01.99-.51,1.36l-.84-.51c.83-.27.47-1.07,1.36-.85Z"/>
  <path class="cls-1" d="M270.19,199.6c.95-.21,1,1.36.33,1.35-.25,0-1.27-1.14-.33-1.35Z"/>
  <path d="M267.29,381.14l.34,1.01h-1.36c-.11-.62.37-1.12,1.02-1.01Z"/>
  <path d="M405.32,499.1c.56.58-1.21,1.47-1.7.51.22-.22,1.63-.57,1.7-.51Z"/>
  <path class="cls-4" d="M338.35,327.09c.3,1.1-1.1.85-1.7.17l1.7-.17Z"/>
  <path d="M359.42,309.74c-.6.65-1.52-1.36-.51-1.35.35,0,.72,1.13.51,1.35Z"/>
  <rect class="cls-4" x="365.21" y="168.33" width=".68" height="1.36"/>
  <path class="cls-11" d="M380.5,384.2c-1.71.53-1.72-.87-.68-1.02.44.17.95.56.68,1.02Z"/>
  <path class="cls-4" d="M166.15,353.61c.06,0,.84.78.84.84,0,1.34-2.18-.84-.84-.84Z"/>
  <path class="cls-4" d="M335.29,327.76l.17-1.36c.91.71,1.14,1.26-.17,1.36Z"/>
  <path class="cls-4" d="M327.13,52.4h1.36s0,.68,0,.68c-1.6.39-1.24-.56-1.36-.68Z"/>
  <path d="M238.73,190.08c-.34.35-1.36-.66-1.02-1.02s1.36.66,1.02,1.02Z"/>
  <path d="M18.1,511.68c-.13-.97.37-1.78,1.01-.85l-1.01.85Z"/>
  <path class="cls-9" d="M378.8,244.13s-.22-.02-.33,0c-.05-.62-.11-1.48.67-1.7.02.35-.2,1.55-.34,1.7Z"/>
  <rect x="184" y="429.75" width=".68" height="1.02"/>
  <path class="cls-6" d="M331.21,58.86l.5-1.36c.84.52.23.96-.5,1.36Z"/>
  <path d="M325.43,53.43c-.31.83-.83.91-1.36.16l1.36-.16Z"/>
  <path class="cls-11" d="M326.11,54.1c0-.07-.49-1.02.17-1.36,1.07.4-.34,1.21-.17,1.36Z"/>
  <rect x="291.43" y="6.85" width="1.02" height=".68"/>
  <rect x="181.96" y="422.27" width=".68" height="1.02"/>
  <path class="cls-10" d="M380.5,384.2l-.68-1.02c.78-.11,1.46.78.68,1.02Z"/>
  <path class="cls-4" d="M407.02,441.65h-.68s0-1.02,0-1.02c.49.11.78.55.67,1.02Z"/>
  <path class="cls-5" d="M329.17,57.16c.1.47-.18.9-.67,1.02v-1.02s.67,0,.67,0Z"/>
  <path d="M342.43,259.44v.68s-1.02,0-1.02,0c.11-.49.55-.78,1.02-.67Z"/>
  <path d="M409.77,515.94c-.07-.34-.72-.06-.96-.27-.16-.14-.06-.63-.21-.8-2.26-2.56-.87-3.01-.93-5.72-.03-1.39-1.32-3.37-1.47-1.58-.08.93.7,1.16-.88,1.04l1.02.34c-1.5,1.35.4,2.96-.05,4.51-.15.5-2.56,2-2.82,1.94-.11-.03-1.53-1.49-1.55-1.6-.28-1.08.18-5.62-.76-6.14-.37-.21-1.01.02-1.36-.16-.69-.34-2.34-1.18-2.89-1.54-1.05-.69-3.57-3.77-4.67-3.67-.15.01-2.77.95-2.89,1.04-.71.58-.43,1.89-.78,2.45-.43.69-3.11,1.66-3.64,2.31-.56.69-.39,1.94-1.52,2.56-.92.5-1.55.16-2.31.41-.65.21-3.53,1.86-4.18,2.28-1.09.7-2.49,3.81-3.78,4.05-1.03.19-1.28-2.2-2.67.38-.33-1.45-1.77.04-2.74.32-4.66,1.33-10.34,3.24-14.96,4.08-1.49.27-3.35-.14-4.99.11-1.67.25-2.58,1.52-4.22,1.59-3.65.16-7.41-2.09-10.66-2.56-.72-.1-1.37.25-1.8.15-.54-.12-1.17-1.24-1.81-1.6-1.94-1.11-4.52-1.79-6.77-1.34-.26.05-.11.54-.17.59-.88.59-.71-1.15-1.25-1.69-.79-.8-2.54-.71-3.48-1.19-1.19-.61-1.98-2.22-2.32-3.46-.67-2.38-.81-5.98-2.33-7.87-.58-.73-1.46-.51-1.53-1.9-.09-1.82,1.82-2.12,2.02-3.48.06-.42-.81-3.1-.93-4.04-.34-2.84-.24-8,.37-10.77.23-1.06,1.77-3.37,2.21-4.93,1.69-6.02,1.73-12-2.95-16.57-.74-.72-1.94-1.08-2.73-2.12-2.94-3.85-.35-4.75.59-8.15.75-2.74-.7-4.05-.24-6.37.19-.96,1.32-1.31,1.55-2.2.18-.69-.37-1.38-.06-2.41.37-1.21,1.86-1.73,2.53-2.58,1.23-1.56,2.85-5.42,3.84-7.38.39-.78,2.14-3.52,2.25-4.17.07-.4-.34-.92-.29-1.27.03-.26.71-.32.98-.78,2.44-4.13,3.69-10.38,5.67-14.74.49-1.08,1.57-1.96,1.95-2.81.49-1.11.18-2.25.52-3.19.62-1.71,2.78-4.34,3.5-6.39.26-.73.37-2.94-.53-2.9-.2,0-.46.81-.76,1.02-3.85,2.67-4.42,5.01-7.69,7.69-.47.39-1.55.52-2.11,1.13-.43.47-.43,1.19-.56,1.3-.23.19-2.49.76-3.15,1.44-2.02,2.09,1.42,6.88-3.42,8.47-6.28,2.07-4.68-3.13-5.94-6.6-.35-.98-2.05-3.33-1.96-4.37.12-1.31,2.17-3.36,2.29-4.49.2-1.93-.85-6.23-.67-7.4.03-.17,1.82-1.31,1.34-3.08-.24-.88-1.08-.2-1.46-.29-.5-.11-1.78-3.07-2.3-3.78-.41-.56-1.06-.72-1.47-1.25-1.31-1.68.94-2.89,1.61-4.16.25-.48.15-1.35.32-1.55.71-.84,5.43.61,7.09-.9,2.32-2.11,1.2-4.29,1.69-6.42.06-.26.65-.2.64-.37-.02-.34-.42-.7-.26-1.31.22-.86,2.24-1,1.66-2.62l-1.02.34c.57-.67-.39-1.61-.34-1.69.02-.03.42.11.65-.27,1.65-2.69,1.34-4.77,1.74-7.71.06-.47.59-.89.58-1.04,0-.26-.61-.54-.72-.84-.44-1.16-.74-2.46-1.18-3.64-.33-.88-1.8-2.78-.4-2.49.07-.61-.67-.01-.72-.83-.07-1.1.44-2.16.53-3.06.14-1.38-.34-3.13.53-4.6-2.54-.68-5.4,2.38-4.76,4.76-.68-.87-2.28,1.15-2.53,1.69-.04.08-.49,1.25-.58,1.5-.75,2.02-.91,5.11-2.43,6.57-.37.36-1.08.3-1.42.79-.34.5-2.25,5.41-2.54,6.3-.29.9-.22,2.26-.53,2.87-.36.7-1.71.66-2.05,1.35-.5,1.02-.59,4.6-.92,5.88-.19.74-1.56,3.95-2.06,4.23-.39.23-1.14,0-1.47.42-.21.27.36,3.43-.82,3.93,1.6.66.5,1.06-.68.51-.1.08-.38,2.26-.35,2.55.04.36.5-.23.85.15.09.1,1.14,1.84,1.15,1.95.08.49-.48.69-.63.97-.51.9,1.11-.22.68.67-.14.3-.52.1-.67.42-.61,1.32.01,3.45-.31,3.94-.35.52-1.56.48-2.26.9-1.12.67-1.41,2.53-2.88,2.4l.34.67c-.21.19-4.15-.02-1.6,1.44,1.54.88,1.78-.44,2.8,1.97.35.83-.31,1.63,1.18,1.36-.41.71.01,2.08-.09,2.5-.23.98-1.75.67-.09,2.6.71.82,2.55,1.69,2.83,2.61.21.69.05,1.56.3,2.42.42,1.44,2.88,3.74.63,5.19-.6.38-3.6-.41-4.35-.79-.18-.09-3.12-2.2-3.25-2.36-.16-.2.01-1.08-.23-1.64-.26-.6-2.4-2.27-3.04-3.08-.43-.54-.42-1.32-.85-1.87-1.11-1.41-5.5-3.52-5.77-5.45-.09-.63.62-2.28,0-2.7-2.11-.39-4.77-1.44-6.78-.82-.52.77,1.69,3.64,2.09,4.47.32.67.21,1.5.52,2.2,1.11,2.53,4.61,1.82,5.34,3.13.11.19-.14.93.08,1.61.36,1.06,3.09,4.75,3.83,5.81,1.67,2.4,3.26,3.52.68,6.36-1.46,1.61-2.61,1.5-4.33,2.13-1.72.64-1.67,1.59-4.18.94-1.76-.46-4.24-3.27-5.75-2.72-1.5.54-4.74,3.98-5.47,5.42-.49.96-.5,2.85-1.58,3.18-.72.22-5.19.04-5.95-.28-.42-.18-.57-.95-1.11-1.36-.74-.55-1.93-.8-2.72-1.36-1.56-1.1-1.91-2.94-3.22-3.92-.68-.51-1.66-.62-1.97-.92-.47-.44-1.74-2.92-2.31-3.64-1.63-2.05-3.04-2.98-5.24-4.23-.24-.14-.71.23-1.18-.19-1.14-1.03-1.78-4.46-2.4-5.11-.15-.15-3.53-1.92-3.74-1.93-.2-.01-3.05,1.67-3.41,1.93-1.75,1.24-3.41,3.37-4.9,4.94-1.78,1.87-3.49,1.6.2,3.85.61.37,1.35.23,1.73.48.31.19.78,1.45,1.66,1.91.83.43,1.65.3,2.42.64,4.31,1.88,7.72,5.06,11.32,8.06,4.89,4.07,10.42,8.17,15.12,12.42,1.25,1.13,2.21,3.55,3.42,4.75,1.24,1.21,3.78,2.94,5.14,4.2,3.09,2.88,2.19,1.88,5.86,3.49.9.39,7,3.1,7.17,3.46.18.39.32,3.02.2,3.48-.42,1.61-2.52,3.5-2.85,5.7-.08.56-.15,4.74-.1,5.35.08.98.83,1.35,1.17,2.26.36,1,.32,2.95.75,3.67.6,1,2.87,1.38,3.16,3.33.14.95-.45,5.15-.71,6.28-.87,3.77-2.53,7.43-4.12,10.83-1.24,2.65-1.09,4.52-2.32,7.2-1.37,3-2.76,6.73-4.4,9.54-.97,1.66-1.93,1.19-2.68,1.74-.6.44-.54,3.13-.76,4-.43,1.7-1.62,3.22-1.86,4.93-.5,3.47-.12,4.58-1.84,8.02-.3.6-1.02.91-1.34,1.72-.69,1.75-.05,4.18-1.33,5.97h13.6c.56-1.48-1.34-1.7-1.36-2.53-.02-.76.97-1.66,1.18-2.4.48-1.68.01-4.24.23-6.07.61-5.17,2.61-10.31,3.34-15.36.2-1.4-.46-3.39-.2-4.35.32-1.22,1.46-1.58,1.78-2.92.39-1.63-.09-3.39.16-4.94.1-.61,1.53-5.56,1.78-6.04,1.25-2.45,2.08-3.36,3.28-6.24.55-1.32,2.22-2.49,2.82-3.64.8-1.55.31-2.56.61-3.74.04-.15,1.9-1.68,2.2-2.3.49-1.04.29-3.14.96-3.97.1-.12,2.39-1.57,2.61-1.64,2.07-.65,5.42.16,6.77-1.73.62-.86,2.87-6.5,2.8-7.44-.05-.7-.71-.52-.99-1.07-.14-.29-1.33-3.82-1.37-4.11-.1-.73.24-2.89.7-3.4.57-.62,2.3-1.13,2.94-.22.35.5,2.66,6.21,2.74,6.79.16,1.16-.36,2-.34,3.01.06,2.57.84,4.9.71,7.85-.08,1.72-.79,4.07-.67,5.72.37,5.26,2.36,10.42,3.02,15.36.25,1.84-.37,3.41-.3,5.03.11,2.28,1.9,4.86,2,6.55.1,1.54-.72,3.14.08,5,.22.51.87.47.96.81.68,2.59-.31,9.16.03,12.47.29,2.74,3.4,8.26,1.96,10.55-.3.48-2.19,1.86-2.86,2.58-.64.69-1.21,1.67-1.86,2.38h14.28c-.59-2.89.75-2.08,1.22-2.7.11-.14-.22-.8-.03-1.35.83-2.46,2.13-2.4,3.9-3.29.25-.12.26-.75.59-.83.69-.17,1.58.15,2.5-.14.74-.23,1.26-1.17,2-1.4.99-.31,2.04.05,2.86-.21.41-.13,1.21-1.72,2.79-1.97,1.46-.23,4.56.38,6.45.34,3.29-.06,6.8-.67,10.2-.37,1.6.14,2.74.88,4.06,1.04,3.19.39,6.35.24,9.86.68,1.2.15,3.5-.43,4.03-.3.73.18.87,1.42,1.48,1.62.92.3,1.62-.58,1.99-.56.33.02,1.13,1.23,1.77,1.54,3.11,1.48,8.78.95,11.34-1.46.29-.27-.02-.73.05-.79.6-.53,3.5-1,3.63-1.14.15-.16-.05-.8.07-.91.15-.15,1.26,0,1.76-.12,2.46-.58,3.4-.79,5.87-1.1,1.3-.16,3.38-2.64,3.82-3.83.11-.29.97-3.2,1-3.37.08-.57-.57-2.07-.19-2.47.09-.09.65.05.86-.12.35-.3.38-.88,1-1.24,1.21-.7,2.77,0,2.2-2.57ZM295.17,385.89h-.68s0-1.02,0-1.02c.49.11.78.55.67,1.02ZM306.71,437.01c-1.04,2.59-2.99,1.94-3.55,2.59-.31.35-.43,1.66-.77,2.29-1.06,1.96-2.6,3.11-3.81,4.69-.68.89-.77,2.96-2.51,2.89-1.4-.05-4.88-2.44-6.43-3.12-1.09-.48-2.37-.44-3.42-1-.67-.36-5.64-4.27-6.32-4.9-.14-.13-1.93-2.94-1.98-3.11-.79-2.71.47-5.45,1.29-7.92,1.4.82,2.74-.41,4.24-.35.9.03,1.63.62,2.43.68,1.89.14,3.38-.3,5.59.17,4.13.87,5.87,2.5,9,4.94.46.36.55,1.1,1.27,1.45,1.21.6.86-.26,1.38-.65.27-.2.76-.11,1.06-.46.6-.71.42-1.75,2.23-1.69.06,1.4.87,2.14.32,3.52ZM305.88,432.8c-2.3-.87-.94-4.14,1.19-4.07.39,1.97.22,2.63-1.19,4.07ZM322.02,522.22l-1.01-.35c-.17-.81.43-1.74,1.35-1.69l-.34,2.04ZM394.74,525.74c-.22.66-3.93.67-4.63.45-.4-.12-1.07-1.42-.77-1.93,1.51.19,6.41-1.51,5.4,1.48Z"/>
  <path d="M454.13,93.86c-1.17-.86-2.27.16-3.45.33-.95.14-2.11-.17-2.97.09-.49.15-.7.8-1.43.95-1.77.35-3.7-.39-5.44-.36-2.28.04-4.8,1.18-7.14,1.38-10.51.87-21.35-.28-31.97-.35-4.24-.03-6.99-.23-11.18-.69-4.91-.53-9.02,1.63-13.97,1.05-4-.46-8.18-1.02-12.23-1.37-4.97-.42-10.12-.95-14.96-1.02-4.4-.07-6.16-1.7-9.62-1.97-6.96-.53-13.39-2.07-20.28-2.47-4.25-.24-10.08.58-13.97.03-.86-.12-1.44-.7-2.27-.83-.68-.11-1.25.58-2.07.13l-2.57,4.67c-.19.57.24,1.11.23,1.63-.01,1.81-.65.78-1.46.83-5.3.37-3.52.65-4.83,4.37-.64,1.82-1.11,1.74-2.13,2.62-.38.32-.29.88-.47,1.06-1.48,1.49-3.37.36-4.78.85-.48.17-.45.93-.78,1-.59.12-1.42-.49-1.95-.35-.59.15-.24,1.31-1.22,1,.51-2.72.02-1.48-1.28-1.91-1.9-.63-3.06-1.22-5.34-.79-.15.03-2.14.92-2.21,1.02-.21.3.39,1.17.29,1.3-.09.11-.62.12-.79.36-.15.21.13.7-.02,1.02-.87,1.76-1.62.97-2.83.89-1.13-.08-2,.83-1.75-.87-.61-.2-.83.55-1.19.57-.36.03-.84-.6-1.36-.59-.11,0-.02,1.28-1.74.39-.99-.51-.61-.93-1-1.38-.36-.42-1.16-.21-1.34-1.03-.95.41-.46,1.8-.66,2.04-.37.45-2.83,2.24-3.45,3.02-.41.52-.45,1.31-.51,1.38-.16.17-4.07-.11-4.73-.33-.16,1.43-.19,3.85-1.69,4.6-.9.44-2.04-.05-2.83.16-.38.1-.36.9-.76.99-.28.06-2.79-.38-3.35-.3-.23.03-.17,1.16-.88.67-.06-.04.06-.62-.83-1.03-1.54-.7-1.52.18-2.28.84-.23.2-.81.12-.93.24-.53.55,1.01,2.76-1.41,3.22-.49.09-1.12-.21-1.48-.1-.6.17-1.62,1.27-2.53,1.51-.84.22-3.47.08-3.81.26-1.04.53-.56,2.09-.69,2.22-.15.16-1.89-.04-2.31-.25-.58-.28-.67-1.03-.99-1.12-.31-.08-2.28-.06-2.44.05-.16.11-1.13,2.81-1.77,3.5-1.12,1.22-3.13.69-4.53,1.6-.63.41-.76,1.13-1.16,1.31-2.51,1.1-6.65-.45-9.08-.36-1.57.06-5.26.77-6.46,1.73-.69.55-.77,1.36-1.68,1.75-.96.41-4.15.26-6.06,1.05-.85.35-1.01,2.18-1.43.61-.35.81-1.72.93-2.04,1.37-.24.33-.12.94-.17,1.01-.08.1-1.96-.75-2.52-.62-.78.18-.65,1.56-.97,1.89-.56.59-2.74,1.03-3.32,1.32-.11.06-1.9,1.45-1.96,1.56-.26.46.14,1.47-.39,1.82-.41.27-1.46.11-2.09.29-2.14.63-1.4.4-3.53.52-2.53.14-1.68.91-2.31,1.97-.2.33-1.74.74-1.62,1.79l-.34-1.02c-.83.13-.49,1.24-.84,1.71-.45.61-5.63.54-6.78.7-2.21.31-3.65,2.45-6.32,1.67-.29-.66.15-4.26,0-4.42-1.09-1.1-3.06,2.74-2.72,3.06.13.12.94-.22,1.02.17-.98,1.79-1.8,3.59-2.04,5.62-1.82-.09-5.7.02-4.08,2.71-1.49.55-2.78-.64-4.08.68.38-2.83-3.11-1.63-4.94-1.68-1.33-.04-6.49-.68-7.17.31-.29.42.85,1.99-1.16,1.71.93-.39.31-2.41-.34-1.69-.1.11.39.57.19,1-.19.43-1.19.75-.81,1.33.04.06.58,0,.63.27.13.6-.27,1.24-.22,1.67.06.42,1.79,1.76,1.78,2.36,0,.19-.39.47-.42.74-.05.38.16.77.05,1.14-.06.2-1.03,2.13-1.18,2.19-.77.33-1.86-.73-2.3-.79-.5-.07-.86.62-.95.62-.25,0-.39-.83-.57-.94-1.17-.7-3.25.58-3.68,1.62-.66.11-.18-.81-.34-1.02-.12-.17-3.24.82-4.08.35l.34.67-4.72-.05c-.2-1.43-1.81-.56-3.01-.43-.3.03-.72-.21-.75-.19-.06.05-.24,1.08-.44,1.44-.24.44-.71.73-.87,1.18-.46,1.26.75,1.68-1.77,1.45.42.86-.12,2.17.01,2.87.09.51.73,1.11.67,1.2-.03.04-.79,0-.98.56-.4,1.19.12,4.49-.83,5.81-.19.26-.84.38-1.11.75-.56.73-2.07,4.01-3.2,3.09-.74-.6,1.24-.65.68-1.35-.05-.07-1.41-.67-1.56-.69-.35-.05-2.76.59-2.86.7-.09.09.24.7.15,1.03-.15.57-.93,2.9-1.16,3.23-.26.36-1.17.42-1.04,1.16l-.34-.67c-.86-.28-.59.41-.8.55-.75.51-3.02,1.31-3.24,2.07-.16,2.49-.05,4.96-.05,7.58-.32.3-4.7-1.39-6.26,1.05-.38.59-.55,1.87-.98,2.25-.6.54-2.44,1.18-3.12,2.14-1.29,1.82.16,2.45.11,3.17-.07.95-1.99,1.92-1.14,3.62.57,1.14,2.2.37,2.91.83.36.24.66,1.95,1.18,2.56.56.65,1.21.55,1.43.78.51.53-.16,1.77,1.79.93-.08.5.01,4.9.68,4.42l.51-1.36,1.87,2.89c-1.43.61-2.56,1.03-2.88-.85-1.05.25-1.38,1.84-1.98,2.27-.73.53-2.66.28-1.77,2.14.65,1.35,2-.46,3.04,1.04.87,1.25.25,2.38.19,3.72.81.33.99-1.14,1-1.58.02-.55-.39-1.75-.32-1.82.22-.2,1.16,0,1.32.56.04.14.13,2.72.03,2.83-.13.15-.93-.46-1.02-.34-.09.12.11.78-.03,1-.03.04-.58-.32-.82,0-1.01,1.31.14,6.16-3.52,4.4l-.73-6.92-.68-.5c-.35,3.32-.96,6.32-.33,9.68.4,2.15,1.79.11,2.37.52.45,3.27.34,6.61-.16,9.88-.97.15-1.85.44-2.21,1.5.41.99,1.4.43,1.88.82.79.64.62,1.88,2.54,1.4l-.68,1.36c.57-.49,3,.29,3.25.66.5.74-.55,3.12,1.51,5.63,2.27,2.76,3.85,3.13,6.56,4.91.5.33.62,1.27,1.35,1.84,1.61,1.25,5.31,1.57,6.38,2.77.41.47.26,1.09.53,1.51.46.74,3.22,2.75,4.14,3,1.22.34,2.85-.01,3.84.21,2.44.54,6.22,2.43,8.59,3.34,1.1.42,4.67,1.43,5.59,1.04,1.39-.6,2.43-4.12,3.17-.78.89-.7.54.33,1.23.63,2.89,1.24,5.43.97,8.11,1.6.52.12.93.72,1.71.84,2.26.34,1.48-.99,2.19-1.52.08-.06,1.73-.7,1.96-.76,1.85-.5,3.72-.14,5.31-.47.51-.11,1.57-.94,1.9-.64.13.11-.4.77-.18,1.04.39.49,1.22-.16.52,1.33,1.31.07,2.64.19,3.95.21,1,.01,2.6-.81,3.19.47h-10.2s.33.86.33.86c2.84-.07,6.24.51,9.03.18,2.13-.25,5.39-1.28,7.53-1.29,1.39,0,3.12.92,5.35.57,2.73-.43,1.36-1.56,1.26-2.52-.22-2.18.34-5.08,2.92-5.57,3.5-.66,1.28,4.26,3.6,3.66,1.74-.46,1.64-4.98,2.44-5.75.3-.29,3.3-1.06,3.74-1.02,1.01.1,1,1.21,1.77,1.64.77.43,1.79.24,2.67.73,2.34,1.3,3.39,3.6,5.24,4.95.89.65,1.59,2.04,2.7.3.16-.24,2.1-4.79,2.12-5.06.04-.92-.44-1.16-.6-1.76-.08-.28.21-.71.15-.93-.13-.49-.93-.42-.97-.74-.07-.68.59-3.36.62-4.39.06-1.91-.02-5.76-.55-7.54-.31-1.05-1.16-2.03-1.35-3.08-.63-3.41,1.08-6.78-2.15-9.41-.85-.7-4.11-2-4.62-2.69-1.05-1.4-1.8-3.16-3.36-4.63-.67-.64-2.6-1.48-3.1-2.17-.38-.52-.37-1.69-.97-2.27-.71-.69-2.82-.98-3.71-2.07-1.12-1.38-.03-2.26-.26-3.45-.41-2.13-2.48-3.94-3.48-5.39-.46-.68-.45-1.74-.92-2.49-.24-.38-1.58-1.64-2-2.1l.35-2.18c.89-.02,1.18.88,1.95,1.28,1.93,1.01,1.67-.12,2.05-.23,1.01-.28,2.09-.41,3.14-.36.12.66-.73.14-.97.37-.14.14,0,.91-.21,1.32-.27.52-1.01.47-1.18.94-.08.21-.34,2.06-.3,2.22.12.46.77.65.88,1.13.07.31-.34.85-.11,1.16.32.42,1.09.19,1.47.42.61.36,1.49,2.64,2.13,3.14.4.31,3.86,1.93,4.22,1.88.52-.08.9-.62,1.42-.69.58-.08,1.57.61,1.84-.17.48-1.37-1.02-.59-1.33-.89-.1-.1-.91-1.47-1.55-1.99-.84-.68-3.4-2.03-3.8-2.84-.65-1.33-.04-3.17-1.82-4.14l2.37-1.02c-.13-1.14-2.28-2.2-2.35-2.43-.15-.45.23-1.09.19-1.6-.1-1.42-1.3-11.21-1.64-11.71-.14-.2-.76-.24-1.05-.83-.71-1.46-.24-1.94.95-2.65-.05.5,2.52,1.36,2.67,1.34.93-.14,1.26-2.74,1.58-3.03.51-.47.91,1.11,1.85,1.04.18-.01.15-.71.38-.72.22,0,.75.42.82.35.06-.06.35-1.42,0-1.53l-.34.68c-.44.57-.43-.51-.36-.7.22-.65.64-.47.7-.72.11-.47-.11-1.21,0-1.47.04-.09,1.63.29,2.04,0-.65.87.2.62.63,1.23.55.77,1.05,2.5,1.04,3.39,0,.23-.59.09-.64.15-.53.65.58.71.82,1.02,1.19,1.57.03,4.99.53,6.89.12.46,2.22.85,2.38,1.59-1.21-.45-2.37.19-3.27.24-.94.05-2.3-.64-3.31.08-.74.53-.86,3.44.46,3.6-2.72,1.73-.37,1.17,0,1.53.08.07-.49.84-.34,1.02.87-1.2,5.49-1.81,6.48-1.2.26.16.32,1.71.25,1.8-.39.57-2.15.42-1.3,1.43l-1.36-.33c.83.88,1.13,3,1.88,3.73,1.56,1.52,4.06.14,6.03,1.11.73.36,1.09,1.19,1.62,1.44.58.27,1.24.11,1.88.5.79.48,1.82,3.03,3.31,3.01.2,0,3.13-1.19,3.24-1.33.2-.25-.05-.99.05-1.42.07-.28.68-.22.69-.43.01-.6-.7-1.45,0-2.33-1.9-.77-2.78-3.32-5.11-2.92l4.07-1.38c-.71-.98.54-1.6.69-2.19.03-.13-1.7-.71-1.02-2.2l-.84,1.69c-.74-.3-.07-1.28-.17-1.36-.23-.17-1.86.35-2.04-.68.51-.2,2.37.05,2.63-.08.07-.03.21-.49.51-.72.32-.24,1.12-.47,1.23-.64.42-.6-1.37-1.84,1.25-1.98,1.15-.06.62,3.07.88,3.38.05.06,1.36.36,1.55.36,1.08.02,2.38-.89,3.27-.9.94-.01,2.39.52,3.35.38.24-.04,3.22-.9,3.36-1,.43-.29.64-1.89,1.38-2.36,1-.64,3.07-.03,3.22-1.71.03-.37-.27-.85-.19-1.3.04-.25.54-.25.66-.5.18-.37.31-1.4.37-1.44.06-.04.8.47,1.45.3.59-.16,1.16-1.28,1.82-1.62.96-.5,3.02-.58,3.69-1.75.28-.49.15-1.16.34-1.7.56-1.57.29-1.83.57-2.8.23-.78,1.58-1.05.63-2.62-.48-.17-.27,1.35-1.02.67-.09-.08.31-.45.25-.61-.05-.11-.85.03-.59-.92.06-.21.69-.25.84-.51.39-.67.52-2.62.19-3.4,2.17.51,1.69-.89,2.13-1.29.34-.31,1.3.47.93-1.43.9.32,1.24.41,1.37-.68h.33c.85,2.5,1.81-.59,2.72-.89.97-.31,4.06,1.04,4.08-.31.02-1.13-2.08-.53-2.46-.59-4.04-.64-3.81-1.46-6.82-3.38-1.81-1.15-4.97-3.25-6.68-1.47-.65.68-2.56,4.06-2.78,4.19-.26.16-1.83.08-2.75.48-1.42.61-1.87,2.1-2.19,2.31-.52.33-1.9.35-2.56.26-.45-.06-5.4-1.84-5.61-2.05-.07-.07-.64-1.66-.66-1.84-.22-2.01,1.25-1.44,2.25-2.01.49-.28,2.41-1.45,2.73-1.69.85-.64.6-2.44,2.84-3.3,1.41-.54,1.62.64,3.45-.94,1.85-1.6.77-2.03,1.43-3.65.71-1.75,5.01-.11,6.4-.05,3.04.12,5.99-.76,8.74-.97.67-.05,6.31,1.11,6.82,1.36.34.17,1.87,2.45,1.94,2.82.18.97.29,2.97.37,4.06.12,1.78-.81,2.39.53,3.89.41.46,1.03.7,1.51,1.22.26.28.21.91.41,1.1.59.59,1.67.05,2.08.11.18.02,2.21,2.6,1.57-1.04,1.72-.24.7.48.68,1.69,1.22.68,2.52.1,3.58.17,1.56.11,6.94,1.6,7.45,1.56.63-.06.89-.75,1.45-.96,2.73-1.02,8.43.6,11.66-.24,1.32-.34,2.83-2.16,3.83-2.79.45-.29,1.23-.12,1.94-.62.63-.45.9-1.63,1.6-1.82.62-.17,1.73.34,2.63.31,1.93-.06,3.9-1.18,5.88-1.29,2.27-.92,1.29-3.81,2.35-4.45.94-.57,2.76-.31,3.52-.61.66-.27,1.6-1.53,2.28-1.74,1.24-.38,5.1-.78,6.3-.33.85.31,1.32,1.49,1.96,1.78,1.16.51,2.75-.16,3.43,1.33.22.49.69,5.07.66,5.81-.08,2.25-1.12,5.36-.72,7.85l.87,2.86c.31,0,2.43-2.43,2.6-2.86.29-.7-.13-1.77.11-2.42.3-.8,1.41-1.67,1.81-2.78.84-2.34,1.61-6.9,2.14-9.41.36-1.71.61-4,2.03-5.1,1.89-1.47,3.05-.88,4.9-1.22.7-.13,1.12-.88,1.93-1.13,3.16-1,7.03-.6,10.27-.95,2.3-.24,2.29-1.11,3.49-1.55,1.45-.53,6.76.56,9.11.21,1.6-.24,2.83-1.93,4.27-1.34l-2.62-2.04c-1.2-.66-4.62-.59-5.9-.19-.94.29-1.42,1.43-2.03,1.71-1.58.73-4.02-.4-5.6-.51-6.33-.42-13.15.11-19.34-.38-.63-.05-3.37-.43-3.71-.63-.31-.18-1.34-2.92-1.92-3.24-.39-.22-1.34.6-1.91-.17-.26-.34.68-1.8-1.16-1.02.71-.66-.41-1.6-.34-1.69.04-.06.49.06.6-.05.08-.08-.33-1.79.08-2.33,1.53,1.32.74.13,1.24,0,.91-.23,1.97.35,2.63-1.01.28-.58-.57-3.48-.78-3.58-.56-.27-1.26-.01-1.66-.24-.24-.14-.03-.71-.92-.95-.9-.24.06.99-.85,1.02-.42-.7.74-1.95.67-2.03-.05-.05-.49.06-.57-.07-.03-.05-.34-.72-.36-.78-.14-.49-.06-2.05-.18-2.35-.64-1.63-2.6-1.1-3.98-.88-.86-1.48.47-2.87.53-3.58.07-.83-1.33-2.13.14-3.06-1.44-.35-.03-1.49.41-2.32.16-.3-.06-.93.24-1.09.83-.43,2.04.24,2.75-.67-.51-.64-2.94.28-3.06.17-.11-.11.24-.6.19-.85-.08-.38-.63-.68-.53-.84.06-.09,1.75-.73,2.09-.8.9-.19,5.18.13,5.4-.03.59-.45.26-1.86.33-2.58l1.01.34.2-1.04c2.06.35,7.75-2.5,7.11,1.04.98-.51.43-1.51.6-1.95.46-1.19,3.4-1.56,4.51-1.6,4.36-.15,9.94-.46,13.96.13.86.13,1.79-.04,2.66,0,.86.59-.13,2.47.54,2.93.15.1,2.56-.01,3.62.46,1.21.55,1.44,1.97,2.02,2.39.15.11,2.92,1.09,3.47,1.29.71.27,3,.61,3.32,1.1.25.39.1,1.15.36,1.68.32.67.87,1.15,1.09,1.97.17.62-.06,1.39.12,1.92.17.5.87.48.94.59.09.13-.43.74-.29.95.04.06.78.21,1.17.72,1.43,1.86,2.75,8.33,1.1,10.1-.49.53-2.52.69-2.63.78-.1.08.38.71.05,1.2-.34.52-3.38,2.76-3.38,3.04,0,.12.9,1.19.94,2.07.08,1.77-2.19,4.53-1,5.77,1.03,1.07,11.86.11,14.13.13,1.44.02,6.25.19,7.42.45.53.12,2.15,1.75,3.27,2.12,1.18.4,2.83.44,4.17.93,1.33.48,5.78,2.87,6.81,2.58,1.87-.51,2.1-3.4,2.73-4.27.58-.81,1.86-2.33,2.62-3.33.68-.88,1.86-1.29,2.39-2.03.56-.78.62-2.43.71-2.52.1-.09.96-.04,1.51-.36.58-.34,2.91-2.88,3.56-3.58,2.82-3.04,5.59-6.58,7.74-9.94,1.38-2.15,1.64-1.65,3.3-2.82,1.76-1.24,4.93-7.02,6.28-9.02.77-1.13,2.52-2.24,3.4-3.4,1.45-1.92,2.36-4.45,4.09-6.45.84-.97,2.42-1.99,3-2.78.84-1.14.73-2.94,1.45-3.99.56-.82,2.18-1.52,2.82-2.62,1.06-1.81,2.12-5.32,3.25-6.86.37-.51,1.07-.53,1.45-1.36.39-.86.19-2.1,1.04-2.87,1.43-1.3,1.02-.05,2.13-2.46.28-.61,1.45-.93.33-1.75ZM130.62,277.45c-.59.62-1.31-1.29-.51-1.7.33.19.63,1.57.51,1.7ZM164.99,279.35c-.54.66-4.61.7-5.15.33-.77-.53-.78-5.36,1.72-4.61l-.34-.67h3.06c-.71.96.24.59.7,1.16.66.83.69,2.97,0,3.8ZM173.14,209.65c-.11.75-.58,1.14-.67,1.71-.12.77.11,3.87-.88,3.87-.12,0-1.04-1.1-1.36-1.36-.4-.31-.99-.29-1.34-.7-.08-.09-1.25-1.87-1.35-2.05-.72-1.32-1.08-4.91.5-5.59.76-.33,1.6.33,1.87-.14.77-1.35-1-2.23,2.2-2.4-.23,2.52,1.41,4.06,1.04,6.65ZM187.35,187.82c-.1.52-1.4,1.06-1.32,1.92-.14.1-2.69-1.49-3.22-1.54-.55-.05-1.41.42-2.08.49-4.1.42-1.88-.81-2.52-1.66l-1.01.34c-.57-.95.07-3.39-.9-3.69-.15-.05-2.5-.4-2.64-.39-.1,0-.44,1.05-1.22.68l1.02,1.35c-1.1-.33-1.05.63-1.36.84-1.56,1.07-.67-.35-.67-.64,0-.25-.57-.17-.62-.36-.22-.85,0-2.33-.42-3.23,1.11-.37,2.35-.12,3.47-.45,1.69-.51,2.75-2.06,4.9-2.27.88-.09,1.58.34,2.33.29,1.51-.12,5.01-1.05,6.24.13.28.27.44,1.95.43,2.46-.04,1.22-1.07,3.52-1.04,4.07.04.6.73,1.21.64,1.68ZM203.04,217.28l1.01-2.38c-.21.91.08,2.01-1.01,2.38ZM299.26,166.46c-.63.21-2.95.82-3.56.87-1.46.12-3.97-.83-4.71-.65-.67.16-2.56,2.24-4.57,2.58-1.99.34-3.44-.34-5.01-.28-1.21.04-3.8,2.01-5.55.97-.19-.12-.28-.87-.58-.95-.41-.1-.95.86-1.67.68-.3-.08-.72-.74-.53-1.01.08-.12,1.97-.73,2.57-1.34.82-.85.72-2.23,1.16-2.58.59-.46,2.34-.27,3.05-.69.75-.44.82-2.04,1.44-2.31,1.33-.57,3.94-.37,5.47-.42,3.17-.12,6.94.25,10.21.08,1.71-.09,2.09-1.6,3.94-.37,2.26,1.5.38,4.73-1.68,5.43ZM305.88,138.75c.29-.04.21.6.15.67-.04.05-1.43.02-.67.69.18.16,1.13-.33,1.02.34-1.97.15-2.29-.86-.51-1.69ZM315.33,147.26c.83-.68.96-1.35,2.61-1.02.1,1.18,1.17,4.81-1.01,3.05l.34,1.02c-1.61.27-.55-.41-1-.84-.19-.19-.97-.57-1.2-.52-.48.12-.3,1.11-.86,1.02.11-.58-.21-1.95.04-2.33.11-.17.8-.16,1.07-.38Z"/>
  <path d="M371.31,264c.2-1.38,1.29-1.98.45-3.82-.25-.54-.84-.62-1.11-1-1.26-1.75-.04-2.98-.06-4.68-.02-1.01-.21-2.51-.26-3.72-.13-2.82-.96-1.35-1.38-1.68-.37-.3-.25-1.11-.35-1.21-.03-.03-.49.27-.75.2-1.93-.54-1.28-.94-2.06-1.96-.98-1.27-2.67-3.17-4.21-3.62-.95-.28-2.23.05-3.29-.11-2.2-.32-4.22-1.3-6.18-1.65-.67-.12-2.61.14-2.83-.06-.11-.1-.36-2-1.22-2.69-.67-.55-1.88-.71-2.73-.7-2.17.04-4.62.79-6.49,1.04-3.89.51-4.56-.42-7.96,2.55-.26.22-1.35,1.24-1.01,1.54,1.28-.2,2.77,1.07,3.92.99.5-.03.86-.56,1.37-.65,1.01-.17,3.91.09,4.75-.12.42-.11.35-.8.73-.91.65-.17,4.97-.07,5.41.32.08.07,1.18,1.76,1.17,1.87-.12,1.09-1.16,1.55-1.33,2.15-.5,1.85,2.4,2.64,2.61,4.07.18,1.25-.81,2.67-.94,3.7-.12.89.58,3.3-.07,3.83-.22.18-.93-.04-1.31.22-.12.08-1.34,2.15-1.4,2.51-.82-.7-4.05,1.34-4.25,1.85-.32.8-.16,2.44-.69,2.98-1.04,1.07-3.56.64-4.76,1.56-2.86-.64-5.82-.39-8.7-1.02-1.56-.34-3.95-1.9-5.19-1.97-.34-.02-2.46.58-2.97.74-.99.3-4.71,2.32-6.02,3.22-.26.18-2.32,1.99-2.4,2.13-.44.81.03,3.62-.42,4.92-.41,1.17-1.73,2.06-2.43,3.91-.03.07-.54.08-.56.26-.13.95.66,1.12,1.04,1.69.27.41.4,1.19.66,1.39.09.07,1.54-.17,1.65-.27.24-.21-.03-.95.61-1.22.12-.05,2.45-.34,2.68-.34,1.27-.03,4.85.95,5.61-.92.32-.8-.82-.23-.67-.84,1.43.38.79-.82,1.24-1.03,1.24-.57,2.5.01,3.68.03,2.71.03,4.86-.18,7.43-.7.22-.05,3.09-2.37,3.84-2.37.78,0,1.19.64,2,.71,1.33.12,4.07.12,5.52.12,2.8,0,8.9,0,11.46-.51.4-.08,2.31-.89,2.6-1.14.74-.63.78-2.1,1.32-2.42.2-.12,2.53-.51,2.9-.5,1.64.02,4.61,1.59,4.92,3.23.29,1.5-.78,5.35,1.89,4.61.47-1.25,1.78-2.83,2.22-3.91.5-1.23.37-3.36.82-4.28.35-.71,1.69-.72,1.88-1.89.18-1.15-.58-2.87-.36-4.42ZM365.32,264.79c-.47-.02-.76-.47-1.01-.48-2.99-.16-5.31,1.43-7.75,1.6-2.06.14-3.92-.7-5.96-.49-.66-.31-1.24-.64-1.36-1.42-.32-2.17.7-1.7,1.16-2.51.91-1.6-1.51-4.08,3.09-4.09,1.29,0,6.26.64,7.3,1.19.8.42,2.26,2.94,2.91,3.55.41.38,2.29,1.14,2.46,1.44.4.69-.13,1.25-.84,1.22Z"/>
  <path d="M340.62,71.04c-.15-.37-1.56-2.74-1.78-3.01-.25-.3-1.49.02-2.1-.77-.72-.93.15-2.3-1.46-1.94l.51-1.01c.36,1.01,2.12.43,2.16-.17.01-.14-.9-2.52-1.01-2.69-.37-.59-1.35-.83-1.69-1.37-.4-.64-.96-4.62-2.31-2.7-.94,1.33.42,1.99.3,2.16-.03.05-1,.2-1.01.52,0,.16.96.78,1.01,1.02.17.75-.94.73-1.33,1.05-.44.37-.77,1.52-1.37,1.13-.08-.05.18-1.04-1.51-.65-.36.08.01,1.01-.9.68-.45-1.02.68-1,.68-1.19,0-.22-1.08.03-.69-1.32.06-.22,1.24-.24.67-.88-.04-.05-1.19.07-.65-.68.03-.05,1.46-.04.67-.69-.1-.09-.85.13-.99-.02-.44-.5.92-1.2-1.31-1.58-.35-.06-1.32-.43-1.1.41.07.29,1.31-.33,1.66.23.15.25-.05.76.05,1.05.08.24,1.31.41.68.93-.07.06-1.76.36-1.85.36-.14,0-.29-1.34-.87-.69-.11.12.44.71.34,1.02-.09.1-.92-1.16-1.69,0,.16-.88.07-4.35-.35-4.76-.45-.44-.9.14-.33.67l-1.19.34.17-1.01c-.81-.1-1.14.83-1.91.92-.28.03-3.63-.48-3.97-.6-.37-.13-.22-.64-.25-.66-.22-.16-.69.67-.84.67-.68,0-.39-3.49-.51-4.08h-4.08c-.59-1.68,1.61-2.31,1.67-2.57.35-1.56-1.65-1.8-1.7-2.06-.3-1.47.5-1.49,1.13-1.84,1.5-.82-1.92-1.86-2.05-2.09-.29-.52.13-1.66-.1-1.94-.13-.16-1.83-.24-1.97-.4-.38-.44.28-1.88.22-2.2-.11-.54-1.34-.37-1.58-1.04-.26-.76.4-1.89,0-2.35-.79-.93-2.26-.23-2.72-.53-.28-.19-.25-1.65-.54-2.01-.4-.5-1.27-.17-1.5-.39-.14-.14.05-.72-.1-.88-.07-.08-1.86-.41-2.18-.42-2.6-.11-.94,2.06-1.66,3.09-.52.75-2.54-.06-2.95.52-.36.51-.43,2.7-.25,3.34.17.6.77.25.97.41.31.24.37.74.68.95.3.2.89-.68.68.88.93-.68,1.11-1.29,2.37-.68l-1.02.51c.89.59,1.41.49.34,1.36,2.59-.2.03.58-.02,1.35.48,1.04.29,5.29,1.01,5.81,1.01.73,4.19-.73,4.61.83l.17-.68c1.2-.31,1.15,1.11,2.38,1.18-.19.82-1.08,1.82-1.28,2.47-.16.52.01,1.66-.09,1.78-.07.08-1.6.07-2.15.4-.63.39-.48,1.05-.92,1.46-.39.37-2.69.96-2.7,1.38,1.05.93.12,1.94,1.69,1.19-1.67,1.43-.16,1.46-.33,2.85-.27,2.13-1.81,2.57-3.74,2.24l.34-1.35c-1.18-.16-2.35-.55-3.55-.32-.5.09-.87.52-1.39.65-.51.13-1.6-.14-1.82.05-1,.87.63,3.78,2.54,3.08.41-.15.93-1.27,1.5-.73.13.12-.37,2.93,0,3.53l1.36.21c.1.55-1.26.41-1.51.36-.5-.09.5-2.32-2.08.31.87,1.5-.42,3.48,1.69,4.07.54-.11.74-1.16.96-1.28.36-.2,1.03.07,1.24-.13.12-.11-.05-.66.12-.86,1.2-1.48,5.24-.1,6.93.2,1.2.21,2.74-.32,3.72.7,1.39,1.44-.16,3.94,1.34,5.45,1.86-1.62.67-3.59.85-5.23.29-2.62,1.3-2.4,3.55-2.23,1.63.12,2.08.33,4.08-.03,1-.18,1.31-1.17,2.75,0,1.54,1.26.95,1.82,3.76,2.36,5.3,1.01,10.44-2.27,15.18-.22.72.31,1.23,1.46,2.31.77.53-.34.06-1.5-.12-1.94ZM306.05,59.54c-.72-.03-1.5-.25-1.37.68-.84-1.06-1.66-1.82-1.02,0-.6-1.04-1.94.24-2.38-.34-.07-.09.1-2.09.31-2.22.39-.23,3.46-.53,3.72-.1.15.25-.04.76.05,1.05.15.44.96,0,.68.93Z"/>
  <path d="M179.61,405.42c-.6-3.84-.66-7.97-1.47-11.79-.64-3.01-2-5.94-2.56-9-.63-3.5-.44-4.56-1.89-8.15-.05-.12-.63-.22-.91-.94-1-2.57-1.04-8.88-2.58-10.34-2.08-1.97-1.93.33-2.21.59-.15.14-2.85-.03-3.89.36-.24.09-1.47.87-1.63,1.02-.89.86,1.45,1.31,2.13,1.59.32.13.54.56.96.73.53.21,1.31.03,2.05.33,1.78.72.91,3.06,1.14,4.64.16,1.09.95,2.8.88,3.73-.18,2.54-2.26,4.56-1.47,8.49.6,2.99,2.09,6.62,2.8,9.4.68,2.7-.4,6.28,1.87,8.64,1.36,1.41,3.8,1.59,5.03,3.47.86,1.32.85,3.78,2.25,4.88,2.03,0-.31-6.59-.48-7.67ZM165.64,368.22c-.03-1.46,1.1-1.79,2.37-1.7.27,2.43-.95,1.01-2.37,1.7Z"/>
  <path d="M277.15,322.67c-.15-.17-1.02.48-.34-1.02l-1.02.34c.49-1.15-.64-1.42-.64-1.51.07-1.06.64-1.13-.44-2.35-1.56-1.77-2.89-.37-4.71.12.17.47.84.71.68,1.36-2.14,1-2.5-.87-.68-1.36-.3-.82-.16-1.65-.84-2.39-.36-.39-5.04-3.17-5.52-3.32-2.7-.81-1.46,1.35-2.81,1.63-.12.65.92-.02.68.84-.1.37-.84,0-.68.34.93.69.52.75,0,1.53l1.02.68c-1.48-.35-2.25.94-.85,1.21.23.05.74-.3.85-.19.27.28-.55,1.69-.54,1.87.04.65,1.06,1.34.89,2.21l3.49-2.01c.42.07,2.71,1.42,2.97,1.67.05.05-.04.32,0,.5-1.86-.29.26,1.38,1.51,1.21.76-.1,1.23-1.02,1.38-1.03,1-.07-.19,1.29-.16,1.49.15.87,3.66,1.44,4.09,1.08.44-.37-.05-1.59,1.33-1.22.19-.65-.51-.81-.68-1.36.07-.06,1.93.75,1.01-.34ZM274.09,325.04c.11-.49.55-.78,1.02-.67v.68s-1.02,0-1.02,0Z"/>
  <path class="cls-4" d="M179.92,186.34c-.61.62-.99-1.1-1.02-1.7.2-.25,1.3,1.41,1.02,1.7Z"/>
  <path class="cls-8" d="M180.94,185.66l-1.02-1.02c.62-.12,1.13.37,1.02,1.02Z"/>
  <path d="M181.28,186.01l-.17,1.02c-.36-.31-.62-.52-.51-1.02h.68Z"/>
</svg>