<?xml version="1.0" encoding="UTF-8"?>
<svg id="Layer_1" data-name="Layer 1" xmlns="http://www.w3.org/2000/svg" viewBox="0 0 246.37 236.72">
  <defs>
    <style>
      .cls-1 {
        fill: none;
        stroke: #000;
        stroke-linecap: round;
        stroke-linejoin: round;
        stroke-width: 2px;
      }

      .cls-2, .cls-3 {
        fill: #fff;
      }

      .cls-3 {
        font-family: Courier-Bold, Courier;
        font-size: 14px;
        font-weight: 700;
      }
    </style>
  </defs>
  <g>
    <path class="cls-2" d="M222.77,98.14c-13.17-4.75-24.39-2.89-37.84-1.98-.68.05-1.36-.02-2.04,0l5.72-29.89c1.55-12.92-1.15-38.76-11.72-47.69-8.69-7.35-33.11-13.51-44.57-15.87-11.71-2.41-25.42-5.65-35.42,2.57-15.06,12.38-23.78,37.96-30.77,55.81-1.76,4.5-2.67,9.73-6.23,13.22l-32.92-4.41c-6.17-4.19-12.83-19.23-21.24-18.57-5.65.44-6.52,5.95-5.22,10.49,2.89,10.07,10.82,19.24,19.32,25.05,10.52,7.19,22.7,12.55,33.99,18.42-5.07,7.1-2.75,17.06-.84,24.94,1.5,6.16,3.98,12.33,5.28,18.46,2.22,10.48,1.22,15.6,7.12,25.5,13.53,22.71,36.65,28,60.32,17.23,11.22-5.1,23.4-12.95,27.94-24.94,8.28,1.21,14.92-4.99,19.35-11.24,3.13-4.41,5.6-9.57,7.05-14.78l.34-.37c8.4.45,16.74,2.09,25.16,2.6,12.28.75,34.13,1.46,39.57-12.47,5.78-14.79-10.03-27.62-22.36-32.07ZM49.13,79.1c.07.01.13.03.19.04l-.19-.04Z"/>
    <path class="cls-1" d="M121.85,105.15c-.41-1.16-1.04-2.23-1.88-3.1-1.13-1.16-2.73-1.39-4.24-1.69-5.29-1.05-10.54-2.28-15.83-3.29-4.35-.83-8.67-1.78-13.07-2.38-1.76-.24-3.25.18-4.68,1.11"/>
    <path class="cls-1" d="M30.7,80.09c-1.35-1.69-3.13-2.5-5.28-2.52-1.24-.01-2.47-.46-3.72-.01-.35.12-.58-.27-.83-.46-2.59-2.01-4.55-4.58-6.49-7.18-2.33-3.13-4.26-6.51-6.44-9.74-.63-.94-1.35-1.35-2.42-1.3"/>
    <path class="cls-1" d="M88.15,103.05c-1.52-.9-2.88-2.01-4.2-3.18"/>
    <path class="cls-1" d="M79.87,94.36c-2.16-1.69-4.71-2.48-7.32-3.12-1.89-.46-3.84-.53-5.76-.69-1.53-.13-3.03.34-4.43.95-1.19.52-2.35,1.14-3.49,1.78"/>
    <path class="cls-1" d="M109.85,6.41c2.14.22,3.83,1.29,5.28,2.82"/>
    <path class="cls-1" d="M102.66,120.02c-.07.96.14,1.93-.12,2.88"/>
    <path class="cls-1" d="M103.62,131.29c1.32,2.42,2.8,4.73,4.42,6.97,1.4,1.95,1.38,4.3,1.44,6.58.01.4-.28.75-.52,1.08"/>
    <path class="cls-1" d="M95.82,84.05c-1.1,0-2.16.04-3.26.43-1.51.54-3.1-.09-4.66-.15-1.24-.05-2.47-.36-3.72-.28"/>
    <path class="cls-1" d="M136.54,129.85c.3-1.45-.2-2.38-1.6-3.03-1.29-.6-2.33-1.63-3.37-2.6"/>
    <path class="cls-1" d="M123.29,118.1c-2.01-1.91-4.09-2.11-6.84.59-.77.75-1.63,1.41-2.39,2.16"/>
    <path class="cls-1" d="M109.37,120.62c.4.92.75,1.78.4,2.89-.55,1.73.72,2.98,1.54,4.29.87,1.4,1.75,2.78,2.42,4.31.88,2,2.73,2.89,4.77,3.22,2.09.35,4.22.57,6.35.39.69-.06,1.18.46,1.8.6"/>
    <path class="cls-1" d="M111.77,52.39c-1.14-.82-2.02-1.82-2.68-3.1-.45-.87-.96-1.83-2-2.24"/>
    <path class="cls-1" d="M173.42,135.37c0,.3,0,.58-.23.85-1.62,1.9-1.75,4.27-2.04,6.59-.18,1.47-.57,2.89-.96,4.32"/>
    <path class="cls-1" d="M98.1,159.83c.84,1.41,2.37,1.58,3.73,1.89,2.4.55,4.89.81,6.82,2.56.57.51,1.15.1,1.68.07.55-.03,1.11-.28,1.68-.37"/>
    <path class="cls-1" d="M113.93,121.58c1.89,1.83,4.05,3.26,6.6,3.93,1.38.36,2.72.15,3.71-1.06"/>
    <path class="cls-1" d="M21.58,77.69c.15,1.53.68,3.05,2.07,3.65,1.53.65,3.23,1.47,5,.54.5-.26,1.04-.39,1.56-.59"/>
    <path class="cls-1" d="M46.41,81.65c-.62-.57-2.57-.51-3.24.12-1.04.98-1.27,2.22-1.22,3.6.04,1.01.49,1.9.62,2.88"/>
    <path class="cls-1" d="M101.7,64.5c-2.22-1.24-4.56-1.84-7.07-1.06-.64.2-1.21-.19-1.81-.02"/>
    <path class="cls-1" d="M81.91,110.55c-.49.01-.97-.12-1.44-.24-2.83-.7-5.03.45-6.96,2.4"/>
    <path class="cls-1" d="M154.41,151.67c1.28-3.18,2.52-3.45,5.68-2.36,3.71,1.28,4.07.33,5.53-2.67.42-.87-.19-1.6-.24-2.4"/>
    <path class="cls-1" d="M109.49,125.05c-2.11.62-4.25,1.14-6.36,1.8"/>
    <path class="cls-1" d="M43.05,80.45c-1.44-1.32-4.04-2.04-6-.12"/>
    <path class="cls-1" d="M88.98,79.73c1.68,1.27,3.65,2.18,4.92,3.96"/>
    <path class="cls-1" d="M118.25,10.43c-.56,1.96-1.08,3.92-.72,6"/>
    <path class="cls-1" d="M59.78,115.7c.41,1.98-.54,3.7-1.02,5.52"/>
    <path class="cls-1" d="M89.34,119.66c-1.12,1.54-2.68,1.82-4.44,1.56"/>
    <path class="cls-1" d="M115.01,9.83c-1,1.35-1.61,2.83-1.44,4.56"/>
    <path class="cls-1" d="M89.22,115.1c.23,1.43.72,2.84.36,4.32"/>
    <path class="cls-1" d="M100.98,142.44c.87.19,1.78.12,2.64.36"/>
    <path class="cls-1" d="M108.89,164.62c-.21.8-.82,1.49-.6,2.4"/>
    <path class="cls-2" d="M195.37,114.15l-.48,1.92c-4.36-2.12-9.75-.03-13.75-2.92-.28-.2-1.91-1.6-1.6-1.88l15.83,2.88Z"/>
    <path class="cls-2" d="M42.57,80.09c.28.3-2.04,4.72-2.87,5.04l-.24-5.04c1.09-.22,2.15.48,3.12,0Z"/>
    <path class="cls-2" d="M27.16,79.18l.29,1.87c-.7-.65-3.62-.54-3.81-1.11l-.03-.81,3.55.05Z"/>
    <path class="cls-2" d="M120.05,118.22l1.44,5.99c-1.59-.04-5.79-1.43-6.2-3.05-.09-.35-.03-.42.2-.66.18-.18,4.37-2.45,4.56-2.28Z"/>
  </g>
  <text class="cls-3" transform="translate(91.93 215.43) rotate(7.34)"><tspan x="0" y="0">C</tspan></text>
  <text class="cls-3" transform="translate(100.29 216.49) rotate(-1.51)"><tspan x="0" y="0">l</tspan></text>
  <text class="cls-3" transform="translate(108.71 216.26) rotate(-9.47)"><tspan x="0" y="0">i</tspan></text>
  <text class="cls-3" transform="translate(116.98 214.87) rotate(-16.54)"><tspan x="0" y="0">c</tspan></text>
  <text class="cls-3" transform="translate(126.04 212.1) rotate(-23.65)"><tspan x="0" y="0">k</tspan></text>
  <text class="cls-3" transform="translate(133.74 208.72) rotate(-29.35)"><tspan x="0" y="0"> </tspan></text>
  <text class="cls-3" transform="translate(141.06 204.6) rotate(-34.59)"><tspan x="0" y="0">m</tspan></text>
  <text class="cls-3" transform="translate(149.1 198.96) rotate(-40.27)"><tspan x="0" y="0">e</tspan></text>
  <text class="cls-3" transform="translate(155.5 193.53) rotate(-44.84)"><tspan x="0" y="0">!</tspan></text>
</svg>