<?xml version="1.0" encoding="UTF-8"?>
<svg id="Layer_1" data-name="Layer 1" xmlns="http://www.w3.org/2000/svg" viewBox="0 0 356.51 381">
  <defs>
    <style>
      .cls-1 {
        fill: #070707;
      }

      .cls-2 {
        fill: #010101;
      }

      .cls-3 {
        fill: #232323;
      }

      .cls-4 {
        fill: #292929;
      }

      .cls-5 {
        fill: #030303;
      }

      .cls-6 {
        fill: #3b3b3b;
      }

      .cls-7 {
        fill: #020202;
      }

      .cls-8 {
        fill: #464646;
      }

      .cls-9 {
        fill: #040404;
      }

      .cls-10 {
        fill: #fefefe;
      }

      .cls-11 {
        fill: #bb8972;
      }

      .cls-12 {
        fill: #1f1f1f;
      }

      .cls-13 {
        fill: #5c3921;
      }

      .cls-14 {
        fill: #1b1b1b;
      }
    </style>
  </defs>
  <path class="cls-11" d="M246.36,224.5c2.75,3.89,7.46,7.07,9.49,11-1.75.15-3.24-1.23-4.78-1.47-1.77-.28-7.02-1.1-8.45-1.03-2.69.13-12.44,3.02-14.42,4.59-.55.43-1.04.49-.84,1.41,2.71-.86,3.06,1.97,3.27,2.03,2.13.61,3.35-.91,4.49-1.02.98-.1,2.08.66,3.43.49.91-.11,1.61-.9,2.52-.94,2.18-.09,11.59,2.51,15.02,2.93,1.38.17,4.32-.37,5.25.24,1.85,1.22-2.07,4.34-2.3,5.21-.48,1.87-.38,4.56-.71,6.55l2.87-2.61c.05-1.88.34-6.07,2.83-5.9,1.22.08,3.02,1.68,4.79,1.01,14.01,10.79,22.88,24.15,34.96,36.26,5.62,5.64,11.36,7.06,17.17,11.32,12.53,9.19,20.56,16.15,27.31,30.42-1.91,1.43-2.49-1.76-3.5-2.75-2.24-2.21-5.7-1.62-7.2-2.69-.23-.16-1.28-4.16-3.05-4.56-1.67-.37-.81,2.97-2,3.49-1.54.68-1.33-1.58-2.6-1.93-.63-.18-3.64.45-4.91.47-4.05.07-5.12.49-8.98.96-2.51.31-9.76-.62-10.99,1.5-.8,4.32-2.73,10.14-.92,14.39.35.83,1.59.69,1.71,1.86.1,1.08-1.06,2.35-1.08,3.99-.02,2.16,1.04,3.32,1.51,5.04,1.72,6.32,1.96,8.45,5.54,14.1,2.32,3.67,2.92,8.99,4.09,11.02.43.76,2.94,3.23,3.78,4.97s1.46,4.25,2.12,6.13h-120.91c1.68-1.99,1.02-5.33,1.75-7s4.04-1.29,2.37-4.88-3.09,1.29-3.6,2.03c-.4.59-1.36.7-1.96,1.66-1.05,1.66-2.44,6.16-2.56,8.19h-5c-.34-1.23.61-2.71.51-3.75s-1.31-1.31-1.53-2.97c-.62-4.58-.2-14.09.03-19.02.58-12.13,3.72-23.85,5.26-35.74.07-.51.65-1.38-.51-1.02-.35.11-2.27,6.06-2.52,6.99-3.94,14.72-5.36,34.69-4.26,50.29.11,1.56,1.58,2.88.53,5.22h-4.5c.86-2.73-.84-3.83-1.37-5.38-2.22-6.53-6.45-19.99-7.02-26.48-.19-2.13.54-5.76.41-8.41-.07-1.54-.45-8.19-2.26-8.23-.56,8.66-1.32,16.29.67,24.83,1.11,4.79,2.11,9.55,3.18,14.31.67,3,3.5,5.8,1.89,9.36h-34.97c-.27-4.11-1.4-8.66-1.52-12.73-.24-8.25,2.14-18.86,4.87-26.67,1.68-4.8,4.96-9.38,4.89-14.61-.94-.08-1.12.89-1.5,1.5-8.11,12.87-11.62,31.58-10.76,47.28.1,1.74.82,3.43.52,5.23h-54.46c.04-.94,1.26-6.74,1.53-6.98s1.5.23,1.9-.09c2.47-5.7,3.89-10.38,3.57-16.67-.42-8.2-1.79-12.09,2.4-20.11.97-1.85,4.39-5.59,4.88-7.12.61-1.89.47-4.94.95-7.05.68-3.03,4-12.43,5.49-15.01,1.7-2.95,5.3-4.72,6.71-6.78,1.04-1.51,5.63-11.46,5.57-12.92-.02-.58-.53-4.74-.77-4.78-2.54-.34-1.47,2.61-1.86,4.14-.09.33-1.98,3.23-2.23,3.39-3.39,2.16-1.64-1.51-1.63-3.26.02-3.79-3.58,2.69-3.97,3.04-.64.57-1.71.53-2.08,1.03-2.52,3.33-4.63,13.19-5.59,17.29-1.06,4.53-4.52,11.44-6.01,16.48-4.55,15.34-7.05,29.66-9.97,45.52-.61,3.32-2.14,6.08-1.37,9.88h-4.5c.11-4.48.81-9.18,1.65-13.6,5.78-30.58,16.17-58.44,28.07-86.9,1.18-2.81,3.85-9.65,4.16-12.38.4-3.49-2.07-2.84-3.67-4.1-.81-.64-2.15-2.99-3.03-3.96-1.36-1.51-4.21-2.34-3.69-5.05,1.31.02,1.73,1.27,2.99,1.76,2.95,1.16,4.37.13,6.76.2,1.83.05,3.76.93,5.74.54-2.49,2.84,2.39,8.48,3.99,7,.83-.77-2.36-3.55-2.49-4.77-.21-1.97,1.19-1.96,1.48-2.59.17-.36-.08-.94.01-1.14,2.11-4.36,4.33-6.44,2.5-12,1.76.37,4.39.18,5.99.5s.55,1.62.79,2.51c.43,1.57,3.15,4.13,4.69,4.75.61.25,4.48,1.13,5.02,1.02,2.46-.51,3.29-2.99,4.64-4.13,15.04-12.69,38.7-31.04,58.6-34.1,7.09-1.09,22.92-3.32,29.33-1.45.7.21,1.21,1.16,2,1.5,3.57,1.52,4.37.89,6.21,4.78.87,1.83,1.04,5.98,4.13,5.11ZM223.87,240c-1.67.32-3.91,1.11-4.99,2.49.87,0,1.78.16,2.64-.1.34-.1,2.73-1.52,2.35-2.39ZM225.87,243c-.93-.22-1.38.32-2.07.68-8.44,4.44-15.86,11.1-22.43,18.06-4.57,4.84-6.17,9.51-9.98,14.01-1.16,1.37-2.64,2.54-3.22,3.28-1.33,1.67-2.98,7-4.41,8.34-.48.45-1.41.37-1.74.76-1.18,1.39-5.68,12.33-6.9,14.84-.89,1.83-3.08,3.67-2.71,6.04.49.58,2.65-1.81,2.93-2.31,5.38-9.61,10.99-18.9,17.24-27.72,1.81-2.55,3.14-5.6,4.6-7.92,4.93-7.8,13.97-13.72,20.78-19.58,2.36-2.03,1.76-2.31,4.76-4.1.23-.14,3.42-4.1,3.13-4.36ZM131.45,255.5c1.25.37,3.37-1.46,2.98-2.72-.11-.37-4.37-2.88-4.98-2.28-.74.72,2.84,3.38,2,5ZM138.19,262.5c1.96.42,5.12-.31,7.24,0-2.85,5.36-10.59,2.96-15.39,1.65-1.11-.3-1.93-1.59-3.1-.93-2.79,3.76-4.5,7.27-4.5,12.03v11.25c1.6.21,1.33-1.78,2.22-2.53.54-.45,1.52-.4,2.02-.98.82-.96,3.06-8.07,4.05-9.94.92-1.73,2.24-3.92,4.44-4.07,1.02-.07.95.36.66,1.17-.5,1.39-5.74,8.06-4.39,9.35,1.45,1.39,4.62-1.97,4.97-3.77.42-2.17.45-2.06.98-3.61.57-1.66-.17-3.66,2.04-3.11.32,2.29-.24,3.94-.99,6l2.12-.12,3.87-1.87c-2.02,3.78-3.93,6.93-4.38,11.37-.25,2.47,1.37.56,1.98-.52,1.51-2.66,4.34-11.44,6.02-13.23,1.44-1.54,9.14-2.93,8.79-6.24-.1-.93-1.88-5.59-2.75-5.84s-10.36,5.6-6.45.92c.52-.63,4.7-3.96,4.8-4.32.23-.91-.79-4.57-1.31-4.69-2.25-.54-2.71,1.51-4.02,2.47-1.23.9-2.51.9-3.47,1.55s-2.72,4.04-3.21,4.3c-2.17,1.15-2.35-2.61-4.79-.82-1.72,1.27,1.23,4.25,2.54,4.53ZM203.89,252c-.7-.71-5.17,2.12-6.06,2.68-8.95,5.67-15.07,11.47-22.59,18.64-2.58,2.45-6.56,3.57-6.32,8.17.68.73,5.47-4.99,6.23-5.51,6.11-4.25,10.66-9.53,16.45-13.79,4.4-3.23,7.76-3.93,11.67-8.55.42-.5.96-.27.63-1.64ZM128.45,253c-1.55-.23-2.22.48-1.99,1.99l1.99.5v-2.5ZM119.46,300.5c2.33,2.34,6.89-8.15,4.24-8.99-2.26-.72-1.89,3.54-2.35,4.65-.34.81-1.34.67-1.68,1.79-.15.52-.39,2.37-.21,2.55ZM103.9,359.07c-.44-.71-3.85-.52-4.33.03-.25.29-1.89,6.93-1.54,7.35,2.71.82,5.91,1.36,4.95-2.6-.17-.69-1.89-.55-1.51-1.85,1.82.67,3.39-1.4,2.43-2.93ZM120.45,372.5c.38-2.11-1.68-2.76-2.99-1.24l2.99,1.24Z"/>
  <path class="cls-11" d="M301.32,208.5c.29,1.61-.63.78-1.5,1,0-.33,0-.67,0-1,.48-.06,1.03.07,1.5,0Z"/>
  <path class="cls-13" d="M321.8,381c-.65-1.89-1.27-4.38-2.12-6.13s-3.34-4.21-3.78-4.97c-1.17-2.03-1.77-7.36-4.09-11.02-3.58-5.65-3.82-7.78-5.54-14.1-.47-1.72-1.53-2.88-1.51-5.04.02-1.64,1.18-2.91,1.08-3.99-.11-1.17-1.35-1.03-1.71-1.86-1.82-4.25.12-10.07.92-14.39,1.23-2.12,8.48-1.19,10.99-1.5,3.86-.48,4.93-.89,8.98-.96,1.27-.02,4.28-.65,4.91-.47,1.27.36,1.06,2.62,2.6,1.93,1.18-.52.33-3.87,2-3.49,1.77.39,2.82,4.39,3.05,4.56,1.49,1.07,4.96.48,7.2,2.69,1.01.99,1.59,4.18,3.5,2.75,1.72,3.65,3.38,7.4,5.04,11.1,1.9,4.25,2.72,14.32,2.97,19.62.24,4.98.49,15.87-.53,20.43-.09.4-.95.15-1.04,1.07-.12,1.26.21,2.58.55,3.78h-33.47Z"/>
  <path class="cls-13" d="M84.98,381c-.77-3.8.76-6.56,1.37-9.88,2.92-15.86,5.42-30.17,9.97-45.52,1.49-5.04,4.95-11.95,6.01-16.48.96-4.1,3.07-13.96,5.59-17.29.37-.49,1.44-.45,2.08-1.03.39-.35,3.99-6.83,3.97-3.04,0,1.75-1.76,5.42,1.63,3.26.25-.16,2.15-3.06,2.23-3.39.4-1.53-.68-4.48,1.86-4.14.24.03.74,4.19.77,4.78.06,1.46-4.53,11.41-5.57,12.92-1.41,2.06-5.01,3.83-6.71,6.78-1.49,2.58-4.81,11.97-5.49,15.01-.47,2.11-.34,5.16-.95,7.05-.49,1.53-3.91,5.26-4.88,7.12-4.18,8.02-2.82,11.91-2.4,20.11.32,6.3-1.1,10.97-3.57,16.67-.4.32-1.64-.13-1.9.09s-1.48,6.03-1.53,6.98h-2.5Z"/>
  <path class="cls-13" d="M141.94,381c.3-1.8-.42-3.49-.52-5.23-.87-15.7,2.65-34.41,10.76-47.28.38-.61.56-1.58,1.5-1.5.07,5.23-3.21,9.8-4.89,14.61-2.73,7.81-5.11,18.42-4.87,26.67.12,4.07,1.25,8.62,1.52,12.73h-3.5Z"/>
  <path class="cls-13" d="M184.91,381h-4.5c1.61-3.56-1.22-6.36-1.89-9.36-1.07-4.76-2.07-9.53-3.18-14.31-1.99-8.55-1.23-16.17-.67-24.83,1.81.04,2.19,6.69,2.26,8.23.13,2.65-.6,6.28-.41,8.41.57,6.5,4.8,19.95,7.02,26.48.53,1.55,2.23,2.65,1.37,5.38Z"/>
  <path class="cls-13" d="M189.4,381c1.05-2.34-.42-3.66-.53-5.22-1.1-15.6.32-35.57,4.26-50.29.25-.93,2.17-6.88,2.52-6.99,1.17-.36.58.5.51,1.02-1.54,11.9-4.68,23.61-5.26,35.74-.23,4.93-.66,14.44-.03,19.02.23,1.66,1.44,1.97,1.53,2.97s-.85,2.51-.51,3.75h-2.5Z"/>
  <path class="cls-13" d="M166.92,0c-.08,4.49-2.27,2.95-4.69,3.04-.96.04-1.87.6-3.06.51-1.27-.1-1.94-1.23-3.24-1.05-.86,2.89,2.76,2.92,1.24,6l-5.51-4.52c-.69-1.36,1.24-2.34.77-3.99h14.49Z"/>
  <path class="cls-13" d="M200.89,381h-4c.12-2.03,1.51-6.53,2.56-8.19.61-.96,1.57-1.07,1.96-1.66.5-.74,1.86-5.74,3.6-2.03s-1.62,3.2-2.37,4.88-.07,5-1.75,7Z"/>
  <path class="cls-13" d="M21.03,95c.44-1.54-1.83-1.26-2-1.51-1.25-1.9,4.47-2.64,5.95-3.29,6.63-2.91,14.1-8.21,20.15-11.82.55-.33,4.76-1.94,5.1-1.91.31.03.03.94,1,1.07,8.53,1.12,15.06-3.88,23.63-3.87,1.96,0,1.64,1.51,2.45,1.78,2.57.85,3.2-3.41,4.92-3.44,1.06-.02,2.29,1.37,3.56,1.49s2.52-.63,3.94-.53c1.31.09,2.39,1.17,3.48,1.06,1.02-.1,1.53-1.26,2.39-1.64,2.44-1.1,1.54.17,3.86-2.13,1.55-1.54,2.95-.47,2.51,1.51-.12.54-1.23.04-1.45.28-.29.3.08,2.72-.05,3.47,2.71-.14,4.84-.41,7.53.22,6.94,1.63,12.37,1.14,19.19,1.77,6.2.57,10.66,1.42,16.98,1.49,11.69.14,23.5-1.17,34.75,1.77,3.33.87,4.78,2.93,6.88,3.61,2.5.82,6.23.71,8.85,1.65,2.04.73,4.52,2.45,7.03,2.96,3.41.69,1.89-.63,5.02,1.45,2.77,1.84,9.56,4.36,12.97,5.54,9.5,3.29,18.69,6.8,28.21,10.27,3.42,1.25,7.81,2.13,11.11,3.88.97.52,2.54,2.33,2.72,2.37,1.15.23,2.48-.31,3.65.25.82.4,1.12,2.05,2,2.5.75.38,1.75.18,2.5.49s5.93,2.39,4.98,3.26c-3.2-.04-6.77.35-9.77-.97-1.27-.56-2.47-2.33-3.86-1.96-.48.13-6.49,5.52-7.6,6.43-1.34,1.09-2.04,2.12-2.57,2.56-.87.71-2.21-.28-1.67,2.44,1.25.3,1.94-1.11,3.13-.94s2.01,1.63,3,2.06c1.7.74,3.76.43,5.33,2.16.54.6.59,1.46,1.03,1.97.62.72,2.55,2.23,2.76,2.76.35.85-.54,2.16-.26,2.47.08.09,1.7-.05,2.28,1.01.72,1.32-.86,1.95-.74,2.69.07.42,2.78,3.94,3.97,3.09,1.04-.74-.33-3.66,1.73-2.76,1.1.48.83,5.79,2.46,7.04,1.27.98,4.17.07,5.79.96.31,1.21-1.6,1.65-1.44,2.65.08.48,1.01,1.12,1.21,1.82.29.99.12,2.07.45,3.05.74,2.2,4.3,3.12,5.8,4.7,1.21,1.28,1.44,3.14,3.21,4.28,1.15.74,2.58.73,3.52,1.48,1.23.97,4.2,5.33,5.45,6.05s2.64.26,3.97,1.02,1.15,2.18,2.02,2.97c2.07,1.88,7.32,2.16,6.77,5.97-1.48-.37-3.13-.3-4.6-.64-3.34-.78-12.21-3.05-14.84-4.65-1.25-.76-2.59-2.66-3.79-3.71s-2.63-.57-2.67-2.72c-.01-.64.66-1.89.41-2.26-.31-.45-3.24-.32-3.99-.77-.47-.28-.69-1.3-1.25-1.75-1.45-1.18-3.64-2.11-5.21-3.28-3.74-2.78-2.96-1.18-6.02-2.48-2.01-.85-3.18-3.51-4.14-4.61-.6-.68-4.4-3.15-5.36-4.13-1.16-1.18-.55-3.28-4-2,.06,2.78,1.81,1.96,4,2,.08,1.3-1.23,1.44-1.49,2.76-.56,2.93,1.62,12.74,2.62,15.86.76,2.37,2.62,6.51,3.26,8.73.39,1.35-.12,2.97.14,4.36,1.36,7.19,2.15,12.3-.53,19.55-.66,1.79-2.62,3.09-1.51,5.24-.46-.08-1.02.05-1.5,0h-.5c-7.13-1.21-14.1-3.12-20.74-5.99-1.78-.77-5.76-4.32-7.09-1.4-.73,1.62.82,1.26.84,1.69.1,2.12.05.49.47,1.57.94,2.39,1.4,6.55,3.35,8.05,1.37,1.06,3.93,1.46,5.19,2.81,1.48,1.59,2.81,5.89,4.48,8.26-3.09.86-3.26-3.29-4.13-5.11-1.85-3.89-2.64-3.27-6.21-4.78-.79-.34-1.3-1.29-2-1.5-6.4-1.87-22.23.36-29.33,1.45-19.91,3.06-43.56,21.41-58.6,34.1-1.35,1.14-2.18,3.62-4.64,4.13-.53.11-4.41-.77-5.02-1.02-1.54-.62-4.26-3.18-4.69-4.75-.24-.89.82-2.19-.79-2.51.64-2.05,3.63-5.15,3.5-7.22-.09-1.36-2.61-4.56-3.86-5.17-2.98-1.44-12.83-.38-16.87-.62-5.99-.35-19.93-2.4-24.01-6.97-4.47-5.01-.61-11.16-.77-16.19-.09-2.88-1.93-6.87-3.45-9.33-.26-1.51.71-1.02,1.67-.94,2.8.24,5.76.99,8.58.98,2.12,0,8.95-1.44,10.23-.8.9.45,1.44,2.64.95,3.22-.26.32-3.7.64-4.44.55l.99,2.49c-1.9.4-4.42-1.05-6.18-.43-.94.33-.95,2.07-1.57,2.93-.78,1.07-2.6,1.29-2.76,2.77-.34,3.13,4.92.49,3.41,3.14-.66,1.16-4.02.21-2.63,3.09,2.14,4.42,5.35-.75,8.99-.5,2.45.17.35,3.67.74,4.01.18.15,3.74.48,4.49,1,.25-1.53-.03-2.68,1.74-2.54,2.27.19,1.82,1.61,2.36,1.93s5.21-.31,5.9-.65c.8-.39,1.05-1.79,1.72-2.28.87-.64,2.17-.52,3.26-1.24,1-.65,1.68-2.49,2.34-2.68.61-.18,2.25.53,3.4.48,2.61-.13,6.09-1.9,9.26-1.03.28-3.58-.09-2.01-2.12-2.61-.73-.22-1.36-.82-2.11-.84-1.46-.04-2.64,1.52-3.97,1.46-1.88-.09-3.4-2.92-5.16-3.39-2.13-.56-6.05,1.19-8.14-.85-.81-.79-.64-5.12-.26-6.29.87-2.64,5.91,0,4.68-5.61-.88-4-4.43-2.75-5.9-3.61-1.86-1.1-2.22-5.2-7.19-5.2-4.09,0-11.33,3.63-15.03,2.95-1.61-.3-4.02-2.6-3.27-4.5,2.01-.4,3.62-.3,5.5-.5.52.83,1.9.5,2.74.51,1.85.02,7.13.56,8.02-1,1.53-2.7-3.44-1.67-4.91-2.11-.67-.2-1.03-1.1-1.7-1.3-.33-.1-5.91-1.1-6.4-1.14-.83-.06-5.42.64-5.95.98s-.29,1.05-.29,1.55c0,1.24.37,2.3.5,3.5-1.12.46-.76,2.24-2.5,2.5-.06-.07-.2.18-1-1,1.81-3.03-.52-2.44-1.5-3-.62-.36-7.33-7.81-7.99-8.75-.44-.63-.97-1.22-1.01-2.05-.07-1.49,4.23-5.89,5.51-7.2.11-.11.99-.09,1.52-.71.87-1.03.63-2.38,1.02-3.41.2-.55,1.39-.19.89-1.54-.32-.88-2.88-2.37-.43-3.59,2.14-1.07,2.88,1.33,4.25,2.25,4.06,2.75,9.94,3.25,13.71-.27,1.06-.99,2.27-6.68,3.52-5.72.16.12,1.48,3.59,1.51,3.79.52,3.55-7.86,6.62-5.46,9.91,2.69,1.26,5.68,4.66,8.17,5.83.98.46,4.09.85,4.23,1.01s.05,3.05.44,4.31c.91,2.98,3.45,4.2,4.81,6.19.99,1.44,1.18,4,2.56,5.43s6.58,3.64,8.26,1.69c.59-2.59-1.94-4.17-2.02-4.52-.44-1.96.78-4,.28-5.66-.47-1.56-2.43-4.19-2.78-6.12l-8.01-8.12.76-1.24c1.38-.28,1.84,1.15,2.77,1.72,5.05,3.11,6.97,7.16,9.33,12.67l2.22,12.78c.4,1.39,1.92.6,1.92.08v-11c0-.13-1.34-.93-1.51-2.03-.24-1.49.85-3.01.44-4.37-.31-1.04-1.59-1.09-1.96-1.69-.67-1.1-.26-2.83-.83-4.04-.54-1.14-2.59-1.35-2.13-2.86.18-.6,1.48-.67,1.95-1.05.98-.82,1.09-2.79,2.55-.96.52.65.5,1.71,1.25,2.25,1.09.28,1.12-1.92,2.5-2.04.99-.08,1.63.85,2.51,1.02,3.06.6,3.48-1.44,5.63-2.81.94-.6,1.99-.6,2.85-1.15,2.21-1.42,5.04-6.92,6.29-9.2.45-.82,1.56-1.3,1.83-2.17.26-.81-.11-1.96.34-2.66,1.17-1.82,6.05-.12,3.27-5.48,1.99-.48,3.58,3.24,4.31,3.46,1.56.47,1.71-1.3,2.33-1.82,2.1-1.75,3.9.79,4.35.35.07-.06,0-1.1.48-1.76.97-1.34,4.08-3.23,4.02-5.01-.02-.65-5.22-5.06-5.76-6.24-.75-1.66,1.35-5.05-1.74-4.49-.12.68.16,3.35,0,3.51-.1.09-1.89-.12-2.64.11-2.19.64-2.07,3.71-5.85,2.13-3.06-1.28-.59-7.32-1.01-7.73-1,.1-2.22-.21-3.16,0-.4.09-.13.91-1.06,1.03-2.52.33-6.11-.5-8.52-.03-1.74.34-2.69,2.16-6.04,2.05-1.63-.06-1.16-1.05-1.5-1.06-.57-.03-2.17.91-2.71.51-.11-.08.88-2.22-.33-2.52-3.89-.96-2.65,2.32-3.47,2.55-.5.14-4.35.07-4.86-.11-.97-.34-.6-1.89-2.58-1.98-1.48-.07-2.01.86-3.02,1.03-1.42.25-3.01-.19-4.44.06-.68.11-5.69,2.91-5.77,3.23,1.32,3.05,3.23,1.68,5.24,1.69,1,0,2.01.59,2.9.46,1.36-.2,1.87-1.9,3.57-1.94,1.49-.03,8.68.36,9.91.63,1.05.24,4.3,2.14,3.1,3.4-2.86.41-2.47-1.35-3.1-1.51-2.25-.59-10.27.37-4.65,2.02.92.98-2.48,2.01-3.29,1.96-1.17-.08-1.73-2.03-3.41-1.43-1.35.48.28,3.08-2.99,2.93-1.34-.06-7.99-2.22-8.98-3.03-1.21-.97-2.51-4.54-4.36-6.14-2.91-2.5-4.5-1.01-7.57-1.41-2.79-.37-5.31-1.86-7.86-2.89-.26.26,2.06,5.31-.29,6.97-.6.42-2.11.46-2.19.56-.72.83,1.39,3.37.94,4.66-.35,1.02-1.89.73-1.97.81-.42-1.65-1.33-3.28-1.5-5-.28-2.87,1.71-3.12,1.49-4.22-.37-1.85-6.58.93-5.49-3.28.32.04.67,0,1,0,.49.01,1.51.49,2.5,0,.12-.13-.3-2.31-.5-2.65-.37-.62-.89-.26-1-.35-3.19-2.38-6.18-3.37-6.04-8.25.04-1.55,1.79-4.72.56-5.52-.41-.27-4.14-.67-5.41-1.08-2.61-.86-5.12-2.28-7.84-3.15-13.32-4.27-25.96-5.97-39.73-7.99ZM129.87,108.08c.36.44-.27,2.52,1.32,2.41l4.21-3.82c-.64-2.78-2.86-1.14-4.21-1.27-4.49-.42-8.15-1.3-13.01-.94-.88.07-1.63-.1-2.22.78-.16,1.06,2.58.97,3.39,1.1,1.61.25,9.92,1,10.51,1.73ZM139.94,122.51c-.1-.12-.97-.12-1.26-.48-.38-.47,1.48-3.3,2.04-4,.53-.65,4.19-2.6.87-3.48-1.94-.51-3.01,3.48-3.86,4.75-.4.6-2.16,1.64-2.24,1.99-.47,2,2.72,2.63,4.2,2.21.43.06.3-.94.25-.99ZM207.89,114.5c-5.3-.39-4.39,1.58-6.47,4.77-1.12,1.71-5.31,7.4-6.83,8.17-.96.49-4.98,1.19-5.22,2.4-.04.21.39,4,.54,4.16.46.5,2.78-1.86,3.03,1.26.15,1.93-.89.89-1.75,1.75-1.1,1.1-2.65,3.66-2.79,5.24-.24,2.86.58,1.18,2.5,2.01,2.97,1.29.36,6,.15,8.63-.07.9.43,1.7.36,2.36-.33,3.19-2.29,9.39.29,11.72.41.37,3.47,2.31,4,2.5,6.93,2.44,11.74-2.55,17.25-5.67,1.26-.71,4.21-1.3,5.32-2.43,1.59-1.61,6.12-8.27,7.32-10.42,3.35-6,5.06-16.34,4.3-23.2-.15-1.34-1.37-5.35-2.21-6.28-1.5-1.66-2.84-.61-4.51-.99-2.19-.5-4.22-1.45-6.66-1.83-2.01-.32-8.08-1.6-7.04,2.01.42,1.47,2.27,1.01,3.38,2.15,1.17,1.21,1.59,4.04,1.54,5.7-3.44,1.11-2.57-5.53-5.72-4.52-.37.12-2.34,5.99-.14,7.18,2.69,1.46,8.29,1.27,10.09,4.36,1.06,1.82,2.02,11.71-1.72,11.98.26-1.18.99-4.56.43-5.43-.2-.31-1.5-.16-1.97-.9-.51-.8-.56-2.67-1.08-3.8-.97-2.13-6.9-6.86-6.78-3.23.02.6,1.58,3.1,2.05,3.71.25.33,3.12,1.83,1.86,3.14-.88.91-1.48-1.29-2.73-1.02-1.71.37-1.38,2.08-.37,2.51,1.33.57,2.49-.4,2.11,2.51-2.55.55-3.47-.57-5.49-1.5.59,1.72,0,6.96-1.01,8.24-1.94,2.45-5.87.26-8.49.75-.16-4.99,4.57-2.44,5-7.75.11-1.38-.27-6.09-.53-7.47-.24-1.29-5.32-7.44-1.73-7.8,2.37-.24,1.48,2.06,1.97,3.56.38,1.16,2.03,2.44,2.65,3.85.44,1.01.67,4.54,2.13,3.12,1.26-1.22-1.93-5.39-2.04-6.75-.16-2,1.04-4.59,1.06-6.53.03-3.38-1.31-4.64,1.25-8.21,1.04-1.45,3.14-1.58,2.73-4.01ZM203.39,176.99c.66-.92-4.78-3.82-5.63-4.1-2.92-.97-3.91,1.4-2.64,3.14.4.55,1.65.38,2.25.75,1.19.73,1.24,2.05,3.16,1.65.17-.04,2.77-1.31,2.86-1.44ZM166.86,177.05c-.46-.32-2.02.36-2.97.23-1.29-.17-3.18-1.79-4.11-1.66-.55.07-3.52,1.51-3.89,2.09-1.2,1.88.77,4.17-2.25,4.25-1.69.04-3.16-1.2-5,0-1.23.81-1.51,3.23-2.47,4.03-.79.65-2.15.44-2.53.97-.48.68.07,2.15-.46,3.04-.28.48-1.33.66-1.76,1.24-2.65,3.57-2.31,10.93,3.75,9.76,1.23-.24,1.61-1.68,3-1.54s1.22,2.72,3.93,2.07l4.03-5.57c1.3-.93,4.12.34,3.69-2.13-.38-2.21-4.79-.41-5.35-2.67-.34-1.36,1.38-1.76,1.48-2.93s-1.28-1.95-1.03-2.96c.16-.63,1.59-1.05,1.99-.76.37.26-.36,2.46,2.77,2.52,2.81.06,2.71-1.88,1.26-3.67-.69-.85-3.07-.84-2.52-2.6s4.3-.11,4.49-.25c.37-.28.02-2.9,1.25-2.51.34,1.14,3.11,4.03,4.25,3,.16-.14-1.38-3.82-1.55-3.95ZM162.43,192.5c1.61.19,2.85-2.35,1.24-2.99-1.94-.78-1.12,1.98-1.24,2.99Z"/>
  <path class="cls-11" d="M82.98,136.5c.07-.09,1.62.21,1.97-.81.45-1.3-1.67-3.83-.94-4.66.08-.09,1.59-.13,2.19-.56,2.35-1.66.03-6.71.29-6.97,2.55,1.02,5.07,2.52,7.86,2.89,3.07.4,4.67-1.09,7.57,1.41,1.85,1.6,3.15,5.17,4.36,6.14,1,.8,7.65,2.96,8.98,3.03,3.28.15,1.64-2.45,2.99-2.93,1.68-.6,2.24,1.36,3.41,1.43.81.05,4.21-.98,3.29-1.96-5.63-1.65,2.39-2.61,4.65-2.02.63.16.23,1.92,3.1,1.51,1.2-1.25-2.05-3.16-3.1-3.4-1.24-.28-8.42-.67-9.91-.63-1.71.04-2.21,1.74-3.57,1.94-.88.13-1.9-.45-2.9-.46-2.01-.02-3.93,1.35-5.24-1.69.08-.32,5.1-3.11,5.77-3.23,1.44-.24,3.02.19,4.44-.06,1.01-.18,1.54-1.11,3.02-1.03,1.98.09,1.6,1.64,2.58,1.98.51.18,4.36.24,4.86.11.83-.23-.42-3.51,3.47-2.55,1.21.3.22,2.44.33,2.52.55.4,2.14-.54,2.71-.51.34.02-.12,1.01,1.5,1.06,3.35.11,4.3-1.7,6.04-2.05,2.41-.47,6,.36,8.52.03.93-.12.66-.94,1.06-1.03.94-.22,2.16.09,3.16,0,.42.42-2.06,6.45,1.01,7.73,3.77,1.58,3.66-1.49,5.85-2.13.75-.22,2.55-.01,2.64-.11.16-.15-.13-2.83,0-3.51,3.09-.55.99,2.83,1.74,4.49.53,1.18,5.74,5.58,5.76,6.24.05,1.78-3.05,3.67-4.02,5.01-.48.66-.42,1.7-.48,1.76-.45.44-2.25-2.1-4.35-.35-.62.52-.77,2.29-2.33,1.82-.73-.22-2.32-3.94-4.31-3.46,2.78,5.36-2.1,3.67-3.27,5.48-.45.7-.08,1.85-.34,2.66-.27.86-1.39,1.35-1.83,2.17-1.25,2.29-4.08,7.79-6.29,9.2-.85.55-1.91.55-2.85,1.15-2.15,1.38-2.57,3.41-5.63,2.81-.88-.17-1.53-1.11-2.51-1.02-1.39.12-1.41,2.32-2.5,2.04-.75-.54-.73-1.6-1.25-2.25-1.47-1.83-1.57.14-2.55.96-.47.39-1.77.45-1.95,1.05-.46,1.51,1.6,1.72,2.13,2.86.57,1.22.16,2.94.83,4.04.37.61,1.65.65,1.96,1.69.41,1.36-.68,2.88-.44,4.37.17,1.1,1.51,1.9,1.51,2.03v11c0,.52-1.51,1.31-1.92-.08l-2.22-12.78c-2.36-5.51-4.27-9.56-9.33-12.67-.93-.57-1.39-2-2.77-1.72l-.76,1.24,8.01,8.12c.34,1.94,2.31,4.57,2.78,6.12.5,1.66-.72,3.7-.28,5.66.08.35,2.61,1.93,2.02,4.52-1.68,1.95-6.86-.25-8.26-1.69s-1.58-3.99-2.56-5.43c-1.36-1.99-3.9-3.2-4.81-6.19-.38-1.26-.3-4.15-.44-4.31s-3.25-.55-4.23-1.01c-2.49-1.17-5.48-4.57-8.17-5.83-2.41-3.29,5.97-6.36,5.46-9.91-.03-.2-1.35-3.67-1.51-3.79-1.24-.96-2.46,4.73-3.52,5.72-3.77,3.52-9.64,3.02-13.71.27-1.36-.92-2.11-3.32-4.25-2.25-2.45,1.23.1,2.71.43,3.59.5,1.35-.69,1-.89,1.54-.38,1.04-.14,2.39-1.02,3.41-.53.62-1.41.6-1.52.71-.64-4.58-5.19-3.34-5.95-8.79-1.27-9.15,6.77-11.34,10.17-17.75.37-.7.21-1.88.27-1.96Z"/>
  <path class="cls-11" d="M89.48,184c-.75,1.9,1.65,4.2,3.27,4.5,3.7.68,10.94-2.95,15.03-2.95,4.96,0,5.32,4.11,7.19,5.2,1.47.86,5.02-.38,5.9,3.61,1.24,5.61-3.81,2.98-4.68,5.61-.39,1.17-.55,5.5.26,6.29,2.09,2.04,6,.29,8.14.85,1.77.47,3.29,3.3,5.16,3.39,1.33.06,2.5-1.5,3.97-1.46.75.02,1.39.62,2.11.84,2.03.6,2.4-.96,2.12,2.61-3.17-.87-6.65.9-9.26,1.03-1.16.06-2.79-.65-3.4-.48-.66.19-1.34,2.03-2.34,2.68-1.09.71-2.4.6-3.26,1.24-.67.49-.92,1.88-1.72,2.28-.69.34-5.34.98-5.9.65s-.09-1.74-2.36-1.93c-1.77-.15-1.49,1.01-1.74,2.54-.75-.52-4.32-.85-4.49-1-.39-.34,1.71-3.84-.74-4.01-3.63-.25-6.84,4.92-8.99.5-1.39-2.87,1.96-1.92,2.63-3.09,1.51-2.64-3.75,0-3.41-3.14.16-1.49,1.98-1.7,2.76-2.77.62-.86.63-2.6,1.57-2.93,1.76-.61,4.28.83,6.18.43l-.99-2.49c.75.09,4.18-.23,4.44-.55.49-.58-.05-2.77-.95-3.22-1.28-.64-8.11.79-10.23.8-2.81,0-5.77-.74-8.58-.98-.97-.08-1.94-.57-1.67.94-.03-.05-.68.17-1.03-.32-1.07-1.48-1.1-4.35-.63-6.09.68-2.49,2.85-2.88.66-5.59,1.74-.26,1.38-2.04,2.5-2.5.43-.18,1.85-.37,2.5-.5ZM97.47,192.01c-1.06.03-6.75-1.26-6.99-1-1.98,2.1,6.21,3.08,6.99,1Z"/>
  <path class="cls-11" d="M28.52,81l-2.03,2.2c-3.63,1.85-4.94,1.01-8.13,1.33-6.06.62-12.01,4.8-18.32,3.97-.04-1.34-.32-3.4,1.36-3.9l27.12-3.6Z"/>
  <path class="cls-11" d="M77.49,124c-1.09,4.2,5.12,1.43,5.49,3.28.22,1.1-1.78,1.35-1.49,4.22-1.53-.2-2.73.21-3.99,1-.43-1.31.8-3.46.27-4.49-.76-1.49-5.85-1.92-5.27-5.01,1.8.49,3.13.76,4.99,1Z"/>
  <path class="cls-13" d="M122.45,256c-.09.2.16.78-.01,1.14-.3.63-1.69.62-1.48,2.59.13,1.23,3.32,4.01,2.49,4.77-1.6,1.48-6.49-4.16-3.99-7,.34-.39,2.32-1.32,3-1.5Z"/>
  <path class="cls-11" d="M79.49,121c.11.09.63-.28,1,.35.2.34.62,2.52.5,2.65-.99.49-2.01.02-2.5,0,1.37-.58,1.04-1.7,1-3Z"/>
  <path class="cls-11" d="M83.48,186c-.63-.92-1.24-1.89-1.5-3,.98.56,3.31-.03,1.5,3Z"/>
  <path class="cls-13" d="M138.19,262.5c-1.3-.28-4.26-3.27-2.54-4.53,2.44-1.79,2.62,1.97,4.79.82.49-.26,2.25-3.64,3.21-4.3s2.24-.65,3.47-1.55c1.31-.96,1.77-3.01,4.02-2.47.52.12,1.54,3.78,1.31,4.69-.09.36-4.27,3.69-4.8,4.32-3.91,4.68,5.6-1.17,6.45-.92s2.65,4.91,2.75,5.84c.35,3.31-7.35,4.7-8.79,6.24-1.68,1.79-4.51,10.57-6.02,13.23-.61,1.08-2.23,2.99-1.98.52.45-4.44,2.36-7.59,4.38-11.37l-3.87,1.87-2.12.12c.76-2.06,1.32-3.71.99-6-2.21-.54-1.48,1.45-2.04,3.11-.53,1.56-.56,1.45-.98,3.61-.35,1.81-3.52,5.16-4.97,3.77-1.35-1.3,3.89-7.97,4.39-9.35.29-.81.36-1.23-.66-1.17-2.2.15-3.51,2.34-4.44,4.07-.99,1.87-3.24,8.98-4.05,9.94-.49.58-1.48.53-2.02.98-.89.75-.61,2.74-2.22,2.53v-11.25c0-4.76,1.71-8.27,4.5-12.03,1.16-.66,1.99.63,3.1.93,4.8,1.31,12.54,3.7,15.39-1.65-2.13-.31-5.29.42-7.24,0ZM125.45,281.5c-1.18-2.21,1.4-6.66-1.49-7-.37,2.21-1.59,6.36,1.49,7Z"/>
  <path class="cls-13" d="M225.87,243c.29.26-2.9,4.23-3.13,4.36-3,1.79-2.4,2.07-4.76,4.1-6.82,5.86-15.86,11.78-20.78,19.58-1.46,2.32-2.79,5.37-4.6,7.92-6.26,8.82-11.87,18.12-17.24,27.72-.28.5-2.44,2.89-2.93,2.31-.37-2.37,1.82-4.21,2.71-6.04,1.22-2.52,5.73-13.45,6.9-14.84.33-.39,1.26-.31,1.74-.76,1.43-1.34,3.09-6.66,4.41-8.34.58-.73,2.06-1.91,3.22-3.28,3.81-4.5,5.41-9.18,9.98-14.01,6.57-6.95,13.99-13.61,22.43-18.06.68-.36,1.13-.9,2.07-.68Z"/>
  <path class="cls-13" d="M255.85,235.5c3.24,6.25,3.99,4.47,8.96,7.78,1.29.86,2.83,2.79,4.03,3.72-1.77.67-3.57-.93-4.79-1.01-2.49-.17-2.78,4.02-2.83,5.9l-2.87,2.61c.33-2,.23-4.69.71-6.55.22-.87,4.15-3.99,2.3-5.21-.93-.61-3.87-.08-5.25-.24-3.43-.42-12.84-3.03-15.02-2.93-.91.04-1.61.82-2.52.94-1.35.17-2.45-.59-3.43-.49-1.14.11-2.36,1.63-4.49,1.02-.21-.06-.56-2.89-3.27-2.03-.21-.92.29-.97.84-1.41,1.98-1.57,11.73-4.46,14.42-4.59,1.43-.07,6.68.76,8.45,1.03,1.54.24,3.03,1.62,4.78,1.47Z"/>
  <path class="cls-13" d="M203.89,252c.33,1.37-.21,1.14-.63,1.64-3.91,4.63-7.27,5.32-11.67,8.55-5.79,4.25-10.34,9.53-16.45,13.79-.76.53-5.54,6.25-6.23,5.51-.25-4.6,3.74-5.72,6.32-8.17,7.53-7.17,13.65-12.96,22.59-18.64.89-.56,5.36-3.39,6.06-2.68Z"/>
  <path class="cls-13" d="M103.9,359.07c.97,1.54-.61,3.6-2.43,2.93-.38,1.3,1.34,1.16,1.51,1.85.96,3.96-2.24,3.42-4.95,2.6-.35-.42,1.29-7.07,1.54-7.35.48-.55,3.89-.73,4.33-.03Z"/>
  <path class="cls-13" d="M119.46,300.5c-.18-.18.06-2.03.21-2.55.33-1.12,1.34-.98,1.68-1.79.46-1.11.09-5.37,2.35-4.65,2.65.84-1.91,11.33-4.24,8.99Z"/>
  <path class="cls-13" d="M131.45,255.5c.84-1.62-2.74-4.27-2-5,.62-.6,4.87,1.91,4.98,2.28.39,1.26-1.73,3.09-2.98,2.72Z"/>
  <path class="cls-13" d="M223.87,240c.37.88-2.01,2.29-2.35,2.39-.85.26-1.77.09-2.64.1,1.08-1.38,3.32-2.17,4.99-2.49Z"/>
  <path class="cls-13" d="M120.45,372.5l-2.99-1.24c1.31-1.52,3.37-.87,2.99,1.24Z"/>
  <path class="cls-13" d="M128.45,253v2.5s-1.99-.5-1.99-.5c-.23-1.51.45-2.22,1.99-1.99Z"/>
  <path class="cls-13" d="M268.34,55.5c.05.45.04,1.04,0,1.5-.11,1.38-.03,1.42,0,2.5.02.83-.03,1.67,0,2.5-.28.04-.94-.09-1,0-.16.21-.03,4.47.01,5.26s.48.7.48.74c.06,1.31.05,2.69,0,4-1.69-.37-.79,1.22-1,2.5-.13.78-.32,2.45-.5,3-.5,1.58-1.68,2.84-3.28,1.53-.95-1.34,1.94-4.25,2.24-6.31.32-2.21-.51-3.81-.46-5.47.1-3.6.99-6.96,2.22-10.3.29-.79,0-1.74,1.27-1.45Z"/>
  <path class="cls-13" d="M299.82,208.5c0,.33,0,.67,0,1-1.24.32-1.63.44-3,.5-.65.03-2.93.39-2.99-.49,2-.84,3.98-.74,5.99-1.01Z"/>
  <path class="cls-13" d="M321.3,193.5c-4.17,7.21-7.67,11.1-15.99,14-1.27-1.33-2.33-1.67-2,.5-.61.13-1.07.36-2,.5-.47.07-1.02-.06-1.5,0,0-.88,1.88-1.98,2.87-2.38,1.64-.68,3.49-.77,5.12-1.38,4.57-1.71,9.25-6.92,11.63-11.12l1.88-.12Z"/>
  <path class="cls-13" d="M327.3,158.5c.82,5.34,1.62,9.06,1,14.5-2.84-.47-1-5.15-1-6.75,0-1.02-1.04-4.66-1.74-5.26-.95-.81-2.27.03-2.75-1.74l4.49-.75Z"/>
  <path class="cls-13" d="M279.33,211.5c-.28-1.51.76-.96,1.73-1,2.44-.1,5.1-.08,7.54,0,.96.03,2-.51,1.73,1-3.55.15-7.42.07-10.99,0Z"/>
  <path class="cls-11" d="M268.34,62c.06,1.89.36,4.4-.5,6,0-.04-.44.05-.48-.74s-.17-5.05-.01-5.26c.06-.08.72.05,1,0Z"/>
  <path class="cls-11" d="M305.31,207.5c-.92.32-1.12.32-2,.5-.33-2.17.73-1.83,2-.5Z"/>
  <path class="cls-11" d="M267.84,72c-.05,1.34.54,2.88-1,2.5.21-1.28-.69-2.87,1-2.5Z"/>
  <path class="cls-11" d="M268.34,59.5c-.03-1.08-.11-1.12,0-2.5.74.72.74,1.77,0,2.5Z"/>
  <path class="cls-11" d="M259.85,209.5h.5c-.27.38-.4.02-.5,0Z"/>
  <g>
    <path class="cls-11" d="M255.35,151c.06,2.78,1.81,1.96,4,2-1.16-1.18-.55-3.28-4-2Z"/>
    <path class="cls-11" d="M327.29,166.25c0-1.02-1.04-4.66-1.74-5.26-.95-.81-2.27.03-2.75-1.74l4.49-.75c-4.84-31.45-25.42-57.08-52.29-72.92-1.48-.87-6.2-3.49-7.14-4.36-1.27-1.19-.6-2.58-1.52-3.73-.5,1.58-1.68,2.84-3.28,1.53-.95-1.34,1.94-4.25,2.24-6.31.32-2.21-.51-3.81-.46-5.47.1-3.6.99-6.96,2.22-10.3.29-.79,0-1.74,1.27-1.45-.02-.2-1.01-2.89-1.24-3.5-6.22-16.68-26.5-22.1-41.06-29.91-4.59-2.47-9.18-5.66-13.82-8.17-8.46-4.58-17.4-8.41-25.32-13.91h-19.98c-.08,4.49-2.27,2.95-4.69,3.04-.96.04-1.87.6-3.06.51-1.27-.1-1.94-1.23-3.24-1.05-.86,2.89,2.76,2.92,1.24,6l-5.51-4.52c-.69-1.36,1.24-2.34.77-3.99h-35.47l-8.99,23.5c.94,1.1,2.08-2.99,2.48-3.26.51-.35,5.22-.39,5.46-.18.2.17.36,2.91,2.06,3.68,3.21,1.46,4.44-2.16,6.87-3.1,5.52-2.14,13.03-1.1,18.73-.02,1.14.21,2.31,1.26,3.68,1.37,3.46.27,4.83-3.97,9.45.5,1.67,1.61,5.14,6.87,6.88,7.86.88.51,2.17.02,3.07,1.18.36.47,2.55,6.72,2.28,6.97-3.01-1.14-2.49,3.54-1.93,5.19.38,1.14,3.09.61,2.43,2.81-2.31.18-3.85-1.24-6.25-1.49-8.25-.86-17.04.41-24.95,1.52-3.94.55-12.1-.38-15.41.46-.55.14-.34,1.29-1.58,1.52-1.43.27-5.99-.41-6.7.05-.45.3-.34,4.19-2.84,4.46-2.15.23-1.57-2.15-2.84-2.69-.95-.41-3.64-.58-4.57-.25-.62.22-.58,1.11-1.2,1.4-.66.32-3.67.52-4.03,1.09-.29.47.13,1.64-.54,2.71-1.99,3.17-11.12,4.27-14.53,5.46-1.69.59-4.48,2.71-5.85,3.14-2.56.8-6.24.69-9.24,1.76-10.87,3.86-21.43,9.75-31.25,15.73-4.74,2.88-7.16,3.69-11.98,6.01-5.14,2.49-8.04,4.76-14.42,5.57-3.03.38-6.25-.51-9.2.55-.14,3.83,6.02,3.24,8.69,2.94,4.48-.5,5.02-2.22,10.29-1.45.44-1.54-1.83-1.26-2-1.51-1.25-1.9,4.47-2.64,5.95-3.29,6.63-2.91,14.1-8.21,20.15-11.82.55-.33,4.76-1.94,5.1-1.91.31.03.03.94,1,1.07,8.53,1.12,15.06-3.88,23.63-3.87,1.96,0,1.64,1.51,2.45,1.78,2.57.85,3.2-3.41,4.92-3.44,1.06-.02,2.29,1.37,3.56,1.49,1.27.12,2.52-.63,3.94-.53,1.31.09,2.39,1.17,3.48,1.06,1.02-.1,1.53-1.26,2.39-1.64,2.44-1.1,1.54.17,3.86-2.13,1.55-1.54,2.95-.47,2.51,1.51-.12.54-1.23.04-1.45.28-.29.3.08,2.72-.05,3.47,2.71-.14,4.84-.41,7.53.22,6.94,1.63,12.37,1.14,19.19,1.77,6.2.57,10.66,1.42,16.98,1.49,11.69.14,23.5-1.17,34.75,1.77,3.33.87,4.78,2.93,6.88,3.61,2.5.82,6.23.71,8.85,1.65,2.04.73,4.52,2.45,7.03,2.96,3.41.69,1.89-.63,5.02,1.45,2.77,1.84,9.56,4.36,12.97,5.54,9.5,3.29,18.69,6.8,28.21,10.27,3.42,1.25,7.81,2.13,11.11,3.88.97.52,2.54,2.33,2.72,2.37,1.15.23,2.48-.31,3.65.25.82.4,1.12,2.05,2,2.5.75.38,1.75.18,2.5.49.78.33,5.93,2.39,4.98,3.26-3.2-.04-6.77.35-9.77-.97-1.27-.56-2.47-2.33-3.86-1.96-.48.13-6.49,5.52-7.6,6.43-1.34,1.09-2.04,2.12-2.57,2.56-.87.71-2.21-.28-1.67,2.44,1.25.3,1.94-1.11,3.13-.94,1.13.16,2.01,1.63,3,2.06,1.7.74,3.76.43,5.33,2.16.54.6.59,1.47,1.03,1.97.62.72,2.55,2.23,2.76,2.76.35.85-.54,2.16-.26,2.47.08.09,1.7-.05,2.28,1.01.72,1.32-.86,1.95-.74,2.69.07.42,2.78,3.94,3.97,3.09,1.04-.74-.33-3.66,1.73-2.77,1.1.48.83,5.79,2.46,7.04,1.27.98,4.17.07,5.79.96.31,1.21-1.6,1.65-1.44,2.65.08.48,1.01,1.12,1.21,1.82.29.99.12,2.07.45,3.05.74,2.2,4.3,3.12,5.8,4.7,1.21,1.28,1.44,3.14,3.21,4.28,1.15.74,2.58.73,3.52,1.48,1.23.97,4.2,5.33,5.45,6.05,1.3.75,2.64.26,3.97,1.02,1.36.77,1.15,2.18,2.02,2.97,2.07,1.88,7.32,2.16,6.77,5.97-1.48-.37-3.13-.3-4.6-.64-3.34-.78-12.21-3.05-14.84-4.65-1.25-.76-2.59-2.66-3.79-3.71-1.16-1.03-2.63-.57-2.67-2.72-.01-.64.66-1.89.41-2.26-.31-.45-3.24-.32-3.99-.77-.47-.28-.69-1.3-1.25-1.75-1.45-1.18-3.64-2.11-5.21-3.28-3.74-2.78-2.96-1.18-6.02-2.48-2.01-.85-3.18-3.51-4.14-4.61-.6-.68-4.4-3.15-5.36-4.13.08,1.3-1.23,1.44-1.49,2.76-.56,2.93,1.62,12.74,2.62,15.86.76,2.37,2.62,6.51,3.26,8.73.39,1.35-.12,2.97.14,4.36,1.36,7.19,2.15,12.3-.53,19.55-.66,1.79-2.62,3.09-1.51,5.24,6.25,1.03,11.02,1.87,17.49,2-.28-1.51.76-.96,1.73-1,2.44-.1,5.1-.08,7.54,0,.96.03,2-.51,1.73,1,.94-.04,6.23-.32,6.5-.5.09-.06-.06-.78,0-1-.65.03-2.93.39-2.99-.49,2-.84,3.98-.74,5.99-1.01,0-.88,1.88-1.98,2.87-2.38,1.64-.68,3.49-.77,5.12-1.38,4.57-1.71,9.25-6.92,11.63-11.12l1.88-.12c.86-1.49,2.38-3.16,2.9-4.35,1.71-3.95,3.61-11.83,4.1-16.15-2.84-.47-1-5.15-1-6.75ZM143.13,57.45c-2.17.08-5.76-.7-7.95-.49-1.49.14-2.1,1.28-3.51,1.51-2.09.34-4.75-.16-6.96.03-4.95.41-8.67,2.43-13.65.66-1.4-.5-3.57-1.92-.84-2.15,3.18-.27,2.55-.95,4.09-1.41,5.66-1.69,21.64-2.34,27.89-2.1,2.08.08,4.17-.05,6.24,0,.17,3.63-2.23,3.84-5.3,3.95ZM259.07,48.53c-2.56-.42-6.59.54-8.86-.13-1.81-.53-5.77-2.65-7.73-3.27-4.33-1.37-9.1-2.02-13.1-3.89-.35-3.58,4.91.65,4.51-2.97-.35-3.21-3.23-.25-5.01-.77-.2-2.38-.21-3.56,2.39-3.9,1.95-.26,7.95.85,9.6,1.65.97.47,1.61,3.04,3.48,3.55.97.26,5.31-1.22,7.14-.71.72.2,4.72,3.42,5.91,4.12,1.1.65,2.46.57,3.49,1.51.53.48,2.55,4.37,2.41,4.94-.68,2.66-2.79.11-4.22-.12Z"/>
  </g>
  <path class="cls-11" d="M207.89,114.5c.41,2.44-1.69,2.56-2.73,4.01-2.56,3.56-1.22,4.83-1.25,8.21-.02,1.94-1.22,4.53-1.06,6.53.11,1.36,3.3,5.53,2.04,6.75-1.46,1.41-1.69-2.12-2.13-3.12-.62-1.41-2.27-2.69-2.65-3.85-.48-1.49.4-3.8-1.97-3.56-3.6.36,1.49,6.51,1.73,7.8.26,1.38.64,6.09.53,7.47-.43,5.32-5.16,2.77-5,7.75,2.62-.49,6.55,1.7,8.49-.75,1.01-1.28,1.6-6.53,1.01-8.24,2.02.92,2.95,2.05,5.49,1.5.38-2.91-.78-1.94-2.11-2.51-1.01-.43-1.34-2.14.37-2.51,1.25-.27,1.85,1.94,2.73,1.02,1.27-1.31-1.6-2.81-1.86-3.14-.47-.61-2.03-3.12-2.05-3.71-.12-3.63,5.81,1.1,6.78,3.23.52,1.13.56,3,1.08,3.8.47.73,1.78.59,1.97.9.56.87-.17,4.25-.43,5.43,3.75-.27,2.78-10.16,1.72-11.98-1.79-3.09-7.39-2.9-10.09-4.36-2.19-1.19-.22-7.06.14-7.18,3.14-1,2.27,5.63,5.72,4.52.05-1.66-.37-4.49-1.54-5.7-1.1-1.14-2.95-.68-3.38-2.15-1.05-3.61,5.02-2.33,7.04-2.01,2.44.38,4.47,1.34,6.66,1.83,1.67.38,3-.67,4.51.99.85.93,2.07,4.94,2.21,6.28.75,6.86-.96,17.2-4.3,23.2-1.2,2.15-5.73,8.81-7.32,10.42-1.11,1.12-4.06,1.72-5.32,2.43-5.51,3.12-10.32,8.11-17.25,5.67-.53-.19-3.59-2.13-4-2.5-2.58-2.33-.61-8.53-.29-11.72.07-.66-.44-1.46-.36-2.36.22-2.63,2.82-7.34-.15-8.63-1.92-.83-2.73.85-2.5-2.01.13-1.58,1.69-4.14,2.79-5.24.86-.86,1.9.18,1.75-1.75-.24-3.12-2.56-.76-3.03-1.26-.14-.15-.58-3.95-.54-4.16.24-1.21,4.26-1.91,5.22-2.4,1.51-.77,5.71-6.46,6.83-8.17,2.08-3.19,1.17-5.16,6.47-4.77ZM220.38,151.5c.64.74,1.27-.86,1.51-1.23,4.16-6.4,4.68-14.59,2.23-21.77-1.12-3.28-2.64-6.86-6.75-6-.48,1.7.96,2.68,1.35,3.89.54,1.67.7,3.59,1.29,5.21.7,1.9,2.69,4.15,2.83,6.21.08,1.18-.33,6.61-.52,7.91s-2.6,5.04-1.96,5.78Z"/>
  <path class="cls-11" d="M166.86,177.05c.17.12,1.71,3.8,1.55,3.95-1.14,1.03-3.91-1.86-4.25-3-1.23-.39-.88,2.22-1.25,2.51-.19.14-3.96-1.45-4.49.25s1.83,1.75,2.52,2.6c1.45,1.78,1.55,3.73-1.26,3.67-3.12-.07-2.4-2.26-2.77-2.52-.4-.28-1.84.14-1.99.76-.25,1.01,1.13,1.81,1.03,2.96s-1.82,1.57-1.48,2.93c.56,2.26,4.96.46,5.35,2.67.43,2.48-2.39,1.21-3.69,2.13l-4.03,5.57c-2.71.65-2.54-1.92-3.93-2.07s-1.77,1.3-3,1.54c-6.05,1.18-6.4-6.19-3.75-9.76.43-.58,1.48-.76,1.76-1.24.53-.89-.02-2.36.46-3.04.37-.53,1.73-.32,2.53-.97.96-.79,1.24-3.22,2.47-4.03,1.84-1.21,3.32.03,5,0,3.02-.07,1.05-2.37,2.25-4.25.37-.58,3.34-2.02,3.89-2.09.93-.13,2.83,1.49,4.11,1.66.95.12,2.51-.55,2.97-.23Z"/>
  <path class="cls-11" d="M129.87,108.08c-.59-.73-8.91-1.48-10.51-1.73-.81-.13-3.55-.04-3.39-1.1.58-.88,1.34-.72,2.22-.78,4.85-.37,8.52.52,13.01.94,1.35.13,3.58-1.51,4.21,1.27l-4.21,3.82c-1.59.1-.97-1.98-1.32-2.41Z"/>
  <path class="cls-10" d="M86.48,181c1.8-.37,4.5-1.51,6.27-1.43,2.59.11,6.54,1.9,8.95,2.45.76.17.89-.38.76.98-2.05.15-4.26-.19-6.28-.02-.65.06-1.11.51-1.21.52-1.88.2-3.49.1-5.5.5-.65.13-2.07.32-2.5.5-.13-1.2-.5-2.26-.5-3.5Z"/>
  <path class="cls-11" d="M86.48,181c0-.5-.25-1.21.29-1.55s5.12-1.04,5.95-.98c.5.04,6.07,1.04,6.4,1.14.67.2,1.03,1.11,1.7,1.3,1.47.44,6.44-.59,4.91,2.11-.88,1.56-6.17,1.02-8.02,1-.84,0-2.22.32-2.74-.51.1-.01.56-.46,1.21-.52,2.02-.17,4.24.17,6.28.02.14-1.36,0-.8-.76-.98-2.41-.55-6.37-2.34-8.95-2.45-1.77-.08-4.47,1.06-6.27,1.43Z"/>
  <path class="cls-11" d="M203.39,176.99c-.09.13-2.69,1.4-2.86,1.44-1.92.41-1.97-.91-3.16-1.65-.6-.37-1.85-.2-2.25-.75-1.27-1.74-.28-4.11,2.64-3.14.86.28,6.29,3.18,5.63,4.1Z"/>
  <path class="cls-11" d="M139.94,122.51c.05.06.19,1.05-.25.99-1.49.42-4.68-.21-4.2-2.21.08-.35,1.84-1.39,2.24-1.99.85-1.27,1.92-5.26,3.86-4.75,3.33.88-.33,2.82-.87,3.48-.57.69-2.42,3.52-2.04,4,.28.36,1.16.36,1.26.48Z"/>
  <path class="cls-11" d="M162.43,192.5c.13-1.01-.7-3.78,1.24-2.99,1.61.65.37,3.19-1.24,2.99Z"/>
  <path class="cls-13" d="M97.47,192.01c-.78,2.08-8.98,1.1-6.99-1,.24-.26,5.94,1.03,6.99,1Z"/>
  <path class="cls-11" d="M125.45,281.5c-3.08-.64-1.87-4.78-1.49-7,2.9.34.31,4.78,1.49,7Z"/>
  <path class="cls-13" d="M220.38,151.5c-.64-.74,1.78-4.51,1.96-5.78s.6-6.73.52-7.91c-.14-2.06-2.14-4.31-2.83-6.21-.59-1.61-.76-3.53-1.29-5.21-.39-1.22-1.84-2.19-1.35-3.89,4.1-.86,5.63,2.71,6.75,6,2.44,7.18,1.93,15.37-2.23,21.77-.24.37-.87,1.97-1.51,1.23Z"/>
  <path d="M327.8,381c1.89-3.14-1.79-1.69-2-2.76-.32-1.68,2.73-.98,3.62-.61,1.3.54,1.67,2.24,3.37,1.87.42-.43-1.32-4.81-1.53-4.96-.73-.53-3.62,1.48-4.67,1.44-3.32-4.54,4.02-1.92,4.64-3.79-.48-1.82.3-7.58-.09-8.85-.27-.89-1.53-1.54-1.73-2.58,3.02-3.53,2.92,1.04,3.87,2.02.88.9,3.87.51,4.43,2.6.5,1.89-1.31,2.64-1.38,3.86-.02.32,1.02,6.02,1.19,6.29.81,1.33,2.46-.88,3.55-1.02,1.21-.16,3.55,1.16,4.26.2,1.27-1.72-1.26-3.16-1.41-4.51-.51-4.57.47-3.53-1.5-8.58-.97-2.48-.07-5.32-.67-7.84-.43-1.83-2.64-3.38-1.97-5.77,1.61-.27.82,1.56,1.55,2.7.51.8,1.97,1.35,2.72,2.27,3.02,3.68,5.2,8.49,7.45,12.56.32.58.29,1.32.27,1.97,1.86.34.61-1.34.74-2.26.06-.46.74-.91.74-1.49,0-1.04-3.55-9.25-4.38-10.61-1.65-2.68-4.82-6.12-6.21-8.77-1.56-2.96-2.28-11.44-3.09-14.92-.4-1.7-2.34-3.32-3.12-5.38s-1.21-4.5-1.16-6.59c1.72,1.41,1.85,3.04,4.04,4.2,1.25.66,5.37,1.08,5.45,1.56.1.57-.78,1.07-.86,1.56-.05.29-.1,5.28-.03,5.8.39,3.03,2.88,4.34,2.88,4.63,0,.1-.76.62-.9,1.13-.43,1.55,3.25,6.62,5.41,6.13.38-2.99.75-5.43-.39-8.36-.5-1.27-2.45-3.46-2.87-4.65-.22-.63,1.14-2.4,2.16-.63s3.62,6.34,3.99,8.01c1.15,5.2,1.9,15.36,2.14,20.86.34,7.79-.25,15.61-1.52,23.27h-26.98Z"/>
  <path d="M84.98,381c.15-1.85.31-3.8.62-5.63,2.81-16.39,6.11-32.99,11.01-48.98,2.28-7.45,8.18-27.71,12.6-32.89.6-.7,1.44-1.55,2.25-1.99-.23,1.33-.53,7.95,1.25,7.5.46-.12,4.79-6.28,5.27-7.23.45-.91,1.23-4.23,1.73-4.25,1.01-.06.36,1.43.31,1.79-.36,2.62-3.57,9.73-5.12,11.89-.96,1.34-3.86,3.12-5.19,4.8-2.34,2.97-6.46,14.39-7.2,18.29-.29,1.5.17,3.03-.27,4.73-.55,2.13-3.77,5.53-4.87,7.63-1.34,2.57-3.85,9.88-3.91,12.63-.09,3.94,2.03,10.04,1.49,13.94-.18,1.33-1.36,3.25-1.84,4.67-.59,1.74-.25,3.78-2.13,5.38-1.47,1.07-.53-3.86-1.5-3.76l-2,11.5h-2.5Z"/>
  <path d="M141.94,381c-1.53-12.68.1-25.18,3.97-37.28.85-2.66,3.02-9.01,4.29-11.21.44-.76,1.66-.88,1.99-2.01,1.01-.24.88.53.65,1.16-.98,2.65-2.95,5.75-3.88,8.62-3.12,9.69-5.14,21.77-4.54,31.99.17,2.85,1.25,5.81,1.02,8.73h-3.5Z"/>
  <path d="M181.91,381c.56-4.29-2.23-8.19-3.27-11.98-2.42-8.79-5.34-21.39-3.43-30.26.8-3.72,1.63,1.02,1.73,2.47.33,4.86-.27,6.24.75,11.24,1.17,5.7,2.23,11.72,3.84,17.16,1.09,3.7,3.6,7.48,3.38,11.36h-3Z"/>
  <path d="M147.4,271.96c-.44.42-2.01-.58-2.94-.22-1,.39-3.98,3.74-4.27,3.75-.65.02-.64-1.06-.62-1.6.06-1.62.73-3.59.37-5.39-3.51.52-4.69-.61-7.51,2.23-1.06,1.07-1.57,2.44-2.48,3.54-.4.49-1.36.66-1.44.81-.25.43,1.14,3.35-.8,2.92-.24-.05-2.05-1.94-2.18-2.36-.6-2.05,1.46-3.21,1.29-4.82s-2.01-1.53-1.89-2.53c.1-.88,2-4.6,2.83-4.74.39-.07,2.77,1.45,3.67,1.71,2.3.66,6.8,1.49,9.18,1.2,4.21-.51,9.34-5.92,13.58-7.34.51.08,2.51,4.65,2.64,5.27.64,3.24-7.81,4.9-8.92,5.86-.59.52-.39,1.58-.53,1.71Z"/>
  <path d="M156,153.08c.69-.43,2.51.21,3.5.14,3.3-.23,1.76-1.73,3.14-3.24.89-.98,5.9-2.39,6.79-1.77.3.21.73,1.36.77,1.77.13,1.65-2.52,1.84-3.03,2.53-.67.93-.53,3.64-2.5,4.49-1.93-4.55-4.11-1.85-1.26,1.26-.11,1.51-7.56,2.02-9.01.03-1.56-2.13,1.3-3.12,1.6-5.21Z"/>
  <path d="M201.14,135.01c.42.01,1.75,2.89,1.99,3.5,1.47,3.78,1.99,7.09,1.37,10.86-.27,1.62.94,2.74-2.13,3.86-2.09.76-8.92-.2-5.98-3.49,1.36-1.52,3.45-.2,4.16-4.37.53-3.14-2.45-7.75.59-10.36Z"/>
  <path d="M150.1,256.66c-1.69,1.94-1.42,1.62-3.42,3.32-.77.65-1.01,2.09-2.08,2.42-2.36.72-6.14.43-7.14-2.16-.65-1.68,3.92.05,4.98-.47,1.49-.73.55-2.07.89-3.12.94-2.91,2.73-2.2,4.32-3.2,1.19-.75,2.83-5.02,4.41-1.32,1.41,3.29-.67,3.05-1.95,4.53Z"/>
  <path d="M90.97,201c-1.15.44-.58,4.08-2.11,1.84-.63-.92-1.36-1.81-1.88-2.6-.43-.64-.54-1.09.26-1.25,1.23-.25,2.02,1.25,3.04,1.37,3.69.41,10.4-1.9,14.47-1.82l1.7,1.21c-.47.51-.98,1.09-1.62,1.37-.71.31-6.54,2.33-7.09,2.4-2.31.32-6.31.31-6.77-2.52Z"/>
  <path d="M168.92,282c.03-4.85,4.4-6.47,7.51-9.22.63-.56.91-1.45,1.53-1.97,3.01-2.52,8.49-6.87,11.79-8.71.87-.48.87-.87,1.64.16l-22.47,19.75Z"/>
  <path d="M136.2,176.5c.88-.18,1.02.65,1.21,1.28.58,1.92,1.09,8.37.94,10.48-.15,1.96-1.29,3.01-2.66,4.23-1.22-2.5-2.49-4.93-2.28-7.76.09-1.3,1.74-8,2.79-8.22Z"/>
  <path d="M195.65,320.51c.59-.04.89,1.42.42,1.9-1.25,2.15-3.53,22.57-4.92,22.58-.95,0-.54-1.52-.51-1.99.32-5.72,1.56-14.65,3.51-19.99.19-.53,1.1-2.46,1.5-2.49Z"/>
  <path class="cls-2" d="M268.34,58c-.21,2.62-.91,21.31-3.24,21.48-.15.01-1.74-1-1.74-1.23s1.6-2.7,1.93-4.06c.98-4.09.14-8.16.78-12.22.07-.43,1.21-5.25,2.27-3.97Z"/>
  <path d="M223.13,131.5c1.22-.28,2.67,3.88,2.73,4.77.04.73-.45,1.43-.44,2.03.08,3.14.7,6.4-2.3,8.69-1.18-.74-.44-1.11-.4-1.88.1-2.24.7-5.92.62-7.82-.05-1.04-2.49-5.25-.21-5.79Z"/>
  <path class="cls-7" d="M268.84,246.51c1.79,2.09-3.52.04-3.78,0-5.11-.73-2.11,5.83-6.21,6.48.93-1.45.19-3.21.6-4.65.31-1.09,2.25-1.95,2.64-2.86.52-1.2-.18-2.65,1.01-3.48,1.44,1.42,3.02,2.63,4.51,4,.39.36,1.18.43,1.23.5Z"/>
  <path d="M172.27,144.6c3.12-.89,5.32,2.46,3.38,4.39-.36.36-3.45,2.12-3.97,2.01l-.56-5.27c.07-.52.68-.99,1.16-1.13Z"/>
  <path d="M192.4,217.5c-1.3-1.15,3.67-2.13,3.96-2.28.93-.49,1.4-1.46,2.89-2.11,2.19-.96,8.74-2.13,4.75,1.25l-11.6,3.14Z"/>
  <path d="M136.2,271.5c1.95-.48.43,2.26.36,2.87-.09.7.44,1.41.15,2.12-.18.43-2.98,3.12-3.5,3.01-2.59-.56,2.51-7.88,2.99-8Z"/>
  <path class="cls-2" d="M123.2,292.01c.17,0,1.06.99,1.16,1.35.39,1.3-1.94,7.04-3.66,6.63s.87-2.73,1.11-3.38c.3-.79.5-4.61,1.38-4.61Z"/>
  <path d="M143.93,178c-.15,3.73-1.61,1.87-2.9,2.6-.5.28-.33,2.29-1.83.89-2.19-2.06,2.99-3.55,4.73-3.49Z"/>
  <path d="M130.71,251c.64-.08,3.6,1.63,3.71,2.31-2.11,3.99-2.71,1.64-3.98-1.06-.26-.56-.72-1.12.27-1.25Z"/>
  <path d="M193.4,260.5c-.15-1.06-.01-1.32.81-1.94.41-.31,5.94-3.83,6.18-3.56-.06,3.57-4.92,3.37-6.98,5.5Z"/>
  <path class="cls-2" d="M141.44,282c-.8-.91,2.69-6.65,3.74-7.49,1.35,1.01.27.85-.02,1.47-.26.55-2.71,7.18-3.73,6.02Z"/>
  <path class="cls-2" d="M157.68,127.01c1.07.03,2.31,4.99,1,4.98-2.35-.02-2.13-5.01-1-4.98Z"/>
  <path class="cls-2" d="M180.9,149c-.27.26-1.35.11-.99-.74.27-.63,2.72-3.67,3.73-3.25,2.46,2.87-1.2,2.08-2.26,2.75-.46.29-.38,1.15-.49,1.25Z"/>
  <path class="cls-2" d="M177.66,142.01c1.28,0,1.7,4.51,0,4.48-1.47-.03-1.15-4.48,0-4.48Z"/>
  <path class="cls-2" d="M210.38,256c.46.46-.64,1.42-.99,1.76-.4.39-3.67,3.07-4,2.74-.26-1.37,4.51-4.98,4.99-4.49Z"/>
  <path class="cls-2" d="M101.82,359.05c1.05-.27,1.56.59,2.14,1.2-2.48,3.62-4.91-.48-2.14-1.2Z"/>
  <path d="M101.95,365.03c1.16,1.75-3.16,3.44-2.95.18.12-1.88,2.84-.35,2.95-.18Z"/>
  <path class="cls-7" d="M190.9,152.5c-.49.39-2.04-1.07-2.25-1.49-1.14-2.25,4.04-1.9,2.25,1.49Z"/>
  <path class="cls-4" d="M328.79,169c.05.75.22,4-.75,3.99s-1.42-4.38.75-3.99Z"/>
  <path d="M185.4,137.5c-.7,1.14,0,3.77-2.99.75.61-1.45,2.91-.61,2.99-.75Z"/>
  <path class="cls-2" d="M130.95,124c-.8-1.01,2.48-4.1,3.48-2.25l-3.48,2.25Z"/>
  <path class="cls-2" d="M204.14,261.01c2.2-.09-1.15,3.44-2,3.48-1.99.1,1.78-3.47,2-3.48Z"/>
  <path class="cls-7" d="M195.56,273.15c-.56.79-.6,2.03-1.66,2.35.14-1.52,1.09-5.41,2.98-3.25-.03.35-1.1.58-1.33.9Z"/>
  <path class="cls-2" d="M329.3,322c-.17-.13-.6-2.46-.5-3,2.42.44,1.97,4.11.5,3Z"/>
  <path class="cls-5" d="M123.96,271.5c1.4-.98,1.71,2.25.24,2.99-1.19-.37-.43-2.86-.24-2.99Z"/>
  <path class="cls-2" d="M220.37,247c.38,1.82-1.3,1.97-2.24,2.99-1.7-1.16,1.47-2.33,2.24-2.99Z"/>
  <path class="cls-2" d="M213.39,254l2.99-3c.4,2.03-1.73,2.27-2.99,3Z"/>
  <path d="M185.4,137.5c.07-.14-1.14-2.88.74-2.5.86.17.74,1.18.4,1.88-.38.8-1.11.56-1.14.61Z"/>
  <path d="M211.64,132.5c1.32-.3,2.37,2.5.99,2.49-.2,0-2.6-2.12-.99-2.49Z"/>
  <path d="M220.64,124c1.51-.34,1.52,2.49.49,2.49-.39,0-1.84-2.18-.49-2.49Z"/>
  <path class="cls-14" d="M244.86,222c.2.34,2.27,2.53,1.24,2.5-1.66-.04-1.45-1.65-1.74-2.5.14-.44.31-.43.5,0Z"/>
  <path class="cls-5" d="M177.16,300.51c.94,0,.94,2.48,0,2.48s-.94-2.48,0-2.48Z"/>
  <path d="M322.8,370.5c-.49.48-2.48-1.57-2.49-1.75-.13-2.09,2.89,1.36,2.49,1.75Z"/>
  <rect class="cls-1" x="88.48" y="213.5" width=".99" height="2.49"/>
  <path d="M223.38,246.01c-.26,1.12-2.49,1.84-2.49.74,0-.67,1.8-.92,2.49-.74Z"/>
  <path class="cls-5" d="M138.94,176c-.95-.89,2-2.24,1.99-.75,0,.51-1.65,1.06-1.99.75Z"/>
  <path class="cls-2" d="M183.4,292.5c-1.27,1.1-1.29-1.99-.25-1.99.77,0,.57,1.71.25,1.99Z"/>
  <path class="cls-9" d="M180.91,296c.09.07-.98,1.98-1.25,1.99-1.3.01-.1-2.33,1.25-1.99Z"/>
  <path class="cls-3" d="M121.95,256.5c.51.52-.99,2-1.49,1.49s.99-2,1.49-1.49Z"/>
  <path d="M297.82,209v.99s-2,0-2,0c.27-.99,1.06-1.12,2-.99Z"/>
  <path d="M178.41,224c.51.5-.98,2.01-1.49,1.49s.98-2.01,1.49-1.49Z"/>
  <rect class="cls-12" x="301.32" y="208" width="1.49" height=".99"/>
  <path class="cls-6" d="M82.49,366.5l.5-2.5h.49c.08.93.14,2.2-.99,2.5Z"/>
  <path class="cls-8" d="M244.86,222h-.5c-.15-.44-1.11-1.46-.25-2.01.35,0,.41,1.43.75,2.01Z"/>
  <path d="M255.12,148c2.64-.56,2.55,1.69,4.96,2.52,1.61.56,3.06.34,4.64.86,2.78.92,5.89,4.88,8.87,6.11,3.12-3.77-1.87-5.38-4.07-7.67-3.48-3.62-6.89-6.84-10.39-10.36-.92-.93-1.73-2.25-1.85-2.36-.33-.29-1.37.02-1.93-.34-.35-.22-.78-1.76-1.47-2.54-2.02-2.29-7.14-3.88-6.52-7.45.39-2.23,8.79-7.52,10.95-9.07.87-.62,1.88-2.15,2.55-2.46,1.18-.54,4.3.83,3.25-1.26-1.31-2.59-18.17-7.47-21.74-8.75-5.28-1.89-18.66-7.8-23.25-8.23-6.58-.63-13.89-1.17-19.69-4.27-2.02-1.08-4.77-4.32-7.01-5-3.69-1.11-6.85.56-9.5.05-.66-.13-11.62-4.6-12.46-5.08-1.47-.83-2.81-2.95-4.83-3.2-1.37-.17-2.59.49-3.93.52-22.05.37-43.89-3.08-65.95-3.04-8.49.01-16.95.89-25.5,1.06-5.56.11-13.04-.85-18.47-.01-.78.12-1.4.98-2.03.99-1.05.02-1.49-1.59-2.39-1.45-.33.05-5.21,2.85-5.8,3.25-5.49,3.66-11.08,7.34-17.18,10.29-1.59.77-3.7.45-4.83,2.15.02,2.08,24.11,4.86,26.99,5.48,7.52,1.64,14.62,4.8,21.85,7.14,2.05.66,7.39.25,7.13,2.85-.18,1.84-2.27,1.84-1.17,5.69,1.35,4.74,6.78,5.92,7.16,8.86.17,1.34-3.48,1.2-3.99,2.47,1.34,2.14,3.4.47,5.47,1.27.63,1.94-1.58,2.56-1.49,4.18.03.54,1.99,4.78,2.26,4.79,1.7.07-.43-4.02-.22-4.68.48-1.49,5.82-.89,2.85-6.45-.53-.99-1.79-1.57-1.89-2.62-.19-1.97.7-4.16,2.99-3.75.21,2.85.03,4.3,2.83,5.93,4.45,2.58,7.08.2,9.51.94,2.65.8,6.13,4.21,7.41,6.63,2.07.04-.65-2.45-.26-2.99,2.05-.14,3.73-2.32,5.48-2.77,1.95-.51,3.87.08,5.66-.34,1.12-.26,1.7-1.42,3.09-1.44,2.08-.03,4.35,3.24,6.53,1.57,1.91-1.47-.27-1.61-.62-2.17-.5-.81-.27-1.59-1.18-2.58-.83-.89-6.32-3.72-6.96-2.02-.41,1.08,3.79,1.04,4.25,2.24.93,1.32-3.47,1.05-4.29.78-.19-.06-3.11-1.79-3.46-2.04-1.47-1.01,1.77-1.57,2.49-1.25.17-.73-.59-1.69-1.22-1.79-1.33-.2-9.24.98-10.85,1.46-.64.19-3.28,1.42-3.69,1.81-.87.83-1.04,2.8-1.29,2.96-1.07.69-5.58.1-5.93-1.93,1.09.07,3.27-.47,3.99-1.26,1.76-1.94-.8-4.45,3.74-2.25,1.56-4.06,1.26-2.76,4.48-3.53,2.56-.61,6.75-1.5,9.52-.96,1.34.26,1.52,1.4,2.26,1.74,2.13.96,4.83.66,7.62,2.74.68.51,1.31,2.33,2.18,2.48,1.19.21,1.83-2.34,2.42-2.39,1.32-.11,3.99,3.03,5.27,2.2,2.56-1.66-1.88-3.39-2.51-5.05-3.55.45-4.89-.03-7.5-2.48,1.22-.42,2.23-.86,2.97-2,0-2.13-9.82-4.28-11.66-4.1-2.49.25-1.07,1.83-1.55,3.34-2.04-.44-3.67-2.06-5.76-2-.73-.59,2.06-2.23,2.39-2.36,7.91-3.17,27.5.4,36.33,1.87,4.16.69,12.42,1.77,15.84,4.01.87.57.95,1.79,1.68,2.46.74.67,2.39.77,2.67,1.87.37,1.46-1.36,1.85-1.72,2.67-.28.63.27,1.35.15,2.12-.19,1.3-1.59,1.56.38,3.86,1.37,1.6.81-1.43.85-1.59.08-.29.86-2.23.95-2.31.47-.41,2.78-.07,2.93.68.04.21-1.31,3.91-1.48,4.04-.68.5-1.72-.54-2.26.17-.7.91-1.01,3.44-.53,4.55.74,1.13,3.57-1.12,5.61,1.13.67.74,1.1,2.96,2.46,3.22,1.6.31,3.76-1.44,4.94-1.43,1.47,0,3.26,2.07,5.76.31.86-.61-.19-1.57.2-2.24.13-.23,4.04-3.14,4.28-3.25,1.06-.45,2.06-.05,3.27-.73,3.1-1.74,7.69-11.21,10.57-11.92,5.05-1.25.06,2.92-.78,4.22-2.55,3.93-.91,4.16-.61,7.46.18,1.89-.84,6.03-.79,6.96.03.59,1.47,1.72,1.71,2.62.44,1.69-.6,7.34,2.23,3.99,2.8-3.3.27-4.02.41-6.13.05-.76,1.03-1.33.93-1.92-.09-.53-1.36-.91-1.5-2.56-.07-.78.64-4.96.99-5.47.71-1.04,2.36.05,3.09.43.65.34.45,1.36,1.46.03-1.56-.77-4.63-4.55-2.52-6.03,2.06-1.44,10.64,1.2,13.32,1.73,1.5.3,2.99-.49,4.23.77,1.15,1.17,2.41,7.39,2.43,9.11.22,13.62-5.67,28.18-17.51,35.37-2.86,1.74-8.44,4.72-11.68,4.83-3.25.11-10.22-2.46-11.13-5.9-.51-1.93,1.25-4.54-.62-4.88-2.51,2.66-1.42,5.75-2.11,8.39-.32,1.22-2.35,2.9-2.66,4.36-.26,1.23.88,6.19.21,6.95-.21.24-1.47-.05-2.16,1.08-.95,1.56.2,4.06-.75,4.76-9.92-1.6-3.73,3.17-5.07,6.91-.54,1.51-5.22,1.69-5.39,2.6-.09.49.58,1.49.46,2.43-.09.7-.83,1.28-.99,2.06-.19.94.18,2.04-.01,2.87-.05.21-2.7,2.15-2.93,3.21-.21.98,1.15,3.22-.41,4.19-1.16.72-4.73.54-6.61,1.26-.43.16-5.51,2.95-5.82,3.17-1.11.8-.89,2.61-1.57,3.04-2.42,1.52-4.01-1.28-5.29-.96-1.19.3-1.68,2.34-2.2,2.46-.92.21-2.16-.17-3.28.11-2.37.57-6.43,2.63-8.69,2.75-.95.05-1.67-.68-2.73-.61-1.16.08-3.93,1.26-5.05,1.88-.77.43-1.92,1.8-2.16,1.85-1.17.26-1.26-2.53-2.97-1.99-.84.27.19,2.66-3.77,2.27-1.17-.12-3.46-1.24-3.65-1.21-1.05.17-1.77,2.44-2.11,2.48-1.08.15-1.85-1.04-1.96-1.03-.37.02-.54,1.17-.86,1.37-1.67,1.03-9.84-.4-11.86-1.14-2.25-.82-3.42-3.3-5.65-2.65-4.17,1.22,2.88,4.54,4.28,5.02,6.26,2.11,13.9,3.55,20.57,3.92,3.69.2,12.72-.85,15.4.96.53.36,1.45,2.02,1.95,2.71.36.5,1.19.74,1.29.92.09.16.46,3.47.43,3.67-.11.71-2.54,1.75-3.06,3.25-.22.64-.17,2.97.06,3.48.14.3,3.22,4.78,3.48,4.94.22.14,4.73,1.54,4.99,1.56,1.3.08,7.51-5.29,8.95-6.51,7.09-5.99,14.29-12.02,21.78-17.7,1.26-.96,2.75-1.52,3.95-2.55.05-.64-.32-1.18-1.02-1.03-.36.08-5.95,3.23-6.43,3.58-1.59,1.16-4.27,4.15-5.82,5.7-2.12,2.11-1,.69-2.22,1.31-1.61.82-3.01,2.82-5.17,2.14-2.09-.66.38-2.14.89-2.98.44-.73.43-1.7.93-2.32.41-.51,1.63-.67,2.09-1.65.41-.86.1-1.98.71-2.78.72-.94,5.83-3.27,7.01-4.49,2.22-2.28,4.34-3.81,6.25-5.75,1.45-1.48,1.86-3.76,3.77-4.72-2.77-2.47-3.49.37-4.49,1-2.4,1.5-2.56-1.53-1.54-2.93.36-.49,1.37-.36,1.8-.8.86-.86,1.34-2.51,2.59-2.92,2.87-.96.39,1.61,2.4,2.9,1.77-.59,2.3-2.61,2.29-4.25-.02-2.88.37-5.82,1.17-8.78,1.33-4.89,3.68-6.11,6.01-9.48.59-.85.6-1.91,1.29-2.71.65-.76,3.44-1.72,3.51-2.1.57-2.77-2.33-3.72-2.56-4.94-.35-1.84.98-2.58,1.07-3.99.09-1.43-.93-3.16-.54-4.75,1.62-.33,1.71,3.25,1.86,4.39.18,1.33-1.07,2.47.88,3.6,2.08-.99.71-3.93,1.47-5.02,1.88-2.72,14.21,5.78,17.27,5.53-1.3,3.43-3.77,6.66-3.84,10.36-.41,1.43-2.84,1.17-3.4,2.14-.09.15-.97,2.93-1.09,3.41-.91,3.53-.57,6.07-.66,9.34-.04,1.72-1.29,3.79-.04,5.53,2.57,3.56,3.9-.05,4.85-.22.73-.13,1.44.89,2.34.82,1.49-.1,3.03-2.24,4.31-2.67.48-.16,4.53-1.21,4.77-1.2.31,0,5.57,2.1,5.74,2.36.05.07.57,1.56.51,1.62-.24.25-5.87,1.2-6.82,1.34-1.67.24-3.4.3-5.46.63-1.96.32-3.36-.67-4.97,1.02-1.99,2.09,3.86,1.71,4.99,1.49,2.95-.56,5.61-1.92,9.49-2,7.85-.16,12.43.6,19.21,4.31.6.33.9,1.05,1.54,1.21.33-2.61-3.39-2.77-4.95-3.79-1.66-1.09-4.83-8.6-5.03-10.5-.53-5.17,7.6.66,10.01,1.52,1.49.53,3.04.57,4.46,1.03,2.08.69,14.61,5.04,15.5,4.24.14-.12-.5-1.44-.41-2.13.13-1.03,1.47-2.47,1.91-3.61,5.47-13.88-2.77-30.8-6.39-44.12-.43-1.59-.03-3.32-.77-5.23-.63-1.65-4.58-6.26-1.58-6.9ZM254.85,143c.15-.18,4.3,1.37,4.42,1.57.21.34.03.97.07,1.43-2.04-2.21-4.91,1.24-4.49-3ZM87.98,116.5c-.1-.08.73-2.26,1.5-1.49.47.48-.88,1.99-1.5,1.49ZM94.47,121c-.74.16-1.04-.22-1.49-.75l1.49-.24v.99ZM106.38,108.42c-1.47.85-2.67-.65-1.92-1.41.09-.09,1.93.06,2.5-.5.18.23-.41,1.82-.58,1.92ZM122.95,112.5c-1.42.12-2.87-.7-3.49-1.99,1.79-.07,3.86-.44,3.49,1.99ZM174.92,128.5h1.99c0,1.97-1.98,1.99-1.99,0ZM140.18,240c-2.09-1.7,2.19-3.26,3.75-3-.03,2.21-1.34,4.97-3.75,3ZM143.19,248.49c-.7,0-1.08-1.74,0-1.99,1.7-.39.87,1.98,0,1.99ZM260.33,204.52c1.21,1.45-1.84,2.31-2.98.72-.32-1.7,2.81-.92,2.98-.72Z"/>
  <path d="M116.72,184.98c-1.31-2.26-3.28-4.23-4.68-6.32-.98-1.45-1.26-3.28-2.31-4.69-2.71-3.64-12.54-4.7-13.7-8.83-.53-1.9,4.28-3.53,5.69-4.64.24-.19,2.61-2.64,2.68-2.82.61-1.8-1.54-3.3-.93-5.18-2.83.35-1.56,3.55-2.99,5.75-3.48,5.33-10.7,1.49-14.89,1.35-3.19-.11-4.87,4.46-6.39,6.36-1.56,1.96-5.34,4.32-4.5,7.06,2.89,3.32,4.62,7.19,8.32,9.7,5.15,3.49,3.24-2.13,4.44-2.99.2-.14,4.46-1.18,4.81-1.2,1.52-.07,7.56,2.04,9.48,2.45,1.2.26,7.29.22,4.48,2.53-2.04,1.68-3.51.47-5.48.47-2.15,0-8.79-.37-10.25.28-2.7,1.2,2.85,4.57,3.23,4.6.49.04,1.76-1.08,2.62-1.25,1.36-.27,2.73.01,4.17-.32,1.9-.44,3.31-2.27,5.7-2.29,1.01-.01,4.64.56,5.62.89,2.24.76,4.03,5.2,6.35,4.61,1.63-.41-.86-4.48-1.45-5.51ZM83.61,176.88l-2.63.12c-.6-5.22,3.1-1.55,5.99-2l-3.36,1.88ZM100.69,179.03c-2.4-.89-5.04-1.68-7.58-2.41-1.33-.38-3.69.55-3.63-1.61,1.48.12,3.19-.26,4.62.12.97.26,1.89,1.61,2.73,1.78,1.92.39,5.08-1.81,6.13,2.59-.95.23-1.5-.19-2.27-.47Z"/>
  <path d="M259.09,240.5c-1.5-1.09-1.59-2.47-2.4-3.35-2.86-3.09-5.64-2.14-8.97-2.77-1.2-.22-2.22-1.27-3.08-1.33-1.21-.08-5.6,1-7.09,1.38-1.05.27-9.97,2.73-8.68,4.55.13.19,3.6,2.41,3.83,2.43.83.07,1.57-1.18,2.52-1.33.95-.15,2.19.56,3.4.46,1.19-.1,1.89-1.1,2.99-1.1.77,0,3.76,1.48,5.23,1.82,3.27.74,11.48,2.35,14.31,1.29,2.2-.82-.97-1.26-2.06-2.05ZM248.85,237.5h-1.99v-.99h1.99v.99Z"/>
</svg>