<?xml version="1.0" encoding="UTF-8"?>
<svg id="Layer_1" data-name="Layer 1" xmlns="http://www.w3.org/2000/svg" viewBox="0 0 674.05 244.29">
  <path d="M247.27,18.7c.2.01.4-.02.6,0,.31,1.95,2.13,3.72,2.71,5.41.89,2.59.41,5.33.9,7.42.11.47,1.19.37,1.23.78.11,1.12-1.27,2.11.24,3.29,1.14.89,3.5-.45,5.32-.05.17.04,1.95,2.73,2.83,1.79.17-.18-.05-3.35,3.25-2.36.8.24.78,1.49,1.06,1.7.46.35,3.31-1.68,4.05.44,1.24,3.59-2.49,1.64-3.75,2.07-.84.29-.81,1.48-1.1,1.67-.36.23-5.62-.76-5.9-.51s.65,1.58.64,2.07c0,.38-1.34.27-1.25.62.26.96,1.7,3.59,2.41,4.52-.38,1.12.58,3.82.6,5.41,0,.12-1.05.91-.52,1.71.1.16,2.54,1.74,2.93,2.5.19,3.48,2.91,9.73,3.01,11.43.04.67-.06,1.84,0,3.01.05,1-.07,2.01,0,3.01.16,2.43-.73,1.28.6,4.21.69,1.52,2,3.02,2.41,4.21.89,2.59.08,6.21.7,8.03.29.85,2.86,1.92,3.51,3.4.24.55.56,2.86.6,3.61-2.29-.16-.79.57-.6,1.2.1.33-.09.86,0,1.2-3,1.95-.11,1.68,0,1.8.84.96,1,4.82,1.2,6.02,1.57,9.15,1.51,18.02,3.03,27.34.17,1.02,1.17,1.71,1.24,3.03.06,1.05-.73,2.44-.6,2.98.17.73,1.48.74,1.68,1.03.26.37-.65,1.31-.26,2.28.06.14,1.36,2.36,1.53,2.61,1.08,1.62,1.27-.61,1.78-1.09,1.78-1.66,3.54-3.24,5.08-5.15l6.35-9.89c1.82-1.2.99,2.25,3.63,1.51-4.08-3.68.25-5.62,2.07-8.45,9.98-15.57,24.28-35.99,29.36-53.06.95-3.19,3.02-6.43,1.06-10.07.48-1.4.4-3.38.6-4.81.12-.87.53-1.46.6-3.01.04-.94.09-2.1,0-3.01-.67-6.84-3.19-5.27-7.42-7.34-.93-.45-.89-1.67-1.39-1.74-.66-.1-1.87.84-2.02.67-.14-.16.33-1.37-.36-1.87-.8-.59-2.93,0-4.2-.42s-3.59-4.69-3.26.49c-2.43.94-3.66-1.61-5.14-1.83-1.88-.28-3.05,1.25-4.18,1.21-.77-.03-1.32-.85-1.97-1.02-1-.26-2.55.02-3.19-.42-.81-.56-.04-2.66-1.45-2.14-2.27.83-.79,3.42-.91,3.59-1.01,1.5-5.59-.77-6.83-.61-.24.03-.53,1.69-3.02,1.6-2.04-.07-5.57-3.25-1.58-2.8-2.79-7.58,5.91-2.41,9.45-2.56,8.18-.35,13.66-1.56,22.6.29,1.45.3,2.78,1.58,3.77,1.66.81.06,1.78-.62,2.33-.5.87.19,1.03,2.02,1.9,2.23.69.16,1.98-.82,3.43-.42.96.27,2.75,2.68,3.74,3.52s3.19,1.44,3.65,2.41c.42.88-.52,1.81-.29,2.64.22.78,1.63.74,1.79,1.39.31,1.25-.99,3.86-.62,4.36.18.24,2.2.42,2.37.67.34.47-1.31,5.95-1.18,7.18l2.4-.6c-.52,1.43-.44,2.79-.6,4.21-.1.91-.6,1.71-.6,1.8-2.37-.51-1.31,2.17-3.6.6-.38,3.94,1.15,9.44-1.15,12.89-.56.85-2.56-.46-1.8,1.8.22.64,1.06.82,1.13.95,1.38,2.71-.18,2.59-.45,4.07-.43,2.34-.08,4.58-1.39,6.87-.4.7-1.28.8-1.71,1.44-.52.77-.44,2.15-.8,2.52-.47.48-2.44.34-2.8.83s.07,1.71-.08,2.32c-.66,2.77-1.79,1.65-3.04,2.83-1.14,1.09-2.14,3.99-2.38,5.59-.06.38.04.81,0,1.2s.04.81,0,1.2c-.56.03-.92.52-1.2.6-2.75.82-1.46,1-1.8,1.2-.36.21-2.22-.22-2.41,0-.15.16.16,1.86,0,2.59-.08.35-4.23,4.81-4.5,5.25-.54.9-1.14,5.88-2.88,7.09-.4.28-1.4,0-1.56.17-.42.46.29,2.4-.16,2.9-.21.24-1.6.02-2.06.62-.7.92.09,3.11-.36,3.6-.16.17-2.92,1.14-3.87,2.4s-.73,2.52-1.42,3.42c-.39.52-1.42.61-1.68,1-.15.23-1.33,4.75-1.36,5.26-.02.31-.05,1.16,0,1.2-2.61-.26-1.51.2-1.8,1.8-.37,2.04-1.18,1.24-2.41,2.41-1.08-.2-1.4.13-1.2,1.2-1.26,1.06-.99,3.15-1.33,3.51-.27.28-1.34-.13-1.74.45-.35.51-.2,1.66-.55,2.18-1.59,2.33-5.57,4.67-3.01,7.39-2,3.55-.61,2.56-.04,3.77.46.97.29,8.6-.03,9.09-.25.38-1.79.25-2.21.84-.61.86.96,2.01-2.23,1.67-3.55-.37-3.51-4.41-4.88-4.81-.62-.18-3.6,1.42-4.08,1.84-.86.77-1.73,1.77-2.79,2.75-1.85,1.71-5.81,6.96-7.48,8.09-1.08.74-2.02-.14-2.1-.07s-.14,1.42-.59,2.12c-1.49,2.29-2.92,4.48-6.05,3.89-.26.24,1.52,2.01-.8,3.41-1.42.86-1.39-.87-2.82,2-.8-.05-1.61.07-2.41,0-1.8-.16-3.55-.88-5.41-.6-.09-.34-3.38-2.98-3.53-4.62-.05-.51,1.84-2.97,2.33-3.5,4.12-4.41,10.13-6.57,14.46-10.2,3.68-3.09,11.74-10.63,14.66-14.22,7.17-8.84,3.33-16.38,1.96-26.51-2.76-20.36-5.76-38.16-10.63-58.26-.16-.67.16-1.74,0-2.41-.43-1.75-1.26-3.15-1.66-4.66s.45-5.14-1.95-4.97c0-.2,0-.4,0-.6-.01-.67,1.03-2.19-.01-3.6-.38,0-.83-.08-1.19,0,.06-.38-.08-.86,0-1.2,1.23-5.03-1.68-10.63-4.21-15.04.04-.39,0-.81,0-1.2-.02-1.24-.26-2.71-1.2-3.61-.05-.39.08-.86,0-1.2-.37-1.61-2.61-3.05-1.81-5.42-3.96-.23-8.66,4.76-7.2-2.69.54-2.73,3.17-2.13,5.4-2.13-.74-.91-.32-2.93-.76-3.48-.24-.3-1-.07-1.04-.13-1.35-1.81-2.83-8.98-3.01-11.43-.06-.79.03-1.61,0-2.41,2.06,1.06,4.4.47,6.61.6ZM256.89,42.77c-.24-1.63,1.64-3.86-.89-4.21-2.21,1.52-2.27,4.56.89,4.21Z"/>
  <path d="M372.4,70.44c1.1-2.77-.29-1.29-.57-2.19-.15-.49.38-3.86-.04-4.43-2.74,1.3-1.33.11-1.86-.68-.36-.54-1.05-.63-1.13-.95-.13-.56-.48-4.24-.46-4.82.06-1.52,2.68-3.76,2.84-5.3.19-1.91-3.15-7.12.94-7.51,3.41-.32,5.34,4.17,6.55,4.22l12.1-4.17c7.92-.84,14.88-1.69,22.8-1.26,3.58.2,7.16,3.58,5.44,7.25-.74,1.57-3.21,1.41-3.76,1.96-.32.32-.27,1.45-1.02,2.27-.53.57-6.05,4.76-5,1.63.77-2.29,4.31-4.96,1.97-7.08-1.48-1.34-3.73-.31-5.43-.13-.54.06-1.34-.48-1.75-.37-1.11.29-.72,2.42-1.91,2.8-.35.11-1.57-.33-2.53-.12-1.39.31-3.1,1.09-4.12,1.24-1.89.27-7.39-.08-8.81.31-.7.19-3.93,2.98-3.91,3.89,0,.23,1.21,3.84,1.43,4.37.7,1.72,2.49,3.84,3.12,5.31.7,1.65-.95,5.35,4.14,3.27.69-.28,1.23-2.2,2.01-1.3.23.26-1.54,3.03.38,3.56.6.16,6.04-1.34,7.22-1.66s2.69-.94,4.58-1.45c4.14-1.12,8.08-3.28,12.49-1.95.2,4.55-5.76,3.15-7.44,5.05-.7.79-.15,1.67-.52,2.31-.11.2-3.27,2.76-3.48,2.85-1.4.62-2.93.05-4.35.46-3.55,1.04-6.77,4.69-10.68,4.06.45,3.75,3.01,6.25,1.2,10.22,3.74-.81,1.08,6.01,1.22,8.1.22,3.23,2.42,8.95,2.95,12.09.56,3.31-.9,3.18.57,6.17,2.26,4.62,1.35,8.2,3.07,12.74-2.86-.48-8.42,2.87-9.91-.61-.6-1.38-.08-2.57-.33-3.78-.33-1.57-2.81-7.12-3.46-9.89-2.53-10.82-2.42-22.73-5.22-33.27-.69-2.6-2.63-5.77-2.24-9.21l-2.9-2.8c1.35,2.83-.29,2.08-.57,2.84s.03,4.12-2.05,3.72c-.14-.03-2.14-1.62-2.19-1.75-.23-.64.07-2.63,0-3.61l.6-1.2c.13-.12-.12-.89,0-1.2Z"/>
  <path d="M341.72,158.27c.62-.66,1.66.34,1.2,1.2-.21.03-.56-.06-.6,0l-.6-.31c.07-.33-.1-.79,0-.9Z"/>
  <path d="M347.73,143.23c-3.49-.61-.45,1.79-1.45,3.04-.65.81-2.08.19-2.81.95-.84.87-1.57,4.85-.17,5.07.47.07,8.19-1.16,9.4-1.39,13.64-2.65,27.03-7.14,41.06-8.27,4.54-.36,10.06.59,14.39-.05,9.3-1.37,19.03-3.32,28.38-4.71,17.34-2.59,33.45-6.12,50.4-10.36,14.19-3.55,28.21-8.48,43.35-8.99,2.01-.07,5.75.62,7.86.53,5.69-.24,2.01-3.33,1.19-5.91-7.44-23.5-16.68-47.63-15.37-72.51.45-8.56,1.92-9.98,4.57-17.09.34-.91.17-2.92.28-3.03.2-.2,1.6.25,2.26-.13.42-.24.77-1.93,1.3-2.46,2.56-2.57,6.85-5.17,9.62-7.38,5.04-4.03,5.62-5.91,12.67-7.79,2.93-.78,24.19-3.18,26.07-2.7.57.15.04,2,2.81.59-.6,3.51,2.31,1.02,3.85,1.34.75.15,1.21,1.4,1.99,1.58s1.68-.54,2.25-.42c.64.14.7,1.33,1.4,1.7,1.18.64,3.17.34,4.46.8,2.03.71,3.47,1.87,5.16,2.68.63.3,1.75-.09,2.41.27.45.25,1.5,2.91,2.11,3.3.95.61,3.12.32,4.17.8,1.27.58,3.43,3.58,4.35,4.22,1.98,1.36,3.87,1.18,6.44,3.19,2.86,2.23,7.08,5.84,9.52,8.5,1.83,1.98,3.94,2.57,5.18,3.87s2.05,5.34,2.63,5.82c.68.56,2.6-.75,3.01-.34.1.1-.06,1.17.36,1.72,1.44,1.9,4.62,2.82,4.79,3.05,2.08,2.86,3.13,5.21,5.9,8.24,3.47,3.79,6.95,7.1,10.62,10.74,4.6,4.57,6.15,10.75,7.24,16.82.33,1.86,2.21,5.62,2.4,6.66,1.61,9.09-4.52,27.74-9.28,35.83-1.33,2.26-3.82,4.59-4.22,5.38-1.89,3.66-1.63,6.27-5.36,10-.71.7-2.65,1.32-2.77,1.49-.26.38.86,1.61.29,2.91-.42.96-8.69,9.99-9.97,11.13-6.54,5.82-23.31,16.65-31.6,18.94-3.08.85-6.83.66-9.45,1.38-1.05.29-1.72,1.55-3.17,1.65-5.72.39-13.94-1.46-19.86-1.13-.9.05-1.44,1.03-2.34,1.09-2.66.18-8.2-.9-10.37-1.36-3.81-.81,1.22-8.24,4.35-8.21,1.8.02,1.57,2.41,2.21,2.88,2.58,1.89,13.5-.15,17.02-.46,8.42-.74,16.34-.65,24.17-4.71,21.54-11.17,31.7-19.45,43-41.22,4.06-7.83,9.47-23.92,8.91-32.58-.31-4.75-4.49-18.46-7.43-21.78-3.24-3.66-8.49-7.99-11.02-11.59-5.39-7.66-14.27-16.13-20.78-22.14-.26-.24-5.69-1.79-6.67-2.54-.7-.53-.26-1.45-.51-1.69-.38-.36-1.65.03-2.32-.41s-.61-1.83-1.16-2.48c-.62-.72-6.47-4.77-7.73-5.5-5.48-3.15-7.98-4.22-13.21-8.01-3.01-2.19-5.36-1.99-8.69-3.66-.48-.24-.52-1.08-.91-1.15-1.04-.18-3.42.96-3.79.62-.14-.13-.28-3.46-1.5-3.55-.16-.01-1.69,1.05-3,1.16-9.13.73-15.01-1.39-23.94,2.53-2.54,1.11-5.52,4.85-7.96,6.48l-.3-1.2h-.59c.23,1.66-1.57,1.29-2.24,1.97-1.28,1.31-4.44,6.53-5.62,8.52-.53.89-.46,2.23-.87,2.76-.53.69-1.81.42-2.02.66-.36.4-1.37,9.35-1.31,10.42.02.37,1.22.3,1.25.68.16,1.84-1.52,6.91-1.28,9.59.4,4.55,1.78,7.87,1.86,13.18,0,.32.98.18,1.27,1.22,1.46,5.33,1.56,13.26,3.12,17.92.47,1.4,1.91,2.25,2.21,3.8.39,2.01-.1,4.95.77,7.05.6,1.45,1.89,1.27,2.25,2.11,1.67,3.93,1.56,8.19,3.82,12.3,1.74,3.18,1.04,5.35,2.05,7.56s7.18,9.51,9.21,11.81c.63.71,2.27,1.16,2.71,2.17,1.22,2.79-5.66,4.48-7.8,4.17-1.19-.17-4.6-2.65-5.49-3.57-.79-.82-.73-2.06-1-2.3-.5-.44-11.67-3.05-12.87-3.07-1.46-.02-12.24.39-13.15.57-1.52.29-4.12,2.29-6.2,2.81-2.62.66-5.34.31-8.08.94-7.86,1.81-16.42,5.43-24.61,7.9-5.8,1.75-11.04,2.17-16.78,4.56-.87.36-1.41.59-2.41.6-3.75.04-4.19-.4-8.03,1.79-.51.29-.36,1.17-.41,1.21-2,1.52-.47-2.28-.59-2.39-3.07-.18-5.78,2-8.39,2.74-1.96.56-5.26.38-6.86.98-.79.29-1.28,2.73-2.8,1.69-.1-.07.1-2.21.17-2.31.21-.29,1.34.4,1.04-.99-.43-1.95-2.59,1.35-2.78,1.41-1.81.58-3.1-.89-4.14,1.89l-.31-1.8c-3.98-.33-7.65,2.17-11.15,2.97-1.32.3-5.23.91-6.72,1.12s-7.14-1.38-7.38-1.09c-.18.21.23,1.95-.97,2.38-1.59.57-2.69-1.25-3.47-1.12-.6.1-1.14,1.51-2.51,1.75s-4.91-.8-5.09-.61c-.22.23.42,1.63-.33,1.85-.34.1-6.22.1-6.56,0-.52-.15-.18-3.22-1.52-1.85-.49.5.09,3.45-3.29,3.65-.19.01-5.09-1.25-2.73.56-.1-.1-.89.17-1.13-.09-.4-.44,1.54-2.86-.36-2.31-2.4.71-1.93,2.8-2.13,3-.07.07-1.12-.66-1.93-.48-4.89,1.03-5.02,1.4-10.33,1.74-1.35.09-3.82,1.21-4.81,1.01-1.55-.3-.92-2.74-2.77-2.27l.6,3c-1.22.3-2.15-1.32-3.22-1.11-.88.17-1.57,1.95-2.63,2.23-1.82.49-6.09-2.01-7.28-.97-.28.24-.04,1-.11,1.06-.13.11-2.94.62-3.28.59-1.41-.13-7.35-4.86-6.04-.6-2.49-1.83-.93-5.28.62-7.18,1.41-1.73,3.98-2.11,4.77-3.05.67-.8.52-2.26.92-2.99.34-.63,2.81-4.6,3.01-4.81.8-.85,3.78-2.36,4.84-3.28,2.44-2.1,4.93-4.49,7-6.96,4.98-.34-.11,3.34-.39,4.1-.22.61.12,1.66-.02,1.93-.06.12-.31-.61-1.2,1.8-.12.33-.45.65-.6,1.2-.06.2.07.45,0,.6-.79.1-1.38.7-2.13.89-1.16.29-1.35-1.31-1.48.92-.03.59-.03,1.21,0,1.8Z"/>
  <path d="M46.95,95.71c1.21-1.46,2.53-2.95,3.62-4.5.61-.87.48-2,.93-2.68.49-.74,1.68-.9,2.34-1.87,1.27-1.86-.25-8.13-1.05-10.32-.46-1.28-1.81-2.26-2.08-3.33-.69-2.65-.13-6.52-1.05-9.78-.62-2.22-2.85-4.92-3.18-6.44-.59-2.68-.06-7.4-.83-9.99-.38-1.29-2-1.39-2.57-2.25-1.03-1.57-2.22-8.68-3.5-10.64-.3-.46-1.57-.57-1.98-1.36-.33-.64.28-1.6.04-2.41-.35-1.2-2.81-7.65-2.72-8.11.46-2.54,5.82,1.24,6.88,2.73,1.25,1.76,1.31,5.16,3.35,5.37.18.61.44,1.16.6,1.8.56,2.21.69,5.41,1.18,7.45.18.76,1.04.24,1.23.37.38.27.49.77.6,1.2.68,2.66.97,7.59,3.07,9.29.56.45,2.73.14,1.73,1.53-.04.06-1.01-.22-1.19.41s-.36,2.81-.43,3.69c-.09,1.15-.88,2.2,1.03,1.92-.03.19,0,.41,0,.6-.1,4.23,1.64,5.4,2.7,8.43.86,2.45.83,9.7,5.1,6.31.7-.56,3.99-6.42,5.19-8.06,2.52-3.43,3.72-4.76,5.8-8.32.4-.68,3.35-1.61,3.94-3,.53-1.25.43-3.53.93-5.09.67-2.1,3.03-4.01,1.36-5.95-.16-.18-4.17-2.61-1.69-2.95,2.9-.4.58-2.94,1.34-3.62.18-.16,1.39.18,1.94-.02.61-.22.41-1.04,1.62-1.51.74-.28,3.6-.87,4.25-.6.39.16,3.47,4,3.56,4.36.29,1.14-2.74,7.56-3.36,9.07-.97,2.35.23,4.43-3.19,3.73-.25.21.59,1.62.58,2.19-.01,3.45-8.51,10.12-9.61,15.25-1.31,6.11-1.79,5.2-4.73,10.01-.8,1.3-1.02,3.44-1.87,4.59-.54.73-1.82.94-2.17,1.64-.44.85.59,2.17.35,2.41-.33.33-2.52-.64-2.47,2.12.02,1.27,1.05,1.98,1.23,3.03.33,1.88-.27,4.06.06,5.95.28,1.59,2.15,4.3,2.71,6.31,1.94,6.99,2.76,18.88,7.48,24.4,1.72,2.01.21-.65,3.23-.26,5.36.69,7.62,3.77,11.08,5.32,16.28,7.31,31.96,12.09,49.01,17.53,3.43,1.09,6.6,1.41,10.32,2.42,2.02.55,3.53,2.14,6.16,2.32,1.52.1,2.89-.64,3.47-.59.48.04.47,1.16.97,1.49.23.15,4.87,2.12,5.14,2.15,1.08.14,4.11-1.02,4.47-.61.11.12-.14,1.38.11,2,.44,1.09,2.89.9,1.39,3.41s-4.04,1.2-6.01,1.2c-3.37,0-3.21-.16-6.32-.59.27-3.17-2.34-2.8-4.21-3.61-1.66-.72-2.29-1.43-4.81-1.8-.42-.7-1.6-.96-1.8,0-.54-.11-1.28.12-1.8,0-.35-.08-1.16-.42-1.8-.6-17.36-4.76-36.11-9.85-52.46-17.62-4.75-2.25-4.34-2.22-9.53-3.71-1.67-.48-7.5-5.21-8.39-4.53.41.89,1.11,1.5,1.41,2.49,2.32,7.71,3.26,15.65,4.14,23.47.33,2.9,2.09,4.39,2.29,5.61.21,1.3-1.53.49-1.15,1.71s2.77,4.58,2.81,5.02c.14,1.56-.89,3.51-.52,5.28.15.71,1.74-.07,1.89.65.54,2.78-.79,6.91.37,9.77.31.78,1.44.48,1.46,1.61.05,3.13-.46,6.04-.57,9.02-.03.73.75,5.5,1.11,5.73-1.44,2.3.75,5.47.63,6.88-.03.36-1.23.31-1.26.68-.03.41.47,3.25,1.83,2.67-.02.4.03.81,0,1.2-.15,1.91-1.89,5.62,1.2,4.81.24,1.19-1.03,1.43-1.06,2.56-.04,2.01,1.18,5.68.99,8-.15,1.77-2.79,1.8-1.13,4.65.28.48,1.05.32,1.52,1.58.93,2.55.38,5.27.88,7.86h-3c1.56-2.97-.49-2.97-.6-3.41-.31-1.25.19-3.05-.01-4.41-.15-.17-3.8,1.53-4.2-.31-.46-2.07,4.55-1.1,3.6-3.59-.84-2.2-3.19,1.07-4.2.29-.93-.72,1.24-4.96,1.07-6.78-.1-1.08-1.73-6.01-3.48-5.85-.08-.79.05-1.61,0-2.41-.08-1.27-.67-7.1-.56-7.46.26-.9,1.64-.83,1.76-.97.59-.68-2.3-3.01-2.35-3.39-.23-1.49.22-4.57-.1-6.48-.36-2.17-1.63-4.38-1.76-6.66l3.01-1.2c-4.19-1.55-1.7-1.98-1.42-4.91.36-3.82-3.25-7.4-3.84-12.1-.36-2.84.38-7.05-.28-9.34-.25-.88-1.75-2.02-2.3-3.11-1.58-3.09-.72-6.86-.65-10.21-4.86-1.65-1.75-5.79-1.78-8.48-.02-1.72-2.47-3.41-2.39-4.79.02-.29,1.23-.28,1.26-.64.04-.58-1.17-5.8-1.56-6.27-.49-.6-1.39-.52-1.47-.61-.08-.09.07-.76-.2-.98-3.01-2.45-6.42-2.09-9.55-3.88-.7-.4-.2-1.53-1.37-1.15-2.62,5.95-8.82-5.78-12.8-2.27-.57.51-.38,1.93-.95,2.68-.48.63-3.09,2.44-3.26,2.76-.39.74.01,2.08-.15,2.25-.23.23-1.92-.29-2.35.06-.17.14-.35,2.97-1.51,4.21-1.24,1.32-3.22,1.06-3.72,1.73-.44.59.54,1.72.09,2.42-.26.41-1.27.61-1.77,1.31-1.16,1.61-2.3,5.04-3.34,6.09-1.73,1.74-7.29,6.6-8.47,8.54-1.27,2.1-1.7,9.89-5.99,7.84-2.24-1.07-.4-2.17-.23-3.13.54-3.09.72-2.3,1.87-4.88.79-1.78-1.03-2.45,2.57-1.33-.06-1.96-2.37-2.06-1.72-4.38.84-2.98,4.12-.22,5.06-1.61.86-1.28-.58-2.9-.3-3.87.08-.29,3.75-2.23,4.46-3.94.39-.94-.89-2.03.92-4.24,3.06-3.76,5.19-6.29,7.82-10.83.25-.44.42-.9.6-1.2,1.08-1.81,3.33-2.41,4.04-3.18,2-2.15,2.22-8.19,6.18-8.86-.2-1.43-1.79-.92-2.4-1.2-.2-.09-.38-.49-.6-.6.14-1.28.07-1.35-1.2-1.2-.1-.11-.85.08-1.2,0-.58-6.51,2.79-.65,5.79-.07,1.55.3.61-1.56.83-2.34.2,0,.41.02.6,0,3.78-.47,1.54-1.11,1.89-2.58.31-1.32,2.98-2.3,3.53-6.44.05-.39-.05-.81,0-1.2ZM62.49,120.48c-.13-.21-1.08-.21-1.57-1.12-.78-1.47-4.27-16.88-4.13-18.45.06-.7,2.19-4.41-1.08-3.37-1.21.39-1.28,3.55-1.88,4.74s-2.46,2.7-3.37,4.45-2.63,9.02-3.01,9.33c-.62.5-3.53-.23-3.45,2.74.44,1.95,8.19,1.89,10.21,2.44s5.57,3.39,7.69,2.05c.3-.19.9-2.29.59-2.81Z"/>
  <path d="M166.66,80.06c.4,0,.8,0,1.2,0,.52.01,1.7,0,1.8,0,.39.04.82-.06,1.2,0,2.4.35,8.05,2.88,10.23,4.21.38.23,1.43.94,1.8,1.2,2.3,1.64,3.83,4.17,5.63,5.8,1.51,1.37,5.02,3.1,6.08,4.45.74.95.81,2.69,1.03,2.88.44.36,2.06-.15,2.65.66.68.93.06,3.6.26,4.86.52-.39,1.47-.41,1.8-.6.08.63-.25,1.92.09,2.33.23.28.86-.01,1.12.07.31.11.71.62,1.2.6-.13,1.42,1.11,1.59,1.2,1.8.18.42.54,1.01.6,1.2.1.32-.1.87,0,1.2.37,1.27.82,2.79,1.04,4.07.36,2.11-1.35,4.71,2.57,4.95.03.43.84,1.24.57,2.04s-1.74.76-1.82,1.36c-.28,1.96.78,4.66-.68,7.63-.42.86-1.55.88-1.69,1.43-.35,1.35.27,3.45-.11,5.17-.14.64-3.59,6.92-4.06,7.37-.28.27-4.85,3.21-5.15,3.27-3.5.69-12.59-.73-8.91-5.85.78-1.09,1.67-.73,2.26-1.37,3.9-4.32,7.16-12.68,7.55-18.4.69-10.26-14.48-32.58-24.51-35.56-1.39-.41-4.87-.98-5.36.6-.89,2.84.84,9.05.45,12.2-.16,1.26-1.16,2.17-1.13,2.87.04.76,1.8,4.52,2.13,6.28.57,3.06-.27,7.73.16,9.33.15.59,1.33.7,1.75,1.37.95,1.51.56,3.9,1.27,5.22.38.7,1.57.76,1.71,1.39.52,2.33-.43,5.14,1.33,8.8.4.83,1.5.77,1.66,1.44.13.54-.67,1.53-.25,2.08s1.81.47,2.45,1.2c.21.24,2.59,4.67,2.99,5.43,1.06,2.04-.19,3.9,3.44,4.98,2.56.77,6.45-.6,5.21,3.58-1.61,5.41-10.51,1.84-13.43-.77-7.11-6.34-14.39-27.95-15.93-37.31-.27-1.63-.88-1.13-1.8-2.41.1-.25-.04-.82,0-1.2.22-2.06-.44-2.91-.6-4.21-.18-1.46-.25-2.14-.6-3.61-.14-.58.22-1.42-.6-1.8.16-2.77-1.15-7.08-1.2-9.93-.03-1.87.6-4.52.6-6.92,1.37.27,2.18-2.46,2.41-3.61.49.06,1.03-.07,1.2-.6,1.29,0,2.7-1.12,3.61-1.2,1.01-.09,2.5.03,3.61,0Z"/>
  <path d="M220.8,42.77c-.2.05-.43-.06-.6,0-.9-4.52-4.08,1.16-4.81.6-.23-.67-.34-3.95-1.8-2.99-.08.06-1.16,1.55-1.19,1.64-.24.69.24,1.84-.12,2.46-.13.22-4.07,1.84-4.72,1.9-.39.03-.81,0-1.2,0-.13,0-.86-.85-2.01-.63-.2.04-1.08,1.91-3.18,2.25-1.9.3-.78-.86-3.23.79-.46.31-1.57.92-1.8,1.2l-1.2.6c-.33-.1-.88.1-1.2,0-.06-.02-.77-1-1.2-.6-.13.13.13,1.07,0,1.2-.14.14-1.33-.11-1.8,0-.22-.41-1.12-.49-1.2-.6-.27-.36-.08-1.66-1.2-1.8-.04-.09-.45.08-.6,0-2.97-8.62,9.28-4.4,12.49-9.61,7.38-1.65,14.84-2.19,22.43-1.56,1.18,3.29,1.4,4.37-1.84,5.15Z"/>
  <path d="M.62,99.92c-.18-1.39-.75-5.24-.6-6.27.23-1.52,1.88-2.78,2.67-4.02.41-.64.13-1.81.47-2.21.49-.58,5.48-3.72,6.29-4.53,1.64-1.64,1.59-7.36,5.01-5.53-.92,1.65-.73,4.45-1.34,5.9-.18.44-1.05,1.07-1.68,2.21s-.66,1.23-1.2,2.41c-.1.23-.55,1.16-.6,1.2-1.57,1.49-1.02.13-2.41,3.01-2.83-.55-1.26,1.08-2.11,2.41-.32.5-1.42.37-1.56,1-.15.68.64,1.23.66,1.4.19,1.38,0,1.48.6,3.01.1.26-.1.83,0,1.2.82.4,1.64-.59,1.81-.6.99-.07,2.01.01,3.01,0l2.4,3-4.21,1.21c-1.39-.06-4.94-.54-6.02-1.2.62-1.59,1.02-2.93-1.2-3.01-.02-.2.03-.4,0-.6Z"/>
  <path d="M36.12,149.25c.24.21.29.97.99,1.12,1.64.35,4.1-2.15,3.87,2.19s-4.13,0-6.84.77c-2.91-1.85-3.85-5.6-3.43-8.89l3,1.8c.63,1.24,1.36,2.09,2.41,3.01Z"/>
  <path d="M372.4,71.64l-.6,1.2c0-.07-.98-.81-.6-1.2.13-.14,1.04.13,1.2,0Z"/>
  <path d="M268.62,43.37c.39.2.39.4,0,.6v-.6Z"/>
  <path d="M201.55,105.93c2.86-1.65,1.26,0,1.2.6-.49.01-.89-.5-1.2-.6Z"/>
  <path d="M19.88,78.86c-1.53,1-3.44-1.03-3.63-2.76-.04-.34,3.46-4.82,3.92-5.52,1.61,1.07,3.21,1.25,5.12,1.07l-3.85,4.26c-.78.4-1.42,2.86-1.56,2.95Z"/>
  <path d="M72.81,43.37c-2.22-.03-4.5-.39-6.25,1.27-.95.9-.94,2.06-1.6,2.61-1.5,1.27-3.3-.02-1.78,3.93-.48.46-8.29-2.84-6.28-4.82,2.25.46,4.89-.66,6.68-2,.77-.58.95-2.25,2.43-2.68s7.14-.83,6.79,1.68Z"/>
  <path d="M238.14,38.47c-.11.18-1.08.23-1.38.69-.49.77-.03,1.94-.68,2.47-1.08.87-2.96-.26-4.06-.09-.49.07-.12,1.28-1.27,1.29-2.97.03-2.09-3.12-2.81-3.59s-3.13.21-3.53-.08c-1.4-1.05,2.24-1.67,2.77-1.73,2.58-.31,6.93.27,8.88-.04.45-.07.3-2.63,2.17-.33-.03.48.17.96-.1,1.41Z"/>
</svg>