<?xml version="1.0" encoding="UTF-8"?>
<svg id="Layer_1" data-name="Layer 1" xmlns="http://www.w3.org/2000/svg" viewBox="0 0 243.03 420.84">
  <defs>
    <style>
      .cls-1 {
        fill: #fff;
        stroke: #000;
        stroke-miterlimit: 10;
        stroke-width: 3px;
      }
    </style>
  </defs>
  <path class="cls-1" d="M222.85,77.12c-23.24-11.03-50.99-9.82-73.87,1.15-6.04,2.9-25.34,16.76-29.15,16.92-2.33.1-4.37-.79-6.47-1.58-3.29-1.25-18.12-12.42-16.01-15.47.17-.25,4.3-1.13,5.68-1.84,24.07-12.44,55.61-32.96,63.6-60.4,1.68-5.78,3.77-15.29-5.33-14.35-6.08.63-16.08,11.39-21.64,15.38-15.76,11.33-50.73,25.79-69.96,27.08-6.39.43-14.2-4.88-20.84-6.92-13.37-4.09-30.27-6.05-47.35-5.98v388.19c10.95-.02,21.84-1.78,28.37-5.17,5.38-2.79,10.25-9.88,13.52-11.48,7.4-3.61,18.54.31,26.48-7.52,10.53-10.38,2.81-22.97,1.57-34.64-3.33-31.23,18.23-49.53,24.43-78.36,3.13-14.55,2.81-30.09,5.74-44.26,1.82-8.8,7.03-16.99,9.23-25.77,2.69-10.73,2.88-22.5,2.53-33.55-.1-3.21-2.53-19.26-1.62-20.52,3.3-4.54,15.42,7.43,19.56,9.58,29.37,15.2,61.27.92,84.03-19,21.16-18.53,42.68-54.82,7.5-71.53Z"/>
</svg>