<?xml version="1.0" encoding="UTF-8"?>
<svg id="Layer_1" data-name="Layer 1" xmlns="http://www.w3.org/2000/svg" viewBox="0 0 918.31 667.44">
  <defs>
    <style>
      .cls-1 {
        fill: none;
        stroke: #000;
        stroke-linecap: round;
        stroke-linejoin: round;
        stroke-width: 2px;
      }
    </style>
  </defs>
  <path class="cls-1" d="M705.69,320.61c13.98,23.94,27.96,47.89,42.52,72.82-3.93.97-6.27,1.55-8.21,2.03-12.29-21.31-24.29-42.12-36.29-62.94"/>
  <path class="cls-1" d="M355.83,467.61c.45,2.63.91,5.26,1.5,8.72-19.17,7.4-38.18,14.7-57.16,22.09-9.97,3.88-19.88,7.93-29.82,11.9"/>
  <path class="cls-1" d="M623.2,429.87c-4.55,8.24-14.03,7.19-21.04,10.58-14.69,7.1-30.31,12.27-45.55,18.23"/>
  <path class="cls-1" d="M545.67,482.51c-22.2,8.61-44.4,17.22-66.59,25.82"/>
  <path class="cls-1" d="M394.59,542.11c-20.87,8.28-41.75,16.53-62.6,24.88-1.48.6-2.67,1.93-4,2.93"/>
  <path class="cls-1" d="M470.13,492.44c-21.87,8.61-43.73,17.22-65.6,25.82"/>
  <path class="cls-1" d="M217.68,416.95c-4.42,8.95,5.12,11.78,8.36,16.61,9.44,14.02,20.86,26.71,31.32,40.06,1.5,1.92,2.06,4.58,3.05,6.9"/>
  <path class="cls-1" d="M549.65,460.66c-19.88,7.95-39.76,15.89-59.64,23.84"/>
  <path class="cls-1" d="M150.09,315.64c-3.35.84-6.71,1.67-11.9,2.97,2.8,3.62,4.97,6.21,6.91,8.96,10.31,14.54,20.56,29.12,30.83,43.69"/>
  <path class="cls-1" d="M592.38,9.71c-.37-2.6-.75-5.2-1.12-7.8l1.91-.91c18.29,19.13,36.58,38.26,54.87,57.38"/>
  <path class="cls-1" d="M418.45,502.37c-19.22,7.28-38.43,14.57-57.65,21.85"/>
  <path class="cls-1" d="M846.83,239.16c13.1,8.53,16.43,24.87,26.15,36.1.89-.47,1.78-.93,2.67-1.4v15.95"/>
  <path class="cls-1" d="M580.46,191.48v-29.09c-18.03,2.79-35.65,9.77-53.67,15.19"/>
  <path class="cls-1" d="M476.09,230.22v12.61c-12.92,3.95-24.78,7.85-36.82,11.08-3.69.99-7.88.15-12.88.15,1.08.72,2.03,1.35,2.98,1.99"/>
  <path class="cls-1" d="M712.65,311.67h-9.24c-1.53,9.24-3.07,18.53-4.39,26.48,10.84,19.59,21.18,38.27,31.52,56.96"/>
  <path class="cls-1" d="M518.83,210.35c-.51-5.61-1.02-11.23-1.62-17.86-14.03,1.93-28.56,3.94-43.1,5.94"/>
  <path class="cls-1" d="M315.08,458.67c-13.25,4.64-26.65,8.92-39.67,14.11-4.17,1.66-7.37,5.75-11.02,8.73"/>
  <path class="cls-1" d="M220.66,455.69c12.88,16.58,25.77,33.17,40.3,51.86-.25-5.2.77-9.08-.72-11-12.6-16.14-25.66-31.93-38.58-47.82"/>
  <path class="cls-1" d="M605.3,458.67c-16.9,6.62-33.79,13.24-50.69,19.87"/>
  <path class="cls-1" d="M265.38,504.36c2.98,3.97,6,7.92,8.94,11.92,9.96,13.56,19.81,27.2,29.91,40.65,1.35,1.8,3.89,2.71,5.88,4.04"/>
  <path class="cls-1" d="M104.37,287.83c.99,2.32,1.61,4.9,3.04,6.91,10.16,14.32,20.48,28.52,30.75,42.75"/>
  <path class="cls-1" d="M224.63,445.76c-.99.66-1.99,1.32-4.11,2.73-1.15-5.45-2.19-10.4-2.72-12.94-10.47-24.65-30.68-40.25-42.75-61.67.74-.76,1.48-1.52,2.22-2.28,2.87,2.87,6,5.52,8.55,8.65,7.76,9.49,15.37,19.1,22.86,28.8,2.25,2.91,5.48,6.11,1.04,9.9"/>
  <path class="cls-1" d="M66.6,224.26c11.84,15.48,24.2,30.39,34.37,47.33,9.42,15.69,23.7,28.46,34.32,43.24.96,4.24,1.92,8.48,2.87,12.73"/>
  <path class="cls-1" d="M70.57,252.07c8.61,11.92,17.09,23.94,25.87,35.73,14.13,18.96,28.53,37.72,42.59,56.73,1.23,1.66.78,4.55,1.11,6.87"/>
  <path class="cls-1" d="M472.12,512.31c-10.93,3.97-21.88,7.9-32.79,11.94-5.02,1.86-9.95,3.95-14.92,5.94"/>
  <path class="cls-1" d="M551.63,303.72c-14.58,5.3-29.15,10.6-43.74,15.88-.29.11-.85.14-.96,0-.41-.61-.7-1.3-1.03-1.96"/>
  <path class="cls-1" d="M356.82,452.71c-2.65,1.32-5.22,2.85-7.97,3.94-11.89,4.72-23.84,9.31-35.77,13.94"/>
  <path class="cls-1" d="M269.36,410.99c-14.58,4.64-29.16,9.27-43.73,13.91"/>
  <path class="cls-1" d="M142.14,336.5c.66,2.65.6,5.84,2.11,7.86,9.16,12.27,18.67,24.26,28.18,36.48,1.1-2.01,1.81-3.31,2.52-4.61"/>
  <path class="cls-1" d="M177.92,398.08c11.93,15.56,23.85,31.12,35.78,46.68"/>
  <path class="cls-1" d="M223.64,440.79c10.93,13.57,21.87,27.15,32.8,40.72"/>
  <path class="cls-1" d="M276.32,508.33c10.93,14.24,22.03,28.35,32.68,42.8,2.48,3.37,3.42,7.86,5.11,11.82.17.4.64.67.97,1,.33-.33.66-.66.99-.99"/>
  <path class="cls-1" d="M95.42,268.96c-6.4-8.14-12.79-16.27-19.19-24.41-.62.28-1.24.55-1.86.83.39,1.9.23,4.19,1.26,5.64,7.12,10.05,12.48,23.26,22.22,29.13,17.18,10.34,23.86,28.07,36.33,41.46"/>
  <path class="cls-1" d="M671.9,165.66c-10.27,1.66-20.53,3.4-30.82,4.93-6.09.91-4.16,4.51-2.98,7.98"/>
  <path class="cls-1" d="M545.67,472.58c-13.25,5.3-26.5,10.59-39.76,15.89"/>
  <path class="cls-1" d="M282.28,506.35c12.26,16.55,24.52,33.11,36.78,49.66"/>
  <path class="cls-1" d="M142.14,331.53c10.93,13.57,21.87,27.15,32.8,40.72"/>
  <path class="cls-1" d="M183.88,395.1c8.95,11.92,17.93,23.81,26.79,35.79,1.3,1.76,2.03,3.94,3.02,5.93"/>
  <path class="cls-1" d="M358.81,546.08c-12.59,5.3-25.18,10.59-37.77,15.89"/>
  <path class="cls-1" d="M355.83,457.68c.37,2.6.75,5.2,1.15,8.01-13.96,5.19-26.94,10.01-39.91,14.84"/>
  <path class="cls-1" d="M599.34,222.27c-11.93,3.31-23.91,6.43-35.76,10-8.32,2.51-16.46,5.62-26.12,8.96-4.64-3.17-9.64-6.6-14.65-10.02"/>
  <path class="cls-1" d="M275.32,428.87c-11.93,3.97-23.85,7.95-35.78,11.92"/>
  <path class="cls-1" d="M702.71,359.34c6.63,11.92,13.25,23.84,19.88,35.76"/>
  <path class="cls-1" d="M356.82,448.74c-1.05-6.79-5.5-4.13-8.92-2.91-9.68,3.44-19.24,7.21-28.85,10.86"/>
  <path class="cls-1" d="M553.62,470.59v25.98c-1.33,0-2.65-.01-3.98-.02v-16.03"/>
  <path class="cls-1" d="M147.11,356.36c8.95,11.59,17.89,23.18,26.84,34.76"/>
  <path class="cls-1" d="M744.45,109.04c-7.5-4.82-15-9.64-23.36-15.02-1.3,5.64-2.39,10.33-3.47,15.02"/>
  <path class="cls-1" d="M466.16,343.45c-5.3,1.99-10.46,4.79-15.94,5.74-5.79,1-11.89.22-17.85.22"/>
  <path class="cls-1" d="M309.12,472.58c-11.26,3.97-22.53,7.95-33.79,11.92"/>
  <path class="cls-1" d="M410.5,456.68c-8.46,2.84-16.92,5.69-25.38,8.53-.4-.95-.8-1.89-1.2-2.84,2.23-1.24,4.47-2.47,6.7-3.71"/>
  <path class="cls-1" d="M268.37,520.25c8.28,10.59,16.57,21.19,24.85,31.78"/>
  <path class="cls-1" d="M505.91,204.39c-10.6,1.32-21.2,2.65-31.81,3.97"/>
  <path class="cls-1" d="M303.15,389.14c-10.6,3.31-21.2,6.62-31.81,9.93"/>
  <path class="cls-1" d="M372.73,470.59c-2.27.76-4.55,1.52-7.59,2.53-.29,3.48-.62,7.56-.96,11.63-1.13-.02-2.26-.05-3.38-.07v-10.11"/>
  <path class="cls-1" d="M490.01,426.89c-4.97,1.99-9.82,4.39-14.94,5.86-6.78,1.94-13.77,3.15-22.44,5.07h5.58"/>
  <path class="cls-1" d="M396.58,530.19c-11.26,4.64-22.53,9.27-33.79,13.91"/>
  <path class="cls-1" d="M559.58,401.06c-14.58,5.3-29.16,10.59-43.73,15.89"/>
  <path class="cls-1" d="M730.54,440.79c7.35-.27,1.67-5.42,2.98-7.95h-32.8"/>
  <path class="cls-1" d="M678.85,186.52h29.82"/>
  <path class="cls-1" d="M505.91,214.33c-11.26,1.32-22.53,2.65-33.79,3.97"/>
  <path class="cls-1" d="M307.13,484.5c-9.61,3.64-19.22,7.28-28.82,10.93"/>
  <path class="cls-1" d="M453.23,439.8c-9.61,3.64-19.22,7.28-28.82,10.93"/>
  <path class="cls-1" d="M845.83,387.16c-8.61,7.28-17.23,14.57-25.84,21.85"/>
  <path class="cls-1" d="M434.35,146.78c-9.28,2.65-18.55,5.3-27.83,7.95"/>
  <path class="cls-1" d="M321.04,393.12c-9.28,2.65-18.55,5.3-27.83,7.95"/>
  <path class="cls-1" d="M456.22,114.01c-9.28,1.66-18.55,3.31-27.83,4.97"/>
  <path class="cls-1" d="M861.74,325.57c3.66,2.29,7.33,4.58,12.32,7.69-9.25,5.98-5.28,15.97-8.14,24.16-2.9,8.29-4.18,17.15-6.16,25.75"/>
  <path class="cls-1" d="M693.76,104.07c-9.28-5.3-18.55-10.59-27.82-15.89-.33.99-.67,1.99-1,2.98"/>
  <path class="cls-1" d="M615.24,201.41c-3.97,1.33-7.95,2.66-12.92,4.32v10.89c5.36-1.78,10.62-3.53,16.78-5.58.33-2.6.72-5.62,1.11-8.63"/>
  <path class="cls-1" d="M690.78,412.98v-15.22c-6.44,2.62-12.17,4.95-17.89,7.27"/>
  <path class="cls-1" d="M694.76,135.86c-5.67,4.19-4.01-2.61-6-3.91-8.85-5.77-17.91-11.23-26.74-17.03-1.69-1.11-2.7-3.23-4.03-4.89"/>
  <path class="cls-1" d="M415.47,162.68c10.76,8.93,23.3,16.24,27.83,30.79"/>
  <path class="cls-1" d="M396.58,357.36c-8.61,2.65-17.23,5.3-25.84,7.95"/>
  <path class="cls-1" d="M573.5,22.63v15.89l1.98-1.98c3.98,4.96,7.96,9.93,11.94,14.89"/>
  <path class="cls-1" d="M663.95,107.05c-.48-2.96-.96-5.92-1.85-11.44,10.02,6.51,18.35,11.92,26.25,17.06,4.03-1.51,7.88-2.95,12.37-4.63v13.13c-2.91.74-4.93,1.25-6.96,1.77"/>
  <path class="cls-1" d="M332.97,379.21c-8.61,2.65-17.23,5.3-25.84,7.95"/>
  <path class="cls-1" d="M47.71,215.32c4.17,6.01,8.33,12.03,12.5,18.04.81-.94,1.63-1.89,2.44-2.83-1.01-.43-2.01-.87-3.02-1.3"/>
  <path class="cls-1" d="M450.25,510.32c-8.61,3.31-17.23,6.62-25.84,9.93"/>
  <path class="cls-1" d="M653.01,154.73c12.59-.66,25.18-1.32,37.77-1.99"/>
  <path class="cls-1" d="M831.92,375.24c.33-4.64.66-9.27.95-13.33-11.4,6.33-23.07,12.81-34.74,19.29"/>
  <path class="cls-1" d="M456.22,418.94c-.33-.99-.66-1.99-.99-2.98,1.22-.37,2.44-.73,3.66-1.1.37.92.75,1.83,1.12,2.75-4.9,2.1-9.75,4.35-14.73,6.25-4.89,1.86-9.92,3.36-14.89,5.01"/>
  <path class="cls-1" d="M719.61,109.04c7.95,5.63,15.9,11.26,23.85,16.89"/>
  <path class="cls-1" d="M573.5,18.65c-1.33.66-3.77,1.27-3.8,1.99-.3,6.28-.17,12.57-.17,18.86"/>
  <path class="cls-1" d="M305.14,267.96c-5.63,1.66-11.21,3.56-16.93,4.84-2.14.48-4.61-.53-6.93-.86"/>
  <path class="cls-1" d="M455.22,429.87c-8.28,2.98-16.57,5.96-24.85,8.94"/>
  <path class="cls-1" d="M892.55,255.05c-1.66,5.63-3.2,11.29-5.02,16.87-.72,2.19-2.03,4.19-3.38,6.87-6.76-7.85.34-14.8-.55-21.75"/>
  <path class="cls-1" d="M147.11,479.53c1.66,4.64,3.87,9.16,4.83,13.93,1.24,6.18,1.47,12.55,2.13,18.84"/>
  <path class="cls-1" d="M267.37,401.06c-7.95,2.65-15.9,5.3-23.85,7.95"/>
  <path class="cls-1" d="M279.3,426.89c6.1-2.34,12.2-4.68,18.29-7.03-.05-.62-.1-1.24-.15-1.86l-4.23-1.05"/>
  <path class="cls-1" d="M867.7,194.46c-7.95-3.97-15.9-7.95-23.85-11.92"/>
  <path class="cls-1" d="M450.25,132.88l-23.85,5.96"/>
  <path class="cls-1" d="M285.26,287.83c-1.66,1.99-2.93,4.91-5.04,5.78-6.09,2.49-12.52,4.15-18.81,6.14"/>
  <path class="cls-1" d="M565.55,192.47c-.41,6.29-.82,12.59-1.34,20.44,4.63-1.48,9.45-3.01,14.26-4.55"/>
  <path class="cls-1" d="M732.53,412.98c-.3,3.64-.6,7.29-1.01,12.27,3.96-1.57,7.46-2.95,10.95-4.33"/>
  <path class="cls-1" d="M154.06,477.54c1.33,3.31,2.23,6.88,4.06,9.88,4.72,7.76,9.85,15.28,14.86,22.88.1.15.7.14.95,0,.39-.23.68-.64,1.01-.97"/>
  <path class="cls-1" d="M368.75,532.17c-7.29,2.65-14.58,5.3-21.87,7.95"/>
  <path class="cls-1" d="M545.67,329.55c0,1.32.42,3.62-.06,3.82-5.2,2.23-10.54,4.12-15.84,6.11"/>
  <path class="cls-1" d="M416.46,132.88c-7.29,1.99-14.58,3.97-21.87,5.96"/>
  <path class="cls-1" d="M470.13,482.51c-7.29,2.65-14.58,5.3-21.87,7.95"/>
  <path class="cls-1" d="M313.09,293.79c-7.29,1.99-14.58,3.97-21.87,5.96"/>
  <path class="cls-1" d="M193.82,321.6c-7.29,1.99-14.58,3.97-21.87,5.96"/>
  <path class="cls-1" d="M311.1,420.93c-6.08,2.37-12.16,4.73-20.06,7.81,3.37,1.16,4.75,1.64,6.14,2.12"/>
  <path class="cls-1" d="M336.95,258.03c-7.29,1.99-14.58,3.97-21.87,5.96"/>
  <path class="cls-1" d="M505.91,468.6c-7.29,2.65-14.58,5.3-21.87,7.95"/>
  <path class="cls-1" d="M501.94,490.46c-7.29,2.65-14.58,5.3-21.87,7.95"/>
  <path class="cls-1" d="M591.39,205.39v11.59c-3.17,1.06-6.56,2.18-9.94,3.31"/>
  <path class="cls-1" d="M475.1,485.49c-.72,11.62-3.48,23.29.99,34.76"/>
  <path class="cls-1" d="M449.26,221.28c-3.98.99-7.92,2.12-11.93,2.95-5.5,1.14-7.14,5.18-7.94,9.96"/>
  <path class="cls-1" d="M619.22,452.71c.84-3.25,1.68-6.49,2.65-10.21-5.24,1.77-8.91,3.01-12.59,4.25"/>
  <path class="cls-1" d="M38.77,331.53c-.91.76-1.83,1.52-2.74,2.28-.62-.63-1.24-1.26-1.86-1.89,2.55-2.44,5.1-4.88,7.87-7.52,2.06,3.14,3.38,5.13,4.69,7.13"/>
  <path class="cls-1" d="M233.58,299.75c-9.94,2.65-19.88,5.3-29.82,7.95"/>
  <path class="cls-1" d="M393.6,522.24c-6.96,2.65-13.91,5.3-20.87,7.95"/>
  <path class="cls-1" d="M577.47,222.27c-6.63,1.99-13.25,3.97-19.88,5.96"/>
  <path class="cls-1" d="M714.64,428.87h-19.88"/>
  <path class="cls-1" d="M635.12,87.19c7.62,4.64,15.24,9.27,22.86,13.91"/>
  <path class="cls-1" d="M236.56,610.64c2.81,4.41,5.62,8.83,8.36,13.13-.41,1.69-.91,3.72-1.4,5.75"/>
  <path class="cls-1" d="M543.68,379.21c-5.24,1.29-10.48,2.58-15.72,3.87-.18-.58-.35-1.15-.53-1.73,1.11-.38,2.22-.76,3.33-1.14"/>
  <path class="cls-1" d="M790.17,420.93l-23.85,5.96"/>
  <path class="cls-1" d="M271.35,486.48c0,1.99-.77,4.47.15,5.86,2.56,3.92,5.82,7.38,8.8,11.02"/>
  <path class="cls-1" d="M525.79,179.56c-1.3.41-2.6.81-1.99.62v27.19"/>
  <path class="cls-1" d="M821.98,349.41c-.74,4.68-1.47,9.36-2.23,14.19-2.4-.95-4.06-1.61-5.72-2.27"/>
  <path class="cls-1" d="M851.8,343.45c-1.84,6.9,4.84,6.99,8.68,10.33.45-2.29.86-4.32,1.26-6.36"/>
  <path class="cls-1" d="M899.51,332.53c-2.5,7.34-5,14.68-7.5,22.02-.8.59-1.6,1.19-2.4,1.78-.68-1.64-1.35-3.28-2.03-4.93"/>
  <path class="cls-1" d="M530.76,402.05c-6.29,2.32-12.59,4.64-18.88,6.95"/>
  <path class="cls-1" d="M591.39,71.3v-10.33c1.16.08,2.32.16,3.48.25v13.28c-2.62.77-6.03,1.77-9.44,2.77"/>
  <path class="cls-1" d="M912.43,247.1c-6.16,4.5-9.31,13.41-18.88,12.91"/>
  <path class="cls-1" d="M519.83,397.09c-5.96,1.99-11.93,3.97-17.89,5.96"/>
  <path class="cls-1" d="M561.57,101.09h-17.89"/>
  <path class="cls-1" d="M824.96,343.45c.36-6.27.73-12.54,1.15-19.87h-18.05"/>
  <path class="cls-1" d="M410.5,446.75l-17.89,5.96"/>
  <path class="cls-1" d="M509.89,323.59c-3.31,2.65-6.35,5.8-10.02,7.8-3.62,1.98-7.87,2.79-11.85,4.12"/>
  <path class="cls-1" d="M563.56,381.2l-17.89,5.96"/>
  <path class="cls-1" d="M354.84,381.2l-17.89,5.96"/>
  <path class="cls-1" d="M454.23,240.15c-4.96,1.37-9.92,2.74-14.91,4.11-.69-2.45-1.34-4.77-1.99-7.09"/>
  <path class="cls-1" d="M585.43,373.25c-5.96,1.99-11.93,3.97-17.89,5.96"/>
  <path class="cls-1" d="M497.96,405.03l-17.89,5.96"/>
  <path class="cls-1" d="M740.48,127.91c-5.63-.65-11.26,4.93-16.9,0"/>
  <path class="cls-1" d="M239.54,410.99l-17.89,5.96"/>
  <path class="cls-1" d="M418.45,122.95c-5.96,1.32-11.93,2.65-17.89,3.97"/>
  <path class="cls-1" d="M297.19,410.99l-17.89,5.96"/>
  <path class="cls-1" d="M670.9,111.03l17.89,11.92"/>
  <path class="cls-1" d="M760.36,164.66c-5.96.66-11.93,1.32-17.89,1.99"/>
  <path class="cls-1" d="M438.33,416.95l-17.89,5.96"/>
  <path class="cls-1" d="M279.3,162.68c-8.61,1.99-17.23,3.97-25.84,5.96"/>
  <path class="cls-1" d="M354.84,371.26c-5.96,1.99-11.93,3.97-17.89,5.96"/>
  <path class="cls-1" d="M434.35,363.32l-17.89,5.96"/>
  <path class="cls-1" d="M486.03,418.94l-17.89,5.96"/>
  <path class="cls-1" d="M511.88,418.94l-17.89,5.96"/>
  <path class="cls-1" d="M553.62,95.13c-5.96-1.32-11.93-2.65-17.89-3.97"/>
  <path class="cls-1" d="M501.94,349.41l-17.89,5.96"/>
  <path class="cls-1" d="M656.99,199.43c-7.29,1.66-14.58,3.31-21.87,4.97"/>
  <path class="cls-1" d="M280.29,284.85c-5.63,1.66-11.26,3.31-16.9,4.97"/>
  <path class="cls-1" d="M505.91,248.1c-5.38-4.3-10.76-8.6-16.9-13.51v12.42c-.48.12-.96.24-1.44.36l12.37,20.6"/>
  <path class="cls-1" d="M903.48,317.63c-.99-1.99-1.99-3.97-3.38-6.75-3.56,2.28-7.05,4.52-10.54,6.75"/>
  <path class="cls-1" d="M422.42,262c-3.28,1.72-6.56,3.43-12.21,6.39,3.28.82,4.76,1.19,6.24,1.56"/>
  <path class="cls-1" d="M340.92,275.91c-5.3,1.32-10.6,2.65-15.9,3.97"/>
  <path class="cls-1" d="M470.13,502.37c-5.3,1.99-10.6,3.97-15.9,5.96"/>
  <path class="cls-1" d="M275.32,305.71c-5.3,1.32-10.6,2.65-15.9,3.97"/>
  <path class="cls-1" d="M583.44,192.47c0,3.64-.14,7.3.18,10.91.04.44,2.48.68,3.8,1.01"/>
  <path class="cls-1" d="M273.33,277.9c-5.3,1.32-10.6,2.65-15.9,3.97"/>
  <path class="cls-1" d="M809.06,158.7c5.3,3.64,10.6,7.28,15.9,10.93"/>
  <path class="cls-1" d="M684.82,156.72h-15.9"/>
  <path class="cls-1" d="M607.29,148.77c3.32,3.01,6.63,6.02,9.95,9.03.66-.38,1.32-.76,1.97-1.14v15.95"/>
  <path class="cls-1" d="M595.37,195.45v25.82"/>
  <path class="cls-1" d="M245.5,305.71c-5.3,1.32-10.6,2.65-15.9,3.97"/>
  <path class="cls-1" d="M656.99,71.3c3.54-7.39-1.45-9.81-7.95-12.83v7.86"/>
  <path class="cls-1" d="M591.39,454.7c-5.3,1.99-10.6,3.97-15.9,5.96"/>
  <path class="cls-1" d="M420.44,522.24c-5.3,1.99-10.6,3.97-15.9,5.96"/>
  <path class="cls-1" d="M442.3,124.93c4.23-.77,8.45-1.54,12.92-2.36v17.72c-5.38,1.43-11.14,2.97-16.9,4.5"/>
  <path class="cls-1" d="M237.55,317.63c-5.3,1.32-10.6,2.65-15.9,3.97"/>
  <path class="cls-1" d="M382.67,134.87c5.3,4.3,10.76,8.44,15.74,13.08.81.76-.5,3.8-.83,5.79"/>
  <path class="cls-1" d="M201.77,299.75c-5.3,1.32-10.6,2.65-15.9,3.97"/>
  <path class="cls-1" d="M567.54,444.77c-5.3,2.32-10.6,4.64-15.9,6.95"/>
  <path class="cls-1" d="M670.9,438.81c-.47,2.9-.94,5.81-1.63,10.03-1.82-.46-5.07-1.27-8.31-2.08"/>
  <path class="cls-1" d="M394.59,240.15c-5.3,1.32-10.6,2.65-15.9,3.97"/>
  <path class="cls-1" d="M704.7,182.54h-15.9"/>
  <path class="cls-1" d="M50.7,337.49c-3.71,4.55,1.53,6.64,3.22,8.75,3.7,4.64,5.25,9.39,4.73,15.09"/>
  <path class="cls-1" d="M647.05,432.85c-5.3,1.99-10.6,3.97-15.9,5.96"/>
  <path class="cls-1" d="M750.42,430.86c-5.3.99-10.6,1.99-15.9,2.98"/>
  <path class="cls-1" d="M710.66,178.57h-15.9"/>
  <path class="cls-1" d="M517.84,105.07c-5.3,1.32-10.6,2.65-15.9,3.97"/>
  <path class="cls-1" d="M649.04,412.98c-5.3,1.99-10.6,3.97-15.9,5.96"/>
  <path class="cls-1" d="M420.44,532.17c-5.3,1.99-10.6,3.97-15.9,5.96"/>
  <path class="cls-1" d="M597.35,33.55c.33,5.3.66,10.59.99,15.89"/>
  <path class="cls-1" d="M800.11,424.9c-1.86-5.83-6.11-8.06-11.93-7.95"/>
  <path class="cls-1" d="M678.85,178.57c-8.36,1.37-.46,10.23-7.57,13.17,4.13,1.17,6.84,1.95,9.56,2.72"/>
  <path class="cls-1" d="M669.91,71.3c10.27,6.62,20.54,13.24,30.81,19.87"/>
  <path class="cls-1" d="M820.99,173.6c-.53,3.66-1.05,7.33-1.36,9.49-3.43.57-6,1.01-8.58,1.44"/>
  <path class="cls-1" d="M227.61,611.63c.7,4.81-2.42,10.72,3.98,13.91"/>
  <path class="cls-1" d="M633.13,428.87c-8.2.87-5.53,7.17-5.96,11.92"/>
  <path class="cls-1" d="M569.52,43.48c-.66,5.9-1.31,11.8-1.97,17.7.91.11,1.83.22,2.74.32.4-2.04.81-4.07,1.21-6.11"/>
  <path class="cls-1" d="M857.76,369.28c-3.31,4.64-6.63,9.27-9.94,13.91"/>
  <path class="cls-1" d="M216.68,558.99c4.72,8.4,14.13,14.42,13.14,25.84-.04.51,3.1,1.31,4.75,1.97"/>
  <path class="cls-1" d="M115.3,431.85c.99,6.95,1.99,13.91,2.98,20.86"/>
  <path class="cls-1" d="M550.64,188.5c-.63-2-1.26-3.99-1.9-6.01-4.07,1.03-8.04,2.03-12.02,3.03"/>
  <path class="cls-1" d="M887.58,329.55c1.33,1.66,3.93,3.48,3.74,4.94-.58,4.42-2.23,8.69-3.38,12.69-1.43-2.54-2.88-5.11-4.34-7.69"/>
  <path class="cls-1" d="M866.71,249.09l8.95,14.9"/>
  <path class="cls-1" d="M833.91,190.49c-.66.66-1.72,2.01-1.93,1.89-3.73-2.18-7.35-4.53-10.99-6.85"/>
  <path class="cls-1" d="M383.66,455.69c-4.97,2.32-9.94,4.64-14.91,6.95"/>
  <path class="cls-1" d="M571.51,462.64c-5.63,1.99-11.26,3.97-16.9,5.96"/>
  <path class="cls-1" d="M533.74,263c5.63,5.96,11.26,11.92,16.9,17.88"/>
  <path class="cls-1" d="M222.64,590.78c1.66,4.97,3.31,9.93,4.97,14.9"/>
  <path class="cls-1" d="M752.41,194.46c-4.64.66-9.28,1.32-13.91,1.99"/>
  <path class="cls-1" d="M649.04,313.65h-13.91"/>
  <path class="cls-1" d="M260.41,630.51c-1.66,4.3-3.31,8.61-4.97,12.91"/>
  <path class="cls-1" d="M846.83,199.43c-.92-.26-1.83-.52-2.75-.78,8.26,3.97,16.05,8.22,21.63,15.68"/>
  <path class="cls-1" d="M730.54,188.5l-9.03-1.29c-.55-.82-1.11-1.64-1.66-2.46-1.08,1.91-2.15,3.82-3.23,5.73"/>
  <path class="cls-1" d="M615.24,77.26c-.15-1.32-.3-2.65-.46-3.97,1.15.38,2.29.76,3.44,1.14-1.94,3.16-3.88,6.33-5.34,8.69.89,1.61,2.12,3.83,3.35,6.06"/>
  <path class="cls-1" d="M327.01,579.85c-1.36-3.57-2.72-7.13-4.08-10.7.63-.37,1.26-.74,1.88-1.11,4.38,4.27,8.8,8.49,13.04,12.89.34.35-.57,1.9-.91,2.89"/>
  <path class="cls-1" d="M464.17,426.89h-13.91"/>
  <path class="cls-1" d="M672.89,420.93c-.66,4.64-1.33,9.27-1.99,13.91"/>
  <path class="cls-1" d="M676.87,414.97v6.45c2.51-1.25,4.42-2.21,6.9-3.44.35-2.69.7-5.33,1.05-7.98"/>
  <path class="cls-1" d="M698.73,401.06c-7.44,1.94-2.48,8-3.98,11.92"/>
  <path class="cls-1" d="M545.67,397.09l-14.91,2.98"/>
  <path class="cls-1" d="M541.69,389.14h-13.91"/>
  <path class="cls-1" d="M621.21,179.56c-6.12,1.37-12.24,2.75-19.52,4.38,1.9,3.91,2.87,5.89,3.39,6.98-.98,5.13-1.87,9.8-2.76,14.47"/>
  <path class="cls-1" d="M400.56,375.24c-4.64,1.32-9.28,2.65-13.91,3.97"/>
  <path class="cls-1" d="M384.65,371.26c-4.64,1.32-9.28,2.65-13.91,3.97"/>
  <path class="cls-1" d="M605.3,168.64c.33,4.64.66,9.27.99,13.91"/>
  <path class="cls-1" d="M472.12,228.23c5.65-.35,11.3-.71,16.95-1.06.42-.75.83-1.51,1.25-2.26,5.53,6.07,11.06,12.14,16.58,18.22"/>
  <path class="cls-1" d="M720.6,164.66c-4.64-.66-9.28-1.32-13.91-1.99"/>
  <path class="cls-1" d="M664.94,339.48c-2.69.29-5.38.58-8.07.87-.15.64-.3,1.27-.45,1.91,1.51,1.06,3.03,2.12,4.54,3.18"/>
  <path class="cls-1" d="M356.82,283.86l-8.16,3.49.19,2.47h4"/>
  <path class="cls-1" d="M885.59,283.86c-7.22,10-13.54,20.9-25.84,25.82"/>
  <path class="cls-1" d="M462.18,335.51c-4.64,1.32-9.28,2.65-13.91,3.97"/>
  <path class="cls-1" d="M637.11,331.53h-13.91"/>
  <path class="cls-1" d="M615.24,309.68h-13.91"/>
  <path class="cls-1" d="M786.2,319.61h-13.91"/>
  <path class="cls-1" d="M629.16,95.13c.67-5.63,1.33-11.26,2.21-18.71,9.23,5.11,17.92,9.93,26.61,14.74"/>
  <path class="cls-1" d="M225.63,311.67c-7.29,1.99-14.58,3.97-21.87,5.96"/>
  <path class="cls-1" d="M546.66,314.65c-4.31,1.66-8.61,3.31-12.92,4.97"/>
  <path class="cls-1" d="M657.98,320.61c-4.31-.33-8.61-.66-12.92-.99"/>
  <path class="cls-1" d="M742.47,138.84c.9,2.25,1.81,4.49,3.2,7.95h8.73"/>
  <path class="cls-1" d="M616.24,149.76c-1.86-1.11-3.72-2.23-5.58-3.34.91-.63,1.82-1.26,2.72-1.89,12.01,9.45,19.87,21.36,19.75,38.01"/>
  <path class="cls-1" d="M742.47,133.87c-.25-2-.5-3.99-.84-6.71,3.36-1,7.07-2.11,10.65-3.18,2.6,4.04,5.19,8.05,7.91,12.27-.82,1.94-1.81,4.26-3.92,9.2-2.19-4.86-3.59-7.96-5.67-12.59-1.13.37-3.64,1.19-6.14,2.01"/>
  <path class="cls-1" d="M581.45,335.51c1.46-.73,2.93-1.46,5.47-2.73-4.09-1.4-6.76-2.32-9.44-3.23"/>
  <path class="cls-1" d="M665.93,306.7c4.31.33,8.61.66,12.92.99"/>
  <path class="cls-1" d="M587.41,303.72c.81,7.59,6.71,2.44,9.94,3.97"/>
  <path class="cls-1" d="M582.44,162.68l11.93,8.94"/>
  <path class="cls-1" d="M437.33,352.39c-4.31,1.66-8.61,3.31-12.92,4.97"/>
  <path class="cls-1" d="M906.46,247.1c-3.54,3.09-7.07,6.19-10.6,9.27-1.66-1.66-2.98-2.98-4.17-4.16.97-3.09,1.9-6.08,2.84-9.08"/>
  <path class="cls-1" d="M577.47,173.6c-8.95,2.65-17.89,5.3-26.84,7.95"/>
  <path class="cls-1" d="M48.71,226.25c3.31,3.97,6.63,7.95,9.94,11.92"/>
  <path class="cls-1" d="M509.89,216.31q5.54-3.34,8,4.12c-7.22,6.13-18.11-.85-24.9,6.81"/>
  <path class="cls-1" d="M526.78,384.18c-4.31,1.66-8.61,3.31-12.92,4.97"/>
  <path class="cls-1" d="M668.92,416.95v-12.21c-3.94,1.69-6.94,2.97-9.94,4.26"/>
  <path class="cls-1" d="M146.11,208.37c-4.31.33-8.61.66-12.92.99"/>
  <path class="cls-1" d="M544.68,205.39v12.91"/>
  <path class="cls-1" d="M664.94,176.58h5.47c-.73,4.36-1.44,8.66-2.28,13.7-2.63-.65-4.9-1.22-7.16-1.78"/>
  <path class="cls-1" d="M550.64,203.4v13.91c.47.16.95.33,1.42.49,2.07-6.3,4.13-12.6,6.2-18.9.78.18,1.55.35,2.33.53,0,4.97,0,9.93.04,14.9,0,0,.69.12.94-.03.39-.23.68-.64,1.01-.97"/>
  <path class="cls-1" d="M762.34,206.38c-.31,1.34-.62,2.68-.93,4.03-.79-.66-1.58-1.31-2.36-1.97-.45-2.03-.91-4.07-1.34-6.03h-3.31"/>
  <path class="cls-1" d="M629.16,80.24c-2.73.65-5.46,1.31-9.15,2.19-.02-.03-.9-1.11-1.78-2.19"/>
  <path class="cls-1" d="M354.84,262c-3.98-.66-7.95-1.32-11.93-1.99"/>
  <path class="cls-1" d="M637.11,321.6h-11.93"/>
  <path class="cls-1" d="M503.92,393.12c-3.98,1.32-7.95,2.65-11.93,3.97"/>
  <path class="cls-1" d="M356.82,526.21c-3.98,1.32-7.95,2.65-11.93,3.97"/>
  <path class="cls-1" d="M802.1,321.6h-11.93"/>
  <path class="cls-1" d="M655,323.59h-11.93"/>
  <path class="cls-1" d="M619.22,319.61h-11.93"/>
  <path class="cls-1" d="M766.32,317.63h-11.93"/>
  <path class="cls-1" d="M1,256.04c1.33,5.3,2.65,10.59,3.98,15.89"/>
  <path class="cls-1" d="M639.1,317.63h-11.93"/>
  <path class="cls-1" d="M561.57,391.13c-3.98,1.32-7.95,2.65-11.93,3.97"/>
  <path class="cls-1" d="M400.56,538.13v19.08c-1.14-.14-2.28-.28-3.42-.42.48-2.25.96-4.49,1.44-6.74"/>
  <path class="cls-1" d="M621.21,315.64h-11.93"/>
  <path class="cls-1" d="M603.32,327.56h-11.93"/>
  <path class="cls-1" d="M730.54,313.65h-11.93"/>
  <path class="cls-1" d="M619.22,329.55h-11.93"/>
  <path class="cls-1" d="M874.66,207.37c.27.79.53,1.59.8,2.38.66-.24,1.32-.48,1.98-.72-2.47-5.57-11.91-8.26-8.78-14.99,8.16,7.3,16.52,14.79,24.88,22.27"/>
  <path class="cls-1" d="M631.15,311.67h-11.93"/>
  <path class="cls-1" d="M696.75,309.68h-11.93"/>
  <path class="cls-1" d="M444.29,492.44c-3.98,1.32-7.95,2.65-11.93,3.97"/>
  <path class="cls-1" d="M653.01,333.52h-11.93"/>
  <path class="cls-1" d="M295.2,556.01c3.31,3.97,6.63,7.95,9.94,11.92"/>
  <path class="cls-1" d="M559.58,305.71c-.48,4.62-4.45,6.94-11.7,6.95,3.19-4.24,6.45-8.57,9.71-12.91"/>
  <path class="cls-1" d="M596.36,380.2q-2.78,7.7-16.9,12.91"/>
  <path class="cls-1" d="M583.44,303.72c-3.64.66-7.29,1.32-10.93,1.99"/>
  <path class="cls-1" d="M775.27,155.72c2.69,2.87,4.9,6.98,9.93,3.96.39-.23.67-.65,1-.98-.33-.33-.66-.66-.99-.99"/>
  <path class="cls-1" d="M643.07,303.72h-11.93"/>
  <path class="cls-1" d="M823.97,399.07c-3.5,2.83-6.99,5.66-11.32,9.17-1.13-2.27-1.86-3.73-2.59-5.19"/>
  <path class="cls-1" d="M627.17,301.73h-11.93"/>
  <path class="cls-1" d="M609.28,299.75h-11.93"/>
  <path class="cls-1" d="M593.38,32.56v22.85h-3.98"/>
  <path class="cls-1" d="M699.73,343.45c-1.07,1.61-2.14,3.21-3.49,5.24,1.51,2.25,3,4.47,4.48,6.68"/>
  <path class="cls-1" d="M422.42,140.82c-7.62,1.99-15.24,3.97-22.86,5.96"/>
  <path class="cls-1" d="M888.57,276.9c.31,7.26,1.18,14.72-7.4,19.1,6.62,3.42,5.28,7.06.44,10.7"/>
  <path class="cls-1" d="M531.75,458.67c-3.98,1.32-7.95,2.65-11.93,3.97"/>
  <path class="cls-1" d="M776.26,138.84c-3.98-2.65-7.95-5.3-11.93-7.95"/>
  <path class="cls-1" d="M577.47,385.17c-3.98,1.32-7.95,2.65-11.93,3.97"/>
  <path class="cls-1" d="M426.4,440.79c-3.98,1.32-7.95,2.65-11.93,3.97"/>
  <path class="cls-1" d="M362.79,250.08c-5.3,1.32-10.6,2.65-15.9,3.97"/>
  <path class="cls-1" d="M660.96,436.82c-3.98,1.32-7.95,2.65-11.93,3.97"/>
  <path class="cls-1" d="M458.2,355.37c-3.98,1.32-7.95,2.65-11.93,3.97"/>
  <path class="cls-1" d="M356.82,279.88c-2.04-.4-4.07-.81-6.76-1.34-.59.62-1.89,1.97-3.18,3.33"/>
  <path class="cls-1" d="M507.9,410.99c-3.98,1.32-7.95,2.65-11.93,3.97"/>
  <path class="cls-1" d="M686.81,432.85c1.43,1.56,2.85,3.13,6.08,6.66-3.43-.39-4.75-.55-6.08-.7"/>
  <path class="cls-1" d="M545.67,109.04c5.3,1.32,10.6,2.65,15.9,3.97"/>
  <path class="cls-1" d="M448.26,232.21c-5.3,1.32-10.6,2.65-15.9,3.97"/>
  <path class="cls-1" d="M518.83,231.21l-11.93,5.96"/>
  <path class="cls-1" d="M794.15,383.18c-3.98,1.32-7.95,2.65-11.93,3.97"/>
  <path class="cls-1" d="M67.59,233.2c2.98,3.64,5.96,7.28,8.95,10.93"/>
  <path class="cls-1" d="M575.49,105.07c-3.98,1.32-7.95,2.65-11.93,3.97"/>
  <path class="cls-1" d="M476.09,412.98c-3.98,1.32-7.95,2.65-11.93,3.97"/>
  <path class="cls-1" d="M912.43,269.95c-3.06,2.1-6.12,4.21-9.17,6.31l-1.28-1.65c4.1-5.31,8.2-10.62,14.15-18.32-1.96,13.59-3.62,25.14-5.29,36.69-.39-.08-.77-.17-1.16-.25.92,3.33,1.84,6.66,2.76,9.99"/>
  <path class="cls-1" d="M842.85,366.3c-1.33,3.97-2.65,7.95-3.98,11.92"/>
  <path class="cls-1" d="M508.89,242.14c3.98,4.3,7.95,8.61,11.93,12.91"/>
  <path class="cls-1" d="M418.45,246.11c-1.31,1.99-2.62,3.99-4.02,6.11-1.35-1.41-2.64-2.77-3.94-4.12"/>
  <path class="cls-1" d="M575.49,367.29c-3.98,1.32-7.95,2.65-11.93,3.97"/>
  <path class="cls-1" d="M891.55,250.08c-1.31-1.99-2.62-3.99-3.02-4.6-3.09-.61-5-.99-6.92-1.36"/>
  <path class="cls-1" d="M683.82,87.19c2.2,3.42,4.41,6.84,6.61,10.27.38-.56.75-1.13,1.13-1.69.73,1.45,1.47,2.89,2.2,4.34"/>
  <path class="cls-1" d="M410.5,426.89c-3.98,1.32-7.95,2.65-11.93,3.97"/>
  <path class="cls-1" d="M307.13,571.9c3.31,3.31,6.63,6.62,9.94,9.93"/>
  <path class="cls-1" d="M138.16,224.26c-1.46.73-2.93,1.46-4.39,2.19.14.59.27,1.19.41,1.78h5.97"/>
  <path class="cls-1" d="M441.31,184.53c3.64,3.31,7.29,6.62,10.93,9.93"/>
  <path class="cls-1" d="M145.12,461.65c-.33,1.66-1.32,3.54-.84,4.91.76,2.18,2.5,4.03,3.82,6.01"/>
  <path class="cls-1" d="M539.71,213.33c-.94,3.33-1.88,6.65-2.79,9.87-1.82-.16-3.47-.3-4.44-.38-.98,4.82-1.85,9.09-2.71,13.35"/>
  <path class="cls-1" d="M762.34,118.97c-.66,1.32-1.58,2.58-1.94,3.99-.82,3.27-1.38,6.61-2.04,9.92"/>
  <path class="cls-1" d="M805.08,213.33c6.96,3.97,13.91,7.95,20.87,11.92"/>
  <path class="cls-1" d="M380.68,442.78c.11,1.34.22,2.68.29,3.59,2.96-.62,5.31-1.11,7.66-1.61"/>
  <path class="cls-1" d="M314.09,568.92c2.65,5.3,5.3,10.59,7.95,15.89"/>
  <path class="cls-1" d="M509.89,351.4c-1.99,1-3.97,1.99-6.95,3.49,2.03,1.01,3.49,1.74,4.96,2.47"/>
  <path class="cls-1" d="M551.63,320.61c-1.37.12-2.74.23-4.11.35.25.95.49,1.9.74,2.85,1.46-.74,2.91-1.47,4.37-2.21"/>
  <path class="cls-1" d="M571.51,309.68v-2.55c-3.06-.83-6-1.62-8.95-2.41"/>
  <path class="cls-1" d="M459.2,204.39c8.91.51,2.57,8.65,5.96,11.92"/>
  <path class="cls-1" d="M863.72,317.63c3.64.99,7.29,1.99,10.93,2.98"/>
  <path class="cls-1" d="M833.91,229.23c3.64,2.98,7.29,5.96,10.93,8.94"/>
  <path class="cls-1" d="M212.71,324.58c-3.64.99-7.29,1.99-10.93,2.98"/>
  <path class="cls-1" d="M630.15,174.6c-2.54,5.5-7.21,10.86-1.06,16.95.16.16-.48,1.38-.97,1.89-.49.51-1.26.75-2.55,1.46.98-3.16,1.78-5.77,2.58-8.38"/>
  <path class="cls-1" d="M659.97,305.71h-10.93"/>
  <path class="cls-1" d="M748.43,111.03c3.64,2.32,7.29,4.64,10.93,6.95"/>
  <path class="cls-1" d="M812.04,412.98c-3.64,1.99-7.29,3.97-10.93,5.96"/>
  <path class="cls-1" d="M380.68,432.85c.11,1.34.22,2.68.29,3.59,2.96-.62,5.31-1.11,7.66-1.61"/>
  <path class="cls-1" d="M521.82,333.52l-15.57,4.45c-.11-.97-.22-1.94-.33-2.92,1.32.15,2.65.3,3.97.46"/>
  <path class="cls-1" d="M605.3,152.74c-1.56,8.07,6.59,7.31,9.94,10.93,0,3.64,0,7.28,0,10.93"/>
  <path class="cls-1" d="M619.22,190.49c-3.64.66-7.29,1.32-10.93,1.99"/>
  <path class="cls-1" d="M768.31,172.61c-3.31-1.32-6.63-2.65-9.94-3.97"/>
  <path class="cls-1" d="M478.08,489.46c0,8.61.1,17.22-.09,25.82-.04,1.67-1.24,3.31-1.9,4.97"/>
  <path class="cls-1" d="M544.68,192.47c.33,3.64.66,7.28.99,10.93"/>
  <path class="cls-1" d="M810.05,381.2c-1.33,3.31-2.65,6.62-3.98,9.93"/>
  <path class="cls-1" d="M266.38,511.31c-.66,2.98-1.35,5.95-1.94,8.95-.05.26.61.65.94.98.33-.33.66-.66.99-.99"/>
  <path class="cls-1" d="M754.39,345.44h-9.94"/>
  <path class="cls-1" d="M128.22,222.27c-3.31.66-6.63,1.32-9.94,1.99"/>
  <path class="cls-1" d="M623.2,176.58c-1.03,8.27-2.07,16.54-3.22,25.71-2.44-2.12-4.58-3.98-6.72-5.85"/>
  <path class="cls-1" d="M524.8,237.17c-3.31,1.99-6.63,3.97-9.94,5.96"/>
  <path class="cls-1" d="M167.98,220.29c-3.31.66-6.63,1.32-9.94,1.99"/>
  <path class="cls-1" d="M662.95,315.64h-9.94"/>
  <path class="cls-1" d="M680.84,345.44h-9.94"/>
  <path class="cls-1" d="M384.65,262c-3.31.66-6.63,1.32-9.94,1.99"/>
  <path class="cls-1" d="M594.37,175.59c-3.42,1.38-6.85,2.76-8.43,3.4-1.06,5.31-1.78,8.9-2.42,12.06-1.88.75-3.53,1.41-3.66,1.46-.55,4.69-.97,8.29-1.4,11.88"/>
  <path class="cls-1" d="M732.53,194.46h-9.94"/>
  <path class="cls-1" d="M643.07,327.56h-9.94"/>
  <path class="cls-1" d="M837.88,347.42c1.49,1.12,2.98,2.23,5.68,4.25-2.63.4-3.66.65-4.69.66-.33,0-.92-.61-.92-.94,0-.33.59-.66.92-.99"/>
  <path class="cls-1" d="M698.73,135.86v7.05c-3.97-.36-7.95-.72-11.92-1.13-.03,0-.12-.69.02-.94.23-.39.64-.68.97-1.01"/>
  <path class="cls-1" d="M275.32,172.61c-3.31.66-6.63,1.32-9.94,1.99"/>
  <path class="cls-1" d="M603.32,313.65h-9.94"/>
  <path class="cls-1" d="M364.78,138.84c-3.31.66-6.63,1.32-9.94,1.99"/>
  <path class="cls-1" d="M588.41,169.63c-.99,1.99-1.8,4.1-3.04,5.92-1.04,1.52-2.59,2.69-3.92,4.01"/>
  <path class="cls-1" d="M313.09,170.62c-3.31.66-6.63,1.32-9.94,1.99"/>
  <path class="cls-1" d="M253.46,293.79c-3.31.66-6.63,1.32-9.94,1.99"/>
  <path class="cls-1" d="M241.53,287.83c-3.31.66-6.63,1.32-9.94,1.99"/>
  <path class="cls-1" d="M192.83,540.12c2.46,2.88,4.93,5.77,7.37,8.62-1.74,1.31-3.06,2.3-4.39,3.3"/>
  <path class="cls-1" d="M46.72,317.63c2.65,1.99,5.3,3.97,7.95,5.96"/>
  <path class="cls-1" d="M474.11,234.19c-4.03.82-8.06,1.64-12.67,2.57-.9-2.1-2.06-4.82-3.36-7.82,4.68-1.56,9.36-3.12,14.04-4.68"/>
  <path class="cls-1" d="M835.89,293.79c2.55,1.42,7.32.63,5.96,5.96"/>
  <path class="cls-1" d="M42.74,198.43c1.99,3.31,3.98,6.62,5.96,9.93"/>
  <path class="cls-1" d="M136.17,238.17c1.34-.31,2.69-.62,4.03-.93-.68-1.01-1.36-2.03-2.03-3.04h-5.97"/>
  <path class="cls-1" d="M120.27,456.68c.4,2.04.81,4.07,1.7,8.56,1.32-3.8,1.8-5.18,2.28-6.57"/>
  <path class="cls-1" d="M566.54,312.66c2.68,3.62,5.36,7.23,8.03,10.85-1.02.69-2.05,1.37-3.07,2.06-1.29-1.35-2.58-2.7-5.88-6.16-1.08,2.18-2.07,4.17-3.06,6.16"/>
  <path class="cls-1" d="M708.67,405.03h-9.94"/>
  <path class="cls-1" d="M332.97,546.08c-3.31,1.32-6.63,2.65-9.94,3.97"/>
  <path class="cls-1" d="M438.33,381.2c1.34-.31,2.69-.62,4.03-.93-.68-1.01-1.36-2.03-2.03-3.04h-5.97"/>
  <path class="cls-1" d="M656.99,309.68h-9.94"/>
  <path class="cls-1" d="M722.59,405.03h-9.94"/>
  <path class="cls-1" d="M444.29,355.37c-2.72,1.16-5.44,2.33-8.16,3.49.07.49.14.99.21,1.48,1.66,0,3.32.06,4.97-.05.35-.02.67-.62,1-.95-.33-.33-.66-.66-.99-.99"/>
  <path class="cls-1" d="M88.47,403.05v9.93"/>
  <path class="cls-1" d="M722.59,321.6h-9.94"/>
  <path class="cls-1" d="M603.32,317.63h-9.94"/>
  <path class="cls-1" d="M94.43,232.21c-3.31.66-6.63,1.32-9.94,1.99"/>
  <path class="cls-1" d="M724.58,317.63h-9.94"/>
  <path class="cls-1" d="M311.1,275.91c-3.31.66-6.63,1.32-9.94,1.99"/>
  <path class="cls-1" d="M794.15,166.65c2-1.31,3.99-2.62,6-3.94,1.29,1.29,2.62,2.61,3.94,3.94"/>
  <path class="cls-1" d="M243.52,190.49c-3.31.66-6.63,1.32-9.94,1.99"/>
  <path class="cls-1" d="M776.26,391.13c1.19,2.52,7.73,3.7,1.99,7.95"/>
  <path class="cls-1" d="M845.83,349.41c-.33,5.63-.68,11.26-.95,16.89-.02.31.62.66.95.99.33-.33.66-.66.99-.99"/>
  <path class="cls-1" d="M525.79,111.03c-3.31.66-6.63,1.32-9.94,1.99"/>
  <path class="cls-1" d="M484.05,122.95c-3.31.66-6.63,1.32-9.94,1.99"/>
  <path class="cls-1" d="M124.25,214.33c-3.31.66-6.63,1.32-9.94,1.99"/>
  <path class="cls-1" d="M772.28,343.45h-9.94"/>
  <path class="cls-1" d="M553.62,230.22c-3.31.66-6.63,1.32-9.94,1.99"/>
  <path class="cls-1" d="M615.24,99.11c.85-2.93,1.69-5.85,3.07-10.64-3.38.95-5.31,1.49-7.24,2.03-.01.54-.02,1.08-.03,1.62l5.19,1.03"/>
  <path class="cls-1" d="M892.55,229.23c.66,2.41,1.31,4.82,2.12,7.79,3.17-3.16,5.49-5.48,7.82-7.79"/>
  <path class="cls-1" d="M609.28,323.59h-9.94"/>
  <path class="cls-1" d="M610.27,94.14c-2.91.97-5.82,1.93-8.73,2.9-.53-.51-1.05-1.01-1.58-1.52,2.44-4.1,4.89-8.2,7.33-12.3"/>
  <path class="cls-1" d="M179.91,520.25c1.66,2.98,3.3,5.97,4.98,8.93.22.39.65.67.98,1,.33-.33.66-.66.99-.99"/>
  <path class="cls-1" d="M114.31,226.25c-3.31.66-6.63,1.32-9.94,1.99"/>
  <path class="cls-1" d="M474.11,521.25c.47,1.4.93,2.8,1.99,5.96,1.05-3.16,1.52-4.56,1.99-5.96"/>
  <path class="cls-1" d="M621.21,305.71h-9.94"/>
  <path class="cls-1" d="M191.83,561.97c-.5,1.21-1,2.41-1.49,3.62,1.2-.13,2.4-.26,3.59-.38-1.03-2.4-2.06-4.8-3.09-7.21"/>
  <path class="cls-1" d="M742.47,319.61h-9.94"/>
  <path class="cls-1" d="M605.3,448.74c-3.31,1.32-6.63,2.65-9.94,3.97"/>
  <path class="cls-1" d="M183.88,188.5c-3.31.66-6.63,1.32-9.94,1.99"/>
  <path class="cls-1" d="M406.52,263.99c-3.31.66-6.63,1.32-9.94,1.99"/>
  <path class="cls-1" d="M490.01,116.99c-3.31-.66-6.63-1.32-9.94-1.99"/>
  <path class="cls-1" d="M185.87,206.38c-3.31.66-6.63,1.32-9.94,1.99"/>
  <path class="cls-1" d="M92.44,410.99c3.31.66,6.63,1.32,9.94,1.99"/>
  <path class="cls-1" d="M774.27,399.07c-.76,2.93,2.34,7.79-3.98,7.95"/>
  <path class="cls-1" d="M352.85,150.76c-3.31.66-6.63,1.32-9.94,1.99"/>
  <path class="cls-1" d="M754.39,341.47h-9.94"/>
  <path class="cls-1" d="M386.64,252.07c-3.31.66-6.63,1.32-9.94,1.99"/>
  <path class="cls-1" d="M740.48,323.59h-9.94"/>
  <path class="cls-1" d="M533.74,116.99c-3.31.66-6.63,1.32-9.94,1.99"/>
  <path class="cls-1" d="M35.79,302.73c-2.89,4.28.43,6.48,2.98,8.94"/>
  <path class="cls-1" d="M552.63,279.88c3.31,3.64,6.63,7.28,9.94,10.93"/>
  <path class="cls-1" d="M743.46,153.74c4.64.66,9.28,1.32,13.91,1.99"/>
  <path class="cls-1" d="M231.59,598.72c.66,2.98,1.33,5.96,1.99,8.94"/>
  <path class="cls-1" d="M670.9,409.01c.66,2.65,1.33,5.3,1.99,7.95"/>
  <path class="cls-1" d="M763.34,155.72l8.95,2.98"/>
  <path class="cls-1" d="M835.89,337.49c-.66,2.65-1.33,5.3-1.99,7.95"/>
  <path class="cls-1" d="M460.19,407.02c-2.65,1.32-5.3,2.65-7.95,3.97"/>
  <path class="cls-1" d="M629.16,420.93c-2.39,1.37-7.36.6-4.97,5.96"/>
  <path class="cls-1" d="M748.43,142.81c3.84,4.71,7.69,9.41,11.53,14.12.87-.6,1.74-1.21,2.61-1.81-.74-1.45-1.47-2.91-2.21-4.36"/>
  <path class="cls-1" d="M199.78,188.5c-.76.91-1.52,1.83-3.31,3.97h7.29"/>
  <path class="cls-1" d="M259.42,626.53c5.36,5.08,4.83,10.79,2.03,16.91-1.23,2.68-2.61,5.68.95,7.92"/>
  <path class="cls-1" d="M666.93,425.89c-.66,2.98-1.33,5.96-1.99,8.94"/>
  <path class="cls-1" d="M824.96,368.28c.66,3.97,1.33,7.95,1.99,11.92"/>
  <path class="cls-1" d="M513.86,345.44c-2.32-.61-4.65-1.21-7.45-1.95v4.84c1.65-1.38,2.57-2.14,3.48-2.9"/>
  <path class="cls-1" d="M863.72,333.52v9.83c-2.79-1.65-4.46-2.63-5.56-3.28.62-1.8,1.1-3.18,1.58-4.57"/>
  <path class="cls-1" d="M395.59,533.17c.33,4.3.66,8.61.99,12.91"/>
  <path class="cls-1" d="M662.95,319.61c-1.32.99-2.65,1.99-3.97,2.98.66,1.65,1.32,3.31,1.98,4.97"/>
  <path class="cls-1" d="M835.89,307.69c-5.72-.94-3.6,3.34-3.98,5.96"/>
  <path class="cls-1" d="M908.45,264.98c-2.98,1.66-5.96,3.31-8.95,4.97"/>
  <path class="cls-1" d="M476.09,214.33c-3.31.66-6.63,1.32-9.94,1.99"/>
  <path class="cls-1" d="M448.26,446.75c3.83-3.15,5.85,1.83,8.89,2.25.36-.65.72-1.29,1.09-1.94-1.01-.43-2.01-.87-3.02-1.3"/>
  <path class="cls-1" d="M766.32,136.85c-.66.66-1.33,1.32-1.99,1.99,3.31,2.65,6.63,5.3,9.94,7.95"/>
  <path class="cls-1" d="M239.54,430.86l-8.95,2.98"/>
  <path class="cls-1" d="M537.72,224.26c-.99,4.97-1.99,9.93-2.98,14.9"/>
  <path class="cls-1" d="M162.02,331.53l-8.95,2.98"/>
  <path class="cls-1" d="M74.55,379.21c4.64,6.62,9.28,13.24,13.91,19.87"/>
  <path class="cls-1" d="M717.62,165.66c-.66,2.65-1.32,5.3-2.24,8.94h-6.71"/>
  <path class="cls-1" d="M625.18,195.45v14.32c2.57.83,5.26,1.7,7.95,2.56"/>
  <path class="cls-1" d="M589.4,194.46c-.67,2.98-1.34,5.96-2.51,11.13,2.75-2.1,4.12-3.14,5.49-4.18"/>
  <path class="cls-1" d="M896.52,218.3c2.32,2.65,4.64,5.3,6.96,7.95"/>
  <path class="cls-1" d="M321.04,540.12c-2.98,1.32-5.96,2.65-8.95,3.97"/>
  <path class="cls-1" d="M522.81,282.86c2.32,4.97,4.64,9.93,6.96,14.9"/>
  <path class="cls-1" d="M416.46,238.17c-1.46.73-2.93,1.46-4.39,2.19.12.49.24.97.37,1.46,1.34.11,2.68.22,4.03.33"/>
  <path class="cls-1" d="M593.38,124.93c.66-.66,1.33-1.32,1.99-1.99,5.63,6.95,11.26,13.91,16.9,20.86"/>
  <path class="cls-1" d="M332.97,561.97c-2.98.33-5.96.66-8.95.99"/>
  <path class="cls-1" d="M914.41,282.86c2.18,2.98,1.36,8.74-1.99,13.91"/>
  <path class="cls-1" d="M551.63,87.19c-2.65.66-5.3,1.32-7.95,1.99"/>
  <path class="cls-1" d="M390.62,130.89c-4.64,1.32-9.28,2.65-13.91,3.97"/>
  <path class="cls-1" d="M606.3,164.66l2.98,5.96"/>
  <path class="cls-1" d="M639.1,70.3c6.29,3.97,12.59,7.95,18.88,11.92"/>
  <path class="cls-1" d="M325.02,289.82c-2.65.66-5.3,1.32-7.95,1.99"/>
  <path class="cls-1" d="M564.55,289.82c2.32,3.97,4.64,7.95,6.96,11.92"/>
  <path class="cls-1" d="M788.19,345.44h-7.95"/>
  <path class="cls-1" d="M529.77,321.6c-2.65.66-5.3,1.32-7.95,1.99"/>
  <path class="cls-1" d="M792.16,184.53c-2.65.66-5.3,1.32-7.95,1.99"/>
  <path class="cls-1" d="M342.91,405.03c-2.65.66-5.3,1.32-7.95,1.99"/>
  <path class="cls-1" d="M494.98,136.85c-1.66-1.32-3.31-2.65-4.97-3.97"/>
  <path class="cls-1" d="M428.39,375.24c-2.65.66-5.3,1.32-7.95,1.99"/>
  <path class="cls-1" d="M480.07,357.36c-2.65.66-5.3,1.32-7.95,1.99"/>
  <path class="cls-1" d="M736.5,164.66h-7.95"/>
  <path class="cls-1" d="M882.61,320.61c-2.65.66-5.3,1.32-7.95,1.99"/>
  <path class="cls-1" d="M484.05,424.9c-2.65.66-5.3,1.32-7.95,1.99"/>
  <path class="cls-1" d="M424.41,201.41c1.99,1.66,3.98,3.31,5.96,4.97"/>
  <path class="cls-1" d="M260.41,652.36c.66.99,1.33,1.99,1.99,2.98.66-.99,1.33-1.99,1.99-2.98"/>
  <path class="cls-1" d="M758.37,393.12h-7.95"/>
  <path class="cls-1" d="M464.17,136.85c-2.65.33-5.3.66-7.95.99"/>
  <path class="cls-1" d="M760.36,321.6h-7.95"/>
  <path class="cls-1" d="M287.25,405.03c-2.65.66-5.3,1.32-7.95,1.99"/>
  <path class="cls-1" d="M370.74,265.98c-2.65.66-5.3,1.32-7.95,1.99"/>
  <path class="cls-1" d="M682.83,333.52h-7.95"/>
  <path class="cls-1" d="M674.88,198.43c-1.66,1.66-3.31,3.31-4.97,4.97"/>
  <path class="cls-1" d="M756.38,333.52h-7.95"/>
  <path class="cls-1" d="M410.5,381.2c-2.65.66-5.3,1.32-7.95,1.99"/>
  <path class="cls-1" d="M264.39,202.41c-1.66-1.32-3.31-2.65-4.97-3.97"/>
  <path class="cls-1" d="M396.58,154.73c-6.63-5.3-13.25-10.59-19.88-15.89"/>
  <path class="cls-1" d="M635.12,446.75c-3.09,1.43-6.17,2.87-9.94,4.62v9.29"/>
  <path class="cls-1" d="M587.41,311.67l-5.96,2.98"/>
  <path class="cls-1" d="M472.12,113.01l-7.95-1.99"/>
  <path class="cls-1" d="M756.38,329.55h-7.95"/>
  <path class="cls-1" d="M850.8,359.34c2.32,1.99,4.64,3.97,6.96,5.96"/>
  <path class="cls-1" d="M837.88,216.31c.76.53,1.52,1.05,2.25,1.56-1.94,2.73-3.59,5.06-5.23,7.38"/>
  <path class="cls-1" d="M851.8,327.56c-1.66,4.97-3.31,9.93-4.97,14.9"/>
  <path class="cls-1" d="M536.72,294.78c2.65,2.65,5.3,5.3,7.95,7.95"/>
  <path class="cls-1" d="M788.19,349.41h-7.95"/>
  <path class="cls-1" d="M245.5,606.67c-.99.66-1.99,1.32-3.71,2.46,1.06,2.13,2.19,4.4,3.38,6.8,1.98-1.98,3.64-3.63,5.29-5.29"/>
  <path class="cls-1" d="M776.26,204.39h-7.95"/>
  <path class="cls-1" d="M90.45,389.14c2.03,2.62,4.05,5.24,5.96,7.7.92-.54,1.95-1.14,2.98-1.75"/>
  <path class="cls-1" d="M758.37,420.93c-2.65-.66-5.3-1.32-7.95-1.99"/>
  <path class="cls-1" d="M766.32,180.56v7.95"/>
  <path class="cls-1" d="M553.62,454.7c.66,4.3,1.33,8.61,1.99,12.91"/>
  <path class="cls-1" d="M8.95,285.84v7.95"/>
  <path class="cls-1" d="M332.97,389.14c-2.65.66-5.3,1.32-7.95,1.99"/>
  <path class="cls-1" d="M386.64,269.95c-2.65.66-5.3,1.32-7.95,1.99"/>
  <path class="cls-1" d="M587.41,105.07c-2.65-.66-5.3-1.32-7.95-1.99"/>
  <path class="cls-1" d="M263.4,170.62l-5.96,5.96"/>
  <path class="cls-1" d="M167.98,319.61c-2.65.66-5.3,1.32-7.95,1.99"/>
  <path class="cls-1" d="M906.46,276.9c-.33,1.32-.66,2.65-1.59,6.38.35.15,1.97.86,3.58,1.57"/>
  <path class="cls-1" d="M774.27,335.51h-7.95"/>
  <path class="cls-1" d="M563.56,313.65c.73,1.08,1.45,2.16,3.44,5.12-4.83-1.61-7.11-2.37-9.4-3.13"/>
  <path class="cls-1" d="M722.59,170.62c-.66,2.65-1.33,5.3-1.99,7.95"/>
  <path class="cls-1" d="M911.43,310.67c-1.09,3.95-2.17,7.9-3.24,11.8-2.09-1.08-4.44-2.29-6.78-3.5l-1.56,1.95c.9,1.87,1.8,3.75,4.07,8.47,1.13-2.57,1.83-4.19,2.54-5.8"/>
  <path class="cls-1" d="M740.48,327.56h-7.95"/>
  <path class="cls-1" d="M460.19,116.99c-.43-1.71-.85-3.42-1.7-6.79-1.81,5.4-3.04,9.08-4.27,12.75"/>
  <path class="cls-1" d="M647.05,337.49h-7.95"/>
  <path class="cls-1" d="M736.5,343.45h-7.95"/>
  <path class="cls-1" d="M470.13,351.4c-2.65.66-5.3,1.32-7.95,1.99"/>
  <path class="cls-1" d="M842.85,197.44l-7.95-3.97"/>
  <path class="cls-1" d="M660.96,86.2c-.66,7.62-1.33,15.23-1.99,22.85"/>
  <path class="cls-1" d="M790.17,337.49h-7.95"/>
  <path class="cls-1" d="M871.68,353.38c1.33,1.32,2.65,2.65,3.98,3.97-4.1,5.12-5.51-.5-7.95-1.98"/>
  <path class="cls-1" d="M738.49,405.03v7.95"/>
  <path class="cls-1" d="M539.71,327.56c-2.65.66-5.3,1.32-7.95,1.99"/>
  <path class="cls-1" d="M734.51,401.06c-.66,2.65-1.33,5.3-1.99,7.95"/>
  <path class="cls-1" d="M550.64,469.6c-.99,2.32-1.99,4.64-2.98,6.95"/>
  <path class="cls-1" d="M714.64,178.57c-.93,6.46,1.01,12.28,3.98,17.88"/>
  <path class="cls-1" d="M730.54,156.72h-7.95"/>
  <path class="cls-1" d="M354.84,391.13c-2.65.66-5.3,1.32-7.95,1.99"/>
  <path class="cls-1" d="M553.62,115c-3.82.78-7.64,1.55-11.45,2.33-.19-.84-.38-1.67-.57-2.51,2.35-1.26,4.7-2.53,7.05-3.79"/>
  <path class="cls-1" d="M32.81,317.63v7.95"/>
  <path class="cls-1" d="M444.29,369.28c-2.65-.66-5.3-1.32-7.95-1.99"/>
  <path class="cls-1" d="M704.7,397.09h-7.95"/>
  <path class="cls-1" d="M690.78,178.57h-7.95"/>
  <path class="cls-1" d="M762.34,428.87h-7.95"/>
  <path class="cls-1" d="M778.25,148.77c2.65,1.99,5.3,3.97,7.95,5.96"/>
  <path class="cls-1" d="M770.3,391.13h-7.95"/>
  <path class="cls-1" d="M750.42,174.6h-7.95"/>
  <path class="cls-1" d="M402.54,256.04c-2.65.66-5.3,1.32-7.95,1.99"/>
  <path class="cls-1" d="M875.65,254.06c.23,1.02.45,2.03,1.28,5.73,3.64-4.07,6.15-6.89,8.66-9.7"/>
  <path class="cls-1" d="M530.76,192.47c-.33,2.65-.66,5.3-.99,7.95"/>
  <path class="cls-1" d="M625.18,325.57h-7.95"/>
  <path class="cls-1" d="M734.51,339.48h-7.95"/>
  <path class="cls-1" d="M593.38,399.07c-1.99-1.32-3.98-2.65-5.96-3.97"/>
  <path class="cls-1" d="M770.3,339.48h-7.95"/>
  <path class="cls-1" d="M808.06,339.48h-7.95"/>
  <path class="cls-1" d="M664.94,438.81v7.95"/>
  <path class="cls-1" d="M839.87,180.56c-2.65-1.32-5.3-2.65-7.95-3.97"/>
  <path class="cls-1" d="M680.84,341.47h-7.95"/>
  <path class="cls-1" d="M806.08,176.58c-2.65.66-5.3,1.32-7.95,1.99"/>
  <path class="cls-1" d="M297.19,279.88c-2.65.66-5.3,1.32-7.95,1.99"/>
  <path class="cls-1" d="M794.15,325.57h-7.95"/>
  <path class="cls-1" d="M756.38,325.57h-7.95"/>
  <path class="cls-1" d="M366.76,377.22c-2.65.66-5.3,1.32-7.95,1.99"/>
  <path class="cls-1" d="M806.08,395.1c-.66,3.97-1.33,7.95-1.99,11.92"/>
  <path class="cls-1" d="M41.75,306.7c-.8-.27-1.59-.53-2.39-.8l1.51-2.04c2.01,2.63,4.02,5.26,6.03,7.9-.79.43-1.58.86-2.37,1.3l-.8-2.38"/>
  <path class="cls-1" d="M438.33,339.48c1.99.66,3.98,1.32,5.96,1.99"/>
  <path class="cls-1" d="M175.93,514.29c5.08,3.9-3.26,3.33-1.99,5.96"/>
  <path class="cls-1" d="M323.03,158.7c.29-1.33.57-2.67.75-3.5,2.5.52,4.85,1.02,7.2,1.51"/>
  <path class="cls-1" d="M211.71,561.97c-1.08,2.74-2.16,5.49-3.48,8.83,1.42,1.83,3.44,4.45,5.47,7.07"/>
  <path class="cls-1" d="M707.68,149.76c2.32.33,4.64.66,6.96.99"/>
  <path class="cls-1" d="M114.31,421.92c-.66,2.32-1.33,4.64-1.99,6.95"/>
  <path class="cls-1" d="M529.77,419.93c-.75,1.13-1.5,2.27-2.25,3.4l-1.85-1.08c.7-1.11,1.41-2.21,2.11-3.32"/>
  <path class="cls-1" d="M701.72,100.1c-5.6.36-8.72,3.21-8.95,8.94"/>
  <path class="cls-1" d="M521.82,211.35c.33,2.32.66,4.64.99,6.95"/>
  <path class="cls-1" d="M620.21,211.35c.66.99,1.32,1.99,2.42,3.63.95-1.36,1.75-2.5,2.55-3.63"/>
  <path class="cls-1" d="M620.21,32.56c.99,2.32,1.99,4.64,2.98,6.95"/>
  <path class="cls-1" d="M285.26,297.76c-.76.91-1.52,1.83-2.98,3.57,2.28.18,3.62.29,4.96.4"/>
  <path class="cls-1" d="M586.42,23.62c2.32,1.99,4.64,3.97,6.96,5.96"/>
  <path class="cls-1" d="M265.38,188.5c-.76.91-1.52,1.83-2.98,3.57,2.28.18,3.62.29,4.96.4"/>
  <path class="cls-1" d="M536.72,284.85c3.31,3.97,6.63,7.95,9.94,11.92"/>
  <path class="cls-1" d="M901.49,230.22c-.91-.76-1.83-1.52-4.77-3.97,1.06,3.52,1.43,4.74,1.79,5.96"/>
  <path class="cls-1" d="M368.75,391.13c.76.91,1.52,1.83,2.28,2.74l-.64,1.44c-2.53-.73-5.07-1.46-7.6-2.2"/>
  <path class="cls-1" d="M577.47,193.47c-3.64,1.32-7.29,2.65-10.93,3.97"/>
  <path class="cls-1" d="M592.38,360.34c-2.32.99-4.64,1.99-6.96,2.98"/>
  <path class="cls-1" d="M601.33,101.09l-2.98,5.96"/>
  <path class="cls-1" d="M324.02,180.56c.96,1.13,1.91,2.25,2.87,3.38-.68.56-1.37,1.13-2.05,1.69-.6-1.03-1.21-2.06-1.81-3.09"/>
  <path class="cls-1" d="M812.04,390.14c-.33,2.32-.66,4.64-.99,6.95"/>
  <path class="cls-1" d="M740.48,188.5c-1.99.66-3.98,1.32-5.96,1.99"/>
  <path class="cls-1" d="M637.11,190.49c-.75,2.96-1.5,5.92-2.22,8.76,1.56,1.17,2.88,2.17,4.21,3.16"/>
  <path class="cls-1" d="M619.22,462.64c1.33,1.99,2.65,3.97,3.98,5.96"/>
  <path class="cls-1" d="M760.36,188.5c-.19,2.96-.38,5.92-.63,9.93h-5.33"/>
  <path class="cls-1" d="M175.93,387.16c1.42,2.84,2.85,5.69,4.65,9.29-2.34-.22-3.26-.05-3.58-.41-.33-.37-.07-1.26-.07-1.92"/>
  <path class="cls-1" d="M557.6,319.61l2.98,5.96"/>
  <path class="cls-1" d="M426.4,248.1c-.11-1.34-.22-2.68-.32-3.97h-3.65"/>
  <path class="cls-1" d="M16.9,286.84c1.33,2.32,2.65,4.64,3.98,6.95"/>
  <path class="cls-1" d="M522.81,254.06c3.26,2.72,6.51,5.45,11.19,9.37-.73-2.57-.93-3.51-1.28-4.39-.16-.4-.63-.93-.96-.93-.33,0-.66.59-.99.92"/>
  <path class="cls-1" d="M217.68,575.88c1.33,1.32,2.65,2.65,5.96,5.96h-9.94"/>
  <path class="cls-1" d="M209.72,293.79c1.99.66,3.98,1.32,5.96,1.99"/>
  <path class="cls-1" d="M22.87,289.82c2.18,3.4,8.34,5,4.96,10.92-.22.39-.65.67-.98,1-.33-.33-.66-.66-.99-.99"/>
  <path class="cls-1" d="M412.48,233.2c.73-1.09,1.45-2.19,2.18-3.28.52.98,1.04,1.95,1.56,2.93-3.9,1.11-7.79,2.22-11.69,3.33"/>
  <path class="cls-1" d="M870.68,219.29c2.65,3.97,5.3,7.95,7.95,11.92"/>
  <path class="cls-1" d="M218.67,446.75c-.33,3.97-.66,7.95-.99,11.92"/>
  <path class="cls-1" d="M535.73,194.46c-1.33-2.65-2.47-5.41-4.04-7.91-.97-1.55-2.58-2.69-3.91-4.01"/>
  <path class="cls-1" d="M826.95,224.26c.66-1.66,1.33-3.31,1.99-4.97"/>
  <path class="cls-1" d="M883.6,327.56c-1.85-.49-3.7-.99-5.55-1.48-.14.82-.27,1.65-.41,2.47h9.65c-3.35,1.39,1.37,7.88-5.67,4.97"/>
  <path class="cls-1" d="M912.43,253.06c-2.32,2.32-4.64,4.64-6.96,6.95"/>
  <path class="cls-1" d="M571.51,182.54c-10.93,3.31-21.87,6.62-32.8,9.93"/>
  <path class="cls-1" d="M439.32,370.27c-2.32.99-4.64,1.99-6.96,2.98"/>
  <path class="cls-1" d="M97.41,398.08c1.66,2.32,3.31,4.64,4.97,6.95"/>
  <path class="cls-1" d="M776.26,416.95c1.33,1.32,2.65,2.65,3.98,3.97"/>
  <path class="cls-1" d="M605.3,159.7c.96,8.97-7.21,5.4-10.93,7.95"/>
  <path class="cls-1" d="M187.86,551.04c.33,3.31.66,6.62.99,9.93"/>
  <path class="cls-1" d="M772.28,410.99c-.66,1.99-1.33,3.97-1.99,5.96"/>
  <path class="cls-1" d="M52.68,333.52c.66,1.99,1.33,3.97,1.99,5.96"/>
  <path class="cls-1" d="M535.73,405.03c-2.32.99-4.64,1.99-6.96,2.98"/>
  <path class="cls-1" d="M366.76,452.71c-.66,1.99-1.33,3.97-1.99,5.96"/>
  <path class="cls-1" d="M215.69,309.68c-1.33,1.66-2.65,3.31-3.98,4.97"/>
  <path class="cls-1" d="M386.64,450.72c-.76.91-1.52,1.83-2.98,3.57,2.28.18,3.62.29,4.96.4"/>
  <path class="cls-1" d="M530.76,392.12c-2.32.99-4.64,1.99-6.96,2.98"/>
  <path class="cls-1" d="M169.97,497.41c1.66,1.32,3.31,2.65,4.97,3.97"/>
  <path class="cls-1" d="M45.73,332.53c.33.99.66,1.99.99,2.98.33-.99.66-1.99.99-2.98"/>
  <path class="cls-1" d="M493.99,247.1c3.98,3.64,7.95,7.28,11.93,10.93"/>
  <path class="cls-1" d="M428.39,498.4c-1.99.66-3.98,1.32-5.96,1.99"/>
  <path class="cls-1" d="M442.3,498.4c-1.99.66-3.98,1.32-5.96,1.99"/>
  <path class="cls-1" d="M517.84,498.4c-1.99.66-3.98,1.32-5.96,1.99"/>
  <path class="cls-1" d="M372.73,546.08c-1.99.66-3.98,1.32-5.96,1.99"/>
  <path class="cls-1" d="M492,357.36c-1.99.66-3.98,1.32-5.96,1.99"/>
  <path class="cls-1" d="M382.67,552.04c-1.99.66-3.98,1.32-5.96,1.99"/>
  <path class="cls-1" d="M527.78,494.43c-1.99.66-3.98,1.32-5.96,1.99"/>
  <path class="cls-1" d="M788.19,198.43c-2.67.32-5.65.49-1.99,3.97"/>
  <path class="cls-1" d="M553.62,375.24c-1.99.66-3.98,1.32-5.96,1.99"/>
  <path class="cls-1" d="M472.12,331.53c-1.99.66-3.98,1.32-5.96,1.99"/>
  <path class="cls-1" d="M4.98,275.91c.66,1.99,1.33,3.97,1.99,5.96"/>
  <path class="cls-1" d="M185.87,540.12c-3.51,4.36.34,4.11,2.96,5.04,2.02.72,3.81,2.11,5.7,3.21l-2.18,2.64c-1.5-1.31-2.99-2.62-4.49-3.93"/>
  <path class="cls-1" d="M537.72,490.46c-1.99.66-3.98,1.32-5.96,1.99"/>
  <path class="cls-1" d="M814.03,385.17c0,1.32-.15,2.67.03,3.97.3,2.08,6.18,2.35,1.95,5.96"/>
  <path class="cls-1" d="M849.81,354.38c-.66,3.64-1.33,7.28-1.99,10.93"/>
  <path class="cls-1" d="M342.91,558c-1.99.66-3.98,1.32-5.96,1.99"/>
  <path class="cls-1" d="M790.17,168.64c-1.99.66-3.98,1.32-5.96,1.99"/>
  <path class="cls-1" d="M199.78,558c1.33,1.99,2.65,3.97,3.98,5.96"/>
  <path class="cls-1" d="M839.87,307.69c1.41,1.24,2.82,2.48,4.23,3.71-.75.09-1.5.17-2.25.26v5.96"/>
  <path class="cls-1" d="M462.18,490.46c-1.99.66-3.98,1.32-5.96,1.99"/>
  <path class="cls-1" d="M682.83,422.91c-.66,1.99-1.33,3.97-1.99,5.96"/>
  <path class="cls-1" d="M319.06,412.98c-1.99.66-3.98,1.32-5.96,1.99"/>
  <path class="cls-1" d="M332.97,412.98c-1.99.66-3.98,1.32-5.96,1.99"/>
  <path class="cls-1" d="M330.98,399.07c-1.99.66-3.98,1.32-5.96,1.99"/>
  <path class="cls-1" d="M596.36,192.47c-.37,2.65-6.92,5.3,0,7.95"/>
  <path class="cls-1" d="M342.91,542.11c-1.99.66-3.98,1.32-5.96,1.99"/>
  <path class="cls-1" d="M455.22,196.45c1.99,1.66,3.98,3.31,5.96,4.97"/>
  <path class="cls-1" d="M362.79,559.98c-1.99.66-3.98,1.32-5.96,1.99"/>
  <path class="cls-1" d="M867.7,234.19c.66,3.31,1.33,6.62,1.99,9.93"/>
  <path class="cls-1" d="M448.26,412.98c-1.99.66-3.98,1.32-5.96,1.99"/>
  <path class="cls-1" d="M476.09,436.82c-1.99.66-3.98,1.32-5.96,1.99"/>
  <path class="cls-1" d="M587.41,436.82c-1.99.66-3.98,1.32-5.96,1.99"/>
  <path class="cls-1" d="M486.03,486.48c-3.13,0-7.52,5.66-8.95-1.99"/>
  <path class="cls-1" d="M839.87,387.16l-5.96,5.96"/>
  <path class="cls-1" d="M289.24,305.71c-2.17,1.42-7.89.48-3.98,5.96"/>
  <path class="cls-1" d="M334.96,540.12c-1.99.66-3.98,1.32-5.96,1.99"/>
  <path class="cls-1" d="M442.3,508.33c-1.99.66-3.98,1.32-5.96,1.99"/>
  <path class="cls-1" d="M859.75,198.43c3.66-3.48.68-3.65-1.99-3.97"/>
  <path class="cls-1" d="M92.44,399.07v5.96"/>
  <path class="cls-1" d="M653.01,420.93c-1.99.66-3.98,1.32-5.96,1.99"/>
  <path class="cls-1" d="M904.48,229.23c1,1.99,1.99,3.97,3.7,7.37-2.63.88-5.16,1.72-7.68,2.56"/>
  <path class="cls-1" d="M352.85,563.96c-1.99.66-3.98,1.32-5.96,1.99"/>
  <path class="cls-1" d="M372.73,399.07c-1.99.66-3.98,1.32-5.96,1.99"/>
  <path class="cls-1" d="M526.78,215.32c2.11-2.49,4.23-4.98,6.41-7.55-6.73-5.08-10.71,3.24-16.34,4.57"/>
  <path class="cls-1" d="M219.66,327.56l-5.96,5.96"/>
  <path class="cls-1" d="M660.96,412.98c-1.99.66-3.98,1.32-5.96,1.99"/>
  <path class="cls-1" d="M376.7,438.81c-1.99.66-3.98,1.32-5.96,1.99"/>
  <path class="cls-1" d="M672.89,193.47c-3.31.99-6.63,1.99-9.94,2.98"/>
  <path class="cls-1" d="M662.95,430.86c-1.99.66-3.98,1.32-5.96,1.99"/>
  <path class="cls-1" d="M480.07,478.54c-1.99,1-3.97,1.99-6.69,3.36,1.43,1,2.57,1.8,3.71,2.6"/>
  <path class="cls-1" d="M835.89,373.25c-.99,4.97-1.97,9.94-3.01,14.89-.08.38-.63.67-.96,1-.33-.33-.66-.66-.99-.99"/>
  <path class="cls-1" d="M57.65,326.57l2.98,5.96"/>
  <path class="cls-1" d="M603.32,430.86c-1.99.66-3.98,1.32-5.96,1.99"/>
  <path class="cls-1" d="M750.42,315.64h-13.91"/>
  <path class="cls-1" d="M573.5,391.13c-1.99.66-3.98,1.32-5.96,1.99"/>
  <path class="cls-1" d="M493.99,478.54c-1.99.66-3.98,1.32-5.96,1.99"/>
  <path class="cls-1" d="M573.5,176.58v9.93"/>
  <path class="cls-1" d="M352.85,401.06c-1.99.66-3.98,1.32-5.96,1.99"/>
  <path class="cls-1" d="M404.53,438.81c-1.99.66-3.98,1.32-5.96,1.99"/>
  <path class="cls-1" d="M444.29,438.81c-1.99.66-3.98,1.32-5.96,1.99"/>
  <path class="cls-1" d="M330.98,536.15c-1.99.66-3.98,1.32-5.96,1.99"/>
  <path class="cls-1" d="M381.67,145.79c2.32,3.64,4.64,7.28,6.96,10.93"/>
  <path class="cls-1" d="M772.28,152.74c.99-.33,1.97-.74,2.99-.94.26-.05.65.61.98.94-.99.33-1.99.66-2.98.99"/>
  <path class="cls-1" d="M426.4,430.86c-1.99.66-3.98,1.32-5.96,1.99"/>
  <path class="cls-1" d="M422.42,516.28c-1.99.66-3.98,1.32-5.96,1.99"/>
  <path class="cls-1" d="M877.64,315.64c2.32,1.32,4.64,2.65,6.96,3.97"/>
  <path class="cls-1" d="M639.1,152.74h-5.96"/>
  <path class="cls-1" d="M643.07,424.9c-1.99.66-3.98,1.32-5.96,1.99"/>
  <path class="cls-1" d="M575.49,395.1c-1.99.66-3.98,1.32-5.96,1.99"/>
  <path class="cls-1" d="M770.3,428.87c-.66,1.99-1.33,3.97-1.99,5.96"/>
  <path class="cls-1" d="M577.47,440.79c-1.99.66-3.98,1.32-5.96,1.99"/>
  <path class="cls-1" d="M521.82,401.06c-1.99.66-3.98,1.32-5.96,1.99"/>
  <path class="cls-1" d="M523.8,476.55c-1.99.66-3.98,1.32-5.96,1.99"/>
  <path class="cls-1" d="M651.03,416.95c-1.99.66-3.98,1.32-5.96,1.99"/>
  <path class="cls-1" d="M656.99,428.87c-1.99.66-3.98,1.32-5.96,1.99"/>
  <path class="cls-1" d="M497.96,428.87c-1.99.66-3.98,1.32-5.96,1.99"/>
  <path class="cls-1" d="M574.49,324.58c3.64-.33,7.29-.66,10.93-.99"/>
  <path class="cls-1" d="M662.95,416.95c-1.99.66-3.98,1.32-5.96,1.99"/>
  <path class="cls-1" d="M645.06,442.78c-1.99.66-3.98,1.32-5.96,1.99"/>
  <path class="cls-1" d="M597.35,466.62c-1.99.66-3.98,1.32-5.96,1.99"/>
  <path class="cls-1" d="M523.8,466.62c-1.99.66-3.98,1.32-5.96,1.99"/>
  <path class="cls-1" d="M579.46,464.63c-1.99.66-3.98,1.32-5.96,1.99"/>
  <path class="cls-1" d="M515.85,464.63c-1.99.66-3.98,1.32-5.96,1.99"/>
  <path class="cls-1" d="M68.59,242.14c1.33,1.99,2.65,3.97,3.98,5.96"/>
  <path class="cls-1" d="M595.37,180.56c.99,1.32,1.99,2.65,2.98,3.97-5.5,3.64.89,7.28,0,10.93"/>
  <path class="cls-1" d="M398.57,385.17c-1.99.66-3.98,1.32-5.96,1.99"/>
  <path class="cls-1" d="M594.37,188.5c-2.98.33-5.96.66-8.95.99"/>
  <path class="cls-1" d="M624.19,66.33c-1.98.67-3.97,1.35-5.61,1.91-.12,2.08-.24,4.06-.35,6.04"/>
  <path class="cls-1" d="M340.92,532.17c-1.99.66-3.98,1.32-5.96,1.99"/>
  <path class="cls-1" d="M476.09,403.05c-1.99.66-3.98,1.32-5.96,1.99"/>
  <path class="cls-1" d="M533.74,462.64c-1.99.66-3.98,1.32-5.96,1.99"/>
  <path class="cls-1" d="M462.18,140.82h-6.21c.42,1.7.83,3.33,1.24,4.97"/>
  <path class="cls-1" d="M543.68,458.67c-1.99.66-3.98,1.32-5.96,1.99"/>
  <path class="cls-1" d="M252.46,618.59c-.79,1.78-1.57,3.56-2.36,5.34.45.2.91.41,1.36.61-1.32.99-2.65,1.99-3.97,2.98"/>
  <path class="cls-1" d="M412.48,385.17c-1.99.66-3.98,1.32-5.96,1.99"/>
  <path class="cls-1" d="M615.24,454.7c-1.99.66-3.98,1.32-5.96,1.99"/>
  <path class="cls-1" d="M569.52,220.29c-1.99-.66-3.98-1.32-5.96-1.99"/>
  <path class="cls-1" d="M382.67,381.2c-1.99.66-3.98,1.32-5.96,1.99"/>
  <path class="cls-1" d="M541.69,454.7c-1.99.66-3.98,1.32-5.96,1.99"/>
  <path class="cls-1" d="M69.58,348.42l-.78,2.75,1.63.58c.38-1.11.76-2.22,1.14-3.32"/>
  <path class="cls-1" d="M376.7,448.74c-1.99.66-3.98,1.32-5.96,1.99"/>
  <path class="cls-1" d="M299.18,405.03c-1.99.66-3.98,1.32-5.96,1.99"/>
  <path class="cls-1" d="M420.44,452.71c-1.99.66-3.98,1.32-5.96,1.99"/>
  <path class="cls-1" d="M62.62,244.12c-.07,1.33-.15,2.65-.22,3.98.85-.57,1.7-1.15,2.55-1.72-3.1-2.41-6.19-4.81-9.28-7.23-.37-.29-.93-.66-.93-.99s.59-.66.92-.99"/>
  <path class="cls-1" d="M438.33,450.72c-1.99.66-3.98,1.32-5.96,1.99"/>
  <path class="cls-1" d="M295.2,289.82c-1.99.66-3.98,1.32-5.96,1.99"/>
  <path class="cls-1" d="M613.26,426.89c-1.99.66-3.98,1.32-5.96,1.99"/>
  <path class="cls-1" d="M591.39,321.6c-3.23,1.27-8.05-2.75-9.94,2.98"/>
  <path class="cls-1" d="M106.36,404.04c7.51,5.63,14.07,12.07,17.89,20.86"/>
  <path class="cls-1" d="M807.07,183.54c-.99,1.66-1.99,3.31-2.98,4.97"/>
  <path class="cls-1" d="M508.89,261.01c2.65,3.31,5.3,6.62,7.95,9.93"/>
  <path class="cls-1" d="M411.49,253.06c-1.66.33-3.31.66-4.97.99"/>
  <path class="cls-1" d="M806.08,180.56c5.16,2.77,5.08,8.37,6.96,12.91"/>
  <path class="cls-1" d="M91.45,376.23c.99,1.66,1.99,3.31,2.98,4.97"/>
  <path class="cls-1" d="M5.97,251.08c2.26,3.84,4.53,7.69,6.79,11.53-.74.38-1.48.77-2.23,1.15-.2-.92-.39-1.83-.59-2.75"/>
  <path class="cls-1" d="M539.71,186.52c-1.33,4.64-2.65,9.27-3.98,13.91"/>
  <path class="cls-1" d="M1.99,249.09c.33.99.66,1.99.99,2.98.33-.99.66-1.99.99-2.98"/>
  <path class="cls-1" d="M598.35,82.22c-1.66.33-3.31.66-4.97.99"/>
  <path class="cls-1" d="M13.92,266.97c.33,1.66.66,3.31.99,4.97"/>
  <path class="cls-1" d="M108.34,414.97v4.97"/>
  <path class="cls-1" d="M504.92,266.97c1.99,2.65,3.98,5.3,5.96,7.95"/>
  <path class="cls-1" d="M446.28,373.25c-1.66.99-3.31,1.99-4.97,2.98"/>
  <path class="cls-1" d="M598.35,90.17c-1.66.33-3.31.66-4.97.99"/>
  <path class="cls-1" d="M171.95,523.23c1.99,2.98,3.98,5.96,5.96,8.94"/>
  <path class="cls-1" d="M842.85,239.16c-1.66.33-3.31.66-4.97.99"/>
  <path class="cls-1" d="M73.56,364.31c.99,1.66,1.99,3.31,2.98,4.97"/>
  <path class="cls-1" d="M908.45,237.17c.66,1.99,1.33,3.97,1.99,5.96"/>
  <path class="cls-1" d="M882.61,237.17c-1.66,1.66-3.31,3.31-4.97,4.97"/>
  <path class="cls-1" d="M604.31,28.59c4.31,4.3,8.61,8.61,12.92,12.91"/>
  <path class="cls-1" d="M127.23,431.85c.33.99.66,1.99.99,2.98.33-.99.66-1.99.99-2.98"/>
  <path class="cls-1" d="M700.72,95.13c5.3,4.97,10.6,9.93,15.9,14.9"/>
  <path class="cls-1" d="M904.48,233.2c-2.98,2.98-5.96,5.96-8.95,8.94"/>
  <path class="cls-1" d="M844.84,233.2c1.21,1.66,5.4,3.31,0,4.97"/>
  <path class="cls-1" d="M822.97,358.35c1.66,1.66,3.31,3.31,4.97,4.97"/>
  <path class="cls-1" d="M131.2,433.84c.99,1.66,1.99,3.31,2.98,4.97"/>
  <path class="cls-1" d="M880.62,231.21c1.66,2.98,3.31,5.96,4.97,8.94"/>
  <path class="cls-1" d="M559.58,109.04c3.31.66,6.63,1.32,9.94,1.99"/>
  <path class="cls-1" d="M232.58,608.65c.33.99.66,1.99.99,2.98.33-.99.66-1.99.99-2.98"/>
  <path class="cls-1" d="M66.6,353.38c1.99,2.65,3.98,5.3,5.96,7.95"/>
  <path class="cls-1" d="M540.7,278.89c2.65,3.31,5.3,6.62,7.95,9.93"/>
  <path class="cls-1" d="M143.13,354.38c.33.99.66,1.99.99,2.98.33-.99.66-1.99.99-2.98"/>
  <path class="cls-1" d="M338.93,601.7c.66.33,1.33.66,2.34,1.17-.82.98-1.58,1.89-2.34,2.81"/>
  <path class="cls-1" d="M452.24,226.25c.66.66,1.33,1.32,2.35,2.35-.83.58-1.59,1.1-2.35,1.63"/>
  <path class="cls-1" d="M67.59,227.24c-1.33,1.99-2.65,3.97-3.98,5.96"/>
  <path class="cls-1" d="M843.85,228.23c-.99-.33-1.99-.66-2.98-.99.66,1.32,1.33,2.65,1.99,3.97"/>
  <path class="cls-1" d="M167.98,518.27c1.66.99,3.31,1.99,4.97,2.98"/>
  <path class="cls-1" d="M878.63,352.39c.33.99.66,1.99.99,2.98.33-.99.66-1.99.99-2.98"/>
  <path class="cls-1" d="M492.99,119.97c-1.66.33-3.31.66-4.97.99"/>
  <path class="cls-1" d="M324.02,592.76c-.33,1.66-.66,3.31-.99,4.97"/>
  <path class="cls-1" d="M240.54,592.76c.99,1.66,1.99,3.31,2.98,4.97"/>
  <path class="cls-1" d="M457.21,124.93l2.98,2.98h-3.98"/>
  <path class="cls-1" d="M73.56,350.4c.99,1.66,1.99,3.31,2.98,4.97"/>
  <path class="cls-1" d="M682.83,405.03q2.57,3.44-3.98,5.96"/>
  <path class="cls-1" d="M872.67,223.27c-.33,2.98-.66,5.96-.99,8.94"/>
  <path class="cls-1" d="M189.85,534.16c.33,3.31.66,6.62.99,9.93"/>
  <path class="cls-1" d="M591.39,180.56c.99,1.66,1.99,3.31,2.98,4.97"/>
  <path class="cls-1" d="M849.81,224.26c-.91-.76-1.83-1.52-2.74-2.28-.4.29-.79.58-1.19.87,2.3,3.45,4.61,6.9,6.91,10.36"/>
  <path class="cls-1" d="M215.69,589.78c4.69,6.24,6.17-3.62,9.94-1.99"/>
  <path class="cls-1" d="M646.06,193.47c-1.66.33-3.31.66-4.97.99"/>
  <path class="cls-1" d="M550.64,466.62c.48-5.29.96-10.58,1.49-16.47-3.15,1.25-4.8,1.91-6.46,2.57"/>
  <path class="cls-1" d="M538.71,219.29c3.64-.66,7.29-1.32,10.93-1.99"/>
  <path class="cls-1" d="M145.12,453.7c.99,1.66,1.99,3.31,2.98,4.97"/>
  <path class="cls-1" d="M505.91,218.3c-1.66.99-3.31,1.99-4.97,2.98"/>
  <path class="cls-1" d="M608.29,24.61c1.66.99,3.31,1.99,4.97,2.98"/>
  <path class="cls-1" d="M540.7,206.38c-2.77,3.69-5.54,7.38-9.13,12.16-.08-.26.55,1.74,1.18,3.74"/>
  <path class="cls-1" d="M771.29,137.85l2.98,2.98"/>
  <path class="cls-1" d="M408.51,138.84c1.33,1.32,2.65,2.65,3.98,3.97"/>
  <path class="cls-1" d="M630.15,193.47c.33,2.98.66,5.96.99,8.94"/>
  <path class="cls-1" d="M825.96,214.33c-1.66,1.66-3.31,3.31-4.97,4.97"/>
  <path class="cls-1" d="M575.49,315.64h11.93"/>
  <path class="cls-1" d="M597.35,170.62c.33,2.98.66,5.96.99,8.94"/>
  <path class="cls-1" d="M331.98,578.86c.33,1.66.66,3.31.99,4.97"/>
  <path class="cls-1" d="M882.61,209.36c2.65,2.98,5.3,5.96,7.95,8.94"/>
  <path class="cls-1" d="M774.27,194.46c-1.33,1.32-2.65,2.65-3.98,3.97"/>
  <path class="cls-1" d="M821.98,212.34c-1.66,1.66-3.31,3.31-4.97,4.97"/>
  <path class="cls-1" d="M387.64,144.8c.99,1.32,1.99,2.65,2.98,3.97"/>
  <path class="cls-1" d="M700.72,148.77c-.39-1.18-.79-2.36-1.84-5.53,3.6,2.39,5.2,3.46,6.81,4.53"/>
  <path class="cls-1" d="M52.68,210.35c1.66,2.98,3.31,5.96,4.97,8.94"/>
  <path class="cls-1" d="M869.69,297.76c-1.33,1.32-2.65,2.65-3.98,3.97"/>
  <path class="cls-1" d="M793.16,148.77l8.95,5.96"/>
  <path class="cls-1" d="M109.34,402.05c.99,1.66,1.99,3.31,2.98,4.97"/>
  <path class="cls-1" d="M839.87,204.39c2.86,3.53,4.14,6.66-1.99,7.95"/>
  <path class="cls-1" d="M792.16,202.41c-1.33,1.32-2.65,2.65-4.12,4.12,2.74,1.3,5.42,2.56,8.1,3.83"/>
  <path class="cls-1" d="M160.03,474.56c2.65,4.64,5.3,9.27,7.95,13.91"/>
  <path class="cls-1" d="M878.63,340.47c1.21,1.66,5.4,3.31,0,4.97"/>
  <path class="cls-1" d="M802.1,206.38c1.41,1.24,2.82,2.48,4.47,3.92-1.42.83-2.45,1.43-3.48,2.03"/>
  <path class="cls-1" d="M546.66,340.47c-1.66-.33-3.31-.66-4.97-.99"/>
  <path class="cls-1" d="M843.85,333.52c-1.04,2.08-2.08,4.16-3.31,6.62.66.66,1.99,1.99,3.31,3.31"/>
  <path class="cls-1" d="M834.9,206.38c1.66.66,3.31,1.32,4.97,1.99"/>
  <path class="cls-1" d="M826.95,206.38c1.99.33,3.98.66,5.96.99"/>
  <path class="cls-1" d="M787.19,206.38c-1.66.66-3.31,1.32-4.97,1.99"/>
  <path class="cls-1" d="M260.41,495.42c1.61-2.67,3.22-5.34,4.89-8.13-.89-2.15-1.85-4.48-2.89-7-7.02,1.81-2.51,5.93-2.01,9.17"/>
  <path class="cls-1" d="M63.62,336.5c.99,1.66,1.99,3.31,2.98,4.97"/>
  <path class="cls-1" d="M666.93,168.64c1.39.48,2.77.96,5.74,1.99-2.97,1.03-4.36,1.51-5.74,1.99"/>
  <path class="cls-1" d="M657.98,330.54c-1.66-.33-3.31-.66-4.97-.99"/>
  <path class="cls-1" d="M879.63,304.71c-1.32,1.66-2.64,3.32-4.09,5.15,1.96,1.34,3.94,2.69,5.91,4.05.55-.25,1.1-.51,1.66-.76-.83-2.48-1.66-4.96-2.49-7.45"/>
  <path class="cls-1" d="M394.59,169.63c1.33,1.66,2.65,3.31,3.98,4.97"/>
  <path class="cls-1" d="M322.04,167.64c-1.66.33-3.31.66-4.97.99"/>
  <path class="cls-1" d="M809.06,165.66c-3.64.99-7.29,1.99-10.93,2.98"/>
  <path class="cls-1" d="M582.44,207.37c-3.62-1.71-7.24-3.41-11.4-5.37-.56,1.61-1.04,2.99-1.52,4.38"/>
  <path class="cls-1" d="M165.99,491.45c1.66,1.32,3.31,2.65,4.97,3.97"/>
  <path class="cls-1" d="M555.61,196.45c.41,1.3.82,2.6,1.39,4.42-5.28,1.22-10.29,2.37-15.3,3.53"/>
  <path class="cls-1" d="M666.93,198.43c.66.66,1.33,1.32,2.35,2.35-.83.58-1.59,1.1-2.35,1.63"/>
  <path class="cls-1" d="M205.75,549.06c-.99.66-1.99,1.32-3.09,2.05,1.02,3.6,2.05,7.23,3.09,10.86"/>
  <path class="cls-1" d="M831.92,331.53c.33,1.66.66,3.31.99,4.97"/>
  <path class="cls-1" d="M634.13,67.32c-5.83,2.28-4.02,6.08-1.99,9.93"/>
  <path class="cls-1" d="M865.71,311.67l2.98-.99v1.99"/>
  <path class="cls-1" d="M652.02,68.32c3.31,2.32,6.63,4.64,9.94,6.95"/>
  <path class="cls-1" d="M828.94,379.21c.37,1.22.73,2.44,1.1,3.65-.62.2-1.24.41-1.87.61-.41-1.09-.81-2.18-1.22-3.27"/>
  <path class="cls-1" d="M265.38,496.42c1.32.99,2.65,1.99,3.97,2.98,1-.66,1.99-1.33,2.98-1.99"/>
  <path class="cls-1" d="M865.71,254.06c.66,1.32,1.33,2.65,1.99,3.97"/>
  <path class="cls-1" d="M533.74,397.09l-2.98,2.98"/>
  <path class="cls-1" d="M192.83,530.19c1.99,1.66,3.98,3.31,5.96,4.97"/>
  <path class="cls-1" d="M809.06,199.43c-.36.65-.72,1.29-1.08,1.95.74.37,1.41.7,2.07,1.03"/>
  <path class="cls-1" d="M134.19,200.42c-1.33.66-2.65,1.32-3.98,1.99"/>
  <path class="cls-1" d="M666.93,420.93l-5.96,5.96"/>
  <path class="cls-1" d="M269.36,643.42c-2.32,2.65-4.64,5.3-6.96,7.95"/>
  <path class="cls-1" d="M595.37,395.1c-.33-.66-.66-1.32-1.03-2.07-.65.36-1.3.72-1.95,1.08"/>
  <path class="cls-1" d="M836.89,379.21c-.33,1.32-.66,2.65-.99,3.97"/>
  <path class="cls-1" d="M819.99,397.09c-1.33,1.32-2.65,2.65-3.98,3.97"/>
  <path class="cls-1" d="M901.49,262c-1.33,1.32-2.65,2.65-3.98,3.97"/>
  <path class="cls-1" d="M877.64,248.1l-3.98,1.99"/>
  <path class="cls-1" d="M668.92,79.24c.33.99.66,1.99.99,2.98-1.66-.33-3.31-.66-4.97-.99"/>
  <path class="cls-1" d="M199.78,182.54c-1.33.66-2.65,1.32-3.98,1.99"/>
  <path class="cls-1" d="M850.8,334.51l2.98,2.98"/>
  <path class="cls-1" d="M77.53,374.24v3.97"/>
  <path class="cls-1" d="M545.67,486.48c-1.33.66-2.65,1.32-3.98,1.99"/>
  <path class="cls-1" d="M470.13,486.48c-1.33.66-2.65,1.32-3.98,1.99"/>
  <path class="cls-1" d="M886.58,322.59v3.97"/>
  <path class="cls-1" d="M845.83,188.5c-1.33-.66-2.65-1.32-3.98-1.99"/>
  <path class="cls-1" d="M871.68,265.98c.66,1.32,1.33,2.65,1.99,3.97"/>
  <path class="cls-1" d="M802.1,158.7c1.66.33,3.31.66,4.97.99"/>
  <path class="cls-1" d="M628.16,88.18h-3.98"/>
  <path class="cls-1" d="M1,244.12c.99,1.66,1.99,3.31,2.98,4.97"/>
  <path class="cls-1" d="M70.57,366.3c3.31,2.32,6.63,4.64,9.94,6.95"/>
  <path class="cls-1" d="M428.39,524.23c-1.33.66-2.65,1.32-3.98,1.99"/>
  <path class="cls-1" d="M877.64,335.51c-.33,1.32-.66,2.65-.99,3.97"/>
  <path class="cls-1" d="M529.77,268.96c.99.99,2.52,3.02,2.9,2.83,6.41-3.3,6.06,1.06,6.04,5.12"/>
  <path class="cls-1" d="M905.47,244.12h3.98"/>
  <path class="cls-1" d="M382.67,156.72v3.97"/>
  <path class="cls-1" d="M889.57,240.15c1.33,1.32,2.65,2.65,3.98,3.97"/>
  <path class="cls-1" d="M716.62,95.13c-1.33.66-2.65,1.32-3.98,1.99l2.98,2.98"/>
  <path class="cls-1" d="M780.23,154.73c1.33.66,2.65,1.32,3.98,1.99"/>
  <path class="cls-1" d="M860.74,235.19l5.96,5.96"/>
  <path class="cls-1" d="M432.36,204.39l-9.36-9.36c.29,3.08.12,4,.48,4.32.37.33,1.26.07,1.92.07"/>
  <path class="cls-1" d="M341.92,617.59c0,.99.05,1.99-.09,2.97-.01.09-1.24.01-1.9.01"/>
  <path class="cls-1" d="M235.57,617.59c-1.33-.66-2.65-1.32-3.98-1.99"/>
  <path class="cls-1" d="M833.91,182.54c-1.33-.66-2.65-1.32-3.98-1.99"/>
  <path class="cls-1" d="M827.94,391.13c-1.33,1.32-2.65,2.65-3.98,3.97"/>
  <path class="cls-1" d="M827.94,174.6c-3.31-1.32-6.63-2.65-9.94-3.97"/>
  <path class="cls-1" d="M784.21,395.1c1.39-.48,2.77-.96,5.74-1.99-2.97-1.03-4.36-1.51-5.74-1.99"/>
  <path class="cls-1" d="M218.67,568.92c1.33.66,2.65,1.32,3.98,1.99"/>
  <path class="cls-1" d="M75.54,360.34c1.33.66,2.65,1.32,3.98,1.99"/>
  <path class="cls-1" d="M575.49,17.66h3.98"/>
  <path class="cls-1" d="M524.8,274.92c1.99,2.65,3.98,5.3,5.96,7.95"/>
  <path class="cls-1" d="M401.55,150.76c3.98,4.3,7.95,8.61,11.93,12.91"/>
  <path class="cls-1" d="M113.31,411.99c.66.66,1.33,1.32,1.99,1.99"/>
  <path class="cls-1" d="M786.2,148.77c1.66.33,3.31.66,4.97.99"/>
  <path class="cls-1" d="M685.81,104.07c-1.33.66-2.65,1.32-3.98,1.99"/>
  <path class="cls-1" d="M814.03,208.37c-1.33,1.32-2.65,2.65-3.98,3.97"/>
  <path class="cls-1" d="M885.59,232.21c1.33,1.32,2.65,2.65,3.98,3.97"/>
  <path class="cls-1" d="M682.83,432.85l-3.98,1.99"/>
  <path class="cls-1" d="M641.09,178.57c-1.41.39-2.82.78-5.52,1.53,2.01,1.39,2.77,1.92,3.53,2.44"/>
  <path class="cls-1" d="M323.03,148.77c-1.33.66-2.65,1.32-3.98,1.99"/>
  <path class="cls-1" d="M811.05,195.45c-.36.65-.72,1.29-1.08,1.95.74.37,1.41.7,2.07,1.03"/>
  <path class="cls-1" d="M142.14,472.58c.66,1.32,1.33,2.65,1.99,3.97"/>
  <path class="cls-1" d="M835.89,355.37c-1.33.66-2.65,1.32-3.98,1.99"/>
  <path class="cls-1" d="M79.52,382.19c1.33,1.99,2.65,3.97,3.98,5.96"/>
  <path class="cls-1" d="M62.62,355.37c.33.66.66,1.32,1.03,2.07.65-.36,1.3-.72,1.95-1.08"/>
  <path class="cls-1" d="M533.74,297.76c1.33,1.32,2.65,2.65,3.98,3.97"/>
  <path class="cls-1" d="M426.4,194.46c.76.91,1.52,1.83,2.35,2.82-1.33.86-2.34,1.5-3.34,2.15"/>
  <path class="cls-1" d="M699.73,115l-8.95,5.96"/>
  <path class="cls-1" d="M656.99,192.47l-3.98-1.99"/>
  <path class="cls-1" d="M857.76,212.34c1.66,2.32,3.31,4.64,4.97,6.95"/>
  <path class="cls-1" d="M535.73,279.88c.07,1.33.15,2.65.22,3.98-.78-.06-1.56-.13-2.34-.19.38-2.26.75-4.51,1.13-6.77"/>
  <path class="cls-1" d="M850.8,350.4c1.66,2.32,3.31,4.64,4.97,6.95"/>
  <path class="cls-1" d="M149.09,463.64c.66.66,1.33,1.32,1.99,1.99"/>
  <path class="cls-1" d="M183.88,517.27c.99.66,1.99,1.32,2.98,1.99"/>
  <path class="cls-1" d="M606.3,138.84c-.99,2.65-1.99,5.3-2.98,7.95"/>
  <path class="cls-1" d="M366.76,405.03h3.98"/>
  <path class="cls-1" d="M908.45,295.77v10.93"/>
  <path class="cls-1" d="M128.22,458.67c1.99,2.65,3.98,5.3,5.96,7.95"/>
  <path class="cls-1" d="M836.89,223.27c.36.65.72,1.29,1.08,1.95-.74.37-1.41.7-2.07,1.03"/>
  <path class="cls-1" d="M233.58,581.84c.33,1.66.66,3.31.99,4.97"/>
  <path class="cls-1" d="M229.6,591.77c.23,1.02.45,2.03.73,3.27,2.94-.81,5.58-1.54,8.22-2.27"/>
  <path class="cls-1" d="M197.8,537.14c1.66,1.32,3.31,2.65,4.97,3.97"/>
  <path class="cls-1" d="M894.54,221.28l3.98,1.99"/>
  <path class="cls-1" d="M36.78,315.64c1.33,1.99,2.65,3.97,3.98,5.96"/>
  <path class="cls-1" d="M548.65,290.81c.66,1.32,1.33,2.65,1.99,3.97"/>
  <path class="cls-1" d="M734.51,132.88c1.33,1.32,2.65,2.65,3.98,3.97"/>
  <path class="cls-1" d="M852.79,219.29c0,.66-.12,1.35.04,1.98.1.39.62.67.95,1"/>
  <path class="cls-1" d="M236.56,586.8c.33.99.66,1.99.99,2.98"/>
  <path class="cls-1" d="M864.72,219.29c-.66.66-1.33,1.32-1.99,1.99"/>
  <path class="cls-1" d="M27.84,292.8c.99.33,1.99.66,2.98.99"/>
  <path class="cls-1" d="M888.57,219.29c.66,1.99,1.33,3.97,1.99,5.96"/>
  <path class="cls-1" d="M874.66,344.45c1.99,2.65,3.98,5.3,5.96,7.95"/>
  <path class="cls-1" d="M233.58,588.79c.99.66,1.99,1.32,2.98,1.99"/>
  <path class="cls-1" d="M542.69,292.8c0,.66-.12,1.35.04,1.98.1.39.62.67.95,1"/>
  <path class="cls-1" d="M536.72,290.81c-.66.66-1.33,1.32-1.99,1.99"/>
  <path class="cls-1" d="M132.2,216.31c.99.34,1.98.67,3.82,1.29-1.54,1.08-2.68,1.88-3.82,2.68"/>
  <path class="cls-1" d="M59.64,219.29c.99.33,1.99.66,2.98.99"/>
  <path class="cls-1" d="M324.02,584.82c.99.33,1.99.66,2.98.99"/>
  <path class="cls-1" d="M138.16,449.73c.66.99,1.33,1.99,1.99,2.98"/>
  <path class="cls-1" d="M314.09,584.82c0,.66-.12,1.35.04,1.98.1.39.62.67.95,1"/>
  <path class="cls-1" d="M322.04,588.79c1.33,1.32,2.65,2.65,3.98,3.97"/>
  <path class="cls-1" d="M142.14,455.69c1.66,1.32,3.31,2.65,4.97,3.97"/>
  <path class="cls-1" d="M880.62,221.28c1.66,2.32,3.31,4.64,4.97,6.95"/>
  <path class="cls-1" d="M880.62,346.43l2.98,2.98"/>
  <path class="cls-1" d="M882.61,217.31c0,.66.12,1.35-.04,1.98-.1.39-.62.67-.95,1"/>
  <path class="cls-1" d="M560.58,288.82c0,.66-.12,1.35.04,1.98.1.39.62.67.95,1"/>
  <path class="cls-1" d="M492.99,127.91c-.99.33-1.99.66-2.98.99"/>
  <path class="cls-1" d="M435.34,193.47c0,.66.12,1.35-.04,1.98-.1.39-.62.67-.95,1"/>
  <path class="cls-1" d="M860.74,217.31c0,.66-.12,1.35.04,1.98.1.39.62.67.95,1"/>
  <path class="cls-1" d="M445.28,193.47c0,.66.12,1.35-.04,1.98-.1.39-.62.67-.95,1"/>
  <path class="cls-1" d="M719.61,127.91c-.99.33-1.99.66-2.98.99"/>
  <path class="cls-1" d="M778.25,403.05c.66.66,1.33,1.32,1.99,1.99"/>
  <path class="cls-1" d="M617.23,139.83h-2.98"/>
  <path class="cls-1" d="M848.82,316.63c.99.33,1.99.66,2.98.99"/>
  <path class="cls-1" d="M811.05,191.48c0,.66-.12,1.35.04,1.98.1.39.62.67.95,1"/>
  <path class="cls-1" d="M141.14,447.74c.33.99.66,1.99.99,2.98"/>
  <path class="cls-1" d="M841.86,323.59c.66,1.99,1.33,3.97,1.99,5.96"/>
  <path class="cls-1" d="M888.57,223.27c0,.66-.12,1.35.04,1.98.1.39.62.67.95,1"/>
  <path class="cls-1" d="M905.47,222.27c-.99,2.32-1.99,4.64-2.98,6.95"/>
  <path class="cls-1" d="M554.61,286.84c0,.66.12,1.35-.04,1.98-.1.39-.62.67-.95,1"/>
  <path class="cls-1" d="M182.89,535.15c-.99.33-1.99.66-2.98.99"/>
  <path class="cls-1" d="M717.62,123.94c1.66.33,3.31.66,4.97.99"/>
  <path class="cls-1" d="M133.19,461.65c.99.33,1.99.66,2.98.99"/>
  <path class="cls-1" d="M709.67,141.82c-.33.66-.7,1.31-.98,1.99-.11.29-.02.65-.02.99"/>
  <path class="cls-1" d="M870.68,215.32c-.66.66-1.33,1.32-1.99,1.99"/>
  <path class="cls-1" d="M858.75,316.63c0,.66.12,1.35-.04,1.98-.1.39-.62.67-.95,1"/>
  <path class="cls-1" d="M237.55,594.75c.66.99,1.33,1.99,1.99,2.98"/>
  <path class="cls-1" d="M327.01,594.75c1.66,1.99,3.31,3.97,4.97,5.96"/>
  <path class="cls-1" d="M544.68,284.85c0,.66-.12,1.35.04,1.98.1.39.62.67.95,1"/>
  <path class="cls-1" d="M708.67,138.84c1.33,1.99,2.65,3.97,3.98,5.96"/>
  <path class="cls-1" d="M758.37,120.96c-.99.33-1.99.66-2.98.99"/>
  <path class="cls-1" d="M134.19,443.77c.66.99,1.33,1.99,1.99,2.98"/>
  <path class="cls-1" d="M852.79,215.32c0,.66-.12,1.35.04,1.98.1.39.62.67.95,1"/>
  <path class="cls-1" d="M196.8,193.47c-.99.33-1.99.66-2.98.99"/>
  <path class="cls-1" d="M892.55,225.25c-.66.66-1.33,1.32-1.99,1.99"/>
  <path class="cls-1" d="M550.64,282.86c.66,1.99,1.33,3.97,1.99,5.96"/>
  <path class="cls-1" d="M400.56,514.29v5.96"/>
  <path class="cls-1" d="M510.88,225.25c-.99.33-1.99.66-2.98.99"/>
  <path class="cls-1" d="M69.58,344.45l1.99,3.97"/>
  <path class="cls-1" d="M783.22,142.81c.99.66,1.99,1.32,2.98,1.99"/>
  <path class="cls-1" d="M328,598.72c.66.66,1.33,1.32,1.99,1.99"/>
  <path class="cls-1" d="M546.66,324.58c-.99.33-1.99.66-2.98.99"/>
  <path class="cls-1" d="M137.17,441.79c.33.99.66,1.99.99,2.98"/>
  <path class="cls-1" d="M528.77,280.88c.66.66,1.33,1.32,1.99,1.99"/>
  <path class="cls-1" d="M236.56,600.71c0,.66-.12,1.35.04,1.98.1.39.62.67.95,1"/>
  <path class="cls-1" d="M740.48,143.8c.33,3.31.69,6.62.95,9.94.02.3-.62.66-.95.99-.33-.33-.66-.66-.99-.99"/>
  <path class="cls-1" d="M223.64,575.88c.99.33,1.99.66,2.98.99"/>
  <path class="cls-1" d="M208.73,296.77c-.99.33-1.99.66-2.98.99"/>
  <path class="cls-1" d="M105.36,396.09c0,1.99-.05,3.98.04,5.96.02.35.62.66.95,1,.33-.33.66-.66.99-.99"/>
  <path class="cls-1" d="M365.77,396.09c-.99.33-1.99.66-2.98.99"/>
  <path class="cls-1" d="M584.43,297.76h6.96"/>
  <path class="cls-1" d="M522.81,278.89c-.66.66-1.33,1.32-1.99,1.99"/>
  <path class="cls-1" d="M131.2,437.81c0,.66-.12,1.35.04,1.98.1.39.62.67.95,1"/>
  <path class="cls-1" d="M73.56,354.38c0,.66-.12,1.35.04,1.98.1.39.62.67.95,1"/>
  <path class="cls-1" d="M441.31,213.33c0,.66-.12,1.35.04,1.98.1.39.62.67.95,1"/>
  <path class="cls-1" d="M328,602.69c0,.66-.12,1.35.04,1.98.1.39.62.67.95,1"/>
  <path class="cls-1" d="M379.68,467.61c-.99.33-1.99.66-2.98.99"/>
  <path class="cls-1" d="M37.78,298.75c-.66.66-1.33,1.32-1.99,1.99"/>
  <path class="cls-1" d="M332.97,602.69c1.37,1.96,2.74,3.92,4.11,5.87-.4.33-.79.66-1.19.99-.64-.96-1.29-1.93-1.93-2.89"/>
  <path class="cls-1" d="M659.97,65.34c.99.66,1.99,1.32,2.98,1.99"/>
  <path class="cls-1" d="M133.19,229.23c-.99.33-1.99.66-2.98.99"/>
  <path class="cls-1" d="M546.66,276.9c0,.66-.12,1.35.04,1.98.1.39.62.67.95,1"/>
  <path class="cls-1" d="M848.82,211.35c-.33.66-.7,1.31-.97,1.99-.11.29-.02.65-.02.99"/>
  <path class="cls-1" d="M150.09,325.57c-.99.33-1.99.66-2.98.99"/>
  <path class="cls-1" d="M97.41,384.18c.33.99.66,1.99.99,2.98"/>
  <path class="cls-1" d="M178.91,402.05c-.33.66-.7,1.31-.98,1.99-.11.29-.02.65-.02.99"/>
  <path class="cls-1" d="M94.43,386.16c.66.99,1.33,1.99,1.99,2.98"/>
  <path class="cls-1" d="M862.73,231.21c0,.66.12,1.35-.04,1.98-.1.39-.62.67-.95,1"/>
  <path class="cls-1" d="M246.5,608.65l2.98,2.98"/>
  <path class="cls-1" d="M280.29,274.92c-.99.33-1.99.66-2.98.99"/>
  <path class="cls-1" d="M154.06,473.57c1.66,1.32,3.31,2.65,4.97,3.97"/>
  <path class="cls-1" d="M449.26,211.35c0,.66-.12,1.35.04,1.98.1.39.62.67.95,1"/>
  <path class="cls-1" d="M892.55,320.61v2.98c-.66-.99-1.33-1.99-1.99-2.98-.66-.99-1.2-2.63-2.02-2.8-.83-.17-1.95,1.14-2.95,1.8"/>
  <path class="cls-1" d="M709.67,106.06c-.5,3.66-1.01,7.33-1.59,11.56,1.72,1.03,4.01,2.41,6.3,3.78.47-.4.93-.81,1.4-1.21-.71-1.07-1.43-2.14-2.14-3.21"/>
  <path class="cls-1" d="M666.93,109.04c-3.81-4.81-3.94,1.43-5.96,1.99"/>
  <path class="cls-1" d="M592.38,14.68c0,.66-.12,1.35.04,1.98.1.39.62.67.95,1"/>
  <path class="cls-1" d="M553.62,107.05c-.99.33-1.99.66-2.98.99"/>
  <path class="cls-1" d="M112.32,433.84c.66.99,1.33,1.99,1.99,2.98"/>
  <path class="cls-1" d="M854.78,233.2c0,.66.12,1.35-.04,1.98-.1.39-.62.67-.95,1"/>
  <path class="cls-1" d="M540.7,274.92c-.66.66-1.33,1.32-1.99,1.99"/>
  <path class="cls-1" d="M852.79,209.36c0,.66.12,1.35-.04,1.98-.1.39-.62.67-.95,1"/>
  <path class="cls-1" d="M789.18,209.36c-.99.33-1.99.66-2.98.99"/>
  <path class="cls-1" d="M546.66,104.07c-.99.33-1.99.66-2.98.99"/>
  <path class="cls-1" d="M468.14,208.37c.66.66,1.33,1.32,1.99,1.99"/>
  <path class="cls-1" d="M433.36,209.36l2.98,2.98"/>
  <path class="cls-1" d="M21.87,274.92c.33.99.66,1.99.99,2.98"/>
  <path class="cls-1" d="M11.93,274.92c-.33.66-.7,1.31-.98,1.99-.11.29-.02.65-.02.99"/>
  <path class="cls-1" d="M347.88,272.93c-.99.33-1.99.66-2.98.99"/>
  <path class="cls-1" d="M859.75,359.34c-.33.99-.66,1.99-.99,2.98"/>
  <path class="cls-1" d="M540.7,195.45c.33.99.66,1.99.99,2.98"/>
  <path class="cls-1" d="M413.48,171.62c0,.66-.12,1.35.04,1.98.1.39.62.67.95,1"/>
  <path class="cls-1" d="M309.12,476.55c-.66.66-1.33,1.32-1.99,1.99"/>
  <path class="cls-1" d="M829.93,323.59c-.99.33-1.99.66-2.98.99"/>
  <path class="cls-1" d="M852.79,237.17c0,.66-.12,1.35.04,1.98.1.39.62.67.95,1"/>
  <path class="cls-1" d="M808.06,206.38c-.33.99-.66,1.99-.99,2.98"/>
  <path class="cls-1" d="M874.66,340.47c.66,1.99,1.33,3.97,1.99,5.96"/>
  <path class="cls-1" d="M282.28,302.73c-.99.33-1.99.66-2.98.99"/>
  <path class="cls-1" d="M333.96,610.64c0,.66-.12,1.35.04,1.98.1.39.62.67.95,1"/>
  <path class="cls-1" d="M533.74,272.93l2.98,2.98"/>
  <path class="cls-1" d="M399.56,153.74c.33.66.78,1.3.93,2,.05.25-.6.65-.93.98"/>
  <path class="cls-1" d="M819,382.19c0,.66-.12,1.35.04,1.98.1.39.62.67.95,1"/>
  <path class="cls-1" d="M596.36,98.11c-.99.33-1.99.66-2.98.99"/>
  <path class="cls-1" d="M451.25,207.37c0,.66.12,1.35-.04,1.98-.1.39-.62.67-.95,1"/>
  <path class="cls-1" d="M431.37,181.55c0,.66.12,1.35-.04,1.98-.1.39-.62.67-.95,1"/>
  <path class="cls-1" d="M553.62,99.11c-.99.33-1.99.66-2.98.99"/>
  <path class="cls-1" d="M508.89,272.93c0,.66-.12,1.35.04,1.98.1.39.62.67.95,1"/>
  <path class="cls-1" d="M797.13,153.74c0,.66-.12,1.35.04,1.98.1.39.62.67.95,1"/>
  <path class="cls-1" d="M441.31,207.37c0,.66.12,1.35-.04,1.98-.1.39-.62.67-.95,1"/>
  <path class="cls-1" d="M144.12,481.52c.66.99,1.33,1.99,1.99,2.98"/>
  <path class="cls-1" d="M11.93,270.94c.66.66,1.33,1.32,1.99,1.99"/>
  <path class="cls-1" d="M101.39,390.14c.33.99.66,1.99.99,2.98"/>
  <path class="cls-1" d="M433.36,197.44c0,.66-.12,1.35.04,1.98.1.39.62.67.95,1"/>
  <path class="cls-1" d="M546.66,96.13c-.99.33-1.99.66-2.98.99"/>
  <path class="cls-1" d="M425.4,239.16c-.99.33-1.99.66-2.98.99"/>
  <path class="cls-1" d="M443.3,197.44c0,.66-.12,1.35.04,1.98.1.39.62.67.95,1"/>
  <path class="cls-1" d="M770.3,365.3c.66.66,1.33,1.32,1.99,1.99"/>
  <path class="cls-1" d="M60.64,338.49c2.01,2.35,4.02,4.7,6.03,7.05.54-.73,1.09-1.46,1.63-2.18-.9-.3-1.79-.6-2.69-.89"/>
  <path class="cls-1" d="M590.4,380.2c-.99.33-1.99.66-2.98.99"/>
  <path class="cls-1" d="M504.92,241.15c0,.66-.12,1.35.04,1.98.1.39.62.67.95,1"/>
  <path class="cls-1" d="M602.32,40.5c0,.66-.12,1.35.04,1.98.1.39.62.67.95,1"/>
  <path class="cls-1" d="M524.8,270.94c-.66.66-1.33,1.32-1.99,1.99"/>
  <path class="cls-1" d="M874.66,241.15c.66.66,1.33,1.32,1.99,1.99"/>
  <path class="cls-1" d="M866.71,205.39c0,.66-.12,1.35.04,1.98.1.39.62.67.95,1"/>
  <path class="cls-1" d="M780.23,204.39c-2.65.66-5.3,1.32-7.95,1.99"/>
  <path class="cls-1" d="M770.3,166.65c1.33,1.32,2.65,2.65,3.98,3.97"/>
  <path class="cls-1" d="M630.15,42.49c-.33.66-.7,1.31-.98,1.99-.11.29-.02.65-.02.99"/>
  <path class="cls-1" d="M704.7,93.15l2.98,2.98"/>
  <path class="cls-1" d="M396.58,520.25c-.66,1.99-1.33,3.97-1.99,5.96"/>
  <path class="cls-1" d="M574.49,205.39c-.33.66-.7,1.31-.98,1.99-.11.29-.02.65-.02.99"/>
  <path class="cls-1" d="M393.6,157.71c.36.65.72,1.29,1.1,1.99-1.08.69-2.08,1.34-3.09,1.99"/>
  <path class="cls-1" d="M160.03,482.51c.99.33,1.99.66,2.98.99"/>
  <path class="cls-1" d="M25.85,304.71c0,.66-.12,1.35.04,1.98.1.39.62.67.95,1"/>
  <path class="cls-1" d="M860.74,243.13c0,.66.12,1.35-.04,1.98-.1.39-.62.67-.95,1"/>
  <path class="cls-1" d="M255.44,620.57c1.66,1.32,3.31,2.65,4.97,3.97"/>
  <path class="cls-1" d="M127.23,427.88c.66,1.32,1.33,2.65,1.99,3.97"/>
  <path class="cls-1" d="M120.27,427.88c.66.99,1.33,1.99,1.99,2.98"/>
  <path class="cls-1" d="M108.34,427.88c.66.99,1.33,1.99,1.99,2.98"/>
  <path class="cls-1" d="M912.43,243.13c1.03,3.62,2.07,7.25,3.12,10.95.55-.3,1.58-.54,1.74-1.05.16-.51-.56-1.29-.89-1.95"/>
  <path class="cls-1" d="M869.69,332.53c2.32,2.32,4.64,4.64,6.96,6.95"/>
  <path class="cls-1" d="M13.92,263c1.66,2.98,3.31,5.96,4.97,8.94"/>
  <path class="cls-1" d="M411.49,243.13c-.99.33-1.99.66-2.98.99"/>
  <path class="cls-1" d="M695.75,90.17c0,.66-.12,1.35.04,1.98.1.39.62.67.95,1"/>
  <path class="cls-1" d="M860.74,312.66l-5.96,2.98"/>
  <path class="cls-1" d="M638.1,66.33c.26.92.52,1.83.78,2.75-3.76-1.71-1.98-9.09-8.73-6.72"/>
  <path class="cls-1" d="M898.51,244.12c3.31.33,6.63.66,9.94.99"/>
  <path class="cls-1" d="M399.56,159.7c.66.66,1.33,1.32,1.99,1.99"/>
  <path class="cls-1" d="M409.5,159.7c.66.66,1.33,1.32,1.99,1.99"/>
  <path class="cls-1" d="M592.38,370.27c-.99.33-1.99.66-2.98.99"/>
  <path class="cls-1" d="M91.45,380.2c0,.66-.12,1.35.04,1.98.1.39.62.67.95,1"/>
  <path class="cls-1" d="M83.5,372.26c0,.66.12,1.35-.04,1.98-.1.39-.62.67-.95,1"/>
  <path class="cls-1" d="M675.87,86.2c0,.66-.12,1.35.04,1.98.1.39.62.67.95,1"/>
  <path class="cls-1" d="M588.41,30.57c-.66.66-1.33,1.32-1.99,1.99"/>
  <path class="cls-1" d="M646.06,86.2c-.33.66-.7,1.31-.98,1.99-.11.29-.02.65-.02.99"/>
  <path class="cls-1" d="M512.87,266.97c0,.66-.12,1.35.04,1.98.1.39.62.67.95,1"/>
  <path class="cls-1" d="M256.44,624.55c-1.33,1.99-2.65,3.97-3.98,5.96"/>
  <path class="cls-1" d="M900.5,247.1l-2.98,2.98"/>
  <path class="cls-1" d="M176.92,527.21c.99.33,1.99.66,2.98.99"/>
  <path class="cls-1" d="M165,487.48c.66.66,1.33,1.32,1.99,1.99"/>
  <path class="cls-1" d="M910.44,306.7v2.98c-1.33-1.66-2.65-3.31-3.98-4.97"/>
  <path class="cls-1" d="M387.64,161.68c0,.66-.12,1.35.04,1.98.1.39.62.67.95,1"/>
  <path class="cls-1" d="M606.3,185.52l2.98,2.98"/>
  <path class="cls-1" d="M415.47,167.64c0,.66.12,1.35-.04,1.98-.1.39-.62.67-.95,1"/>
  <path class="cls-1" d="M679.85,80.24c0,.66-.12,1.35.04,1.98.1.39.62.67.95,1"/>
  <path class="cls-1" d="M201.77,543.1c1.66,1.32,3.31,2.65,4.97,3.97"/>
  <path class="cls-1" d="M254.45,628.52c0,.66.12,1.35-.04,1.98-.1.39-.62.67-.95,1"/>
  <path class="cls-1" d="M210.72,557l2.98,2.98"/>
  <path class="cls-1" d="M807.07,161.68c1.66,2.32,3.31,4.64,4.97,6.95"/>
  <path class="cls-1" d="M612.26,62.36c0,.66.12,1.35-.04,1.98-.1.39-.62.67-.95,1"/>
  <path class="cls-1" d="M518.83,263c1.33,2.65,2.65,5.3,3.98,7.95"/>
  <path class="cls-1" d="M512.87,251.08c-.66.66-1.33,1.32-1.99,1.99"/>
  <path class="cls-1" d="M504.92,263c-.66.66-1.33,1.32-1.99,1.99"/>
  <path class="cls-1" d="M405.53,167.64c-.66.66-1.33,1.32-1.99,1.99"/>
  <path class="cls-1" d="M673.89,76.26c0,.66-.12,1.35.04,1.98.1.39.62.67.95,1"/>
  <path class="cls-1" d="M659.97,76.26c0,.66-.12,1.35.04,1.98.1.39.62.67.95,1"/>
  <path class="cls-1" d="M209.72,555.02c-.99.66-1.99,1.32-2.98,1.99"/>
  <path class="cls-1" d="M206.74,551.04c1.33.66,2.65,1.32,3.98,1.99"/>
  <path class="cls-1" d="M502.93,253.06c1.33,1.32,2.65,2.65,3.98,3.97"/>
  <path class="cls-1" d="M255.44,647.39c.99.66,1.99,1.32,2.98,1.99"/>
  <path class="cls-1" d="M518.83,253.06c0,.66-.12,1.35.04,1.98.1.39.62.67.95,1"/>
  <path class="cls-1" d="M642.08,74.28c-.99.33-1.99.66-2.98.99"/>
  <path class="cls-1" d="M268.37,648.39c.33.99.66,1.99.99,2.98"/>
  <path class="cls-1" d="M822.97,200.42c.66,2.32,1.33,4.64,1.99,6.95"/>
  <path class="cls-1" d="M764.33,201.41c-.99-.66-1.99-1.32-2.98-1.99"/>
  <path class="cls-1" d="M512.87,255.05c3.64,2.98,7.29,5.96,10.93,8.94"/>
  <path class="cls-1" d="M629.16,72.29c-1.99-.33-3.98-.66-5.96-.99"/>
  <path class="cls-1" d="M815.02,378.22c-.33.66-.7,1.31-.97,1.99-.11.29-.02.65-.02.99"/>
  <path class="cls-1" d="M495.97,200.42c-.66.66-1.33,1.32-1.99,1.99"/>
  <path class="cls-1" d="M470.13,200.42c-.66.66-1.33,1.32-1.99,1.99"/>
  <path class="cls-1" d="M824.96,378.22c0,.66-.12,1.35.04,1.98.1.39.62.67.95,1"/>
  <path class="cls-1" d="M423.42,183.54c.33.99.66,1.99.99,2.98"/>
  <path class="cls-1" d="M498.95,255.05c1.33,2.65,2.65,5.3,3.98,7.95"/>
  <path class="cls-1" d="M881.61,260.02c-.66.66-1.34,1.31-1.94,2.03-.02.03.62.62.95.95"/>
  <path class="cls-1" d="M508.89,257.04c-.66.66-1.33,1.32-1.99,1.99"/>
  <path class="cls-1" d="M269.36,658.32c.25,2.63.5,5.27.76,8.11-.44-.04-1.36.13-1.68-.23-.33-.37-.07-1.26-.07-1.92"/>
  <path class="cls-1" d="M263.4,659.31c.99.66,1.99,1.32,2.98,1.99"/>
  <path class="cls-1" d="M425.4,257.04c-.99.33-1.99.66-2.98.99"/>
  <path class="cls-1" d="M311.1,546.08c-.66.99-1.33,1.99-1.99,2.98"/>
  <path class="cls-1" d="M865.71,246.11c-.48,1.39-.96,2.77-1.53,4.43-2.11-2.11-3.77-3.77-5.42-5.42"/>
  <path class="cls-1" d="M619.22,428.87c2.65-.66,5.3-1.32,7.95-1.99"/>
  <path class="cls-1" d="M875.65,238.17c.33.99.66,1.99.99,2.98"/>
  <path class="cls-1" d="M875.65,230.22c.99.33,1.99.66,2.98.99"/>
  <path class="cls-1" d="M14.91,277.9c2.32,2.32,4.64,4.64,6.96,6.95"/>
  <path class="cls-1" d="M12.93,281.87c1.66.99,3.31,1.99,4.97,2.98"/>
  <path class="cls-1" d="M455.22,214.33c.66,2.98,1.33,5.96,1.99,8.94"/>
  <path class="cls-1" d="M155.06,469.6c-.16,1.02-.31,2.05-.12.75-2.15-2.93-4.99-6.81-7.84-10.69"/>
  <path class="cls-1" d="M140.15,476.55c1.66.99,3.31,1.99,4.97,2.98"/>
  <path class="cls-1" d="M849.81,206.38c.33,1.66.66,3.31.99,4.97"/>
  <path class="cls-1" d="M865.71,202.41c1.66,3.64,3.31,7.28,4.97,10.93"/>
  <path class="cls-1" d="M831.92,204.39c.33.99.66,1.99.99,2.98"/>
  <path class="cls-1" d="M606.3,21.63c.33.66.78,1.3.93,2,.05.25-.6.65-.93.98"/>
  <path class="cls-1" d="M819.99,198.43c.33.99.66,1.99.99,2.98"/>
  <path class="cls-1" d="M101.39,396.09c1.03-.16,2.05-.31,3.08-.47-.07-.41-.14-.81-.21-1.22-1.28.23-2.57.47-3.85.7"/>
  <path class="cls-1" d="M854.78,319.61c2.65.33,5.3.66,7.95.99"/>
  <path class="cls-1" d="M211.71,321.6c.99.66,1.99,1.32,2.98,1.99"/>
  <path class="cls-1" d="M869.69,325.57c-1.33-.66-2.65-1.32-3.98-1.99"/>
  <path class="cls-1" d="M50.7,323.59c1.66.99,3.31,1.99,4.97,2.98"/>
  <path class="cls-1" d="M596.36,11.7c2.65,3.64,5.3,7.28,7.95,10.93"/>
  <path class="cls-1" d="M601.33,37.52c8.28,9.27,16.57,18.54,24.85,27.81"/>
  <path class="cls-1" d="M806.08,156.72c.33.99.66,1.99.99,2.98"/>
  <path class="cls-1" d="M770.3,148.77c-4.76,5.1,2.38,3.07,2.98,4.97"/>
  <path class="cls-1" d="M790.17,146.78c.33.99.66,1.99.99,2.98"/>
  <path class="cls-1" d="M840.86,346.43c1.29-1.04,2.58-2.07,3.9-3.13.41.82.74,1.48,1.07,2.14"/>
  <path class="cls-1" d="M144.12,351.4c.33.99.66,1.99.99,2.98"/>
  <path class="cls-1" d="M710.66,115c.33.99.66,1.99.99,2.98"/>
  <path class="cls-1" d="M243.52,603.69c.99.33,1.99.66,2.98.99"/>
  <path class="cls-1" d="M492,107.05c1.33,1.32,2.65,2.65,3.98,3.97"/>
  <path class="cls-1" d="M68.59,363.32c.99.33,1.99.66,2.98.99"/>
  <path class="cls-1" d="M251.47,615.61c1.66.99,3.31,1.99,4.97,2.98"/>
  <path class="cls-1" d="M680.84,91.16c.99,1.66,1.99,3.31,2.98,4.97"/>
  <path class="cls-1" d="M80.51,367.29c.33,1.66.66,3.31.99,4.97"/>
  <path class="cls-1" d="M853.79,367.29c-2.32-.33-4.64-.66-6.96-.99"/>
  <path class="cls-1" d="M653.01,65.34c-.99.66-1.99,1.32-2.98,1.99"/>
  <path class="cls-1" d="M679.85,86.2c.92.26,1.83.52,2.75.78l.3-1.77h-4.04"/>
  <path class="cls-1" d="M674.88,83.22c.99.66,1.99,1.32,2.98,1.99"/>
  <path class="cls-1" d="M662.95,71.3c-.33,1.32-.66,2.65-.99,3.97"/>
  <path class="cls-1" d="M666.93,69.31c-.33,1.32-.66,2.65-.99,3.97"/>
  <path class="cls-1" d="M596.36,56.4c3.61,4.75,7.21,9.5,10.82,14.25-.59.38-1.19.76-1.78,1.14-1.15-4.1-10.39-3.79-5.06-11.42"/>
  <path class="cls-1" d="M576.48,22.63c3.31,3.31,6.63,6.62,9.94,9.93"/>
  <path class="cls-1" d="M832.91,225.25c.66.66,1.33,1.32,1.99,1.99"/>
  <path class="cls-1" d="M431.37,187.51c.66,1.99,1.33,3.97,1.99,5.96"/>
  <path class="cls-1" d="M437.33,187.51c1.99,2.65,3.98,5.3,5.96,7.95"/>
  <path class="cls-1" d="M868.69,211.35v3.97"/>
  <path class="cls-1" d="M382.67,472.58c-.15,1.27-.29,2.54-.44,3.81l2.53-.16c-.37-1.22-.73-2.44-1.1-3.65"/>
  <path class="cls-1" d="M324.02,163.67c.66,0,1.5-.25,1.94.06.54.38.76,1.23.31,3.11-1.08-.73-2.16-1.45-3.25-2.18"/>
  <path class="cls-1" d="M350.86,267.96l-1.99,2.98c.99.33,1.99.66,2.98.99v-2.98"/>
  <path class="cls-1" d="M283.27,279.88c-.73,1.08-1.45,2.16-2.18,3.24l2.03,1.07c.38-1.11.76-2.22,1.14-3.32"/>
  <path class="cls-1" d="M594.37,356.36c1.26.43,2.51.86,3.77,1.29l-1.51,1.88c-1.08-.73-2.16-1.45-3.25-2.18"/>
  <path class="cls-1" d="M595.37,365.3c-.66.99-1.33,1.99-1.99,2.98.99.33,1.99.66,2.98.99v-3.97"/>
  <path class="cls-1" d="M592.38,376.23c1.26.43,2.51.86,3.77,1.29-.5.63-1.01,1.25-1.51,1.88-1.08-.73-2.16-1.45-3.25-2.18"/>
</svg>