<?xml version="1.0" encoding="UTF-8"?>
<svg id="Layer_1" data-name="Layer 1" xmlns="http://www.w3.org/2000/svg" viewBox="0 0 566.52 458.34">
  <defs>
    <style>
      .cls-1 {
        fill: none;
        stroke: #000;
        stroke-miterlimit: 10;
        stroke-width: 3px;
      }
    </style>
  </defs>
  <path class="cls-1" d="M387.29,6.7c-24.6,4.63-46.01,14.03-67.47,26.53-29.8,17.36-43.34,38.41-81.54,29.88-33.65-7.51-76.33-28.56-110.28-25.69-6.01.51-11.69,3.25-17.12,3.87-12.96,1.5-39.81-8.62-54.2-11.58-18.57-3.82-36.53-5.52-54.19-5.46v431.52c17.78.6,35.14-3.59,46.92-12.96,4.69-3.73,17.26-15.04,20.61-19.39,6.14-8,3.82-23.69,4.44-33.56.4-6.49.47-15.57,1.49-21.51,1.95-11.42,12.68-26.86,16.27-39.73,4.52-16.22,3.87-35.53,9.25-50.75,3.42-9.67,11.44-17.53,15.75-27.25,11.03-24.91,9.46-46.76,12.31-72.69,2.67-24.32,12.47-13.36,29.74-10.76,21.74,3.27,55.47,1.75,62.25-23.74-21.48-1.86-37.82-11.93-51.51-28-2.29-2.68-9.87-11.68-7.48-15.01,39.22,7.57,84.6,27.01,123.97,11.48,28.38-11.19,44.55-39.22,70.35-54.65,39.39-23.56,80.21-27.13,125.06-20.73,26.21,3.74,51.6,12.18,77.6,16.89C515.38,6.55,448.94-4.91,387.29,6.7Z"/>
</svg>