<?xml version="1.0" encoding="UTF-8"?>
<svg id="Layer_1" data-name="Layer 1" xmlns="http://www.w3.org/2000/svg" viewBox="0 0 110.19 107.34">
  <defs>
    <style>
      .cls-1 {
        fill: white;
        stroke: #000;
        stroke-width: 4px;
        stroke-miterlimit: 10;
      }
    </style>
  </defs>
  <path class="cls-1" d="M82.49,18.76c4.96,1.8,16.79,2.06,20.02,5.49,1.92,2.04,6,11.59,6.53,14.47,5.39,29.26-24.1,41.45-27.55,68.04-1.61.36-2.04-.56-3.02-1.47-8.02-7.44-13.69-20.05-18.08-29.92-1.69-2.21-4.5-2.55-7.08-2.39-3.46.22-25.69,5.05-28.82,6.26-4.64,1.79-6.08,8.47-12.35,6.36-1.32-.44-1.34-2.24-2.36-2.87-1.44-.9-3.96-1.21-5.01-2.24-.63-.62-4.17-9.27-4.24-10.29-.58-8.61,18.24-25.38,22.37-33.54,1.78-3.52,1.61-7.4,4.15-10.85,2.3-3.12,7.09-5.09,9.42-8.56C27.22,11.62,10.79,15.58,9.49.77c3.74,1.51,5.4,3.7,9.75,4.74,6.27,1.51,13.27.98,19.64,1.36s6.49.04,12.12-.19c2.64-.11,4.8,1.51,7.75.92,3.52-.7,7.25-5.71,12.48-6.6,3.12-.53,15.11-.84,16.79,1.72s.14,8.96-1.68,11.4c-1.39,1.86-4.2,2.09-3.85,4.64Z"/>
</svg>