<?xml version="1.0" encoding="UTF-8"?>
<svg id="Layer_1" data-name="Layer 1" xmlns="http://www.w3.org/2000/svg" viewBox="0 0 458.86 408.51">
  <defs>
    <style>
      .cls-1 {
        fill: white;
        stroke: #000;
        stroke-miterlimit: 1px;
        stroke-width: 8px;
      }
    </style>
  </defs>
  <path class="cls-1" d="M412.76,59.4c1.4,8.37-1.57,17.16-2.04,25.4-.4,7,.11,30.76,3.2,35.81,1.22,2,3.09,3.23,4.38,5.6,3.85,7.09,8.95,27.41-.28,31.77-3.93,1.86-22.27,6.77-26.74,7.19-3.77.35-12.68-1.04-14.97,1-.72.64-4.86,9.53-5.65,11.32-8.78,19.85-6.5,42.98-16.97,61.87-1.55,2.8-4.34,5-5.58,7.39-6.53,12.59-5.11,28.44-20.05,37.84-1.72,1.08-7.47,2.96-7.9,3.58-.67.95-1.29,7.04-2.17,9.3-1.45,3.69-3.65,6.94-5.05,10.91-3.13,8.84-6.13,26.83-5,35.97s17.87,22.76,17.9,27.91c.01,2.03-1.3,4.1-3.42,4.49-9.05,1.65-28.45.74-32.93-8.97-2.49-5.39-.12-8.4-.51-13.98-10.7,2.58-3.34-6.88-2.22-11.72,1.32-5.72,3.71-17.12,4.21-22.73,1.33-14.86-2.17-29.89-.92-44.78-4.27-1.32-7.59-3.85-11.03-6.6-.75,1.03.68,20.27,1.11,23.33.58,4.11,4.09,14.58,3.86,16.99-.36,3.78-7.32,11.3-9.26,16.79-3.74,10.6-5.05,22.46-1.76,33.25,1.78,5.82,2.91,11.15,4.48,16.48,2.09,7.08,19.85,22.57,9.51,30.36s-40.04-1.55-37.89-17.86c.47-3.55,4.09-4.84,3.01-10.07-.67-3.28-4.61-2.32-5.01-4.03-.22-.96,3.08-6.35,3.74-8.18,12.56-34.78-.45-65.47-8.45-98.86-1.28-5.33-.19-15.73-6.02-16.97-41.2,2.15-90.28,12.47-123-19.15-1.43,4.29-3.74,9.38-6.59,12.88-1.93,2.37-8.3,6.26-8.43,6.78-.79,3.24,2.15,8.31.03,12.27-5.34.66-5.01-10.25-6.02-10.96-.83-.59-5.31,1.49-6.95.99,4.68,8.7,1.52,17.2,2.01,26.43.4,7.67,7.17,30.32,11.31,36.6,3.39,5.16,9.85,10.55,13.6,15.34s4.6,7.91-2.7,9.21c-6.41,1.15-18.8.96-23.74-3.73-3.77-3.58-2.25-9.73-4.4-12.6-1.62-2.15-3.55-.2-5.04-.87-3.43-1.55-1.2-5.47-1.57-7.67-3.29-20.11-8.22-39.82-12.44-59.72-2.07,1.22-1.79,6.39-5.83,3.84-3.21-2.02,3.27-9.85-.64-12.82-.97,3.05-11.88,9.47-12.27,10.17-.63,1.13,0,3.88-.67,5.83-1.26,3.69-4.97,8.1-6.71,12.26-7.47,17.87-5.56,42.58,3.97,59.27,2.85,4.99,14.6,14.76,2.46,17.02-7.87,1.47-22.42.22-27.64-6.81-6.59-8.87,1.94-13.04.48-19.19-.29-1.21-5.46-2.02-5.07-6.12.15-1.64,2.19-3.3,2.78-5.31,4.65-15.98,5.06-44.77,3.12-61.5-.73-6.32-4.4-12.07-2.41-18.63.61-2.03,3.07-4,3.93-6.04C28.07,203.09,1.47,124.01.54,93.87,0,76.04,5.13,69.42,20.86,62.21c2.69-1.23,7.24-1.64,8.99-2.74,1.33-.84,2.06-5.15,4.14-7.08,7.91-7.37,21.86-2.38,30.94-2.97,6.25-.41,13.26-4.15,19.98-4.08,10.9.12,24.92,5.86,36.24,7.75,56.88,9.5,111.39-7.87,166.47-15.53,2.8-.39,6.43.43,8.66-.1.92-.22,3.97-8.44,10.41-9.77,8.87-1.83,15.23,5.55,20.22,3.24,2.48-1.15,4.5-6.88,5.19-7.27,1.46-.81,4.03.53,6.38-1.12,1.16-.82,4.56-8.01,6.57-10.39,2.56-3.04,9.59-9.6,13.25-10.71,10.18-3.09,21.75,1.81,29.04,9.01,2.35,2.32,4.52,6.72,6.95,9.01,1.55,1.46,18.06,12.61,19.19,12.84,3.71.74,6.85-3.85,9.92-5.67,14.29-8.45,22.6-2.43,34.81,5.79-4.36,9.31-14.96,26.63-25.99,27.98-6.53.8-13.01-1.11-19.48-1.01Z"/>
</svg>