<?xml version="1.0" encoding="UTF-8"?>
<svg id="Layer_1" data-name="Layer 1" xmlns="http://www.w3.org/2000/svg" viewBox="0 0 419.9 465.8">
  <defs>
    <style>
      .cls-1 {
        fill: white;
        stroke: #000;
        stroke-miterlimit: 10;
        stroke-width: 15px;
      }
    </style>
  </defs>
  <path class="cls-1" d="M89.58,3.1c.45.61.36,1.78,1.02,2.6,6.44,7.92,16.01,6.67,23.35,16.8s13.77,23.4,24.12,29.98c4.18,2.66,7.29,1.25,11.34,5.95,4.54,5.26,9.27,10.55,13.67,15.89,9.87,11.97,11.65,22.32,18.56,34.39,4.53,7.91,7.82,11.16,11.23,20.04,1.62,4.24,15,18.41,18.69,23.7.78,1.12.87,2.76,1.93,3.64,1.54,1.28,4.21.68,6.15,1.66,2.06,1.04,5.03,4.51,7.34,6.04,17.8,11.77,56.03,8.32,77.21,9.23,9.13.39,17.9,2.11,26.82,3.86,7.19,1.41,13.97,4.36,20.99,6.9,1.72.62,6.01,3.28,7.33,3.22.52-.02,5.13-2.15,5.84-2.58,8.75-5.24,17.79-22.36,18.95-32.35.84-7.19-1.38-24.87,11.73-19.41,4.13,1.72,7.8,10.79,8.39,15.03,1.39,10.02-3.65,29.27-7.36,38.9-2.62,6.8-10.62,18.54-11.01,24.68-.1,1.51-.27,4.19.84,5.28.55.55,1.57.56,2.19,1.16,1.5,1.45,4.73,12.07,4.8,14.21.13,3.94-3.48,6.83-2.69,11,1.05,5.52,1.9,7.87,1.57,14.1-.69,12.77-7.03,38.82-3.08,49.88,1.21,3.37,3.76,7.77,5,11.17,2.15,5.88.15,4.91,4.43,10.61,2.48,3.29,1.28,4.79,2.29,7.77,1.34,3.98,11.93,11.37,14.74,14.82,3.92,4.81,2.26,11.81.87,17.57-.89,3.67-3.28,6.89-3.65,10.3-.42,3.93-.01,9.3.03,13.41s-.14,8.11-.06,12.23c.06,2.77.98,5.74.56,8.36-.65,3.96-6.69,4.48-3.42,10.74.82,1.58,2.95,3.07,3.58,4.78,1.16,3.13,1.15,3.02,2.59,5.77,1.54,2.93.67,10.32-1.14,13.23-2.83,4.54-9.04,2.38-13.44,3.29-1.62.33-3.09,1.93-4.7,2.55-7.58,2.92-7.98-1.37-12.7-1.04-1.78.13-2.69,1.31-4.04,1.58-1.8.37-3.67-.11-5.42.16-1.37.21-2.8,1.44-4.03,1.5-1.98.1-3.15-2.79-5.06-3.12-1.32-.23-4.06.58-6.03.5s-5.47-.32-7.19-.61c-2.18-.38-4.01-2.72-4.87-4.62-2.84-6.29.41-23.77,3.51-30.14,2.65-5.46,9.48-9.42,10.39-15.26.38-2.45.66-7.29.72-9.88.16-7.4-1.04-14.83-.66-22.26-.41-1.24-9.86-2.98-11.93-3.68-7.06-2.41-12.86-6.24-17.27-12.29l-.95,15.22c-.45,1.94-3.4,3.94-3.57,4.82-.3,1.49.5,2.65.33,4.17-.2,1.81-2.06,3.22-2.23,4.56-.16,1.22.6,2.84.59,4.39-.03,3.11-.86,6.73-.59,9.51.29,2.93,2.26,4.31.26,7.5-.24.38-4.02,4.15-4.28,4.31-.88.52-5.84,1.38-7.67,2.14-2.75,1.15-6.89,4.49-9.2,4.75-5.16.57-7.14-3.61-11.74-3.94s-6.58,2.28-10.07,2.76c-4.26.58-16.77-.77-20.51-2.82-5.23-2.86-4.61-12.89-4.25-18.04.48-6.96,1.15-13.24,8.79-15.19s8.87,1.59,12.13-7.41c2.75-7.58,3.56-19.07,3.07-27.63-.11-2.02-.96-10.35-2.38-11.28-.44-.29-1.42-.07-2.05-.44-1.01-.59-1.7-1.9-3.12-1.89-1.22,0-2.64,1.61-4.14,1.96-1.75.4-7.42,1.75-8.74,1.91-1.71.2-3.03-.72-4.84-.45s-1.15,2.38-5.12,1.54c-1.83-.38-2.24-2.11-4.91-1.55-2.32.49-4.18,4.63-7.08,2.4-1.06-.81-1.32-2.09-2.61-2.98-.64-.45-3.92-1.73-4.4-1.65-1.9.33-.15,7.33-.36,8.95-.34,2.55-2.79,4.52-3.19,7.45s.29,6.27-.18,9.3c-.69,4.4-4.64,10.25-5.83,15.92-1.09,5.17-.94,18.03-2.72,21.26-5.27,9.52-6.13,15.25-7.53,25.93-.23,1.79-1.5,3.89-1.59,5.7-.25,4.83,3.89,12.92,4.42,18.33,1.29,13.09-4.32,20.02-17.58,20.36-8.36.21-22.52.22-30.68-.54-4.34-.4-11.75-7.81-13.17-11.92-2.57-7.45,1.08-7.87,3.32-13.61s3.13-8.35,5.98-14.1c6.5-13.12,2.98-19.39,2.49-32.6-.15-3.97,1.02-7.85.58-11.74-.27-2.41-2.16-4.91-2.22-6.75-.04-1.51,1.27-2.43,1.01-3.71-.22-1.03-1.98-2.36-2.13-4.1-.19-2.09.67-6.09.57-8.89-.18-5.57-1.2-24.97-3.55-28.75-1.47-2.37-3.35-3.91-5.8-1.47-.32.32-2.7,4.73-2.81,5.27-.43,2.09.11,4.39-.18,6.52-.25,1.88-1.4,3.59-1.63,5.62-.58,5.3-.04,11.84-.55,17.29-.38,1.99-2.6,1.48-2.81,2.32-.44,1.78.68,4.53.34,5.79-.53,1.97-2.97,1.89-3.14,2.57-.24,1.01.2,2.59.02,3.81-.4,2.72-3.01,11.3-4.21,13.63s-4.64,3.25-5.83,4.77c-1.49,1.9-1.93,13.88-2.28,17.24-.65,6.2-.76,13.74-1.64,19.55-1.2,7.86-11.76,4.92-17.52,5.34-4.51.33-8.98,2.4-12.83,2.78-3.18.32-6.64-.64-10.07-.58-4.57.08-10.56,1.27-15.03,1.18-2.41-.05-5.7-1.21-6.3-3.79-1.32-5.7-1.94-17-1.25-22.76.15-1.26.54-2.19,1.22-3.24,2.8-1.91,8.61-8.64,11.48-9.19,2.93-.56,10.97,4.41,12.9,3.18,1.06-4.22,1.92-8.08,1.73-12.48-.45-10.25-3.08-21.18-4.4-31.29-1.35-10.37-.47-20.02-1.86-30.49-1.09-8.25-1.59-16.81-2.59-25.29-.53-4.5-.83-9.08-1.18-13.59-4.93.09-5.76-1.98-5.6-6.44.52-14.35,4.9-28.07,7.67-41.97,1.6-8.04,2.58-16.19,4.24-24.2,3.16-15.26,12.97-34.62,3.91-49.39-2.26-3.69-3.94,2.89-4.48,3.22-1.53.95-7.03,1.73-9.09,2.22-1.26,2.93,7.13,10.99,6.13,12.27-4.12-2.07-7.12-5.54-11.14-7.81-.07,2.3,3.2,3.24,1.99,5.62l-6.45,1.07c1.54.12,11.07,1.11,10.59,3.07-.54,2.21-13.54,2.11-15.89,2.52-.49.09-1.31.4-1.4.85-.12.6,5.76,8.88,5.58,10.86-2.8-.34-5.42-5.62-7.66-6.05-2.06-.39-8.37,2.74-11.3,1.59-.13.81.05,1.44.31,2.2.5,1.39,6.21,8.06,5.82,8.4-2.06.2-3.85-1.02-5.53-1.99-3.26-1.89-9.55-8.24-12.04-9.15-1.17-.43-1.49,4-2.73,4.49-1.25.81-3.05,1.06-3.47-.57-1.22-4.81-.63-9.81-2.78-14.46-2.7-5.83-7.49-5.33-11.39-9.25-4.68-4.7-4.04-9.14-6.01-14.63-2.08-5.79-6.68-10.38-9.49-15.61s-4.96-9.38-.4-14.15c1.82-1.91,4.21-1.81,5.88-3.05,1.56-1.16,3.53-4.4,5.63-6.08,6.26-5,13.88-7.33,20.53-11.26,8.17-4.84,3.18-5.17.39-10.87-1.52-3.11-1.52-5.51-.5-8.76.94-3,7.96-12.64,10.48-14.61,6.89-5.38,14.33-10.31,21.54-15.27.96-.66,4.31-2.94,4.66-3.7,2.02-4.44-4.14-17.32-5.69-22.18-2.71-8.52-4.54-17.29-5.69-26.1-.62-4.72,3.18-7.11,6.45-3.94s5.98,13.33,9.94,17.67c2.72,2.99,6.78,3.96,10.32,5.57.87-1.18-2.92-15.43-3.61-17.85-.52-1.83-2.6-5.46-2.51-6.92.21-3.59,5.27-5.56,7.64-2.39Z"/>
</svg>