<?xml version="1.0" encoding="UTF-8"?>
<svg id="Layer_1" data-name="Layer 1" xmlns="http://www.w3.org/2000/svg" viewBox="0 0 373.55 359.38">
  <defs>
    <style>
      .cls-1 {
        fill: white;
        stroke: #000;
        stroke-miterlimit: 10;
        stroke-width: 7px;
      }
    </style>
  </defs>
  <path class="cls-1" d="M332.72,184.68c-1.74-.24-.94,2.27-.99,3.48-.79,21.21,4.49,41.97,5.99,63.02.53,7.43-.72,15.69.02,22.98.64,6.33,4.13,11.62,5.98,17.51l-3.99-.99,1.99,7.99-3.98-1.99c3.69,13.98-3.06,12.75-13.55,9.04-5.23-1.85-10.65-4.67-13.34-9.66-5.78-10.72-6.67-23-8.11-34.89-2.71-22.33-5.95-48.7-7.05-70.95-.8-16.2,1.23-32.37,1.03-48.54-10.03,5.88-11.37,18.84-11.98,29.51-1.08,19.07,6.2,22.87,10.04,37.94,4.75,18.68-.78,50.46-2.08,70.01-.44,6.56,2.45,15.92.28,21.28-.72,1.78-3.13,3.12-3.8,5.2-1.55,4.8-.42,13.43-6.05,16.95-3.32,2.08-19.77-.61-23.63-2.15-1.15-.46-2.32-1.17-2.63-2.44-.82-3.34,9.29-18.59,11.06-22.61,6.75-15.29,8.5-44.88,4.7-61.08-1.28-5.47-5.3-11.34-6.45-16.55-.94-4.24-.24-8.89-1.74-13.26-1.88-5.47-7.83-11.73-10.18-17.82-1.47-3.79-2.02-13.69-5.94-13.9-3.53-.19-12.28,2.66-17.03,2.95-11.81.73-24.33-1.48-36.02-3.04-.83.03-1.48.39-2.11.9-2.46,2-2.08,18.12-2.69,22.32-1.03,7.2-4.84,14.9-5.64,21.36-2.4,19.26-.81,41.61,4.63,60.2,1.17,3.98,4.09,7.43,4.33,11.75.2,3.65-1.97,6.17-1.83,7.8.38,4.38,3.87,6.66,2.7,15.08-.68,4.87-5.55,10.17-5.66,13.26-.18,4.95,6.56,7.32-.76,14.32-2,1.91-6.03,3.08-7.22,4.28-2.39,2.41-2.52,8.95-7.53,10.97-4.47,1.8-32.28,2.23-31.58-5.56.09-.98,6.83-15.53,7.96-18.06s3.77-5.12,4.41-7.59c.89-3.41.03-6.37.51-9.49.46-2.9,3.1-4.99,3.72-8.28,1.84-9.71,1.69-28.88.17-38.71-.51-3.29-3.43-6.42-4.43-9.57-2.87-9-.26-16.63-1.18-24.82-.65-5.78-6.95-23.65-9.48-29.52-4.57-10.62-17.1-31.57-24.01-40.99-2.78-3.79-6.85,3.08-8.67,6.02-5.86,9.44-26.13,56.24-27.73,66.27-2.25,14.14,7.77,33.49,3.05,46.06-1.45,3.87-11.69,16.02-14.96,20.04-5.04,6.19-2.95,3.68-6.06,10.94-2.75,6.44-7.75,13.43-9.96,20.04-2.75,8.27-1.67,19.74-11.53,23.47-8.79,3.32-18.55,4.55-26-1.98-15.09-13.23-10.13-37.62-9.95-54.97.2-19.39-1.18-37.36,2.45-56.55.74-3.93,2.94-7.98,3.43-11.57,1.93-14.33-7.22-26.63-11.91-39.41.93-.92,15.85,11.01,20.54,11s.69-10.35,3.97-11.01c1.63-.33,4.14,3.65,6.47,3.01,1.93-18.22,6.97-40.37,16.18-56.32,11.24-19.47,16.41-29.93,25.34-50.66,7.84-18.18,16.82-25.18,28.45-39.55C117.81,28.49,130.31,3.96,157.25,1.69c24.68-2.07,27.45,13.14,46.09,20.87,26.5,10.99,45.81-12.5,71.01-14.76,16.83-1.52,39.32,7.8,51.39,19.36,13.79,13.2,17.18,21.66,20.7,40.3,3.65,19.35,7.47,45.16,8.33,64.67.68,15.35-1.85,34.45-.07,49.07.56,4.6,4.29,8.24,4.94,13.06,2.86,21.28-1.36,45.26,4.52,66.48,1.76,6.35,6.53,8.43,6.65,17.44.06,4.27-2.13,9.2-2.09,13.01.07,6.85,7.1,15.73.48,23.45-3.26,3.8-15.14,3.74-20.02,3.08-10.02-1.37-1.96-13.04-1.4-18.5.79-7.75-1.75-13.92-2.09-21.01-.79-16.47,1.81-31.01-2.68-47.32-1.71-6.22-6.09-13.87-7.04-19.96-1.38-8.83,1.52-17.65-3.25-26.25Z"/>
</svg>