<?xml version="1.0" encoding="UTF-8"?>
<svg id="Layer_1" data-name="Layer 1" xmlns="http://www.w3.org/2000/svg" viewBox="0 0 737.63 502.56">
  <defs>
    <style>
      .cls-1 {
        fill: none;
        stroke: #000;
        stroke-linecap: round;
        stroke-linejoin: round;
        stroke-width: 2px;
      }
    </style>
  </defs>
  <path class="cls-1" d="M407.01,239.5c6.83,4.66,13.73,9.21,20.46,14,20.52,14.59,40.96,29.28,61.45,43.9,21.46,15.32,42.94,30.63,64.43,45.92,1.76,1.26,3.82,2.26,2.49,5"/>
  <path class="cls-1" d="M669.71,194.07c-2.61-1.43-5.22-2.86-7.78-4.26-14.06,11.71-27.81,23.27-41.68,34.69-16.26,13.38-32.62,26.63-48.92,39.96-2.56,2.09-5,4.32-7.5,6.48"/>
  <path class="cls-1" d="M51.92,118.7c3.24,2.93,6.49,5.85,10.02,9.04.82,1.37,1.89,3.15,2.97,4.94"/>
  <path class="cls-1" d="M675.2,197.57c-1.42-.95-2.84-1.9-4.23-2.83-32.6,27.08-64.88,53.89-97.16,80.7"/>
  <path class="cls-1" d="M626.26,171.61c-2.58-1.65-5.15-3.29-7.84-5.01-9.6,7.68-18.88,15.06-28.12,22.49-17.99,14.46-35.97,28.94-53.94,43.43-4.69,3.79-9.33,7.65-13.99,11.47"/>
  <path class="cls-1" d="M596.29,156.14c-1.12-.75-2.24-1.49-3.38-2.25-19.65,15.83-39.09,31.52-58.56,47.17-11.63,9.35-23.3,18.64-34.96,27.96"/>
  <path class="cls-1" d="M676.7,209.05c2.15-2.34,4.31-4.68,7.4-8.04-.91-.45-1.91-.95-2.91-1.45-.5.17-1.1.21-1.48.52-18.33,15.29-36.64,30.59-54.95,45.91-14.32,11.98-28.63,23.96-42.95,35.94"/>
  <path class="cls-1" d="M665.71,193.08c-17.48,14.48-34.93,28.99-52.45,43.42-14.61,12.03-29.29,23.97-43.93,35.97-.26.22-.35.65-.51.98"/>
  <path class="cls-1" d="M679.2,200.06c-.84-.99-1.67-1.97-2.96-3.49-33.15,27.73-65.78,55.05-98.42,82.36"/>
  <path class="cls-1" d="M660.72,189.08c-2.19-2.16-3.98-1.23-6.02.47-11.1,9.22-22.3,18.31-33.43,27.49-20.16,16.62-40.29,33.27-60.42,49.93-.44.37-.68.98-1.01,1.48"/>
  <path class="cls-1" d="M656.22,188.08c-.84-.99-1.67-1.97-2.83-3.33-33,27.05-65.48,53.68-98.62,80.84-7.9-5.32-15.9-10.72-23.91-16.11"/>
  <path class="cls-1" d="M652.23,185.59c-.5-.67-.87-1.53-1.53-1.94-.67-.42-1.62-.41-2.5-.6-22.8,18.65-45.6,37.29-68.39,55.96-9.51,7.79-18.98,15.64-28.47,23.46"/>
  <path class="cls-1" d="M647.23,183.09c-1.28-3.38-3.31-2.77-5.49-.99-8.34,6.81-16.65,13.64-24.98,20.46-12.99,10.65-26,21.26-38.95,31.96-10.2,8.43-20.32,16.96-30.47,25.45"/>
  <path class="cls-1" d="M643.24,180.6c-2.44-1.6-4.89-3.21-7.55-4.96-4.77,3.75-9.39,7.29-13.92,10.95-14.17,11.45-28.32,22.94-42.46,34.44-12.67,10.3-25.32,20.61-37.93,30.98-.89.73-1.36,1.96-2.03,2.96"/>
  <path class="cls-1" d="M591.8,153.14c-.36-.81-.71-1.62-1.05-2.4-8.16,6.32-15.34,11.78-22.41,17.39-17.18,13.61-34.29,27.29-51.46,40.91-6.96,5.53-13.98,10.99-20.97,16.48"/>
  <path class="cls-1" d="M621.76,169.61c-12.99,10.48-25.98,20.96-38.95,31.45-16.65,13.47-33.31,26.93-49.92,40.46-2,1.63-3.69,3.63-5.52,5.46"/>
  <path class="cls-1" d="M638.74,178.6c-13.82,11.48-27.58,23.03-41.47,34.42-11.9,9.75-23.98,19.3-35.93,28.98-5.88,4.76-11.66,9.64-17.49,14.46"/>
  <path class="cls-1" d="M634.25,176.1c-1.28-3.38-3.32-2.78-5.49-.99-8.67,7.14-17.25,14.39-25.99,21.44-20.93,16.86-41.95,33.61-62.88,50.47-1.72,1.39-3.03,3.29-4.52,4.96"/>
  <path class="cls-1" d="M630.25,173.61c-.93-.78-1.85-1.56-3.1-2.62-32.39,26.15-64.56,52.11-97.25,78.51-8.93-5.95-17.96-11.97-26.99-17.99"/>
  <path class="cls-1" d="M616.77,166.12c-1.66,0-3.9-.71-4.91.1-31.07,24.83-62.01,49.81-92.97,74.78-.08.07-.01.32-.01.49"/>
  <path class="cls-1" d="M600.29,158.63c-24.64,19.8-49.27,39.6-73.92,59.4-6.65,5.34-13.32,10.65-19.98,15.98"/>
  <path class="cls-1" d="M613.27,164.62c-.95-.71-1.9-1.42-3.02-2.27-12.72,9.97-25.39,19.76-37.91,29.74-17.04,13.57-33.99,27.25-50.94,40.93-2.29,1.85-4.35,3.97-6.51,5.97"/>
  <path class="cls-1" d="M608.78,163.13c-1-.83-1.91-1.81-3.01-2.47-2.76-1.63-5.61-3.1-8.43-4.65-31.62,25.14-63.16,50.22-94.4,75.05-4.15-.09-6.24-5.22-10.52-3.05"/>
  <path class="cls-1" d="M538.36,125.69c-3.13-2.05-6.25-4.11-9.66-6.34-30.12,23.11-60.17,46.17-90.23,69.24"/>
  <path class="cls-1" d="M604.78,160.63c-9.32,7.65-18.57,15.41-27.98,22.94-19.42,15.54-38.94,30.96-58.41,46.45-2.22,1.76-4.34,3.65-6.5,5.48"/>
  <path class="cls-1" d="M587.8,151.15c-2-1.16-4-2.33-6.35-3.7-9.79,7.66-19.71,15.4-29.61,23.17-20.98,16.46-41.96,32.94-62.92,49.43-.45.35-.68.98-1.01,1.48"/>
  <path class="cls-1" d="M572.32,143.66c-.71-.62-1.42-1.24-2.65-2.33-6.27,4.8-12.83,9.76-19.32,14.82-16.17,12.62-32.31,25.27-48.45,37.93-8.67,6.8-17.32,13.64-25.97,20.46"/>
  <path class="cls-1" d="M560.83,137.67c-16.15,12.65-32.29,25.3-48.45,37.93-13.64,10.66-27.32,21.28-40.92,31.99-1.08.85-1.7,2.29-2.53,3.45"/>
  <path class="cls-1" d="M580.31,147.65c-1.11-.44-2.21-.87-3.95-1.56-30.07,23.73-61.25,48.33-92.43,72.94"/>
  <path class="cls-1" d="M564.83,139.66c-14.65,11.48-29.3,22.96-43.95,34.44-16.04,12.57-32.07,25.15-48.01,37.65.21,1.26.38,2.23.5,2.93-4.8,2.09-9.11,3.97-13.42,5.85"/>
  <path class="cls-1" d="M549.85,131.68c-22.97,17.64-46,35.21-68.89,52.95-7.84,6.08-15.35,12.61-23,18.93"/>
  <path class="cls-1" d="M584.31,150.15c-14.98,11.81-30,23.59-44.94,35.45-15.86,12.59-31.64,25.28-47.45,37.93"/>
  <path class="cls-1" d="M576.32,145.65c-.92-.78-1.85-1.56-2.69-2.27-29.78,23.22-59.25,46.18-88.69,69.18-1.47,1.15-2.68,2.64-4.01,3.97"/>
  <path class="cls-1" d="M568.82,141.66c-4.74-2.81-9.49-5.62-14.48-8.57-7.35,5.66-14.43,11.1-21.48,16.56-17.15,13.3-34.33,26.57-51.42,39.95-6.61,5.18-13,10.62-19.5,15.95"/>
  <path class="cls-1" d="M556.84,135.67c-16.15,12.65-32.3,25.28-48.44,37.94-13.99,10.97-27.97,21.96-41.95,32.94"/>
  <path class="cls-1" d="M553.34,133.67c-4.57-2.83-9.13-5.65-13.83-8.57-30.77,23.68-61.16,47.07-91.55,70.46"/>
  <path class="cls-1" d="M534.36,124.19c-16.65,12.81-33.34,25.57-49.93,38.45-13.39,10.4-26.65,20.95-39.97,31.43"/>
  <path class="cls-1" d="M545.85,129.68c-15.65,12.15-31.3,24.28-46.94,36.44-14.33,11.14-28.64,22.29-42.95,33.44"/>
  <path class="cls-1" d="M541.85,128.18c-29.97,23.13-59.93,46.26-89.9,69.38"/>
  <path class="cls-1" d="M516.88,114.71c-24.64,18.64-49.3,37.24-73.9,55.93-5.28,4.01-10.34,8.3-15.5,12.46"/>
  <path class="cls-1" d="M519.88,116.7c-14.82,11.31-29.63,22.63-44.45,33.94-15.08,11.52-30.17,23.03-45.09,34.42,2.44,2.21,4.54,4.12,6.64,6.02"/>
  <path class="cls-1" d="M530.87,122.19c-17.31,13.31-34.63,26.62-51.94,39.93-12.32,9.48-24.64,18.97-36.96,28.45"/>
  <path class="cls-1" d="M509.39,111.21c-27.3,20.63-54.61,41.26-81.89,61.91-2.26,1.71-4.34,3.64-6.5,5.47"/>
  <path class="cls-1" d="M512.39,112.21c-2.67-1.82-5.34-3.64-8.32-5.68-4.8,3.49-9.77,7.02-14.64,10.68-24.16,18.11-48.3,36.25-72.39,54.44-1.09.82-1.7,2.29-2.53,3.45"/>
  <path class="cls-1" d="M523.38,118.2c-3.23-2.15-6.46-4.3-9.59-6.39-30.23,22.99-60.01,45.64-89.8,68.29"/>
  <path class="cls-1" d="M502.9,106.72c-3.12-1.74-6.24-3.49-9.49-5.29-7.59,5.49-15.12,10.78-22.46,16.3-21.85,16.42-43.63,32.92-65.43,49.41-.56.42-1.01.99-1.51,1.49"/>
  <path class="cls-1" d="M505.9,109.22c-19.48,14.81-38.93,29.65-58.44,44.41-9.77,7.39-19.63,14.65-29.46,21.98"/>
  <path class="cls-1" d="M526.87,119.2c-1.87-1.91-3.28-.88-5.03.46-15.26,11.72-30.63,23.3-45.91,34.99-12.53,9.59-24.98,19.28-37.46,28.95-1.21.94-2.34,1.99-3.5,2.99"/>
  <path class="cls-1" d="M492.41,101.73c-.46-.69-.92-1.38-1.66-2.48-8.52,6.21-16.96,12.28-25.3,18.47-18.34,13.61-36.65,27.25-54.93,40.94-3.12,2.33-6.01,4.97-9.01,7.46"/>
  <path class="cls-1" d="M498.9,105.72c-20.14,15.14-40.3,30.27-60.43,45.43-9.01,6.79-17.98,13.64-26.97,20.46"/>
  <path class="cls-1" d="M495.41,103.72c-15.65,11.81-31.29,23.63-46.95,35.44-13.48,10.16-26.97,20.3-40.45,30.45"/>
  <path class="cls-1" d="M478.93,94.74c-18.15,13.64-36.27,27.31-54.44,40.92-10.95,8.2-21.97,16.32-32.96,24.47"/>
  <path class="cls-1" d="M489.42,99.73c-.71-.62-1.42-1.24-2.48-2.18-29.32,21.91-58.87,43.99-88.42,66.07"/>
  <path class="cls-1" d="M485.92,97.73c-2.99-1.68-5.98-3.36-9.29-5.22-29.31,21.83-58.7,43.73-88.1,65.62"/>
  <path class="cls-1" d="M465.94,87.75c-14.48,10.82-28.96,21.64-43.45,32.44-14.31,10.66-28.63,21.3-42.95,31.95"/>
  <path class="cls-1" d="M468.94,89.75c-19.81,14.64-39.65,29.25-59.42,43.94-9.06,6.73-17.99,13.63-26.98,20.45"/>
  <path class="cls-1" d="M472.93,91.25c-28.13,20.8-56.27,41.59-84.39,62.41-.75.55-1.34,1.32-2.01,1.98"/>
  <path class="cls-1" d="M481.92,96.74c-16.65,12.31-33.35,24.55-49.92,36.96-12.25,9.18-24.33,18.61-36.48,27.93"/>
  <path class="cls-1" d="M456.95,82.76c-12.99,9.48-26,18.93-38.95,28.46-15.52,11.43-30.97,22.95-46.45,34.43"/>
  <path class="cls-1" d="M475.43,92.74c-3.65-2.34-7.31-4.68-11.29-7.23-8,5.86-16.09,11.79-24.17,17.72-20.64,15.14-41.29,30.28-61.92,45.43-.56.41-1.01.99-1.51,1.49"/>
  <path class="cls-1" d="M446.96,78.27c-24.97,18.3-49.96,36.58-74.89,54.94-3.32,2.45-6.35,5.29-9.51,7.96"/>
  <path class="cls-1" d="M440.97,74.77c-28.47,20.8-56.93,41.6-85.4,62.4"/>
  <path class="cls-1" d="M453.46,81.26c-27.63,20.13-55.27,40.26-82.89,60.41-.75.55-1.34,1.32-2.01,1.98"/>
  <path class="cls-1" d="M459.45,84.76c-27.63,20.3-55.27,40.6-82.89,60.91-.75.55-1.34,1.32-2.01,1.98"/>
  <path class="cls-1" d="M434.48,71.78c-27.97,20.3-55.94,40.6-83.9,60.9"/>
  <path class="cls-1" d="M416.5,62.29c-15.48,11.15-31.01,22.24-46.43,33.46-12.22,8.89-24.32,17.95-36.47,26.94"/>
  <path class="cls-1" d="M422.99,65.29c-27.3,19.63-54.61,39.27-81.9,58.91-.57.41-1.01.99-1.51,1.49"/>
  <path class="cls-1" d="M405.01,56.3c-13.98,9.98-27.98,19.95-41.95,29.95-13,9.3-25.98,18.62-38.93,27.99-.53.39-.69,1.3-1.02,1.96"/>
  <path class="cls-1" d="M428.49,68.28c-5.66-3.16-11.31-6.34-16.98-9.48-5.48-3.02-10.98-6-16.37-8.93-26.37,18.47-52.7,36.89-78.99,55.39-1.41.99-2.36,2.62-3.53,3.95"/>
  <path class="cls-1" d="M443.47,76.27c-4.58-2.8-9.16-5.6-13.79-8.43-28.26,20.44-56.18,40.65-84.1,60.85"/>
  <path class="cls-1" d="M399.52,53.31c-24.8,17.64-49.62,35.26-74.4,52.93-2.6,1.85-5.01,3.97-7.51,5.97"/>
  <path class="cls-1" d="M377.54,51.81c-23.31,16.31-46.63,32.59-69.88,48.97-1.29.91-2.04,2.61-3.03,3.94"/>
  <path class="cls-1" d="M366.06,46.82c-10.65,7.32-21.36,14.57-31.95,21.98-13.21,9.24-26.32,18.62-39.47,27.94"/>
  <path class="cls-1" d="M338.09,194.57c.5-1,1-2,1.68-3.35,16.12,11.62,32.19,23.22,48.27,34.8,5.81,4.18,11.65,8.32,17.48,12.48"/>
  <path class="cls-1" d="M341.09,22.86c-21.64,14.81-43.28,29.62-64.93,44.43"/>
  <path class="cls-1" d="M379.54,340.83c-4,3-8.07,5.89-11.97,9-11.36,9.1-22.66,18.28-33.98,27.43"/>
  <path class="cls-1" d="M278.66,147.65c16.98,12.15,33.96,24.29,50.94,36.44,3.01,2.15,5.99,4.32,8.99,6.49"/>
  <path class="cls-1" d="M336.09,42.33c1.33.66,2.66,1.33,4.58,2.29-20.34,14.16-40.43,28.15-60.51,42.14"/>
  <path class="cls-1" d="M208.24,311.38c16.48,15.97,32.99,31.92,49.41,47.95,2.17,2.12,4.21,4.05,7.52,3.46"/>
  <path class="cls-1" d="M345.58,34.84c-16.98,11.81-33.96,23.63-50.94,35.44-3.64,2.53-7.3,5.02-10.99,7.48-2.87,1.92-5.24,5.25-9.51,3.57-.12-.05-.64.93-.97,1.43"/>
  <path class="cls-1" d="M385.53,45.82c-2.32,1.84-4.64,3.68-7.51,5.95.22.44.53,1.03,1.06,2.07-18.84,13.52-37.9,27.21-56.97,40.89"/>
  <path class="cls-1" d="M331.1,16.87c-8.16,5.82-16.27,11.71-24.48,17.45-10.11,7.06-20.3,13.99-30.45,20.98"/>
  <path class="cls-1" d="M411.01,59.3c-27.3,19.63-54.6,39.27-81.91,58.9"/>
  <path class="cls-1" d="M285.15,386.75c12.15,11.81,24.26,23.67,36.48,35.41,3.82,3.67,7.96,7.02,11.96,10.51"/>
  <path class="cls-1" d="M380.04,42.83c-15.98,11.31-31.96,22.63-47.94,33.94"/>
  <path class="cls-1" d="M343.58,310.88c-14.82,11.65-29.63,23.29-44.45,34.94"/>
  <path class="cls-1" d="M341.09,303.89c-5.46,9.63-15.48,14.17-23.51,20.93-7.34,6.18-14.95,12.02-22.44,18.01"/>
  <path class="cls-1" d="M333.59,302.39c.42.96.83,1.92,1.25,2.88-14.54,11.46-28.87,22.76-43.2,34.05"/>
  <path class="cls-1" d="M344.08,23.36c-12.65,8.82-25.32,17.61-37.94,26.48-2.61,1.84-5.01,3.97-7.51,5.97"/>
  <path class="cls-1" d="M332.6,293.91c.5,2.46,1.01,4.92,1.28,6.24-15.92,12.47-31.07,24.33-46.22,36.19"/>
  <path class="cls-1" d="M348.08,26.85c-14.98,10.32-29.97,20.63-44.95,30.95"/>
  <path class="cls-1" d="M365.56,331.35c-14.82,11.81-29.63,23.63-44.45,35.44"/>
  <path class="cls-1" d="M381.04,345.32c-12.82,10.48-25.63,20.98-38.46,31.44-1.93,1.58-3.99,3.01-5.98,4.5"/>
  <path class="cls-1" d="M346.08,25.36c-13.82,9.48-27.66,18.94-41.41,28.51-1.13.79-1.7,2.38-2.52,3.6.19.32.38.64.57.96-8.02,5.45-16.03,10.92-24.08,16.31-.65.44-1.64.37-2.47.53"/>
  <path class="cls-1" d="M353.57,321.36c-11.99,9.48-23.98,18.96-35.95,28.46-2.69,2.13-5.33,4.32-7.99,6.48"/>
  <path class="cls-1" d="M346.08,314.37c-12.49,9.98-24.98,19.96-37.45,29.96-2.03,1.63-4,3.32-6,4.99"/>
  <path class="cls-1" d="M258.68,235.5c-.82.68-1.64,1.35-2.68,2.2-2.95-1.82-5.94-3.66-9.02-5.56-12.28,9.01-24.78,18.14-37.23,27.35-1.02.75-1.69,1.96-2.52,2.96"/>
  <path class="cls-1" d="M357.07,324.86c-10.82,8.65-21.65,17.29-32.46,25.96-3.69,2.96-7.33,5.98-10.99,8.98"/>
  <path class="cls-1" d="M376.54,340.33c-2.42-3.14-4.7-.81-6.44.56-13.74,10.87-27.35,21.9-41,32.88"/>
  <path class="cls-1" d="M349.58,318.37c-14.48,11.48-28.97,22.96-43.45,34.44"/>
  <path class="cls-1" d="M369.05,334.84c-12.82,10.32-25.65,20.62-38.45,30.96-1.74,1.41-3.34,2.98-5,4.48"/>
  <path class="cls-1" d="M361.06,327.85c-11.49,9.32-22.98,18.63-34.46,27.96-3.03,2.46-6,4.99-8.99,7.48"/>
  <path class="cls-1" d="M337.09,285.42c-1.12,1.38-2.25,2.76-3.37,4.13-.24-.35-.48-.71-.72-1.06-2.65.59-5.29,1.17-7.99,1.77.58,3.41-.54,5.63-3.34,7.71-12.29,9.14-24.38,18.54-36.5,27.9-1.29,1-2.35,2.31-3.51,3.47"/>
  <path class="cls-1" d="M153.3,153.64c-9.16,6.49-18.33,12.95-27.46,19.48-2.9,2.07-5.67,4.31-8.5,6.47"/>
  <path class="cls-1" d="M330.1,301.39c-.82-.68-1.64-1.35-2.7-2.23-14.07,11.05-28.16,22.11-42.24,33.18"/>
  <path class="cls-1" d="M263.67,245.49c1.5.33,2.98.76,4.5.98,2.34.34,4.71.54,7.07.8.24.52.47,1.03.71,1.55-2.93,2.72-5.66,5.7-8.81,8.11-11.9,9.1-23.94,18.02-35.92,27"/>
  <path class="cls-1" d="M212.23,202.56c-11.99,8.65-23.98,17.29-35.94,25.98-1.13.82-2.01,1.97-3.01,2.97"/>
  <path class="cls-1" d="M278.16,258.47c-9.16,6.99-18.33,13.95-27.46,20.98-4.22,3.25-8.33,6.64-12.5,9.97"/>
  <path class="cls-1" d="M258.68,242.99c-13.32,9.82-26.64,19.63-39.95,29.45"/>
  <path class="cls-1" d="M110.85,214.54c11.49,11.31,22.94,22.67,34.51,33.89,1.27,1.23,3.28,1.72,4.94,2.55"/>
  <path class="cls-1" d="M222.72,212.54c-11.99,8.65-23.99,17.29-35.93,25.99-1.02.74-1.69,1.96-2.52,2.96"/>
  <path class="cls-1" d="M161.79,157.63c.36.65.71,1.31,1.36,2.5-12.28,8.65-24.55,17.3-36.82,25.96"/>
  <path class="cls-1" d="M252.69,237.5c-12.99,9.65-25.97,19.3-38.96,28.95"/>
  <path class="cls-1" d="M265.17,247.98c-12.99,9.82-25.97,19.63-38.96,29.45"/>
  <path class="cls-1" d="M217.23,207.55c-12.65,9.32-25.3,18.64-37.96,27.95"/>
  <path class="cls-1" d="M201.25,193.57c-12.65,8.99-25.3,17.97-37.96,26.96"/>
  <path class="cls-1" d="M234.21,222.53c-12.65,9.32-25.3,18.64-37.96,27.95"/>
  <path class="cls-1" d="M185.26,178.6c-5.33,4.33-10.5,8.86-16.02,12.93-6.83,5.04-13.95,9.7-20.94,14.53"/>
  <path class="cls-1" d="M228.22,217.53c-12.65,9.32-25.3,18.64-37.96,27.95"/>
  <path class="cls-1" d="M240.2,227.52c-12.65,9.32-25.3,18.64-37.96,27.95"/>
  <path class="cls-1" d="M205.74,198.57c-12.49,8.99-24.97,17.97-37.46,26.96"/>
  <path class="cls-1" d="M136.32,136.17c-.05,2.76-1.71,4.09-3.94,5.58-10.45,6.96-20.7,14.22-31.02,21.38"/>
  <path class="cls-1" d="M285.15,263.96c-13.98,10.48-27.97,20.97-41.95,31.45"/>
  <path class="cls-1" d="M126.83,131.68c-10.15,6.99-20.28,14.01-30.49,20.93-2.07,1.4-4.1,2.63-3.97,5.52"/>
  <path class="cls-1" d="M195.25,189.08c-12.32,8.82-24.64,17.64-36.96,26.46"/>
  <path class="cls-1" d="M367.56,48.32c-10.32,7.49-20.64,14.97-30.96,22.46-1.83,1.33-3.66,2.66-5.49,3.99"/>
  <path class="cls-1" d="M319.11,293.41c-7.82,6.16-15.66,12.3-23.47,18.47-4.18,3.3-8.33,6.65-12.49,9.98"/>
  <path class="cls-1" d="M174.28,171.61c-11.99,8.49-23.97,16.97-35.96,25.46"/>
  <path class="cls-1" d="M179.27,176.1c-11.99,8.49-23.97,16.97-35.96,25.46"/>
  <path class="cls-1" d="M189.76,184.59c-11.32,7.99-22.65,15.97-33.95,23.98-.76.54-1.34,1.31-2.01,1.98"/>
  <path class="cls-1" d="M145.31,146.65c-11.65,8.15-23.31,16.31-34.96,24.46"/>
  <path class="cls-1" d="M151.8,151.64c-.67-.17-1.59-.7-1.96-.45-11.7,8.09-23.34,16.25-35,24.41"/>
  <path class="cls-1" d="M156.8,157.14c-11.65,8.15-23.31,16.31-34.96,24.46"/>
  <path class="cls-1" d="M168.78,167.62c-10.99,7.65-21.98,15.3-32.95,22.98-.76.53-1.34,1.31-2.01,1.98"/>
  <path class="cls-1" d="M140.32,143.16c-10.32,7.15-20.66,14.29-30.95,21.49-1.14.8-2.02,1.97-3.02,2.97"/>
  <path class="cls-1" d="M93.37,102.73c-10.32,6.99-20.66,13.96-30.94,21-.84.58-1.35,1.63-2.02,2.46"/>
  <path class="cls-1" d="M109.35,116.7c-9.66,6.66-19.3,13.32-28.98,19.95-1.6,1.1-3.32,2.01-4.98,3.01"/>
  <path class="cls-1" d="M288.15,267.45c-13.15,9.82-26.31,19.62-39.43,29.49-.72.54-1.03,1.63-1.53,2.46"/>
  <path class="cls-1" d="M130.83,135.67c-10.32,7.15-20.65,14.3-30.95,21.49-.95.66-1.68,1.64-2.51,2.47"/>
  <path class="cls-1" d="M96.87,106.72c-10.32,6.99-20.63,13.99-30.98,20.93-.84.57-1.98.7-2.98,1.03"/>
  <path class="cls-1" d="M101.36,110.21c-11.32,7.49-22.64,14.98-33.96,22.46"/>
  <path class="cls-1" d="M299.13,100.73c8.82-6.32,17.67-12.61,26.45-18.99,2.28-1.66,4.34-3.61,5.95-6.18-12.18,6.53-23.15,14.82-34.4,22.67"/>
  <path class="cls-1" d="M85.38,96.74c-9.99,6.49-19.96,13-29.99,19.43-1.17.75-2.64,1.03-3.97,1.53"/>
  <path class="cls-1" d="M164.29,163.13c-9.49,6.82-18.97,13.66-28.48,20.45-1.65,1.18-3.44,2.18-4.19,3.58-.1,1.14-.2,2.28-.3,3.42"/>
  <path class="cls-1" d="M122.34,128.18l-32.96,22.46"/>
  <path class="cls-1" d="M104.86,113.71c-9.99,6.82-19.99,13.63-29.95,20.49-.95.66-1.68,1.64-2.51,2.47"/>
  <path class="cls-1" d="M118.34,123.69c-9.82,6.82-19.63,13.66-29.49,20.43-.64.44-1.64.37-2.47.54"/>
  <path class="cls-1" d="M81.38,93.24c-10.82,7.15-21.64,14.31-32.46,21.46"/>
  <path class="cls-1" d="M315.61,290.91c-13.98,10.82-27.97,21.63-41.95,32.45"/>
  <path class="cls-1" d="M154.8,257.47c10.41,10.4,20.81,20.8,32.25,32.22.5-1.15.86-1.96,1.22-2.77"/>
  <path class="cls-1" d="M65.4,169.61c6.33,6.32,12.68,12.61,18.96,18.99,1.64,1.66,4.23,2.87,3.52,5.97"/>
  <path class="cls-1" d="M113.85,120.7c-10.82,7.32-21.64,14.64-32.46,21.96"/>
  <path class="cls-1" d="M88.88,99.73c-8.82,5.99-17.65,11.97-26.46,17.98-1.87,1.27-3.67,2.65-5.5,3.99"/>
  <path class="cls-1" d="M65.9,80.26c-10.75,6.84-21.5,13.68-32.86,20.9,6.13,5.66,11.76,10.85,17.38,16.04"/>
  <path class="cls-1" d="M291.14,270.45c-13.48,10.32-26.97,20.63-40.45,30.95"/>
  <path class="cls-1" d="M312.12,287.92c-13.65,10.48-27.3,20.97-40.95,31.45"/>
  <path class="cls-1" d="M308.12,76.77c9.73-6.65,19.47-13.3,29.2-19.95-.43-.63-.87-1.26-1.3-1.89-10.09,5.9-19.37,13.07-28.9,19.85"/>
  <path class="cls-1" d="M238.7,415.7c5.01-1.77,3.81,1.98,4,4.49"/>
  <path class="cls-1" d="M294.14,273.44c-13.48,10.32-26.97,20.63-40.45,30.95"/>
  <path class="cls-1" d="M308.12,284.92c-12.99,9.98-25.97,19.96-38.95,29.96-.74.57-1.34,1.32-2.01,1.98"/>
  <path class="cls-1" d="M82.88,271.94c0,.5-.2,1.14.03,1.48,4.15,5.97,8.25,11.99,14.73,15.79,2.92-1.73,5.54-3.29,7.31-4.34,4.03.27,7.18.48,10.54.71.19-1.97.32-3.3.35-3.65,0-1.17.07-1.43-.01-1.49-1.82-1.35-3.55-2.86-5.52-3.93-1.09-.59-2.58-.45-4.17-.68-1.42,3.2-3.84,5.56-2.28,9.09"/>
  <path class="cls-1" d="M253.19,67.78c6.33-5.47,12.66-10.95,19-16.42-.28-.39-.56-.77-.84-1.16-.73.37-1.5.67-2.17,1.12-6.84,4.48-13.68,8.94-20.45,13.51-.73.49-1.03,1.62-1.53,2.45"/>
  <path class="cls-1" d="M170.78,153.64c-.83,2.33-1.83,4.61-2.46,7-1.27,4.81-.67,5.52,4.46,5.98"/>
  <path class="cls-1" d="M305.13,281.43c-11.15,8.65-22.31,17.3-33.46,25.96-2.52,1.96-5,3.99-7.5,5.98"/>
  <path class="cls-1" d="M303.38,466.12c.42,2.33.83,4.66,1.25,6.99"/>
  <path class="cls-1" d="M280.66,288.92c-7.82,6.32-15.65,12.65-23.47,18.97"/>
  <path class="cls-1" d="M299.63,57.3c-7.16,4.99-14.31,10-21.5,14.93-.45.31-1.3.04-1.97.04"/>
  <path class="cls-1" d="M238.2,120.7c2.5,1.16,5.22,2,7.45,3.55,10.58,7.36,21.02,14.92,31.5,22.41"/>
  <path class="cls-1" d="M286.15,91.25c4.99-3,10.06-5.88,14.95-9.03,2.57-1.65,4.82-3.78,6.89-6.3-5.58,0-9.07,4.5-13.2,7.09-4.16,2.59-9.21,5.1-10.64,10.74"/>
  <path class="cls-1" d="M227.72,433.67c-.16,4.49,2.01,6.81,6.49,6.99"/>
  <path class="cls-1" d="M588.3,358.3c1.17.5,2.33,1,4.01,1.72,1.23-1.31,2.61-2.76,3.98-4.21"/>
  <path class="cls-1" d="M556.84,359.8c-2.8-1-6.99-.07-6.99-4.99"/>
  <path class="cls-1" d="M194.75,185.59c1,1.62,1.99,3.24,3.1,5.05,1.66-.87,2.77-1.46,3.89-2.05"/>
  <path class="cls-1" d="M406.01,171.11c-6.49-4.66-12.88-9.47-19.51-13.93-7.2-4.85-14.58-9.42-21.98-13.97-1.63-1-3.63-1.38-5.46-2.05"/>
  <path class="cls-1" d="M302.13,278.43c-13.32,10.15-26.64,20.29-39.94,30.46-.74.57-1.34,1.32-2.01,1.98"/>
  <path class="cls-1" d="M321.11,12.88c-14.15,9.65-28.29,19.32-42.48,28.91-.95.64-2.3.71-3.47,1.04"/>
  <path class="cls-1" d="M111.1,299.4c-1.83,3.64-.46,6.54,2.27,8.96,2.74,2.43,5.64,4.68,8.47,7.01"/>
  <path class="cls-1" d="M289.64,51.81h-3.62c-9.98,6.02-22.57,9.8-31.84,18.97"/>
  <path class="cls-1" d="M236.21,301.39c2.29-1.25,4.57-2.5,7.9-4.32.51.9,1.05,1.86,1.59,2.82"/>
  <path class="cls-1" d="M99.86,265.95c-2.33-.5-4.66-1-6.99-1.5"/>
  <path class="cls-1" d="M298.63,494.57c-.67,1.16-1.33,2.33-2,3.49"/>
  <path class="cls-1" d="M342.58,431.68c-1.32.53-2.65,1.05-4.17,1.65-1.06-.53-2.19-1.09-3.32-1.65"/>
  <path class="cls-1" d="M657.22,295.4c.24.98.47,1.96.78,3.25,1.53.22,3.37.48,5.21.75"/>
  <path class="cls-1" d="M648.73,328.85c-.33,1.5-.66,3-.93,4.24-4.91,3.1-9.82,5.47-15.55,2.75"/>
  <path class="cls-1" d="M308.62,356.8h-1.5"/>
  <path class="cls-1" d="M358.57,31.84c-6.16,4.33-12.32,8.65-18.48,12.98"/>
  <path class="cls-1" d="M474.68,385.26c-.08,1-.17,2-.25,3"/>
  <path class="cls-1" d="M417,414.71c-3.4.68-6.8,1.36-9.8,1.95-.53,2.71-.86,4.37-1.19,6.04"/>
  <path class="cls-1" d="M279.16,243.99c1.12,1.9,2.36,3.6,4.99,3"/>
  <path class="cls-1" d="M186.76,288.92c3.66,3.83,7.15,7.85,11.08,11.38,1.43,1.29,3.9,1.43,5.9,2.1"/>
  <path class="cls-1" d="M228.71,202.06c-3.2-.31-5.73-1.51-6.49-4.99"/>
  <path class="cls-1" d="M264.17,45.82c2.38-1.77,4.76-3.53,7.79-5.78-2.43-.4-4.13-.69-6.45-1.07-8.55,7.63-20.7,11.42-28.31,21.33"/>
  <path class="cls-1" d="M64.9,100.73c-5.83,3.99-11.65,7.99-17.48,11.98"/>
  <path class="cls-1" d="M74.89,87.25c-3.83,2-7.82,3.73-11.45,6.05-7.28,4.64-14.35,9.6-21.51,14.42"/>
  <path class="cls-1" d="M9.97,191.08c.06,3.95,2.64,5.13,5.99,5.49"/>
  <path class="cls-1" d="M401.52,423.19c-5.17-1.86-6.53-1.38-9.99,3.49"/>
  <path class="cls-1" d="M258.18,35.84c-8.66,5.66-17.31,11.31-26.65,17.42.29-1.68.49-2.81.68-3.94"/>
  <path class="cls-1" d="M353.07,430.18c.22,2.01.45,4.01.74,6.61,9.04-4.17,17.61-8.2,26.24-12.09,19.63-8.86,39.29-17.63,58.92-26.49,3.39-1.53,6.67-3.31,10-4.97"/>
  <path class="cls-1" d="M285.65,39.83c-5.26,5.79-13.69,5.44-19.58,10.36-5.85,4.89-12.56,8.76-18.87,13.12-1.07.74-2.01,1.65-3.01,2.48"/>
  <path class="cls-1" d="M76.39,70.78c-.33,3.99-1.67,8.24-.73,11.91,1.06,4.16-.38,6.1-3.26,8.05"/>
  <path class="cls-1" d="M214.73,205.06c2.66,1.16,5.33,2.33,7.99,3.49"/>
  <path class="cls-1" d="M298.63,275.44c-5.49,4.16-10.99,8.32-16.48,12.48"/>
  <path class="cls-1" d="M275.66,64.29c-5.16,3.83-10.32,7.65-15.48,11.48"/>
  <path class="cls-1" d="M693.68,279.43c-3.16.33-6.33.67-9.49,1"/>
  <path class="cls-1" d="M179.77,381.76c2.33,2.16,4.66,4.33,6.99,6.49"/>
  <path class="cls-1" d="M161.29,157.14c-2.72,1.98-3.52-.85-4.99-2"/>
  <path class="cls-1" d="M577.81,330.35c-.32,2.35-1.95,2.95-4,3"/>
  <path class="cls-1" d="M278.16,130.68c0,5.66.03,11.31-.04,16.97,0,.5-.62,1-.96,1.5"/>
  <path class="cls-1" d="M736.63,289.91c-3.19-2.64-6.57-4.73-10.99-3.99"/>
  <path class="cls-1" d="M441.47,192.58c1.33,1.5,2.66,3,4,4.49"/>
  <path class="cls-1" d="M471.94,383.26c-3.99,1.84-7.98,3.68-10.86,5.01-2.58-2.72-4.85-5.11-7.12-7.51"/>
  <path class="cls-1" d="M190.26,367.78c1.44.42,2.88.85,4.76,1.4-.56,1.87-1.05,3.51-1.73,5.78.79,1.41,1.87,3.35,2.96,5.3"/>
  <path class="cls-1" d="M662.22,307.38c-3.35-1.86-6.77-2.98-10.09-1.25-.93,1.66-1.66,2.95-2.39,4.25"/>
  <path class="cls-1" d="M290.64,53.81c-4.33,3.16-8.63,6.37-13.02,9.43-.56.39-1.63.05-2.46.05"/>
  <path class="cls-1" d="M608.28,350.81c-3.11,3.31-6.9,5.08-11.49,4.99"/>
  <path class="cls-1" d="M144.81,336.84c0,1.16.17,2.36-.03,3.49-.75,4.09,1.32,5.7,5.03,6"/>
  <path class="cls-1" d="M276.16,487.58c2,.67,4,1.33,5.99,2"/>
  <path class="cls-1" d="M146.81,145.16c-.29,2.62.87,3.78,3.5,3.49"/>
  <path class="cls-1" d="M497.91,402.73c-1.75,2.36-4.06,3.41-6.99,3"/>
  <path class="cls-1" d="M477.43,402.73c-1,.17-2,.33-3,.5"/>
  <path class="cls-1" d="M470.44,413.71c1.5.33,3,.66,5.06,1.11,1.02-1.22,2.23-2.66,3.43-4.1"/>
  <path class="cls-1" d="M368.05,460.13c-2.51,4.31-5.96,7.42-10.99,8.49"/>
  <path class="cls-1" d="M675.7,216.54c.67-2.16,1.34-4.32,2.16-6.98-4.08-.07-6.58,1.36-7.15,5.48"/>
  <path class="cls-1" d="M434.98,424.44c-3,.58-5.99,1.16-8.99,1.75"/>
  <path class="cls-1" d="M124.33,304.89c-1.66.17-3.33.33-4.99.5.06-.18.12-.37.18-.55-2.72-.98-5.39-2.18-8.18-2.9-6.82-1.75-10.77-6.43-13.47-12.52"/>
  <path class="cls-1" d="M172.78,371.78c.1,6.51,8.47,11.39,14.99,10.52,1.96-.26,3.99-.04,5.99-.04"/>
  <path class="cls-1" d="M265.67,364.79c2,2.83,3.7,5.94,6.06,8.42,3.56,3.75,7.59,7.05,11.42,10.55"/>
  <path class="cls-1" d="M78.89,91.74c-4.34,2.97-8.69,5.95-13.42,9.19-.29-.49-.66-1.11-1.13-1.92,2.81-2.06,5.68-4.17,8.56-6.28"/>
  <path class="cls-1" d="M686.19,312.38c-2.93,6.12-5.6,7.28-11.49,4.99"/>
  <path class="cls-1" d="M247.19,113.21q-2.5,4.49-10.99,3c0-.17-.06-.37.01-.49.22-.35.49-.67.74-1.01"/>
  <path class="cls-1" d="M322.61,97.24c-4.33,3.16-8.66,6.32-12.99,9.48"/>
  <path class="cls-1" d="M598.29,336.34c-7.25-3.35-9.58-2.8-12.26,2.55-2.47.9-4.59,1.67-6.72,2.44"/>
  <path class="cls-1" d="M458.95,422.19c3.12,1.28,3.32-.85,3.5-3"/>
  <path class="cls-1" d="M452.46,424.19c-2.16.83-4.33,1.66-6.49,2.5-.84.32-2.06.42-2.44,1.03-3.15,5.15-7.82,5.55-13.05,4.45"/>
  <path class="cls-1" d="M410.51,434.67c-2.66.33-5.33.67-7.99,1"/>
  <path class="cls-1" d="M624.26,342.83c-1.23,1.42-2.45,2.84-3.77,4.37-2.62-1.04-4.92-1.96-7.22-2.87"/>
  <path class="cls-1" d="M287.15,452.64c-.33,3.83-.61,7.66-1.03,11.48-.17,1.52-.64,3-.97,4.5"/>
  <path class="cls-1" d="M288.15,26.85c-3.5,2.33-6.96,4.71-10.52,6.94-.6.37-1.63.05-2.46.05"/>
  <path class="cls-1" d="M255.68,53.81c-4.16,3-8.32,5.99-12.49,8.99"/>
  <path class="cls-1" d="M309.12,26.85c-2.99,2-5.99,4-8.4,5.62-.97-.4-1.8-.74-2.81-1.16-2.96,2.17-7.25,4.31-10.06,7.68-2.39,2.86-4.51,5.8-7.69,7.82"/>
  <path class="cls-1" d="M324.11,452.64c.69,1.4,1.39,2.81,2.15,4.35,2.33.68,4.83,1.41,7.34,2.14"/>
  <path class="cls-1" d="M334.09,18.87c-4,2.66-7.99,5.32-11.99,7.99"/>
  <path class="cls-1" d="M312.12,6.89c-11.65,8.15-23.3,16.32-35,24.41-.37.26-1.29-.28-1.96-.45"/>
  <path class="cls-1" d="M270.17,27.85c-3.69,2.29-7.37,4.58-11.01,6.84.62,4.7-3.95,4.83-5.97,7.14"/>
  <path class="cls-1" d="M287.65,52.81c-3.91,2.92-6.99,7.21-12.49,7.49"/>
  <path class="cls-1" d="M419,179.1c-3.16-2.33-6.12-5.06-9.58-6.82-1.65-.84-4.32-.15-6.39.4-3.4.9-6.68,2.26-10.01,3.42"/>
  <path class="cls-1" d="M331.6,479.6h-1.5"/>
  <path class="cls-1" d="M680.2,261.46c-.53-1.87-1.07-3.74-1.81-6.34-2.41.49-4.55.92-6.68,1.35"/>
  <path class="cls-1" d="M477.43,393.24c-3.35-6.01-3.39-6.07-9.97-2.96-2.76,1.3-5.34,2.96-8.01,4.46"/>
  <path class="cls-1" d="M134.82,330.85c-2.5-2.16-5.53-3.97-7.29-6.62-1.07-1.61-.2-4.53-.2-6.86"/>
  <path class="cls-1" d="M253.69,228.52c.59,1.37,1.17,2.73,1.76,4.11-.38,1-.82,2.19-1.26,3.37"/>
  <path class="cls-1" d="M245.7,48.32c-4.6-.28-6.82,3.99-10.11,5.33-.89,1.74-1.63,3.2-2.37,4.66"/>
  <path class="cls-1" d="M274.66,68.28c-3.83,2.66-7.66,5.32-11.49,7.99"/>
  <path class="cls-1" d="M453.46,420.7h-11.49"/>
  <path class="cls-1" d="M648.73,309.38c-4.65-.77-7.87,1.48-10.49,4.99"/>
  <path class="cls-1" d="M139.32,331.84q-.84,4.49,3,7.99h5.99"/>
  <path class="cls-1" d="M403.01,169.61c-4.33,1.66-8.66,3.33-12.99,4.99"/>
  <path class="cls-1" d="M159.79,358.8c-.16,2.49.88,4.38,3.46,3.84,1.35-.28,2.58-2.03,3.45-3.39.58-.9.41-2.28.58-3.44"/>
  <path class="cls-1" d="M302.13,105.72c1.5,0,3.34-.57,4.44.09,6.61,3.97,13.07,8.19,19.53,12.4,5.84,3.81,11.61,7.72,17.55,11.68-.33,1.63-.7,3.46-1.06,5.28"/>
  <path class="cls-1" d="M193.75,360.3c1.4,1.59,2.81,3.17,4.28,4.85,2.11-1.05,3.91-1.95,5.7-2.85"/>
  <path class="cls-1" d="M494.41,385.75c3.94.71,7.83,1.49,8.49,6.49"/>
  <path class="cls-1" d="M566.33,360.8c1.43,6.02,4.51,7.22,8.99,3.49"/>
  <path class="cls-1" d="M347.58,49.32l-10.49,7.49"/>
  <path class="cls-1" d="M421.99,227.02c-.24,1.95-.48,3.89-.86,7,2.96-1.27,4.41-1.89,5.85-2.51"/>
  <path class="cls-1" d="M571.82,334.34c-4,5.29-8.99,9.2-15.48,10.98"/>
  <path class="cls-1" d="M351.07,186.59c-3.5,1.33-6.99,2.66-10.49,3.99"/>
  <path class="cls-1" d="M299.63,32.84c-1.98,3.47-7.85,3.28-8.82,9.25-2.6,1.67-6.13,3.95-9.66,6.23"/>
  <path class="cls-1" d="M448.46,404.72c-.39-1.53-.79-3.05-1.13-4.4-6.59-.82-4.63,4.46-5.86,7.4"/>
  <path class="cls-1" d="M636.25,315.87c5.41-1.44,8.07-.65,9.98,2.98-.83,2.18-1.66,4.34-2.49,6.51"/>
  <path class="cls-1" d="M494.41,393.74h7.46c.25-.63.49-1.27.74-1.9,2.34,1.82,4.68,3.64,7.37,5.74-3.58,2.15-5.99,3.84-8.62,5.04-.84.38-2.28-.55-3.45-.89"/>
  <path class="cls-1" d="M336.09,289.41c3,2.33,5.99,4.66,8.99,6.99"/>
  <path class="cls-1" d="M417,231.01c-.46,1.36-.92,2.72-1.31,3.86-2.88,1.05-5.55,2.03-8.4,3.07-.74,1.48-1.51,3.01-2.28,4.55"/>
  <path class="cls-1" d="M492.91,273.94c-.38,2.45-.76,4.89-1.26,8.14,1.93-.98,2.6-1.32,3.26-1.66"/>
  <path class="cls-1" d="M667.21,251.48c-.64-4.29-4.57-2.83-6.99-3.99"/>
  <path class="cls-1" d="M328.1,15.87c-3,2.16-5.99,4.33-8.99,6.49"/>
  <path class="cls-1" d="M261.68,58.8c-2.5,1.83-5.08,3.56-7.47,5.52-2.18,1.79-3.26,4.09-2.02,6.96"/>
  <path class="cls-1" d="M308.62,23.86c-3.16,2.33-6.33,4.66-9.49,6.99"/>
  <path class="cls-1" d="M334.59,299.9c2.39.82,4.79,1.63,7.18,2.45.04-.19.09-.38.13-.58l9.17,2.62"/>
  <path class="cls-1" d="M281.15,239.5c-.91,1.09-1.82,2.19-2.42,2.91-3.27-2.13-6.17-4.02-9.07-5.9"/>
  <path class="cls-1" d="M313.12,35.84c2.33-1.03,4.67-2.07,7-3.1.16.37.33.74.49,1.1,2.66-2,5.34-3.98,7.97-6.02.18-.14.08-.63.22-2.07-2.27,1.23-3.98,2.16-5.07,2.74-1.01-.42-1.84-.76-2.68-1.1-2.56,1.85-5.75,4.15-8.93,6.45"/>
  <path class="cls-1" d="M254.68,51.81c-1.12.22-2.24.44-4.59.91-1.38,1.95-6.76,1.9-7.71,7.94,4.06-2.9,7.18-5.13,10.3-7.35"/>
  <path class="cls-1" d="M49.42,165.12c-3.86-.95-7.04.09-9.49,3.24"/>
  <path class="cls-1" d="M420.49,185.09c1.32.38,2.64.75,3.55,1.01,4.58,4.02,5.33,11.3,12.44,12.47"/>
  <path class="cls-1" d="M388.53,47.32c-3.16,2.16-6.33,4.33-9.49,6.49"/>
  <path class="cls-1" d="M377.04,41.83c-2.33,1.83-4.59,3.77-7.04,5.42-.69.46-1.95.07-2.95.07"/>
  <path class="cls-1" d="M563.83,358.8c4.16,1.33,8.32,2.66,12.49,3.99"/>
  <path class="cls-1" d="M369.05,36.84c-3,2.33-5.99,4.66-8.99,6.99"/>
  <path class="cls-1" d="M250.69,113.21c.5,2.08,1.01,4.15,1.59,6.55,2.96-.88,4.93-1.47,6.9-2.06"/>
  <path class="cls-1" d="M96.37,88.75v9.48"/>
  <path class="cls-1" d="M390.53,448.15c-1.35,8.03-6.62,11.15-13.48,7.99"/>
  <path class="cls-1" d="M324.11,13.37c-2.66,2.33-5.33,4.66-7.99,6.99"/>
  <path class="cls-1" d="M322.61,28.85c-3.71,3.13-5.15,8.44-10,10.45-.57.24-1.32.03-1.98.03"/>
  <path class="cls-1" d="M38.43,196.07c-.83,2.66-1.66,5.32-2.5,7.99"/>
  <path class="cls-1" d="M490.91,376.77c.97,2.18,1.94,4.35,3.17,7.13-.35,3.37-1.34,7.41-.95,11.32.21,2.13,2.77,4.02,4.27,6.01"/>
  <path class="cls-1" d="M376.05,315.37c-3.87,4.16-2.76,8.32,0,12.48"/>
  <path class="cls-1" d="M356.07,30.85l-8.99,5.99"/>
  <path class="cls-1" d="M264.67,47.82c-2.79,2.05-5.58,4.11-8.2,6.04-.5-.63-.87-1.1-1.25-1.57,1.13-1.13,2.3-2.3,3.46-3.46"/>
  <path class="cls-1" d="M363.56,34.84c-2.83,2-5.66,3.99-8.49,5.99"/>
  <path class="cls-1" d="M288.65,16.37c-.98-1.39-1.96-2.79-3.13-4.45-.14.34-.48,1.17-.94,2.3.15.08,1.13.6,2.77,1.48-3.6,2.52-6.33,4.42-9.57,6.68.2-2.21.35-3.88.48-5.33,2.24-1.01,4.07-1.84,5.9-2.67"/>
  <path class="cls-1" d="M1.73,178.1c-1.37,6.04-1.23,6.29,4.25,7.99"/>
  <path class="cls-1" d="M186.76,367.29c-.69,2.55-1.38,5.1-2.07,7.65-.4.02-.79.04-1.19.06.82,1.01,1.64,2.02,2.07,2.55,3.01-.3,5.35-.54,7.69-.77"/>
  <path class="cls-1" d="M337.09,423.69c-1,2.83-2,5.66-3,8.49"/>
  <path class="cls-1" d="M214.23,189.58c2.43,2.07,4.87,4.13,7.32,6.22-1,1.43-2.17,3.1-3.33,4.76"/>
  <path class="cls-1" d="M103.36,269.45c-.37,1.32-.74,2.64-1.24,4.45,1.01.95,2.12,1.99,3.24,3.03"/>
  <path class="cls-1" d="M275.66,248.48c2.01,2.36,5.66,3.53,5.49,7.49"/>
  <path class="cls-1" d="M344.08,131.18c5.38,1.48,9.88,4.23,12.99,8.99"/>
  <path class="cls-1" d="M488.42,386.75c-1.48,4.5-.33,9.87-4.49,13.48"/>
  <path class="cls-1" d="M102.36,205.55h-7.49"/>
  <path class="cls-1" d="M307.12,281.93c4.08,3.59,8.16,7.17,12.32,10.83,1.89-.68,3.52-1.26,5.16-1.84"/>
  <path class="cls-1" d="M40.43,105.72c1.83-1.33,3.68-2.65,5.47-4.02.18-.14.08-.63.22-2.07-3.44,1.91-6.32,3.5-9.19,5.09"/>
  <path class="cls-1" d="M365.56,324.36h7.99"/>
  <path class="cls-1" d="M561.33,271.44c6.63.13,10.39,4.34,13.48,9.48"/>
  <path class="cls-1" d="M449.96,414.21c-2.66.67-5.33,1.33-7.99,2"/>
  <path class="cls-1" d="M299.13,148.65c.79,4.56,1.02,4.69,5.49,3"/>
  <path class="cls-1" d="M485.92,394.24c-2.79-.81-5.53-2.56-8.94-.33,1.35,2.16,2.65,4.24,3.95,6.32"/>
  <path class="cls-1" d="M310.12,15.87c-5.04-1.79-8.51,1.1-11.99,3.99"/>
  <path class="cls-1" d="M353.57,28.85c-6.15,3.29-7.95,11.08-14.48,13.98"/>
  <path class="cls-1" d="M59.91,55.8c2.5,1.33,4.99,2.66,7.49,3.99"/>
  <path class="cls-1" d="M311.12,13.37c-.38-.46-.77-.92-1.25-1.5-3.19,3.36-6.51,6.86-9.85,10.37-.89-.88-1.38-1.38-2.18-2.18-.85.56-1.77,1.18-2.7,1.8"/>
  <path class="cls-1" d="M318.11,11.88c-2.31,1.46-4.62,2.92-6.93,4.38-.3-.41-.59-.83-.89-1.24,2.33-1.97,4.65-3.93,7.19-6.08,3.17,1.86,6.64,3.9,10.12,5.94"/>
  <path class="cls-1" d="M304.13,147.15c.51,1.54,1.02,3.08,1.6,4.83,1.44-.57,2.41-.95,3.39-1.34"/>
  <path class="cls-1" d="M345.33,305.39c.42,1.66.83,3.33,1.25,4.99"/>
  <path class="cls-1" d="M366.06,35.84c-2.33,2-4.66,3.99-6.99,5.99"/>
  <path class="cls-1" d="M316.11,9.38c-2.5-1.83-4.99-3.66-7.48-5.48-3.01,2-6.01,3.99-9,5.98"/>
  <path class="cls-1" d="M136.32,309.38c-1.73-.87-3.46-1.73-6.12-3.06-.35,3.83-.61,6.69-.87,9.55"/>
  <path class="cls-1" d="M128.33,281.93c-.83,2.33-1.66,4.66-2.5,6.99"/>
  <path class="cls-1" d="M586.3,362.29c.53-1.43,1.06-2.86,1.93-5.23-2.33.58-3.63.91-4.93,1.23"/>
  <path class="cls-1" d="M460.45,396.24h6.32c-.31,2.35-.48,3.69-.62,4.77-2.37,1.06-4.49,2.01-7.34,3.29-.99-1.59-1.92-3.08-2.85-4.57"/>
  <path class="cls-1" d="M126.33,299.9c-2.5-.33-4.99-.67-7.49-1"/>
  <path class="cls-1" d="M437.97,407.22c-2.5-1.51-4.99-2.22-7.49,0"/>
  <path class="cls-1" d="M361.06,32.84c-2.33,2.16-4.66,4.33-6.99,6.49"/>
  <path class="cls-1" d="M557.84,352.81c-2.31,2.96-4.97.67-7.49.5"/>
  <path class="cls-1" d="M163.79,363.29c1.66,1.66,3.33,3.33,4.99,4.99"/>
  <path class="cls-1" d="M214.73,307.38c-2.33.67-4.66,1.33-6.99,2"/>
  <path class="cls-1" d="M309.62,5.89c-2.66,2-5.33,3.99-7.09,5.31-3.1.28-5.25.48-7.39.68"/>
  <path class="cls-1" d="M562.83,327.35c-1.01,1.82-2.02,3.65-3.43,6.18,2.59,2.05,5.26,4.17,8.23,6.53,1.6-.53,3.39-1.13,5.19-1.73"/>
  <path class="cls-1" d="M481.42,276.19c.5.75,1.2,1.43,1.46,2.26,1.5,4.75,4.1,5.69,8.52,2.98"/>
  <path class="cls-1" d="M319.11,452.64c.25,3,3.45,5.99,0,8.99"/>
  <path class="cls-1" d="M256.18,111.21c.17,2.33.33,4.66.5,6.99"/>
  <path class="cls-1" d="M299.13,24.86c-1.87,1.28-3.73,2.56-5.72,3.92-1.27-.42-2.77-.92-4.27-1.42"/>
  <path class="cls-1" d="M60.91,160.63c-4.06-.53-7.61.46-10.49,3.49"/>
  <path class="cls-1" d="M295.64,11.38c.59-.88,1.18-1.77,2.06-3.08,1.04,1.39,1.82,2.42,2.57,3.43-.28.5-.39,1.03-.65,1.12-6.75,2.25-10.69,9.68-18.32,10.46-2.05.68-4.1,1.36-6.14,2.05"/>
  <path class="cls-1" d="M224.22,208.05c-.65-1.51-1.29-3.02-1.99-4.63-3.79-2.26-7.65-4.55-11.5-6.85"/>
  <path class="cls-1" d="M717.65,283.92c-.17,1.83-.33,3.66-.5,5.49"/>
  <path class="cls-1" d="M716.65,289.91c1.85,5.15,4.95.98,7.99,1v-4.5"/>
  <path class="cls-1" d="M497.91,394.74c.52,1.16,1.04,2.31,1.48,3.29-.54,1.35-1.01,2.52-1.48,3.7"/>
  <path class="cls-1" d="M588.8,362.29h-7.38c-.14,1.21-.33,2.9-.65,5.78-1.15-1.64-1.55-2.22-1.96-2.79"/>
  <path class="cls-1" d="M316.61,21.36c-2.16,1.5-4.33,3-6.49,4.49"/>
  <path class="cls-1" d="M623.76,334.34c2.16.83,4.33,1.66,6.49,2.5"/>
  <path class="cls-1" d="M348.58,439.17c-2.33.67-4.66,1.33-6.99,2"/>
  <path class="cls-1" d="M308.12,487.58c.33,2,.67,3.99,1,5.99"/>
  <path class="cls-1" d="M203.74,303.89l3,4.49"/>
  <path class="cls-1" d="M172.28,151.64c-2.49,2.94-5.39-.74-7.99.5"/>
  <path class="cls-1" d="M383.54,431.18h-5.99"/>
  <path class="cls-1" d="M306.63,4.39c-2.31-.24-4.61-.48-7.3-.76.47-.58,1.22-1.52,2.11-2.63,1.13.72,1.95,1.25,2.81,1.8-1.77,2.27-3.44,4.43-5.12,6.58"/>
  <path class="cls-1" d="M51.42,203.56c-3.33,3.16-6.66,6.32-9.99,9.48"/>
  <path class="cls-1" d="M399.02,431.18c1.07,1.79,2.14,3.58,3.22,5.37-.3.09-.6.19-.91.28.56,2.44,1.12,4.89,1.69,7.33"/>
  <path class="cls-1" d="M448.46,399.23c2.58-3.17,5.16-1.59,8.08.27,1.2-1,2.47-2.06,3.98-3.31q-3.89-1.33-7.07,1.05"/>
  <path class="cls-1" d="M429.98,185.09c-3.08-.76-4.93-5.18-8.99-3"/>
  <path class="cls-1" d="M173.28,164.62l-4.49-4.49"/>
  <path class="cls-1" d="M413,229.51c1.92,4.82,3.24,5.34,7.49,3"/>
  <path class="cls-1" d="M336.09,19.36c9.82,5.32,19.63,10.68,29.48,15.95,2.42,1.3,4.98,2.35,7.48,3.51"/>
  <path class="cls-1" d="M273.16,365.29c-1.5,1.16-3,2.33-4.49,3.49"/>
  <path class="cls-1" d="M309.12,17.87c-2.83,2-5.66,3.99-8.88,6.27-.33-.56-.7-1.18-1.27-2.16-.98.65-1.9,1.27-2.83,1.88"/>
  <path class="cls-1" d="M171.28,155.64l4.99,4.99"/>
  <path class="cls-1" d="M105.36,206.55c.5,1.83,1,3.66,1.5,5.49"/>
  <path class="cls-1" d="M274.16,30.35l-10.49,5.99"/>
  <path class="cls-1" d="M116.84,274.44c-1.83.75-3.66,1.5-5.49,2.25"/>
  <path class="cls-1" d="M281.65,322.86l-4.49,4.49"/>
  <path class="cls-1" d="M427.49,192.08c-1.17,1.66-2.33,3.33-3.5,4.99"/>
  <path class="cls-1" d="M338.09,433.67c-.19,1.16-.39,2.32-.64,3.87,1.31,1.14,2.72,2.38,4.14,3.62"/>
  <path class="cls-1" d="M199.75,191.58c2.53,2.83,5.43,4.8,9.49,3.99"/>
  <path class="cls-1" d="M352.07,185.59c.67,1,1.56,1.92,1.95,3.01,1.05,2.91,2.59,3.59,5.04,1.48"/>
  <path class="cls-1" d="M468.94,409.22c-1.5-.19-2.99-.37-5.24-.65-.25,2.09-.5,4.12-.75,6.14"/>
  <path class="cls-1" d="M458.95,389.25c-3.33,1.33-6.66,2.66-9.99,3.99"/>
  <path class="cls-1" d="M39.93,207.05l-8.99-4.49"/>
  <path class="cls-1" d="M489.91,224.02c-3.36-2.89-6.57-6.08-11.49-5.99"/>
  <path class="cls-1" d="M268.17,79.27c.98-1.07,1.96-2.15,2.95-3.22l-1.38-1.32-4.56,4.04"/>
  <path class="cls-1" d="M72.89,169.61c-1.66.33-3.33.67-4.99,1"/>
  <path class="cls-1" d="M9.97,177.1c-1.41,2.29-2.82,4.57-4.64,7.53,1.57,1.67,3.1,3.31,4.64,4.95"/>
  <path class="cls-1" d="M375.05,39.83c5.49,2.83,10.99,5.66,16.48,8.49"/>
  <path class="cls-1" d="M347.58,436.67c-.17-.17-.37-.31-.49-.51-.07-.12-.01-.32-.01-.49-2.44.99-5.25,1.58-5.49,4.99"/>
  <path class="cls-1" d="M342.08,438.17c-1.66-.83-3.26-2.09-5.01-2.39-2.33-.39-3.5-1.13-2.98-3.6"/>
  <path class="cls-1" d="M228.71,55.8c7.49,4.83,14.98,9.65,22.47,14.48"/>
  <path class="cls-1" d="M262.68,28.35c-2.16,1.16-4.33,2.33-6.49,3.49"/>
  <path class="cls-1" d="M352.57,433.18c-1.46.75-2.92,1.49-4.35,2.22-.8-1.39-1.48-2.55-2.15-3.71"/>
  <path class="cls-1" d="M241.2,46.32c-2.25-2.92-4.25-2.77-5.99.5"/>
  <path class="cls-1" d="M284.15,379.27c0,2,.12,4-.04,5.99-.1,1.18-.62,2.33-.96,3.5"/>
  <path class="cls-1" d="M85.38,89.75c.17,2,.33,3.99.5,5.99"/>
  <path class="cls-1" d="M250.69,36.34c-1.17.83-2.33,1.66-3.5,2.5"/>
  <path class="cls-1" d="M458.45,385.26c-2.66,1.33-5.27,2.81-8.03,3.9-.75.3-1.96-.57-2.96-.9"/>
  <path class="cls-1" d="M555.84,265.45c3.87,2.48,5.94,5.73,4.49,10.48"/>
  <path class="cls-1" d="M296.64,5.39c-1.27.64-2.54,1.28-3.81,1.92.29.45.59.89.88,1.34,1.81-1.42,3.62-2.84,5.43-4.26"/>
  <path class="cls-1" d="M330.1,294.91c-.8,1.19-1.6,2.38-2.59,3.85-1.05-.85-1.98-1.6-2.91-2.36"/>
  <path class="cls-1" d="M455.45,401.23c-1.04.78-2.08,1.56-4.33,3.25,1.21.53,2.02.89,2.83,1.24"/>
  <path class="cls-1" d="M353.07,437.17c-1.66.17-3.33.33-4.99.5"/>
  <path class="cls-1" d="M158.3,255.47c-1.13.57-2.26,1.13-4.49,2.25v-3.74"/>
  <path class="cls-1" d="M111.35,210.55c-1.33.5-2.66,1-4,1.5"/>
  <path class="cls-1" d="M486.92,410.21h-3.5"/>
  <path class="cls-1" d="M371.05,335.34c.67,1.16,1.33,2.33,2,3.49"/>
  <path class="cls-1" d="M315.12,362.79l-5.49-5.49"/>
  <path class="cls-1" d="M281.15,284.92c.33,2.66.67,5.32,1,7.99"/>
  <path class="cls-1" d="M256.18,240c1.83,1.16,3.66,2.33,5.49,3.49"/>
  <path class="cls-1" d="M268.67,24.36c-1.25.54-2.5,1.07-4.23,1.81,4.35,2.45,4.06-2.43,6.23-2.81"/>
  <path class="cls-1" d="M274.16,369.28c-1.17.5-2.33,1-3.5,1.5"/>
  <path class="cls-1" d="M562.33,364.29c.36.81.71,1.62.83,1.9,1.67-.56,2.16-.73,2.66-.9"/>
  <path class="cls-1" d="M289.64,8.88l-3.36,2.14c.29.28.57.57.86.85,2.37-.54,2.22-.61,3.08-2.46.28-.59,1.58-.71,2.41-1.04"/>
  <path class="cls-1" d="M243.7,39.83c-1.12.71-2.24,1.43-3.36,2.14,4.56,2.27,3.7-4.58,8.49-3.08,2,.63,3.33-6.19,7.44-6.56l.81,1.31c-1.8.9-3.6,1.8-5.39,2.69"/>
  <path class="cls-1" d="M419.99,229.51h-4"/>
  <path class="cls-1" d="M67.9,81.26c1.83,1.5,3.66,3,5.49,4.49"/>
  <path class="cls-1" d="M346.58,474.11c-1.83,1.33-3.66,2.66-5.49,3.99"/>
  <path class="cls-1" d="M241.2,43.33c-3.95,2.4-7.9,4.81-12.26,7.46.84.45,1.82.97,3.25,1.73-1.64,1.33-2.55,2.07-3.32,2.69-1.1-.66-2.13-1.28-3.16-1.9"/>
  <path class="cls-1" d="M156.3,251.48c-.83,2.35-2.34,1.95-4,1"/>
  <path class="cls-1" d="M108.35,212.54c1.27.69,3.2,1.15,1,3"/>
  <path class="cls-1" d="M302.13,494.07c1.33.33,2.66.67,4,1"/>
  <path class="cls-1" d="M317.61,489.58c-.83.17-1.66.33-2.5.5"/>
  <path class="cls-1" d="M345.08,472.11c2.37,2.68,5.26,1.23,7.99,1"/>
  <path class="cls-1" d="M282.15,318.87c.33,2.33.67,4.66,1,6.99"/>
  <path class="cls-1" d="M315.61,411.21c-.83.33-1.66.67-2.5,1"/>
  <path class="cls-1" d="M440.47,192.08c-.83.17-1.66.33-2.5.5"/>
  <path class="cls-1" d="M561.83,330.85c.82,1.6,4.6,2.02,2,4.99"/>
  <path class="cls-1" d="M264.67,25.85c-2.06,1.6-1.35,5.97-5.49,5.49"/>
  <path class="cls-1" d="M211.23,200.06c1,1.33,2,2.66,3,3.99"/>
  <path class="cls-1" d="M406.01,447.15h2"/>
  <path class="cls-1" d="M376.05,461.13h2"/>
  <path class="cls-1" d="M209.74,304.39c-.83,1.5-1.66,3-2.5,4.49"/>
  <path class="cls-1" d="M651.73,296.9c.33,1.5.67,3,1,4.49"/>
  <path class="cls-1" d="M302.13,497.07c-1.33.33-2.66.67-4,1"/>
  <path class="cls-1" d="M293.14,501.06c-.5.17-1,.33-1.5.5"/>
  <path class="cls-1" d="M370.05,465.12c-1.83.67-3.66,1.33-5.49,2"/>
  <path class="cls-1" d="M276.66,20.36c-.5.33-1.3.57-1.44,1.02-.35,1.11-.39,2.31-.56,3.48"/>
  <path class="cls-1" d="M420.99,441.16c-1.17.33-2.33.67-3.5,1"/>
  <path class="cls-1" d="M432.98,433.18c1,.33,2,.67,3,1"/>
  <path class="cls-1" d="M577.31,332.84c1.01,2.54,2.24,2.19,4.54,1.1,11.38-5.38,22.93-10.4,34.41-15.58,11-4.97,21.98-9.97,32.96-14.98,1.22-.56,2.34-1.32,3.5-1.98"/>
</svg>