<?xml version="1.0" encoding="UTF-8"?>
<svg id="Layer_1" data-name="Layer 1" xmlns="http://www.w3.org/2000/svg" viewBox="0 0 114.86 116.55">
  <defs>
    <style>
      .cls-1 {
        fill: white;
        stroke: #000;
        stroke-width: 4px;
        stroke-miterlimit: 10;
      }
    </style>
  </defs>
  <path class="cls-1" d="M68.6,13.53l-1.01,1.97c4.92-.67,16.92,2.86,20.38,5.93.98.87.37,2.46.78,2.86.83.83,13.62,2.76,18.48,8.19,1.2,1.34.48,2.58.67,2.81,1.36,1.64,5.95,1.93,6.41,5.83.62,5.18-4.43,21.58-6.86,26.74-4.77,10.16-12.7,15.2-18.05,23.95-2.62,4.28-8.9,22.8-9.82,23.69-1.54,1.5-1.72-.51-2.23-1.29-3.6-5.58-18.2-41.24-22.24-41.6-.41-.04-5.51,2.96-7.46,3.45-7.58,1.92-12.7,1.71-19.58,7.42-4.47,3.71-6.28,9.93-14.06,10.98-5.5.74-4.32-1.88-5.73-2.64-4.47-2.4-6.62-1.1-7.6-7.91-2.38-16.56,17.85-32.41,23.32-46.51,1.77-4.56-.96-4.62-1.19-5.07-2.11-4.28,14.39-14.2,15.3-15.78.44-.75-3.47-12.91-.51-16.04.7-.52,9.72,11.58,12.01,12.53,2.41,1,14.93-2.36,18.98.49Z"/>
</svg>