<?xml version="1.0" encoding="UTF-8"?>
<svg id="Layer_1" data-name="Layer 1" xmlns="http://www.w3.org/2000/svg" viewBox="0 0 441.5 451.11">
  <defs>
    <style>
      .cls-1 {
        fill: none;
        stroke: #000;
        stroke-linecap: round;
        stroke-linejoin: round;
        stroke-width: 8px;
      }
    </style>
  </defs>
  <g>
    <path class="cls-1" d="M285,285.55c5.84,6.1,12.27,11.41,20,15.01,9.52,4.43,18.95,2.61,27.97-1.1,15.88-6.53,27.59-18.21,37.57-31.88,9.15-12.54,15.98-26.25,20.39-41.05,4.42-14.85,6.82-30.13,2.96-45.44-3.51-13.97-11-24.9-26.38-28.01-.96-.19-1.99-.03-2.99-.03"/>
    <path class="cls-1" d="M123.5,330.05c4.32,7.67,4.35,15.36-.02,22.99-3.03,5.29-3.41,11.36-4.81,17.05-3.76,15.27-10.58,29.03-19.24,41.91-8.64,12.85-19.41,23.81-32.99,31.44-8.53,4.79-17.72,7.86-27.96,6.22-3.81-.61-7.57-1.69-10.36-3.78-5.83-4.38-12.24-8.23-16.63-14.33"/>
    <path class="cls-1" d="M87.5,301.55c-1.41,15.71-5.86,30.71-11.09,45.47-1.71,4.84-3.06,8.47,1.9,12.75,4.25,3.67,2.85,9.88,1.52,14.74-1.86,6.75-5.85,12.42-11.79,16.61-2.87,2.03-5.78,3.36-9.01,1.87-4.05-1.88-5.77-5.71-5.45-9.92.75-9.99,4.7-18.35,13.39-24.05,1.82-1.2,4.04-1.74,5.53-3.46"/>
    <path class="cls-1" d="M135,185.55c-3.42-7.32-5.09-14.66-3.81-23.05.77-5.04-.56-10.68-1.7-15.95-.42-1.93-2.2-2.79-3.49-3.99-5.5-5.1-10.89-10.19-18.98-11.08-7-.77-12,2.58-13,9.57-1.89,13.26,2.3,24.65,11.05,34.45,2.28,2.55,4.63,4.77,3.94,8.55"/>
    <path class="cls-1" d="M144.5,107.05c12.66,4.3,25.96,3.71,39.01,4.9,3.57.32,6.84.67,10.02,2.55,9.8,5.8,19.73,11.35,29.01,18,1.38.99,2.58,1.86,2.96,3.55"/>
    <path class="cls-1" d="M1,1.3c2.25-.8,4.15.12,6,1.25,21.57,13.16,43.3,26.06,64.96,39.07,7.36,4.42,11.69,12.01,16.93,18.52,2.52,3.14,5.07,6.38,7.1,9.92,4.13,7.16,11.63,8.81,18.51,11.49"/>
    <path class="cls-1" d="M161.5,315.55c4.17,4.69,9.08,4.83,14.51,2.51,8.97-3.83,18.81-6.04,25.49-14.01"/>
    <path class="cls-1" d="M362.5,220.05c.04,9.04-7.04,11.02-13.53,13.42-1.34.5-2.72.61-4,1.54-15.18,10.9-32.16,18.63-48.49,27.5-5.39,2.93-11.63,2.47-17.49,3.46-1.46.25-2.96.69-4.49.59"/>
    <path class="cls-1" d="M103,245.55c1.19,4.69-.19,9.04-1.45,13.52-3.92,13.91-9.11,27.33-15.05,40.48"/>
    <path class="cls-1" d="M100,236.55c-9.78,3.31-16.18,10.01-20.04,19.48-2.42,5.95-6.18,11.23-8.99,17-1.34,2.76-1.87,5.5-1,8.52,1.56,5.41,1.88,11.1,3.52,16.49"/>
    <path class="cls-1" d="M381.5,107.55c-5.3,10.35-.16,19.83,2.59,29.47.23.79.56,1.81.98,2.48,3.36,5.35,2.09,9.88-2.08,14.05"/>
    <path class="cls-1" d="M388,47.05c-.04,4.67.2,9.35-.5,14"/>
    <path class="cls-1" d="M374,97.05c8.07,9.47,16.22,18.85,23.65,28.89,4.66,6.29,11.03,10.98,19.85,9.61"/>
    <path class="cls-1" d="M364,153.55c.1,2.23-.78,4.31-1.07,6.49-.53,4.04-1.75,7.13-6.31,9.26-6.24,2.92-11.66,7.6-17.57,11.33-3.62,2.28-5.14,9.76-2.95,14.87,2.21,5.14,1.92,9.79-.61,14.55"/>
    <path class="cls-1" d="M118,190.55c-.5-.5-.94-1.08-1.51-1.49-8.87-6.51-13.16-8.44-16.69,4.44-1.22,4.43-1.16,7.13,1.98,10.74,2.39,2.74,2.04,7.46,4.21,10.82"/>
    <path class="cls-1" d="M360.5,168.05c2.23,3,1.77,5.96.01,9.01-5.28,9.17-12.92,15.84-22.01,20.99"/>
    <path class="cls-1" d="M318.5,182.55c5.11,4.55,5.99,11.34,8.94,17.03.99,1.9,1.25,4.64,2.66,5.85,7.68,6.55,8.97,16.42,13.37,24.64.7,1.31,2.03,2.32,2.03,3.99"/>
    <path class="cls-1" d="M344,120.05c6.2,8.7,5.75,18.58,5,28.5"/>
    <path class="cls-1" d="M355,220.05c-.85-1.66-1.49-3.4-2.44-5.03-2.8-4.78-4.98-5.98-10.04-4.4-1.99.62-4.2.22-6.02,1.43"/>
    <path class="cls-1" d="M156.5,297.55c-6.13,1.42-11.69,4.67-18,5.5"/>
    <path class="cls-1" d="M332,220.55c-2.26,4.05-5.98,7.65-4,13"/>
    <path class="cls-1" d="M27.5,319.55c-4.02-.36-7.87-2.04-12-1.5"/>
    <path class="cls-1" d="M341,135.05c-.33,3.73.4,7.36,1,11"/>
    <path class="cls-1" d="M356,135.05c.53,2.46-.85,4.64-1,7"/>
    <path class="cls-1" d="M377.5,64.05c-.01,2.34.14,4.7-.5,7"/>
  </g>
  <g>
    <path class="cls-1" d="M75.5,357.05c7.15,4.38,5.72,11.36,4.28,17.45-1.6,6.78-5.81,12.42-11.74,16.61-2.87,2.03-5.78,3.36-9.01,1.87-4.05-1.88-5.77-5.71-5.45-9.92.75-9.99,4.67-18.4,13.42-24.01,1.83-1.17,3.67-2.33,5.5-3.5"/>
    <path class="cls-1" d="M131.5,176.05c0-4.5.03-9-.02-13.5,0-.84-.31-1.67-.48-2.5"/>
    <path class="cls-1" d="M114,133.3c-4.33-.58-9.02-2.48-12.92-1.44-5.95,1.59-7.5,7.37-7.57,13.19-.14,11.92,3.71,22.38,12.05,30.94,2.32,2.38,3.89,4.69,3.44,8.06"/>
    <path class="cls-1" d="M410,135.05c2.5.17,5,.33,7.5.5"/>
    <path class="cls-1" d="M341.5,197.05c5.17-4.83,10.61-9.42,15.38-14.61,2.34-2.55,3.45-6.23,5.12-9.39"/>
    <path class="cls-1" d="M103.5,185.55c-3.15,4.69-4.64,9.86-4.5,15.5"/>
    <path class="cls-1" d="M351,35.55c-2.98,5.75-9.17,7.22-14,10.5"/>
    <path class="cls-1" d="M355,220.05c-1.64-3.27-3.27-6.53-5.14-10.27-4.43.63-8.39,1.2-12.36,1.77"/>
    <path class="cls-1" d="M42.5,382.05c-5.33-3.67-10.67-7.33-16-11"/>
    <path class="cls-1" d="M332,220.55c-2.26,4.05-5.98,7.65-4,13"/>
    <path class="cls-1" d="M377.5,64.05c-.17,2-.33,4-.5,6"/>
    <path class="cls-1" d="M356,135.05c-.33,2-.67,4-1,6"/>
    <path class="cls-1" d="M312.5,270.05c-2,2.33-4,4.67-6,7"/>
    <path class="cls-1" d="M39.5,417.05l-3,3"/>
    <path class="cls-1" d="M136.5,244.05l-3,3"/>
    <path class="cls-1" d="M386.5,197.05c-1,.33-2,.67-3,1"/>
    <path class="cls-1" d="M64.5,379.55c-1-.08-2-.17-3-.25"/>
    <path class="cls-1" d="M55.5,396.05c-.67.67-1.33,1.33-2,2"/>
    <path class="cls-1" d="M52.5,400.05c-.67.67-1.33,1.33-2,2"/>
    <path class="cls-1" d="M438.5,173.05c.67.67,1.33,1.33,2,2"/>
    <path class="cls-1" d="M146.5,400.05l-2,2"/>
    <path class="cls-1" d="M305.5,279.05l-2,2"/>
    <path class="cls-1" d="M32.5,426.05c-.67.67-1.33,1.33-2,2"/>
    <path class="cls-1" d="M164.5,379.05c-.67.67-1.33,1.33-2,2"/>
    <path class="cls-1" d="M35.5,422.05c-.67.67-1.33,1.33-2,2"/>
    <path class="cls-1" d="M45.5,409.05c-.67.67-1.33,1.33-2,2"/>
    <path class="cls-1" d="M305.5,218.05c.67.33,1.33.67,2,1"/>
    <path class="cls-1" d="M42.5,413.05c-.67.67-1.33,1.33-2,2"/>
    <path class="cls-1" d="M74,388.55c.17.5.33,1,.5,1.5"/>
  </g>
</svg>