<?xml version="1.0" encoding="UTF-8"?>
<svg id="Layer_1" data-name="Layer 1" xmlns="http://www.w3.org/2000/svg" viewBox="0 0 116.27 339.64">
  <defs>
    <style>
      .cls-1 {
        fill: white;
        stroke: #000;
        stroke-miterlimit: 10;
        stroke-width: 4px;
      }
    </style>
  </defs>
  <path class="cls-1" d="M42.25,129.29c-.57,2.62-5.09,7.04-8.01,6.1-9.99-3.23-10.15-16-12.25-23.83-2.8-10.43-4.36-7.66-10.28-13.72-1.39-1.42-10.15-10.84-10.45-11.56-1.82-4.4,6.71,1.81,6.98,1.51.02-2.68-7.73-11.27-5.99-13h3.01c-3.05-9.15,4.71-.94,6.98,2l-2-6.49c5.98-1.57,6.98,8.63,10.99,11.49-.22-2.16,2.58-2.59,2.99-3.77,1.69-4.84-.55-6.37,5.13-10.63,1.27-.95,14.21-6.97,15.65-7.35,1.97-.53,5.78.37,6.83-1.17.34-.5,1.87-11.64,1.44-12.07-.49-.47-6.64,1.42-7.81-2.7.36-9.58-5.76-21.8.26-30.34,4.35-6.16,14.93-13.13,22.74-12.73s19.51,6.58,19.87,15.29c.09,2.25-1.73,15.16-2.29,17.76-.49,2.24-5.02,12.41-6.78,13.3-1.88.94-3.57-.77-5.29-.41-3.43.71-4.84,7.74-4.7,10.84,5.54-.78,12.9.37,15.25,6.26,1.3,3.27.28,6.03.96,9.04.35,1.54,3.54,10.8,4.28,12.72,1.84,4.8,6.63,4.77,5.49,12.41-.84,5.56-.88,5.13-.92,11.03-.03,4.02-.8,12.57.16,15.83.61,2.08,8.64,6.94,11.21,9.79,6.21,6.89,13.11,17.26,7.59,26.43l-2.01-4.51c-1.84-.21-.7,2.61-1.92,3.56-3.74,2.92-2.71-1.75-3.15-2.46-.16-.26-3.95.88-5.26-2.34-1.99-4.89.12-16.3-7.66-16.76v32.5c0,2.06,10.01,24.32,11.49,29.51,5.31,18.63,6.5,33.2,2.21,52.19-1.23,5.44-6.53,16.47-6.67,20.4-.12,3.33,2.38,4.29,2.69,6.06.16.92-.71,1.99-.67,2.71.04.65,1.49.52,1.85,1.41,2.29,5.66-.53,3.78-1.47,5.18-.83,1.24.75,2.94.44,4.35-.39,1.75-5.25,2.75-5.66,8.41-.13,1.77.81,3.21.79,4.76-.02,1.71-1.08,3.33-.98,4.96.23,3.87,3.96,9.37,2.79,14.81-1.42,6.61-8.66,6.97-13.73,4.15-2.7-1.5-3.85-4.74-6.07-6.41-.34,4.45,3.16,9.89-1.71,12.8-11.24,6.73-23.21-4.89-32.38-10.22-3.24-4.5,1-7.77,1.13-11.02.18-4.58-3.37-7.52-3.91-10.29-.47-2.41,1.28-4.74.93-6.59-.2-1.07-3.22-1.08-3.9-3.36s.19-5.08-.41-7.59c-5.89-24.9-6.29-25.1-4.73-51.19,2.01-33.63-14.57-53.79,5.16-87.84,1.94-3.35,10.35-12.86,10.8-15.24,1.45-7.78-7.47-18.74-9.01-26.45-2.46,0,.01,2.94.01,3.49,0,4.9.88,14.95,0,19ZM77.98,282.52c6-6.02,2.4-20.16,3.72-27.78,1.9-11.03,8.29-11.87,5.28-25.17-2.51-11.11-8.15-14.84-13.54-23.46-3.88-6.2-5.21-14.99-12.17-18.32l-4.09,50.42c-8.09,12.81-3.38,21.7-1.93,35.1.31,2.87-.64,7.72-.04,9.86.24.88,4.17,1.36,5.4,2.58.85.85.45,2.33.89,2.75.73.7,2.69.38,3.34,1.23.44.58-.63,2.04-.47,2.4.36.83,1.57.68,1.82,1.46.9,2.79.19,5.4.08,8.21l2.98-2c-1.92,4.56.79,5.13.84,5.46.03.22.15,4.28,0,4.45-.36.46-2.24-.65-1.83,1.08h6.98s-1.98,4.52-1.98,4.52c-.45,1.39,4.23.12,3.84-3.74-.81-7.91-14.96-19.38-5.76-26.18,1.7-1.25,5.27-1.47,6.64-2.86Z"/>
</svg>