<?xml version="1.0" encoding="UTF-8"?>
<svg id="Layer_1" data-name="Layer 1" xmlns="http://www.w3.org/2000/svg" viewBox="0 0 210.96 490.94">
  <defs>
    <style>
      .cls-1 {
        fill: white;
        stroke: #000;
        stroke-miterlimit: 10;
        stroke-width: 4.5px;
      }
    </style>
  </defs>
  <path class="cls-1" d="M116.67,1.51c.37-.02.75.02,1.12,0,.74-.03,1.49,0,2.23,0s1.49-.03,2.23,0c.19,0,.37-.01.56,0,.37.03.75-.04,1.12,0,7.3.83,5.55,3.66,7.71,8.77,2.04,4.84,3.27,2.1,7.07,1.82,2.04-.15,3.92.22,5.89.58.28.56,1.09,1.58,1.12,1.68,1.1,4.17.58,9.45-1.12,13.41-.21.49-.44,1.5-.56,1.68-.29.43-3.45,3.1-4.07,3.47-3.68,2.18-8.76,1.43-8.83,7.42-.01.93.66,5,1.01,5.75.59,1.25,2.41,1.49,3.51,2.36,1.52,1.2,1.56,3,3.38,4.17,1.16.74,2.37.63,2.76.86.97.56,3.23,2.04,3.91,2.79,1.3,1.44,2.37,4.22,3.91,6.15.86,1.08,1.16,1.37,2.23,2.23,2.41,1.94,4.54,2.26,6.15,3.35,3.97,2.7,6.67,12.36,6.1,17-.24,1.99-1.32,4.15-1.63,6.47-.05.35.01.75,0,1.12,0,.16-.58.31-.22,1.53.38,1.3.98,1.3,1.33,1.82.15.22.43.38.56.56.92,1.34,1.05,1.03,1.12,1.12.16.21.64,4.67.59,5.31-.16,1.85-1.62,3.51-1.71,5.31-.02.37,0,.75,0,1.12-1.6,6.35,1.71,13.21-1.12,19.55-.21.16-.36.39-.56.56-1.66,1.45-3.04,3.23-4.47,4.47-.24.21-.89.41-1.68,1.12-.53.48-1.69.75-2.81,1.94-.66.71-2.17,2.48-2.2,3.36-.04,1.34,3.31,6.4,3.89,8.11,1.14,3.38.63,6.56,1.38,9.51.66,2.62,3.05,4.76,4.21,6.69,3.28,5.48,5.86,10.89,8.38,16.76,1.64,3.82,1.04,5.29,5.59,7.26,6.09,2.64,11.5,3.6,17.32,7.82.19.14.34.4.56.56,2.2,1.67,6.57,5.75,8.38,7.82.37.42.93.88,1.12,1.12,3.13,4.02,6.09,12.27,6.7,17.32.04.36-.03.75,0,1.12.15,1.66-.52,3.65.56,5.03-.02.37.02.75,0,1.12-.13,3.15.17,6.36,0,9.5-.11,2.02.17,4.14,0,6.15-.38,4.47-1.59,6.7-1.12,11.73.05.55-.04,1.12,0,1.68.05.61-.19,1.4.56,1.68-.04.55.02,1.12,0,1.68-.12,3.39-.15,7.23,0,10.61.02.37-.03.75,0,1.12-.64.64-.62,1.4-.56,2.23.03.37-.03.75,0,1.12-1.08,5.58-3.77,12.15-4.4,17.67-.19,1.64-.48,4.38.49,5.8-.09.71.04,1.51,0,2.23-.35,6.95-.54,10.97-1.68,17.88-.09.52.08,1.15,0,1.68-.71,4.48-1,4.02-.56,8.94.19,2.17,1.02,5.21.56,7.26-.03.12-.69.57-.84,1.09-2.03,7.27-6.65,13.98-4.75,21.81-.13.51-.43,1.02-.56,1.68-.89,4.39-1.27,7.15-1.12,11.73.04,1.09-.12,2.3,0,3.35l-1.12,15.08c-.08.13-.38,1.22-.56,1.68-1.35.59-2.56,4.07-2.19,5.23.45,1.4,2.49.67,3.49,1.01,1.46.5,4.3,9.67,4.59,11.61.31,2.03.08,3.73.25,5.62.05.55-.04,1.12,0,1.68l-1.68,3.91c-1.17.52-2.94,2.4-3.91,3.35-2.55.46-8.29,1.17-10.61.56-1.02-.27-3.51-3.29-3.91-4.47-1.18-3.49.14-6.37.55-9.78.18-1.45-.16-2.96.05-4.42.87-5.92,4.07-11.88,1.07-18.2.05-.36-.06-.76,0-1.12.95-6.09,3.48-11.34,4.47-17.88.38-2.49.28-4.96.56-7.26.41-3.33,1.47-6.67,1.68-10.06.12-1.91.1-4.23,0-6.15-.18-3.63-1.35-6.47-1.68-9.5-.27-2.5.39-4.43.56-6.7,0-.08.67-.6.34-1.09l-5.37-19.58-3.35,1.12c-2.59.05-5.57,1-8.38,1.12-2.51.1-11.81.43-13.4-.29-.78-.35-1.93-2.03-2.12-2.9-.51-2.31,1.14-5.03-.67-6.31.01,3.45-1.17,6.69-1.68,10.05-.31,2.02-.45,3.54-.56,5.59-.31,5.86.9,12.41,2.77,18.18.7,2.16,2.12,3.21,2.3,5.54.71,9.32-2.31,19.04-3.95,28.24-.06.35.06.77,0,1.12-.36,2.09-1.49,4.49-1.67,6.99-.16,2.33-.16,4.73.55,6.98-.18.94-.38,1.83-.56,2.79-.74,4.04-.6,5.48,0,9.5.05.36-.05.76,0,1.12.08.59-.22,1.4.56,1.68-.03.37.02.75,0,1.12-.09,1.93.16,3.65-.25,5.62-1.09,5.22-5.1,6.34-3.28,13.27,1.24,4.73,2.44,4.15,2.97,10.72.04.55-.03,1.12,0,1.68-1.14.46-.26,2.83-.56,3.35-.21.36-5.24,2.25-6.15,2.51-4.11,1.15-11.14,1.86-15.08,0-3.41-1.61-1-2.72-.28-4.74.53-1.47.89-3.01,1.39-4.47.63-1.83,1.48-5.85,2.23-7.26.35-.65,2.97-2.21,2.79-3.91,1.24-1.21,1.12-2.02,1.68-3.35,2.12-5.07,1.36-5.09,1.12-10.06-.16-3.17.02-5.18.56-8.38.58-3.42,2.24-7.39,2.23-11.17,0-.37.03-.75,0-1.12.86-.81.46-1.84.56-2.79.06-.55-.05-1.13,0-1.68.99-11.17.7-15.86-.56-26.82-.04-.36.04-.75,0-1.12-.28-2.42.26-4.51-.38-7.16-.82-3.41-3.33-5.47-4.65-7.92-.22-.41-2.56-8.82-3.91-7.26.24,3.58-.15,7.07-.56,10.61-.15,1.26-.34,3.2-.56,4.47-.09.52.1,1.17,0,1.68-.62,3.27-3.06,7.92-3.35,11.17-.03.37.04.75,0,1.12-1.48,4.32-3.06,10.24-2.81,14.82.41,7.41,4.82,13.11,3.93,22.05-.02.18.03.38,0,.56-.67,4.86-3.67,10.36-4.47,15.64-.08.53.06,1.14,0,1.68-.56,4.98-2.08,17.03-.83,21.23.48,1.61,1.81,3.94,2.51,5.59-.3,1.65.03,3.7-.56,5.59-.07.22-2.12,3.05-2.19,3.23-1.15,3.14-.55,7.29,1.07,10.17-.02.37-.01.75,0,1.12.03,1.07.5,1.38.56,1.68.12.64.48,1.22.56,1.68.5,2.74,1.29,5.68,1.68,8.38.08.53-.05,1.13,0,1.68.11,1.13-.38,2.37.56,3.35-.07,1.09.12,2.29,0,3.35-.11,1,.17,1.48-.52,2.54-.12.19-3.18,2.95-3.39,3.04-.53.24-3.46.24-3.91.56-5.19.46-9.47.18-14.53-1.12-.62-.16-1.14-.41-1.68-.56l-1.68-1.68c-.09-.3-.37-.86-.56-1.12.32-3.44,1.47-6.71,2.23-10.06,2.09-.19,1.71-2.61,1.68-4.47-.01-.54.08-1.18,0-1.68,1.12-5.28,6.47-11.02,6.11-16.4-.09-1.29-.98-2.47-1.08-3.15-.29-1.91-.91-4.91-.56-6.7.82-4.21,2.4-5.14,2.79-11.17.06-.92-.06-1.87,0-2.79.01-.19-.01-.37,0-.56.05-.93-.03-1.87,0-2.79.13-3.47.09-5.56,0-8.94-.01-.37.02-.75,0-1.12-.05-1.05.23-1.45,0-3.35-.04-.36.05-.76,0-1.12-.09-.58.22-1.4-.56-1.68.04-.35,0-.76,0-1.12-.11-3.96-2.66-8.84-2.82-13.12-.14-3.85,1.22-8.14,1.7-12.02.04-.36-.03-.75,0-1.12.16-1.86.26-1.27,0-3.35-.12-1-.41-1.87-.56-2.79-1.01-6.22-2.77-11.8-3.91-17.88-.09-.49.04-1.13,0-1.68-.05-.61.19-1.4-.56-1.68.05-.35-.02-.75,0-1.12.04-.84.1-1.58-.56-2.23.06-.53.01-1.13,0-1.68-.09-4.97-4.87-12.2-7.26-16.76-.42-.8.3-.85-1.12-2.23-1.69-1.67-2.4-1.19-4.47-1.68-.33-.08-.78.07-1.12,0-3.67-.74-7.35-1.7-11.17-1.68-.55,0-1.15-.06-1.68,0-3.37-2.17-5.79,3.64-7.26,5.59-.15.2-.41.34-.56.56-.45.64-.69,1.01-1.12,1.68-1.34,2.1-1.32,2.71-2.23,4.47-.63,1.21-1.03,1.93-1.68,3.35-.7,1.54-1.53,2.5-2.23,4.47-.15.42-.83.89-.56,1.68v.56c-.4.06-.89-.21-1.15.36-2.37,5.05-5.65,9.57-8.46,14.35-.41.7-.33,1.89-.44,2.05-.06.08-1.55-.25-1.12,1.12-3.69,2.99-6.47,10.97-6.7,15.64-.34,6.88,2.07,14.02,5.03,20.11.16.66.32,1.07.56,1.68.46,1.19,1.08,1.58,1.12,1.68.2.51.28,1.07.56,1.68,2.57,5.67,6.38,10.53,6.95,16.79.87,1.28,3.92-.03,5.46.08,7,.49,10.62,10.77,11.62,16.65.06.35-.05.76,0,1.12.19,1.46.55,3.05.56,4.47,0,.36.05.79,0,1.12-.02.13-.43.65-.56,1.12-1.32,5.01-4.51,9.79-10.06,10.61-1.48.22-5.95-.48-7.26-1.12-.07-.03-.74-.79-1.12-1.12-2.59-2.22-3.46-5.57-5.35-7.78-3.61-4.23-3.32-2.48-5.83-8.42-2.06-4.89-7.08-12.18-7.26-16.76-.03-.65.57-1.45.56-1.68-.02-.37.02-.75,0-1.12-.05-1.1.11-2.28,0-3.35-.46-4.4-2.25-7.35-3.91-11.17-1.07-2.47-1.61-3.39-2.79-5.59-.67-1.24-1.05-1.76-1.68-2.79-1.81-2.97-3.57-5.64-5.6-8.64-1.25-1.85-2.33-5.1-3.34-6.44-1.47-3.86.54-6.28,1.12-9.5.03-.18-.03-.38,0-.56,3.03-3.41,6.94-8.08,7.71-12.7.14-.84-.47-1.55-.45-2.06.01-.36,1-.27,1.12-.7,1.06-4.11,1.48-25.96,1.12-30.91-.03-.37.05-.76,0-1.12,1.5-6,4.01-13.71,3.98-19.87,0-1.07-.59-1.64-.62-1.92-.29-2.37-.28-3.21-1.12-5.59-.49-1.4-.75-2.86-1.96-3.9-5.05,7.08-11.75.63-17.04-2.25-.52-.28-.87-.82-1.68-1.12-2.51-.92-8.26-1.39-11.73-2.23-.46-.11-1.15.09-1.68,0-.55-2.99,1.82-4.57,3.35-6.7,2.12.13,2.02-.4,3.35-1.12.94-.5,1.28-.27,2.24-1.38,1.24-1.44,1.96-4.16,2.79-5.32.57-.8,2.59-3.11,3.35-3.91.86-.91,2.77-1.65,3.35-2.23,3.21-.2,1.72-1.52,2.35-2.94.37-.84,1.32-1.32,1.49-1.93.47-1.71-2.51-3.07-1.05-6.87.14-.35.36-.8.56-1.12.13-.21,1.05-1.59,1.12-1.68.22-.26,1.88-.16,2.54-2.21s-.27-2.6-.31-3.38c-.12-2.75-.56-5.81-.56-8.38,0-3.35,1.34-7,1.68-10.61.05-.55-.02-1.12,0-1.68s.03-.48,0-1.12c-.03-.55.05-1.12,0-1.68-.28-3.27-1.49-6.93-1.68-10.06-.07-1.2.19-7.79.56-8.38.08-.12,1.92.25,1.54-1.86-.06-.33-2.75-5.71-2.95-5.97-.49-.62-.83-.43-1.38-.56-.18-.04-.38.03-.56,0-.35-.06-.78.07-1.12,0-5.64-1.19-10.69-2.46-12.85-8.38-1.92-5.27-4.59-11.36-5.59-16.76-.06-.35.07-.79,0-1.12.81-.63.4-1.6.56-2.23s1.01-3.74,1.12-3.91c.27-.46,2.45-2.65,3.35-3.91.51-.72.57-.64,1.12-1.68,1.64-3.12,2.29-7.13,2.29-10.92,0-1.26-.61-2.24-.62-2.49-.05-1.29,0-2.61,0-3.91.77-1.44,2.9-3.42,3.24-4.87.46-2.02-.13-4.42.18-6.53.43-2.94,2.67-7.88,1.09-10.56-.47-.79-3.34-1.94-3.42-2.43-.08-.56.88-4.29,1.15-5.22,1.86-6.31,2.26-3.83,6.43-6.7,3.69-2.53,2.62-5.29,3.63-8.38.55-1.7,2.97-4.06,2.71-5.74-.28-1.8-5.21-5.51-6.62-7.11-.32-.53-.73-1.21-1.12-1.68l-3.35-9.5c0-.37.02-.75,0-1.12-.24-4.09-.88-8.16-.56-12.29.37,0,.74,0,1.12,0,.19.8,2.22,3.12,2.79,3.91,1.58,2.18,2.72,3.12,4.47,5.03,2.6,2.83,2.51,3.77,6.15,6.15,1.68,2.57,3.76,4.9,5.97,7.2l10.23-3.29c1.3.05,2.61-.02,3.91,0,1.67.02,3.36-.01,5.03,0-1.42-2.55-.87-5.09-.56-7.82.12-1.02.38-2.29.56-3.35.1-.57.4-1.5.56-2.23.07-.33-.08-.79,0-1.12.63-2.6,2.17-4.99,2.79-6.7.57.35,1.13.73,1.68,1.12,2.39,8.78,8.49,13.76,8.38,23.46-.01.98-.72,3.59-.52,3.86.13.19,2.53.85,3.87,2.29,1.14,1.22,2.21,2.63,3.35,3.91,1.45,1.62,2.3,2.83,3.91,4.47,2.01,2.04,3.26,2.3,4.47,3.35.44.38,2.01,3.1,2.76,3.67.33,1.12-1.18.69-1.09,1.07.4,1.6,2.26,2.09,2.83,2.92.75,1.11.39,3.9,2.2,3.51-.6-2.22,1.1-4.35.99-6.28-.21-3.84-2.82-6.25-3.79-8.81-3.71-9.85-2.47-15.21.56-24.58,2.04-.2.75-.72,1.12-1.12.67-.74,2.53-1.64,2.79-2.79,1.74-.2,2.94-2.03,4.45-2.53,1.2-.4,2.58-.22,3.84-.63,3.92-1.27,6.28-7.14,7.35-10.81.28-.97,1.02-2.66,1.12-3.35,4.9-2.72.27-5.92-1.22-9.11-1.23-2.63-1.42-5.62-2.69-8.21,0-.37,0-.75,0-1.12-.04-2.65.03-5.33.01-7.99-.17-.72-3.73-2.13-4.48-2.63-.42-.28-.87-.39-1.12-.56-2.69-1.8-5.26-4.16-7.82-6.15.03-.53-.1-1.24,0-1.68.11-.47,1.12-1.29,1.12-1.68,3.51-1.07,8.61,6.3,11.17,6.15.14,0,.39-.41.56-.56,2.66-.89,1.06-2.29,1.68-3.91.82-2.16,3.9-5.13,4.61-6.85.61-1.49.2-3.8,1.25-4.91s2.52.15,3.94.07c.75-.04,1.29-.61,1.37-.61ZM29.51,198.17h-2.23s.56,2.79.56,2.79c1.74.14,1.81-1.45,1.67-2.79ZM28.39,290.36c-1.07-1.59-9.01.53-.89,2.2.79-.2,1.22-1.72.89-2.2ZM161.92,311.02c.78.24,3.87.03,5.03,0,2.09-.06,10.13-.4,11.16-1.4,1.87-1.82.54-8.32-1.3-8.04-.66.1-1.61,1.47-2.05,1.62-.15.05-.36-.03-.56,0-4.93.68-9.22-1.01-13.96-1.68-.16,1.69.08,9.01,1.67,9.5Z"/>
</svg>