<?xml version="1.0" encoding="UTF-8"?>
<svg id="Layer_1" data-name="Layer 1" xmlns="http://www.w3.org/2000/svg" viewBox="0 0 412.8 373.63">
  <defs>
    <style>
      .cls-1 {
        fill: #fff;
      }

      .cls-2 {
        fill: white;
        stroke: #000;
        stroke-miterlimit: 10;
        stroke-width: 9px;
      }
    </style>
  </defs>
  <path class="cls-1" d="M326.64,254.79v44.4c0,5.21-16.94,23.22-12.99,27.06l23.53-.27c8-21.75,6.9-44.53,13.3-66.88,3.72,1.29,14.77,1.22,16.9,2.59,1.15.74,10.22,21.96,10.73,25.01,1.02,6.15,2.23,23.43,1.92,29.48-.99,19.33-36.08,42.43,12.13,33.87,2.4-5.41,7.43-18.83,8.25-24.77,3.85-27.97,1.99-64.43,4.25-93.22,1.77-22.5,7.81-40.92,6.44-64.99-.74-13-6.99-31.78-6.7-43.4.1-4.06,4.07-3.02,5.29-5.88,3.77-8.85-3.36-21.93-10.48-27.64-28.56-22.9-100.4-3.71-136.37-2.08-32.01,1.45-71.92-2.56-103.79-6.85-26.36-3.55-46.24-15.81-51.18-43.04,7.61.38,22.56-4.1,19.34-13.87-2.53-7.68-20.42-1.13-25.91-2.6-3.08-.82-9.84-7.64-13.94-9.59C69.54,3.69,27.66-9.65,23.27,18.66c-6.97-1.33-15.88-5.38-21.48,1.1,3.82,7.63,6.49,12.51,15.18,15.17l1.98,4.13c.51,18.42-19.57,26.93-14.11,42.59,1.9,5.44,6.52,5.56,7.23,6.72.33.54-2.81,8.26,2.64,11.61l15.2-.24c2.5,7.68,10.21,13.01,13.42,19.22,20.66,40.06,3.18,97.08,50.84,131.11,20.37,14.55,26.64,1.55,38.57,30.74,3.1,7.58,12.13,37.58,11.35,44.12-.86,7.23-14.2,16.02-12.38,25.14l23.97-.92,10.66-25.05c8.49,22.15-7.05,28.86-10.8,47.63,7.53-1.3,23.73,3.45,27.82-3.57,1.11-1.91,6.98-20.87,7.08-23.44.73-18.68-8.88-44.09-4.67-64.67,9.08-4.76,17.27-9.9,19.88-20.63,40.97,6.99,80.67,5,121-4.64Z"/>
  <path class="cls-2" d="M326.64,254.79c-40.34,9.64-80.03,11.63-121,4.64-2.61,10.73-10.8,15.87-19.88,20.63-4.21,20.58,5.4,46,4.67,64.67-.1,2.58-5.96,21.53-7.08,23.44-4.09,7.03-20.29,2.27-27.82,3.57,3.75-18.77,19.29-25.48,10.8-47.63l-10.66,25.05-23.97.92c-1.82-9.12,11.52-17.91,12.38-25.14.78-6.54-8.25-36.54-11.35-44.12-11.94-29.19-18.21-16.19-38.57-30.74-47.65-34.04-30.18-91.06-50.84-131.11-3.2-6.21-10.92-11.54-13.42-19.22l-15.2.24c-5.46-3.35-2.31-11.08-2.64-11.61-.72-1.16-5.33-1.28-7.23-6.72-5.46-15.66,14.61-24.18,14.11-42.59l-1.98-4.13c-8.68-2.67-11.36-7.54-15.18-15.17,5.6-6.48,14.52-2.43,21.48-1.1,4.38-28.31,46.27-14.97,64.07-6.51,4.1,1.95,10.86,8.77,13.94,9.59,5.49,1.46,23.38-5.09,25.91,2.6,3.22,9.77-11.73,14.24-19.34,13.87,4.94,27.23,24.82,39.49,51.18,43.04,31.87,4.29,71.79,8.3,103.79,6.85,35.97-1.62,107.81-20.82,136.37,2.08,7.12,5.71,14.25,18.79,10.48,27.64-1.21,2.85-5.19,1.81-5.29,5.88-.29,11.62,5.96,30.41,6.7,43.4,1.37,24.07-4.67,42.5-6.44,64.99-2.26,28.79-.41,65.25-4.25,93.22-.82,5.93-5.85,19.36-8.25,24.77-48.21,8.56-13.12-14.54-12.13-33.87.31-6.06-.9-23.33-1.92-29.48-.51-3.05-9.58-24.28-10.73-25.01-2.13-1.37-13.18-1.3-16.9-2.59-6.4,22.35-5.3,45.13-13.3,66.88l-23.53.27c-3.95-3.85,12.99-21.85,12.99-27.06v-44.4Z"/>
</svg>