<?xml version="1.0" encoding="UTF-8"?>
<svg id="Layer_1" data-name="Layer 1" xmlns="http://www.w3.org/2000/svg" viewBox="0 0 95.88 109.65">
  <defs>
    <style>
      .cls-1 {
        fill: white;
        stroke: #000;
        stroke-width: 4px;
        stroke-miterlimit: 10;
      }
    </style>
  </defs>
  <path class="cls-1" d="M65.71,6.39c1.49.85,4.84-.2,7.08.44,2.58.73,3.22,4.2,3.9,4.58,1.35.77,5.28-.13,7.86.66,5.05,1.55,7.26,9.92,8.46,14.54,10.64,41.17-17.1,39.97-32.03,67.99-2.19,4.11-3.66,10.25-5.46,13.36-2.31,3.99-6.51-3.33-7.32-4.03-1.25-1.07-3.79-1.29-4.79-2.72-1.37-1.95-.43-4.1-1.14-5.37-.37-.65-3.42-1.31-4.26-3.24-1.37-3.13-2.58-9.86-3.72-13.27-.86-2.59-4.35-2.98-1.79-7.71-5.96-2.54-18.08,5.39-22.37,3.88-1.22-.43-1.27-2.19-1.9-2.6-1.2-.77-3.51-.03-4.84-1.67-.33-.4-2.9-9.47-2.88-9.99.07-2.38,2.91-8.58,4.19-10.93,2.02-3.68,12.95-16.02,12.86-18.17-.02-.49-1.85-.42-2.05-1.19-.97-3.65,1.32-5.03,1.65-7.02.24-1.44-.7-2.77-.04-5.11,1.58-5.59,5.38-3.47,6.26-4.33.42-.41-.04-5.19,2.54-6.96,2.23-1.53,4.77-.35,6.57-1.43,1.38-.82,1.25-3.49,4.73-4.29s5.58.82,7.84.69c1.49-.08,2.72-1.84,4.93-2,3.89-.29,5.16,2.39,6.98,2.65,1.48.21,3.08-.96,5.58-.14s2.57,3.03,3.15,3.37Z"/>
</svg>