<?xml version="1.0" encoding="UTF-8"?>
<svg id="Layer_1" data-name="Layer 1" xmlns="http://www.w3.org/2000/svg" viewBox="0 0 814.11 429">
  <defs>
    <style>
      .cls-1 {
        fill: none;
        stroke: #000;
        stroke-linecap: round;
        stroke-linejoin: round;
        stroke-width: 2px;
      }
    </style>
  </defs>
  <path class="cls-1" d="M74,258.5c5.37-1.71,11.03-.84,16.53-1.81,4.04-.72,8.2-1.51,12.47-1.26,5.85.34,7.92,2.1,7.96,8.08.01,1.99.59,4.07-.46,6"/>
  <path class="cls-1" d="M156,198c10.87,17.41,21.87,34.75,33,52"/>
  <path class="cls-1" d="M761,232c-.69,16.16-.52,32.35-1.53,48.5-.24,3.83-2.2,6.92-4.97,9.5"/>
  <path class="cls-1" d="M277.5,141.5c-4.08-2.8-7.62-5.83-7.58-11.5.02-2.84-1.63-5.64-3.53-7.38-4.58-4.18-4.93-9.89-6.28-15.15-1.47-5.74-1.85-11.64-4.92-17.08-1.85-3.27-3.69-6.2-6.69-8.4"/>
  <path class="cls-1" d="M289,410.5v13.5"/>
  <path class="cls-1" d="M244.5,412.5v12.5"/>
  <path class="cls-1" d="M273,411.5c.05,4.55-.46,9.16,1.5,13.5"/>
  <path class="cls-1" d="M680.5,352.5c-.34,4.52.61,8.99.5,13.5"/>
  <path class="cls-1" d="M282,310v13"/>
  <path class="cls-1" d="M597,363.5v12.5"/>
  <path class="cls-1" d="M339,406.5v12.5"/>
  <path class="cls-1" d="M323,408.5v11.5"/>
  <path class="cls-1" d="M528,372.5v11.5"/>
  <path class="cls-1" d="M355.5,405.5c.26,4.5-.56,9.03.5,13.5"/>
  <path class="cls-1" d="M344,304v13"/>
  <path class="cls-1" d="M291,410.5v12.5"/>
  <path class="cls-1" d="M626.5,360.5v12.5"/>
  <path class="cls-1" d="M555,369.5v11.5"/>
  <path class="cls-1" d="M732.5,249.5c0,3.72,2.09,6.76,4.1,9.42,5.97,7.89,6.58,11.5,1.33,19.53-2.01,3.08-4.13,6.14-6.43,9.05"/>
  <path class="cls-1" d="M638.5,240v26"/>
  <path class="cls-1" d="M562,249v26"/>
  <path class="cls-1" d="M195.5,292v26"/>
  <path class="cls-1" d="M63,266c-5.12-.72-9.9,1.52-14.98,1.79-4.61.25-9.16,8.28-9.52,15.21-.3,5.91-.71,11.8-2.5,17.5"/>
  <path class="cls-1" d="M340,47.5c-2.7-1.44-5.38-1.63-8.52-1.13-7.93,1.27-16.09.74-23.98,2.62-1.65.39-2.65-1.04-4-1.5"/>
  <path class="cls-1" d="M761.25,230.5c-.08.17-.2.33-.24.5-.04.16,0,.33,0,.5-6.07-3.73-12.36-1.19-18.48-.37-3.01.4-6.02.21-9.03.78-8.91,1.69-9.46,2.05-9.96,11.09-.14,2.49-.23,5.02.02,7.49.64,6.25-1.08,11.7-5.04,16.5"/>
  <path class="cls-1" d="M45,180c5.62,7.79,12.57,14.43,19.06,21.44,5.2,5.62,7.3,12.22,7.94,19.56.68,7.82.47,15.66.49,23.5.02,9.01,1.26,17.96,1.14,27-.06,4.53,2.89,8.45,4.86,12.5"/>
  <path class="cls-1" d="M369.5,390c2.01,6.41.65,13,.96,19.5.12,2.55.06,5.08,1.04,7.5"/>
  <path class="cls-1" d="M502.5,363v26"/>
  <path class="cls-1" d="M402.5,383v26"/>
  <path class="cls-1" d="M101.5,243.5c.2-2.08-1.24-3.24-2.5-4.5-6.95-6.9-13.54-14.14-19.98-21.52-1.96-2.24-4.13-3.27-7.02-1.99"/>
  <path class="cls-1" d="M381.5,43.5c-4.74-2.95-9.66-1.04-14.5-.48-5.5.64-11.11.42-16.51,1.96-1.63.46-2.64-1.03-4-1.48"/>
  <path class="cls-1" d="M333.5,150c.85,4.66,2.12,9.25,2.5,14,.36,4.55-1.23,8.96-.43,13.09-1.8,1.42-3.25.66-4.57.91"/>
  <path class="cls-1" d="M802.5,317c-1.73,3.77-3.79,7.33-6.48,10.51-2.19,2.58-4.71,4.58-8.02,5.49"/>
  <path class="cls-1" d="M234.5,398c-1.99,7.41-2.32,15.18-4.75,22.5"/>
  <path class="cls-1" d="M563.5,26.5c-2.7-2.4-5.6-.65-8.5-.65-8.75,0-17.28,2.24-26,2.14-2.39-.03-4.64.92-7,.98-2.1.05-4.39.59-6-1.47"/>
  <path class="cls-1" d="M105,162c-1.67,4.01,1.26,3.82,3.49,3.44,8.63-1.48,17.32-1.42,26.01-1.44"/>
  <path class="cls-1" d="M792,223c-7.47,4.21-15.96,3.56-24.01,4.91-2.32.39-4.4.75-5.99,2.59"/>
  <path class="cls-1" d="M296,51.5c-.94-1.04-2.06-1.82-3.5-1.48-8.06,1.89-16.45.87-24.53,2.86-2.71.67-5.92.75-8.47-1.38"/>
  <path class="cls-1" d="M584,352c1.04,8.65.26,17.33.5,26"/>
  <path class="cls-1" d="M346.5,393c1.15,8.65.18,17.34.5,26"/>
  <path class="cls-1" d="M507.5,32c-5.45-1.77-11.03-1.32-16.48-.41-4.33.73-8.81-.38-13.03,1.37-1.73.72-3.01-.89-4.48-1.46"/>
  <path class="cls-1" d="M83,247c-.04,13.11,1.28,26.09,3.5,39"/>
  <path class="cls-1" d="M373.5,144c1.36,6.28.95,12.8,2.91,19.03.96,3.04,2.33,4.87,5.59,4.97"/>
  <path class="cls-1" d="M477.5,24.5c-3.48,3.85-5.34,9.19-10.52,11.48-2.18-2.01-4.44-2.06-7.51-1.68-7.62.95-15.34,1.17-22.98,2.18-1.54.2-2.85-.49-4-1.48"/>
  <path class="cls-1" d="M280.5,398c1.61,7.75,2.28,15.59,2,23.5"/>
  <path class="cls-1" d="M573,354c1.51,7.42,2.46,14.9,2,22.5"/>
  <path class="cls-1" d="M426,291.5c-6.14-5.76-14.02-8.28-21.52-11.46-3.8-1.61-7.46-3.63-10.86-5.74-4.81-3-9.3-2.72-14.11-1.25-2.15.66-4.4,1.4-6.51,1.35-8.96-.23-17.69,1.81-26.48,2.83-12.35,1.43-24.77,2.5-37.04,4.69-3.46.62-7.2-.39-10.48,1.59"/>
  <path class="cls-1" d="M408,141.5v25"/>
  <path class="cls-1" d="M233,47c.7,5.72,2.64,7.18,9,7.56,3.83.23,7.9-2.08,11.5.94"/>
  <path class="cls-1" d="M386.5,391c1.01,7.98,1.59,15.97.5,24"/>
  <path class="cls-1" d="M103.5,385c-1.88,7.94-.65,16-1,24"/>
  <path class="cls-1" d="M596.5,100.5c-3,2.11-6.54,2.49-10,2.98-7.29,1.03-14.16,2.87-19,9.02"/>
  <path class="cls-1" d="M456,10c.68,5.58,3.77,10.3,5.62,15.46,1.15,3.24,4.62,2.51,7.38,2.54"/>
  <path class="cls-1" d="M356.5,146c.57,5.3,2.1,10.48,3.73,15.42,2.02,6.11,6.59,10.86,12.77,13.58"/>
  <path class="cls-1" d="M454.5,372c.47,4.08,1.6,8.01,2.41,12.02.69,3.41,1.72,6.92.59,10.48"/>
  <path class="cls-1" d="M545.5,361c1.19,7.29,1.05,14.65,1,22"/>
  <path class="cls-1" d="M612,243c.1,7.33-.32,14.68.5,22"/>
  <path class="cls-1" d="M358.5,396c.82,7.32.4,14.67.5,22"/>
  <path class="cls-1" d="M314.5,152c1.37,7.1,2.59,14.22,2,21.5"/>
  <path class="cls-1" d="M497,6c1.14,5.65,4.48,10.47,6.08,15.98.46,1.58,2.57,1.72,3.92,2.52"/>
  <path class="cls-1" d="M160.5,371c-1.09,6.64-.23,13.34-.5,20"/>
  <path class="cls-1" d="M373,15c-1.89,5.71,2.58,9.94,3.67,14.96.3,1.4,1.11,3.06,1.83,4.54"/>
  <path class="cls-1" d="M125.5,397.5c-1.66,6.4-2.33,12.9-2,19.5"/>
  <path class="cls-1" d="M393.25,31.5c-.35,3.04-2.96,5.69-4.51,6.91-4.07,3.19-5.78,7.33-7.74,11.59"/>
  <path class="cls-1" d="M413.5,387.5c1.51,6.44.89,12.99,1,19.5"/>
  <path class="cls-1" d="M214.5,408c-.09,1.29.67,2.35.95,3.51.94,3.93,3.12,7.74,1.13,12.02-.44.95-.28,2.38.43,3.47"/>
  <path class="cls-1" d="M338,63c6.38.11,7.71,1.35,7.5,7-.16,4.38,3.87,9.76,7.5,10"/>
  <path class="cls-1" d="M109.5,257.5c.69-2.13,3.07-4.29.47-6.46-3.46-2.89-5.42-8.3-11.47-7.05-8.41,1.74-16.94,2.53-25.5,3.01"/>
  <path class="cls-1" d="M284,151.5c-3.26,3.04-7.35,3.22-11.49,3.57-3.05.26-6.79-.32-8.01,3.93"/>
  <path class="cls-1" d="M733.5,337.5c.7,6,2.41,11.88,2,18"/>
  <path class="cls-1" d="M287,25c1.68,5.78,4.19,11.27,6,17"/>
  <path class="cls-1" d="M244,111c5.41,3.41,11.1,3.65,17,1.5"/>
  <path class="cls-1" d="M132,401c-1.05,5.67-1.61,11.33,0,17"/>
  <path class="cls-1" d="M244,29c1.63,4.85,3.29,9.68,4.93,14.52.59,1.75,1.71,2.62,3.07,3.48"/>
  <path class="cls-1" d="M414,14c2.01,5.56,4.35,10.99,6.5,16.5"/>
  <path class="cls-1" d="M294.5,407c.75,5.32.45,10.66.5,16"/>
  <path class="cls-1" d="M415.5,150c.88,5.3,1.23,10.63,1,16"/>
  <path class="cls-1" d="M463.5,146c.87,4.3,2.66,8.44,2.06,13.01-.15,1.18-.34,1.86-1.56,1.99"/>
  <path class="cls-1" d="M724,235.5c-5.85-3.47-11.08-2-16,2"/>
  <path class="cls-1" d="M521,19c-4.22,6.05-11.31,9.73-13.67,17.45-.87,2.84-4.1,3.89-7.33,2.55"/>
  <path class="cls-1" d="M262.5,118.5c-2.52,1.55-5.31.89-8,.99-2.51.09-5.03-.17-7.5.51"/>
  <path class="cls-1" d="M292.5,162c-2.51,4.85-1.58,9.94-1,15"/>
  <path class="cls-1" d="M209,409.5c-.8,4.99-1.31,10.03-2.25,15"/>
  <path class="cls-1" d="M263.25,43.5c-1.61,3.76-3.93,7.03-6.73,10.02-1.68,1.8-3.37,3.91-2.95,6.47,1.08,6.62-3.11,11.92-4.12,18-.45,2.7-2,4.52-4.9,5.64-3.32,1.28-6.33,3.44-9.05,5.87"/>
  <path class="cls-1" d="M558.5,135c1.64,4.87,3.08,9.76,2.5,15"/>
  <path class="cls-1" d="M379.5,168.5c.57,2.4,2.26,2.74,4.48,3.12,2.83.48,6.42-.22,8.02,3.38"/>
  <path class="cls-1" d="M441.5,163c-.02-.56.14-1.6.46-1.43,4.77,2.51,10.41,2.59,15.04,5.43"/>
  <path class="cls-1" d="M754,340.5c.63,5.01-2.3,9.53-2,14.5"/>
  <path class="cls-1" d="M51.5,348.5c-4.73,1.77-9.66.72-14.5,1"/>
  <path class="cls-1" d="M585,17c-1.93,5.41-6.86,7.38-12.5,5"/>
  <path class="cls-1" d="M269,66c-4.92-2.35-9.66.5-14.5.5"/>
  <path class="cls-1" d="M297,59.5c3.11,4.53,5.59,9.03,5.83,14.99.13,3.15.14,8.2,5.17,9.51"/>
  <path class="cls-1" d="M183,411.5c-1.66,4.4-.96,8.98-1,13.5"/>
  <path class="cls-1" d="M432.5,59.25c-.17-.08-.47-.25-.48-.24-2.16,3.69.4,10.79,4.48,12.49"/>
  <path class="cls-1" d="M142.5,407.5c-.14,4.5.4,9.03-.5,13.5"/>
  <path class="cls-1" d="M22.5,276c-2.51,4.55.4,8.69,1,13"/>
  <path class="cls-1" d="M715.5,242.5c-.52,4.36,1.49,9.1-2,13"/>
  <path class="cls-1" d="M32.5,327.5c-5.36-.2-7,4.55-10,7.5"/>
  <path class="cls-1" d="M424.5,39.5c-6.09-3.12-12.39-.43-18.49-.2-4.05.15-8.5-.11-12.54,1.64-1.31.57-2.54-.41-3.48-1.44"/>
  <path class="cls-1" d="M777,336.5v12.5"/>
  <path class="cls-1" d="M553,1c3.05,5.33,3.84,11.52,6.5,17"/>
  <path class="cls-1" d="M65,383c.77-1.76.79-3.73,1.88-5.74-2.52.85-4.69,1.37-6.88,1.74"/>
  <path class="cls-1" d="M587.5,366c1.25,3.92,1.02,7.97,1,12"/>
  <path class="cls-1" d="M140.5,407c-.84,3.97-.39,8-.5,12"/>
  <path class="cls-1" d="M187,411v12"/>
  <path class="cls-1" d="M480.5,147c.02,4.03-2.68,7.83-1,12"/>
  <path class="cls-1" d="M299,285c.05-1.08-.15-2.23-1.49-1.96-4.8.98-9.75.68-14.52,1.91-1.49.38-.8,1.31-.99,2.05"/>
  <path class="cls-1" d="M577,15.25c-4.15,3.43-6.5,8.64-11.47,11.31-1.76.95-1.85,3.4-1.4,4.9.97,3.25-1.34,3.78-3.14,3.91-2.15.15-3.41,1.05-4.49,2.63"/>
  <path class="cls-1" d="M251,131c3.57,2.04,8.01,1.21,11.5,3.5"/>
  <path class="cls-1" d="M462.5,42.5c6.46.97,8.53,2.79,8.39,9-.13,5.51,3.43,9.57,4.7,14.48.24.92,1.4,2.24,2.91,1.02"/>
  <path class="cls-1" d="M330.25,20.5c-.22,4.2,2.11,7.68,3.25,11.5"/>
  <path class="cls-1" d="M516,40c-2.6-1.37-4.81-.1-6.42,1.57-1.74,1.82-.05,3.71.92,5.42,2.37,4.16,4.23,8.6,5.82,13.06.8,2.24,1.5,3.12,3.68,2.94"/>
  <path class="cls-1" d="M266,87.5c-3.57,1.41-7.43-.43-11,1"/>
  <path class="cls-1" d="M12,302.5c-3.52,1.97-7.22,1.93-11,1"/>
  <path class="cls-1" d="M783,283c-.25,3.66.53,7.37-.5,11"/>
  <path class="cls-1" d="M59,280c6.37,1.36,12.11,5.36,19,4.5"/>
  <path class="cls-1" d="M251.5,414c.71,3.64.46,7.33.5,11"/>
  <path class="cls-1" d="M259.5,109c-3.67-.07-7.36.29-11-.5"/>
  <path class="cls-1" d="M36.5,332.5c-3.1,2.89-7.01,3.56-11,4"/>
  <path class="cls-1" d="M349.5,408c.71,3.64.46,7.33.5,11"/>
  <path class="cls-1" d="M684.5,354c.6,3.64,1.33,7.27,1,11"/>
  <path class="cls-1" d="M299.5,166c-.71,3.64-.46,7.33-.5,11"/>
  <path class="cls-1" d="M767.5,302c-.33,3.83-2.39,7.51-1.01,11.5.48,1.39-1.79,1.18-1.49,2.5"/>
  <path class="cls-1" d="M306.5,40.5c-2.01,3.27-3.44,6.99-6.52,9.47-3.15,2.53-3.85,5.8-3.37,9.96-3.97.03-7.94,3.06-11.61-.93"/>
  <path class="cls-1" d="M565,34c.6.89,2,1.25,1.98,2.5-.17,8.1,5.33,14.01,8.02,21"/>
  <path class="cls-1" d="M24.5,317c-1.57,3.21-.85,6.65-1,10"/>
  <path class="cls-1" d="M315,58c-2.18.03-4.33.11-6.51.42-1.99.28-1.36,1.52-1.49,2.58"/>
  <path class="cls-1" d="M288.5,167.5c-3.47,2.52-7.48,2.51-11.5,2.5"/>
  <path class="cls-1" d="M446.5,390.5c1.67,2.98,1.52,6.25,1.5,9.5"/>
  <path class="cls-1" d="M174.5,231.5c-4.98,3.86-9.07-.33-13.5-1.5"/>
  <path class="cls-1" d="M562.5,145.5c1.73,4.57,5.74,1.41,8.5,2.5"/>
  <path class="cls-1" d="M811.5,326c2.12,2.8,1.79,5.87,1,9"/>
  <path class="cls-1" d="M795,285c-2.29,2.52-.09,5.83-1.5,8.5"/>
  <path class="cls-1" d="M341.5,171.5c1.83,3,3.93,4.97,8.03,4.14,2.18-.44,4.39,1.31,6.47,2.36"/>
  <path class="cls-1" d="M469.5,161.5c-2.71,2.39-6.39,2.17-9.5,3.5"/>
  <path class="cls-1" d="M116.5,405c-.85,2.96-.39,6-.5,9"/>
  <path class="cls-1" d="M49.5,353.5c-1.37,2.71-.96,5.63-1,8.5"/>
  <path class="cls-1" d="M734,190c-.74.18.02,2.23-2.1,1.19-1.51-.74-3.9-1.48-5.9-.19"/>
  <path class="cls-1" d="M596,115c-.71,1.5,1.41,3-.4,4.98-4.21-1.65-8.74-1.83-13.1.52"/>
  <path class="cls-1" d="M48.5,364c-.08.73.89,1.2.27,2.36,2.21-1.7,4.9.09,6.73-1.86"/>
  <path class="cls-1" d="M281.5,285.25c-6.79.31-13.83-.88-20,3.25"/>
  <path class="cls-1" d="M394.5,166.5c.72,1.48,1.52,2.92,1.81,4.59-.14,1.56-2.39,2-2.31,3.91"/>
  <path class="cls-1" d="M515.5,47c1.88,2.59,3.16,5.04-1.5,6"/>
  <path class="cls-1" d="M140,193.5c-2.68,0-5.21,2.26-8,.5"/>
  <path class="cls-1" d="M44,344.5c-2.66.19-5.23,1.95-8,.5"/>
  <path class="cls-1" d="M168.5,416c.62,2.64.89,5.35,1.5,8"/>
  <path class="cls-1" d="M422,167c.88-.06,1.75-.1,2.54.94.21,2.37-3.3-.08-3.63,2.08.6,1.79,2.08.67,3.09.98"/>
  <path class="cls-1" d="M148.5,413c-.38,2.66-1.46,5.23-1,8"/>
  <path class="cls-1" d="M13.5,307.5c-2.3,2.75-.36,7.06-3.5,9.5"/>
  <path class="cls-1" d="M536.5,149.5c-.49,2.5-.99,5,0,7.5"/>
  <path class="cls-1" d="M56.5,369.5c-.78.58-1.35,2.11-2.47,1.44-2.65-1.57-2.64,1.52-4.03,2.06"/>
  <path class="cls-1" d="M520.5,22.5c2.45.99,5,.3,7.5.5"/>
  <path class="cls-1" d="M350,57c-3.46-.03-7,.32-10-2"/>
  <path class="cls-1" d="M548.5,376c.15,2.36,1.53,4.54,1,7"/>
  <path class="cls-1" d="M435.5,28.5c-3.33,3.67-4.98,8.68-9.9,11.2-1.58.81-.78,4.33-2.48,6.86,6.19,1.83,4.76,8.69,8.38,12.44"/>
  <path class="cls-1" d="M453.5,153c.15,2.36,1.53,4.54,1,7"/>
  <path class="cls-1" d="M433.5,60.5c1.62,2.07,3.4,3.98,3.07,7.01-.17,1.5,1.25,1.57,2.43,1.49"/>
  <path class="cls-1" d="M308.5,415c.15,2.36,1.53,4.54,1,7"/>
  <path class="cls-1" d="M483.5,386c.15,2.36,1.53,4.54,1,7"/>
  <path class="cls-1" d="M312,61c-4.17,1.32-8.33-.42-12.5,0"/>
  <path class="cls-1" d="M559,19c.79-.45.78-2.48,2.53-1.04,1.54,1.27,3.56,1.12,5.47,1.04"/>
  <path class="cls-1" d="M566.5,149.5c.4,3.41,2.87,3.59,5.5,3.5"/>
  <path class="cls-1" d="M539,157c-3.05,2.1-6.44,2.45-10,2"/>
  <path class="cls-1" d="M387.5,66c2.77,2.87,1.73,8.03,5.79,10.16,2.8-2.32,1.36-4.77.71-7.16"/>
  <path class="cls-1" d="M465.5,44.5c-2.17,4.61-6.34,1.66-9.5,2.5"/>
  <path class="cls-1" d="M334.5,413c.15,2.36,1.53,4.54,1,7"/>
  <path class="cls-1" d="M67,275v7"/>
  <path class="cls-1" d="M350,36c-2.84,3.96-4.5,8.82-8.99,11.52-1.69,1.02-.93,3.01-1.48,4.49-.42,1.13.75,2.73-1.03,3.49"/>
  <path class="cls-1" d="M28.5,271c.28,2.6,1.54,4.48,4,5.5"/>
  <path class="cls-1" d="M327,176c-.09.83,1.33,2.43.01,2.34-2.93-.2-5.19,1.97-8.01,1.66"/>
  <path class="cls-1" d="M503.5,40.5c-.97,2.03-2.06,3.94-4.5,4.5"/>
  <path class="cls-1" d="M178.5,388.5c-.43,2.15-1.4,4.22-1,6.5"/>
  <path class="cls-1" d="M65,259c2.77,2.82-.78,4.06-1.5,6"/>
  <path class="cls-1" d="M269.5,141.5c-2.12.71-4.32.46-6.5.5"/>
  <path class="cls-1" d="M334.5,32.25c-2.97,3.55-2.13,5.18,3.5,6.75"/>
  <path class="cls-1" d="M375.5,409.5c.71,2.12.46,4.32.5,6.5"/>
  <path class="cls-1" d="M587,130.5c4.38-.15,7.43,4.28,12,3.5"/>
  <path class="cls-1" d="M19,321.5c-3,3.83-6-.24-9,0"/>
  <path class="cls-1" d="M258,69.5c1.89,1.49,3.94,1.06,6,.5"/>
  <path class="cls-1" d="M275,164.5c-2.04.33-3.59,2.63-6,1.5"/>
  <path class="cls-1" d="M543.75,155.5c3.42-3.62,6.85-.45,10.23.1.62.1,1.33.3,2.02.4"/>
  <path class="cls-1" d="M220.5,423c1.55,1.35-.87,3.89,1.5,5"/>
  <path class="cls-1" d="M228.5,421.5c-.84,1.77-.39,3.66-.5,5.5"/>
  <path class="cls-1" d="M477,59c-.75-2.74-2.61-2.16-4.5-1.5"/>
  <path class="cls-1" d="M115.5,171.5c-1.37,1.72-1.4,3.57-.5,5.5"/>
  <path class="cls-1" d="M476,44c-1.94.12-3.68.95-5.5,1.5"/>
  <path class="cls-1" d="M109.5,407.5c-1.55,1.61-.85,3.63-1,5.5"/>
  <path class="cls-1" d="M563.5,31.5c-1.84.11-3.73-.34-5.5.5"/>
  <path class="cls-1" d="M429,51.5c1.67.09,3.4-.3,5,.5"/>
  <path class="cls-1" d="M388.5,62.5c3.14-.14,3.77,2.23,4.5,4.5"/>
  <path class="cls-1" d="M187,237c-1.66.27-3.42-.56-5,.5"/>
  <path class="cls-1" d="M418,32.5c-1.58,1.06-3.34.23-5,.5"/>
  <path class="cls-1" d="M771,319c-3.34-.02-6.68.11-10,.5"/>
  <path class="cls-1" d="M374,171c-1.39,1.7-3.34.65-5,1"/>
  <path class="cls-1" d="M259.5,142.5c2.52,3.1,4.91,6.23,2.5,10.5"/>
  <path class="cls-1" d="M494.5,155.5c1.37,2.73,4.1,2.5,6.5,3"/>
  <path class="cls-1" d="M780,275c-1.64.58-2.63,2.34-4.5,2.5"/>
  <path class="cls-1" d="M352,54c-.33,1.51-1.14,1.3-1.99.49-.72-.69-1.35-.74-2.01.01"/>
  <path class="cls-1" d="M305.5,173c.67,1.44.47,2.99.5,4.5"/>
  <path class="cls-1" d="M422.5,161c.23,2.25,3.43,3.27,2.5,6"/>
  <path class="cls-1" d="M579,142.5c.84,1.62,3.33.6,4,2.5"/>
  <path class="cls-1" d="M461.5,43.5c-2.13.57-4.26,1.15-6.5,1"/>
  <path class="cls-1" d="M308,76c-.6-1.51-1.7-2.59-3-3.5"/>
  <path class="cls-1" d="M518,45c-1.66-.36-2.65,1.05-4,1.5"/>
  <path class="cls-1" d="M71,385.5c-1.92.5-4.61.11-4,3.5"/>
  <path class="cls-1" d="M378.5,53.5c-2.43.14-3.64,3.48-6.5,2.5"/>
  <path class="cls-1" d="M573,42c-.53,1.98-2.66.24-3.5,1.5"/>
  <path class="cls-1" d="M398.5,168.5c1.15.52,2.99.35,2.5,2.5"/>
  <path class="cls-1" d="M375.5,54.5c-.45-2.17-2.19-1.33-3.5-1.5"/>
  <path class="cls-1" d="M784,280c4.87,1.4,1.53,4.55,1.5,7"/>
  <path class="cls-1" d="M574.5,145.5c.41,1.89,2.37,1.61,3.5,2.5"/>
  <path class="cls-1" d="M739,249c-1.82.46-1.86,2.2-2.5,3.5"/>
  <path class="cls-1" d="M583,138c2.84,1.27,4.38,2.98,2,6"/>
  <path class="cls-1" d="M290,178c2-1.34,4,.45,6,0"/>
  <path class="cls-1" d="M599,131c-2.38.59-2.86-2.6-5-2.5"/>
  <path class="cls-1" d="M468.5,156.5c1.31.16,1.84,2.14,3.5,1.5"/>
  <path class="cls-1" d="M389.5,60.5c-1.87,1.8-4.22,1.5-6.5,1.5"/>
  <path class="cls-1" d="M507.5,157c-.57,1.88-2.64.29-3.5,1.5"/>
  <path class="cls-1" d="M422.5,31.5c1.09.71,2.32.44,3.5.5"/>
  <path class="cls-1" d="M150.5,209.5c-1.09.71-2.32.44-3.5.5"/>
  <path class="cls-1" d="M475,162c-1.08-3.25-3.44-.12-5-1"/>
  <path class="cls-1" d="M258,153c2.19,1.74,2.24,1.88,1,3"/>
  <path class="cls-1" d="M798.5,289.5q2.05-2,3.5-.5"/>
  <path class="cls-1" d="M493,164c1.67.91,3.33-.39,5,0"/>
  <path class="cls-1" d="M153,216c.79,1.94,1.94,2.93,4,1.5"/>
  <path class="cls-1" d="M467.5,157.5c.11.78.53,1.4,1,2"/>
  <path class="cls-1" d="M264,80c.85-3.06-2.29-1.32-3-2.5"/>
  <path class="cls-1" d="M782,279c-1.67.12-1.55,2.76-3.5,2.5"/>
  <path class="cls-1" d="M325,179.5c-.21,1.67.15,3.01,2,3.5"/>
  <path class="cls-1" d="M169.5,235c-.84,1.48-2.27.89-3.5,1"/>
</svg>