<?xml version="1.0" encoding="UTF-8"?>
<svg id="Layer_1" data-name="Layer 1" xmlns="http://www.w3.org/2000/svg" viewBox="0 0 604.28 420.51">
  <defs>
    <style>
      .cls-1 {
        fill: none;
        stroke: #000;
        stroke-linecap: round;
        stroke-linejoin: round;
        stroke-width: 4px;
      }
    </style>
  </defs>
  <path class="cls-1" d="M551,236.67c-4.17.74-7.1,2.71-10.24,6.03-7.31,7.74-16.69,12.55-27.21,15.42-6.22,1.7-11.26.13-16.55-2.2"/>
  <path class="cls-1" d="M251,386.92c-5.81,7.57-14.51,12.11-20.5,19.5-.83,1.03-2.14.45-2.94.69-5.92,1.79-12.53,2.6-16.06,8.81"/>
  <path class="cls-1" d="M597,67.42c-.64,2.54-2.22,4.18-4.48,5.54-32.48,19.48-65.62,37.85-98.06,57.4-17.14,10.33-34.71,19.93-52.05,29.92-2.91,1.67-4,3.55-3.32,6.12,2.2,8.28,1.17,16.68,1.36,25.03.06,2.74.22,5.31,2.05,7.5"/>
  <path class="cls-1" d="M433,211.42c-.44,6.36-4.97,10.38-8.49,15.01-6.3,8.31-15.99,11.55-24.53,16.46-37.74,21.67-75.76,42.83-113.46,64.56-.47.27-.91.42-.98.5-4.04,4.23-11.23,4.17-13.99,9.99-2.5,5.26-5.71,10.14-8.04,15.48"/>
  <path class="cls-1" d="M469,183.42c-3.2,4.64-7.85,6.84-12.89,9.23-9.13,4.34-17.95,9.45-26.63,14.73-20.6,12.53-42.1,23.49-62.99,35.52-32.88,18.92-66.25,36.99-98.63,56.79-2.71,1.66-5.39,5.81-9.86,3.73"/>
  <path class="cls-1" d="M127.5,318.42c-5.84,7.31-6.7,16.41-9.48,25.05,7.91,3.61,14.87,8.3,22.99,10.41,5.04,1.31,9.77.63,13.46-3.49.47-.53.71-.89,1.53-1.02,7.48-1.14,9.28-3.02,9.95-10.96.28-3.32.38-6.69.7-9.98.34-3.39-1.59-4.26-3.59-3.4-10.63,4.57-19.64-1.13-29.02-4.22-2.01-.66-4.17-1.23-6.03-2.4"/>
  <path class="cls-1" d="M343.5,160.92c2.89-2.5.57-5.32.51-8-.11-4.48-1.57-8.69-2.59-12.98-.57-2.4-1.53-3.85-4.99-2.16-15.87,7.77-28.69,18.8-37.27,34.23-2.6,4.68-.21,9.87,2.34,14.41"/>
  <path class="cls-1" d="M596.5,77.42c-.76,1.61-1.29,3.1-.55,5.02,3.45,8.93,2.6,18.23,2.05,27.48-.08,1.35-.42,2.74-.4,4,.09,5.77-3.08,9.36-7.62,11.97-7.71,4.43-15.59,8.56-22.97,13.55-4.53,3.06-8.7.06-13.01-.52"/>
  <path class="cls-1" d="M467,10.92c5.4-3.34,10.12-2.42,15.59.85,15.04,8.99,30.7,16.93,45.95,25.58,13.9,7.88,27.38,16.5,41.46,24.07"/>
  <path class="cls-1" d="M572,70.42c-7.67,1.24-15.33.3-23,0"/>
  <path class="cls-1" d="M463,12.92c-.38-3.84-2.91-6.6-5.05-9.46-2.8-3.73-6.94-2.53-9.87-.9-11.15,6.2-22.43,12.16-33.56,18.39-4.32,2.42-7.21,5.7-8.75,10.9-1.82,6.16-6.37,11.25-9.27,17.07"/>
  <path class="cls-1" d="M197,99.42c-3.02-3.18-6.93-5.1-10.99-8.07-20.63,21.29-38.36,44.86-56.51,68.07"/>
  <path class="cls-1" d="M464,190.42c.65,2.17,1.92,4.36,0,6.5-5.32,5.91-9.97,12.45-14.63,18.77-4.37,5.92-10.56,10.95-12.42,18.72-1.2,5,.68,9.21,2.56,13.51"/>
  <path class="cls-1" d="M357,175.42c.35,8.91,1.88,17.71,3.22,26.47,1.73,11.34,2.25,22.64,2.3,34.03,0,1.87-.57,3.89.98,5.5"/>
  <path class="cls-1" d="M58,351.42c-6.03,9.24-5.55,11.7,3.5,18.51,6.97,5.24,14.51,9.57,21.89,14.18,6.29,3.94,11.85,8.91,19.07,11.44,3.32,1.16,6.36,2.85,10.04,2.95,2.41.07,4.46,1.64,6.51,2.91,3.36,2.1,7.03,3.1,11,3.01"/>
  <path class="cls-1" d="M197.5,417.92c1.6.8,3.32.45,5,.49,4.52.1,8.95-.22,13.54.84,6.78,1.56,13.04-4.17,13.46-11.33"/>
  <path class="cls-1" d="M109.5,342.42c10.31,7.59,21.97,12.72,33.57,17.85,2.56,1.13,5.79,1.06,8.99-.21,6.05-2.4,12.57-3.58,18.04-7.51.46-.33,1.64-1.52,2.92-.64,4.98,3.38,10.97,4.07,16.49,6.02"/>
  <path class="cls-1" d="M537,70.42c.15-2,.06-3.98.41-6.02,1.08-6.14-1.64-11.53-3.89-16.99-.69-1.67-2.11-2.3-3.53-2.98-9.26-4.44-17.99-9.79-26.5-15.51-2.67-1.79-5.64-.9-8.5-1"/>
  <path class="cls-1" d="M261.5,189.92c.55,2.59,1.9,4.95,2.44,7.51.89,4.18.7,8.07-1.82,12.07-3.48,5.53-5.78,11.77-9.16,17.4-1.46,2.44-2.73,5.76-5.51,6.33-3.7.76-8.02.97-11.36-.99-2.4-1.41-4.6-1.7-7.1-1.83-10.5-.54-26.18-11.65-29-20.49"/>
  <path class="cls-1" d="M83,347.42c10.27,6.25,20.7,12.21,31.5,17.51,5.02,2.46,9.94,5.14,15.03,7.43,3.06,1.38,5.94,2.8,7.97,5.56"/>
  <path class="cls-1" d="M547.5,191.67c-3.34-.15-5.52-2.67-7.92-4.36-9.98-7.01-19.64-5.37-29,.73-2.98,1.94-5.96,4.16-8.18,7.31-2.77,3.93-7.02,5.84-11.9,6.07"/>
  <path class="cls-1" d="M447,63.92c-5.92,2.17-11.34,5-16.12,9.36-3.29,3-7.85,4.52-11.89,6.61-2.84,1.47-4.66.24-6.01-2.46-4.38-8.75-9.73-16.97-14.42-25.54-1.54-2.82-3.54-3.56-6.56-3.53-11,.14-22,.06-33,.06"/>
  <path class="cls-1" d="M263,240.42c1.05,12.5,1.99,25.01,3.2,37.48.56,5.82.11,11.88,2.3,17.52"/>
  <path class="cls-1" d="M250,350.42c1.03-4.61,1.56-9.43,1.3-13.99-.51-9.03-10.46-15.91-19.3-13.98-8.53,1.86-15.02,6.31-18.08,14.94-.29.82-.24,1.9-1.39,2.58-10.51,6.16-15.46,16.6-20.55,26.94-2.46,5-3.89,10.38-5.98,15.51"/>
  <path class="cls-1" d="M292.5,206.92c-4.92,1.94-9.8,3.94-14,7.25-5.9,4.65-6.54,9.87-2,16.25"/>
  <path class="cls-1" d="M33,264.42c4.08,7.71,8.07,15.48,12.47,23.02,1.05,1.8,1.37,3.65,1.23,6-.28,4.61,2.36,9.01,5.46,11.81,7.25,6.54,15.01,12.85,25.84,12.18"/>
  <path class="cls-1" d="M458,13.92c-5.9-2.66-10.87-1.36-16.63,1.76-10.46,5.68-20.48,12.36-31.87,16.24"/>
  <path class="cls-1" d="M86,315.92c-2.19-8.66-5.41-16.52-15-19.51-.63-.2-.06-.03-.48-.5-6.47-7.26-14.66-6.5-23.02-4.98"/>
  <path class="cls-1" d="M601,141.42c-.57,1.66-2.32,2.39-3.02,3.99-2.99,6.79-8.53,10.16-15.43,12.42-4.96,1.63-9.07,5.32-13.51,8.16-.92.59-1.68,1.65-2.56,2.41-5.11,4.42-8.19,4.24-13-.46-1.28-1.25-2.29-2.71-3.44-4.06-3.87-4.51-7.22-6.05-12.49-3.84-5.71,2.4-11.73,3.55-17.59,5.23-7.43,2.13-13.01,6.66-18.46,11.64-3.33,3.04-6.22,6.54-8.88,10.09-2.62,3.5-4.02,7.77-3.15,12.42.18.96.61,1.9.06,3.01-3.42,6.92-4.71,14.29-5.81,21.95-1.22,8.58-4.38,16.92-7.72,25.04"/>
  <path class="cls-1" d="M376,169.42c-2.11,6.66-6.44,12.32-8.5,19"/>
  <path class="cls-1" d="M431,158.42c1.2,14.48,1.26,29.02,2.5,43.5"/>
  <path class="cls-1" d="M212,107.42c-.15,2.36,1.75,3.77,2.82,5.46,5.65,8.89,7.75,18.72,8.18,29.04"/>
  <path class="cls-1" d="M539.5,233.92c-2.73.42-4.73,1.88-6.54,3.97-5.13,5.93-10.94,11.17-18.99,12.39-3.56.54-7.12.58-10.51,2.07-1.05.46-1.81,1.39-2.97,1.57"/>
  <path class="cls-1" d="M33,326.42c.83.84,1.03,1.99,1.49,3.01,2.81,6.2,7.94,9.75,13.31,13.77,10.22,7.64,21.95,12.26,32.79,18.59,3.39,1.98,4.76,5.34,7.16,7.89,1.45,1.54,3.37,3.46,4.26,5.76"/>
  <path class="cls-1" d="M10,310.42c.81,3.07,2.29,5.5,4.93,7.59,5.1,4.03,7.75,9.11,5.17,15.95-.69,1.83-.2,4.06,1.88,5.48,8.43,5.77,16.91,11.46,25.5,17,1.89,1.22,3.86,1.61,6.02,1.47"/>
  <path class="cls-1" d="M214,339.42c4.6,2.13,9.46,3.24,14.5,2.94,3.14-.19,5.86.94,8.47,2.14,5.55,2.57,11.61,4.66,15.91,9.04,3.99,4.07,8.5,7.24,13.12,10.38"/>
  <path class="cls-1" d="M1,285.42c.94,9.49,6.94,15.65,14.62,19.78,4.28,2.3,6.69,6.78,11.38,8.22"/>
  <path class="cls-1" d="M170,191.42c5.11,3.69,10.96,6.2,16,9.99,1.33,1,2.9,1.1,4.5,1,3.93-.25,7.72.57,11.5,1.5"/>
  <path class="cls-1" d="M27,256.42c1.36,1.46.99,3.28.99,5,.02,8.67,0,17.33,0,26"/>
  <path class="cls-1" d="M457.5,220.42c2.25,2.58,2.26,6.01,2.86,9.03,1.38,6.99,2.46,14.04,4.14,20.97"/>
  <path class="cls-1" d="M305,201.92c.02,4.17.53,8.39.34,12.49-.29,5.98-3.49,11.12-6.84,16.01"/>
  <path class="cls-1" d="M292,154.42c-4.8,0-8.94,2.55-13.45,3.7-4.87,1.24-9.76,2.65-14.55,4.3"/>
  <path class="cls-1" d="M197.5,357.92c3.64,1.26,7.38,2.22,10.97,3.58,1.72.65,4.63.6,4.44,3.42-.18,2.71-2.47,3.64-4.91,4.01"/>
  <path class="cls-1" d="M549.5,193.92c.44.71,1.51.94,1.5,2-.04,6.93.41,13.92-2.5,20.5"/>
  <path class="cls-1" d="M128.5,160.92c5.38,8.28,14.14,13.16,20.63,20.39,2.87,3.2,6.15,6.17,9.37,9.11"/>
  <path class="cls-1" d="M121.25,120.92c-2.45,1.36-3.04,3.17-2.35,6.02.89,3.7,3.04,6.72,4.78,9.88,1.34,2.44,4.27,1.93,6.85.64,4.31-2.16,6.64-7.58,4.48-11.05"/>
  <path class="cls-1" d="M231,355.42c-3.29,1.14-6.2,2.03-7.22,6.45-.96,4.11-4.31,4.99-9.28,4.05"/>
  <path class="cls-1" d="M535.5,169.92c1.45,3.65,5.16,5.19,7.67,7.84,3.59,3.78,4.03,7.06,1.33,11.16"/>
  <path class="cls-1" d="M544.5,191.42c-1.88,3.93-.6,7.98-.54,12,.15,10.18-.68,20.26-4.27,29.79,1.23,2.05,3.26,3.11,3.81,5.21"/>
  <path class="cls-1" d="M199.5,209.92c-6.41,1.65-12.78,3.55-19.5,3.5"/>
  <path class="cls-1" d="M126.5,163.42c-1.21,1.17-2.41,2.36-3.16,4.56,9.47,8.19,18.84,16.86,29.17,24.42,2.45,1.79,4.59,3.65,4.49,7.02"/>
  <path class="cls-1" d="M115.25,373.42c.53,1.11,1.21,1.88.89,3.53-.98,5.01,1.19,8.68,5.84,11.02,2.13,1.07,4.31,2.19,6.02,3.95"/>
  <path class="cls-1" d="M117,375.42c3.89-.37,7.44.6,10.48,3.02,2.44,1.94,5.2,3.25,8.02,4.48"/>
  <path class="cls-1" d="M424,168.42c.21,2.19-.37,3.67-2.43,5.1-3.53,2.46-7.54,4-11.07,6.4"/>
  <path class="cls-1" d="M234.5,186.92c4.91,4.15,11.12,4.89,17,6.5"/>
  <path class="cls-1" d="M353,210.42c-.63,1.61-.91,3.22-2.96,4.1-2.79,1.2-5.27,3.09-8.05,4.39-1.99.94-4,1.82-4,4.51"/>
  <path class="cls-1" d="M160,192.92c4.38,2.14,6.73,5.78,6.88,10.5.06,1.97,2.39,2.2,2.12,4"/>
  <path class="cls-1" d="M13,317.92c-2.76,5.92-.15,12.36,6.5,16"/>
  <path class="cls-1" d="M170,366.42c-5.98,4.11-11.41,8.85-16.5,14"/>
  <path class="cls-1" d="M15,281.42c3.89,4.29,6.74,9.66,12.5,12"/>
  <path class="cls-1" d="M477,169.42c-2.83,4.14-4.52,8.94-7.5,13"/>
  <path class="cls-1" d="M156,327.92c.67,3.92-1.36,7.61-1,11.5"/>
  <path class="cls-1" d="M510,210.92c-1.84,1.81-3.79,3.61-3.46,6.5.17,1.48-.55,2.65-1.56,2.93-4.71,1.31-4.63,5.85-6.48,9.08"/>
  <path class="cls-1" d="M602,129.42c1.59,3.75,1.98,7.44-.5,11"/>
  <path class="cls-1" d="M217,372.42c-2.58.67-2.42,3.5-3.81,5.16-1.95,2.33-3.74,3.63-6.69,3.34"/>
  <path class="cls-1" d="M127,139.42c-.48,3.48,1.31,6.62,1.5,10"/>
  <path class="cls-1" d="M558.5,172.42c.42,3.41-.88,6.65-1,10"/>
  <path class="cls-1" d="M230,323.92c0,3.17,0,6.33,0,9.5"/>
  <path class="cls-1" d="M112,388.42c1,3.09,1.54,6.25,1.5,9.5"/>
  <path class="cls-1" d="M536,193.42c-.72,5.43,3.77,4.06,6.5,5"/>
  <path class="cls-1" d="M567,151.42c-2.52.58-2.56,2.28-1.46,3.97,1.8,2.76,2.42,6.21,4.96,8.53"/>
  <path class="cls-1" d="M169,152.42c0,3,0,6,0,9"/>
  <path class="cls-1" d="M168.5,149.92c-2.66-1.48-5.51-1.87-8.5-1.5"/>
  <path class="cls-1" d="M204.5,375.42c1.48,3.36,1.86,6.53-.96,9.54-1.15,1.23-2.15,2.71-2.54,4.46"/>
  <path class="cls-1" d="M231.5,372.42c-2.53,2.56-5.72,4.26-8.5,6.5"/>
  <path class="cls-1" d="M23,286.42c4.75,1.73,5.38,5.72,5.5,10"/>
  <path class="cls-1" d="M437,151.42c-.17,2.79.03,5.52,1.5,8"/>
  <path class="cls-1" d="M521,203.42c0,.5-.11,1.03.02,1.49.57,2.08.33,4.34-2.02,4.36-2.95.01-3.6-2.21-2.5-4.85"/>
  <path class="cls-1" d="M135.5,169.92c-.46,2.54,2.28,4.87.5,7.5"/>
  <path class="cls-1" d="M225.5,378.42c.28,2.53,1.82,4.61,2.5,7"/>
  <path class="cls-1" d="M154,341.42c.5,2.31-1.01,4.76.5,7"/>
  <path class="cls-1" d="M70.5,297.42c-.64,2.3-.49,4.66-.5,7"/>
  <path class="cls-1" d="M560,161.42c-2.34.01-4.7-.14-7,.5"/>
  <path class="cls-1" d="M227,366.92c2.22.26,4.26,1.31,6.5,1.5"/>
  <path class="cls-1" d="M222,400.42c-1.74-1.13-.69-4.76-4-4.5"/>
  <path class="cls-1" d="M216.5,355.42c-.77,2.12-1.21,4.39-3,6"/>
  <path class="cls-1" d="M518,209.92c-3.11,2.39-4.83,5.88-6.92,9.06-.29.44-.9,2.2.92,2.44"/>
  <path class="cls-1" d="M528,210.42c-.09,1.7-.05,3.35,1.5,4.5"/>
  <path class="cls-1" d="M218.5,391.42c-.68,3.11-1.78,6.07-3,9"/>
  <path class="cls-1" d="M521,209.92c1.36,1,.96,3.11,2.77,3.84.93.29,1.01-1.47,2.23-1.34"/>
  <path class="cls-1" d="M239.5,365.42c1.06,1.22.23,2.68.5,4"/>
  <path class="cls-1" d="M461.5,85.92c-.41,1.89-2.37,1.61-3.5,2.5"/>
  <path class="cls-1" d="M4.5,298.42c-1.06,1.22-.23,2.68-.5,4"/>
  <path class="cls-1" d="M223,381.42c-.04-1.02.22-2.09-.52-3q-4.93.08-2.98,3.5"/>
  <path class="cls-1" d="M512,207.42c-2.07,3.24,2.02,2.08,2.5,3.5"/>
</svg>