<?xml version="1.0" encoding="UTF-8"?>
<svg id="Layer_1" data-name="Layer 1" xmlns="http://www.w3.org/2000/svg" viewBox="0 0 601.75 449.59">
  <defs>
    <style>
      .cls-1 {
        fill: none;
        stroke: #000;
        stroke-linecap: round;
        stroke-linejoin: round;
        stroke-width: 3px;
      }
    </style>
  </defs>
  <path class="cls-1" d="M600.75,241.01c-1.2,6.45-6.88,8.75-11.56,11.34-15.27,8.45-30.25,17.37-45.37,26.07-15.51,8.93-30.88,18.11-46.48,26.87-30.3,17-60.15,34.78-90.3,52.03-33.52,19.17-66.95,38.51-100.38,57.86-12.52,7.25-25.29,14.07-37.48,21.91-3.48,2.24-6.52,1.95-10.06-.87-9.44-7.52-20.47-12.55-30.89-18.54-15.64-8.98-31-18.49-46.94-26.93-7.83-4.14-14.67-10.06-23.41-12.63-2.54-.75-4.18-3.43-6.5-4.92-3.93-2.52-7.95-4.73-12.49-6.01-1.7-.48-3.73-.74-4.96-1.99-11.42-11.5-26.98-16.43-40.11-25.23-7.06-4.73-14.87-8.47-22.36-12.64-20.65-11.5-40.46-24.48-61.48-35.3-4.99-2.57-5.82-7.28-8.42-11.12"/>
  <path class="cls-1" d="M544.33,236.02c-7.65-.6-15.33.67-22.97-.49-1.43-.22-2.39.85-3.49,1.49-31.14,17.94-62.23,35.96-93.4,53.84-46.95,26.93-93.56,54.43-140.74,80.96-3.04,1.71-6.04,3.58-9.03,5.41"/>
  <path class="cls-1" d="M216.27,356.27c-6.64-4.3-13.62-8.02-20.47-11.98"/>
  <path class="cls-1" d="M124.4,303.38c-.5-.33-.69-1.13-1.5-1"/>
  <path class="cls-1" d="M93.44,285.42c-6.86-5.56-14.55-8.08-23.48-7.07-4.27.48-8.65.08-12.97.08"/>
  <path class="cls-1" d="M171.33,297.4c4.68,12.03,14.76,18.23,25.42,24.04,5.44,2.96,10.69,5.4,17.03,3.91,3.17-.74,5.97-2.38,8.98-3.5"/>
  <path class="cls-1" d="M90.94,239.01c.94-2.95,2.41-5.87.12-9.6-3.93,1.81-5.63,5.24-6.02,9.11-.55,5.45.25,10.98-.54,16.46-.39,2.72,1.52,3.4,3.92,4.08,5.86,1.68,11.68.32,17.5.4"/>
  <path class="cls-1" d="M391.53,276.94c-3.81,5.14-8.71,9.28-13.08,13.88-5.97,6.28-14.56,8.04-22.44,10.33-6.06,1.76-11.22,4.25-15.38,8.76-5.86,6.36-13.41,10.37-20.6,14.78-2.54,1.56-6.04,1.72-9.38,1.83-6.71.22-12.02,2.84-16.75,8.59-6.16,7.48-12.86,14.8-23.12,17.94-7.31,2.23-13.58,1.15-19.48-2.37-7.34-4.37-14.7-8.9-20.55-15.34-1.89-2.08-2.82-4.77-4.49-6.99"/>
  <path class="cls-1" d="M257.22,254.48c8.25,3.15,8.23,12.04,12.43,18,.39.55-.06,1.59,1.05,1.98,5.67,1.97,10.8,5,16.07,7.8,3.28,1.74,6.75-.48,9.36-2.87,2.4-2.2,3.78-5.23,5.53-7.94"/>
  <path class="cls-1" d="M494.89,217.06h24.47"/>
  <path class="cls-1" d="M84.45,136.72c0,20.46,0,40.92,0,61.37,0,5.82.12,11.65-.05,17.46-.09,3.31.55,6.18,3.04,8.48"/>
  <path class="cls-1" d="M189.81,204.58c1.68-5.95.76-11.96.53-17.96-.08-2.23-1.82-3.13-3.03-4.49"/>
  <path class="cls-1" d="M297.16,147.2c-2.53,2.05-5.24,4.15-8.5,4.41-9.28.74-15.75,7.15-23.54,10.9-3.73,1.8-6.56,5.82-11.41,5.15"/>
  <path class="cls-1" d="M225.76,148.2c.92-.37.41-1.36.95-2.04,4.75-5.97,7.16-13.21,10.53-19.92,2.68-5.35,4.49-5.84,10.02-3.03,3.05,1.55,6.26,2.8,9.47,4.03"/>
  <path class="cls-1" d="M317.13,260.47c4.18,8.14,7.88,16.53,12.52,24.43.45.76.75,1.64,1.93,2.09,7.72,2.93,10.55,10.42,15.01,16.4"/>
  <path class="cls-1" d="M160.85,197.6c.04-2.01.83-3.83-.37-6.06-2.16-4.02.73-8.58-.55-12.93-.66-2.25-1.21-4.42-3.08-5.96-3.08-2.54-6.58-1.65-8.5,1.98-4.13,7.84-6.82,16.37-11.47,23.96"/>
  <path class="cls-1" d="M407.01,168.16c1.38.25,2.6-.54,3.99-.57,3.53-.07,6.48-3.97,10.5-1.45,6.13,3.83,11.42,8.24,12.47,15.99"/>
  <path class="cls-1" d="M297.16,327.83c-1.24-1.26-2.58-2.44-3.5-3.99-6.54-11.13-15.56-18.75-28.41-22.14-7.21-1.9-14.02-5.45-20.52-9.3"/>
  <path class="cls-1" d="M389.04,146.7c2.89,1.56,6.01,3.1,9.04,3.77,4.62,1.02,5.81,4.28,6.82,7.74.57,1.95,1.25,3.95,1.55,5.96.27,1.83.32,3.73-.9,5.5-4.42,6.38-4.31,12.52-.05,18.46,3.47,4.84,7.25,9.46,10.51,14.46"/>
  <path class="cls-1" d="M359.58,123.25c1.45,2.35.97,4.96.99,7.48.04,6.49.01,12.97.01,19.46"/>
  <path class="cls-1" d="M224.76,151.19c-3.1-1.89-6.54-3.03-10-3.95-4.58-1.22-8.04,1.2-8.97,5.94-.39,1.99-.64,3.88-.09,6.01,1.2,4.65-1.77,8.88-1.93,13.45,0,0-.35.06-.47-.01-.2-.12-.34-.32-.51-.49"/>
  <path class="cls-1" d="M353.59,160.67c.62,4.25-.46,8.07-3.01,11.47-2.17,2.91-3.17,6.43-5.05,9.45-2.08,3.34-.5,6.54.24,9.48.92,3.66,2.22,7.26,2.82,11.02"/>
  <path class="cls-1" d="M479.41,166.16c-.03,7.49,1.45,15.01-.55,22.44-.12.44-.63.69-.45,1.01,5.47,9.53-.62,16.35-5.49,23.45"/>
  <path class="cls-1" d="M314.64,196.1c-1.52,7.41.87,15.25-2.5,22.45"/>
  <path class="cls-1" d="M168.84,88.32c0,11.98-.06,23.95.05,35.93.02,2.51-.51,4.77-1.54,6.99"/>
  <path class="cls-1" d="M357.08,173.15c3.78,5.77,8.36,10.89,12.99,15.96.93,1.01,2,1.87,1.5,3.5-1.41,4.59.7,7.92,3.37,11.56,4.32,5.87,7.86,12.31,11.1,18.88"/>
  <path class="cls-1" d="M223.26,315.86c-3.76-.41-7.48-1.05-10.98-2.52-4.37-1.83-8.83-2.52-13.49-1.48"/>
  <path class="cls-1" d="M288.17,283.42c-2.86,7.77-5.47,15.66-9.49,22.95"/>
  <path class="cls-1" d="M362.57,121.75c6.45.25,8.36,4.26,8.52,9.98.14,4.88,2.09,9.54,1.96,14.47"/>
  <path class="cls-1" d="M370.56,198.1c-6.38.89-12.63,2.42-18.97,3.53-5.56.97-8.17,5.13-7.53,10.95.67,6.13,1.45,12.26,1.04,18.46"/>
  <path class="cls-1" d="M229.75,302.88h-20.97"/>
  <path class="cls-1" d="M402.52,185.12c-3.25,1.08-6.69.67-9.99.84-7.08.38-13.73,1.8-19.96,5.14"/>
  <path class="cls-1" d="M335.11,69.86c2.15,2.81,2.64,6.02,2.54,9.48-.11,3.68-.73,7.31.81,11.04,1,2.4-.77,5-1.77,7.46-.76,1.88-2.32,3.36-2.58,5.46"/>
  <path class="cls-1" d="M319.13,67.86c-2.65-2.56-4.83-6.15-9.52-3.55-1.32.73-2.39-.52-3.5-1.39-1.88-1.47-3.57-3.59-7.06-2.86-1.28,2.24-2.12,5.38-5.33,6.91-1.88.9-2.52,3.13-3.23,5.32-.99,3.03-1.9,6.31-4.75,8.62-2.32,1.89-.64,4.92-1.06,7.41"/>
  <path class="cls-1" d="M485.41,172.15c-.2,4.17-2.32,8.15.23,12.63.93,1.64-1.49,4.93-2.72,7.33"/>
  <path class="cls-1" d="M227.76,89.82c1-.54,1.94-.45,3.01-.03,2.45.97,4.45.44,6.53-1.41,5.2-4.63,9.17-3.47,12.5,2.9,1.52,2.91,2.77,5.79,3.49,9,.65,2.92,1.81,5.71,4.94,7"/>
  <path class="cls-1" d="M315.64,37.92c4.31,1.37,8.17,1.75,11.59-2.41,2.13-2.6,6.65-1.37,8.87,1.93,1.16,1.73,2.7,3.55,2.9,5.49.61,5.78,4.08,10.61,4.87,16.42.45,3.28,1.98,6.51,1.74,10.01"/>
  <path class="cls-1" d="M241.74,146.2c-.31,6.32.63,12.67-.5,18.96"/>
  <path class="cls-1" d="M499.39,181.13c-1.95,3.23-2.63,7.05-2.26,10.45.37,3.35-1.05,4.61-3.24,6.01"/>
  <path class="cls-1" d="M210.78,110.78c2.85,1.45,6.36,1.63,8.5,4.48,1.09,1.45,2.38.14,3.47-.05,6.92-1.2,12.57,1.14,16.49,7.05"/>
  <path class="cls-1" d="M75.46,259.97c2.62,5.78,5.99,11.31,5.99,17.96"/>
  <path class="cls-1" d="M525.85,218.06c-2.79,5.55-5.97,10.97-5.99,17.46"/>
  <path class="cls-1" d="M246.23,90.82c-3.41,2.19-3.73,5.15-3.11,9,1.11,6.92.83,13.95.12,20.94"/>
  <path class="cls-1" d="M285.18,121.75c-5.75-.54-10.84,1.04-15.52,4.44-2.05,1.49-4.3.07-6.46-.42-4.74-1.08-6-.4-7.44,4.47-1.6,5.42-2.87,10.95-3.92,16.48-.9,4.75-4.73,7.47-6.61,11.45"/>
  <path class="cls-1" d="M287.18,189.12c-1.89,4.14-2.8,8.17-2.31,13.01.41,3.95,2,3.77,4.75,4.64,3.6,1.13,4.13-1.15,4.97-3.2.39-.95-.11-2.25,1.08-2.96"/>
  <path class="cls-1" d="M275.69,96.31c.36,3.36-2.03,4.57-4.48,4.38-6.06-.49-9.19,4.05-12.85,7.27-1.89,1.66-.99,5.29-.49,7.79.6,2.99,1.07,6.04,1.84,9.01"/>
  <path class="cls-1" d="M304.15,176.64c2.72,1.99,5.2,3.97,1.02,7.01-1.19.87-.68,2.42-.44,3.45.75,3.11,1,6.12-.6,8.99-.98,1.76-.83,3.33,1.05,3.92,1.72.54,3.52-.28,3.37-2.4-.1-1.52.75-1.59,1.59-2"/>
  <path class="cls-1" d="M280.18,161.17c1.61,3.31,3.32,6.03,3.05,10.51-.25,4.06-.1,8.01-1.48,11.97-.49,1.41.16,2.93,1.93,3.47"/>
  <path class="cls-1" d="M313.14,99.8c-3.48-1.94-7.09-3.55-10.98-4.5-3.48-.85-6.21.54-7.49,4.01-.83,2.25-1.22,4.52-1.07,6.99.22,3.5.72,7.04-.88,10.5-1.31,2.83-.18,5.51,1.44,7.96"/>
  <path class="cls-1" d="M179.82,194.11c.27,5.32-.57,10.67.5,15.97"/>
  <path class="cls-1" d="M333.11,39.92c-2.02,1.5-2.99,3.55-2.46,5.98,1.66,7.61.72,15.31.96,22.96"/>
  <path class="cls-1" d="M474.42,172.15c1.54,5.04-1.92,10.89,2.5,15.47"/>
  <path class="cls-1" d="M97.93,232.53c1.75,1.81,3.35,3.71,2.99,6.49-.71,5.58,1.28,10.55,3.5,15.47"/>
  <path class="cls-1" d="M241.24,181.13c.67,3.75,2.67,7.75-2,10.48,1.2,3.07.06,5.99-.43,8.99-.28,1.69-.79,3.3-1.06,4.98"/>
  <path class="cls-1" d="M268.2,127.24c-.19,1.06.68,1.87.54,3-.57,4.46,0,8.65,3.46,11.97"/>
  <path class="cls-1" d="M253.22,38.92c0,7.15.17,14.31-.08,21.45-.1,2.9.05,6.26-3.9,7.52-5.6,1.79-6.28,1.4-6.5-4.53"/>
  <path class="cls-1" d="M275.69,252.99c-.17-3.65,1.31-6.99,2.02-10.53.56,3.39,2.07,6.56,1.96,10.03-.07,2.24,1.09,3.61,3,4.49"/>
  <path class="cls-1" d="M121.4,162.67c-1.62,2.34-2.72,5.14-5.5,6.47-2.34,1.12-3.05,3.21-3.49,5.5-1.11,5.82-3.38,10.24-10.49,10.1-2.1-.04-3.88,2.1-5.99,2.87"/>
  <path class="cls-1" d="M169.34,189.62c4.94,2.92,5.87,8.31,7.99,12.97"/>
  <path class="cls-1" d="M263.71,382.72c.22,4.66-.07,9.31,0,13.97"/>
  <path class="cls-1" d="M275.69,130.74c4.84,4.64,2.62,10.99,3.92,16.48.45,1.89.07,3.98.07,5.97"/>
  <path class="cls-1" d="M180.32,179.14c2.05,4.46-1.22,9.68,2,13.97"/>
  <path class="cls-1" d="M493.4,178.14c-.58,4.65,2.29,9.67-1.5,13.97"/>
  <path class="cls-1" d="M210.78,112.27c-.18,1.16-1.03,2.58-1.57,2.87-5.66,3.08-5.72,9.61-8.87,13.76-3.35,4.42-3.88,7.68-2.61,12.34.42,1.55.08,3.31.07,4.97"/>
  <path class="cls-1" d="M301.66,120.26c.27,4.65-.57,9.35.5,13.97"/>
  <path class="cls-1" d="M248.23,180.13c4.22,5.06,1.87,10.91,2,16.47"/>
  <path class="cls-1" d="M302.65,313.86c2.83,1.04,1.89,3.49,1.97,5.49.1,2.49.02,4.99.02,7.48"/>
  <path class="cls-1" d="M211.28,127.24c.62,4.14.9,8.37.34,12.45-.33,2.39-.01,4.39.66,6.51"/>
  <path class="cls-1" d="M344.1,183.63c-1.56,1.04-3.43,1.36-5.03,2.44-6.22,4.19-13.03,3.86-19.93,2.05"/>
  <path class="cls-1" d="M265.21,147.7c-4.19-.08-8.38-.03-12.48,1"/>
  <path class="cls-1" d="M469.43,179.14c.04,4.33-1.11,8.43-2.5,12.47"/>
  <path class="cls-1" d="M115.41,224.04c-1.64-1.7-1.39-3.65-.47-5.47,1.72-3.41,1.28-7.01.87-10.48-.35-2.96.7-5.55,1.76-7.92,1-2.24,3.31-3.39,6.35-2.65,3.99.97,7.82,2.22,11.46,4.08"/>
  <path class="cls-1" d="M300.66,73.85c6.66.22,12.96,2.47,19.47,3.49"/>
  <path class="cls-1" d="M362.07,103.29c2.19,1.28,4.62.93,6.99,1.01,1.87.06,3.92-.74,5.49.99"/>
  <path class="cls-1" d="M261.21,174.15c2.96,4.15,1.62,9.13,1.63,13.47,0,4.1,1.7,4.36,4.36,5,2.22.53,4.44.92,6.05,2.94,1.11,1.39,1.38,2.58.44,4.03-3.17,4.92-.92,10.74-2.73,16.06-1.2,3.52,2.98,2.67,5.23,2.9"/>
  <path class="cls-1" d="M110.91,215.06c-5.37.43-8.3,3.07-10.3,8.36-1.13,2.99-4.32,6.32-8.67,6.61"/>
  <path class="cls-1" d="M270.2,215.06c-4.15,1.84-8.7,1.01-12.98,2"/>
  <path class="cls-1" d="M259.71,340.81c-3.97-.86-7.84-4-11.98-.5"/>
  <path class="cls-1" d="M282.68,265.96c2.93-2.53,6.26-2.49,9.45-.93,2.3,1.13,4.91,1.42,7.33,3.13-3.8.47-7.14,1.96-10.79,1.79"/>
  <path class="cls-1" d="M344.85,1c-.68,1.09-.71,2.69-2.75,2.54-3.45-.26-4.56,2.05-4.44,4.95.12,2.68-.73,5.06-1.72,7.87-3.61.94-7.59-2.52-11.31.12"/>
  <path class="cls-1" d="M365.57,286.92c-.65.27-.85-.78-1.5-.49,3.63-4.14,6.44-4.14,14.98,0"/>
  <path class="cls-1" d="M304.65,311.87c-5.8-4.71-11.38-1.8-16.98.5"/>
  <path class="cls-1" d="M139.38,154.19c-.2,3.82.46,7.69-.5,11.48"/>
  <path class="cls-1" d="M210.78,183.63c-3.64-.7-7.32-.46-10.99-.5"/>
  <path class="cls-1" d="M339.1,90.32c9.17-2.49,8.97-2.37,14.1,5.92,1.62,2.62,3.87,5.32,7.37,6.06"/>
  <path class="cls-1" d="M251.22,68.36c3.71,4.51,1.85,10.64,4.49,15.47"/>
  <path class="cls-1" d="M294.17,155.68c.63,3.83,3.01,7.65.36,11.38-2.12.57-2.13-1.58-2.74-1.91-2.62.04-1.24,2.87-3.12,3.01"/>
  <path class="cls-1" d="M297.16,182.63c-.41,1.31-1.12,2.4-1.92,3.55-1.93,2.76-1.56,4.85,2.42,4.94"/>
  <path class="cls-1" d="M229.25,103.79c-1.33,3.4.27,7.08-1,10.48"/>
  <path class="cls-1" d="M316.14,171.15c1.17,5.77,1.06,11.72,2.45,17.48.36,1.49-.18,2.95-1.95,3.48"/>
  <path class="cls-1" d="M257.72,139.22c3.43.72,5.67,3.26,6.84,6.05,1.43,3.42,3.92,5.41,6.64,7.42"/>
  <path class="cls-1" d="M94.94,195.6c-2.6-3.42-6.34-3.07-9.99-2.99"/>
  <path class="cls-1" d="M268.7,174.15c2.09,2.66,1.3,7.18,5.49,8.48"/>
  <path class="cls-1" d="M149.36,172.15c-3.3-7.14-10.19-5.57-16-6.34-1.2-.16-2.77.83-3.95-.17-2.46-2.09-4.98-3.96-8.27-4.46"/>
  <path class="cls-1" d="M297.16,304.38c.53-5.35.17-5.84-4.49-5.99"/>
  <path class="cls-1" d="M86.95,232.03c-3.05.42-6.54-1.11-8.99,2"/>
  <path class="cls-1" d="M123.4,175.64c7.75-.41,13.54,3.96,19.47,7.98"/>
  <path class="cls-1" d="M288.67,113.27c-5.45-.24-8.35,3.08-10.49,7.48"/>
  <path class="cls-1" d="M153.36,136.22c-1.15.27-2.63-.69-3.46.52-3.08,4.5-7.42,4.37-12.01,3.47"/>
  <path class="cls-1" d="M114.91,192.11c-.99.24-2.68.48-2.92.35-6.43-3.36-9.47,1.55-13.06,5.14"/>
  <path class="cls-1" d="M283.18,339.31c-3.05-2.28-6.22-2.3-9.49-.5"/>
  <path class="cls-1" d="M416,152.69c6.08-.64,8.21,2.52,5.96,8.97-.41,1.18-1.61,2.07-1.47,3.5"/>
  <path class="cls-1" d="M462.44,175.14c-.57,3.14,1.67,6.43-.5,9.48"/>
  <path class="cls-1" d="M120.4,168.16c4.38,2.58,2.07,6.66,1.87,9.97-.38,6.18-.65,12.32.13,18.47"/>
  <path class="cls-1" d="M242.74,203.59c3.3-3.7,5.87-1.54,8.51.98,2.19,2.09,2.08,4.01-.02,6.01"/>
  <path class="cls-1" d="M495.39,175.14c-.32,2.99.65,6.04-.5,8.98"/>
  <path class="cls-1" d="M155.35,142.21c-4.49,2.56-1.93,6.73-1.82,9.97.21,6.18.6,12.31-.18,18.47"/>
  <path class="cls-1" d="M101.43,211.07c0-.67-.19-1.4.03-1.98,1.59-4.17.27-6.82-4.12-7.93-3.32,2.46-7.19,3.48-11.39,3.42"/>
  <path class="cls-1" d="M263.71,202.09c-3.51,4.2-3.4,9.89-5.99,14.47"/>
  <path class="cls-1" d="M134.88,366.75c-1.58,2.79-2.46,5.74-2,8.98"/>
  <path class="cls-1" d="M119.9,231.53c-2.94-1.15-6-.18-8.99-.5"/>
  <path class="cls-1" d="M358.08,102.79c-2.77,1.11-5.67.21-8.49.5"/>
  <path class="cls-1" d="M428.98,152.69c-1.63,2.16-.22,6.05-3.99,6.99"/>
  <path class="cls-1" d="M103.92,231.03c-2.82-.29-5.71.61-8.49-.5"/>
  <path class="cls-1" d="M247.73,78.34c-1.71,2.67-.75,5.65-1,8.48"/>
  <path class="cls-1" d="M288.17,79.34c2.83,1.2,5.66,1.6,8.49,0"/>
  <path class="cls-1" d="M128.39,368.25c-2.83,2.72-5.66,1.14-8.49,0"/>
  <path class="cls-1" d="M459.44,169.66c-3.82-3.06-8.61-2.49-12.98-3.49"/>
  <path class="cls-1" d="M326.12,171.15c-.37,2.11-1.84,4.41,1,5.99,2.04,1.13,1.29,3.16.88,4.46-.8,2.53.09,4.47,1.12,6.52"/>
  <path class="cls-1" d="M293.67,190.61c-2.2,2.42-.56,4.21,1.01,5.98.92,1.03,2.13,1.87,1.99,3.5"/>
  <path class="cls-1" d="M465.43,177.14c-.21,2.83.48,5.7-.5,8.48"/>
  <path class="cls-1" d="M398.52,132.23c-1.82,2.48-1.67,6.07-4.49,7.98"/>
  <path class="cls-1" d="M298.16,66.37c1.46,1.15,2.99,2.43,2.46,4.48-2.02,7.8-.39,15.64-.46,23.46"/>
  <path class="cls-1" d="M289.17,131.73c-2.58-1.23-5.41-1.77-7.99-2.99"/>
  <path class="cls-1" d="M275.69,183.13c-3.06.43-3.45,2.82-2.88,4.96.67,2.51-.77,3.63-2.11,5.02"/>
  <path class="cls-1" d="M454.95,154.69c.19,2.89.28,5.73-3.5,6.49"/>
  <path class="cls-1" d="M281.68,211.07c-.01,3.3-.47,6.36-1.81,9.56-1.45,3.47-.21,7.54,1.46,10.83,1.12,2.21,2.21,4.59,3.85,6.56"/>
  <path class="cls-1" d="M197.8,165.16c-3.17-.43-4.95,1.57-5.9,4.03-.78,2.03-2.08,3.66-3.16,5.41-2.63,4.25-9.43,5.77-12.8,2.42-3.25-3.23-5.84-7.45-6.97-11.89-1.82-7.18,3.25-12.82,10.85-12.94,1.84-.03,3.71.18,5.49-.5"/>
  <path class="cls-1" d="M422.49,140.22c-1.26,1.99.24,3.49,1.53,3.89,8.1,2.55,8.22,2.43,9.37,10.09.2,1.36.73,2.16,1.58,2.98"/>
  <path class="cls-1" d="M387.04,123.25c-.82,2.45-.29,5.27-2,7.48"/>
  <path class="cls-1" d="M236.24,96.31c-.24,3.74-4.29,7.17-7.98,6.43-2.84-.57-5.67-.34-8.5-.45"/>
  <path class="cls-1" d="M253.72,268.45c-2.45-.53-4.63.84-6.99,1"/>
  <path class="cls-1" d="M253.72,104.79c-2.3.64-4.65.48-6.99.5"/>
  <path class="cls-1" d="M164.84,155.68c-2.13,1.73-4.65.72-6.99,1"/>
  <path class="cls-1" d="M304.65,167.16c.79.21,2.02.49,1.44,1.46-1.46,2.42-.25,4.41.56,6.52"/>
  <path class="cls-1" d="M274.19,163.17c.15,2.35,1.52,4.53,1,6.99"/>
  <path class="cls-1" d="M412.51,148.2c-3.75-.03-7.33.42-9.99,3.49"/>
  <path class="cls-1" d="M459.44,154.69c-2.28.18-4.45-.09-5.97-2.01-1.19-1.49-2.53-2.31-4.51-2-1.83.28-1.91-1.63-2.38-2.53-.72-1.39.93-1.56,1.88-1.94"/>
  <path class="cls-1" d="M276.19,328.83c-1.06,1.22-.42,2.67-.46,3.99-.08,2.57,1.37,0,1.96.5"/>
  <path class="cls-1" d="M268.7,429.63c-2.05,1.12-4.17,2.08-6.49,2.49"/>
  <path class="cls-1" d="M128.89,144.21c-1.23-.75-2.57-.96-3.99-1.02-2.55-.1-3.62.77-3.06,3.52.35,1.76.06,3.65.07,5.48"/>
  <path class="cls-1" d="M193.3,143.71c-2.07,1.08-4.16,2.09-6.49,2.49"/>
  <path class="cls-1" d="M184.32,192.11c-.4,2.28.57,4.34,1,6.49"/>
  <path class="cls-1" d="M339.1,19.46c1.36,1.95.39,4.61,2,6.49"/>
  <path class="cls-1" d="M196.3,297.89c.45,2.41.7,4.94,3.5,5.99"/>
  <path class="cls-1" d="M404.52,155.19c1.83,0,3.75.36,5.47-.09,2.45-.63,6.72.2,5.13-4.94-.12-.39.37-1.83,1.36-2.49,2.58-1.73.83-3.63.02-5.46"/>
  <path class="cls-1" d="M201.29,130.74c2.1.94,4.33.33,6.49.5"/>
  <path class="cls-1" d="M370.81,270.45c1.17,3.19-2.98,5.28-1.75,8.48"/>
  <path class="cls-1" d="M440.47,137.72c-1.43.77-3.58-2.88-4.41.52-.59,2.4,2.06,2.5,3.42,3.47"/>
  <path class="cls-1" d="M232.75,133.23c-5.68-4.75-12.2-7.69-19.47-8.98"/>
  <path class="cls-1" d="M422.49,128.74c1.72.48,3.38,1.04,4.02,3.07-.72,1.92-3.19,2.95-3.02,5.42"/>
  <path class="cls-1" d="M302.15,156.18c.34,2.04.92,4.01,1.5,5.99"/>
  <path class="cls-1" d="M263.71,439.6c-1.37,2.87.94,6.97-3,8.98"/>
  <path class="cls-1" d="M153.86,125.75c0-2.21-.6-4.52,1.11-6.37-2.5-2.67-5.22-2.52-8.1-1.11"/>
  <path class="cls-1" d="M204.79,89.32c1.2,5.79,1.56,5.99,6.98,3.48,2.47-1.14,4.71-.22,7,.51"/>
  <path class="cls-1" d="M461.94,156.18c-1.75,3.52,1.95,3.76,2.9,3.29,2.14-1.06,3.76-.79,5.59.2"/>
  <path class="cls-1" d="M135.38,152.69c-1.84.11-3.72-.34-5.49.5"/>
  <path class="cls-1" d="M442.46,150.69c-3,.63-5.7,2.65-8.99,2"/>
  <path class="cls-1" d="M351.09,122.75c1.84.11,3.72-.34,5.49.5"/>
  <path class="cls-1" d="M439.47,145.21c-.49,1.98.04,3.77,1,5.49"/>
  <path class="cls-1" d="M2.56,293.4c-.23,1.85-2.63,3.3-1,5.49"/>
  <path class="cls-1" d="M351.59,285.92c-3.16-.96-6.32-2.79-9.49,0"/>
  <path class="cls-1" d="M430.48,128.24c.33,5.59.03,6-3.99,5.49"/>
  <path class="cls-1" d="M488.4,177.14c-.27,1.65.56,3.42-.5,4.99"/>
  <path class="cls-1" d="M352.59,96.31c-2.33-.07-4.66.12-6.99,0"/>
  <path class="cls-1" d="M101.43,223.55c1.72.05,3.53-.36,4.99,1"/>
  <path class="cls-1" d="M131.89,371.24c-1.52.99-3.36.89-4.99,1.5"/>
  <path class="cls-1" d="M287.18,114.77c2.57,1.42.54,6.02,4.49,6.49"/>
  <path class="cls-1" d="M472.42,175.14c.27,1.32-.56,2.77.5,3.99"/>
  <path class="cls-1" d="M274.69,334.32c-2.49,4.08-1.97,5.77,2,6.49"/>
  <path class="cls-1" d="M327.62,306.88c-1.07,1.2-3.18-.38-3.99,1.5"/>
  <path class="cls-1" d="M295.66,304.88c2.99-.32,3.68,1.65,3.99,3.99"/>
  <path class="cls-1" d="M450.45,161.67c-1.18,1.08-2.25,2.2-2,3.99"/>
  <path class="cls-1" d="M264.71,211.07c-1.26-.7-2.65-.46-3.99-.5"/>
  <path class="cls-1" d="M295.16,167.16c-.3,3.49,3.53,6.99,0,10.48"/>
  <path class="cls-1" d="M152.86,149.2c-1.18.06-2.41-.21-3.5.5"/>
  <path class="cls-1" d="M164.34,196.1c-.98.69-1.19,2.54-3,2"/>
  <path class="cls-1" d="M253.72,195.1c-.69,1.61-1.54,2.83-3.5,1.5"/>
  <path class="cls-1" d="M367.07,262.97c-1.46.52.72,2.86-1.5,2.99"/>
  <path class="cls-1" d="M317.13,312.36c.21,1.85,2.02,1.29,3,2"/>
  <path class="cls-1" d="M283.18,177.64c-1.24.36-2.26-.86-3.5-.5"/>
  <path class="cls-1" d="M264.71,192.61c-.53,1.25-1.6,2.05-2.53,3.03-1.17-.5-2.03-1.3-2.46-2.53"/>
  <path class="cls-1" d="M110.42,218.56c1.72,1.07.15,4.69,3.5,4.49"/>
  <path class="cls-1" d="M306.15,204.09c-1.83-.58-2.75-.03-2.5,2"/>
  <path class="cls-1" d="M268.7,207.08c-.49,2.15,1.35,1.97,2.5,2.49"/>
  <path class="cls-1" d="M200.29,168.16c1.27.84-.52,2.98,1.5,3.49"/>
  <path class="cls-1" d="M153.36,384.22c-1.48.57,2.31,2.19-.5,2.49"/>
</svg>