<?xml version="1.0" encoding="UTF-8"?>
<svg id="Layer_1" data-name="Layer 1" xmlns="http://www.w3.org/2000/svg" viewBox="0 0 1366 768">
  <defs>
    <style>
      .cls-1 {
        fill: none;
        stroke: #000;
        stroke-linecap: round;
        stroke-linejoin: round;
        stroke-width: 3.6px;
      }
    </style>
  </defs>
  <path class="cls-1" d="M751.23,151.9h-26.03c-15.82,32.84-31.36,65.1-47.22,98.01,2.16.6,4.08,1.13,6.2,1.71.99-2.89,1.86-5.44,2.74-7.98"/>
  <path class="cls-1" d="M530.86,158.52c-.28-3.35,3.62-7.96-3.77-9.61-15.28,20.62-30.68,41.7-46.42,62.53-6.22,8.23-13.79,15.55-15.07,26.53"/>
  <path class="cls-1" d="M735.15,154.74c-5.04,13.87-9.81,27.85-15.2,41.59-6.97,17.77-14.42,35.34-21.72,52.97-.32.76-1.22,1.28-1.85,1.91"/>
  <path class="cls-1" d="M539.38,309.85c1.02-2.62,2.04-5.23,3-7.69,5.51.74,10.24,1.38,14.97,2.02"/>
  <path class="cls-1" d="M621.66,147.17c-11.03,17.65-22.07,35.31-33.1,52.96"/>
  <path class="cls-1" d="M728.06,274.85c.14,8.53-2.46,17.21,1.42,25.54"/>
  <path class="cls-1" d="M792.85,284.31c-5.99-.32-12.03-.26-17.96-1.03-9.81-1.27-19.56-3.07-29.33-4.65"/>
  <path class="cls-1" d="M575.32,435.64c3.47.32,6.93.76,10.41.91,3.78.16,7.56.04,12.55.04-.61-5.76-1.11-10.47-1.69-15.97-11.66-2.59-23.09-5.13-34.51-7.67"/>
  <path class="cls-1" d="M580.99,143.39c-3.15,1.26-7.63,1.6-9.26,3.92-18.6,26.57-36.78,53.45-55,80.29-.44.65-.06,1.85-.06,4.69h13.24"/>
  <path class="cls-1" d="M705.83,169.87c-12.34,27.09-24.67,54.19-37.03,81.34h-4.58"/>
  <path class="cls-1" d="M582.88,347.68c-3.47.32-6.94.63-10.4.95"/>
  <path class="cls-1" d="M672.73,192.57c-5.67,12.3-11.51,24.52-16.84,36.96-.79,1.84-4.53,7.01,2.66,6.54"/>
  <path class="cls-1" d="M558.29,141.5c-9.77,14.19-19.55,28.37-29.32,42.56"/>
  <path class="cls-1" d="M527.08,185.95c-11.03,16.08-22.07,32.16-33.1,48.24"/>
  <path class="cls-1" d="M650.03,184.06c-.63,1.89-.97,3.95-1.94,5.65-6.53,11.4-13.3,22.67-19.67,34.15-.73,1.31.49,3.7.8,5.6"/>
  <path class="cls-1" d="M734.21,313.63c-5.67-.32-11.35-.63-17.02-.95"/>
  <path class="cls-1" d="M620.71,187.84c-5.67,10.09-11.61,20.04-16.84,30.36-1.27,2.51-.19,6.21-.19,9.36"/>
  <path class="cls-1" d="M620.71,353.35c-.63,4.73-1.26,9.46-1.89,14.19"/>
  <path class="cls-1" d="M618.82,383.62c-5.67.32-11.36.48-17.02,1.01-2.56.24-5.05,1.19-7.57,1.83"/>
  <path class="cls-1" d="M595.18,398.75h17.99c-.1.28-.2.57-.31.85l13.52-3.69"/>
  <path class="cls-1" d="M563.02,144.33c-5.99,11.35-12.14,22.62-17.86,34.1-1.38,2.78-1.37,6.25-2,9.4"/>
  <path class="cls-1" d="M601.8,167.98c-6.62,11.03-13.24,22.07-19.86,33.1"/>
  <path class="cls-1" d="M633.95,352.41c.89,2.42-2.5,7.28,3.78,6.62"/>
  <path class="cls-1" d="M571.53,343.9c-5.87,5.13-11.74,10.26-16.81,14.69.69,4.82,1.18,8.31,1.68,11.79"/>
  <path class="cls-1" d="M747.45,239.86c-1.26,14.5-2.52,29-3.78,43.51"/>
  <path class="cls-1" d="M599.91,209.59c-5.31,10.11-10.63,20.22-15.91,30.27h-8.68"/>
  <path class="cls-1" d="M712.46,468.27c-7.57,2.68-15.13,5.36-22.7,8.04"/>
  <path class="cls-1" d="M569.64,169.87c-5.36,9.14-10.72,18.29-16.08,27.43"/>
  <path class="cls-1" d="M647.2,454.55c-3.78-.63-7.57-1.26-11.35-1.89"/>
  <path class="cls-1" d="M627.33,442.26c-5.4-.3-11.15-6.7-17.89,2.46,5-.67,8.13-1.1,11.27-1.52"/>
  <path class="cls-1" d="M643.41,183.11c-4.41,8.2-8.83,16.39-13.24,24.59"/>
  <path class="cls-1" d="M657.6,464.96h-10.4v3.78"/>
  <path class="cls-1" d="M754.07,330.65c3.31,8.87-.7,15.9-5.67,22.7"/>
  <path class="cls-1" d="M628.28,454.55c-2.84.63-5.7,1.87-8.51,1.76-5.69-.2-11.35-1.13-17.03-1.76"/>
  <path class="cls-1" d="M737.05,177.44c-3.2,6.95-8.25,13.33-6.62,21.75"/>
  <path class="cls-1" d="M511,347.68c.32,3.78.28,7.64,1.04,11.33.86,4.18,1.7,8.66,3.86,12.21,3.37,5.53,3.1,10.67.78,16.18"/>
  <path class="cls-1" d="M616.93,411.99c-8.67,2.53-14.91-4.67-22.7-5.67"/>
  <path class="cls-1" d="M590.45,384.56c-7.57-1.89-15.13-3.78-22.7-5.67"/>
  <path class="cls-1" d="M658.55,436.58c-7.25,1.26-14.5,2.52-21.75,3.78"/>
  <path class="cls-1" d="M659.49,444.15c3.78.63,7.57,1.26,11.35,1.89"/>
  <path class="cls-1" d="M472.23,459.28h-6.62"/>
  <path class="cls-1" d="M496.82,454.55c7.98-.8,14.56.43,15.13,10.4"/>
  <path class="cls-1" d="M722.86,151.9h-20.81"/>
  <path class="cls-1" d="M528.97,149.06c.35-2.8.7-5.61,1.18-9.46h-17.26"/>
  <path class="cls-1" d="M757.85,247.42c-9.14-.95-18.29-1.89-27.43-2.84"/>
  <path class="cls-1" d="M718.13,242.7c-3.72.46-7.45.93-11.17,1.39-.12-.86-.25-1.73-.37-2.59,1.64-.23,3.28-.46,4.93-.69"/>
  <path class="cls-1" d="M571.53,217.16c-3.78,6.31-7.57,12.61-11.35,18.92"/>
  <path class="cls-1" d="M602.74,475.36c.32-2.21.63-4.41.95-6.62"/>
  <path class="cls-1" d="M635.85,227.56c-6.73,2.93-13.33,5.99-15.37,14.06,1.82.39,3.39.73,4.96,1.07"/>
  <path class="cls-1" d="M734.21,425.23c-4.7,2.99-9.41,5.98-14.11,8.97.29.32.58.64.87.96h-11.35v-16.55"/>
  <path class="cls-1" d="M689.76,152.85c-1.3,5.19-2.6,10.39-4.28,17.13-8.11,1.08-7.41,8.19-4.88,16.06-2.41,1.62-4.67,3.13-6.92,4.64"/>
  <path class="cls-1" d="M645.3,427.12c8.51,1.89,17.02,3.78,25.54,5.67"/>
  <path class="cls-1" d="M557.35,353.35c-5.06-.26-10.12-.51-17.02-.86v34.91"/>
  <path class="cls-1" d="M721.91,272.02c-2.52,5.67-5.04,11.35-7.57,17.02"/>
  <path class="cls-1" d="M495.87,421.45c.43,2.18.87,4.37,1.32,6.62h6.79c-.84,4.6-1.64,8.92-2.43,13.24"/>
  <path class="cls-1" d="M584.77,440.37c-5.67.32-11.36,1.01-17.02.8-3.18-.12-6.26-2.04-9.48-2.61-3.72-.65-7.55-.71-11.34-1.02"/>
  <path class="cls-1" d="M560.18,397.8c6.62.32,13.24.58,19.86.97,3.47.2,6.94.61,10.4.93"/>
  <path class="cls-1" d="M454.26,463.06l2.11,16.9c-1.01.66-2.01,1.32-3.02,1.98l-1.93-4.69"/>
  <path class="cls-1" d="M580.99,213.38c-3.78,5.99-7.86,11.83-11.18,18.06-1.02,1.92-1.11,5.82,3.61,4.64"/>
  <path class="cls-1" d="M558.29,409.15v-13.44c-5.41-1.62-10.27-3.08-15.13-4.53"/>
  <path class="cls-1" d="M478.85,487.65h-13.79c1.8,3.15,3.07,5.36,4.33,7.57"/>
  <path class="cls-1" d="M710.56,296.61c1.02-1.53,2.04-3.06,3.78-5.67h-10.4"/>
  <path class="cls-1" d="M753.12,193.52c-7.25,1.58-14.5,3.15-21.75,4.73"/>
  <path class="cls-1" d="M535.59,402.53c2.48,1.63,4.97,3.27,7.62,5.01.21.37.92,1.04.83,1.6-1.78,11.96,6.19,16.76,15.19,20.81,1.55.7,3.15,1.27,4.72,1.9"/>
  <path class="cls-1" d="M633.01,450.77c-4.73.63-9.46,1.26-14.19,1.89"/>
  <path class="cls-1" d="M668.95,361.86v9.46c5.01,0,10.07-.08,15.13.12.51.02.95,1.77,1.42,2.71"/>
  <path class="cls-1" d="M552.62,468.74c5.67,1.26,11.35,2.52,17.02,3.78"/>
  <path class="cls-1" d="M556.4,457.39h-7.57"/>
  <path class="cls-1" d="M628.28,211.48c-2.52,4.41-5.04,8.83-7.57,13.24"/>
  <path class="cls-1" d="M503.44,211.48c-3.15,4.41-6.31,8.83-9.46,13.24"/>
  <path class="cls-1" d="M541.27,371.32h13.24"/>
  <path class="cls-1" d="M631.12,173.65c-8.85.71-4.08,6.37-3.77,10.41-1.59.94-3.17,1.89-4.74,2.83"/>
  <path class="cls-1" d="M533.7,341.06c-4.42.28-8.84.55-14.45.9.41,5.16.81,10.17,1.21,15.18"/>
  <path class="cls-1" d="M665.17,448.88v12.3"/>
  <path class="cls-1" d="M713.4,382.67h-17.02"/>
  <path class="cls-1" d="M560.18,411.99c-4.67-3.62-10.13-.94-15.13-1.89"/>
  <path class="cls-1" d="M478.85,462.12c-3.78.32-7.57.63-11.35.95"/>
  <path class="cls-1" d="M711.51,388.35c-7.57,2.84-15.13,5.67-22.7,8.51-2.52.95-5.04,1.89-7.57,2.84"/>
  <path class="cls-1" d="M569.64,437.53c1.89,3.78,3.84,7.54,5.66,11.36,1.58,3.32,3.03,6.72,5.1,11.36,5.63,3.71,12.57.64,19.5-.96"/>
  <path class="cls-1" d="M543.16,211.48c-2.52,3.78-5.04,7.57-7.57,11.35"/>
  <path class="cls-1" d="M627.33,483.87c-4.88,7.95-11.72,3.54-17.97,2.84"/>
  <path class="cls-1" d="M613.15,418.61c-3.78.63-7.57,1.26-11.35,1.89"/>
  <path class="cls-1" d="M704.89,409.15c-2.19-5.64-6.4-3.87-10.4-2.84"/>
  <path class="cls-1" d="M643.41,444.15c1.89.63,5.25.97,5.44,1.94,1.34,6.68,7.88,8.08,11.58,12.25"/>
  <path class="cls-1" d="M595.18,467.79c-7.25-.63-14.5-1.26-21.75-1.89"/>
  <path class="cls-1" d="M640.58,149.06c-.32,6.94-.63,13.87-.95,20.81"/>
  <path class="cls-1" d="M653.82,191.62c-.95,3.47-1.89,6.94-2.84,10.4"/>
  <path class="cls-1" d="M664.22,381.73v-9.96c-5.03.43-11.03.94-17.02,1.45"/>
  <path class="cls-1" d="M640.58,248.37c-3.47.32-6.94.63-10.4.95"/>
  <path class="cls-1" d="M609.36,225.67c-6.08,2.75-13.31,4.34-13.24,13.24"/>
  <path class="cls-1" d="M635.85,404.43v9.46"/>
  <path class="cls-1" d="M618.82,408.21c4.1.63,8.2,1.26,12.3,1.89"/>
  <path class="cls-1" d="M763.53,194.46c.95,3.15,1.89,6.31,2.84,9.46"/>
  <path class="cls-1" d="M694.49,389.29h-9.46"/>
  <path class="cls-1" d="M622.61,475.36l-14.19-2.84"/>
  <path class="cls-1" d="M682.19,377c-2.84.95-5.69,1.86-8.51,2.85-4.42,1.55-8.83,3.14-13.24,4.72"/>
  <path class="cls-1" d="M689.76,288.09c-.13-1.56-.27-3.12-.5-5.81,5.2,2.31,9.58,4.26,14.23,6.33-1.55,4.27-2.92,8.02-4.28,11.77"/>
  <path class="cls-1" d="M526.14,179.33c-2.52,3.15-5.04,6.31-7.57,9.46"/>
  <path class="cls-1" d="M646.25,375.11l-14.19,2.84"/>
  <path class="cls-1" d="M746.5,328.76v9.46"/>
  <path class="cls-1" d="M444.8,439.42c-1.26,2.21-2.52,4.41-3.78,6.62"/>
  <path class="cls-1" d="M577.21,453.61c-2.84.32-5.67.63-8.51.95"/>
  <path class="cls-1" d="M638.68,389.29c4.42,5.44,3.03,14.24,10.4,17.97"/>
  <path class="cls-1" d="M706.78,460.23c.63,2.84,1.26,5.67,1.89,8.51"/>
  <path class="cls-1" d="M714.35,422.4c3.78,1.89,7.57,3.78,11.35,5.67"/>
  <path class="cls-1" d="M554.51,471.58c-.63,2.84-1.26,5.67-1.89,8.51"/>
  <path class="cls-1" d="M551.67,199.19c-2.21,2.84-4.41,5.67-6.62,8.51"/>
  <path class="cls-1" d="M529.92,126.36h-7.57"/>
  <path class="cls-1" d="M652.87,364.7c1.78-1.12,3.56-2.24,6.51-4.09,1.15,3.83,2.05,6.8,2.95,9.77"/>
  <path class="cls-1" d="M453.31,488.6c.87,1.31,1.75,2.62,3.09,4.63,1.06-1.52,1.82-2.6,2.58-3.68"/>
  <path class="cls-1" d="M533.7,300.39h-7.57"/>
  <path class="cls-1" d="M589.5,481.03c6.74,4.84,14.2,4.19,21.75,2.84"/>
  <path class="cls-1" d="M470.33,450.77h-8.7c.41-2.04.77-3.86,1.14-5.67"/>
  <path class="cls-1" d="M687.86,352.41c3.47.63,6.94,1.26,10.4,1.89"/>
  <path class="cls-1" d="M519.51,423.34c-.32,2.52-.63,5.04-.95,7.57"/>
  <path class="cls-1" d="M516.68,192.57c-1.89,2.52-3.78,5.04-5.67,7.57"/>
  <path class="cls-1" d="M632.06,418.61h-7.57"/>
  <path class="cls-1" d="M518.57,417.67c1.26,2.52,2.52,5.04,3.78,7.57"/>
  <path class="cls-1" d="M643.41,222.83c-1.26,2.52-2.52,5.04-3.78,7.57"/>
  <path class="cls-1" d="M733.26,189.73c1.58,1.89,3.15,3.78,4.73,5.67"/>
  <path class="cls-1" d="M630.17,148.12c-1.26,2.21-2.52,4.41-3.78,6.62"/>
  <path class="cls-1" d="M601.8,465.9c-4.08,2.43-6.92,9.19-13.24,3.78"/>
  <path class="cls-1" d="M596.12,437.53v6.21c4.03-1.13,6.83-1.92,10.34-2.91-2.7-2.14-4.63-3.67-6.56-5.2"/>
  <path class="cls-1" d="M662.33,431.85c-4.81,4.85-.88,15.05-10.4,17.02"/>
  <path class="cls-1" d="M573.42,444.15h7.03c.48-2.45.98-5.01,1.48-7.57"/>
  <path class="cls-1" d="M539.38,364.7h-3.97c.44,1.46.79,2.62,1.14,3.78"/>
  <path class="cls-1" d="M560.18,133.93c-1.89,1.26-3.78,2.52-5.67,3.78"/>
  <path class="cls-1" d="M586.67,203.92c-1.26,1.89-2.52,3.78-3.78,5.67"/>
  <path class="cls-1" d="M711.51,192.57c-.63,1.89-1.26,3.78-1.89,5.67"/>
  <path class="cls-1" d="M642.47,402.53c-4.1-.63-8.2-1.26-12.3-1.89"/>
  <path class="cls-1" d="M528.97,337.27c-1.85-1.33-3.71-2.67-5.63-4.05-1.69,1.1-3.23,2.1-4.77,3.11"/>
  <path class="cls-1" d="M615.04,236.08c-1.26,1.89-2.52,3.78-3.78,5.67"/>
  <path class="cls-1" d="M746.5,342c-.57-.98-1.15-1.96-1.91-3.27-2.34,2.5-4.47,4.77-6.6,7.05"/>
  <path class="cls-1" d="M709.62,392.13c-.63,1.58-1.26,3.15-1.89,4.73"/>
  <path class="cls-1" d="M701.11,159.47c.95,1.58,1.89,3.15,2.84,4.73"/>
  <path class="cls-1" d="M511.95,229.45c-1.58.32-3.15.63-4.73.95"/>
  <path class="cls-1" d="M555.45,424.29c3.47.32,6.94.63,10.4.95"/>
  <path class="cls-1" d="M700.16,384.56c-.63,1.58-1.26,3.15-1.89,4.73"/>
  <path class="cls-1" d="M720.02,302.28c-.63,2.21-1.26,4.41-1.89,6.62"/>
  <path class="cls-1" d="M724.75,216.21c-1.26-.16-2.52-.32-3.78-.47"/>
  <path class="cls-1" d="M582.88,132.04c1.26.63,2.52,1.26,3.78,1.89"/>
  <path class="cls-1" d="M661.38,168.92v3.78"/>
  <path class="cls-1" d="M509.11,203.92c-1.26,1.26-2.52,2.52-3.78,3.78"/>
  <path class="cls-1" d="M609.36,190.68c-.63,1.26-1.26,2.52-1.89,3.78"/>
  <path class="cls-1" d="M647.2,175.55c-.63,1.26-1.26,2.52-1.89,3.78"/>
  <path class="cls-1" d="M552.62,437.53c-.32,1.26-.63,2.52-.95,3.78"/>
  <path class="cls-1" d="M467.5,481.98c.32.95.63,1.89.95,2.84"/>
  <path class="cls-1" d="M459.93,474.41c.63.63,1.26,1.26,1.89,1.89"/>
  <path class="cls-1" d="M559.24,452.66v-4.73c.95.32,1.89.63,2.84.95"/>
  <path class="cls-1" d="M655.3,192.57c10.08-8.12,13.11-20.52,18.78-31.28,1.75-3.33,3.38-6.82,5.04-10.79-6.22-2.77-12.58-5.49-18.97-1.26-2.58,1.7-3.97.22-5.78-.22-11.82-2.87-23.89-3.74-35.95-3.6-11.61.13-16.35,9.67-21.71,17.87-2.73,4.18-3.69,9.63-9.48,11.39-2.67.81-4.4,3.09-5.71,5.6-6.86,13.12-17.66,24.11-20.95,39.22-.53,2.41-1.76,5.76-3.73,6.96-8.52,5.17-4.73,12.69-1.44,16.92,7.82,10.06,6.51,21.54,6.87,32.44.41,12.09,2.11,23.96,3.37,35.91.18,1.72.75,4.28,2.64,5.7"/>
  <path class="cls-1" d="M485.94,482.93c7.93-14.46,3.78-35.97-8.99-46.34-5.02-4.08-11.28-4.78-16.96-3.51-5.74,1.28-11.36,1.46-17.09,1.61"/>
  <path class="cls-1" d="M587.61,291.88c-3.2,8.54-4.78,17.36-4.73,26.48"/>
</svg>